<?xml version="1.0" encoding="utf-8"?>
<!-- Generator: Adobe Illustrator 21.0.2, SVG Export Plug-In . SVG Version: 6.00 Build 0)  -->
<svg version="1.1" id="Capa_1" xmlns="http://www.w3.org/2000/svg" xmlns:xlink="http://www.w3.org/1999/xlink" x="0px" y="0px"
	 viewBox="0 0 23 23" style="enable-background:new 0 0 23 23;" xml:space="preserve">
<style type="text/css">
	.st0{fill:#999898;}
</style>
<path class="st0" d="M13.4,11c-3.9,1.3,0,0-4,1.3c0,0,0,0,0,0c0,1.8-1.5,3.3-3.3,3.3c-1.8,0-3.3-1.5-3.3-3.3c0-1.8,1.5-3.3,3.3-3.3
	c1.4,0,2.6,0.9,3.1,2.1c2.2-0.6,7.8-2.3,11.2-6.8c-1.5-2-3.7-3.4-6.2-4c-1-0.3-1.9-0.4-2.9-0.4C9.6,0,7.8,0.4,6.3,1.2
	C5.1,1.8,4.1,2.6,3.1,3.5C2,4.7,1.1,6,0.5,7.8C-1.7,14.6,3.7,17,6.1,17c0.7,0,2.8-0.1,4.7-1.7C11.9,14.4,12.9,13.2,13.4,11L13.4,11z
	 M22.9,10.8c-3-0.6-5.3-0.4-5.8-0.4C15.6,18,7.2,22.5,10,22.9c0.5,0.1,1.1,0.1,1.4,0.1c1.4,0,2.7-0.2,4.1-0.7c3.1-1.2,6-3.9,7.1-7.9
	c0.2-0.9,0.3-1.7,0.4-2.8C22.9,11.3,22.9,11,22.9,10.8L22.9,10.8z"/>
</svg>
