<?xml version="1.0" encoding="utf-8"?>
<!-- Generator: Adobe Illustrator 19.2.1, SVG Export Plug-In . SVG Version: 6.00 Build 0)  -->
<svg version="1.1" id="Capa_1" xmlns="http://www.w3.org/2000/svg" xmlns:xlink="http://www.w3.org/1999/xlink" x="0px" y="0px"
	 viewBox="0 0 24.2 24.8" style="enable-background:new 0 0 24.2 24.8;" xml:space="preserve">
<style type="text/css">
	.st0{fill:#FFFFFF;}
</style>
<path class="st0" d="M14.2,11.9c-3.9,1.3,0,0-4,1.3l0,0c0,1.8-1.5,3.3-3.3,3.3S3.6,15,3.6,13.2s1.5-3.3,3.3-3.3
	c1.4,0,2.6,0.9,3.1,2.1c2.2-0.6,7.8-2.3,11.2-6.8c-1.5-2-3.7-3.4-6.2-4c-1-0.3-1.9-0.4-2.9-0.4c-1.7,0.1-3.5,0.5-5,1.3
	C5.9,2.7,4.9,3.5,3.9,4.4c-1.1,1.2-2,2.5-2.6,4.3c-2.2,6.8,3.2,9.2,5.6,9.2c0.7,0,2.8-0.1,4.7-1.7C12.7,15.3,13.7,14.1,14.2,11.9
	L14.2,11.9z M23.7,11.7c-3-0.6-5.3-0.4-5.8-0.4c-1.5,7.6-9.9,12.1-7.1,12.5c0.5,0.1,1.1,0.1,1.4,0.1c1.4,0,2.7-0.2,4.1-0.7
	c3.1-1.2,6-3.9,7.1-7.9c0.2-0.9,0.3-1.7,0.4-2.8C23.7,12.2,23.7,11.9,23.7,11.7L23.7,11.7z"/>
</svg>
