<?xml version="1.0" encoding="utf-8"?>
<!-- Generator: Adobe Illustrator 19.2.1, SVG Export Plug-In . SVG Version: 6.00 Build 0)  -->
<svg version="1.1" id="Capa_1" xmlns="http://www.w3.org/2000/svg" xmlns:xlink="http://www.w3.org/1999/xlink" x="0px" y="0px"
	 viewBox="0 0 736 414" style="enable-background:new 0 0 736 414;" xml:space="preserve">
<style type="text/css">
	.st0{opacity:0.6;fill:#EFEFEF;enable-background:new    ;}
	.st1{opacity:0.3;enable-background:new    ;}
	.st2{fill:#AFAFAF;}
</style>
<rect y="1" class="st0" width="736" height="414"/>
<g class="st1">
	<path class="st2" d="M368,136.8c-39.3,0-71.2,31.9-71.2,71.2s31.9,71.2,71.2,71.2c39.3,0,71.2-31.9,71.2-71.2
		S407.3,136.8,368,136.8z M304.9,186.4c3.4-10.3,8.4-17.7,15.1-24.6c5.3-5.5,11.4-10,18.2-13.3c9.2-4.6,19.3-7,29.6-6.9
		c5.6,0,11.1,0.7,16.5,2.1c14.2,3.6,26.7,11.8,35.7,23.3c-19.6,26.2-52,35.8-64.9,39.3c-2.9-7.5-10.2-12.4-18.2-12.3
		c-10.7,0.1-19.3,8.8-19.2,19.5c0.1,10.7,8.8,19.3,19.5,19.2c10.7-0.1,19.3-8.8,19.2-19.5c0-0.1,0-0.2,0-0.3
		c23-7.8,0.1-0.1,22.9-7.7c-2.8,12.6-8.9,19.8-15,24.9c-10.6,8.8-22.9,9.6-27.1,9.6C323.4,239.7,291.9,226.1,304.9,186.4z
		 M367.7,274.5c-2.7,0-5.4-0.3-8.1-0.7c-16.2-2.4,32.7-28.2,41-72.1c11.2-0.9,22.5-0.2,33.6,2c0,0,0,0,0,0l0,0c0,0,0,0,0,0
		c0.1,1.4,0.1,2.9,0.1,4.3C434.1,244.8,404.3,274.5,367.7,274.5z"/>
</g>
</svg>
