<?xml version="1.0" encoding="UTF-8"?>
<svg xmlns="http://www.w3.org/2000/svg" xmlns:xlink="http://www.w3.org/1999/xlink" version="1.2" >
<font id="Portada Lt">
<font-face  font-family="Portada" units-per-em="1000" ascent="755" descent="-245" font-style="normal" font-weight="300" font-stretch="normal" cap-height="724" x-height="516" underline-position="-75" underline-thickness="50" />
<missing-glyph  horiz-adv-x="500" d="" />
<glyph glyph-name="null" d="" />
<glyph glyph-name="nonmarkingreturn" unicode="&#xd;" horiz-adv-x="500" d="" />
<glyph glyph-name="space" unicode="&#x20;" horiz-adv-x="185" d="" />
<glyph glyph-name="exclam" unicode="&#x21;" horiz-adv-x="258" d="M109 176 L89 490 L89 724 L164 724 L164 490 L143 176 L109 176 Z M187 39 Q187 -15 128 -15 Q102 -15 86.5 -2 Q71 11 71 37 Q71 63 86.5 76 Q102 89 128 89 Q155 89 171 76 Q187 63 187 39 Z " />
<glyph glyph-name="quotedbl" unicode="&#x22;" horiz-adv-x="311" d="M122 445 L122 724 L189 724 L189 445 L122 445 Z " />
<glyph glyph-name="numbersign" unicode="&#x23;" horiz-adv-x="666" d="M346 0 L380 207 L214 207 L181 0 L128 0 L162 207 L53 207 L61 259 L171 259 L209 494 L101 494 L110 546 L218 546 L247 724 L300 724 L270 546 L436 546 L465 724 L518 724 L489 546 L595 546 L587 494 L480 494 L441 259 L551 259 L545 207 L433 207 L399 0 L346 0 Z M427 494 L262 494 L223 259 L389 259 L427 494 Z " />
<glyph glyph-name="dollar" unicode="&#x24;" horiz-adv-x="506" d="M192 0 Q137 2 99.5 14 Q62 26 41 39 L51 178 L93 178 L104 107 Q106 95 110.5 85 Q115 75 125 68 Q135 61 151.5 57 Q168 53 195 51 L217 353 Q184 365 153.5 378 Q123 391 99 411 Q75 431 60.5 460.5 Q46 490 46 534 Q46 563 56 593 Q66 623 89.5 648 Q113 673 150.5 690.5 Q188 708 242 712 L247 789 L292 789 L286 713 Q319 711 357.5 703 Q396 695 425 679 L419 534 L375 539 L365 608 Q360 634 342.5 646 Q325 658 282 661 L266 412 Q301 401 335.5 388 Q370 375 397 354.5 Q424 334 441 301.5 Q458 269 458 219 Q458 158 437 117.5 Q416 77 383.5 52 Q351 27 312 15.5 Q273 4 237 1 L232 -80 L187 -80 L192 0 Z M118 549 Q118 522 126.5 502.5 Q135 483 149 469 Q163 455 182.5 445.5 Q202 436 223 427 L239 661 Q203 658 180 646.5 Q157 635 143 618.5 Q129 602 123.5 584 Q118 566 118 549 Z M387 203 Q387 233 376.5 255 Q366 277 348.5 292.5 Q331 308 308 319.5 Q285 331 260 340 L240 51 Q268 54 294.5 63.5 Q321 73 341.5 91.5 Q362 110 374.5 137.5 Q387 165 387 203 Z " />
<glyph glyph-name="percent" unicode="&#x25;" horiz-adv-x="767" d="M204 374 Q127 374 89.5 422 Q52 470 52 554 Q52 638 93 687.5 Q134 737 209 737 Q286 737 323.5 689.5 Q361 642 361 562 Q361 477 323 425.5 Q285 374 204 374 Z M122 -11 L560 724 L628 724 L192 -11 L122 -11 Z M206 420 Q254 420 273 457 Q292 494 292 557 Q292 621 273.5 656 Q255 691 207 691 Q182 691 165 679.5 Q148 668 138.5 649.5 Q129 631 125 606 Q121 581 121 554 Q121 491 140 455.5 Q159 420 206 420 Z M560 -11 Q481 -11 443.5 37 Q406 85 406 169 Q406 253 446.5 302.5 Q487 352 563 352 Q639 352 677 304 Q715 256 715 174 Q715 86 676.5 37.5 Q638 -11 560 -11 Z M562 36 Q609 36 627.5 72 Q646 108 646 172 Q646 236 627.5 270 Q609 304 561 304 Q536 304 519 293 Q502 282 492.5 263.5 Q483 245 479 220.5 Q475 196 475 169 Q475 109 494 72.5 Q513 36 562 36 Z " />
<glyph glyph-name="ampersand" unicode="&#x26;" horiz-adv-x="749" d="M709 2 Q697 -3 682 -7 Q667 -11 647 -11 Q626 -11 610 -7.5 Q594 -4 580 3.5 Q566 11 552 24 Q538 37 521 56 L497 84 Q460 40 407.5 14.5 Q355 -11 283 -11 Q215 -11 171.5 9.5 Q128 30 103.5 59.5 Q79 89 69.5 122.5 Q60 156 60 183 Q60 231 76.5 267 Q93 303 119 328.5 Q145 354 177 370.5 Q209 387 240 395 Q205 441 189.5 477 Q174 513 174 558 Q174 605 190 638.5 Q206 672 233 694 Q260 716 295 726.5 Q330 737 368 737 Q421 737 464.5 725.5 Q508 714 532 697 L525 556 L479 561 L464 636 Q460 658 440.5 671.5 Q421 685 366 685 Q306 685 276.5 653.5 Q247 622 247 572 Q247 505 299 442 L499 199 Q513 240 521 291 Q529 342 528 393 L588 385 Q589 368 587 342 Q585 316 580 284.5 Q575 253 565 218 Q555 183 540 149 L558 130 Q582 103 597.5 85.5 Q613 68 625 58 Q637 48 648 43.5 Q659 39 673 38 L706 35 L709 2 Z M269 359 Q202 338 168.5 296 Q135 254 135 194 Q135 151 150 122.5 Q165 94 188.5 77 Q212 60 239.5 53 Q267 46 291 46 Q350 46 392 69 Q434 92 462 127 L269 359 Z " />
<glyph glyph-name="quotesingle" unicode="&#x27;" horiz-adv-x="180" d="M62 445 L62 724 L117 724 L117 445 L62 445 Z " />
<glyph glyph-name="parenleft" unicode="&#x28;" horiz-adv-x="321" d="M211 -156 Q166 -109 133.5 -52.5 Q101 4 79 63 Q57 122 46.5 181 Q36 240 36 292 Q36 369 52.5 436.5 Q69 504 97 562 Q125 620 163.5 669 Q202 718 245 758 L270 740 Q244 705 216.5 660.5 Q189 616 167 561.5 Q145 507 131 442 Q117 377 117 301 Q117 235 127 175.5 Q137 116 153.5 61.5 Q170 7 192 -43.5 Q214 -94 238 -141 L211 -156 Z " />
<glyph glyph-name="parenright" unicode="&#x29;" horiz-adv-x="325" d="M101 757 Q146 710 178.5 653.5 Q211 597 233 538 Q255 479 265.5 420.5 Q276 362 276 309 Q276 232 259.5 164.5 Q243 97 215 39 Q187 -19 149 -68 Q111 -117 67 -157 L42 -139 Q68 -104 95.5 -59.5 Q123 -15 145 39.5 Q167 94 181 159 Q195 224 195 300 Q195 366 185 425.5 Q175 485 158.5 540 Q142 595 120 645 Q98 695 74 742 L101 757 Z " />
<glyph glyph-name="asterisk" unicode="&#x2a;" horiz-adv-x="473" d="M246 580 L379 646 L415 569 L406 561 L250 553 L366 451 L306 391 L296 398 L234 537 L171 398 L161 391 L101 451 L215 552 L59 562 L50 570 L86 647 L219 580 L193 723 L277 735 L282 724 L246 580 Z " />
<glyph glyph-name="plus" unicode="&#x2b;" horiz-adv-x="600" d="M269 264 L106 264 L106 325 L269 325 L269 493 L330 493 L330 325 L494 325 L494 264 L330 264 L330 97 L269 97 L269 264 Z " />
<glyph glyph-name="comma" unicode="&#x2c;" horiz-adv-x="221" d="M171 31 Q171 12 165.5 -10.5 Q160 -33 148 -55.5 Q136 -78 117.5 -99 Q99 -120 73 -136 L52 -110 Q78 -88 91.5 -64.5 Q105 -41 109 -10 Q79 -8 63.5 6.5 Q48 21 48 43 Q48 73 65 87 Q82 101 107 101 Q136 101 153.5 85 Q171 69 171 31 Z " />
<glyph glyph-name="hyphen" unicode="&#x2d;" horiz-adv-x="336" d="M35 250 L35 310 L296 310 L296 250 L35 250 Z " />
<glyph glyph-name="period" unicode="&#x2e;" horiz-adv-x="233" d="M177 46 Q177 -11 114 -11 Q86 -11 70 2.5 Q54 16 54 45 Q54 72 70 86 Q86 100 114 100 Q143 100 160 86 Q177 72 177 46 Z " />
<glyph glyph-name="slash" unicode="&#x2f;" horiz-adv-x="423" d="M38 -92 L326 781 L383 781 L97 -92 L38 -92 Z " />
<glyph glyph-name="zero" unicode="0" horiz-adv-x="546" d="M270 -11 Q208 -11 164.5 15 Q121 41 94 89 Q67 137 54.5 205.5 Q42 274 42 359 Q42 545 100 641 Q158 737 279 737 Q341 737 383.5 710.5 Q426 684 453 636 Q480 588 492 521 Q504 454 504 372 Q504 186 448.5 87.5 Q393 -11 270 -11 Z M274 38 Q313 38 342.5 54 Q372 70 391.5 108 Q411 146 420.5 209.5 Q430 273 430 368 Q430 452 421.5 512.5 Q413 573 395 611.5 Q377 650 347.5 668 Q318 686 276 686 Q186 686 152 606.5 Q118 527 118 367 Q118 274 127.5 211 Q137 148 156 109.5 Q175 71 204.5 54.5 Q234 38 274 38 Z " />
<glyph glyph-name="one" unicode="1" horiz-adv-x="406" d="M247 107 Q247 88 251.5 76.5 Q256 65 264 59 Q272 53 283 50.5 Q294 48 307 46 L358 39 L358 0 L55 0 L55 39 L98 45 Q131 50 152.5 60.5 Q174 71 174 108 L174 573 Q174 607 165.5 620.5 Q157 634 131 638 L62 648 L66 683 L233 728 L247 723 L247 107 Z " />
<glyph glyph-name="two" unicode="2" horiz-adv-x="467" d="M27 0 L27 44 L235 339 Q275 396 303.5 451 Q332 506 332 563 Q332 603 319 627 Q306 651 286 664 Q266 677 242 681.5 Q218 686 196 686 Q148 686 127 674 Q106 662 101 636 L82 546 L42 543 L32 692 Q62 709 107 723 Q152 737 212 737 Q309 737 358.5 692 Q408 647 408 570 Q408 503 380 446 Q352 389 317 342 L111 52 L279 52 Q298 52 310.5 54 Q323 56 331.5 61 Q340 66 346 75 Q352 84 358 99 L387 178 L432 178 L414 0 L27 0 Z " />
<glyph glyph-name="three" unicode="3" horiz-adv-x="503" d="M217 40 Q261 40 291.5 53.5 Q322 67 340.5 89.5 Q359 112 367.5 141.5 Q376 171 376 203 Q376 252 360.5 280.5 Q345 309 321 324 Q297 339 268.5 343.5 Q240 348 214 348 L137 348 L137 396 L223 405 Q298 412 331 452 Q364 492 364 560 Q364 587 357.5 610 Q351 633 336 650 Q321 667 296 676.5 Q271 686 234 686 Q200 686 180 681 Q160 676 149 666 Q138 656 133 641 Q128 626 125 606 L115 550 L71 546 L61 691 Q70 697 87 705 Q104 713 127 720 Q150 727 178.5 732 Q207 737 239 737 Q298 737 336.5 722 Q375 707 397 682.5 Q419 658 427.5 627.5 Q436 597 436 567 Q436 531 425.5 501 Q415 471 398.5 448 Q382 425 360.5 409 Q339 393 316 384 L316 382 Q339 376 363 364.5 Q387 353 407.5 333 Q428 313 441 282.5 Q454 252 454 207 Q454 108 392.5 48.5 Q331 -11 212 -11 Q155 -11 108 -0.5 Q61 10 34 27 L43 177 L89 177 L102 101 Q107 72 130.5 56 Q154 40 217 40 Z " />
<glyph glyph-name="four" unicode="4" horiz-adv-x="559" d="M346 193 L44 193 L44 232 L350 724 L419 724 L419 248 L511 248 L511 193 L419 193 L419 109 Q419 78 431 64.5 Q443 51 471 47 L529 39 L529 0 L231 0 L231 41 L283 47 Q306 50 318.5 55.5 Q331 61 337 69.5 Q343 78 344.5 89 Q346 100 346 112 L346 193 Z M346 248 L346 617 L343 617 L112 248 L346 248 Z " />
<glyph glyph-name="five" unicode="5" horiz-adv-x="510" d="M220 40 Q270 40 302 58 Q334 76 352.5 104 Q371 132 378.5 167 Q386 202 386 235 Q386 267 380 294.5 Q374 322 359.5 342.5 Q345 363 322 375 Q299 387 266 387 Q215 387 180.5 366.5 Q146 346 114 320 L82 331 L97 717 L106 724 L420 724 L420 656 L152 656 L136 391 L138 389 Q160 409 196.5 426.5 Q233 444 283 444 Q366 444 414 393.5 Q462 343 462 242 Q462 195 449.5 149.5 Q437 104 408.5 68.5 Q380 33 333 11 Q286 -11 216 -11 Q196 -11 172.5 -9 Q149 -7 125.5 -2.5 Q102 2 80 9 Q58 16 41 26 L49 175 L95 175 L107 107 Q110 90 116 77.5 Q122 65 134 56.5 Q146 48 166.5 44 Q187 40 220 40 Z " />
<glyph glyph-name="six" unicode="6" horiz-adv-x="533" d="M444 639 Q404 665 372 673 Q340 681 308 681 Q251 681 214.5 650.5 Q178 620 157.5 575.5 Q137 531 129.5 481 Q122 431 121 393 Q130 401 146.5 412.5 Q163 424 185.5 435.5 Q208 447 236.5 455 Q265 463 297 463 Q346 463 382.5 447 Q419 431 443 402.5 Q467 374 478.5 336 Q490 298 490 254 Q490 193 475.5 144 Q461 95 434 60.5 Q407 26 368 7.5 Q329 -11 279 -11 Q209 -11 163.5 19 Q118 49 92 98 Q66 147 55.5 210 Q45 273 45 338 Q45 411 57.5 482.5 Q70 554 100.5 610.5 Q131 667 182 702 Q233 737 309 737 Q351 737 393 723.5 Q435 710 470 677 L444 639 Z M120 345 Q121 187 162.5 113.5 Q204 40 280 40 Q341 40 377.5 88.5 Q414 137 414 239 Q414 328 378 367 Q342 406 282 406 Q259 406 235.5 400 Q212 394 191 385 Q170 376 151.5 365.5 Q133 355 120 345 Z " />
<glyph glyph-name="seven" unicode="7" horiz-adv-x="495" d="M141 0 L412 659 L173 659 Q155 659 143 658 Q131 657 123.5 653 Q116 649 111.5 641 Q107 633 103 620 L86 554 L35 550 L53 724 L487 724 L487 679 L217 0 L141 0 Z " />
<glyph glyph-name="eight" unicode="8" horiz-adv-x="540" d="M357 375 Q388 360 415.5 343 Q443 326 463 304.5 Q483 283 495 256 Q507 229 507 194 Q507 143 487.5 105 Q468 67 434.5 41 Q401 15 357 2 Q313 -11 264 -11 Q203 -11 159 3 Q115 17 87 41.5 Q59 66 45.5 99 Q32 132 32 170 Q32 213 47.5 246 Q63 279 86 304.5 Q109 330 136 348.5 Q163 367 186 380 Q162 394 139.5 410 Q117 426 100 446.5 Q83 467 73 493 Q63 519 63 553 Q63 590 76.5 623.5 Q90 657 117.5 682 Q145 707 186 722 Q227 737 282 737 Q322 737 358.5 727 Q395 717 423 697.5 Q451 678 468 648 Q485 618 485 577 Q485 513 449.5 466 Q414 419 357 375 Z M429 181 Q429 215 415.5 239 Q402 263 377 282 Q352 301 316 318 Q280 335 236 355 Q211 340 188 322.5 Q165 305 147 284 Q129 263 118 237 Q107 211 107 179 Q107 140 121 113.5 Q135 87 157.5 71 Q180 55 208.5 48 Q237 41 266 41 Q320 41 352 57.5 Q384 74 401 96.5 Q418 119 423.5 142.5 Q429 166 429 181 Z M309 399 Q363 447 389 487 Q415 527 415 574 Q415 622 382 653.5 Q349 685 277 685 Q209 685 172.5 652.5 Q136 620 136 567 Q136 534 150 509.5 Q164 485 188 465.5 Q212 446 243.5 430.5 Q275 415 309 399 Z " />
<glyph glyph-name="nine" unicode="9" horiz-adv-x="533" d="M79 98 Q118 69 154.5 58.5 Q191 48 226 48 Q280 48 315 77.5 Q350 107 371 149.5 Q392 192 401 241 Q410 290 412 329 Q403 321 386.5 310 Q370 299 347.5 288.5 Q325 278 297 271 Q269 264 236 264 Q187 264 150 281.5 Q113 299 88 329 Q63 359 50.5 400 Q38 441 38 489 Q38 546 53.5 592 Q69 638 98 670 Q127 702 168 719.5 Q209 737 259 737 Q327 737 371.5 707 Q416 677 441.5 628.5 Q467 580 477 518.5 Q487 457 487 393 Q487 319 475 246.5 Q463 174 433.5 117 Q404 60 354 24.5 Q304 -11 228 -11 Q183 -11 136.5 4 Q90 19 51 56 L79 98 Z M411 376 Q410 460 399.5 519 Q389 578 369.5 614.5 Q350 651 321.5 667.5 Q293 684 255 684 Q226 684 200.5 673 Q175 662 156.5 639 Q138 616 127 580.5 Q116 545 116 495 Q116 404 154.5 361.5 Q193 319 255 319 Q276 319 298 324.5 Q320 330 341 338 Q362 346 380.5 356.5 Q399 367 411 376 Z " />
<glyph glyph-name="colon" unicode="&#x3a;" horiz-adv-x="233" d="M177 46 Q177 -11 114 -11 Q86 -11 70 2.5 Q54 16 54 45 Q54 72 70 86 Q86 100 114 100 Q143 100 160 86 Q177 72 177 46 Z M177 420 Q177 363 114 363 Q86 363 70 376.5 Q54 390 54 419 Q54 446 70 460 Q86 474 114 474 Q143 474 160 460 Q177 446 177 420 Z " />
<glyph glyph-name="semicolon" unicode="&#x3b;" horiz-adv-x="239" d="M176 31 Q176 12 170.5 -10.5 Q165 -33 153 -55.5 Q141 -78 122.5 -99 Q104 -120 78 -136 L57 -110 Q83 -88 96.5 -64.5 Q110 -41 114 -10 Q84 -8 68.5 6.5 Q53 21 53 43 Q53 73 70 87 Q87 101 112 101 Q141 101 158.5 85 Q176 69 176 31 Z M184 420 Q184 363 121 363 Q93 363 77 376.5 Q61 390 61 419 Q61 446 77 460 Q93 474 121 474 Q150 474 167 460 Q184 446 184 420 Z " />
<glyph glyph-name="less" unicode="&#x3c;" horiz-adv-x="600" d="M91 259 L91 320 L490 471 L507 415 L168 292 L168 289 L507 168 L488 112 L91 259 Z " />
<glyph glyph-name="equal" unicode="&#x3d;" horiz-adv-x="600" d="M106 336 L106 397 L494 397 L494 336 L106 336 Z M106 168 L106 229 L494 229 L494 168 L106 168 Z " />
<glyph glyph-name="greater" unicode="&#x3e;" horiz-adv-x="600" d="M507 320 L507 259 L109 112 L92 168 L430 289 L430 292 L91 415 L109 471 L507 320 Z " />
<glyph glyph-name="question" unicode="&#x3f;" horiz-adv-x="461" d="M133 269 Q129 303 141.5 328.5 Q154 354 176 375 Q198 396 225 416 Q252 436 275 458.5 Q298 481 314 509.5 Q330 538 330 576 Q330 607 319 627 Q308 647 290.5 659 Q273 671 250 676 Q227 681 203 681 Q168 681 134.5 671.5 Q101 662 73 645 L50 690 Q81 712 123.5 724.5 Q166 737 216 737 Q310 737 358.5 695.5 Q407 654 407 579 Q407 532 391.5 498 Q376 464 353.5 438 Q331 412 304 391.5 Q277 371 254.5 351.5 Q232 332 216.5 311.5 Q201 291 201 264 L201 151 L147 151 L133 269 Z M230 39 Q230 -15 172 -15 Q146 -15 130.5 -2 Q115 11 115 37 Q115 63 130.5 76 Q146 89 172 89 Q198 89 214 76 Q230 63 230 39 Z " />
<glyph glyph-name="at" unicode="&#x40;" horiz-adv-x="843" d="M608 -71 Q580 -88 525.5 -105 Q471 -122 392 -122 Q321 -122 260.5 -100.5 Q200 -79 156 -36 Q112 7 87 71 Q62 135 62 219 Q62 298 88.5 367 Q115 436 164.5 487.5 Q214 539 284.5 568.5 Q355 598 442 598 Q520 598 582 578 Q644 558 688 519 Q732 480 755.5 423 Q779 366 779 292 Q779 234 765 187 Q751 140 725.5 107 Q700 74 664 56 Q628 38 585 38 Q536 38 511.5 57 Q487 76 479 105 Q455 79 423 58.5 Q391 38 352 38 Q304 38 275 73.5 Q246 109 246 177 Q246 237 260 286 Q274 335 301.5 370.5 Q329 406 369 425.5 Q409 445 460 445 Q501 445 529.5 437 Q558 429 584 417 L548 199 Q546 187 545 177 Q544 167 544 160 Q543 147 543.5 134 Q544 121 549.5 110 Q555 99 566.5 92 Q578 85 599 85 Q620 85 641.5 95.5 Q663 106 680 130.5 Q697 155 707.5 195 Q718 235 718 293 Q718 343 703 389.5 Q688 436 654.5 471 Q621 506 567.5 527 Q514 548 436 548 Q358 548 299.5 520 Q241 492 202 446.5 Q163 401 144 342.5 Q125 284 125 222 Q125 75 199.5 1.5 Q274 -72 408 -72 Q462 -72 510 -59 Q558 -46 592 -31 L608 -71 Z M515 385 Q501 393 485 395 Q469 397 455 397 Q386 397 350.5 339 Q315 281 315 184 Q315 137 329 115 Q343 93 379 93 Q392 93 407 99 Q422 105 435.5 114 Q449 123 460.5 133.5 Q472 144 478 153 L515 385 Z " />
<glyph glyph-name="A" unicode="A" horiz-adv-x="681" d="M382 724 L577 127 Q585 102 591.5 87 Q598 72 604.5 63 Q611 54 619 49.5 Q627 45 639 43 L667 39 L667 0 L441 0 L441 39 L522 50 L461 247 L196 247 L133 50 L215 39 L215 0 L9 0 L9 39 L39 44 Q64 49 74 65 Q84 81 96 117 L297 724 L382 724 Z M329 657 L328 657 L212 297 L444 297 L329 657 Z " />
<glyph glyph-name="B" unicode="B" horiz-adv-x="631" d="M338 52 Q429 52 469 88.5 Q509 125 509 198 Q509 238 497 266 Q485 294 464 312 Q443 330 413.5 338 Q384 346 349 346 L214 346 L214 52 L338 52 Z M297 397 Q382 397 422.5 433 Q463 469 463 538 Q463 604 428 638 Q393 672 317 672 L214 672 L214 397 L297 397 Z M335 724 Q389 724 427.5 711 Q466 698 490.5 674.5 Q515 651 527 618.5 Q539 586 539 548 Q539 512 529.5 485 Q520 458 504.5 438 Q489 418 468.5 404 Q448 390 426 380 L426 378 Q512 364 548.5 313.5 Q585 263 585 195 Q585 143 567.5 105.5 Q550 68 517.5 45 Q485 22 438.5 11 Q392 0 333 0 L57 0 L57 39 L103 45 Q116 47 123.5 50 Q131 53 135 61 Q139 69 140 83.5 Q141 98 141 123 L141 606 Q141 628 139.5 641.5 Q138 655 133.5 663 Q129 671 121.5 674.5 Q114 678 101 680 L58 685 L58 724 L335 724 Z " />
<glyph glyph-name="C" unicode="C" horiz-adv-x="620" d="M566 30 Q559 26 542.5 19 Q526 12 501 5 Q476 -2 443 -6.5 Q410 -11 368 -11 Q307 -11 249.5 7 Q192 25 147.5 68 Q103 111 76 183 Q49 255 49 362 Q49 443 70 512 Q91 581 133 631 Q175 681 239 709 Q303 737 390 737 Q423 737 453 733 Q483 729 506.5 724 Q530 719 546 713 Q562 707 568 704 L562 553 L517 556 L502 631 Q496 662 468.5 673.5 Q441 685 387 685 Q336 685 288.5 669 Q241 653 204.5 615.5 Q168 578 146.5 516 Q125 454 125 362 Q125 264 148 202 Q171 140 207.5 104.5 Q244 69 288.5 56 Q333 43 375 43 Q412 43 436 47 Q460 51 475 58.5 Q490 66 497.5 75.5 Q505 85 508 97 L528 167 L574 167 L566 30 Z " />
<glyph glyph-name="D" unicode="D" horiz-adv-x="711" d="M306 51 Q388 51 442 76.5 Q496 102 528 146.5 Q560 191 573 250 Q586 309 586 376 Q586 528 524 600 Q462 672 344 672 L214 672 L214 51 L306 51 Z M333 724 Q423 724 486 700 Q549 676 588.5 630.5 Q628 585 646 520.5 Q664 456 664 375 Q664 295 645 226.5 Q626 158 582 107.5 Q538 57 466.5 28.5 Q395 0 290 0 L57 0 L57 39 L103 45 Q115 47 122.5 49.5 Q130 52 134 59 Q138 66 139.5 79.5 Q141 93 141 116 L141 605 Q141 649 134 663 Q127 677 101 680 L58 685 L58 724 L333 724 Z " />
<glyph glyph-name="E" unicode="E" horiz-adv-x="591" d="M516 546 Q505 546 493.5 546.5 Q482 547 471 547 L450 619 Q441 649 427.5 661 Q414 673 382 673 L215 673 L215 394 L447 394 L447 343 L215 343 L215 51 L402 51 Q432 51 445.5 62.5 Q459 74 467 103 L489 184 L533 184 L523 0 L57 0 L57 39 L103 45 Q117 47 124.5 50 Q132 53 135.5 61 Q139 69 140 84 Q141 99 141 124 L141 606 Q141 628 139.5 641.5 Q138 655 133.5 663 Q129 671 121.5 674.5 Q114 678 101 679 L58 685 L58 724 L506 724 L516 546 Z " />
<glyph glyph-name="F" unicode="F" horiz-adv-x="562" d="M214 123 Q214 100 215.5 86.5 Q217 73 221.5 65.5 Q226 58 234 55.5 Q242 53 255 51 L353 40 L353 0 L57 0 L57 39 L103 45 Q116 47 123.5 50 Q131 53 135 60.5 Q139 68 140 80.5 Q141 93 141 113 L141 605 Q141 649 134.5 662.5 Q128 676 102 679 L58 685 L58 724 L512 724 L521 541 L476 542 L454 620 Q447 646 435.5 659.5 Q424 673 393 673 L214 673 L214 388 L453 388 L453 337 L214 337 L214 123 Z " />
<glyph glyph-name="G" unicode="G" horiz-adv-x="663" d="M500 215 Q500 259 493.5 272.5 Q487 286 461 289 L389 296 L389 336 L639 336 L639 297 L605 293 Q594 292 587.5 288 Q581 284 578 276 Q575 268 574 254.5 Q573 241 573 219 L573 33 Q522 7 469 -2 Q416 -11 370 -11 Q289 -11 228.5 14.5 Q168 40 128.5 87 Q89 134 69 202 Q49 270 49 354 Q49 450 72.5 521.5 Q96 593 139.5 641 Q183 689 244.5 713 Q306 737 382 737 Q457 737 504.5 724 Q552 711 568 704 L562 553 L517 557 L504 628 Q497 660 470.5 672 Q444 684 383 684 Q255 684 190 601 Q125 518 125 361 Q125 269 145.5 207.5 Q166 146 201 109 Q236 72 281.5 56.5 Q327 41 376 41 Q405 41 426.5 44.5 Q448 48 461 51 Q487 57 493.5 68.5 Q500 80 500 100 L500 215 Z " />
<glyph glyph-name="H" unicode="H" horiz-adv-x="771" d="M214 394 L557 394 L557 600 Q557 624 556 639 Q555 654 551.5 662.5 Q548 671 541 674.5 Q534 678 522 679 L476 685 L476 724 L714 724 L714 685 L668 679 Q656 678 648.5 675 Q641 672 637 664.5 Q633 657 631.5 644 Q630 631 630 608 L630 124 Q630 100 631.5 85.5 Q633 71 637.5 63 Q642 55 649.5 51.5 Q657 48 670 46 L713 39 L713 0 L478 0 L478 39 L525 46 Q536 48 542 51 Q548 54 551.5 61.5 Q555 69 556 82.5 Q557 96 557 118 L557 344 L214 344 L214 124 Q214 100 214.5 85.5 Q215 71 218.5 62.5 Q222 54 229 51 Q236 48 249 46 L295 39 L295 0 L57 0 L57 39 L103 46 Q116 48 123.5 51 Q131 54 135 61.5 Q139 69 140 83.5 Q141 98 141 123 L141 606 Q141 628 139.5 641.5 Q138 655 133.5 663 Q129 671 121.5 674.5 Q114 678 101 679 L58 685 L58 724 L293 724 L293 685 L246 679 Q224 677 219 663.5 Q214 650 214 606 L214 394 Z " />
<glyph glyph-name="I" unicode="I" horiz-adv-x="355" d="M214 124 Q214 100 215 85 Q216 70 219.5 62 Q223 54 230.5 51 Q238 48 251 46 L296 39 L296 0 L57 0 L57 39 L103 46 Q116 48 123.5 50.5 Q131 53 135 61 Q139 69 140 83.5 Q141 98 141 123 L141 606 Q141 628 139.5 641.5 Q138 655 134 663 Q130 671 122 674.5 Q114 678 101 679 L58 685 L58 724 L294 724 L294 685 L248 679 Q226 677 220 663.5 Q214 650 214 606 L214 124 Z " />
<glyph glyph-name="J" unicode="J" horiz-adv-x="476" d="M44 156 L96 156 L105 108 Q109 90 114 77.5 Q119 65 128.5 56.5 Q138 48 153.5 44.5 Q169 41 193 41 Q217 41 236 46 Q255 51 267.5 64 Q280 77 286.5 99.5 Q293 122 293 157 L293 603 Q293 647 286 660.5 Q279 674 253 678 L186 684 L186 724 L448 724 L448 685 L404 680 Q381 678 373.5 664 Q366 650 366 606 L366 167 Q366 111 352 76.5 Q338 42 314.5 22.5 Q291 3 260 -4 Q229 -11 194 -11 Q151 -11 111 -0.5 Q71 10 54 22 L44 156 Z " />
<glyph glyph-name="K" unicode="K" horiz-adv-x="712" d="M214 361 L506 674 L506 677 L438 685 L438 724 L636 724 L636 685 L605 682 Q584 679 571.5 668.5 Q559 658 540 639 L347 429 L577 106 Q591 87 601 75 Q611 63 619 56.5 Q627 50 635.5 47.5 Q644 45 655 43 L685 39 L685 0 L447 0 L447 40 L523 48 L523 51 L295 378 L214 291 L214 123 Q214 99 214.5 84.5 Q215 70 219 61.5 Q223 53 230.5 50 Q238 47 251 45 L302 39 L302 0 L57 0 L57 39 L103 45 Q117 47 124.5 50.5 Q132 54 135.5 62 Q139 70 140 85 Q141 100 141 125 L141 602 Q141 646 135 661 Q129 676 103 679 L58 685 L58 724 L291 724 L291 685 L245 679 Q222 676 218 660.5 Q214 645 214 601 L214 361 Z " />
<glyph glyph-name="L" unicode="L" horiz-adv-x="576" d="M214 51 L397 51 Q427 51 442.5 60.5 Q458 70 465 98 L490 196 L538 196 L523 0 L57 0 L57 39 L103 46 Q116 48 123.5 51 Q131 54 135 62 Q139 70 140 84.5 Q141 99 141 124 L141 606 Q141 628 139.5 641.5 Q138 655 133.5 663 Q129 671 121 674.5 Q113 678 100 680 L58 685 L58 724 L307 724 L307 685 L252 679 Q227 676 220.5 662 Q214 648 214 604 L214 51 Z " />
<glyph glyph-name="M" unicode="M" horiz-adv-x="919" d="M859 685 L818 680 Q795 678 786.5 666.5 Q778 655 778 619 L778 116 Q778 92 779.5 78 Q781 64 785 57.5 Q789 51 796.5 49 Q804 47 816 45 L860 39 L860 0 L629 0 L629 39 L667 45 Q690 48 697.5 58 Q705 68 705 102 L705 622 L702 622 L487 0 L416 0 L197 622 L193 622 L193 121 Q193 79 198 63 Q203 47 229 44 L272 39 L272 0 L59 0 L59 39 L103 45 Q114 47 121 49 Q128 51 132.5 58 Q137 65 139 79.5 Q141 94 141 119 L141 608 Q141 630 139.5 643.5 Q138 657 133.5 664.5 Q129 672 121 675.5 Q113 679 100 680 L60 685 L60 724 L240 724 L464 84 L465 84 L685 724 L859 724 L859 685 Z " />
<glyph glyph-name="N" unicode="N" horiz-adv-x="764" d="M579 101 L582 101 L582 610 Q582 651 575.5 664.5 Q569 678 544 680 L502 685 L502 724 L721 724 L721 685 L676 680 Q652 677 645 665 Q638 653 638 615 L638 0 L552 0 L201 627 L197 627 L197 115 Q197 94 198 81 Q199 68 202.5 60 Q206 52 213 49 Q220 46 232 44 L274 39 L274 0 L57 0 L57 39 L103 44 Q116 46 123.5 49 Q131 52 135 60 Q139 68 140 83 Q141 98 141 122 L141 605 Q141 649 134 663.5 Q127 678 101 680 L58 685 L58 724 L231 724 L579 101 Z " />
<glyph glyph-name="O" unicode="O" horiz-adv-x="686" d="M338 -11 Q257 -11 202 18 Q147 47 113.5 96.5 Q80 146 65 211.5 Q50 277 50 351 Q50 431 67.5 501.5 Q85 572 122 624.5 Q159 677 217 707 Q275 737 357 737 Q434 737 487.5 708 Q541 679 574 629.5 Q607 580 621.5 513.5 Q636 447 636 371 Q636 289 619.5 219 Q603 149 567 98 Q531 47 474.5 18 Q418 -11 338 -11 Z M342 42 Q386 42 425.5 58 Q465 74 495 111.5 Q525 149 542.5 210.5 Q560 272 560 364 Q560 454 544 515 Q528 576 500 613.5 Q472 651 433.5 667 Q395 683 350 683 Q305 683 264.5 667 Q224 651 193.5 613 Q163 575 144.5 513 Q126 451 126 358 Q126 265 143.5 204 Q161 143 190.5 107 Q220 71 259 56.5 Q298 42 342 42 Z " />
<glyph glyph-name="P" unicode="P" horiz-adv-x="619" d="M214 117 Q214 98 215 86 Q216 74 219.5 66.5 Q223 59 231 56 Q239 53 253 51 L359 40 L359 0 L57 0 L57 39 L103 44 Q117 46 124.5 49 Q132 52 135.5 60.5 Q139 69 140 84.5 Q141 100 141 125 L141 614 Q141 651 133.5 664.5 Q126 678 100 680 L58 685 L58 724 L334 724 Q380 724 423.5 716 Q467 708 501.5 685.5 Q536 663 557 623 Q578 583 578 518 Q578 401 507.5 342.5 Q437 284 303 284 L214 284 L214 117 Z M306 336 Q362 336 399.5 350 Q437 364 459.5 388.5 Q482 413 492 446 Q502 479 502 518 Q502 603 456 637.5 Q410 672 321 672 L214 672 L214 336 L306 336 Z " />
<glyph glyph-name="Q" unicode="Q" horiz-adv-x="683" d="M318 -11 Q245 -7 194 23 Q143 53 111 101.5 Q79 150 64.5 214.5 Q50 279 50 353 Q50 440 69 510.5 Q88 581 126 631.5 Q164 682 220.5 709.5 Q277 737 353 737 Q430 737 483.5 709 Q537 681 570 631.5 Q603 582 618 515 Q633 448 633 371 Q633 297 619.5 234.5 Q606 172 577.5 123.5 Q549 75 505.5 43 Q462 11 402 -2 L402 -6 Q455 -8 487 -25 Q519 -42 552 -72 Q578 -97 610 -112.5 Q642 -128 697 -127 L722 -127 L728 -155 Q707 -166 677 -176.5 Q647 -187 609 -187 Q559 -187 527 -162.5 Q495 -138 469 -97 Q443 -56 409 -35 Q375 -14 318 -11 Z M339 42 Q380 42 419.5 58 Q459 74 489.5 111.5 Q520 149 538.5 210 Q557 271 557 361 Q557 451 542 512.5 Q527 574 499.5 612 Q472 650 433.5 666.5 Q395 683 348 683 Q301 683 260.5 665.5 Q220 648 190 609.5 Q160 571 143 509 Q126 447 126 358 Q126 268 142.5 207 Q159 146 188 109.5 Q217 73 255.5 57.5 Q294 42 339 42 Z " />
<glyph glyph-name="R" unicode="R" horiz-adv-x="666" d="M660 12 Q644 1 623 -5 Q602 -11 583 -11 Q534 -11 508 14.5 Q482 40 462 101 Q442 162 430 202.5 Q418 243 403.5 267.5 Q389 292 367.5 302 Q346 312 306 312 L214 312 L214 125 Q214 101 215 86 Q216 71 220.5 62.5 Q225 54 233.5 50.5 Q242 47 257 45 L305 40 L305 0 L57 0 L57 39 L103 44 Q117 46 124.5 49 Q132 52 135.5 60.5 Q139 69 140 84.5 Q141 100 141 125 L141 605 Q141 647 133.5 662 Q126 677 100 680 L58 685 L58 724 L335 724 Q446 724 505 676.5 Q564 629 564 526 Q564 489 551.5 458.5 Q539 428 517.5 404 Q496 380 467 363.5 Q438 347 406 339 Q444 327 465 304 Q486 281 498 246 L540 120 Q554 76 570 60.5 Q586 45 617 43 Q625 42 636 43 Q647 44 657 44 L660 12 Z M214 364 L306 364 Q394 364 441 405 Q488 446 488 528 Q488 567 475.5 594.5 Q463 622 441 639 Q419 656 389.5 663.5 Q360 671 326 671 L214 671 L214 364 Z " />
<glyph glyph-name="S" unicode="S" horiz-adv-x="532" d="M410 559 L397 627 Q394 642 388 653 Q382 664 369.5 670.5 Q357 677 337 680.5 Q317 684 287 684 Q209 684 170.5 648 Q132 612 132 558 Q132 508 158 480.5 Q184 453 223.5 436 Q263 419 309 405 Q355 391 394.5 368.5 Q434 346 460 308 Q486 270 486 204 Q486 138 461 96.5 Q436 55 398 31 Q360 7 315.5 -2 Q271 -11 232 -11 Q160 -11 113.5 2 Q67 15 41 29 L52 176 L96 176 L105 108 Q108 92 114 79 Q120 66 134.5 58 Q149 50 174 45.5 Q199 41 239 41 Q272 41 303.5 49 Q335 57 359.5 75 Q384 93 399 122 Q414 151 414 193 Q414 245 388 273.5 Q362 302 322.5 320 Q283 338 237 351.5 Q191 365 151.5 386.5 Q112 408 86 444 Q60 480 60 542 Q60 585 75 621 Q90 657 119.5 682.5 Q149 708 191.5 722.5 Q234 737 288 737 Q334 737 380 728 Q426 719 461 701 L455 555 L410 559 Z " />
<glyph glyph-name="T" unicode="T" horiz-adv-x="637" d="M355 98 Q355 64 362.5 56.5 Q370 49 385 47 L469 39 L469 0 L168 0 L168 39 L252 47 Q267 49 274.5 56.5 Q282 64 282 98 L282 672 L175 672 Q143 672 129 663 Q115 654 108 628 L86 546 L40 545 L50 724 L587 724 L596 545 L551 546 L529 626 Q521 651 508.5 661.5 Q496 672 467 672 L355 672 L355 98 Z " />
<glyph glyph-name="U" unicode="U" horiz-adv-x="747" d="M564 620 Q564 639 562 650.5 Q560 662 555.5 668 Q551 674 542.5 676.5 Q534 679 521 681 L484 685 L484 724 L701 724 L701 685 L655 680 Q629 677 623.5 664.5 Q618 652 618 617 L618 244 Q618 177 599.5 129 Q581 81 548.5 50 Q516 19 471.5 4 Q427 -11 374 -11 Q294 -11 245.5 13 Q197 37 170.5 75.5 Q144 114 135.5 161.5 Q127 209 127 257 L127 607 Q127 630 125.5 643.5 Q124 657 118.5 664.5 Q113 672 103.5 675.5 Q94 679 78 681 L44 685 L44 724 L278 724 L278 685 L232 679 Q211 677 205.5 664 Q200 651 200 617 L200 260 Q200 152 240 97.5 Q280 43 377 43 Q464 43 514 92 Q564 141 564 256 L564 620 Z " />
<glyph glyph-name="V" unicode="V" horiz-adv-x="659" d="M332 77 L334 77 L515 676 L441 685 L441 724 L640 724 L640 685 L609 680 Q596 678 588.5 675.5 Q581 673 576 668 Q571 663 567.5 653 Q564 643 559 626 L366 0 L281 0 L94 598 Q86 622 80.5 637.5 Q75 653 69 662 Q63 671 56 675 Q49 679 37 681 L9 685 L9 724 L227 724 L227 685 L148 674 L332 77 Z " />
<glyph glyph-name="W" unicode="W" horiz-adv-x="958" d="M625 0 L479 649 L475 649 L325 0 L239 0 L92 603 Q87 626 82 640 Q77 654 71 662.5 Q65 671 57 674.5 Q49 678 38 680 L11 685 L11 724 L235 724 L235 685 L153 674 L289 95 L293 95 L436 724 L533 724 L677 95 L682 95 L823 677 L746 685 L746 724 L949 724 L949 685 L917 680 Q892 677 883 664 Q874 651 865 616 L712 0 L625 0 Z " />
<glyph glyph-name="X" unicode="X" horiz-adv-x="699" d="M306 360 L137 614 Q123 635 112.5 647.5 Q102 660 93.5 667 Q85 674 76.5 677 Q68 680 58 682 L33 685 L33 724 L264 724 L264 685 L185 675 L185 673 L357 411 L546 673 L546 674 L472 685 L472 724 L677 724 L677 685 L652 682 Q626 677 611 665 Q596 653 576 626 L392 370 L566 111 Q589 76 605.5 61.5 Q622 47 648 43 L678 39 L678 0 L428 0 L428 39 L516 48 L516 53 L341 317 L151 51 L151 46 L235 39 L235 0 L16 0 L16 39 L40 42 Q65 47 82 59.5 Q99 72 119 99 L306 360 Z " />
<glyph glyph-name="Y" unicode="Y" horiz-adv-x="615" d="M277 289 L99 604 Q87 627 78 640.5 Q69 654 61.5 662.5 Q54 671 46 674.5 Q38 678 27 681 L5 685 L5 724 L223 724 L223 685 L141 673 L321 352 L323 352 L495 674 L416 685 L416 724 L609 724 L609 685 L592 681 Q579 678 570 673.5 Q561 669 552.5 660 Q544 651 535 636.5 Q526 622 514 599 L350 294 L350 99 Q350 65 358.5 56.5 Q367 48 389 46 L451 39 L451 0 L176 0 L176 39 L238 46 Q260 48 268.5 56.5 Q277 65 277 99 L277 289 Z " />
<glyph glyph-name="Z" unicode="Z" horiz-adv-x="610" d="M50 0 L50 46 L470 672 L206 672 Q187 672 175 668.5 Q163 665 155.5 658.5 Q148 652 143.5 642 Q139 632 135 618 L119 556 L71 552 L86 724 L558 724 L558 679 L139 52 L417 52 Q447 52 461 62.5 Q475 73 485 99 L514 190 L563 190 L540 0 L50 0 Z " />
<glyph glyph-name="bracketleft" unicode="&#x5b;" horiz-adv-x="278" d="M82 -183 L82 774 L230 774 L230 735 L205 733 Q189 731 178.5 728.5 Q168 726 162 718.5 Q156 711 153.5 697 Q151 683 151 659 L151 -62 Q151 -85 152 -99.5 Q153 -114 158 -123 Q163 -132 174 -136 Q185 -140 204 -142 L230 -145 L230 -183 L82 -183 Z " />
<glyph glyph-name="backslash" unicode="&#x5c;" horiz-adv-x="421" d="M318 -92 L31 781 L90 781 L378 -92 L318 -92 Z " />
<glyph glyph-name="bracketright" unicode="&#x5d;" horiz-adv-x="278" d="M196 774 L196 -183 L48 -183 L48 -144 L73 -142 Q90 -140 100.5 -137.5 Q111 -135 117 -127.5 Q123 -120 125 -106 Q127 -92 127 -68 L127 653 Q127 676 126 690.5 Q125 705 120 714 Q115 723 104.5 727 Q94 731 74 733 L48 736 L48 774 L196 774 Z " />
<glyph glyph-name="asciicircum" unicode="&#x5e;" horiz-adv-x="544" d="M441 311 L272 613 L104 311 L47 311 L247 662 L300 662 L500 311 L441 311 Z " />
<glyph glyph-name="underscore" unicode="&#x5f;" horiz-adv-x="516" d="M12 -103 L12 -51 L503 -51 L503 -103 L12 -103 Z " />
<glyph glyph-name="grave" unicode="&#x60;" horiz-adv-x="500" d="M134 719 L134 732 L206 769 L338 592 L308 569 L134 719 Z " />
<glyph glyph-name="a" unicode="a" horiz-adv-x="515" d="M487 3 Q470 -5 455 -7.5 Q440 -10 425 -10 Q393 -10 371 7 Q349 24 345 67 Q327 33 287.5 11 Q248 -11 197 -11 Q119 -11 83 27 Q47 65 47 128 Q47 170 63 200.5 Q79 231 114.5 251 Q150 271 205 281.5 Q260 292 338 294 L338 348 Q338 417 314 444 Q290 471 233 471 Q194 471 162 463 Q130 455 90 439 L75 480 Q103 497 149.5 512.5 Q196 528 250 528 Q285 528 314 519.5 Q343 511 363.5 491 Q384 471 395.5 438.5 Q407 406 407 358 L407 89 Q407 59 414 48.5 Q421 38 448 36 L484 32 L487 3 Z M338 246 Q279 245 237.5 239 Q196 233 170 220 Q144 207 132.5 186 Q121 165 121 135 Q121 88 146.5 65.5 Q172 43 215 43 Q274 43 306 77 Q338 111 338 159 L338 246 Z " />
<glyph glyph-name="b" unicode="b" horiz-adv-x="574" d="M106 627 Q106 658 97.5 670 Q89 682 60 687 L23 692 L29 728 L158 745 L175 733 L175 461 Q204 489 243.5 508.5 Q283 528 334 528 Q425 528 476.5 462.5 Q528 397 528 268 Q528 195 512.5 142 Q497 89 468.5 55 Q440 21 401.5 5 Q363 -11 316 -11 Q268 -11 229.5 7 Q191 25 168 48 L158 0 L94 0 Q102 41 104 74.5 Q106 108 106 154 L106 627 Z M175 93 Q201 73 234 59 Q267 45 306 45 Q374 45 414 96.5 Q454 148 454 261 Q454 470 317 470 Q283 470 247 455.5 Q211 441 175 411 L175 93 Z " />
<glyph glyph-name="c" unicode="c" horiz-adv-x="485" d="M445 44 Q422 26 379 7.5 Q336 -11 278 -11 Q165 -11 105.5 60.5 Q46 132 46 253 Q46 323 64 374.5 Q82 426 115 460 Q148 494 193.5 511 Q239 528 294 528 Q330 528 373 518 Q416 508 444 491 L437 349 L390 353 L377 419 Q372 448 354.5 462 Q337 476 290 476 Q255 476 224 464.5 Q193 453 170 428 Q147 403 133.5 362.5 Q120 322 120 263 Q120 202 134 160.5 Q148 119 172 93.5 Q196 68 228 57.5 Q260 47 296 47 Q336 47 367 57 Q398 67 422 81 L445 44 Z " />
<glyph glyph-name="d" unicode="d" horiz-adv-x="574" d="M420 0 L407 62 Q378 27 335.5 8 Q293 -11 245 -11 Q146 -11 96 56.5 Q46 124 46 252 Q46 323 62 375 Q78 427 106.5 461 Q135 495 174 511.5 Q213 528 260 528 Q298 528 334.5 515.5 Q371 503 399 477 L399 626 Q399 657 390.5 670 Q382 683 353 687 L314 693 L319 728 L453 745 L468 734 L468 109 Q468 74 474.5 60.5 Q481 47 508 42 L544 36 L544 0 L420 0 Z M399 424 Q375 444 341.5 458 Q308 472 267 472 Q200 472 160 421.5 Q120 371 120 260 Q120 152 154 98.5 Q188 45 260 45 Q298 45 334 61 Q370 77 399 109 L399 424 Z " />
<glyph glyph-name="e" unicode="e" horiz-adv-x="503" d="M452 46 Q414 19 371.5 4 Q329 -11 278 -11 Q218 -11 174.5 9 Q131 29 102 65 Q73 101 59 150 Q45 199 45 256 Q45 327 63 378.5 Q81 430 112 463 Q143 496 184.5 512 Q226 528 272 528 Q313 528 348 515 Q383 502 408.5 474 Q434 446 448.5 402 Q463 358 463 297 Q463 282 463 269 Q463 256 461 246 L119 246 Q120 202 131 165.5 Q142 129 163 103 Q184 77 215.5 62.5 Q247 48 289 48 Q333 48 363.5 56.5 Q394 65 431 85 L452 46 Z M389 294 Q393 384 360.5 431.5 Q328 479 268 479 Q202 479 163.5 433.5 Q125 388 120 294 L389 294 Z " />
<glyph glyph-name="f" unicode="f" horiz-adv-x="353" d="M76 41 Q91 43 99 46.5 Q107 50 111 58.5 Q115 67 116 81 Q117 95 117 119 L117 465 L49 465 L53 504 L117 516 L117 573 Q117 605 122 636.5 Q127 668 142.5 693 Q158 718 186.5 733.5 Q215 749 262 749 Q299 749 327.5 740 Q356 731 379 718 L375 609 L330 614 L319 668 Q315 686 301 693 Q287 700 263 700 Q223 700 204.5 677 Q186 654 186 596 L186 516 L337 516 L332 465 L186 465 L186 119 Q186 93 188 78 Q190 63 197.5 55.5 Q205 48 218.5 45.5 Q232 43 256 40 L294 36 L294 0 L45 0 L45 36 L76 41 Z " />
<glyph glyph-name="g" unicode="g" horiz-adv-x="502" d="M401 456 Q424 429 431.5 398.5 Q439 368 439 345 Q439 308 425.5 276 Q412 244 387 220.5 Q362 197 326.5 184 Q291 171 246 171 Q223 171 203.5 174 Q184 177 170 181 L127 90 L324 81 Q357 80 385 73 Q413 66 434 52.5 Q455 39 467 17.5 Q479 -4 479 -36 Q479 -108 414 -150.5 Q349 -193 230 -193 Q193 -193 156.5 -187 Q120 -181 91.5 -167 Q63 -153 45.5 -130.5 Q28 -108 28 -76 Q28 -45 45 -18.5 Q62 8 100 34 Q77 39 68.5 50 Q60 61 60 75 Q60 89 65.5 100.5 Q71 112 82 129 L128 198 Q93 218 70.5 255 Q48 292 48 341 Q48 385 63 419.5 Q78 454 104 478 Q130 502 165 515 Q200 528 241 528 Q279 528 307.5 519.5 Q336 511 350 503 L467 514 L473 472 L401 456 Z M369 348 Q369 415 335.5 446.5 Q302 478 245 478 Q187 478 153 445 Q119 412 119 347 Q119 311 129.5 287 Q140 263 157 248.5 Q174 234 197 228 Q220 222 244 222 Q299 222 334 252 Q369 282 369 348 Z M410 -48 Q410 17 312 20 L148 27 Q131 11 113.5 -11.5 Q96 -34 96 -65 Q96 -99 131 -119 Q166 -139 242 -139 Q275 -139 305.5 -134 Q336 -129 359 -117.5 Q382 -106 396 -89 Q410 -72 410 -48 Z " />
<glyph glyph-name="h" unicode="h" horiz-adv-x="634" d="M195 121 Q195 97 195.5 82 Q196 67 199.5 59 Q203 51 210 47.5 Q217 44 230 42 L266 36 L266 0 L48 0 L48 36 L86 42 Q100 44 107.5 47.5 Q115 51 119.5 59 Q124 67 125 81.5 Q126 96 126 121 L126 604 Q126 647 119.5 665.5 Q113 684 80 688 L43 693 L49 728 L178 745 L195 733 L195 452 Q237 490 280 509 Q323 528 374 528 Q406 528 434 519.5 Q462 511 483 490.5 Q504 470 516 435 Q528 400 528 346 L528 121 Q528 97 529 82.5 Q530 68 534 59.5 Q538 51 545 47.5 Q552 44 565 42 L607 36 L607 0 L389 0 L389 36 L426 42 Q438 44 444.5 47 Q451 50 454 58 Q457 66 458 80.5 Q459 95 459 118 L459 339 Q459 405 433 436 Q407 467 353 467 Q313 467 273 451 Q233 435 195 406 L195 121 Z " />
<glyph glyph-name="i" unicode="i" horiz-adv-x="310" d="M199 693 Q199 665 185 651 Q171 637 145 637 Q121 637 106 651 Q91 665 91 693 Q91 719 106 732.5 Q121 746 145 746 Q170 746 184.5 732.5 Q199 719 199 693 Z M195 120 Q195 96 196 81.5 Q197 67 200.5 58.5 Q204 50 210.5 47 Q217 44 229 42 L271 36 L271 0 L48 0 L48 36 L87 42 Q101 44 108.5 47.5 Q116 51 120 59.5 Q124 68 125 82 Q126 96 126 120 L126 403 Q126 438 115.5 450.5 Q105 463 78 467 L42 473 L47 507 L179 523 L195 515 L195 120 Z " />
<glyph glyph-name="j" unicode="j" horiz-adv-x="284" d="M189 122 Q189 60 183 16 Q177 -28 161 -62.5 Q145 -97 116 -126.5 Q87 -156 40 -189 L15 -154 Q42 -130 62 -107 Q82 -84 95 -56 Q108 -28 114 6 Q120 40 120 85 L120 403 Q120 438 109.5 450.5 Q99 463 72 467 L36 473 L41 507 L173 523 L189 515 L189 122 Z M197 693 Q197 665 183 651 Q169 637 143 637 Q119 637 104 651 Q89 665 89 693 Q89 719 104 732.5 Q119 746 143 746 Q168 746 182.5 732.5 Q197 719 197 693 Z " />
<glyph glyph-name="k" unicode="k" horiz-adv-x="571" d="M192 289 L396 465 L396 468 L328 476 L335 516 L532 516 L532 477 L507 474 Q496 472 488 469.5 Q480 467 472 463 Q464 459 455 452.5 Q446 446 433 435 L308 326 L452 110 Q475 74 492.5 59.5 Q510 45 530 41 L555 36 L555 0 L436 0 Q420 29 404.5 53.5 Q389 78 367 110 L253 280 L192 227 L192 120 Q192 96 193 81.5 Q194 67 197.5 58.5 Q201 50 207.5 47 Q214 44 226 42 L268 36 L268 0 L45 0 L45 36 L84 42 Q98 44 105.5 47.5 Q113 51 117 59.5 Q121 68 122 82 Q123 96 123 120 L123 626 Q123 655 114.5 669 Q106 683 77 688 L40 693 L46 728 L175 745 L192 733 L192 289 Z " />
<glyph glyph-name="l" unicode="l" horiz-adv-x="311" d="M195 120 Q195 97 196 82.5 Q197 68 200 59.5 Q203 51 210 47.5 Q217 44 229 42 L270 36 L270 0 L48 0 L48 36 L87 42 Q101 44 108.5 47.5 Q116 51 120 59.5 Q124 68 125 82 Q126 96 126 120 L126 626 Q126 658 117.5 670.5 Q109 683 80 688 L43 693 L49 728 L177 745 L195 733 L195 120 Z " />
<glyph glyph-name="m" unicode="m" horiz-adv-x="932" d="M195 121 Q195 97 195.5 82.5 Q196 68 199.5 59.5 Q203 51 210 47.5 Q217 44 229 42 L266 36 L266 0 L48 0 L48 36 L86 42 Q100 44 107.5 47.5 Q115 51 119.5 59 Q124 67 125 81.5 Q126 96 126 121 L126 398 Q126 433 116.5 448 Q107 463 82 467 L41 473 L46 508 L165 523 L180 517 L189 447 Q236 489 277.5 508.5 Q319 528 365 528 Q408 528 443.5 510 Q479 492 497 444 Q543 486 586 507 Q629 528 679 528 Q709 528 736 519.5 Q763 511 783 490.5 Q803 470 814.5 435 Q826 400 826 346 L826 121 Q826 97 827 82.5 Q828 68 832 59.5 Q836 51 843.5 47.5 Q851 44 864 42 L906 36 L906 0 L688 0 L688 36 L725 42 Q736 44 742.5 47.5 Q749 51 752 59 Q755 67 756 81 Q757 95 757 118 L757 338 Q757 407 732.5 436.5 Q708 466 660 466 Q623 466 584 450 Q545 434 507 406 Q510 392 511 377.5 Q512 363 512 346 L512 121 Q512 97 513 82 Q514 67 517 59 Q520 51 527 47.5 Q534 44 546 42 L581 36 L581 0 L375 0 L375 36 L411 42 Q422 44 428.5 47.5 Q435 51 438 59 Q441 67 442 81 Q443 95 443 118 L443 338 Q443 407 418.5 436.5 Q394 466 348 466 Q310 466 271.5 450 Q233 434 195 406 L195 121 Z " />
<glyph glyph-name="n" unicode="n" horiz-adv-x="634" d="M195 121 Q195 97 195.5 82 Q196 67 199.5 59 Q203 51 210 47.5 Q217 44 230 42 L266 36 L266 0 L48 0 L48 36 L86 42 Q100 44 107.5 47.5 Q115 51 119.5 59 Q124 67 125 81.5 Q126 96 126 121 L126 398 Q126 433 116.5 448 Q107 463 82 467 L41 473 L46 508 L165 523 L180 517 L189 447 Q236 489 279.5 508.5 Q323 528 374 528 Q406 528 434 519.5 Q462 511 483 490.5 Q504 470 516 435 Q528 400 528 346 L528 121 Q528 97 529 82.5 Q530 68 534 59.5 Q538 51 545 47.5 Q552 44 565 42 L607 36 L607 0 L389 0 L389 36 L426 42 Q438 44 444.5 47 Q451 50 454 58 Q457 66 458 80.5 Q459 95 459 118 L459 339 Q459 405 433 436 Q407 467 353 467 Q313 467 273 451 Q233 435 195 407 L195 121 Z " />
<glyph glyph-name="o" unicode="o" horiz-adv-x="546" d="M270 -11 Q213 -11 170.5 8 Q128 27 100.5 62.5 Q73 98 59.5 147.5 Q46 197 46 258 Q46 385 107.5 456.5 Q169 528 278 528 Q337 528 379 508.5 Q421 489 448 453.5 Q475 418 487.5 368.5 Q500 319 500 258 Q500 197 485 147 Q470 97 441 62 Q412 27 369 8 Q326 -11 270 -11 Z M273 39 Q343 39 384.5 92 Q426 145 426 260 Q426 369 387 423.5 Q348 478 276 478 Q198 478 159 421.5 Q120 365 120 259 Q120 147 160.5 93 Q201 39 273 39 Z " />
<glyph glyph-name="p" unicode="p" horiz-adv-x="588" d="M121 398 Q121 435 111 449 Q101 463 74 468 L37 473 L42 507 L157 522 L173 515 L182 454 Q216 487 257 507.5 Q298 528 348 528 Q390 528 425.5 513.5 Q461 499 487 467.5 Q513 436 527.5 386.5 Q542 337 542 268 Q542 195 526.5 142 Q511 89 482.5 55 Q454 21 415.5 5 Q377 -11 330 -11 Q289 -11 252 3.5 Q215 18 190 44 L190 -62 Q190 -87 191 -101.5 Q192 -116 196 -124.5 Q200 -133 206.5 -136 Q213 -139 225 -140 L288 -148 L288 -183 L50 -183 L50 -147 L81 -142 Q94 -140 102 -136.5 Q110 -133 114 -125 Q118 -117 119.5 -102 Q121 -87 121 -62 L121 398 Z M190 93 Q218 70 251 57 Q284 44 322 44 Q353 44 379.5 55 Q406 66 425.5 92 Q445 118 456.5 160.5 Q468 203 468 267 Q468 374 431.5 422.5 Q395 471 334 471 Q302 471 267 459 Q232 447 190 415 L190 93 Z " />
<glyph glyph-name="q" unicode="q" horiz-adv-x="565" d="M302 -183 L302 -148 L364 -140 Q376 -139 382.5 -136 Q389 -133 393 -125 Q397 -117 398 -102.5 Q399 -88 399 -63 L399 57 Q373 29 335 9 Q297 -11 243 -11 Q149 -11 97.5 55.5 Q46 122 46 252 Q46 328 63 380.5 Q80 433 109.5 466 Q139 499 178.5 513.5 Q218 528 262 528 Q310 528 345.5 511.5 Q381 495 405 471 L416 517 L474 517 Q470 473 469 437.5 Q468 402 468 358 L468 -63 Q468 -88 469.5 -102.5 Q471 -117 475 -125 Q479 -133 486.5 -136.5 Q494 -140 507 -142 L539 -147 L539 -183 L302 -183 Z M399 425 Q375 445 341 459 Q307 473 265 473 Q199 473 159.5 422 Q120 371 120 259 Q120 150 153.5 97 Q187 44 260 44 Q295 44 331 60 Q367 76 399 108 L399 425 Z " />
<glyph glyph-name="r" unicode="r" horiz-adv-x="412" d="M195 121 Q195 97 196 82 Q197 67 201 59 Q205 51 212 48 Q219 45 231 43 L291 35 L291 0 L50 0 L50 36 L86 42 Q100 44 107.5 47 Q115 50 119.5 58 Q124 66 125 80.5 Q126 95 126 121 L126 398 Q126 433 116.5 448 Q107 463 82 467 L41 473 L46 508 L165 523 L180 517 L190 444 Q216 478 250 503 Q284 528 332 528 Q345 528 361 525.5 Q377 523 391 515 L386 437 L375 437 Q352 448 333 453 Q314 458 299 458 Q268 458 242.5 440.5 Q217 423 195 398 L195 121 Z " />
<glyph glyph-name="s" unicode="s" horiz-adv-x="466" d="M361 374 L347 434 Q342 454 325.5 466 Q309 478 262 478 Q238 478 216.5 473.5 Q195 469 179 459.5 Q163 450 153.5 434 Q144 418 144 395 Q144 361 165 343 Q186 325 217.5 313 Q249 301 285.5 292 Q322 283 353.5 267 Q385 251 406 224 Q427 197 427 149 Q427 77 375.5 33 Q324 -11 228 -11 Q174 -11 133 -0.5 Q92 10 66 24 L76 159 L119 159 L132 87 Q137 62 158.5 51 Q180 40 231 40 Q291 40 325 64 Q359 88 359 135 Q359 171 338 190 Q317 209 286 221 Q255 233 218.5 241.5 Q182 250 151 265.5 Q120 281 99 307.5 Q78 334 78 381 Q78 451 130 489.5 Q182 528 265 528 Q307 528 347.5 518.5 Q388 509 411 495 L406 367 L361 374 Z " />
<glyph glyph-name="t" unicode="t" horiz-adv-x="368" d="M343 26 Q318 10 286.5 -0.5 Q255 -11 219 -11 Q165 -11 137 19 Q109 49 109 120 L109 465 L24 465 L29 504 L111 516 L136 636 L178 636 L178 516 L315 516 L308 465 L178 465 L178 142 Q178 91 190.5 68 Q203 45 241 45 Q266 45 287.5 51.5 Q309 58 325 66 L343 26 Z " />
<glyph glyph-name="u" unicode="u" horiz-adv-x="629" d="M515 111 Q515 75 523.5 62 Q532 49 559 44 L593 38 L592 2 L491 -4 L465 -1 L452 72 Q414 37 369.5 13 Q325 -11 271 -11 Q241 -11 214 -3 Q187 5 166 25 Q145 45 133 79.5 Q121 114 121 167 L121 402 Q121 436 111 449.5 Q101 463 73 468 L37 473 L42 508 L175 523 L190 516 L190 176 Q190 119 211.5 84.5 Q233 50 288 50 Q330 50 369 68 Q408 86 446 116 L446 402 Q446 436 435.5 449.5 Q425 463 397 468 L361 473 L366 508 L499 523 L515 516 L515 111 Z " />
<glyph glyph-name="v" unicode="v" horiz-adv-x="529" d="M232 0 L71 409 Q64 428 58.5 440 Q53 452 47 458.5 Q41 465 34.5 468.5 Q28 472 17 474 L3 477 L11 516 L188 516 L188 477 L124 468 L277 65 L279 65 L421 468 L358 477 L364 516 L528 516 L528 477 L511 475 Q499 472 491 469 Q483 466 477.5 460 Q472 454 467.5 444.5 Q463 435 457 418 L307 0 L232 0 Z " />
<glyph glyph-name="w" unicode="w" horiz-adv-x="793" d="M191 0 L71 410 Q65 428 60.5 439.5 Q56 451 50.5 458 Q45 465 38 468.5 Q31 472 20 474 L4 477 L12 516 L194 516 L194 477 L126 469 L235 79 L237 79 L358 511 L442 511 L570 79 L572 79 L675 468 L606 477 L612 516 L787 516 L787 477 L771 475 Q759 473 751 470.5 Q743 468 737 462.5 Q731 457 726 447 Q721 437 716 420 L597 0 L524 0 L393 445 L391 445 L263 0 L191 0 Z " />
<glyph glyph-name="x" unicode="x" horiz-adv-x="519" d="M322 0 L322 38 L378 47 L378 50 L247 222 L119 48 L192 39 L192 0 L5 0 L5 38 L26 42 Q47 46 58.5 55 Q70 64 90 90 L218 259 L90 430 Q79 445 66 455 Q53 465 31 471 L9 477 L17 516 L209 516 L209 477 L144 468 L144 465 L265 307 L391 467 L391 468 L323 477 L330 516 L501 516 L501 477 L482 474 Q461 470 450 460.5 Q439 451 419 426 L293 267 L436 80 Q450 61 461 54 Q472 47 488 43 L512 38 L512 0 L322 0 Z " />
<glyph glyph-name="y" unicode="y" horiz-adv-x="529" d="M286 26 Q262 -32 242.5 -73.5 Q223 -115 203 -141.5 Q183 -168 159.5 -180.5 Q136 -193 104 -193 Q76 -193 50.5 -184 Q25 -175 13 -164 L31 -124 Q46 -130 64 -135.5 Q82 -141 99 -141 Q121 -141 138 -131 Q155 -121 170.5 -100 Q186 -79 201.5 -46 Q217 -13 236 34 L77 420 Q65 449 55.5 458.5 Q46 468 32 472 L6 478 L14 516 L206 516 L206 477 L133 468 L272 117 L273 117 L415 468 L339 477 L345 516 L523 516 L523 478 L504 476 Q492 474 484.5 471 Q477 468 471 460.5 Q465 453 459 440 Q453 427 444 406 L286 26 Z " />
<glyph glyph-name="z" unicode="z" horiz-adv-x="486" d="M52 0 L52 50 L345 465 L157 465 Q128 465 120 456 Q112 447 107 422 L98 381 L47 378 L61 516 L429 516 L429 467 L133 51 L329 51 Q358 51 369 58 Q380 65 388 91 L403 139 L447 139 L433 0 L52 0 Z " />
<glyph glyph-name="braceleft" unicode="&#x7b;" horiz-adv-x="301" d="M246 731 Q201 733 182 719.5 Q163 706 163 668 Q163 643 166.5 607.5 Q170 572 174.5 534.5 Q179 497 183.5 461.5 Q188 426 189 401 Q189 393 189 386 Q189 379 188 372 Q186 349 176.5 328 Q167 307 140 296 Q141 295 141 295 Q167 284 176.5 265 Q186 246 188 221 Q189 214 189 206 Q189 198 189 189 Q188 164 184 130 Q180 96 175.5 60.5 Q171 25 167.5 -9 Q164 -43 164 -68 Q164 -106 183 -118.5 Q202 -131 247 -129 L251 -169 Q219 -174 200 -172 Q140 -170 116 -143 Q92 -116 92 -69 Q92 -47 96.5 -10 Q101 27 106 68.5 Q111 110 115.5 150 Q120 190 120 218 Q120 253 104.5 263.5 Q89 274 55 277 L55 315 Q89 318 104.5 328.5 Q120 339 120 374 Q120 401 116 439 Q112 477 107 517 Q102 557 97.5 594.5 Q93 632 91 659 Q91 666 91 672.5 Q91 679 92 685 Q95 722 120 746.5 Q145 771 202 773 Q215 774 226.5 773.5 Q238 773 250 771 L246 731 Z " />
<glyph glyph-name="bar" unicode="&#x7c;" horiz-adv-x="276" d="M107 -143 L107 755 L169 755 L169 -143 L107 -143 Z " />
<glyph glyph-name="braceright" unicode="&#x7d;" horiz-adv-x="301" d="M54 -130 Q99 -132 118 -118.5 Q137 -105 137 -67 Q137 -42 133.5 -6.5 Q130 29 125.5 66.5 Q121 104 116.5 139.5 Q112 175 111 200 Q111 208 111 215 Q111 222 112 229 Q114 252 123.5 273 Q133 294 160 305 Q159 306 159 306 Q133 317 123.5 336 Q114 355 112 380 Q111 387 111 395 Q111 403 111 412 Q112 437 116 471 Q120 505 124.5 540.5 Q129 576 132.5 610 Q136 644 136 669 Q136 707 117 719.5 Q98 732 53 730 L49 770 Q81 775 100 773 Q160 771 184 744 Q208 717 208 670 Q208 648 203.5 611 Q199 574 194 532.5 Q189 491 184.5 451.5 Q180 412 180 383 Q180 348 195.5 337.5 Q211 327 245 324 L245 286 Q211 283 195.5 272.5 Q180 262 180 227 Q180 200 184 162 Q188 124 193 84 Q198 44 203 6.5 Q208 -31 209 -58 Q209 -65 209 -71.5 Q209 -78 208 -84 Q205 -121 180 -145.5 Q155 -170 98 -172 Q85 -173 73.5 -172.5 Q62 -172 50 -170 L54 -130 Z " />
<glyph glyph-name="asciitilde" unicode="&#x7e;" horiz-adv-x="559" d="M487 406 Q476 370 449.5 344.5 Q423 319 374 319 Q342 319 316.5 326.5 Q291 334 268 342.5 Q245 351 221.5 358.5 Q198 366 170 366 Q148 366 134.5 354 Q121 342 107 321 L73 347 Q87 391 115 412.5 Q143 434 183 434 Q212 434 237 427 Q262 420 285.5 411 Q309 402 333 395 Q357 388 385 388 Q411 388 425.5 399.5 Q440 411 453 433 L487 406 Z " />
<glyph glyph-name="uni00A0" unicode="&#xa0;" horiz-adv-x="190" d="" />
<glyph glyph-name="exclamdown" unicode="&#xa1;" horiz-adv-x="258" d="M150 365 L170 51 L170 -183 L95 -183 L95 51 L116 365 L150 365 Z M72 502 Q72 556 131 556 Q157 556 172.5 543 Q188 530 188 504 Q188 478 172.5 465 Q157 452 131 452 Q104 452 88 465 Q72 478 72 502 Z " />
<glyph glyph-name="cent" unicode="&#xa2;" horiz-adv-x="517" d="M237 79 Q156 96 109 161 Q62 226 62 335 Q62 457 123.5 529.5 Q185 602 295 607 L307 712 L352 712 L340 606 Q372 602 408 591.5 Q444 581 467 567 L458 430 L413 433 L401 497 Q396 520 382.5 533 Q369 546 334 551 L287 127 Q319 127 339.5 131 Q360 135 372.5 142.5 Q385 150 391.5 161.5 Q398 173 402 188 L418 254 L468 254 L459 120 Q436 103 391 88.5 Q346 74 292 74 L281 74 L270 -26 L225 -26 L237 79 Z M136 341 Q136 294 144.5 259 Q153 224 168 199 Q183 174 202.5 159 Q222 144 243 136 L289 553 Q220 548 178 496 Q136 444 136 341 Z " />
<glyph glyph-name="sterling" unicode="&#xa3;" horiz-adv-x="515" d="M44 0 L37 42 Q69 45 86 58.5 Q103 72 110.5 96.5 Q118 121 119 156.5 Q120 192 120 240 L120 348 L55 348 L55 397 L120 397 L120 497 Q120 546 128.5 589.5 Q137 633 160 666 Q183 699 223.5 718 Q264 737 328 737 Q344 737 363.5 734.5 Q383 732 402.5 727.5 Q422 723 440.5 716 Q459 709 473 700 L469 574 L427 577 L412 636 Q406 663 385 675.5 Q364 688 318 688 Q248 688 220.5 644 Q193 600 193 520 L193 397 L367 397 L367 348 L193 348 L193 214 Q193 152 182 113 Q171 74 144 50 L320 50 Q370 50 389 66 Q408 82 418 122 L432 176 L478 176 L465 0 L44 0 Z " />
<glyph glyph-name="currency" unicode="&#xa4;" horiz-adv-x="589" d="M512 17 L421 109 Q366 67 288 67 Q252 67 217.5 78.5 Q183 90 158 110 L65 19 L21 63 L112 156 Q88 188 81 220.5 Q74 253 74 276 Q74 310 83 341 Q92 372 112 398 L23 489 L68 534 L158 444 Q190 468 223 478 Q256 488 292 488 Q363 488 424 443 L514 533 L557 489 L467 397 Q487 370 496 339 Q505 308 505 278 Q505 255 498.5 222.5 Q492 190 467 155 L558 63 L512 17 Z M292 117 Q327 117 355 129.5 Q383 142 402.5 163.5 Q422 185 432.5 214 Q443 243 443 276 Q443 311 432 340.5 Q421 370 401 391 Q381 412 352.5 424 Q324 436 289 436 Q253 436 225 423 Q197 410 177.5 388.5 Q158 367 148 338 Q138 309 138 276 Q138 243 148.5 214 Q159 185 178.5 163.5 Q198 142 227 129.5 Q256 117 292 117 Z " />
<glyph glyph-name="yen" unicode="&#xa5;" horiz-adv-x="615" d="M101 458 L195 458 L112 605 Q99 627 90 641.5 Q81 656 73 664.5 Q65 673 57.5 677 Q50 681 39 682 L16 685 L16 724 L238 724 L238 685 L155 673 L321 369 L324 369 L482 673 L400 685 L400 724 L602 724 L602 685 L582 682 Q570 680 561 676.5 Q552 673 543 663.5 Q534 654 524 637 Q514 620 499 592 L428 458 L540 458 L540 410 L401 410 L353 319 L540 319 L540 272 L352 272 L352 97 Q352 67 359 58.5 Q366 50 380 48 L453 39 L453 0 L178 0 L178 39 L252 48 Q266 50 272.5 58.5 Q279 67 279 98 L279 272 L101 272 L101 319 L275 319 L222 410 L101 410 L101 458 Z " />
<glyph glyph-name="brokenbar" unicode="&#xa6;" horiz-adv-x="276" d="M107 -143 L107 245 L169 245 L169 -143 L107 -143 Z M107 420 L107 755 L169 755 L169 420 L107 420 Z " />
<glyph glyph-name="section" unicode="&#xa7;" horiz-adv-x="532" d="M454 304 Q454 266 430.5 229 Q407 192 371 159 Q382 152 396 141.5 Q410 131 422.5 116 Q435 101 443.5 80 Q452 59 452 29 Q452 -13 436 -46 Q420 -79 391.5 -101.5 Q363 -124 324.5 -135.5 Q286 -147 240 -147 Q169 -147 129.5 -134 Q90 -121 70 -112 L77 23 L125 23 L135 -42 Q140 -72 165 -83 Q190 -94 241 -94 Q305 -94 343 -67.5 Q381 -41 381 15 Q381 50 358 72.5 Q335 95 300.5 111.5 Q266 128 225.5 142.5 Q185 157 150.5 175.5 Q116 194 93 221 Q70 248 70 290 Q70 330 92.5 366.5 Q115 403 154 433 Q127 453 106 483 Q85 513 85 564 Q85 609 102 642 Q119 675 147.5 696.5 Q176 718 213.5 728.5 Q251 739 293 739 Q340 739 382 729 Q424 719 450 705 L443 570 L398 577 L389 626 Q386 644 381.5 656 Q377 668 366.5 675.5 Q356 683 337 686 Q318 689 286 689 Q218 689 187 657.5 Q156 626 156 582 Q156 541 178 516 Q200 491 233 474 Q266 457 305 444 Q344 431 377 414 Q410 397 432 371.5 Q454 346 454 304 Z M383 288 Q383 301 379.5 311.5 Q376 322 366 331.5 Q356 341 337 351.5 Q318 362 288 375 L201 412 Q140 361 140 309 Q140 295 144 283.5 Q148 272 160 261 Q172 250 194 238 Q216 226 252 211 L323 181 Q346 203 364.5 229.5 Q383 256 383 288 Z " />
<glyph glyph-name="dieresis" unicode="&#xa8;" horiz-adv-x="500" d="M86 679 Q86 705 100 717 Q114 729 139 729 Q194 729 194 679 Q194 626 139 626 Q114 626 100 639 Q86 652 86 679 Z M287 679 Q287 705 301 717 Q315 729 340 729 Q395 729 395 679 Q395 626 340 626 Q315 626 301 639 Q287 652 287 679 Z " />
<glyph glyph-name="copyright" unicode="&#xa9;" horiz-adv-x="824" d="M753 329 Q753 253 729 190 Q705 127 660.5 82 Q616 37 552.5 12.5 Q489 -12 411 -12 Q322 -12 258 12 Q194 36 152.5 79 Q111 122 91 180 Q71 238 71 307 Q71 386 96.5 448.5 Q122 511 168 554 Q214 597 276.5 620 Q339 643 413 643 Q494 643 557.5 621.5 Q621 600 664.5 559.5 Q708 519 730.5 461 Q753 403 753 329 Z M691 319 Q691 388 669.5 439.5 Q648 491 610.5 525 Q573 559 522.5 576 Q472 593 414 593 Q356 593 305 575 Q254 557 215.5 521 Q177 485 155 431.5 Q133 378 133 307 Q133 244 152.5 194 Q172 144 208 109.5 Q244 75 296 56.5 Q348 38 413 38 Q475 38 526 57 Q577 76 614 112 Q651 148 671 200 Q691 252 691 319 Z M530 389 L494 394 L488 431 Q486 445 475.5 455 Q465 465 427 465 Q358 465 331 424.5 Q304 384 304 312 Q304 284 310 257.5 Q316 231 330.5 211.5 Q345 192 368.5 180 Q392 168 426 168 Q460 168 486.5 174 Q513 180 530 186 L544 153 Q526 143 494 131.5 Q462 120 417 120 Q372 120 338 134 Q304 148 281.5 173.5 Q259 199 248 234 Q237 269 237 310 Q237 354 247.5 390.5 Q258 427 281 453.5 Q304 480 340 495 Q376 510 427 510 Q454 510 486.5 502.5 Q519 495 536 484 L530 389 Z " />
<glyph glyph-name="ordfeminine" unicode="&#xaa;" horiz-adv-x="379" d="M362 288 Q351 281 339 278.5 Q327 276 313 276 Q290 276 273 287 Q256 298 251 325 Q238 306 212 291 Q186 276 148 276 Q119 276 99 284 Q79 292 67 305 Q55 318 49.5 335 Q44 352 44 370 Q44 432 94.5 456 Q145 480 244 483 L244 519 Q244 560 230.5 576.5 Q217 593 180 593 Q157 593 132 588 Q107 583 75 569 L61 605 Q81 617 115.5 628 Q150 639 188 639 Q243 639 274.5 616 Q306 593 306 526 L306 347 Q306 330 311 322.5 Q316 315 336 314 L359 313 L362 288 Z M244 443 Q169 441 139.5 426 Q110 411 110 375 Q110 346 125.5 333 Q141 320 166 320 Q204 320 224 341 Q244 362 244 391 L244 443 Z " />
<glyph glyph-name="guillemotleft" unicode="&#xab;" horiz-adv-x="415" d="M187 68 L40 252 L40 260 L186 442 L221 429 L151 304 L142 290 Q129 268 131 251 Q133 234 147 211 L223 81 L187 68 Z M335 68 L188 252 L188 260 L334 442 L369 429 L299 304 L290 290 Q277 268 279 251 Q281 234 295 211 L371 81 L335 68 Z " />
<glyph glyph-name="logicalnot" unicode="&#xac;" horiz-adv-x="600" d="M448 179 L448 316 L92 316 L92 379 L508 379 L508 179 L448 179 Z " />
<glyph glyph-name="uni00AD" unicode="&#xad;" horiz-adv-x="336" d="M35 250 L35 310 L296 310 L296 250 L35 250 Z " />
<glyph glyph-name="registered" unicode="&#xae;" horiz-adv-x="496" d="M431 484 Q431 442 418.5 407.5 Q406 373 382.5 347.5 Q359 322 324.5 308 Q290 294 246 294 Q198 294 163.5 308 Q129 322 107 346 Q85 370 74.5 403 Q64 436 64 474 Q64 562 116 611 Q168 660 256 660 Q341 660 386 613.5 Q431 567 431 484 Z M391 481 Q391 555 355.5 591 Q320 627 257 627 Q184 627 144 587.5 Q104 548 104 474 Q104 405 139.5 367 Q175 329 248 329 Q321 329 356 370.5 Q391 412 391 481 Z M159 400 Q168 401 173 404.5 Q178 408 178 422 L178 538 Q178 549 174 552.5 Q170 556 159 557 L159 575 L250 575 Q278 575 298.5 566.5 Q319 558 319 526 Q319 505 306 492.5 Q293 480 276 475 Q295 471 302 449 L313 419 Q317 408 322 406 Q327 404 335 402 L335 386 Q332 385 329 384 Q325 382 320.5 381.5 Q316 381 310 381 Q296 381 286 387 Q276 393 271 411 L264 437 Q260 449 252 453 Q244 457 233 457 L219 457 L219 421 Q219 409 224 405 Q229 401 241 400 L241 384 L159 384 L159 400 Z M219 482 L234 482 Q252 482 263.5 490 Q275 498 275 519 Q275 539 264.5 544.5 Q254 550 239 550 L219 550 L219 482 Z " />
<glyph glyph-name="macron" unicode="&#xaf;" horiz-adv-x="500" d="M118 690 L403 690 L403 630 L118 630 L118 690 Z " />
<glyph glyph-name="degree" unicode="&#xb0;" horiz-adv-x="340" d="M183 607 Q210 607 227 623 Q244 639 244 671 Q244 713 225 728 Q206 743 183 743 Q160 743 140 727.5 Q120 712 120 673 Q120 641 137 624 Q154 607 183 607 Z M296 677 Q296 620 263 590.5 Q230 561 182 561 Q160 561 139.5 568 Q119 575 103 589.5 Q87 604 77.5 625 Q68 646 68 674 Q68 707 79 729 Q90 751 107.5 764.5 Q125 778 145 783.5 Q165 789 183 789 Q234 789 265 757.5 Q296 726 296 677 Z " />
<glyph glyph-name="plusminus" unicode="&#xb1;" horiz-adv-x="600" d="M329 325 L493 325 L493 264 L329 264 L329 94 L268 94 L268 264 L105 264 L105 325 L268 325 L268 493 L329 493 L329 325 Z M105 0 L105 61 L493 61 L493 0 L105 0 Z " />
<glyph glyph-name="twosuperior" unicode="&#xb2;" horiz-adv-x="374" d="M35 364 L35 401 L179 572 Q208 606 225 633 Q242 660 242 695 Q242 738 217.5 752 Q193 766 161 766 Q129 766 113 758.5 Q97 751 92 735 L79 683 L46 680 L40 778 Q62 791 94.5 801 Q127 811 167 811 Q238 811 270.5 779 Q303 747 303 697 Q303 661 284.5 626.5 Q266 592 229 550 L108 409 L215 409 Q240 409 251 415.5 Q262 422 268 439 L284 482 L322 482 L312 364 L35 364 Z " />
<glyph glyph-name="threesuperior" unicode="&#xb3;" horiz-adv-x="374" d="M165 401 Q216 401 239.5 427 Q263 453 263 489 Q263 515 253 530 Q243 545 227 553 Q211 561 191.5 563.5 Q172 566 154 566 L117 566 L117 609 L170 614 Q212 616 235.5 638.5 Q259 661 259 695 Q259 766 177 766 Q137 766 122.5 755.5 Q108 745 105 727 L96 683 L58 679 L52 776 Q67 786 103 798 Q139 810 186 810 Q252 810 285 779.5 Q318 749 318 705 Q318 662 293.5 634.5 Q269 607 239 595 Q248 591 263 582.5 Q278 574 291.5 561.5 Q305 549 315 531 Q325 513 325 490 Q325 426 281 390.5 Q237 355 165 355 Q119 355 85.5 366 Q52 377 34 388 L42 483 L80 483 L89 437 Q93 417 109 409 Q125 401 165 401 Z " />
<glyph glyph-name="acute" unicode="&#xb4;" horiz-adv-x="500" d="M187 568 L157 591 L291 770 L363 734 L363 721 L187 568 Z " />
<glyph glyph-name="mu" unicode="&#xb5;" horiz-adv-x="598" d="M407 519 L476 519 L476 96 Q476 75 478.5 63 Q481 51 489.5 44.5 Q498 38 513 36 Q528 34 553 32 L556 2 Q539 -6 524 -8.5 Q509 -11 497 -11 Q462 -11 438 5.5 Q414 22 410 66 Q385 35 351.5 12 Q318 -11 267 -11 Q221 -11 193.5 5 Q166 21 151 42 L151 -183 L82 -183 L82 519 L151 519 L151 167 Q151 134 160 111.5 Q169 89 185 76 Q201 63 222 57.5 Q243 52 267 52 Q313 52 346.5 70 Q380 88 407 109 L407 519 Z " />
<glyph glyph-name="paragraph" unicode="&#xb6;" horiz-adv-x="646" d="M498 -136 L437 -136 L437 674 L341 674 L341 -136 L280 -136 L280 287 Q172 292 114.5 350.5 Q57 409 57 506 Q57 568 79 609.5 Q101 651 137.5 676.5 Q174 702 221 713 Q268 724 317 724 L562 724 L562 685 L536 682 Q512 679 505 669 Q498 659 498 632 L498 -136 Z " />
<glyph glyph-name="periodcentered" unicode="&#xb7;" horiz-adv-x="230" d="M175 352 Q175 295 112 295 Q84 295 68 308.5 Q52 322 52 351 Q52 378 68 392 Q84 406 112 406 Q141 406 158 392 Q175 378 175 352 Z " />
<glyph glyph-name="cedilla" unicode="&#xb8;" horiz-adv-x="500" d="M154 -168 Q165 -172 180 -174 Q195 -176 207 -176 Q267 -176 267 -125 Q267 -102 247 -88.5 Q227 -75 192 -71 L219 24 L263 18 L248 -37 Q263 -41 278 -47 Q293 -53 305 -63.5 Q317 -74 325 -89.5 Q333 -105 333 -126 Q333 -171 299.5 -197.5 Q266 -224 212 -224 Q189 -224 170 -219.5 Q151 -215 141 -210 L154 -168 Z " />
<glyph glyph-name="onesuperior" unicode="&#xb9;" horiz-adv-x="296" d="M172 442 Q172 421 181.5 412.5 Q191 404 210 402 L241 398 L241 364 L35 364 L35 398 L69 402 Q91 404 101 413 Q111 422 111 442 L111 693 Q111 716 106 725.5 Q101 735 85 738 L37 747 L40 773 L157 806 L172 801 L172 442 Z " />
<glyph glyph-name="ordmasculine" unicode="&#xba;" horiz-adv-x="410" d="M204 274 Q119 274 78.5 324 Q38 374 38 455 Q38 540 82.5 589 Q127 638 212 638 Q298 638 337 588.5 Q376 539 376 456 Q376 373 332.5 323.5 Q289 274 204 274 Z M209 320 Q256 320 283 352 Q310 384 310 457 Q310 529 282.5 561.5 Q255 594 209 594 Q161 594 132.5 562 Q104 530 104 456 Q104 384 132 352 Q160 320 209 320 Z " />
<glyph glyph-name="guillemotright" unicode="&#xbb;" horiz-adv-x="415" d="M43 81 L120 210 Q134 233 136 250 Q138 267 125 289 L46 429 L80 442 L227 260 L227 252 L79 68 L43 81 Z M191 81 L268 210 Q282 233 284 250 Q286 267 273 289 L194 429 L228 442 L375 260 L375 252 L227 68 L191 81 Z " />
<glyph glyph-name="onequarter" unicode="&#xbc;" horiz-adv-x="866" d="M207 -18 L565 724 L625 724 L267 -18 L207 -18 Z M195 373 Q195 352 204.5 343.5 Q214 335 233 333 L264 329 L264 295 L58 295 L58 329 L92 333 Q114 335 124 344 Q134 353 134 373 L134 624 Q134 647 129 656.5 Q124 666 108 669 L60 678 L63 704 L180 737 L195 732 L195 373 Z M690 113 L489 113 L489 147 L688 442 L747 442 L747 159 L806 159 L806 113 L747 113 L747 81 Q747 60 754.5 53.5 Q762 47 781 45 L810 41 L810 7 L621 7 L621 42 L648 45 Q676 48 683 56.5 Q690 65 690 83 L690 113 Z M690 159 L690 369 L689 369 L551 159 L690 159 Z " />
<glyph glyph-name="onehalf" unicode="&#xbd;" horiz-adv-x="884" d="M193 -18 L551 724 L611 724 L253 -18 L193 -18 Z M195 373 Q195 352 204.5 343.5 Q214 335 233 333 L264 329 L264 295 L58 295 L58 329 L92 333 Q114 335 124 344 Q134 353 134 373 L134 624 Q134 647 129 656.5 Q124 666 108 669 L60 678 L63 704 L180 737 L195 732 L195 373 Z M556 7 L556 44 L700 215 Q729 249 746 276 Q763 303 763 338 Q763 381 738.5 395 Q714 409 682 409 Q650 409 634 401.5 Q618 394 613 378 L600 326 L567 323 L561 421 Q583 434 615.5 444 Q648 454 688 454 Q759 454 791.5 422 Q824 390 824 340 Q824 304 805.5 269.5 Q787 235 750 193 L629 52 L736 52 Q761 52 772 58.5 Q783 65 789 82 L805 125 L843 125 L833 7 L556 7 Z " />
<glyph glyph-name="threequarters" unicode="&#xbe;" horiz-adv-x="884" d="M241 -18 L599 724 L659 724 L301 -18 L241 -18 Z M708 113 L507 113 L507 147 L706 442 L765 442 L765 159 L824 159 L824 113 L765 113 L765 81 Q765 60 772.5 53.5 Q780 47 799 45 L828 41 L828 7 L639 7 L639 42 L666 45 Q694 48 701 56.5 Q708 65 708 83 L708 113 Z M708 159 L708 369 L707 369 L569 159 L708 159 Z M190 332 Q241 332 264.5 358 Q288 384 288 420 Q288 446 278 461 Q268 476 252 484 Q236 492 216.5 494.5 Q197 497 179 497 L142 497 L142 540 L195 545 Q237 547 260.5 569.5 Q284 592 284 626 Q284 697 202 697 Q162 697 147.5 686.5 Q133 676 130 658 L121 614 L83 610 L77 707 Q92 717 128 729 Q164 741 211 741 Q277 741 310 710.5 Q343 680 343 636 Q343 593 318.5 565.5 Q294 538 264 526 Q273 522 288 513.5 Q303 505 316.5 492.5 Q330 480 340 462 Q350 444 350 421 Q350 357 306 321.5 Q262 286 190 286 Q144 286 110.5 297 Q77 308 59 319 L67 414 L105 414 L114 368 Q118 348 134 340 Q150 332 190 332 Z " />
<glyph glyph-name="questiondown" unicode="&#xbf;" horiz-adv-x="461" d="M322 279 Q327 245 314 219.5 Q301 194 279 173 Q257 152 230 132 Q203 112 180 89.5 Q157 67 141 38.5 Q125 10 125 -28 Q125 -59 136 -79 Q147 -99 164.5 -111 Q182 -123 205 -128 Q228 -133 252 -133 Q287 -133 320.5 -123.5 Q354 -114 382 -97 L405 -142 Q374 -164 331.5 -176.5 Q289 -189 239 -189 Q145 -189 96.5 -147.5 Q48 -106 48 -31 Q48 16 63.5 50 Q79 84 101.5 110 Q124 136 151 156.5 Q178 177 200.5 196.5 Q223 216 238.5 236.5 Q254 257 254 284 L254 397 L308 397 L322 279 Z M225 509 Q225 563 283 563 Q309 563 324.5 550 Q340 537 340 511 Q340 485 324.5 472 Q309 459 283 459 Q257 459 241 472 Q225 485 225 509 Z " />
<glyph glyph-name="Agrave" unicode="&#xc0;" horiz-adv-x="684" d="M382 724 L577 127 Q585 102 591.5 87 Q598 72 604.5 63 Q611 54 619 49.5 Q627 45 639 43 L667 39 L667 0 L441 0 L441 39 L522 50 L461 247 L196 247 L133 50 L215 39 L215 0 L9 0 L9 39 L39 44 Q64 49 74 65 Q84 81 96 117 L297 724 L382 724 Z M329 657 L328 657 L212 297 L444 297 L329 657 Z M212 860 L212 873 L268 928 L444 807 L427 777 L212 860 Z " />
<glyph glyph-name="Aacute" unicode="&#xc1;" horiz-adv-x="684" d="M382 724 L577 127 Q585 102 591.5 87 Q598 72 604.5 63 Q611 54 619 49.5 Q627 45 639 43 L667 39 L667 0 L441 0 L441 39 L522 50 L461 247 L196 247 L133 50 L215 39 L215 0 L9 0 L9 39 L39 44 Q64 49 74 65 Q84 81 96 117 L297 724 L382 724 Z M329 657 L328 657 L212 297 L444 297 L329 657 Z M264 778 L247 809 L425 928 L480 873 L480 859 L264 778 Z " />
<glyph glyph-name="Acircumflex" unicode="&#xc2;" horiz-adv-x="684" d="M382 724 L577 127 Q585 102 591.5 87 Q598 72 604.5 63 Q611 54 619 49.5 Q627 45 639 43 L667 39 L667 0 L441 0 L441 39 L522 50 L461 247 L196 247 L133 50 L215 39 L215 0 L9 0 L9 39 L39 44 Q64 49 74 65 Q84 81 96 117 L297 724 L382 724 Z M329 657 L328 657 L212 297 L444 297 L329 657 Z M339 856 L206 775 L182 807 L307 924 L372 924 L497 806 L474 775 L339 856 Z " />
<glyph glyph-name="Atilde" unicode="&#xc3;" horiz-adv-x="684" d="M382 724 L577 127 Q585 102 591.5 87 Q598 72 604.5 63 Q611 54 619 49.5 Q627 45 639 43 L667 39 L667 0 L441 0 L441 39 L522 50 L461 247 L196 247 L133 50 L215 39 L215 0 L9 0 L9 39 L39 44 Q64 49 74 65 Q84 81 96 117 L297 724 L382 724 Z M329 657 L328 657 L212 297 L444 297 L329 657 Z M259 886 Q272 886 298.5 880 Q325 874 352.5 867 Q380 860 403 854 Q426 848 432 848 Q440 848 449.5 854.5 Q459 861 477 885 L507 868 Q497 841 486.5 824 Q476 807 466.5 797.5 Q457 788 448 784.5 Q439 781 431 781 Q420 781 396 787 Q372 793 345 800.5 Q318 808 294 814 Q270 820 259 820 Q249 820 239.5 813 Q230 806 211 784 L183 800 Q204 847 221.5 866.5 Q239 886 259 886 Z " />
<glyph glyph-name="Adieresis" unicode="&#xc4;" horiz-adv-x="684" d="M382 724 L577 127 Q585 102 591.5 87 Q598 72 604.5 63 Q611 54 619 49.5 Q627 45 639 43 L667 39 L667 0 L441 0 L441 39 L522 50 L461 247 L196 247 L133 50 L215 39 L215 0 L9 0 L9 39 L39 44 Q64 49 74 65 Q84 81 96 117 L297 724 L382 724 Z M329 657 L328 657 L212 297 L444 297 L329 657 Z M183 848 Q183 898 236 898 Q262 898 276 886 Q290 874 290 848 Q290 795 236 795 Q183 795 183 848 Z M384 848 Q384 898 437 898 Q463 898 477 886 Q491 874 491 848 Q491 795 437 795 Q384 795 384 848 Z " />
<glyph glyph-name="Aring" unicode="&#xc5;" horiz-adv-x="684" d="M446 787 Q446 747 430 725.5 Q414 704 391 695 L577 127 Q585 102 591.5 87 Q598 72 604.5 63 Q611 54 619 49.5 Q627 45 639 43 L667 39 L667 0 L441 0 L441 39 L522 50 L461 247 L196 247 L133 50 L215 39 L215 0 L9 0 L9 39 L39 44 Q64 49 74 65 Q84 81 96 117 L287 694 Q263 705 246.5 727 Q230 749 230 787 Q230 819 240.5 839.5 Q251 860 267 871.5 Q283 883 302 887.5 Q321 892 338 892 Q387 892 416.5 865.5 Q446 839 446 787 Z M329 657 L328 657 L212 297 L444 297 L329 657 Z M338 726 Q393 726 393 787 Q393 826 376.5 838.5 Q360 851 338 851 Q329 851 319 848.5 Q309 846 301 839 Q293 832 288 819.5 Q283 807 283 787 Q283 758 296.5 742 Q310 726 338 726 Z " />
<glyph glyph-name="AE" unicode="&#xc6;" horiz-adv-x="888" d="M9 0 L9 39 L44 45 Q66 50 78.5 64 Q91 78 109 114 L392 677 L308 689 L308 724 L803 724 L813 546 L768 547 L747 620 Q739 647 726.5 660 Q714 673 682 673 L512 673 L512 394 L744 394 L744 343 L512 343 L512 51 L699 51 Q730 51 743.5 64 Q757 77 765 107 L786 184 L830 184 L820 0 L354 0 L354 39 L399 45 Q414 47 421.5 50.5 Q429 54 433 63 Q437 72 437.5 87.5 Q438 103 438 130 L438 343 L282 343 L142 52 L222 39 L222 0 L9 0 Z M438 650 L434 650 L309 394 L438 394 L438 650 Z " />
<glyph glyph-name="Ccedilla" unicode="&#xc7;" horiz-adv-x="620" d="M273 -168 Q284 -172 299 -174 Q314 -176 326 -176 Q386 -176 386 -125 Q386 -102 366 -88.5 Q346 -75 311 -71 L328 -9 Q273 -4 222 17.5 Q171 39 133 82.5 Q95 126 72 194.5 Q49 263 49 362 Q49 443 70 512 Q91 581 133 631 Q175 681 239 709 Q303 737 390 737 Q423 737 453 733 Q483 729 506.5 724 Q530 719 546 713 Q562 707 568 704 L562 553 L517 556 L502 631 Q496 662 468.5 673.5 Q441 685 387 685 Q336 685 288.5 669 Q241 653 204.5 615.5 Q168 578 146.5 516 Q125 454 125 362 Q125 264 148 202 Q171 140 207.5 104.5 Q244 69 288.5 56 Q333 43 375 43 Q412 43 436 47 Q460 51 475 58.5 Q490 66 497.5 75.5 Q505 85 508 97 L528 167 L574 167 L566 30 Q551 21 503 5.5 Q455 -10 374 -11 L367 -37 Q382 -41 397 -47 Q412 -53 424 -63.5 Q436 -74 444 -89.5 Q452 -105 452 -126 Q452 -171 418.5 -197.5 Q385 -224 331 -224 Q308 -224 289 -219.5 Q270 -215 260 -210 L273 -168 Z " />
<glyph glyph-name="Egrave" unicode="&#xc8;" horiz-adv-x="591" d="M516 546 Q505 546 493.5 546.5 Q482 547 471 547 L450 619 Q441 649 427.5 661 Q414 673 382 673 L215 673 L215 394 L447 394 L447 343 L215 343 L215 51 L402 51 Q432 51 445.5 62.5 Q459 74 467 103 L489 184 L533 184 L523 0 L57 0 L57 39 L103 45 Q117 47 124.5 50 Q132 53 135.5 61 Q139 69 140 84 Q141 99 141 124 L141 606 Q141 628 139.5 641.5 Q138 655 133.5 663 Q129 671 121.5 674.5 Q114 678 101 679 L58 685 L58 724 L506 724 L516 546 Z M178 860 L178 873 L234 928 L410 807 L393 777 L178 860 Z " />
<glyph glyph-name="Eacute" unicode="&#xc9;" horiz-adv-x="591" d="M516 546 Q505 546 493.5 546.5 Q482 547 471 547 L450 619 Q441 649 427.5 661 Q414 673 382 673 L215 673 L215 394 L447 394 L447 343 L215 343 L215 51 L402 51 Q432 51 445.5 62.5 Q459 74 467 103 L489 184 L533 184 L523 0 L57 0 L57 39 L103 45 Q117 47 124.5 50 Q132 53 135.5 61 Q139 69 140 84 Q141 99 141 124 L141 606 Q141 628 139.5 641.5 Q138 655 133.5 663 Q129 671 121.5 674.5 Q114 678 101 679 L58 685 L58 724 L506 724 L516 546 Z M232 778 L215 809 L393 928 L448 873 L448 859 L232 778 Z " />
<glyph glyph-name="Ecircumflex" unicode="&#xca;" horiz-adv-x="591" d="M516 546 Q505 546 493.5 546.5 Q482 547 471 547 L450 619 Q441 649 427.5 661 Q414 673 382 673 L215 673 L215 394 L447 394 L447 343 L215 343 L215 51 L402 51 Q432 51 445.5 62.5 Q459 74 467 103 L489 184 L533 184 L523 0 L57 0 L57 39 L103 45 Q117 47 124.5 50 Q132 53 135.5 61 Q139 69 140 84 Q141 99 141 124 L141 606 Q141 628 139.5 641.5 Q138 655 133.5 663 Q129 671 121.5 674.5 Q114 678 101 679 L58 685 L58 724 L506 724 L516 546 Z M301 856 L168 775 L144 807 L269 924 L334 924 L459 806 L436 775 L301 856 Z " />
<glyph glyph-name="Edieresis" unicode="&#xcb;" horiz-adv-x="591" d="M516 546 Q505 546 493.5 546.5 Q482 547 471 547 L450 619 Q441 649 427.5 661 Q414 673 382 673 L215 673 L215 394 L447 394 L447 343 L215 343 L215 51 L402 51 Q432 51 445.5 62.5 Q459 74 467 103 L489 184 L533 184 L523 0 L57 0 L57 39 L103 45 Q117 47 124.5 50 Q132 53 135.5 61 Q139 69 140 84 Q141 99 141 124 L141 606 Q141 628 139.5 641.5 Q138 655 133.5 663 Q129 671 121.5 674.5 Q114 678 101 679 L58 685 L58 724 L506 724 L516 546 Z M144 848 Q144 898 197 898 Q223 898 237 886 Q251 874 251 848 Q251 795 197 795 Q144 795 144 848 Z M345 848 Q345 898 398 898 Q424 898 438 886 Q452 874 452 848 Q452 795 398 795 Q345 795 345 848 Z " />
<glyph glyph-name="Igrave" unicode="&#xcc;" horiz-adv-x="355" d="M214 124 Q214 100 215 85 Q216 70 219.5 62 Q223 54 230.5 51 Q238 48 251 46 L296 39 L296 0 L57 0 L57 39 L103 46 Q116 48 123.5 50.5 Q131 53 135 61 Q139 69 140 83.5 Q141 98 141 123 L141 606 Q141 628 139.5 641.5 Q138 655 134 663 Q130 671 122 674.5 Q114 678 101 679 L58 685 L58 724 L294 724 L294 685 L248 679 Q226 677 220 663.5 Q214 650 214 606 L214 124 Z M36 860 L36 873 L92 928 L268 807 L251 777 L36 860 Z " />
<glyph glyph-name="Iacute" unicode="&#xcd;" horiz-adv-x="355" d="M214 124 Q214 100 215 85 Q216 70 219.5 62 Q223 54 230.5 51 Q238 48 251 46 L296 39 L296 0 L57 0 L57 39 L103 46 Q116 48 123.5 50.5 Q131 53 135 61 Q139 69 140 83.5 Q141 98 141 123 L141 606 Q141 628 139.5 641.5 Q138 655 134 663 Q130 671 122 674.5 Q114 678 101 679 L58 685 L58 724 L294 724 L294 685 L248 679 Q226 677 220 663.5 Q214 650 214 606 L214 124 Z M95 778 L78 809 L256 928 L311 873 L311 859 L95 778 Z " />
<glyph glyph-name="Icircumflex" unicode="&#xce;" horiz-adv-x="355" d="M214 124 Q214 100 215 85 Q216 70 219.5 62 Q223 54 230.5 51 Q238 48 251 46 L296 39 L296 0 L57 0 L57 39 L103 46 Q116 48 123.5 50.5 Q131 53 135 61 Q139 69 140 83.5 Q141 98 141 123 L141 606 Q141 628 139.5 641.5 Q138 655 134 663 Q130 671 122 674.5 Q114 678 101 679 L58 685 L58 724 L294 724 L294 685 L248 679 Q226 677 220 663.5 Q214 650 214 606 L214 124 Z M177 856 L44 775 L20 807 L145 924 L210 924 L335 806 L312 775 L177 856 Z " />
<glyph glyph-name="Idieresis" unicode="&#xcf;" horiz-adv-x="355" d="M214 124 Q214 100 215 85 Q216 70 219.5 62 Q223 54 230.5 51 Q238 48 251 46 L296 39 L296 0 L57 0 L57 39 L103 46 Q116 48 123.5 50.5 Q131 53 135 61 Q139 69 140 83.5 Q141 98 141 123 L141 606 Q141 628 139.5 641.5 Q138 655 134 663 Q130 671 122 674.5 Q114 678 101 679 L58 685 L58 724 L294 724 L294 685 L248 679 Q226 677 220 663.5 Q214 650 214 606 L214 124 Z M24 848 Q24 898 77 898 Q103 898 117 886 Q131 874 131 848 Q131 795 77 795 Q24 795 24 848 Z M225 848 Q225 898 278 898 Q304 898 318 886 Q332 874 332 848 Q332 795 278 795 Q225 795 225 848 Z " />
<glyph glyph-name="Eth" unicode="&#xd0;" horiz-adv-x="711" d="M333 724 Q423 724 486 700 Q549 676 588.5 630.5 Q628 585 646 520.5 Q664 456 664 375 Q664 295 645 226.5 Q626 158 582 107.5 Q538 57 466.5 28.5 Q395 0 290 0 L57 0 L57 39 L103 45 Q115 47 122.5 49.5 Q130 52 134 59 Q138 66 139.5 79.5 Q141 93 141 116 L141 328 L63 328 L63 378 L141 378 L141 605 Q141 649 134 663 Q127 677 101 680 L58 685 L58 724 L333 724 Z M306 51 Q388 51 442 76.5 Q496 102 528 146.5 Q560 191 573 250 Q586 309 586 376 Q586 528 524 600 Q462 672 344 672 L214 672 L214 378 L376 378 L376 328 L214 328 L214 51 L306 51 Z " />
<glyph glyph-name="Ntilde" unicode="&#xd1;" horiz-adv-x="766" d="M581 101 L584 101 L584 610 Q584 651 577.5 664.5 Q571 678 546 680 L504 685 L504 724 L723 724 L723 685 L678 680 Q654 677 647 665 Q640 653 640 615 L640 0 L554 0 L203 627 L199 627 L199 115 Q199 94 200 81 Q201 68 204.5 60 Q208 52 215 49 Q222 46 234 44 L276 39 L276 0 L59 0 L59 39 L105 44 Q118 46 125.5 49 Q133 52 137 60 Q141 68 142 83 Q143 98 143 122 L143 605 Q143 649 136 663.5 Q129 678 103 680 L60 685 L60 724 L233 724 L581 101 Z M301 886 Q314 886 340.5 880 Q367 874 394.5 867 Q422 860 445 854 Q468 848 474 848 Q482 848 491.5 854.5 Q501 861 519 885 L549 868 Q539 841 528.5 824 Q518 807 508.5 797.5 Q499 788 490 784.5 Q481 781 473 781 Q462 781 438 787 Q414 793 387 800.5 Q360 808 336 814 Q312 820 301 820 Q291 820 281.5 813 Q272 806 253 784 L225 800 Q246 847 263.5 866.5 Q281 886 301 886 Z " />
<glyph glyph-name="Ograve" unicode="&#xd2;" horiz-adv-x="687" d="M338 -11 Q257 -11 202 18 Q147 47 113.5 96.5 Q80 146 65 211.5 Q50 277 50 351 Q50 431 67.5 501.5 Q85 572 122 624.5 Q159 677 217 707 Q275 737 357 737 Q434 737 487.5 708 Q541 679 574 629.5 Q607 580 621.5 513.5 Q636 447 636 371 Q636 289 619.5 219 Q603 149 567 98 Q531 47 474.5 18 Q418 -11 338 -11 Z M342 42 Q386 42 425.5 58 Q465 74 495 111.5 Q525 149 542.5 210.5 Q560 272 560 364 Q560 454 544 515 Q528 576 500 613.5 Q472 651 433.5 667 Q395 683 350 683 Q305 683 264.5 667 Q224 651 193.5 613 Q163 575 144.5 513 Q126 451 126 358 Q126 265 143.5 204 Q161 143 190.5 107 Q220 71 259 56.5 Q298 42 342 42 Z M211 866 L211 879 L267 934 L443 813 L426 783 L211 866 Z " />
<glyph glyph-name="Oacute" unicode="&#xd3;" horiz-adv-x="687" d="M338 -11 Q257 -11 202 18 Q147 47 113.5 96.5 Q80 146 65 211.5 Q50 277 50 351 Q50 431 67.5 501.5 Q85 572 122 624.5 Q159 677 217 707 Q275 737 357 737 Q434 737 487.5 708 Q541 679 574 629.5 Q607 580 621.5 513.5 Q636 447 636 371 Q636 289 619.5 219 Q603 149 567 98 Q531 47 474.5 18 Q418 -11 338 -11 Z M342 42 Q386 42 425.5 58 Q465 74 495 111.5 Q525 149 542.5 210.5 Q560 272 560 364 Q560 454 544 515 Q528 576 500 613.5 Q472 651 433.5 667 Q395 683 350 683 Q305 683 264.5 667 Q224 651 193.5 613 Q163 575 144.5 513 Q126 451 126 358 Q126 265 143.5 204 Q161 143 190.5 107 Q220 71 259 56.5 Q298 42 342 42 Z M273 784 L256 815 L434 934 L489 879 L489 865 L273 784 Z " />
<glyph glyph-name="Ocircumflex" unicode="&#xd4;" horiz-adv-x="687" d="M338 -11 Q257 -11 202 18 Q147 47 113.5 96.5 Q80 146 65 211.5 Q50 277 50 351 Q50 431 67.5 501.5 Q85 572 122 624.5 Q159 677 217 707 Q275 737 357 737 Q434 737 487.5 708 Q541 679 574 629.5 Q607 580 621.5 513.5 Q636 447 636 371 Q636 289 619.5 219 Q603 149 567 98 Q531 47 474.5 18 Q418 -11 338 -11 Z M342 42 Q386 42 425.5 58 Q465 74 495 111.5 Q525 149 542.5 210.5 Q560 272 560 364 Q560 454 544 515 Q528 576 500 613.5 Q472 651 433.5 667 Q395 683 350 683 Q305 683 264.5 667 Q224 651 193.5 613 Q163 575 144.5 513 Q126 451 126 358 Q126 265 143.5 204 Q161 143 190.5 107 Q220 71 259 56.5 Q298 42 342 42 Z M351 862 L218 781 L194 813 L319 930 L384 930 L509 812 L486 781 L351 862 Z " />
<glyph glyph-name="Otilde" unicode="&#xd5;" horiz-adv-x="687" d="M338 -11 Q257 -11 202 18 Q147 47 113.5 96.5 Q80 146 65 211.5 Q50 277 50 351 Q50 431 67.5 501.5 Q85 572 122 624.5 Q159 677 217 707 Q275 737 357 737 Q434 737 487.5 708 Q541 679 574 629.5 Q607 580 621.5 513.5 Q636 447 636 371 Q636 289 619.5 219 Q603 149 567 98 Q531 47 474.5 18 Q418 -11 338 -11 Z M342 42 Q386 42 425.5 58 Q465 74 495 111.5 Q525 149 542.5 210.5 Q560 272 560 364 Q560 454 544 515 Q528 576 500 613.5 Q472 651 433.5 667 Q395 683 350 683 Q305 683 264.5 667 Q224 651 193.5 613 Q163 575 144.5 513 Q126 451 126 358 Q126 265 143.5 204 Q161 143 190.5 107 Q220 71 259 56.5 Q298 42 342 42 Z M274 886 Q287 886 313.5 880 Q340 874 367.5 867 Q395 860 418 854 Q441 848 447 848 Q455 848 464.5 854.5 Q474 861 492 885 L522 868 Q512 841 501.5 824 Q491 807 481.5 797.5 Q472 788 463 784.5 Q454 781 446 781 Q435 781 411 787 Q387 793 360 800.5 Q333 808 309 814 Q285 820 274 820 Q264 820 254.5 813 Q245 806 226 784 L198 800 Q219 847 236.5 866.5 Q254 886 274 886 Z " />
<glyph glyph-name="Odieresis" unicode="&#xd6;" horiz-adv-x="687" d="M338 -11 Q257 -11 202 18 Q147 47 113.5 96.5 Q80 146 65 211.5 Q50 277 50 351 Q50 431 67.5 501.5 Q85 572 122 624.5 Q159 677 217 707 Q275 737 357 737 Q434 737 487.5 708 Q541 679 574 629.5 Q607 580 621.5 513.5 Q636 447 636 371 Q636 289 619.5 219 Q603 149 567 98 Q531 47 474.5 18 Q418 -11 338 -11 Z M342 42 Q386 42 425.5 58 Q465 74 495 111.5 Q525 149 542.5 210.5 Q560 272 560 364 Q560 454 544 515 Q528 576 500 613.5 Q472 651 433.5 667 Q395 683 350 683 Q305 683 264.5 667 Q224 651 193.5 613 Q163 575 144.5 513 Q126 451 126 358 Q126 265 143.5 204 Q161 143 190.5 107 Q220 71 259 56.5 Q298 42 342 42 Z M200 854 Q200 904 253 904 Q279 904 293 892 Q307 880 307 854 Q307 801 253 801 Q200 801 200 854 Z M401 854 Q401 904 454 904 Q480 904 494 892 Q508 880 508 854 Q508 801 454 801 Q401 801 401 854 Z " />
<glyph glyph-name="multiply" unicode="&#xd7;" horiz-adv-x="600" d="M301 246 L161 107 L122 146 L262 286 L125 423 L164 463 L301 327 L437 463 L476 423 L340 285 L476 149 L437 110 L301 246 Z " />
<glyph glyph-name="Oslash" unicode="&#xd8;" horiz-adv-x="686" d="M338 -11 Q280 -11 236 4 Q192 19 159 45 L99 -42 L36 -42 L123 83 Q84 134 67 203 Q50 272 50 351 Q50 431 67.5 501.5 Q85 572 122 624.5 Q159 677 217 707 Q275 737 357 737 Q414 737 457.5 721 Q501 705 533 676 L596 767 L659 767 L569 637 Q604 586 620 517.5 Q636 449 636 371 Q636 289 619.5 219 Q603 149 567 98 Q531 47 474.5 18 Q418 -11 338 -11 Z M126 358 Q126 286 136.5 233.5 Q147 181 165 145 L494 620 Q466 654 429.5 668.5 Q393 683 350 683 Q305 683 264.5 667 Q224 651 193.5 613 Q163 575 144.5 513 Q126 451 126 358 Z M342 42 Q386 42 425.5 58 Q465 74 495 111.5 Q525 149 542.5 210.5 Q560 272 560 364 Q560 433 550.5 484 Q541 535 524 572 L196 99 Q225 67 262.5 54.5 Q300 42 342 42 Z " />
<glyph glyph-name="Ugrave" unicode="&#xd9;" horiz-adv-x="747" d="M564 620 Q564 639 562 650.5 Q560 662 555.5 668 Q551 674 542.5 676.5 Q534 679 521 681 L484 685 L484 724 L701 724 L701 685 L655 680 Q629 677 623.5 664.5 Q618 652 618 617 L618 244 Q618 177 599.5 129 Q581 81 548.5 50 Q516 19 471.5 4 Q427 -11 374 -11 Q294 -11 245.5 13 Q197 37 170.5 75.5 Q144 114 135.5 161.5 Q127 209 127 257 L127 607 Q127 630 125.5 643.5 Q124 657 118.5 664.5 Q113 672 103.5 675.5 Q94 679 78 681 L44 685 L44 724 L278 724 L278 685 L232 679 Q211 677 205.5 664 Q200 651 200 617 L200 260 Q200 152 240 97.5 Q280 43 377 43 Q464 43 514 92 Q564 141 564 256 L564 620 Z M222 860 L222 873 L278 928 L454 807 L437 777 L222 860 Z " />
<glyph glyph-name="Uacute" unicode="&#xda;" horiz-adv-x="747" d="M564 620 Q564 639 562 650.5 Q560 662 555.5 668 Q551 674 542.5 676.5 Q534 679 521 681 L484 685 L484 724 L701 724 L701 685 L655 680 Q629 677 623.5 664.5 Q618 652 618 617 L618 244 Q618 177 599.5 129 Q581 81 548.5 50 Q516 19 471.5 4 Q427 -11 374 -11 Q294 -11 245.5 13 Q197 37 170.5 75.5 Q144 114 135.5 161.5 Q127 209 127 257 L127 607 Q127 630 125.5 643.5 Q124 657 118.5 664.5 Q113 672 103.5 675.5 Q94 679 78 681 L44 685 L44 724 L278 724 L278 685 L232 679 Q211 677 205.5 664 Q200 651 200 617 L200 260 Q200 152 240 97.5 Q280 43 377 43 Q464 43 514 92 Q564 141 564 256 L564 620 Z M307 778 L290 809 L468 928 L523 873 L523 859 L307 778 Z " />
<glyph glyph-name="Ucircumflex" unicode="&#xdb;" horiz-adv-x="747" d="M564 620 Q564 639 562 650.5 Q560 662 555.5 668 Q551 674 542.5 676.5 Q534 679 521 681 L484 685 L484 724 L701 724 L701 685 L655 680 Q629 677 623.5 664.5 Q618 652 618 617 L618 244 Q618 177 599.5 129 Q581 81 548.5 50 Q516 19 471.5 4 Q427 -11 374 -11 Q294 -11 245.5 13 Q197 37 170.5 75.5 Q144 114 135.5 161.5 Q127 209 127 257 L127 607 Q127 630 125.5 643.5 Q124 657 118.5 664.5 Q113 672 103.5 675.5 Q94 679 78 681 L44 685 L44 724 L278 724 L278 685 L232 679 Q211 677 205.5 664 Q200 651 200 617 L200 260 Q200 152 240 97.5 Q280 43 377 43 Q464 43 514 92 Q564 141 564 256 L564 620 Z M380 856 L247 775 L223 807 L348 924 L413 924 L538 806 L515 775 L380 856 Z " />
<glyph glyph-name="Udieresis" unicode="&#xdc;" horiz-adv-x="747" d="M564 620 Q564 639 562 650.5 Q560 662 555.5 668 Q551 674 542.5 676.5 Q534 679 521 681 L484 685 L484 724 L701 724 L701 685 L655 680 Q629 677 623.5 664.5 Q618 652 618 617 L618 244 Q618 177 599.5 129 Q581 81 548.5 50 Q516 19 471.5 4 Q427 -11 374 -11 Q294 -11 245.5 13 Q197 37 170.5 75.5 Q144 114 135.5 161.5 Q127 209 127 257 L127 607 Q127 630 125.5 643.5 Q124 657 118.5 664.5 Q113 672 103.5 675.5 Q94 679 78 681 L44 685 L44 724 L278 724 L278 685 L232 679 Q211 677 205.5 664 Q200 651 200 617 L200 260 Q200 152 240 97.5 Q280 43 377 43 Q464 43 514 92 Q564 141 564 256 L564 620 Z M226 848 Q226 898 279 898 Q305 898 319 886 Q333 874 333 848 Q333 795 279 795 Q226 795 226 848 Z M427 848 Q427 898 480 898 Q506 898 520 886 Q534 874 534 848 Q534 795 480 795 Q427 795 427 848 Z " />
<glyph glyph-name="Yacute" unicode="&#xdd;" horiz-adv-x="615" d="M277 289 L99 604 Q87 627 78 640.5 Q69 654 61.5 662.5 Q54 671 46 674.5 Q38 678 27 681 L5 685 L5 724 L223 724 L223 685 L141 673 L321 352 L323 352 L495 674 L416 685 L416 724 L609 724 L609 685 L592 681 Q579 678 570 673.5 Q561 669 552.5 660 Q544 651 535 636.5 Q526 622 514 599 L350 294 L350 99 Q350 65 358.5 56.5 Q367 48 389 46 L451 39 L451 0 L176 0 L176 39 L238 46 Q260 48 268.5 56.5 Q277 65 277 99 L277 289 Z M245 778 L228 809 L406 928 L461 873 L461 859 L245 778 Z " />
<glyph glyph-name="Thorn" unicode="&#xde;" horiz-adv-x="618" d="M214 170 L214 124 Q214 100 215 85.5 Q216 71 219.5 62.5 Q223 54 230.5 51 Q238 48 251 46 L296 39 L296 0 L57 0 L57 39 L103 46 Q116 48 123.5 51 Q131 54 135 61.5 Q139 69 140 83.5 Q141 98 141 123 L141 606 Q141 628 139.5 641.5 Q138 655 133.5 663 Q129 671 121.5 674.5 Q114 678 101 679 L58 685 L58 724 L294 724 L294 685 L248 680 Q236 678 229 673.5 Q222 669 218.5 658.5 Q215 648 214.5 629.5 Q214 611 214 581 L334 581 Q387 581 431.5 571.5 Q476 562 509 539.5 Q542 517 560.5 480 Q579 443 579 389 Q579 286 510 228 Q441 170 304 170 L214 170 Z M314 222 Q412 222 457 265 Q502 308 502 383 Q502 461 457 495 Q412 529 321 529 L214 529 L214 222 L314 222 Z " />
<glyph glyph-name="germandbls" unicode="&#xdf;" horiz-adv-x="585" d="M119 466 L52 466 L56 504 L119 516 L119 551 Q119 646 170.5 697.5 Q222 749 313 749 Q351 749 383.5 739 Q416 729 440 708 Q464 687 478 654 Q492 621 492 575 Q492 535 480.5 505 Q469 475 452 454.5 Q435 434 415.5 421.5 Q396 409 379 403 L379 401 Q405 396 432.5 384.5 Q460 373 483 351.5 Q506 330 521 294.5 Q536 259 536 206 Q536 154 521 114 Q506 74 478.5 46 Q451 18 413 3.5 Q375 -11 330 -11 Q297 -11 268 -3.5 Q239 4 225 13 L237 59 Q251 51 270.5 44.5 Q290 38 324 38 Q387 38 424.5 83.5 Q462 129 462 210 Q462 289 419.5 328.5 Q377 368 305 368 L271 368 L271 418 Q315 418 344 430.5 Q373 443 390.5 464.5 Q408 486 415.5 514.5 Q423 543 423 575 Q423 613 412.5 637 Q402 661 386 675 Q370 689 350 694 Q330 699 310 699 Q267 699 242.5 683 Q218 667 206 641.5 Q194 616 191 583 Q188 550 188 517 L188 0 L42 0 L42 37 L73 41 Q89 43 98.5 46 Q108 49 112.5 57 Q117 65 118 79.5 Q119 94 119 120 L119 466 Z " />
<glyph glyph-name="agrave" unicode="&#xe0;" horiz-adv-x="515" d="M487 3 Q470 -5 455 -7.5 Q440 -10 425 -10 Q393 -10 371 7 Q349 24 345 67 Q327 33 287.5 11 Q248 -11 197 -11 Q119 -11 83 27 Q47 65 47 128 Q47 170 63 200.5 Q79 231 114.5 251 Q150 271 205 281.5 Q260 292 338 294 L338 348 Q338 417 314 444 Q290 471 233 471 Q194 471 162 463 Q130 455 90 439 L75 480 Q103 497 149.5 512.5 Q196 528 250 528 Q285 528 314 519.5 Q343 511 363.5 491 Q384 471 395.5 438.5 Q407 406 407 358 L407 89 Q407 59 414 48.5 Q421 38 448 36 L484 32 L487 3 Z M338 246 Q279 245 237.5 239 Q196 233 170 220 Q144 207 132.5 186 Q121 165 121 135 Q121 88 146.5 65.5 Q172 43 215 43 Q274 43 306 77 Q338 111 338 159 L338 246 Z M108 719 L108 732 L180 769 L312 592 L282 569 L108 719 Z " />
<glyph glyph-name="aacute" unicode="&#xe1;" horiz-adv-x="515" d="M487 3 Q470 -5 455 -7.5 Q440 -10 425 -10 Q393 -10 371 7 Q349 24 345 67 Q327 33 287.5 11 Q248 -11 197 -11 Q119 -11 83 27 Q47 65 47 128 Q47 170 63 200.5 Q79 231 114.5 251 Q150 271 205 281.5 Q260 292 338 294 L338 348 Q338 417 314 444 Q290 471 233 471 Q194 471 162 463 Q130 455 90 439 L75 480 Q103 497 149.5 512.5 Q196 528 250 528 Q285 528 314 519.5 Q343 511 363.5 491 Q384 471 395.5 438.5 Q407 406 407 358 L407 89 Q407 59 414 48.5 Q421 38 448 36 L484 32 L487 3 Z M338 246 Q279 245 237.5 239 Q196 233 170 220 Q144 207 132.5 186 Q121 165 121 135 Q121 88 146.5 65.5 Q172 43 215 43 Q274 43 306 77 Q338 111 338 159 L338 246 Z M203 568 L173 591 L307 770 L379 734 L379 721 L203 568 Z " />
<glyph glyph-name="acircumflex" unicode="&#xe2;" horiz-adv-x="515" d="M487 3 Q470 -5 455 -7.5 Q440 -10 425 -10 Q393 -10 371 7 Q349 24 345 67 Q327 33 287.5 11 Q248 -11 197 -11 Q119 -11 83 27 Q47 65 47 128 Q47 170 63 200.5 Q79 231 114.5 251 Q150 271 205 281.5 Q260 292 338 294 L338 348 Q338 417 314 444 Q290 471 233 471 Q194 471 162 463 Q130 455 90 439 L75 480 Q103 497 149.5 512.5 Q196 528 250 528 Q285 528 314 519.5 Q343 511 363.5 491 Q384 471 395.5 438.5 Q407 406 407 358 L407 89 Q407 59 414 48.5 Q421 38 448 36 L484 32 L487 3 Z M338 246 Q279 245 237.5 239 Q196 233 170 220 Q144 207 132.5 186 Q121 165 121 135 Q121 88 146.5 65.5 Q172 43 215 43 Q274 43 306 77 Q338 111 338 159 L338 246 Z M270 765 L388 596 L356 572 L236 692 L117 572 L85 596 L204 765 L270 765 Z " />
<glyph glyph-name="atilde" unicode="&#xe3;" horiz-adv-x="515" d="M487 3 Q470 -5 455 -7.5 Q440 -10 425 -10 Q393 -10 371 7 Q349 24 345 67 Q327 33 287.5 11 Q248 -11 197 -11 Q119 -11 83 27 Q47 65 47 128 Q47 170 63 200.5 Q79 231 114.5 251 Q150 271 205 281.5 Q260 292 338 294 L338 348 Q338 417 314 444 Q290 471 233 471 Q194 471 162 463 Q130 455 90 439 L75 480 Q103 497 149.5 512.5 Q196 528 250 528 Q285 528 314 519.5 Q343 511 363.5 491 Q384 471 395.5 438.5 Q407 406 407 358 L407 89 Q407 59 414 48.5 Q421 38 448 36 L484 32 L487 3 Z M338 246 Q279 245 237.5 239 Q196 233 170 220 Q144 207 132.5 186 Q121 165 121 135 Q121 88 146.5 65.5 Q172 43 215 43 Q274 43 306 77 Q338 111 338 159 L338 246 Z M154 728 Q167 728 193.5 722 Q220 716 247.5 709 Q275 702 297.5 696 Q320 690 326 690 Q335 690 344 696.5 Q353 703 371 727 L402 710 Q392 683 381.5 666 Q371 649 361 639.5 Q351 630 342 626.5 Q333 623 325 623 Q315 623 290.5 629 Q266 635 239 642 Q212 649 188 655 Q164 661 153 661 Q143 661 133.5 654 Q124 647 106 626 L77 641 Q98 688 116 708 Q134 728 154 728 Z " />
<glyph glyph-name="adieresis" unicode="&#xe4;" horiz-adv-x="515" d="M487 3 Q470 -5 455 -7.5 Q440 -10 425 -10 Q393 -10 371 7 Q349 24 345 67 Q327 33 287.5 11 Q248 -11 197 -11 Q119 -11 83 27 Q47 65 47 128 Q47 170 63 200.5 Q79 231 114.5 251 Q150 271 205 281.5 Q260 292 338 294 L338 348 Q338 417 314 444 Q290 471 233 471 Q194 471 162 463 Q130 455 90 439 L75 480 Q103 497 149.5 512.5 Q196 528 250 528 Q285 528 314 519.5 Q343 511 363.5 491 Q384 471 395.5 438.5 Q407 406 407 358 L407 89 Q407 59 414 48.5 Q421 38 448 36 L484 32 L487 3 Z M338 246 Q279 245 237.5 239 Q196 233 170 220 Q144 207 132.5 186 Q121 165 121 135 Q121 88 146.5 65.5 Q172 43 215 43 Q274 43 306 77 Q338 111 338 159 L338 246 Z M81 679 Q81 705 95 717 Q109 729 134 729 Q189 729 189 679 Q189 626 134 626 Q109 626 95 639 Q81 652 81 679 Z M282 679 Q282 705 296 717 Q310 729 335 729 Q390 729 390 679 Q390 626 335 626 Q310 626 296 639 Q282 652 282 679 Z " />
<glyph glyph-name="aring" unicode="&#xe5;" horiz-adv-x="515" d="M487 3 Q470 -5 455 -7.5 Q440 -10 425 -10 Q393 -10 371 7 Q349 24 345 67 Q327 33 287.5 11 Q248 -11 197 -11 Q119 -11 83 27 Q47 65 47 128 Q47 170 63 200.5 Q79 231 114.5 251 Q150 271 205 281.5 Q260 292 338 294 L338 348 Q338 417 314 444 Q290 471 233 471 Q194 471 162 463 Q130 455 90 439 L75 480 Q103 497 149.5 512.5 Q196 528 250 528 Q285 528 314 519.5 Q343 511 363.5 491 Q384 471 395.5 438.5 Q407 406 407 358 L407 89 Q407 59 414 48.5 Q421 38 448 36 L484 32 L487 3 Z M338 246 Q279 245 237.5 239 Q196 233 170 220 Q144 207 132.5 186 Q121 165 121 135 Q121 88 146.5 65.5 Q172 43 215 43 Q274 43 306 77 Q338 111 338 159 L338 246 Z M344 677 Q344 646 333.5 626 Q323 606 306.5 594.5 Q290 583 271.5 579 Q253 575 236 575 Q216 575 196.5 580.5 Q177 586 162 598 Q147 610 137.5 630 Q128 650 128 678 Q128 710 138.5 730 Q149 750 165 761.5 Q181 773 200 777.5 Q219 782 236 782 Q284 782 314 755.5 Q344 729 344 677 Z M236 616 Q262 616 276.5 632 Q291 648 291 678 Q291 717 274 729 Q257 741 236 741 Q227 741 217 739 Q207 737 199 730 Q191 723 186 710.5 Q181 698 181 678 Q181 649 194.5 632.5 Q208 616 236 616 Z " />
<glyph glyph-name="ae" unicode="&#xe6;" horiz-adv-x="794" d="M743 46 Q705 19 662 4 Q619 -11 566 -11 Q504 -11 456 12 Q408 35 375 89 Q365 71 349.5 53 Q334 35 313 21 Q292 7 264.5 -2 Q237 -11 202 -11 Q121 -11 85.5 27 Q50 65 50 128 Q50 170 66 200.5 Q82 231 117 251 Q152 271 207.5 281.5 Q263 292 341 294 L341 348 Q341 417 317 444 Q293 471 236 471 Q197 471 164.5 463 Q132 455 93 439 L78 480 Q106 497 152.5 512.5 Q199 528 253 528 Q303 528 339.5 509.5 Q376 491 394 444 Q424 490 468 509 Q512 528 561 528 Q603 528 638 515 Q673 502 698.5 474 Q724 446 738 402 Q752 358 752 297 Q752 281 752 268.5 Q752 256 750 246 L409 246 Q411 157 453 102.5 Q495 48 578 48 Q623 48 654 56.5 Q685 65 722 85 L743 46 Z M680 294 Q684 384 650.5 431.5 Q617 479 554 479 Q495 479 454.5 435.5 Q414 392 409 294 L680 294 Z M341 246 Q223 245 173 220 Q123 195 123 135 Q123 88 148.5 65.5 Q174 43 217 43 Q276 43 308.5 77 Q341 111 341 159 L341 246 Z " />
<glyph glyph-name="ccedilla" unicode="&#xe7;" horiz-adv-x="488" d="M184 -168 Q195 -172 210 -174 Q225 -176 237 -176 Q297 -176 297 -125 Q297 -102 277 -88.5 Q257 -75 222 -71 L239 -8 Q144 3 95 72 Q46 141 46 253 Q46 323 64 374.5 Q82 426 115 460 Q148 494 193.5 511 Q239 528 294 528 Q330 528 373 518 Q416 508 444 491 L437 349 L390 353 L377 419 Q372 448 354.5 462 Q337 476 290 476 Q255 476 224 464.5 Q193 453 170 428 Q147 403 133.5 362.5 Q120 322 120 263 Q120 202 134 160.5 Q148 119 172 93.5 Q196 68 228 57.5 Q260 47 296 47 Q336 47 367 57 Q398 67 422 81 L445 44 Q422 26 381 8.5 Q340 -9 285 -11 L278 -37 Q293 -41 308 -47 Q323 -53 335 -63.5 Q347 -74 355 -89.5 Q363 -105 363 -126 Q363 -171 329.5 -197.5 Q296 -224 242 -224 Q219 -224 200 -219.5 Q181 -215 171 -210 L184 -168 Z " />
<glyph glyph-name="egrave" unicode="&#xe8;" horiz-adv-x="505" d="M453 46 Q415 19 372.5 4 Q330 -11 279 -11 Q219 -11 175.5 9 Q132 29 103 65 Q74 101 60 150 Q46 199 46 256 Q46 327 64 378.5 Q82 430 113 463 Q144 496 185.5 512 Q227 528 273 528 Q314 528 349 515 Q384 502 409.5 474 Q435 446 449.5 402 Q464 358 464 297 Q464 282 464 269 Q464 256 462 246 L120 246 Q121 202 132 165.5 Q143 129 164 103 Q185 77 216.5 62.5 Q248 48 290 48 Q334 48 364.5 56.5 Q395 65 432 85 L453 46 Z M390 294 Q394 384 361.5 431.5 Q329 479 269 479 Q203 479 164.5 433.5 Q126 388 121 294 L390 294 Z M132 719 L132 732 L204 769 L336 592 L306 569 L132 719 Z " />
<glyph glyph-name="eacute" unicode="&#xe9;" horiz-adv-x="505" d="M453 46 Q415 19 372.5 4 Q330 -11 279 -11 Q219 -11 175.5 9 Q132 29 103 65 Q74 101 60 150 Q46 199 46 256 Q46 327 64 378.5 Q82 430 113 463 Q144 496 185.5 512 Q227 528 273 528 Q314 528 349 515 Q384 502 409.5 474 Q435 446 449.5 402 Q464 358 464 297 Q464 282 464 269 Q464 256 462 246 L120 246 Q121 202 132 165.5 Q143 129 164 103 Q185 77 216.5 62.5 Q248 48 290 48 Q334 48 364.5 56.5 Q395 65 432 85 L453 46 Z M390 294 Q394 384 361.5 431.5 Q329 479 269 479 Q203 479 164.5 433.5 Q126 388 121 294 L390 294 Z M224 568 L194 591 L328 770 L400 734 L400 721 L224 568 Z " />
<glyph glyph-name="ecircumflex" unicode="&#xea;" horiz-adv-x="505" d="M453 46 Q415 19 372.5 4 Q330 -11 279 -11 Q219 -11 175.5 9 Q132 29 103 65 Q74 101 60 150 Q46 199 46 256 Q46 327 64 378.5 Q82 430 113 463 Q144 496 185.5 512 Q227 528 273 528 Q314 528 349 515 Q384 502 409.5 474 Q435 446 449.5 402 Q464 358 464 297 Q464 282 464 269 Q464 256 462 246 L120 246 Q121 202 132 165.5 Q143 129 164 103 Q185 77 216.5 62.5 Q248 48 290 48 Q334 48 364.5 56.5 Q395 65 432 85 L453 46 Z M390 294 Q394 384 361.5 431.5 Q329 479 269 479 Q203 479 164.5 433.5 Q126 388 121 294 L390 294 Z M301 765 L419 596 L387 572 L267 692 L148 572 L116 596 L235 765 L301 765 Z " />
<glyph glyph-name="edieresis" unicode="&#xeb;" horiz-adv-x="505" d="M453 46 Q415 19 372.5 4 Q330 -11 279 -11 Q219 -11 175.5 9 Q132 29 103 65 Q74 101 60 150 Q46 199 46 256 Q46 327 64 378.5 Q82 430 113 463 Q144 496 185.5 512 Q227 528 273 528 Q314 528 349 515 Q384 502 409.5 474 Q435 446 449.5 402 Q464 358 464 297 Q464 282 464 269 Q464 256 462 246 L120 246 Q121 202 132 165.5 Q143 129 164 103 Q185 77 216.5 62.5 Q248 48 290 48 Q334 48 364.5 56.5 Q395 65 432 85 L453 46 Z M390 294 Q394 384 361.5 431.5 Q329 479 269 479 Q203 479 164.5 433.5 Q126 388 121 294 L390 294 Z M106 679 Q106 705 120 717 Q134 729 159 729 Q214 729 214 679 Q214 626 159 626 Q134 626 120 639 Q106 652 106 679 Z M307 679 Q307 705 321 717 Q335 729 360 729 Q415 729 415 679 Q415 626 360 626 Q335 626 321 639 Q307 652 307 679 Z " />
<glyph glyph-name="igrave" unicode="&#xec;" horiz-adv-x="311" d="M14 719 L14 732 L86 769 L218 592 L188 569 L14 719 Z M195 120 Q195 96 196 81.5 Q197 67 200.5 58.5 Q204 50 210.5 47 Q217 44 229 42 L271 36 L271 0 L48 0 L48 36 L87 42 Q101 44 108.5 47.5 Q116 51 120 59.5 Q124 68 125 82 Q126 96 126 120 L126 403 Q126 438 115.5 450.5 Q105 463 78 467 L42 473 L47 507 L179 523 L195 515 L195 120 Z " />
<glyph glyph-name="iacute" unicode="&#xed;" horiz-adv-x="311" d="M81 568 L51 591 L185 770 L257 734 L257 721 L81 568 Z M195 120 Q195 96 196 81.5 Q197 67 200.5 58.5 Q204 50 210.5 47 Q217 44 229 42 L271 36 L271 0 L48 0 L48 36 L87 42 Q101 44 108.5 47.5 Q116 51 120 59.5 Q124 68 125 82 Q126 96 126 120 L126 403 Q126 438 115.5 450.5 Q105 463 78 467 L42 473 L47 507 L179 523 L195 515 L195 120 Z " />
<glyph glyph-name="icircumflex" unicode="&#xee;" horiz-adv-x="311" d="M195 120 Q195 96 196 81.5 Q197 67 200.5 58.5 Q204 50 210.5 47 Q217 44 229 42 L271 36 L271 0 L48 0 L48 36 L87 42 Q101 44 108.5 47.5 Q116 51 120 59.5 Q124 68 125 82 Q126 96 126 120 L126 403 Q126 438 115.5 450.5 Q105 463 78 467 L42 473 L47 507 L179 523 L195 515 L195 120 Z M169 765 L287 596 L255 572 L135 692 L16 572 L-16 596 L103 765 L169 765 Z " />
<glyph glyph-name="idieresis" unicode="&#xef;" horiz-adv-x="311" d="M-13 679 Q-13 729 40 729 Q66 729 80 717 Q94 705 94 679 Q94 626 40 626 Q-13 626 -13 679 Z M173 679 Q173 729 226 729 Q252 729 266 717 Q280 705 280 679 Q280 626 226 626 Q173 626 173 679 Z M196 120 Q196 96 197 81.5 Q198 67 201.5 58.5 Q205 50 211.5 47 Q218 44 230 42 L272 36 L272 0 L49 0 L49 36 L88 42 Q102 44 109.5 47.5 Q117 51 121 59.5 Q125 68 126 82 Q127 96 127 120 L127 403 Q127 438 116.5 450.5 Q106 463 79 467 L43 473 L48 507 L180 523 L196 515 L196 120 Z " />
<glyph glyph-name="eth" unicode="&#xf0;" horiz-adv-x="524" d="M385 740 L408 702 L322 650 Q400 587 438.5 496 Q477 405 477 288 Q477 225 464 170.5 Q451 116 424 75.5 Q397 35 354.5 12 Q312 -11 253 -11 Q205 -11 167 7 Q129 25 102 57.5 Q75 90 60.5 136 Q46 182 46 238 Q46 317 68.5 366 Q91 415 123 442.5 Q155 470 190 479.5 Q225 489 249 489 Q291 489 323.5 477.5 Q356 466 382 447 Q366 486 341 531.5 Q316 577 268 619 L168 558 L144 597 L229 648 Q208 661 185 672.5 Q162 684 134 694 L150 736 Q186 725 220.5 709.5 Q255 694 282 678 L385 740 Z M120 248 Q120 148 158 93.5 Q196 39 259 39 Q301 39 329 58 Q357 77 374 108.5 Q391 140 398.5 180 Q406 220 406 262 Q406 308 401.5 338.5 Q397 369 392 394 Q375 409 339.5 424 Q304 439 262 439 Q226 439 199 423.5 Q172 408 154.5 382 Q137 356 128.5 321.5 Q120 287 120 248 Z " />
<glyph glyph-name="ntilde" unicode="&#xf1;" horiz-adv-x="634" d="M195 121 Q195 97 195.5 82 Q196 67 199.5 59 Q203 51 210 47.5 Q217 44 230 42 L266 36 L266 0 L48 0 L48 36 L86 42 Q100 44 107.5 47.5 Q115 51 119.5 59 Q124 67 125 81.5 Q126 96 126 121 L126 398 Q126 433 116.5 448 Q107 463 82 467 L41 473 L46 508 L165 523 L180 517 L189 447 Q236 489 279.5 508.5 Q323 528 374 528 Q406 528 434 519.5 Q462 511 483 490.5 Q504 470 516 435 Q528 400 528 346 L528 121 Q528 97 529 82.5 Q530 68 534 59.5 Q538 51 545 47.5 Q552 44 565 42 L607 36 L607 0 L389 0 L389 36 L426 42 Q438 44 444.5 47 Q451 50 454 58 Q457 66 458 80.5 Q459 95 459 118 L459 339 Q459 405 433 436 Q407 467 353 467 Q313 467 273 451 Q233 435 195 407 L195 121 Z M229 728 Q242 728 268.5 722 Q295 716 322.5 709 Q350 702 372.5 696 Q395 690 401 690 Q410 690 419 696.5 Q428 703 446 727 L477 710 Q467 683 456.5 666 Q446 649 436 639.5 Q426 630 417 626.5 Q408 623 400 623 Q390 623 365.5 629 Q341 635 314 642 Q287 649 263 655 Q239 661 228 661 Q218 661 208.5 654 Q199 647 181 626 L152 641 Q173 688 191 708 Q209 728 229 728 Z " />
<glyph glyph-name="ograve" unicode="&#xf2;" horiz-adv-x="547" d="M270 -11 Q213 -11 170.5 8 Q128 27 100.5 62.5 Q73 98 59.5 147.5 Q46 197 46 258 Q46 385 107.5 456.5 Q169 528 278 528 Q337 528 379 508.5 Q421 489 448 453.5 Q475 418 487.5 368.5 Q500 319 500 258 Q500 197 485 147 Q470 97 441 62 Q412 27 369 8 Q326 -11 270 -11 Z M273 39 Q343 39 384.5 92 Q426 145 426 260 Q426 369 387 423.5 Q348 478 276 478 Q198 478 159 421.5 Q120 365 120 259 Q120 147 160.5 93 Q201 39 273 39 Z M145 719 L145 732 L217 769 L349 592 L319 569 L145 719 Z " />
<glyph glyph-name="oacute" unicode="&#xf3;" horiz-adv-x="547" d="M270 -11 Q213 -11 170.5 8 Q128 27 100.5 62.5 Q73 98 59.5 147.5 Q46 197 46 258 Q46 385 107.5 456.5 Q169 528 278 528 Q337 528 379 508.5 Q421 489 448 453.5 Q475 418 487.5 368.5 Q500 319 500 258 Q500 197 485 147 Q470 97 441 62 Q412 27 369 8 Q326 -11 270 -11 Z M273 39 Q343 39 384.5 92 Q426 145 426 260 Q426 369 387 423.5 Q348 478 276 478 Q198 478 159 421.5 Q120 365 120 259 Q120 147 160.5 93 Q201 39 273 39 Z M236 568 L206 591 L340 770 L412 734 L412 721 L236 568 Z " />
<glyph glyph-name="ocircumflex" unicode="&#xf4;" horiz-adv-x="547" d="M270 -11 Q213 -11 170.5 8 Q128 27 100.5 62.5 Q73 98 59.5 147.5 Q46 197 46 258 Q46 385 107.5 456.5 Q169 528 278 528 Q337 528 379 508.5 Q421 489 448 453.5 Q475 418 487.5 368.5 Q500 319 500 258 Q500 197 485 147 Q470 97 441 62 Q412 27 369 8 Q326 -11 270 -11 Z M273 39 Q343 39 384.5 92 Q426 145 426 260 Q426 369 387 423.5 Q348 478 276 478 Q198 478 159 421.5 Q120 365 120 259 Q120 147 160.5 93 Q201 39 273 39 Z M309 765 L427 596 L395 572 L275 692 L156 572 L124 596 L243 765 L309 765 Z " />
<glyph glyph-name="otilde" unicode="&#xf5;" horiz-adv-x="547" d="M270 -11 Q213 -11 170.5 8 Q128 27 100.5 62.5 Q73 98 59.5 147.5 Q46 197 46 258 Q46 385 107.5 456.5 Q169 528 278 528 Q337 528 379 508.5 Q421 489 448 453.5 Q475 418 487.5 368.5 Q500 319 500 258 Q500 197 485 147 Q470 97 441 62 Q412 27 369 8 Q326 -11 270 -11 Z M273 39 Q343 39 384.5 92 Q426 145 426 260 Q426 369 387 423.5 Q348 478 276 478 Q198 478 159 421.5 Q120 365 120 259 Q120 147 160.5 93 Q201 39 273 39 Z M191 728 Q204 728 230.5 722 Q257 716 284.5 709 Q312 702 334.5 696 Q357 690 363 690 Q372 690 381 696.5 Q390 703 408 727 L439 710 Q429 683 418.5 666 Q408 649 398 639.5 Q388 630 379 626.5 Q370 623 362 623 Q352 623 327.5 629 Q303 635 276 642 Q249 649 225 655 Q201 661 190 661 Q180 661 170.5 654 Q161 647 143 626 L114 641 Q135 688 153 708 Q171 728 191 728 Z " />
<glyph glyph-name="odieresis" unicode="&#xf6;" horiz-adv-x="547" d="M270 -11 Q213 -11 170.5 8 Q128 27 100.5 62.5 Q73 98 59.5 147.5 Q46 197 46 258 Q46 385 107.5 456.5 Q169 528 278 528 Q337 528 379 508.5 Q421 489 448 453.5 Q475 418 487.5 368.5 Q500 319 500 258 Q500 197 485 147 Q470 97 441 62 Q412 27 369 8 Q326 -11 270 -11 Z M273 39 Q343 39 384.5 92 Q426 145 426 260 Q426 369 387 423.5 Q348 478 276 478 Q198 478 159 421.5 Q120 365 120 259 Q120 147 160.5 93 Q201 39 273 39 Z M120 679 Q120 705 134 717 Q148 729 173 729 Q228 729 228 679 Q228 626 173 626 Q148 626 134 639 Q120 652 120 679 Z M321 679 Q321 705 335 717 Q349 729 374 729 Q429 729 429 679 Q429 626 374 626 Q349 626 335 639 Q321 652 321 679 Z " />
<glyph glyph-name="divide" unicode="&#xf7;" horiz-adv-x="600" d="M106 264 L106 325 L494 325 L494 264 L106 264 Z M247 463 Q247 486 262 499.5 Q277 513 301 513 Q323 513 337.5 499.5 Q352 486 352 463 Q352 441 337.5 426 Q323 411 301 411 Q277 411 262 426 Q247 441 247 463 Z M247 122 Q247 145 262 158.5 Q277 172 301 172 Q323 172 337.5 158.5 Q352 145 352 122 Q352 98 337.5 84 Q323 70 301 70 Q277 70 262 84 Q247 98 247 122 Z " />
<glyph glyph-name="oslash" unicode="&#xf8;" horiz-adv-x="546" d="M270 -11 Q192 -11 142 24 L84 -56 L22 -56 L104 58 Q75 93 60.5 144 Q46 195 46 258 Q46 385 107.5 456.5 Q169 528 278 528 Q321 528 355 517.5 Q389 507 415 487 L478 574 L540 574 L450 450 Q476 415 488 366.5 Q500 318 500 258 Q500 197 485 147 Q470 97 441 62 Q412 27 369 8 Q326 -11 270 -11 Z M120 259 Q120 169 147 116 L377 435 Q339 478 276 478 Q198 478 159 421.5 Q120 365 120 259 Z M273 39 Q343 39 384.5 92 Q426 145 426 260 Q426 337 405 388 L178 73 Q215 39 273 39 Z " />
<glyph glyph-name="ugrave" unicode="&#xf9;" horiz-adv-x="629" d="M515 111 Q515 75 523.5 62 Q532 49 559 44 L593 38 L592 2 L491 -4 L465 -1 L452 72 Q414 37 369.5 13 Q325 -11 271 -11 Q241 -11 214 -3 Q187 5 166 25 Q145 45 133 79.5 Q121 114 121 167 L121 402 Q121 436 111 449.5 Q101 463 73 468 L37 473 L42 508 L175 523 L190 516 L190 176 Q190 119 211.5 84.5 Q233 50 288 50 Q330 50 369 68 Q408 86 446 116 L446 402 Q446 436 435.5 449.5 Q425 463 397 468 L361 473 L366 508 L499 523 L515 516 L515 111 Z M162 719 L162 732 L234 769 L366 592 L336 569 L162 719 Z " />
<glyph glyph-name="uacute" unicode="&#xfa;" horiz-adv-x="629" d="M515 111 Q515 75 523.5 62 Q532 49 559 44 L593 38 L592 2 L491 -4 L465 -1 L452 72 Q414 37 369.5 13 Q325 -11 271 -11 Q241 -11 214 -3 Q187 5 166 25 Q145 45 133 79.5 Q121 114 121 167 L121 402 Q121 436 111 449.5 Q101 463 73 468 L37 473 L42 508 L175 523 L190 516 L190 176 Q190 119 211.5 84.5 Q233 50 288 50 Q330 50 369 68 Q408 86 446 116 L446 402 Q446 436 435.5 449.5 Q425 463 397 468 L361 473 L366 508 L499 523 L515 516 L515 111 Z M263 568 L233 591 L367 770 L439 734 L439 721 L263 568 Z " />
<glyph glyph-name="ucircumflex" unicode="&#xfb;" horiz-adv-x="629" d="M515 111 Q515 75 523.5 62 Q532 49 559 44 L593 38 L592 2 L491 -4 L465 -1 L452 72 Q414 37 369.5 13 Q325 -11 271 -11 Q241 -11 214 -3 Q187 5 166 25 Q145 45 133 79.5 Q121 114 121 167 L121 402 Q121 436 111 449.5 Q101 463 73 468 L37 473 L42 508 L175 523 L190 516 L190 176 Q190 119 211.5 84.5 Q233 50 288 50 Q330 50 369 68 Q408 86 446 116 L446 402 Q446 436 435.5 449.5 Q425 463 397 468 L361 473 L366 508 L499 523 L515 516 L515 111 Z M334 765 L452 596 L420 572 L300 692 L181 572 L149 596 L268 765 L334 765 Z " />
<glyph glyph-name="udieresis" unicode="&#xfc;" horiz-adv-x="629" d="M515 111 Q515 75 523.5 62 Q532 49 559 44 L593 38 L592 2 L491 -4 L465 -1 L452 72 Q414 37 369.5 13 Q325 -11 271 -11 Q241 -11 214 -3 Q187 5 166 25 Q145 45 133 79.5 Q121 114 121 167 L121 402 Q121 436 111 449.5 Q101 463 73 468 L37 473 L42 508 L175 523 L190 516 L190 176 Q190 119 211.5 84.5 Q233 50 288 50 Q330 50 369 68 Q408 86 446 116 L446 402 Q446 436 435.5 449.5 Q425 463 397 468 L361 473 L366 508 L499 523 L515 516 L515 111 Z M148 679 Q148 705 162 717 Q176 729 201 729 Q256 729 256 679 Q256 626 201 626 Q176 626 162 639 Q148 652 148 679 Z M349 679 Q349 705 363 717 Q377 729 402 729 Q457 729 457 679 Q457 626 402 626 Q377 626 363 639 Q349 652 349 679 Z " />
<glyph glyph-name="yacute" unicode="&#xfd;" horiz-adv-x="529" d="M286 26 Q262 -32 242.5 -73.5 Q223 -115 203 -141.5 Q183 -168 159.5 -180.5 Q136 -193 104 -193 Q76 -193 50.5 -184 Q25 -175 13 -164 L31 -124 Q46 -130 64 -135.5 Q82 -141 99 -141 Q121 -141 138 -131 Q155 -121 170.5 -100 Q186 -79 201.5 -46 Q217 -13 236 34 L77 420 Q65 449 55.5 458.5 Q46 468 32 472 L6 478 L14 516 L206 516 L206 477 L133 468 L272 117 L273 117 L415 468 L339 477 L345 516 L523 516 L523 478 L504 476 Q492 474 484.5 471 Q477 468 471 460.5 Q465 453 459 440 Q453 427 444 406 L286 26 Z M246 568 L216 591 L350 770 L422 734 L422 721 L246 568 Z " />
<glyph glyph-name="thorn" unicode="&#xfe;" horiz-adv-x="574" d="M117 627 Q117 658 108.5 671 Q100 684 71 688 L34 693 L40 728 L165 745 L182 733 L182 458 Q209 486 251.5 507 Q294 528 344 528 Q386 528 421.5 513.5 Q457 499 483 467.5 Q509 436 523.5 386.5 Q538 337 538 268 Q538 195 522.5 142 Q507 89 478.5 55 Q450 21 411.5 5 Q373 -11 326 -11 Q285 -11 248 3.5 Q211 18 186 44 L186 -62 Q186 -87 187 -101.5 Q188 -116 192 -124.5 Q196 -133 202.5 -136 Q209 -139 221 -140 L284 -148 L284 -183 L46 -183 L46 -147 L77 -142 Q90 -140 98 -136.5 Q106 -133 110 -125 Q114 -117 115.5 -102 Q117 -87 117 -62 L117 627 Z M186 93 Q214 70 247 57 Q280 44 318 44 Q349 44 375.5 55 Q402 66 421.5 92 Q441 118 452.5 160.5 Q464 203 464 267 Q464 374 427.5 422.5 Q391 471 330 471 Q298 471 264.5 460 Q231 449 186 415 L186 93 Z " />
<glyph glyph-name="ydieresis" unicode="&#xff;" horiz-adv-x="529" d="M286 26 Q262 -32 242.5 -73.5 Q223 -115 203 -141.5 Q183 -168 159.5 -180.5 Q136 -193 104 -193 Q76 -193 50.5 -184 Q25 -175 13 -164 L31 -124 Q46 -130 64 -135.5 Q82 -141 99 -141 Q121 -141 138 -131 Q155 -121 170.5 -100 Q186 -79 201.5 -46 Q217 -13 236 34 L77 420 Q65 449 55.5 458.5 Q46 468 32 472 L6 478 L14 516 L206 516 L206 477 L133 468 L272 117 L273 117 L415 468 L339 477 L345 516 L523 516 L523 478 L504 476 Q492 474 484.5 471 Q477 468 471 460.5 Q465 453 459 440 Q453 427 444 406 L286 26 Z M118 679 Q118 705 132 717 Q146 729 171 729 Q226 729 226 679 Q226 626 171 626 Q146 626 132 639 Q118 652 118 679 Z M319 679 Q319 705 333 717 Q347 729 372 729 Q427 729 427 679 Q427 626 372 626 Q347 626 333 639 Q319 652 319 679 Z " />
<glyph glyph-name="Amacron" unicode="&#x100;" horiz-adv-x="684" d="M382 724 L577 127 Q585 102 591.5 87 Q598 72 604.5 63 Q611 54 619 49.5 Q627 45 639 43 L667 39 L667 0 L441 0 L441 39 L522 50 L461 247 L196 247 L133 50 L215 39 L215 0 L9 0 L9 39 L39 44 Q64 49 74 65 Q84 81 96 117 L297 724 L382 724 Z M329 657 L328 657 L212 297 L444 297 L329 657 Z M190 876 L483 876 L483 815 L190 815 L190 876 Z " />
<glyph glyph-name="amacron" unicode="&#x101;" horiz-adv-x="515" d="M487 3 Q470 -5 455 -7.5 Q440 -10 425 -10 Q393 -10 371 7 Q349 24 345 67 Q327 33 287.5 11 Q248 -11 197 -11 Q119 -11 83 27 Q47 65 47 128 Q47 170 63 200.5 Q79 231 114.5 251 Q150 271 205 281.5 Q260 292 338 294 L338 348 Q338 417 314 444 Q290 471 233 471 Q194 471 162 463 Q130 455 90 439 L75 480 Q103 497 149.5 512.5 Q196 528 250 528 Q285 528 314 519.5 Q343 511 363.5 491 Q384 471 395.5 438.5 Q407 406 407 358 L407 89 Q407 59 414 48.5 Q421 38 448 36 L484 32 L487 3 Z M338 246 Q279 245 237.5 239 Q196 233 170 220 Q144 207 132.5 186 Q121 165 121 135 Q121 88 146.5 65.5 Q172 43 215 43 Q274 43 306 77 Q338 111 338 159 L338 246 Z M93 690 L378 690 L378 630 L93 630 L93 690 Z " />
<glyph glyph-name="Abreve" unicode="&#x102;" horiz-adv-x="684" d="M382 724 L577 127 Q585 102 591.5 87 Q598 72 604.5 63 Q611 54 619 49.5 Q627 45 639 43 L667 39 L667 0 L441 0 L441 39 L522 50 L461 247 L196 247 L133 50 L215 39 L215 0 L9 0 L9 39 L39 44 Q64 49 74 65 Q84 81 96 117 L297 724 L382 724 Z M329 657 L328 657 L212 297 L444 297 L329 657 Z M496 911 Q481 851 445 816 Q409 781 342 781 Q275 781 241.5 818 Q208 855 194 911 L230 928 Q246 892 273.5 870 Q301 848 344 848 Q424 848 460 927 L496 911 Z " />
<glyph glyph-name="abreve" unicode="&#x103;" horiz-adv-x="515" d="M487 3 Q470 -5 455 -7.5 Q440 -10 425 -10 Q393 -10 371 7 Q349 24 345 67 Q327 33 287.5 11 Q248 -11 197 -11 Q119 -11 83 27 Q47 65 47 128 Q47 170 63 200.5 Q79 231 114.5 251 Q150 271 205 281.5 Q260 292 338 294 L338 348 Q338 417 314 444 Q290 471 233 471 Q194 471 162 463 Q130 455 90 439 L75 480 Q103 497 149.5 512.5 Q196 528 250 528 Q285 528 314 519.5 Q343 511 363.5 491 Q384 471 395.5 438.5 Q407 406 407 358 L407 89 Q407 59 414 48.5 Q421 38 448 36 L484 32 L487 3 Z M338 246 Q279 245 237.5 239 Q196 233 170 220 Q144 207 132.5 186 Q121 165 121 135 Q121 88 146.5 65.5 Q172 43 215 43 Q274 43 306 77 Q338 111 338 159 L338 246 Z M239 654 Q277 654 303 678.5 Q329 703 352 756 L389 742 Q373 670 333.5 628.5 Q294 587 239 587 Q176 587 140 627 Q104 667 89 742 L126 757 Q146 703 173.5 678.5 Q201 654 239 654 Z " />
<glyph glyph-name="Aogonek" unicode="&#x104;" horiz-adv-x="684" d="M639 -197 Q625 -205 602 -215 Q579 -225 547 -225 Q531 -225 513.5 -220.5 Q496 -216 481 -205.5 Q466 -195 456.5 -177.5 Q447 -160 447 -134 Q447 -95 472 -61.5 Q497 -28 541 0 L439 0 L439 39 L522 50 L463 240 L194 240 L135 50 L217 39 L217 0 L9 0 L9 39 L39 44 Q66 49 75.5 66 Q85 83 96 117 L296 724 L382 724 L577 127 Q585 102 591.5 87 Q598 72 604.5 63 Q611 54 619 49.5 Q627 45 639 43 L667 39 L667 0 L614 0 Q597 -11 579.5 -23.5 Q562 -36 548 -50.5 Q534 -65 525 -82 Q516 -99 516 -119 Q516 -141 529.5 -154.5 Q543 -168 571 -170 Q597 -171 628 -161 L639 -197 Z M328 661 L327 661 L208 290 L446 290 L328 661 Z " />
<glyph glyph-name="aogonek" unicode="&#x105;" horiz-adv-x="515" d="M484 -197 Q470 -205 447 -215 Q424 -225 392 -225 Q376 -225 358.5 -220.5 Q341 -216 326 -205.5 Q311 -195 301.5 -177.5 Q292 -160 292 -134 Q292 -94 318.5 -62.5 Q345 -31 390 -4 Q371 3 359 20 Q347 37 345 67 Q327 33 287.5 11 Q248 -11 197 -11 Q119 -11 83 27 Q47 65 47 128 Q47 170 63 200.5 Q79 231 114.5 251 Q150 271 205 281.5 Q260 292 338 294 L338 348 Q338 417 314 444 Q290 471 233 471 Q194 471 162 463 Q130 455 90 439 L75 480 Q103 497 149.5 512.5 Q196 528 250 528 Q285 528 314 519.5 Q343 511 363.5 491 Q384 471 395.5 438.5 Q407 406 407 358 L407 89 Q407 59 414 48.5 Q421 38 448 36 L484 32 L487 3 Q431 -20 396 -49 Q361 -78 361 -119 Q361 -141 374.5 -154.5 Q388 -168 416 -170 Q442 -171 473 -161 L484 -197 Z M338 246 Q279 245 237.5 239 Q196 233 170 220 Q144 207 132.5 186 Q121 165 121 135 Q121 88 146.5 65.5 Q172 43 215 43 Q274 43 306 77 Q338 111 338 159 L338 246 Z " />
<glyph glyph-name="Cacute" unicode="&#x106;" horiz-adv-x="620" d="M566 30 Q559 26 542.5 19 Q526 12 501 5 Q476 -2 443 -6.5 Q410 -11 368 -11 Q307 -11 249.5 7 Q192 25 147.5 68 Q103 111 76 183 Q49 255 49 362 Q49 443 70 512 Q91 581 133 631 Q175 681 239 709 Q303 737 390 737 Q423 737 453 733 Q483 729 506.5 724 Q530 719 546 713 Q562 707 568 704 L562 553 L517 556 L502 631 Q496 662 468.5 673.5 Q441 685 387 685 Q336 685 288.5 669 Q241 653 204.5 615.5 Q168 578 146.5 516 Q125 454 125 362 Q125 264 148 202 Q171 140 207.5 104.5 Q244 69 288.5 56 Q333 43 375 43 Q412 43 436 47 Q460 51 475 58.5 Q490 66 497.5 75.5 Q505 85 508 97 L528 167 L574 167 L566 30 Z M274 778 L257 809 L435 928 L490 873 L490 859 L274 778 Z " />
<glyph glyph-name="cacute" unicode="&#x107;" horiz-adv-x="488" d="M445 44 Q422 26 379 7.5 Q336 -11 278 -11 Q165 -11 105.5 60.5 Q46 132 46 253 Q46 323 64 374.5 Q82 426 115 460 Q148 494 193.5 511 Q239 528 294 528 Q330 528 373 518 Q416 508 444 491 L437 349 L390 353 L377 419 Q372 448 354.5 462 Q337 476 290 476 Q255 476 224 464.5 Q193 453 170 428 Q147 403 133.5 362.5 Q120 322 120 263 Q120 202 134 160.5 Q148 119 172 93.5 Q196 68 228 57.5 Q260 47 296 47 Q336 47 367 57 Q398 67 422 81 L445 44 Z M223 568 L193 591 L327 770 L399 734 L399 721 L223 568 Z " />
<glyph glyph-name="Ccircumflex" unicode="&#x108;" horiz-adv-x="620" d="M566 30 Q559 26 542.5 19 Q526 12 501 5 Q476 -2 443 -6.5 Q410 -11 368 -11 Q307 -11 249.5 7 Q192 25 147.5 68 Q103 111 76 183 Q49 255 49 362 Q49 443 70 512 Q91 581 133 631 Q175 681 239 709 Q303 737 390 737 Q423 737 453 733 Q483 729 506.5 724 Q530 719 546 713 Q562 707 568 704 L562 553 L517 556 L502 631 Q496 662 468.5 673.5 Q441 685 387 685 Q336 685 288.5 669 Q241 653 204.5 615.5 Q168 578 146.5 516 Q125 454 125 362 Q125 264 148 202 Q171 140 207.5 104.5 Q244 69 288.5 56 Q333 43 375 43 Q412 43 436 47 Q460 51 475 58.5 Q490 66 497.5 75.5 Q505 85 508 97 L528 167 L574 167 L566 30 Z M370 856 L237 775 L213 807 L338 924 L403 924 L528 806 L505 775 L370 856 Z " />
<glyph glyph-name="ccircumflex" unicode="&#x109;" horiz-adv-x="488" d="M445 44 Q422 26 379 7.5 Q336 -11 278 -11 Q165 -11 105.5 60.5 Q46 132 46 253 Q46 323 64 374.5 Q82 426 115 460 Q148 494 193.5 511 Q239 528 294 528 Q330 528 373 518 Q416 508 444 491 L437 349 L390 353 L377 419 Q372 448 354.5 462 Q337 476 290 476 Q255 476 224 464.5 Q193 453 170 428 Q147 403 133.5 362.5 Q120 322 120 263 Q120 202 134 160.5 Q148 119 172 93.5 Q196 68 228 57.5 Q260 47 296 47 Q336 47 367 57 Q398 67 422 81 L445 44 Z M308 765 L426 596 L394 572 L274 692 L155 572 L123 596 L242 765 L308 765 Z " />
<glyph glyph-name="Cdotaccent" unicode="&#x10a;" horiz-adv-x="620" d="M566 30 Q559 26 542.5 19 Q526 12 501 5 Q476 -2 443 -6.5 Q410 -11 368 -11 Q307 -11 249.5 7 Q192 25 147.5 68 Q103 111 76 183 Q49 255 49 362 Q49 443 70 512 Q91 581 133 631 Q175 681 239 709 Q303 737 390 737 Q423 737 453 733 Q483 729 506.5 724 Q530 719 546 713 Q562 707 568 704 L562 553 L517 556 L502 631 Q496 662 468.5 673.5 Q441 685 387 685 Q336 685 288.5 669 Q241 653 204.5 615.5 Q168 578 146.5 516 Q125 454 125 362 Q125 264 148 202 Q171 140 207.5 104.5 Q244 69 288.5 56 Q333 43 375 43 Q412 43 436 47 Q460 51 475 58.5 Q490 66 497.5 75.5 Q505 85 508 97 L528 167 L574 167 L566 30 Z M425 851 Q425 796 368 796 Q342 796 327 810 Q312 824 312 851 Q312 878 327 891.5 Q342 905 368 905 Q395 905 410 891.5 Q425 878 425 851 Z " />
<glyph glyph-name="cdotaccent" unicode="&#x10b;" horiz-adv-x="488" d="M445 44 Q422 26 379 7.5 Q336 -11 278 -11 Q165 -11 105.5 60.5 Q46 132 46 253 Q46 323 64 374.5 Q82 426 115 460 Q148 494 193.5 511 Q239 528 294 528 Q330 528 373 518 Q416 508 444 491 L437 349 L390 353 L377 419 Q372 448 354.5 462 Q337 476 290 476 Q255 476 224 464.5 Q193 453 170 428 Q147 403 133.5 362.5 Q120 322 120 263 Q120 202 134 160.5 Q148 119 172 93.5 Q196 68 228 57.5 Q260 47 296 47 Q336 47 367 57 Q398 67 422 81 L445 44 Z M327 696 Q327 640 270 640 Q244 640 229 654 Q214 668 214 696 Q214 722 229 735.5 Q244 749 270 749 Q297 749 312 735.5 Q327 722 327 696 Z " />
<glyph glyph-name="Ccaron" unicode="&#x10c;" horiz-adv-x="620" d="M566 30 Q559 26 542.5 19 Q526 12 501 5 Q476 -2 443 -6.5 Q410 -11 368 -11 Q307 -11 249.5 7 Q192 25 147.5 68 Q103 111 76 183 Q49 255 49 362 Q49 443 70 512 Q91 581 133 631 Q175 681 239 709 Q303 737 390 737 Q423 737 453 733 Q483 729 506.5 724 Q530 719 546 713 Q562 707 568 704 L562 553 L517 556 L502 631 Q496 662 468.5 673.5 Q441 685 387 685 Q336 685 288.5 669 Q241 653 204.5 615.5 Q168 578 146.5 516 Q125 454 125 362 Q125 264 148 202 Q171 140 207.5 104.5 Q244 69 288.5 56 Q333 43 375 43 Q412 43 436 47 Q460 51 475 58.5 Q490 66 497.5 75.5 Q505 85 508 97 L528 167 L574 167 L566 30 Z M509 929 L531 900 L406 781 L343 781 L220 900 L244 930 L375 850 L509 929 Z " />
<glyph glyph-name="ccaron" unicode="&#x10d;" horiz-adv-x="488" d="M445 44 Q422 26 379 7.5 Q336 -11 278 -11 Q165 -11 105.5 60.5 Q46 132 46 253 Q46 323 64 374.5 Q82 426 115 460 Q148 494 193.5 511 Q239 528 294 528 Q330 528 373 518 Q416 508 444 491 L437 349 L390 353 L377 419 Q372 448 354.5 462 Q337 476 290 476 Q255 476 224 464.5 Q193 453 170 428 Q147 403 133.5 362.5 Q120 322 120 263 Q120 202 134 160.5 Q148 119 172 93.5 Q196 68 228 57.5 Q260 47 296 47 Q336 47 367 57 Q398 67 422 81 L445 44 Z M241 586 L125 753 L156 778 L275 656 L394 776 L424 752 L307 586 L241 586 Z " />
<glyph glyph-name="Dcaron" unicode="&#x10e;" horiz-adv-x="722" d="M311 51 Q393 51 447 76.5 Q501 102 533 146.5 Q565 191 578 250 Q591 309 591 376 Q591 528 529 600 Q467 672 349 672 L219 672 L219 51 L311 51 Z M338 724 Q428 724 491 700 Q554 676 593.5 630.5 Q633 585 651 520.5 Q669 456 669 375 Q669 295 650 226.5 Q631 158 587 107.5 Q543 57 471.5 28.5 Q400 0 295 0 L62 0 L62 39 L108 45 Q120 47 127.5 49.5 Q135 52 139 59 Q143 66 144.5 79.5 Q146 93 146 116 L146 605 Q146 649 139 663 Q132 677 106 680 L63 685 L63 724 L338 724 Z M464 929 L486 900 L361 781 L298 781 L175 900 L199 930 L330 850 L464 929 Z " />
<glyph glyph-name="dcaron" unicode="&#x10f;" horiz-adv-x="608" d="M420 0 L407 62 Q378 27 335.5 8 Q293 -11 245 -11 Q146 -11 96 56.5 Q46 124 46 252 Q46 323 62 375 Q78 427 106.5 461 Q135 495 174 511.5 Q213 528 260 528 Q298 528 334.5 515.5 Q371 503 399 477 L399 626 Q399 657 390.5 670 Q382 683 353 687 L314 693 L319 728 L453 745 L468 734 L468 109 Q468 74 474.5 60.5 Q481 47 508 42 L544 36 L544 0 L420 0 Z M399 424 Q375 444 341.5 458 Q308 472 267 472 Q200 472 160 421.5 Q120 371 120 260 Q120 152 154 98.5 Q188 45 260 45 Q298 45 334 61 Q370 77 399 109 L399 424 Z M526 530 Q533 560 537 590.5 Q541 621 542 648 Q543 671 541 695 Q539 719 533 742 L604 759 L616 755 Q618 750 619 739.5 Q620 729 620 719 Q620 671 602.5 619.5 Q585 568 558 519 L526 530 Z " />
<glyph glyph-name="Dcroat" unicode="&#x110;" horiz-adv-x="711" d="M333 724 Q423 724 486 700 Q549 676 588.5 630.5 Q628 585 646 520.5 Q664 456 664 375 Q664 295 645 226.5 Q626 158 582 107.5 Q538 57 466.5 28.5 Q395 0 290 0 L57 0 L57 39 L103 45 Q115 47 122.5 49.5 Q130 52 134 59 Q138 66 139.5 79.5 Q141 93 141 116 L141 328 L63 328 L63 378 L141 378 L141 605 Q141 649 134 663 Q127 677 101 680 L58 685 L58 724 L333 724 Z M306 51 Q388 51 442 76.5 Q496 102 528 146.5 Q560 191 573 250 Q586 309 586 376 Q586 528 524 600 Q462 672 344 672 L214 672 L214 378 L376 378 L376 328 L214 328 L214 51 L306 51 Z " />
<glyph glyph-name="dcroat" unicode="&#x111;" horiz-adv-x="574" d="M420 0 L407 62 Q378 27 335.5 8 Q293 -11 245 -11 Q146 -11 96 56.5 Q46 124 46 252 Q46 323 62 375 Q78 427 106.5 461 Q135 495 174 511.5 Q213 528 260 528 Q298 528 334.5 515.5 Q371 503 399 477 L399 587 L264 587 L264 634 L399 634 Q398 660 389 671.5 Q380 683 353 687 L314 693 L319 728 L453 745 L468 734 L468 634 L548 634 L548 587 L468 587 L468 109 Q468 74 474.5 60.5 Q481 47 508 42 L544 36 L544 0 L420 0 Z M399 424 Q375 444 341.5 458 Q308 472 267 472 Q200 472 160 421.5 Q120 371 120 260 Q120 152 154 98.5 Q188 45 260 45 Q298 45 334 61 Q370 77 399 109 L399 424 Z " />
<glyph glyph-name="Emacron" unicode="&#x112;" horiz-adv-x="591" d="M516 546 Q505 546 493.5 546.5 Q482 547 471 547 L450 619 Q441 649 427.5 661 Q414 673 382 673 L215 673 L215 394 L447 394 L447 343 L215 343 L215 51 L402 51 Q432 51 445.5 62.5 Q459 74 467 103 L489 184 L533 184 L523 0 L57 0 L57 39 L103 45 Q117 47 124.5 50 Q132 53 135.5 61 Q139 69 140 84 Q141 99 141 124 L141 606 Q141 628 139.5 641.5 Q138 655 133.5 663 Q129 671 121.5 674.5 Q114 678 101 679 L58 685 L58 724 L506 724 L516 546 Z M148 876 L441 876 L441 815 L148 815 L148 876 Z " />
<glyph glyph-name="emacron" unicode="&#x113;" horiz-adv-x="505" d="M453 46 Q415 19 372.5 4 Q330 -11 279 -11 Q219 -11 175.5 9 Q132 29 103 65 Q74 101 60 150 Q46 199 46 256 Q46 327 64 378.5 Q82 430 113 463 Q144 496 185.5 512 Q227 528 273 528 Q314 528 349 515 Q384 502 409.5 474 Q435 446 449.5 402 Q464 358 464 297 Q464 282 464 269 Q464 256 462 246 L120 246 Q121 202 132 165.5 Q143 129 164 103 Q185 77 216.5 62.5 Q248 48 290 48 Q334 48 364.5 56.5 Q395 65 432 85 L453 46 Z M390 294 Q394 384 361.5 431.5 Q329 479 269 479 Q203 479 164.5 433.5 Q126 388 121 294 L390 294 Z M120 690 L405 690 L405 630 L120 630 L120 690 Z " />
<glyph glyph-name="Ebreve" unicode="&#x114;" horiz-adv-x="591" d="M516 546 Q505 546 493.5 546.5 Q482 547 471 547 L450 619 Q441 649 427.5 661 Q414 673 382 673 L215 673 L215 394 L447 394 L447 343 L215 343 L215 51 L402 51 Q432 51 445.5 62.5 Q459 74 467 103 L489 184 L533 184 L523 0 L57 0 L57 39 L103 45 Q117 47 124.5 50 Q132 53 135.5 61 Q139 69 140 84 Q141 99 141 124 L141 606 Q141 628 139.5 641.5 Q138 655 133.5 663 Q129 671 121.5 674.5 Q114 678 101 679 L58 685 L58 724 L506 724 L516 546 Z M455 911 Q440 851 404 816 Q368 781 301 781 Q234 781 200.5 818 Q167 855 153 911 L189 928 Q205 892 232.5 870 Q260 848 303 848 Q383 848 419 927 L455 911 Z " />
<glyph glyph-name="ebreve" unicode="&#x115;" horiz-adv-x="505" d="M453 46 Q415 19 372.5 4 Q330 -11 279 -11 Q219 -11 175.5 9 Q132 29 103 65 Q74 101 60 150 Q46 199 46 256 Q46 327 64 378.5 Q82 430 113 463 Q144 496 185.5 512 Q227 528 273 528 Q314 528 349 515 Q384 502 409.5 474 Q435 446 449.5 402 Q464 358 464 297 Q464 282 464 269 Q464 256 462 246 L120 246 Q121 202 132 165.5 Q143 129 164 103 Q185 77 216.5 62.5 Q248 48 290 48 Q334 48 364.5 56.5 Q395 65 432 85 L453 46 Z M390 294 Q394 384 361.5 431.5 Q329 479 269 479 Q203 479 164.5 433.5 Q126 388 121 294 L390 294 Z M262 654 Q300 654 326 678.5 Q352 703 375 756 L412 742 Q396 670 356.5 628.5 Q317 587 262 587 Q199 587 163 627 Q127 667 112 742 L149 757 Q169 703 196.5 678.5 Q224 654 262 654 Z " />
<glyph glyph-name="Edotaccent" unicode="&#x116;" horiz-adv-x="591" d="M516 546 Q505 546 493.5 546.5 Q482 547 471 547 L450 619 Q441 649 427.5 661 Q414 673 382 673 L215 673 L215 394 L447 394 L447 343 L215 343 L215 51 L402 51 Q432 51 445.5 62.5 Q459 74 467 103 L489 184 L533 184 L523 0 L57 0 L57 39 L103 45 Q117 47 124.5 50 Q132 53 135.5 61 Q139 69 140 84 Q141 99 141 124 L141 606 Q141 628 139.5 641.5 Q138 655 133.5 663 Q129 671 121.5 674.5 Q114 678 101 679 L58 685 L58 724 L506 724 L516 546 Z M358 851 Q358 796 301 796 Q275 796 260 810 Q245 824 245 851 Q245 878 260 891.5 Q275 905 301 905 Q328 905 343 891.5 Q358 878 358 851 Z " />
<glyph glyph-name="edotaccent" unicode="&#x117;" horiz-adv-x="505" d="M453 46 Q415 19 372.5 4 Q330 -11 279 -11 Q219 -11 175.5 9 Q132 29 103 65 Q74 101 60 150 Q46 199 46 256 Q46 327 64 378.5 Q82 430 113 463 Q144 496 185.5 512 Q227 528 273 528 Q314 528 349 515 Q384 502 409.5 474 Q435 446 449.5 402 Q464 358 464 297 Q464 282 464 269 Q464 256 462 246 L120 246 Q121 202 132 165.5 Q143 129 164 103 Q185 77 216.5 62.5 Q248 48 290 48 Q334 48 364.5 56.5 Q395 65 432 85 L453 46 Z M390 294 Q394 384 361.5 431.5 Q329 479 269 479 Q203 479 164.5 433.5 Q126 388 121 294 L390 294 Z M319 696 Q319 640 262 640 Q236 640 221 654 Q206 668 206 696 Q206 722 221 735.5 Q236 749 262 749 Q289 749 304 735.5 Q319 722 319 696 Z " />
<glyph glyph-name="Eogonek" unicode="&#x118;" horiz-adv-x="591" d="M536 -197 Q522 -205 499 -215 Q476 -225 444 -225 Q428 -225 410.5 -220.5 Q393 -216 378 -205.5 Q363 -195 353.5 -177.5 Q344 -160 344 -134 Q344 -95 370 -61.5 Q396 -28 444 0 L57 0 L57 39 L103 45 Q117 47 124.5 50 Q132 53 135.5 61 Q139 69 140 84 Q141 99 141 124 L141 606 Q141 628 139.5 641.5 Q138 655 133.5 663 Q129 671 121.5 674.5 Q114 678 101 679 L58 685 L58 724 L506 724 L516 546 L471 547 L450 619 Q441 649 427.5 661 Q414 673 382 673 L215 673 L215 394 L447 394 L447 343 L215 343 L215 51 L402 51 Q432 51 445.5 62.5 Q459 74 467 103 L489 184 L533 184 L523 0 Q504 -11 484.5 -23.5 Q465 -36 450 -50.5 Q435 -65 425.5 -82 Q416 -99 416 -119 Q416 -141 428 -154.5 Q440 -168 468 -170 Q494 -171 525 -161 L536 -197 Z " />
<glyph glyph-name="eogonek" unicode="&#x119;" horiz-adv-x="503" d="M408 -197 Q394 -205 371 -215 Q348 -225 316 -225 Q300 -225 282.5 -220.5 Q265 -216 250 -205.5 Q235 -195 225.5 -177.5 Q216 -160 216 -134 Q216 -99 236.5 -68 Q257 -37 292 -11 L278 -11 Q218 -11 174.5 9 Q131 29 102 65 Q73 101 59 150 Q45 199 45 256 Q45 327 63 378.5 Q81 430 112 463 Q143 496 184.5 512 Q226 528 272 528 Q313 528 348 515 Q383 502 408.5 474 Q434 446 448.5 402 Q463 358 463 297 Q463 282 463 269 Q463 256 461 246 L119 246 Q120 202 131 165.5 Q142 129 163 103 Q184 77 215.5 62.5 Q247 48 289 48 Q333 48 363.5 56.5 Q394 65 431 85 L452 46 Q438 36 423.5 28.5 Q409 21 395 13 Q378 4 358.5 -10 Q339 -24 322.5 -41.5 Q306 -59 295.5 -79 Q285 -99 285 -119 Q285 -141 298.5 -154.5 Q312 -168 340 -170 Q366 -171 397 -161 L408 -197 Z M389 294 Q393 384 361 431.5 Q329 479 268 479 Q202 479 163.5 433.5 Q125 388 120 294 L389 294 Z " />
<glyph glyph-name="Ecaron" unicode="&#x11a;" horiz-adv-x="591" d="M516 546 Q505 546 493.5 546.5 Q482 547 471 547 L450 619 Q441 649 427.5 661 Q414 673 382 673 L215 673 L215 394 L447 394 L447 343 L215 343 L215 51 L402 51 Q432 51 445.5 62.5 Q459 74 467 103 L489 184 L533 184 L523 0 L57 0 L57 39 L103 45 Q117 47 124.5 50 Q132 53 135.5 61 Q139 69 140 84 Q141 99 141 124 L141 606 Q141 628 139.5 641.5 Q138 655 133.5 663 Q129 671 121.5 674.5 Q114 678 101 679 L58 685 L58 724 L506 724 L516 546 Z M438 929 L460 900 L335 781 L272 781 L149 900 L173 930 L304 850 L438 929 Z " />
<glyph glyph-name="ecaron" unicode="&#x11b;" horiz-adv-x="505" d="M453 46 Q415 19 372.5 4 Q330 -11 279 -11 Q219 -11 175.5 9 Q132 29 103 65 Q74 101 60 150 Q46 199 46 256 Q46 327 64 378.5 Q82 430 113 463 Q144 496 185.5 512 Q227 528 273 528 Q314 528 349 515 Q384 502 409.5 474 Q435 446 449.5 402 Q464 358 464 297 Q464 282 464 269 Q464 256 462 246 L120 246 Q121 202 132 165.5 Q143 129 164 103 Q185 77 216.5 62.5 Q248 48 290 48 Q334 48 364.5 56.5 Q395 65 432 85 L453 46 Z M390 294 Q394 384 361.5 431.5 Q329 479 269 479 Q203 479 164.5 433.5 Q126 388 121 294 L390 294 Z M234 586 L118 753 L149 778 L268 656 L387 776 L417 752 L300 586 L234 586 Z " />
<glyph glyph-name="Gcircumflex" unicode="&#x11c;" horiz-adv-x="663" d="M500 215 Q500 259 493.5 272.5 Q487 286 461 289 L389 296 L389 336 L639 336 L639 297 L605 293 Q594 292 587.5 288 Q581 284 578 276 Q575 268 574 254.5 Q573 241 573 219 L573 33 Q522 7 469 -2 Q416 -11 370 -11 Q289 -11 228.5 14.5 Q168 40 128.5 87 Q89 134 69 202 Q49 270 49 354 Q49 450 72.5 521.5 Q96 593 139.5 641 Q183 689 244.5 713 Q306 737 382 737 Q457 737 504.5 724 Q552 711 568 704 L562 553 L517 557 L504 628 Q497 660 470.5 672 Q444 684 383 684 Q255 684 190 601 Q125 518 125 361 Q125 269 145.5 207.5 Q166 146 201 109 Q236 72 281.5 56.5 Q327 41 376 41 Q405 41 426.5 44.5 Q448 48 461 51 Q487 57 493.5 68.5 Q500 80 500 100 L500 215 Z M366 856 L233 775 L209 807 L334 924 L399 924 L524 806 L501 775 L366 856 Z " />
<glyph glyph-name="gcircumflex" unicode="&#x11d;" horiz-adv-x="502" d="M401 456 Q424 429 431.5 398.5 Q439 368 439 345 Q439 308 425.5 276 Q412 244 387 220.5 Q362 197 326.5 184 Q291 171 246 171 Q223 171 203.5 174 Q184 177 170 181 L127 90 L324 81 Q357 80 385 73 Q413 66 434 52.5 Q455 39 467 17.5 Q479 -4 479 -36 Q479 -108 414 -150.5 Q349 -193 230 -193 Q193 -193 156.5 -187 Q120 -181 91.5 -167 Q63 -153 45.5 -130.5 Q28 -108 28 -76 Q28 -45 45 -18.5 Q62 8 100 34 Q77 39 68.5 50 Q60 61 60 75 Q60 89 65.5 100.5 Q71 112 82 129 L128 198 Q93 218 70.5 255 Q48 292 48 341 Q48 385 63 419.5 Q78 454 104 478 Q130 502 165 515 Q200 528 241 528 Q279 528 307.5 519.5 Q336 511 350 503 L467 514 L473 472 L401 456 Z M369 348 Q369 415 335.5 446.5 Q302 478 245 478 Q187 478 153 445 Q119 412 119 347 Q119 311 129.5 287 Q140 263 157 248.5 Q174 234 197 228 Q220 222 244 222 Q299 222 334 252 Q369 282 369 348 Z M410 -48 Q410 17 312 20 L148 27 Q131 11 113.5 -11.5 Q96 -34 96 -65 Q96 -99 131 -119 Q166 -139 242 -139 Q275 -139 305.5 -134 Q336 -129 359 -117.5 Q382 -106 396 -89 Q410 -72 410 -48 Z M280 765 L398 596 L366 572 L246 692 L127 572 L95 596 L214 765 L280 765 Z " />
<glyph glyph-name="Gbreve" unicode="&#x11e;" horiz-adv-x="663" d="M500 215 Q500 259 493.5 272.5 Q487 286 461 289 L389 296 L389 336 L639 336 L639 297 L605 293 Q594 292 587.5 288 Q581 284 578 276 Q575 268 574 254.5 Q573 241 573 219 L573 33 Q522 7 469 -2 Q416 -11 370 -11 Q289 -11 228.5 14.5 Q168 40 128.5 87 Q89 134 69 202 Q49 270 49 354 Q49 450 72.5 521.5 Q96 593 139.5 641 Q183 689 244.5 713 Q306 737 382 737 Q457 737 504.5 724 Q552 711 568 704 L562 553 L517 557 L504 628 Q497 660 470.5 672 Q444 684 383 684 Q255 684 190 601 Q125 518 125 361 Q125 269 145.5 207.5 Q166 146 201 109 Q236 72 281.5 56.5 Q327 41 376 41 Q405 41 426.5 44.5 Q448 48 461 51 Q487 57 493.5 68.5 Q500 80 500 100 L500 215 Z M522 911 Q507 851 471 816 Q435 781 368 781 Q301 781 267.5 818 Q234 855 220 911 L256 928 Q272 892 299.5 870 Q327 848 370 848 Q450 848 486 927 L522 911 Z " />
<glyph glyph-name="gbreve" unicode="&#x11f;" horiz-adv-x="502" d="M401 456 Q424 429 431.5 398.5 Q439 368 439 345 Q439 308 425.5 276 Q412 244 387 220.5 Q362 197 326.5 184 Q291 171 246 171 Q223 171 203.5 174 Q184 177 170 181 L127 90 L324 81 Q357 80 385 73 Q413 66 434 52.5 Q455 39 467 17.5 Q479 -4 479 -36 Q479 -108 414 -150.5 Q349 -193 230 -193 Q193 -193 156.5 -187 Q120 -181 91.5 -167 Q63 -153 45.5 -130.5 Q28 -108 28 -76 Q28 -45 45 -18.5 Q62 8 100 34 Q77 39 68.5 50 Q60 61 60 75 Q60 89 65.5 100.5 Q71 112 82 129 L128 198 Q93 218 70.5 255 Q48 292 48 341 Q48 385 63 419.5 Q78 454 104 478 Q130 502 165 515 Q200 528 241 528 Q279 528 307.5 519.5 Q336 511 350 503 L467 514 L473 472 L401 456 Z M369 348 Q369 415 335.5 446.5 Q302 478 245 478 Q187 478 153 445 Q119 412 119 347 Q119 311 129.5 287 Q140 263 157 248.5 Q174 234 197 228 Q220 222 244 222 Q299 222 334 252 Q369 282 369 348 Z M410 -48 Q410 17 312 20 L148 27 Q131 11 113.5 -11.5 Q96 -34 96 -65 Q96 -99 131 -119 Q166 -139 242 -139 Q275 -139 305.5 -134 Q336 -129 359 -117.5 Q382 -106 396 -89 Q410 -72 410 -48 Z M246 654 Q284 654 310 678.5 Q336 703 359 756 L396 742 Q380 670 340.5 628.5 Q301 587 246 587 Q183 587 147 627 Q111 667 96 742 L133 757 Q153 703 180.5 678.5 Q208 654 246 654 Z " />
<glyph glyph-name="Gdotaccent" unicode="&#x120;" horiz-adv-x="663" d="M500 215 Q500 259 493.5 272.5 Q487 286 461 289 L389 296 L389 336 L639 336 L639 297 L605 293 Q594 292 587.5 288 Q581 284 578 276 Q575 268 574 254.5 Q573 241 573 219 L573 33 Q522 7 469 -2 Q416 -11 370 -11 Q289 -11 228.5 14.5 Q168 40 128.5 87 Q89 134 69 202 Q49 270 49 354 Q49 450 72.5 521.5 Q96 593 139.5 641 Q183 689 244.5 713 Q306 737 382 737 Q457 737 504.5 724 Q552 711 568 704 L562 553 L517 557 L504 628 Q497 660 470.5 672 Q444 684 383 684 Q255 684 190 601 Q125 518 125 361 Q125 269 145.5 207.5 Q166 146 201 109 Q236 72 281.5 56.5 Q327 41 376 41 Q405 41 426.5 44.5 Q448 48 461 51 Q487 57 493.5 68.5 Q500 80 500 100 L500 215 Z M419 851 Q419 796 362 796 Q336 796 321 810 Q306 824 306 851 Q306 878 321 891.5 Q336 905 362 905 Q389 905 404 891.5 Q419 878 419 851 Z " />
<glyph glyph-name="gdotaccent" unicode="&#x121;" horiz-adv-x="502" d="M401 456 Q424 429 431.5 398.5 Q439 368 439 345 Q439 308 425.5 276 Q412 244 387 220.5 Q362 197 326.5 184 Q291 171 246 171 Q223 171 203.5 174 Q184 177 170 181 L127 90 L324 81 Q357 80 385 73 Q413 66 434 52.5 Q455 39 467 17.5 Q479 -4 479 -36 Q479 -108 414 -150.5 Q349 -193 230 -193 Q193 -193 156.5 -187 Q120 -181 91.5 -167 Q63 -153 45.5 -130.5 Q28 -108 28 -76 Q28 -45 45 -18.5 Q62 8 100 34 Q77 39 68.5 50 Q60 61 60 75 Q60 89 65.5 100.5 Q71 112 82 129 L128 198 Q93 218 70.5 255 Q48 292 48 341 Q48 385 63 419.5 Q78 454 104 478 Q130 502 165 515 Q200 528 241 528 Q279 528 307.5 519.5 Q336 511 350 503 L467 514 L473 472 L401 456 Z M369 348 Q369 415 335.5 446.5 Q302 478 245 478 Q187 478 153 445 Q119 412 119 347 Q119 311 129.5 287 Q140 263 157 248.5 Q174 234 197 228 Q220 222 244 222 Q299 222 334 252 Q369 282 369 348 Z M410 -48 Q410 17 312 20 L148 27 Q131 11 113.5 -11.5 Q96 -34 96 -65 Q96 -99 131 -119 Q166 -139 242 -139 Q275 -139 305.5 -134 Q336 -129 359 -117.5 Q382 -106 396 -89 Q410 -72 410 -48 Z M300 696 Q300 640 243 640 Q217 640 202 654 Q187 668 187 696 Q187 722 202 735.5 Q217 749 243 749 Q270 749 285 735.5 Q300 722 300 696 Z " />
<glyph glyph-name="Gcommaaccent" unicode="&#x122;" horiz-adv-x="663" d="M500 215 Q500 259 493.5 272.5 Q487 286 461 289 L389 296 L389 336 L639 336 L639 297 L605 293 Q594 292 587.5 288 Q581 284 578 276 Q575 268 574 254.5 Q573 241 573 219 L573 33 Q522 7 469 -2 Q416 -11 370 -11 Q289 -11 228.5 14.5 Q168 40 128.5 87 Q89 134 69 202 Q49 270 49 354 Q49 450 72.5 521.5 Q96 593 139.5 641 Q183 689 244.5 713 Q306 737 382 737 Q457 737 504.5 724 Q552 711 568 704 L562 553 L517 557 L504 628 Q497 660 470.5 672 Q444 684 383 684 Q255 684 190 601 Q125 518 125 361 Q125 269 145.5 207.5 Q166 146 201 109 Q236 72 281.5 56.5 Q327 41 376 41 Q405 41 426.5 44.5 Q448 48 461 51 Q487 57 493.5 68.5 Q500 80 500 100 L500 215 Z M407 -133 Q407 -169 387 -212.5 Q367 -256 316 -288 L297 -265 Q320 -245 331.5 -224.5 Q343 -204 346 -178 Q316 -177 302 -161.5 Q288 -146 288 -123 Q288 -94 304.5 -81 Q321 -68 347 -68 Q373 -68 390 -83.5 Q407 -99 407 -133 Z " />
<glyph glyph-name="gcommaaccent" unicode="&#x123;" horiz-adv-x="502" d="M401 456 Q424 429 431.5 398.5 Q439 368 439 345 Q439 308 425.5 276 Q412 244 387 220.5 Q362 197 326.5 184 Q291 171 246 171 Q223 171 203.5 174 Q184 177 170 181 L127 90 L324 81 Q357 80 385 73 Q413 66 434 52.5 Q455 39 467 17.5 Q479 -4 479 -36 Q479 -108 414 -150.5 Q349 -193 230 -193 Q193 -193 156.5 -187 Q120 -181 91.5 -167 Q63 -153 45.5 -130.5 Q28 -108 28 -76 Q28 -45 45 -18.5 Q62 8 100 34 Q77 39 68.5 50 Q60 61 60 75 Q60 89 65.5 100.5 Q71 112 82 129 L128 198 Q93 218 70.5 255 Q48 292 48 341 Q48 385 63 419.5 Q78 454 104 478 Q130 502 165 515 Q200 528 241 528 Q279 528 307.5 519.5 Q336 511 350 503 L467 514 L473 472 L401 456 Z M369 348 Q369 415 335.5 446.5 Q302 478 245 478 Q187 478 153 445 Q119 412 119 347 Q119 311 129.5 287 Q140 263 157 248.5 Q174 234 197 228 Q220 222 244 222 Q299 222 334 252 Q369 282 369 348 Z M410 -48 Q410 17 312 20 L148 27 Q131 11 113.5 -11.5 Q96 -34 96 -65 Q96 -99 131 -119 Q166 -139 242 -139 Q275 -139 305.5 -134 Q336 -129 359 -117.5 Q382 -106 396 -89 Q410 -72 410 -48 Z M182 648 Q182 686 202.5 728.5 Q223 771 275 803 L294 780 Q271 760 260 739.5 Q249 719 246 693 Q276 692 290.5 676.5 Q305 661 305 638 Q305 609 288 596 Q271 583 244 583 Q217 583 199.5 598.5 Q182 614 182 648 Z " />
<glyph glyph-name="Hcircumflex" unicode="&#x124;" horiz-adv-x="771" d="M214 394 L557 394 L557 600 Q557 624 556 639 Q555 654 551.5 662.5 Q548 671 541 674.5 Q534 678 522 679 L476 685 L476 724 L714 724 L714 685 L668 679 Q656 678 648.5 675 Q641 672 637 664.5 Q633 657 631.5 644 Q630 631 630 608 L630 124 Q630 100 631.5 85.5 Q633 71 637.5 63 Q642 55 649.5 51.5 Q657 48 670 46 L713 39 L713 0 L478 0 L478 39 L525 46 Q536 48 542 51 Q548 54 551.5 61.5 Q555 69 556 82.5 Q557 96 557 118 L557 344 L214 344 L214 124 Q214 100 214.5 85.5 Q215 71 218.5 62.5 Q222 54 229 51 Q236 48 249 46 L295 39 L295 0 L57 0 L57 39 L103 46 Q116 48 123.5 51 Q131 54 135 61.5 Q139 69 140 83.5 Q141 98 141 123 L141 606 Q141 628 139.5 641.5 Q138 655 133.5 663 Q129 671 121.5 674.5 Q114 678 101 679 L58 685 L58 724 L293 724 L293 685 L246 679 Q224 677 219 663.5 Q214 650 214 606 L214 394 Z M392 856 L259 775 L235 807 L360 924 L425 924 L550 806 L527 775 L392 856 Z " />
<glyph glyph-name="hcircumflex" unicode="&#x125;" horiz-adv-x="631" d="M192 121 Q192 97 192.5 82 Q193 67 196.5 59 Q200 51 207 47.5 Q214 44 227 42 L263 36 L263 0 L45 0 L45 36 L83 42 Q97 44 104.5 47.5 Q112 51 116.5 59 Q121 67 122 81.5 Q123 96 123 121 L123 604 Q123 647 116.5 665.5 Q110 684 77 688 L40 693 L46 728 L175 745 L192 733 L192 452 Q234 490 277 509 Q320 528 371 528 Q403 528 431 519.5 Q459 511 480 490.5 Q501 470 513 435 Q525 400 525 346 L525 121 Q525 97 526 82.5 Q527 68 531 59.5 Q535 51 542 47.5 Q549 44 562 42 L604 36 L604 0 L386 0 L386 36 L423 42 Q435 44 441.5 47 Q448 50 451 58 Q454 66 455 80.5 Q456 95 456 118 L456 339 Q456 405 430 436 Q404 467 350 467 Q310 467 270 451 Q230 435 192 406 L192 121 Z M131 856 L-2 775 L-26 807 L99 924 L164 924 L289 806 L266 775 L131 856 Z " />
<glyph glyph-name="Hbar" unicode="&#x126;" horiz-adv-x="771" d="M214 567 L557 567 L557 600 Q557 624 556 639 Q555 654 551.5 662.5 Q548 671 541 674.5 Q534 678 522 679 L476 685 L476 724 L714 724 L714 685 L668 679 Q656 678 648.5 675 Q641 672 637 664.5 Q633 657 631.5 644 Q630 631 630 608 L630 567 L713 567 L713 517 L630 517 L630 124 Q630 100 631.5 85.5 Q633 71 637.5 63 Q642 55 649.5 51.5 Q657 48 670 46 L713 39 L713 0 L478 0 L478 39 L525 46 Q536 48 542 51 Q548 54 551.5 61.5 Q555 69 556 82.5 Q557 96 557 118 L557 344 L214 344 L214 124 Q214 100 214.5 85.5 Q215 71 218.5 62.5 Q222 54 229 51 Q236 48 249 46 L295 39 L295 0 L57 0 L57 39 L103 46 Q116 48 123.5 51 Q131 54 135 61.5 Q139 69 140 83.5 Q141 98 141 123 L141 517 L59 517 L59 567 L141 567 L141 606 Q141 628 139.5 641.5 Q138 655 133.5 663 Q129 671 121.5 674.5 Q114 678 101 679 L58 685 L58 724 L293 724 L293 685 L246 679 Q224 677 219 663.5 Q214 650 214 606 L214 567 Z M557 394 L557 517 L214 517 L214 394 L557 394 Z " />
<glyph glyph-name="hbar" unicode="&#x127;" horiz-adv-x="634" d="M195 121 Q195 97 195.5 82 Q196 67 199.5 59 Q203 51 210 47.5 Q217 44 230 42 L266 36 L266 0 L48 0 L48 36 L86 42 Q100 44 107.5 47.5 Q115 51 119.5 59 Q124 67 125 81.5 Q126 96 126 121 L126 590 L40 590 L40 636 L125 636 Q123 661 114.5 672.5 Q106 684 80 688 L43 693 L49 728 L178 745 L195 733 L195 636 L331 636 L331 590 L195 590 L195 452 Q237 490 280 509 Q323 528 374 528 Q406 528 434 519.5 Q462 511 483 490.5 Q504 470 516 435 Q528 400 528 346 L528 121 Q528 97 529 82.5 Q530 68 534 59.5 Q538 51 545 47.5 Q552 44 565 42 L607 36 L607 0 L389 0 L389 36 L426 42 Q438 44 444.5 47 Q451 50 454 58 Q457 66 458 80.5 Q459 95 459 118 L459 339 Q459 405 433 436 Q407 467 353 467 Q313 467 273 451 Q233 435 195 406 L195 121 Z " />
<glyph glyph-name="Itilde" unicode="&#x128;" horiz-adv-x="355" d="M214 124 Q214 100 215 85 Q216 70 219.5 62 Q223 54 230.5 51 Q238 48 251 46 L296 39 L296 0 L57 0 L57 39 L103 46 Q116 48 123.5 50.5 Q131 53 135 61 Q139 69 140 83.5 Q141 98 141 123 L141 606 Q141 628 139.5 641.5 Q138 655 134 663 Q130 671 122 674.5 Q114 678 101 679 L58 685 L58 724 L294 724 L294 685 L248 679 Q226 677 220 663.5 Q214 650 214 606 L214 124 Z M86 886 Q99 886 125.5 880 Q152 874 179.5 867 Q207 860 230 854 Q253 848 259 848 Q267 848 276.5 854.5 Q286 861 304 885 L334 868 Q324 841 313.5 824 Q303 807 293.5 797.5 Q284 788 275 784.5 Q266 781 258 781 Q247 781 223 787 Q199 793 172 800.5 Q145 808 121 814 Q97 820 86 820 Q76 820 66.5 813 Q57 806 38 784 L10 800 Q31 847 48.5 866.5 Q66 886 86 886 Z " />
<glyph glyph-name="itilde" unicode="&#x129;" horiz-adv-x="311" d="M196 120 Q196 97 197 82.5 Q198 68 201.5 59.5 Q205 51 211.5 47.5 Q218 44 230 42 L272 36 L272 0 L49 0 L49 36 L88 42 Q102 44 109.5 47.5 Q117 51 121 59.5 Q125 68 126 82 Q127 96 127 120 L127 403 Q127 438 116.5 450.5 Q106 463 79 467 L43 473 L48 507 L180 523 L196 515 L196 120 Z M59 728 Q70 728 93 722 Q116 716 140.5 709 Q165 702 185.5 696 Q206 690 212 690 Q221 690 230 696.5 Q239 703 257 727 L287 710 Q277 683 266.5 666 Q256 649 246.5 639.5 Q237 630 228 626.5 Q219 623 211 623 Q201 623 179.5 629 Q158 635 134.5 642 Q111 649 89.5 655 Q68 661 59 661 Q49 661 39.5 654 Q30 647 11 626 L-17 641 Q4 688 21.5 708 Q39 728 59 728 Z " />
<glyph glyph-name="Imacron" unicode="&#x12a;" horiz-adv-x="355" d="M214 124 Q214 100 215 85 Q216 70 219.5 62 Q223 54 230.5 51 Q238 48 251 46 L296 39 L296 0 L57 0 L57 39 L103 46 Q116 48 123.5 50.5 Q131 53 135 61 Q139 69 140 83.5 Q141 98 141 123 L141 606 Q141 628 139.5 641.5 Q138 655 134 663 Q130 671 122 674.5 Q114 678 101 679 L58 685 L58 724 L294 724 L294 685 L248 679 Q226 677 220 663.5 Q214 650 214 606 L214 124 Z M29 876 L322 876 L322 815 L29 815 L29 876 Z " />
<glyph glyph-name="imacron" unicode="&#x12b;" horiz-adv-x="311" d="M11 692 L264 692 L264 629 L11 629 L11 692 Z M196 120 Q196 96 197 81.5 Q198 67 201.5 58.5 Q205 50 211.5 47 Q218 44 230 42 L272 36 L272 0 L49 0 L49 36 L88 42 Q102 44 109.5 47.5 Q117 51 121 59.5 Q125 68 126 82 Q127 96 127 120 L127 403 Q127 438 116.5 450.5 Q106 463 79 467 L43 473 L48 507 L180 523 L196 515 L196 120 Z " />
<glyph glyph-name="Ibreve" unicode="&#x12c;" horiz-adv-x="355" d="M214 124 Q214 100 215 85 Q216 70 219.5 62 Q223 54 230.5 51 Q238 48 251 46 L296 39 L296 0 L57 0 L57 39 L103 46 Q116 48 123.5 50.5 Q131 53 135 61 Q139 69 140 83.5 Q141 98 141 123 L141 606 Q141 628 139.5 641.5 Q138 655 134 663 Q130 671 122 674.5 Q114 678 101 679 L58 685 L58 724 L294 724 L294 685 L248 679 Q226 677 220 663.5 Q214 650 214 606 L214 124 Z M330 911 Q315 851 279 816 Q243 781 176 781 Q109 781 75.5 818 Q42 855 28 911 L64 928 Q80 892 107.5 870 Q135 848 178 848 Q258 848 294 927 L330 911 Z " />
<glyph glyph-name="ibreve" unicode="&#x12d;" horiz-adv-x="314" d="M145 654 Q183 654 209 678.5 Q235 703 258 756 L295 742 Q279 670 239.5 628.5 Q200 587 145 587 Q82 587 46 627 Q10 667 -5 742 L32 757 Q52 703 79.5 678.5 Q107 654 145 654 Z M195 120 Q195 96 196 81.5 Q197 67 200.5 58.5 Q204 50 210.5 47 Q217 44 229 42 L271 36 L271 0 L48 0 L48 36 L87 42 Q101 44 108.5 47.5 Q116 51 120 59.5 Q124 68 125 82 Q126 96 126 120 L126 403 Q126 438 115.5 450.5 Q105 463 78 467 L42 473 L47 507 L179 523 L195 515 L195 120 Z " />
<glyph glyph-name="Iogonek" unicode="&#x12e;" horiz-adv-x="355" d="M268 -197 Q254 -205 231 -215 Q208 -225 176 -225 Q160 -225 142.5 -220.5 Q125 -216 110 -205.5 Q95 -195 85.5 -177.5 Q76 -160 76 -134 Q76 -95 100.5 -61.5 Q125 -28 168 0 L57 0 L57 39 L103 46 Q116 48 123.5 51 Q131 54 135 61.5 Q139 69 140 83.5 Q141 98 141 123 L141 606 Q141 628 139.5 641.5 Q138 655 134 663 Q130 671 122 674.5 Q114 678 101 679 L58 685 L58 724 L294 724 L294 685 L248 679 Q226 677 220 663.5 Q214 650 214 606 L214 124 Q214 100 215 85.5 Q216 71 219.5 62.5 Q223 54 230.5 51 Q238 48 251 46 L296 39 L296 0 L234 0 Q224 -11 209 -23 Q194 -35 180 -49.5 Q166 -64 155.5 -81 Q145 -98 145 -119 Q145 -141 158.5 -154.5 Q172 -168 200 -170 Q226 -171 257 -161 L268 -197 Z " />
<glyph glyph-name="iogonek" unicode="&#x12f;" horiz-adv-x="311" d="M256 -197 Q242 -205 219 -215 Q196 -225 164 -225 Q148 -225 130.5 -220.5 Q113 -216 98 -205.5 Q83 -195 73.5 -177.5 Q64 -160 64 -134 Q64 -95 88.5 -61.5 Q113 -28 156 0 L49 0 L49 36 L88 42 Q102 44 109.5 47.5 Q117 51 121 59.5 Q125 68 126 82 Q127 96 127 120 L127 403 Q127 438 116.5 450.5 Q106 463 79 467 L43 473 L48 507 L180 523 L196 515 L196 120 Q196 96 197 81.5 Q198 67 201.5 58.5 Q205 50 211.5 47 Q218 44 230 42 L272 36 L272 0 L225 0 Q209 -10 193 -23 Q177 -36 163.5 -51 Q150 -66 141.5 -83.5 Q133 -101 133 -119 Q133 -141 146.5 -154.5 Q160 -168 188 -170 Q214 -171 245 -161 L256 -197 Z M200 693 Q200 665 186 651 Q172 637 146 637 Q122 637 107 651 Q92 665 92 693 Q92 719 107 732.5 Q122 746 146 746 Q171 746 185.5 732.5 Q200 719 200 693 Z " />
<glyph glyph-name="Idotaccent" unicode="&#x130;" horiz-adv-x="355" d="M214 124 Q214 100 215 85 Q216 70 219.5 62 Q223 54 230.5 51 Q238 48 251 46 L296 39 L296 0 L57 0 L57 39 L103 46 Q116 48 123.5 50.5 Q131 53 135 61 Q139 69 140 83.5 Q141 98 141 123 L141 606 Q141 628 139.5 641.5 Q138 655 134 663 Q130 671 122 674.5 Q114 678 101 679 L58 685 L58 724 L294 724 L294 685 L248 679 Q226 677 220 663.5 Q214 650 214 606 L214 124 Z M234 851 Q234 796 177 796 Q151 796 136 810 Q121 824 121 851 Q121 878 136 891.5 Q151 905 177 905 Q204 905 219 891.5 Q234 878 234 851 Z " />
<glyph glyph-name="dotlessi" unicode="&#x131;" horiz-adv-x="310" d="M195 120 Q195 96 196 81.5 Q197 67 200.5 58.5 Q204 50 210.5 47 Q217 44 229 42 L271 36 L271 0 L48 0 L48 36 L87 42 Q101 44 108.5 47.5 Q116 51 120 59.5 Q124 68 125 82 Q126 96 126 120 L126 403 Q126 438 115.5 450.5 Q105 463 78 467 L42 473 L47 507 L179 523 L195 515 L195 120 Z " />
<glyph glyph-name="IJ" unicode="&#x132;" horiz-adv-x="831" d="M214 124 Q214 100 215 85 Q216 70 219.5 62 Q223 54 230.5 51 Q238 48 251 46 L296 39 L296 0 L57 0 L57 39 L103 46 Q116 48 123.5 50.5 Q131 53 135 61 Q139 69 140 83.5 Q141 98 141 123 L141 606 Q141 628 139.5 641.5 Q138 655 134 663 Q130 671 122 674.5 Q114 678 101 679 L58 685 L58 724 L294 724 L294 685 L248 679 Q226 677 220 663.5 Q214 650 214 606 L214 124 Z M399 156 L451 156 L460 108 Q464 90 469 77.5 Q474 65 483.5 56.5 Q493 48 508.5 44.5 Q524 41 548 41 Q572 41 591 46 Q610 51 622.5 64 Q635 77 641.5 99.5 Q648 122 648 157 L648 603 Q648 647 641 660.5 Q634 674 608 678 L541 684 L541 724 L803 724 L803 685 L759 680 Q736 678 728.5 664 Q721 650 721 606 L721 167 Q721 111 707 76.5 Q693 42 669.5 22.5 Q646 3 615 -4 Q584 -11 549 -11 Q506 -11 466 -0.5 Q426 10 409 22 L399 156 Z " />
<glyph glyph-name="ij" unicode="&#x133;" horiz-adv-x="594" d="M199 693 Q199 665 185 651 Q171 637 145 637 Q121 637 106 651 Q91 665 91 693 Q91 719 106 732.5 Q121 746 145 746 Q170 746 184.5 732.5 Q199 719 199 693 Z M195 120 Q195 96 196 81.5 Q197 67 200.5 58.5 Q204 50 210.5 47 Q217 44 229 42 L271 36 L271 0 L48 0 L48 36 L87 42 Q101 44 108.5 47.5 Q116 51 120 59.5 Q124 68 125 82 Q126 96 126 120 L126 403 Q126 438 115.5 450.5 Q105 463 78 467 L42 473 L47 507 L179 523 L195 515 L195 120 Z M499 122 Q499 60 493 16 Q487 -28 471 -62.5 Q455 -97 426 -126.5 Q397 -156 350 -189 L325 -154 Q352 -130 372 -107 Q392 -84 405 -56 Q418 -28 424 6 Q430 40 430 85 L430 403 Q430 438 419.5 450.5 Q409 463 382 467 L346 473 L351 507 L483 523 L499 515 L499 122 Z M507 693 Q507 665 493 651 Q479 637 453 637 Q429 637 414 651 Q399 665 399 693 Q399 719 414 732.5 Q429 746 453 746 Q478 746 492.5 732.5 Q507 719 507 693 Z " />
<glyph glyph-name="Jcircumflex" unicode="&#x134;" horiz-adv-x="476" d="M44 156 L96 156 L105 108 Q109 90 114 77.5 Q119 65 128.5 56.5 Q138 48 153.5 44.5 Q169 41 193 41 Q217 41 236 46 Q255 51 267.5 64 Q280 77 286.5 99.5 Q293 122 293 157 L293 603 Q293 647 286 660.5 Q279 674 253 678 L186 684 L186 724 L448 724 L448 685 L404 680 Q381 678 373.5 664 Q366 650 366 606 L366 167 Q366 111 352 76.5 Q338 42 314.5 22.5 Q291 3 260 -4 Q229 -11 194 -11 Q151 -11 111 -0.5 Q71 10 54 22 L44 156 Z M319 856 L186 775 L162 807 L287 924 L352 924 L477 806 L454 775 L319 856 Z " />
<glyph glyph-name="jcircumflex" unicode="&#x135;" horiz-adv-x="284" d="M189 122 Q189 60 183 16 Q177 -28 161 -62.5 Q145 -97 116 -126.5 Q87 -156 40 -189 L15 -154 Q42 -130 62 -107 Q82 -84 95 -56 Q108 -28 114 6 Q120 40 120 85 L120 403 Q120 438 109.5 450.5 Q99 463 72 467 L36 473 L41 507 L173 523 L189 515 L189 122 Z M159 765 L277 596 L245 572 L125 692 L6 572 L-26 596 L93 765 L159 765 Z " />
<glyph glyph-name="Kcommaaccent" unicode="&#x136;" horiz-adv-x="713" d="M215 361 L507 674 L507 677 L439 685 L439 724 L637 724 L637 685 L606 682 Q585 679 572.5 668.5 Q560 658 541 639 L348 429 L578 106 Q592 87 602 75 Q612 63 620 56.5 Q628 50 636.5 47.5 Q645 45 656 43 L686 39 L686 0 L448 0 L448 40 L524 48 L524 51 L296 378 L215 291 L215 123 Q215 99 215.5 84.5 Q216 70 220 61.5 Q224 53 231.5 50 Q239 47 252 45 L303 39 L303 0 L58 0 L58 39 L104 45 Q118 47 125.5 50.5 Q133 54 136.5 62 Q140 70 141 85 Q142 100 142 125 L142 602 Q142 646 136 661 Q130 676 104 679 L59 685 L59 724 L292 724 L292 685 L246 679 Q223 676 219 660.5 Q215 645 215 601 L215 361 Z M420 -133 Q420 -169 400 -212.5 Q380 -256 329 -288 L310 -265 Q333 -245 344.5 -224.5 Q356 -204 359 -178 Q329 -177 315 -161.5 Q301 -146 301 -123 Q301 -94 317.5 -81 Q334 -68 360 -68 Q386 -68 403 -83.5 Q420 -99 420 -133 Z " />
<glyph glyph-name="kcommaaccent" unicode="&#x137;" horiz-adv-x="571" d="M192 289 L396 465 L396 468 L328 476 L335 516 L532 516 L532 477 L507 474 Q496 472 488 469.5 Q480 467 472 463 Q464 459 455 452.5 Q446 446 433 435 L308 326 L452 110 Q475 74 492.5 59.5 Q510 45 530 41 L555 36 L555 0 L436 0 Q420 29 404.5 53.5 Q389 78 367 110 L253 280 L192 227 L192 120 Q192 96 193 81.5 Q194 67 197.5 58.5 Q201 50 207.5 47 Q214 44 226 42 L268 36 L268 0 L45 0 L45 36 L84 42 Q98 44 105.5 47.5 Q113 51 117 59.5 Q121 68 122 82 Q123 96 123 120 L123 626 Q123 655 114.5 669 Q106 683 77 688 L40 693 L46 728 L175 745 L192 733 L192 289 Z M368 -133 Q368 -169 348 -212.5 Q328 -256 277 -288 L258 -265 Q281 -245 292.5 -224.5 Q304 -204 307 -178 Q277 -177 263 -161.5 Q249 -146 249 -123 Q249 -94 265.5 -81 Q282 -68 308 -68 Q334 -68 351 -83.5 Q368 -99 368 -133 Z " />
<glyph glyph-name="kgreenlandic" unicode="&#x138;" horiz-adv-x="571" d="M192 279 L396 465 L396 468 L328 476 L335 516 L532 516 L532 477 L507 474 Q496 472 488 469.5 Q480 467 472 463 Q464 459 455 452.5 Q446 446 433 435 L308 316 L452 110 Q475 74 492.5 59.5 Q510 45 530 41 L555 36 L555 0 L436 0 Q420 29 404.5 53.5 Q389 78 367 110 L255 271 L192 217 L192 120 Q192 96 193 81.5 Q194 67 197.5 58.5 Q201 50 207.5 47 Q214 44 226 42 L268 36 L268 0 L45 0 L45 36 L84 42 Q98 44 105.5 47.5 Q113 51 117 59.5 Q121 68 122 82 Q123 96 123 120 L123 404 Q123 433 114.5 447 Q106 461 77 466 L40 471 L46 506 L175 523 L192 511 L192 279 Z " />
<glyph glyph-name="Lacute" unicode="&#x139;" horiz-adv-x="576" d="M214 51 L397 51 Q427 51 442.5 60.5 Q458 70 465 98 L490 196 L538 196 L523 0 L57 0 L57 39 L103 46 Q116 48 123.5 51 Q131 54 135 62 Q139 70 140 84.5 Q141 99 141 124 L141 606 Q141 628 139.5 641.5 Q138 655 133.5 663 Q129 671 121 674.5 Q113 678 100 680 L58 685 L58 724 L307 724 L307 685 L252 679 Q227 676 220.5 662 Q214 648 214 604 L214 51 Z M102 778 L85 809 L263 928 L318 873 L318 859 L102 778 Z " />
<glyph glyph-name="lacute" unicode="&#x13a;" horiz-adv-x="311" d="M195 120 Q195 97 196 82.5 Q197 68 200 59.5 Q203 51 210 47.5 Q217 44 229 42 L270 36 L270 0 L48 0 L48 36 L87 42 Q101 44 108.5 47.5 Q116 51 120 59.5 Q124 68 125 82 Q126 96 126 120 L126 626 Q126 658 117.5 670.5 Q109 683 80 688 L43 693 L49 728 L177 745 L195 733 L195 120 Z M63 798 L46 829 L224 948 L279 893 L279 879 L63 798 Z " />
<glyph glyph-name="Lcommaaccent" unicode="&#x13b;" horiz-adv-x="576" d="M214 51 L397 51 Q427 51 442.5 60.5 Q458 70 465 98 L490 196 L538 196 L523 0 L57 0 L57 39 L103 46 Q116 48 123.5 51 Q131 54 135 62 Q139 70 140 84.5 Q141 99 141 124 L141 606 Q141 628 139.5 641.5 Q138 655 133.5 663 Q129 671 121 674.5 Q113 678 100 680 L58 685 L58 724 L307 724 L307 685 L252 679 Q227 676 220.5 662 Q214 648 214 604 L214 51 Z M371 -133 Q371 -169 351 -212.5 Q331 -256 280 -288 L261 -265 Q284 -245 295.5 -224.5 Q307 -204 310 -178 Q280 -177 266 -161.5 Q252 -146 252 -123 Q252 -94 268.5 -81 Q285 -68 311 -68 Q337 -68 354 -83.5 Q371 -99 371 -133 Z " />
<glyph glyph-name="lcommaaccent" unicode="&#x13c;" horiz-adv-x="311" d="M195 120 Q195 97 196 82.5 Q197 68 200 59.5 Q203 51 210 47.5 Q217 44 229 42 L270 36 L270 0 L48 0 L48 36 L87 42 Q101 44 108.5 47.5 Q116 51 120 59.5 Q124 68 125 82 Q126 96 126 120 L126 626 Q126 658 117.5 670.5 Q109 683 80 688 L43 693 L49 728 L177 745 L195 733 L195 120 Z M215 -133 Q215 -169 195 -212.5 Q175 -256 124 -288 L105 -265 Q128 -245 139.5 -224.5 Q151 -204 154 -178 Q124 -177 110 -161.5 Q96 -146 96 -123 Q96 -94 112.5 -81 Q129 -68 155 -68 Q181 -68 198 -83.5 Q215 -99 215 -133 Z " />
<glyph glyph-name="Lcaron" unicode="&#x13d;" horiz-adv-x="576" d="M214 51 L397 51 Q427 51 442.5 60.5 Q458 70 465 98 L490 196 L538 196 L523 0 L57 0 L57 39 L103 46 Q116 48 123.5 51 Q131 54 135 62 Q139 70 140 84.5 Q141 99 141 124 L141 606 Q141 628 139.5 641.5 Q138 655 133.5 663 Q129 671 121 674.5 Q113 678 100 680 L58 685 L58 724 L307 724 L307 685 L252 679 Q227 676 220.5 662 Q214 648 214 604 L214 51 Z M356 540 Q363 570 367 600.5 Q371 631 372 658 Q373 681 371 705 Q369 729 363 752 L434 769 L446 765 Q448 760 449 749.5 Q450 739 450 729 Q450 681 432.5 629.5 Q415 578 388 529 L356 540 Z " />
<glyph glyph-name="lcaron" unicode="&#x13e;" horiz-adv-x="349" d="M195 120 Q195 97 196 82.5 Q197 68 200 59.5 Q203 51 210 47.5 Q217 44 229 42 L270 36 L270 0 L48 0 L48 36 L87 42 Q101 44 108.5 47.5 Q116 51 120 59.5 Q124 68 125 82 Q126 96 126 120 L126 626 Q126 658 117.5 670.5 Q109 683 80 688 L43 693 L49 728 L177 745 L195 733 L195 120 Z M256 530 Q263 560 267 590.5 Q271 621 272 648 Q273 671 271 695 Q269 719 263 742 L334 759 L346 755 Q348 750 349 739.5 Q350 729 350 719 Q350 671 332.5 619.5 Q315 568 288 519 L256 530 Z " />
<glyph glyph-name="Ldot" unicode="&#x13f;" horiz-adv-x="576" d="M214 51 L397 51 Q427 51 442.5 60.5 Q458 70 465 98 L490 196 L538 196 L523 0 L57 0 L57 39 L103 46 Q116 48 123.5 51 Q131 54 135 62 Q139 70 140 84.5 Q141 99 141 124 L141 606 Q141 628 139.5 641.5 Q138 655 133.5 663 Q129 671 121 674.5 Q113 678 100 680 L58 685 L58 724 L307 724 L307 685 L252 679 Q227 676 220.5 662 Q214 648 214 604 L214 51 Z M499 405 Q499 354 446 354 Q421 354 407 367 Q393 380 393 405 Q393 431 407 443.5 Q421 456 446 456 Q499 456 499 405 Z " />
<glyph glyph-name="ldot" unicode="&#x140;" horiz-adv-x="319" d="M195 120 Q195 97 196 82.5 Q197 68 200 59.5 Q203 51 210 47.5 Q217 44 229 42 L270 36 L270 0 L48 0 L48 36 L87 42 Q101 44 108.5 47.5 Q116 51 120 59.5 Q124 68 125 82 Q126 96 126 120 L126 626 Q126 658 117.5 670.5 Q109 683 80 688 L43 693 L49 728 L177 745 L195 733 L195 120 Z M371 371 Q371 320 318 320 Q293 320 279 333 Q265 346 265 371 Q265 397 279 409.5 Q293 422 318 422 Q371 422 371 371 Z " />
<glyph glyph-name="Lslash" unicode="&#x141;" horiz-adv-x="576" d="M214 384 L410 467 L410 415 L214 333 L214 51 L397 51 Q427 51 442.5 60.5 Q458 70 465 98 L490 196 L536 196 L523 0 L57 0 L57 39 L103 46 Q116 48 123.5 51 Q131 54 135 62 Q139 70 140 84.5 Q141 99 141 124 L141 306 L63 273 L63 324 L141 357 L141 606 Q141 628 139.5 641.5 Q138 655 133.5 663 Q129 671 121 674.5 Q113 678 100 680 L58 685 L58 724 L307 724 L307 685 L252 679 Q227 676 220.5 662 Q214 648 214 604 L214 384 Z " />
<glyph glyph-name="lslash" unicode="&#x142;" horiz-adv-x="311" d="M195 435 L282 476 L282 423 L195 382 L195 120 Q195 96 196 81.5 Q197 67 200.5 58.5 Q204 50 210.5 47 Q217 44 229 42 L270 36 L270 0 L48 0 L48 36 L87 42 Q102 44 109.5 48 Q117 52 121 62 Q125 72 125.5 90 Q126 108 126 138 L126 358 L40 319 L40 370 L126 410 L126 627 Q126 656 117.5 670 Q109 684 80 688 L43 693 L49 728 L177 745 L195 733 L195 435 Z " />
<glyph glyph-name="Nacute" unicode="&#x143;" horiz-adv-x="766" d="M581 101 L584 101 L584 610 Q584 651 577.5 664.5 Q571 678 546 680 L504 685 L504 724 L723 724 L723 685 L678 680 Q654 677 647 665 Q640 653 640 615 L640 0 L554 0 L203 627 L199 627 L199 115 Q199 94 200 81 Q201 68 204.5 60 Q208 52 215 49 Q222 46 234 44 L276 39 L276 0 L59 0 L59 39 L105 44 Q118 46 125.5 49 Q133 52 137 60 Q141 68 142 83 Q143 98 143 122 L143 605 Q143 649 136 663.5 Q129 678 103 680 L60 685 L60 724 L233 724 L581 101 Z M315 778 L298 809 L476 928 L531 873 L531 859 L315 778 Z " />
<glyph glyph-name="nacute" unicode="&#x144;" horiz-adv-x="634" d="M195 121 Q195 97 195.5 82 Q196 67 199.5 59 Q203 51 210 47.5 Q217 44 230 42 L266 36 L266 0 L48 0 L48 36 L86 42 Q100 44 107.5 47.5 Q115 51 119.5 59 Q124 67 125 81.5 Q126 96 126 121 L126 398 Q126 433 116.5 448 Q107 463 82 467 L41 473 L46 508 L165 523 L180 517 L189 447 Q236 489 279.5 508.5 Q323 528 374 528 Q406 528 434 519.5 Q462 511 483 490.5 Q504 470 516 435 Q528 400 528 346 L528 121 Q528 97 529 82.5 Q530 68 534 59.5 Q538 51 545 47.5 Q552 44 565 42 L607 36 L607 0 L389 0 L389 36 L426 42 Q438 44 444.5 47 Q451 50 454 58 Q457 66 458 80.5 Q459 95 459 118 L459 339 Q459 405 433 436 Q407 467 353 467 Q313 467 273 451 Q233 435 195 407 L195 121 Z M262 568 L232 591 L366 770 L438 734 L438 721 L262 568 Z " />
<glyph glyph-name="Ncommaaccent" unicode="&#x145;" horiz-adv-x="766" d="M581 101 L584 101 L584 610 Q584 651 577.5 664.5 Q571 678 546 680 L504 685 L504 724 L723 724 L723 685 L678 680 Q654 677 647 665 Q640 653 640 615 L640 0 L554 0 L203 627 L199 627 L199 115 Q199 94 200 81 Q201 68 204.5 60 Q208 52 215 49 Q222 46 234 44 L276 39 L276 0 L59 0 L59 39 L105 44 Q118 46 125.5 49 Q133 52 137 60 Q141 68 142 83 Q143 98 143 122 L143 605 Q143 649 136 663.5 Q129 678 103 680 L60 685 L60 724 L233 724 L581 101 Z M455 -133 Q455 -171 434.5 -213.5 Q414 -256 362 -288 L343 -265 Q366 -245 377 -224.5 Q388 -204 391 -178 Q361 -177 346.5 -161.5 Q332 -146 332 -123 Q332 -94 349 -81 Q366 -68 393 -68 Q420 -68 437.5 -83.5 Q455 -99 455 -133 Z " />
<glyph glyph-name="ncommaaccent" unicode="&#x146;" horiz-adv-x="634" d="M195 121 Q195 97 195.5 82 Q196 67 199.5 59 Q203 51 210 47.5 Q217 44 230 42 L266 36 L266 0 L48 0 L48 36 L86 42 Q100 44 107.5 47.5 Q115 51 119.5 59 Q124 67 125 81.5 Q126 96 126 121 L126 398 Q126 433 116.5 448 Q107 463 82 467 L41 473 L46 508 L165 523 L180 517 L189 447 Q236 489 279.5 508.5 Q323 528 374 528 Q406 528 434 519.5 Q462 511 483 490.5 Q504 470 516 435 Q528 400 528 346 L528 121 Q528 97 529 82.5 Q530 68 534 59.5 Q538 51 545 47.5 Q552 44 565 42 L607 36 L607 0 L389 0 L389 36 L426 42 Q438 44 444.5 47 Q451 50 454 58 Q457 66 458 80.5 Q459 95 459 118 L459 339 Q459 405 433 436 Q407 467 353 467 Q313 467 273 451 Q233 435 195 407 L195 121 Z M385 -133 Q385 -169 365 -212.5 Q345 -256 294 -288 L275 -265 Q298 -245 309.5 -224.5 Q321 -204 324 -178 Q294 -177 280 -161.5 Q266 -146 266 -123 Q266 -94 282.5 -81 Q299 -68 325 -68 Q351 -68 368 -83.5 Q385 -99 385 -133 Z " />
<glyph glyph-name="Ncaron" unicode="&#x147;" horiz-adv-x="766" d="M581 101 L584 101 L584 610 Q584 651 577.5 664.5 Q571 678 546 680 L504 685 L504 724 L723 724 L723 685 L678 680 Q654 677 647 665 Q640 653 640 615 L640 0 L554 0 L203 627 L199 627 L199 115 Q199 94 200 81 Q201 68 204.5 60 Q208 52 215 49 Q222 46 234 44 L276 39 L276 0 L59 0 L59 39 L105 44 Q118 46 125.5 49 Q133 52 137 60 Q141 68 142 83 Q143 98 143 122 L143 605 Q143 649 136 663.5 Q129 678 103 680 L60 685 L60 724 L233 724 L581 101 Z M526 929 L548 900 L423 781 L360 781 L237 900 L261 930 L392 850 L526 929 Z " />
<glyph glyph-name="ncaron" unicode="&#x148;" horiz-adv-x="634" d="M195 121 Q195 97 195.5 82 Q196 67 199.5 59 Q203 51 210 47.5 Q217 44 230 42 L266 36 L266 0 L48 0 L48 36 L86 42 Q100 44 107.5 47.5 Q115 51 119.5 59 Q124 67 125 81.5 Q126 96 126 121 L126 398 Q126 433 116.5 448 Q107 463 82 467 L41 473 L46 508 L165 523 L180 517 L189 447 Q236 489 279.5 508.5 Q323 528 374 528 Q406 528 434 519.5 Q462 511 483 490.5 Q504 470 516 435 Q528 400 528 346 L528 121 Q528 97 529 82.5 Q530 68 534 59.5 Q538 51 545 47.5 Q552 44 565 42 L607 36 L607 0 L389 0 L389 36 L426 42 Q438 44 444.5 47 Q451 50 454 58 Q457 66 458 80.5 Q459 95 459 118 L459 339 Q459 405 433 436 Q407 467 353 467 Q313 467 273 451 Q233 435 195 407 L195 121 Z M279 586 L163 753 L194 778 L313 656 L432 776 L462 752 L345 586 L279 586 Z " />
<glyph glyph-name="Eng" unicode="&#x14a;" horiz-adv-x="764" d="M579 101 L582 101 L582 610 Q582 651 575.5 664.5 Q569 678 544 680 L502 685 L502 724 L721 724 L721 685 L676 680 Q653 677 645.5 665 Q638 653 638 615 L638 37 Q638 -13 628 -52 Q618 -91 599 -121.5 Q580 -152 552 -177 Q524 -202 488 -224 L464 -186 Q512 -148 531.5 -104.5 Q551 -61 552 0 L201 627 L197 627 L197 115 Q197 94 198 81 Q199 68 202.5 60 Q206 52 213 49 Q220 46 232 44 L274 39 L274 0 L57 0 L57 39 L103 44 Q118 46 125.5 50 Q133 54 136.5 65.5 Q140 77 140.5 97.5 Q141 118 141 152 L141 605 Q141 649 134 663.5 Q127 678 101 680 L58 685 L58 724 L231 724 L579 101 Z " />
<glyph glyph-name="eng" unicode="&#x14b;" horiz-adv-x="628" d="M528 121 Q528 59 522 15.5 Q516 -28 500 -62.5 Q484 -97 455 -126.5 Q426 -156 379 -189 L354 -154 Q381 -130 401 -107 Q421 -84 434 -56 Q447 -28 453 6 Q459 40 459 85 L459 339 Q459 405 433 436 Q407 467 353 467 Q313 467 273 451 Q233 435 195 407 L195 121 Q195 97 195.5 82 Q196 67 199.5 59 Q203 51 210 47.5 Q217 44 230 42 L266 36 L266 0 L48 0 L48 36 L86 42 Q100 44 107.5 47.5 Q115 51 119.5 59 Q124 67 125 81.5 Q126 96 126 121 L126 398 Q126 433 116.5 448 Q107 463 82 467 L41 473 L46 508 L165 523 L180 517 L189 447 Q236 489 279.5 508.5 Q323 528 374 528 Q406 528 434 519.5 Q462 511 483 490.5 Q504 470 516 435 Q528 400 528 346 L528 121 Z " />
<glyph glyph-name="Omacron" unicode="&#x14c;" horiz-adv-x="687" d="M338 -11 Q257 -11 202 18 Q147 47 113.5 96.5 Q80 146 65 211.5 Q50 277 50 351 Q50 431 67.5 501.5 Q85 572 122 624.5 Q159 677 217 707 Q275 737 357 737 Q434 737 487.5 708 Q541 679 574 629.5 Q607 580 621.5 513.5 Q636 447 636 371 Q636 289 619.5 219 Q603 149 567 98 Q531 47 474.5 18 Q418 -11 338 -11 Z M342 42 Q386 42 425.5 58 Q465 74 495 111.5 Q525 149 542.5 210.5 Q560 272 560 364 Q560 454 544 515 Q528 576 500 613.5 Q472 651 433.5 667 Q395 683 350 683 Q305 683 264.5 667 Q224 651 193.5 613 Q163 575 144.5 513 Q126 451 126 358 Q126 265 143.5 204 Q161 143 190.5 107 Q220 71 259 56.5 Q298 42 342 42 Z M205 874 L498 874 L498 813 L205 813 L205 874 Z " />
<glyph glyph-name="omacron" unicode="&#x14d;" horiz-adv-x="547" d="M270 -11 Q213 -11 170.5 8 Q128 27 100.5 62.5 Q73 98 59.5 147.5 Q46 197 46 258 Q46 385 107.5 456.5 Q169 528 278 528 Q337 528 379 508.5 Q421 489 448 453.5 Q475 418 487.5 368.5 Q500 319 500 258 Q500 197 485 147 Q470 97 441 62 Q412 27 369 8 Q326 -11 270 -11 Z M273 39 Q343 39 384.5 92 Q426 145 426 260 Q426 369 387 423.5 Q348 478 276 478 Q198 478 159 421.5 Q120 365 120 259 Q120 147 160.5 93 Q201 39 273 39 Z M133 690 L418 690 L418 630 L133 630 L133 690 Z " />
<glyph glyph-name="Obreve" unicode="&#x14e;" horiz-adv-x="687" d="M338 -11 Q257 -11 202 18 Q147 47 113.5 96.5 Q80 146 65 211.5 Q50 277 50 351 Q50 431 67.5 501.5 Q85 572 122 624.5 Q159 677 217 707 Q275 737 357 737 Q434 737 487.5 708 Q541 679 574 629.5 Q607 580 621.5 513.5 Q636 447 636 371 Q636 289 619.5 219 Q603 149 567 98 Q531 47 474.5 18 Q418 -11 338 -11 Z M342 42 Q386 42 425.5 58 Q465 74 495 111.5 Q525 149 542.5 210.5 Q560 272 560 364 Q560 454 544 515 Q528 576 500 613.5 Q472 651 433.5 667 Q395 683 350 683 Q305 683 264.5 667 Q224 651 193.5 613 Q163 575 144.5 513 Q126 451 126 358 Q126 265 143.5 204 Q161 143 190.5 107 Q220 71 259 56.5 Q298 42 342 42 Z M506 917 Q491 857 455 822 Q419 787 352 787 Q285 787 251.5 824 Q218 861 204 917 L240 934 Q256 898 283.5 876 Q311 854 354 854 Q434 854 470 933 L506 917 Z " />
<glyph glyph-name="obreve" unicode="&#x14f;" horiz-adv-x="547" d="M270 -11 Q213 -11 170.5 8 Q128 27 100.5 62.5 Q73 98 59.5 147.5 Q46 197 46 258 Q46 385 107.5 456.5 Q169 528 278 528 Q337 528 379 508.5 Q421 489 448 453.5 Q475 418 487.5 368.5 Q500 319 500 258 Q500 197 485 147 Q470 97 441 62 Q412 27 369 8 Q326 -11 270 -11 Z M273 39 Q343 39 384.5 92 Q426 145 426 260 Q426 369 387 423.5 Q348 478 276 478 Q198 478 159 421.5 Q120 365 120 259 Q120 147 160.5 93 Q201 39 273 39 Z M279 654 Q317 654 343 678.5 Q369 703 392 756 L429 742 Q413 670 373.5 628.5 Q334 587 279 587 Q216 587 180 627 Q144 667 129 742 L166 757 Q186 703 213.5 678.5 Q241 654 279 654 Z " />
<glyph glyph-name="Ohungarumlaut" unicode="&#x150;" horiz-adv-x="687" d="M338 -11 Q257 -11 202 18 Q147 47 113.5 96.5 Q80 146 65 211.5 Q50 277 50 351 Q50 431 67.5 501.5 Q85 572 122 624.5 Q159 677 217 707 Q275 737 357 737 Q434 737 487.5 708 Q541 679 574 629.5 Q607 580 621.5 513.5 Q636 447 636 371 Q636 289 619.5 219 Q603 149 567 98 Q531 47 474.5 18 Q418 -11 338 -11 Z M342 42 Q386 42 425.5 58 Q465 74 495 111.5 Q525 149 542.5 210.5 Q560 272 560 364 Q560 454 544 515 Q528 576 500 613.5 Q472 651 433.5 667 Q395 683 350 683 Q305 683 264.5 667 Q224 651 193.5 613 Q163 575 144.5 513 Q126 451 126 358 Q126 265 143.5 204 Q161 143 190.5 107 Q220 71 259 56.5 Q298 42 342 42 Z M264 783 L238 809 L380 975 L438 925 L438 916 L264 783 Z M421 777 L397 805 L548 965 L601 912 L601 903 L421 777 Z " />
<glyph glyph-name="ohungarumlaut" unicode="&#x151;" horiz-adv-x="547" d="M270 -11 Q213 -11 170.5 8 Q128 27 100.5 62.5 Q73 98 59.5 147.5 Q46 197 46 258 Q46 385 107.5 456.5 Q169 528 278 528 Q337 528 379 508.5 Q421 489 448 453.5 Q475 418 487.5 368.5 Q500 319 500 258 Q500 197 485 147 Q470 97 441 62 Q412 27 369 8 Q326 -11 270 -11 Z M273 39 Q343 39 384.5 92 Q426 145 426 260 Q426 369 387 423.5 Q348 478 276 478 Q198 478 159 421.5 Q120 365 120 259 Q120 147 160.5 93 Q201 39 273 39 Z M206 571 L175 589 L297 784 L370 760 L372 749 L206 571 Z M344 568 L316 589 L454 772 L525 740 L526 729 L344 568 Z " />
<glyph glyph-name="OE" unicode="&#x152;" horiz-adv-x="1004" d="M928 546 L884 547 L863 618 Q855 648 841 660.5 Q827 673 795 673 L536 673 Q562 649 580.5 617 Q599 585 610.5 548.5 Q622 512 628 472.5 Q634 433 635 394 L860 394 L860 343 L635 343 Q631 249 604 173.5 Q577 98 523 51 L815 51 Q845 51 858 62.5 Q871 74 879 103 L901 184 L946 184 L935 0 L480 0 Q446 -3 415.5 -7 Q385 -11 338 -11 Q257 -11 202 18 Q147 47 113.5 96.5 Q80 146 65 211.5 Q50 277 50 351 Q50 431 67.5 501.5 Q85 572 122 624.5 Q159 677 217 707 Q275 737 357 737 Q389 737 413 732.5 Q437 728 456 724 L919 724 L928 546 Z M342 42 Q385 42 424 57.5 Q463 73 493 109.5 Q523 146 541 206 Q559 266 560 355 Q560 447 544.5 510 Q529 573 501.5 611.5 Q474 650 435.5 666.5 Q397 683 350 683 Q306 683 265.5 667 Q225 651 194 613 Q163 575 144.5 513 Q126 451 126 358 Q126 265 143.5 204 Q161 143 190.5 107 Q220 71 259.5 56.5 Q299 42 342 42 Z " />
<glyph glyph-name="oe" unicode="&#x153;" horiz-adv-x="885" d="M833 46 Q795 19 752 4 Q709 -11 656 -11 Q585 -11 537 18 Q489 47 463 101 Q437 46 388 17.5 Q339 -11 270 -11 Q213 -11 170.5 8 Q128 27 100.5 62.5 Q73 98 59.5 147.5 Q46 197 46 258 Q46 385 107.5 456.5 Q169 528 278 528 Q348 528 394 500 Q440 472 465 418 Q494 477 543.5 502.5 Q593 528 651 528 Q693 528 728 515 Q763 502 789 474 Q815 446 829.5 402 Q844 358 844 297 Q844 266 841 246 L501 246 Q501 205 511.5 169 Q522 133 542.5 106 Q563 79 594 63.5 Q625 48 668 48 Q713 48 744 56.5 Q775 65 812 85 L833 46 Z M273 39 Q343 39 384.5 92 Q426 145 426 260 Q426 369 387 423.5 Q348 478 276 478 Q198 478 159 421.5 Q120 365 120 259 Q120 147 160.5 93 Q201 39 273 39 Z M771 294 Q775 384 742 431.5 Q709 479 646 479 Q582 479 544 433.5 Q506 388 501 294 L771 294 Z " />
<glyph glyph-name="Racute" unicode="&#x154;" horiz-adv-x="666" d="M660 12 Q644 1 623 -5 Q602 -11 583 -11 Q534 -11 508 14.5 Q482 40 462 101 Q442 162 430 202.5 Q418 243 403.5 267.5 Q389 292 367.5 302 Q346 312 306 312 L214 312 L214 125 Q214 101 215 86 Q216 71 220.5 62.5 Q225 54 233.5 50.5 Q242 47 257 45 L305 40 L305 0 L57 0 L57 39 L103 44 Q117 46 124.5 49 Q132 52 135.5 60.5 Q139 69 140 84.5 Q141 100 141 125 L141 605 Q141 647 133.5 662 Q126 677 100 680 L58 685 L58 724 L335 724 Q446 724 505 676.5 Q564 629 564 526 Q564 489 551.5 458.5 Q539 428 517.5 404 Q496 380 467 363.5 Q438 347 406 339 Q444 327 465 304 Q486 281 498 246 L540 120 Q554 76 570 60.5 Q586 45 617 43 Q625 42 636 43 Q647 44 657 44 L660 12 Z M214 364 L306 364 Q394 364 441 405 Q488 446 488 528 Q488 567 475.5 594.5 Q463 622 441 639 Q419 656 389.5 663.5 Q360 671 326 671 L214 671 L214 364 Z M229 778 L212 809 L390 928 L445 873 L445 859 L229 778 Z " />
<glyph glyph-name="racute" unicode="&#x155;" horiz-adv-x="422" d="M195 121 Q195 97 196 82 Q197 67 201 59 Q205 51 212 48 Q219 45 231 43 L291 35 L291 0 L50 0 L50 36 L86 42 Q100 44 107.5 47 Q115 50 119.5 58 Q124 66 125 80.5 Q126 95 126 121 L126 398 Q126 433 116.5 448 Q107 463 82 467 L41 473 L46 508 L165 523 L180 517 L190 444 Q216 478 250 503 Q284 528 332 528 Q345 528 361 525.5 Q377 523 391 515 L386 437 L375 437 Q352 448 333 453 Q314 458 299 458 Q268 458 242.5 440.5 Q217 423 195 398 L195 121 Z M196 568 L166 591 L300 770 L372 734 L372 721 L196 568 Z " />
<glyph glyph-name="Rcommaaccent" unicode="&#x156;" horiz-adv-x="666" d="M660 12 Q644 1 623 -5 Q602 -11 583 -11 Q534 -11 508 14.5 Q482 40 462 101 Q442 162 430 202.5 Q418 243 403.5 267.5 Q389 292 367.5 302 Q346 312 306 312 L214 312 L214 125 Q214 101 215 86 Q216 71 220.5 62.5 Q225 54 233.5 50.5 Q242 47 257 45 L305 40 L305 0 L57 0 L57 39 L103 44 Q117 46 124.5 49 Q132 52 135.5 60.5 Q139 69 140 84.5 Q141 100 141 125 L141 605 Q141 647 133.5 662 Q126 677 100 680 L58 685 L58 724 L335 724 Q446 724 505 676.5 Q564 629 564 526 Q564 489 551.5 458.5 Q539 428 517.5 404 Q496 380 467 363.5 Q438 347 406 339 Q444 327 465 304 Q486 281 498 246 L540 120 Q554 76 570 60.5 Q586 45 617 43 Q625 42 636 43 Q647 44 657 44 L660 12 Z M214 364 L306 364 Q394 364 441 405 Q488 446 488 528 Q488 567 475.5 594.5 Q463 622 441 639 Q419 656 389.5 663.5 Q360 671 326 671 L214 671 L214 364 Z M414 -133 Q414 -171 393.5 -213.5 Q373 -256 321 -288 L302 -265 Q325 -245 336 -224.5 Q347 -204 350 -178 Q320 -177 305.5 -161.5 Q291 -146 291 -123 Q291 -94 308 -81 Q325 -68 352 -68 Q379 -68 396.5 -83.5 Q414 -99 414 -133 Z " />
<glyph glyph-name="rcommaaccent" unicode="&#x157;" horiz-adv-x="422" d="M195 121 Q195 97 196 82 Q197 67 201 59 Q205 51 212 48 Q219 45 231 43 L291 35 L291 0 L50 0 L50 36 L86 42 Q100 44 107.5 47 Q115 50 119.5 58 Q124 66 125 80.5 Q126 95 126 121 L126 398 Q126 433 116.5 448 Q107 463 82 467 L41 473 L46 508 L165 523 L180 517 L190 444 Q216 478 250 503 Q284 528 332 528 Q345 528 361 525.5 Q377 523 391 515 L386 437 L375 437 Q352 448 333 453 Q314 458 299 458 Q268 458 242.5 440.5 Q217 423 195 398 L195 121 Z M216 -133 Q216 -169 196 -212.5 Q176 -256 125 -288 L106 -265 Q129 -245 140.5 -224.5 Q152 -204 155 -178 Q125 -177 111 -161.5 Q97 -146 97 -123 Q97 -94 113.5 -81 Q130 -68 156 -68 Q182 -68 199 -83.5 Q216 -99 216 -133 Z " />
<glyph glyph-name="Rcaron" unicode="&#x158;" horiz-adv-x="666" d="M660 12 Q644 1 623 -5 Q602 -11 583 -11 Q534 -11 508 14.5 Q482 40 462 101 Q442 162 430 202.5 Q418 243 403.5 267.5 Q389 292 367.5 302 Q346 312 306 312 L214 312 L214 125 Q214 101 215 86 Q216 71 220.5 62.5 Q225 54 233.5 50.5 Q242 47 257 45 L305 40 L305 0 L57 0 L57 39 L103 44 Q117 46 124.5 49 Q132 52 135.5 60.5 Q139 69 140 84.5 Q141 100 141 125 L141 605 Q141 647 133.5 662 Q126 677 100 680 L58 685 L58 724 L335 724 Q446 724 505 676.5 Q564 629 564 526 Q564 489 551.5 458.5 Q539 428 517.5 404 Q496 380 467 363.5 Q438 347 406 339 Q444 327 465 304 Q486 281 498 246 L540 120 Q554 76 570 60.5 Q586 45 617 43 Q625 42 636 43 Q647 44 657 44 L660 12 Z M214 364 L306 364 Q394 364 441 405 Q488 446 488 528 Q488 567 475.5 594.5 Q463 622 441 639 Q419 656 389.5 663.5 Q360 671 326 671 L214 671 L214 364 Z M440 929 L462 900 L337 781 L274 781 L151 900 L175 930 L306 850 L440 929 Z " />
<glyph glyph-name="rcaron" unicode="&#x159;" horiz-adv-x="422" d="M195 121 Q195 97 196 82 Q197 67 201 59 Q205 51 212 48 Q219 45 231 43 L291 35 L291 0 L50 0 L50 36 L86 42 Q100 44 107.5 47 Q115 50 119.5 58 Q124 66 125 80.5 Q126 95 126 121 L126 398 Q126 433 116.5 448 Q107 463 82 467 L41 473 L46 508 L165 523 L180 517 L190 444 Q216 478 250 503 Q284 528 332 528 Q345 528 361 525.5 Q377 523 391 515 L386 437 L375 437 Q352 448 333 453 Q314 458 299 458 Q268 458 242.5 440.5 Q217 423 195 398 L195 121 Z M196 586 L80 753 L111 778 L230 656 L349 776 L379 752 L262 586 L196 586 Z " />
<glyph glyph-name="Sacute" unicode="&#x15a;" horiz-adv-x="532" d="M410 559 L397 627 Q394 642 388 653 Q382 664 369.5 670.5 Q357 677 337 680.5 Q317 684 287 684 Q209 684 170.5 648 Q132 612 132 558 Q132 508 158 480.5 Q184 453 223.5 436 Q263 419 309 405 Q355 391 394.5 368.5 Q434 346 460 308 Q486 270 486 204 Q486 138 461 96.5 Q436 55 398 31 Q360 7 315.5 -2 Q271 -11 232 -11 Q160 -11 113.5 2 Q67 15 41 29 L52 176 L96 176 L105 108 Q108 92 114 79 Q120 66 134.5 58 Q149 50 174 45.5 Q199 41 239 41 Q272 41 303.5 49 Q335 57 359.5 75 Q384 93 399 122 Q414 151 414 193 Q414 245 388 273.5 Q362 302 322.5 320 Q283 338 237 351.5 Q191 365 151.5 386.5 Q112 408 86 444 Q60 480 60 542 Q60 585 75 621 Q90 657 119.5 682.5 Q149 708 191.5 722.5 Q234 737 288 737 Q334 737 380 728 Q426 719 461 701 L455 555 L410 559 Z M207 778 L190 809 L368 928 L423 873 L423 859 L207 778 Z " />
<glyph glyph-name="sacute" unicode="&#x15b;" horiz-adv-x="466" d="M361 374 L347 434 Q342 454 325.5 466 Q309 478 262 478 Q238 478 216.5 473.5 Q195 469 179 459.5 Q163 450 153.5 434 Q144 418 144 395 Q144 361 165 343 Q186 325 217.5 313 Q249 301 285.5 292 Q322 283 353.5 267 Q385 251 406 224 Q427 197 427 149 Q427 77 375.5 33 Q324 -11 228 -11 Q174 -11 133 -0.5 Q92 10 66 24 L76 159 L119 159 L132 87 Q137 62 158.5 51 Q180 40 231 40 Q291 40 325 64 Q359 88 359 135 Q359 171 338 190 Q317 209 286 221 Q255 233 218.5 241.5 Q182 250 151 265.5 Q120 281 99 307.5 Q78 334 78 381 Q78 451 130 489.5 Q182 528 265 528 Q307 528 347.5 518.5 Q388 509 411 495 L406 367 L361 374 Z M207 568 L177 591 L311 770 L383 734 L383 721 L207 568 Z " />
<glyph glyph-name="Scircumflex" unicode="&#x15c;" horiz-adv-x="532" d="M410 559 L397 627 Q394 642 388 653 Q382 664 369.5 670.5 Q357 677 337 680.5 Q317 684 287 684 Q209 684 170.5 648 Q132 612 132 558 Q132 508 158 480.5 Q184 453 223.5 436 Q263 419 309 405 Q355 391 394.5 368.5 Q434 346 460 308 Q486 270 486 204 Q486 138 461 96.5 Q436 55 398 31 Q360 7 315.5 -2 Q271 -11 232 -11 Q160 -11 113.5 2 Q67 15 41 29 L52 176 L96 176 L105 108 Q108 92 114 79 Q120 66 134.5 58 Q149 50 174 45.5 Q199 41 239 41 Q272 41 303.5 49 Q335 57 359.5 75 Q384 93 399 122 Q414 151 414 193 Q414 245 388 273.5 Q362 302 322.5 320 Q283 338 237 351.5 Q191 365 151.5 386.5 Q112 408 86 444 Q60 480 60 542 Q60 585 75 621 Q90 657 119.5 682.5 Q149 708 191.5 722.5 Q234 737 288 737 Q334 737 380 728 Q426 719 461 701 L455 555 L410 559 Z M280 856 L147 775 L123 807 L248 924 L313 924 L438 806 L415 775 L280 856 Z " />
<glyph glyph-name="scircumflex" unicode="&#x15d;" horiz-adv-x="466" d="M361 374 L347 434 Q342 454 325.5 466 Q309 478 262 478 Q238 478 216.5 473.5 Q195 469 179 459.5 Q163 450 153.5 434 Q144 418 144 395 Q144 361 165 343 Q186 325 217.5 313 Q249 301 285.5 292 Q322 283 353.5 267 Q385 251 406 224 Q427 197 427 149 Q427 77 375.5 33 Q324 -11 228 -11 Q174 -11 133 -0.5 Q92 10 66 24 L76 159 L119 159 L132 87 Q137 62 158.5 51 Q180 40 231 40 Q291 40 325 64 Q359 88 359 135 Q359 171 338 190 Q317 209 286 221 Q255 233 218.5 241.5 Q182 250 151 265.5 Q120 281 99 307.5 Q78 334 78 381 Q78 451 130 489.5 Q182 528 265 528 Q307 528 347.5 518.5 Q388 509 411 495 L406 367 L361 374 Z M289 765 L407 596 L375 572 L255 692 L136 572 L104 596 L223 765 L289 765 Z " />
<glyph glyph-name="Scedilla" unicode="&#x15e;" horiz-adv-x="532" d="M168 -168 Q179 -172 194 -174 Q209 -176 221 -176 Q280 -176 280 -125 Q280 -102 260.5 -88.5 Q241 -75 206 -71 L222 -11 Q155 -9 111 3 Q67 15 41 29 L52 176 L96 176 L105 108 Q108 92 114 79 Q120 66 134.5 58 Q149 50 174 45.5 Q199 41 239 41 Q272 41 303.5 49 Q335 57 359.5 75 Q384 93 399 122 Q414 151 414 193 Q414 245 388 274 Q362 303 322.5 321 Q283 339 237 352.5 Q191 366 151.5 387.5 Q112 409 86 444.5 Q60 480 60 542 Q60 585 75 621 Q90 657 119.5 682.5 Q149 708 191.5 722.5 Q234 737 288 737 Q334 737 380 728 Q426 719 461 701 L455 555 L410 559 L397 627 Q394 642 388 653 Q382 664 369.5 670.5 Q357 677 337 680.5 Q317 684 287 684 Q209 684 170.5 648 Q132 612 132 558 Q132 508 158 480.5 Q184 453 223.5 435.5 Q263 418 309 405 Q355 392 394.5 369.5 Q434 347 460 308.5 Q486 270 486 204 Q486 146 466 106.5 Q446 67 414.5 42.5 Q383 18 344.5 6 Q306 -6 269 -9 L262 -37 Q277 -41 292 -47 Q307 -53 319 -63.5 Q331 -74 339 -89.5 Q347 -105 347 -126 Q347 -171 313 -197.5 Q279 -224 226 -224 Q203 -224 184 -219.5 Q165 -215 155 -210 L168 -168 Z " />
<glyph glyph-name="scedilla" unicode="&#x15f;" horiz-adv-x="466" d="M156 -168 Q167 -172 182 -174 Q197 -176 209 -176 Q269 -176 269 -125 Q269 -102 249 -88.5 Q229 -75 194 -71 L211 -10 Q163 -8 126.5 1.5 Q90 11 66 24 L76 159 L119 159 L132 87 Q137 62 158.5 51 Q180 40 231 40 Q291 40 325 64 Q359 88 359 135 Q359 171 338 190 Q317 209 286 221 Q255 233 218.5 241.5 Q182 250 151 265.5 Q120 281 99 307.5 Q78 334 78 381 Q78 451 130 489.5 Q182 528 265 528 Q307 528 347.5 518.5 Q388 509 411 495 L406 367 L361 374 L347 434 Q342 454 325.5 466 Q309 478 262 478 Q238 478 216.5 473.5 Q195 469 179 459.5 Q163 450 153.5 434 Q144 418 144 395 Q144 361 165 343 Q186 325 217.5 313 Q249 301 285.5 292 Q322 283 353.5 267 Q385 251 406 224 Q427 197 427 149 Q427 83 383 40.5 Q339 -2 257 -10 L250 -37 Q265 -41 280 -47 Q295 -53 307 -63.5 Q319 -74 327 -89.5 Q335 -105 335 -126 Q335 -171 301.5 -197.5 Q268 -224 214 -224 Q191 -224 172 -219.5 Q153 -215 143 -210 L156 -168 Z " />
<glyph glyph-name="Scaron" unicode="&#x160;" horiz-adv-x="532" d="M410 559 L397 627 Q394 642 388 653 Q382 664 369.5 670.5 Q357 677 337 680.5 Q317 684 287 684 Q209 684 170.5 648 Q132 612 132 558 Q132 508 158 480.5 Q184 453 223.5 436 Q263 419 309 405 Q355 391 394.5 368.5 Q434 346 460 308 Q486 270 486 204 Q486 138 461 96.5 Q436 55 398 31 Q360 7 315.5 -2 Q271 -11 232 -11 Q160 -11 113.5 2 Q67 15 41 29 L52 176 L96 176 L105 108 Q108 92 114 79 Q120 66 134.5 58 Q149 50 174 45.5 Q199 41 239 41 Q272 41 303.5 49 Q335 57 359.5 75 Q384 93 399 122 Q414 151 414 193 Q414 245 388 273.5 Q362 302 322.5 320 Q283 338 237 351.5 Q191 365 151.5 386.5 Q112 408 86 444 Q60 480 60 542 Q60 585 75 621 Q90 657 119.5 682.5 Q149 708 191.5 722.5 Q234 737 288 737 Q334 737 380 728 Q426 719 461 701 L455 555 L410 559 Z M412 929 L434 900 L309 781 L246 781 L123 900 L147 930 L278 850 L412 929 Z " />
<glyph glyph-name="scaron" unicode="&#x161;" horiz-adv-x="466" d="M361 374 L347 434 Q342 454 325.5 466 Q309 478 262 478 Q238 478 216.5 473.5 Q195 469 179 459.5 Q163 450 153.5 434 Q144 418 144 395 Q144 361 165 343 Q186 325 217.5 313 Q249 301 285.5 292 Q322 283 353.5 267 Q385 251 406 224 Q427 197 427 149 Q427 77 375.5 33 Q324 -11 228 -11 Q174 -11 133 -0.5 Q92 10 66 24 L76 159 L119 159 L132 87 Q137 62 158.5 51 Q180 40 231 40 Q291 40 325 64 Q359 88 359 135 Q359 171 338 190 Q317 209 286 221 Q255 233 218.5 241.5 Q182 250 151 265.5 Q120 281 99 307.5 Q78 334 78 381 Q78 451 130 489.5 Q182 528 265 528 Q307 528 347.5 518.5 Q388 509 411 495 L406 367 L361 374 Z M219 586 L103 753 L134 778 L253 656 L372 776 L402 752 L285 586 L219 586 Z " />
<glyph glyph-name="uni0162" unicode="&#x162;" horiz-adv-x="638" d="M234 -168 Q245 -172 260 -174 Q275 -176 287 -176 Q346 -176 346 -125 Q346 -102 326.5 -88.5 Q307 -75 272 -71 L291 0 L168 0 L168 39 L252 47 Q267 49 274.5 56.5 Q282 64 282 98 L282 672 L175 672 Q143 672 129 663 Q115 654 108 628 L86 546 L40 545 L50 724 L588 724 L597 545 L552 546 L530 626 Q522 651 509.5 661.5 Q497 672 468 672 L356 672 L356 98 Q356 64 363.5 56.5 Q371 49 386 47 L470 39 L470 0 L337 0 L328 -37 Q343 -41 358 -47 Q373 -53 385 -63.5 Q397 -74 405 -89.5 Q413 -105 413 -126 Q413 -171 379 -197.5 Q345 -224 292 -224 Q269 -224 250 -219.5 Q231 -215 221 -210 L234 -168 Z " />
<glyph glyph-name="uni0163" unicode="&#x163;" horiz-adv-x="368" d="M129 -168 Q140 -172 155 -174 Q170 -176 182 -176 Q242 -176 242 -125 Q242 -102 222 -88.5 Q202 -75 167 -71 L185 -7 Q147 1 128 31 Q109 61 109 120 L109 465 L24 465 L29 504 L111 516 L136 636 L178 636 L178 516 L315 516 L308 465 L178 465 L178 142 Q178 91 190.5 68 Q203 45 241 45 Q266 45 287.5 51.5 Q309 58 325 66 L343 26 Q320 11 291 1 Q262 -9 230 -11 L223 -37 Q238 -41 253 -47 Q268 -53 280 -63.5 Q292 -74 300 -89.5 Q308 -105 308 -126 Q308 -171 274.5 -197.5 Q241 -224 187 -224 Q164 -224 145 -219.5 Q126 -215 116 -210 L129 -168 Z " />
<glyph glyph-name="Tcaron" unicode="&#x164;" horiz-adv-x="638" d="M355 98 Q355 64 362.5 56.5 Q370 49 385 47 L469 39 L469 0 L168 0 L168 39 L252 47 Q267 49 274.5 56.5 Q282 64 282 98 L282 672 L175 672 Q143 672 129 663 Q115 654 108 628 L86 546 L40 545 L50 724 L587 724 L596 545 L551 546 L529 626 Q521 651 508.5 661.5 Q496 672 467 672 L355 672 L355 98 Z M453 929 L475 900 L350 781 L287 781 L164 900 L188 930 L319 850 L453 929 Z " />
<glyph glyph-name="tcaron" unicode="&#x165;" horiz-adv-x="368" d="M343 26 Q318 10 286.5 -0.5 Q255 -11 219 -11 Q165 -11 137 19 Q109 49 109 120 L109 465 L24 465 L29 504 L111 516 L136 636 L178 636 L178 516 L315 516 L308 465 L178 465 L178 142 Q178 91 190.5 68 Q203 45 241 45 Q266 45 287.5 51.5 Q309 58 325 66 L343 26 Z M265 573 Q272 603 276 633.5 Q280 664 281 691 Q282 714 280 738 Q278 762 272 785 L343 802 L355 798 Q357 793 358 782.5 Q359 772 359 762 Q359 714 341.5 662.5 Q324 611 297 562 L265 573 Z " />
<glyph glyph-name="Tbar" unicode="&#x166;" horiz-adv-x="638" d="M356 391 L476 391 L476 340 L356 340 L356 98 Q356 64 363.5 56.5 Q371 49 386 47 L470 39 L470 0 L168 0 L168 39 L252 47 Q267 49 274.5 56.5 Q282 64 282 98 L282 340 L156 340 L156 391 L282 391 L282 672 L175 672 Q145 672 130 663 Q115 654 108 628 L86 546 L40 545 L50 724 L588 724 L597 545 L552 546 L530 626 Q523 651 510 661.5 Q497 672 468 672 L356 672 L356 391 Z " />
<glyph glyph-name="tbar" unicode="&#x167;" horiz-adv-x="368" d="M29 310 L109 310 L109 465 L24 465 L29 504 L112 516 L133 631 L178 631 L178 516 L315 516 L308 465 L178 465 L178 310 L305 310 L305 261 L178 261 L178 142 Q178 91 190 68 Q202 45 240 45 Q264 45 286.5 51.5 Q309 58 325 66 L343 26 Q318 10 286.5 -0.5 Q255 -11 219 -11 Q155 -11 132 27 Q109 65 109 155 L109 261 L29 261 L29 310 Z " />
<glyph glyph-name="Utilde" unicode="&#x168;" horiz-adv-x="747" d="M564 620 Q564 639 562 650.5 Q560 662 555.5 668 Q551 674 542.5 676.5 Q534 679 521 681 L484 685 L484 724 L701 724 L701 685 L655 680 Q629 677 623.5 664.5 Q618 652 618 617 L618 244 Q618 177 599.5 129 Q581 81 548.5 50 Q516 19 471.5 4 Q427 -11 374 -11 Q294 -11 245.5 13 Q197 37 170.5 75.5 Q144 114 135.5 161.5 Q127 209 127 257 L127 607 Q127 630 125.5 643.5 Q124 657 118.5 664.5 Q113 672 103.5 675.5 Q94 679 78 681 L44 685 L44 724 L278 724 L278 685 L232 679 Q211 677 205.5 664 Q200 651 200 617 L200 260 Q200 152 240 97.5 Q280 43 377 43 Q464 43 514 92 Q564 141 564 256 L564 620 Z M303 886 Q316 886 342.5 880 Q369 874 396.5 867 Q424 860 447 854 Q470 848 476 848 Q484 848 493.5 854.5 Q503 861 521 885 L551 868 Q541 841 530.5 824 Q520 807 510.5 797.5 Q501 788 492 784.5 Q483 781 475 781 Q464 781 440 787 Q416 793 389 800.5 Q362 808 338 814 Q314 820 303 820 Q293 820 283.5 813 Q274 806 255 784 L227 800 Q248 847 265.5 866.5 Q283 886 303 886 Z " />
<glyph glyph-name="utilde" unicode="&#x169;" horiz-adv-x="629" d="M515 111 Q515 75 523.5 62 Q532 49 559 44 L593 38 L592 2 L491 -4 L465 -1 L452 72 Q414 37 369.5 13 Q325 -11 271 -11 Q241 -11 214 -3 Q187 5 166 25 Q145 45 133 79.5 Q121 114 121 167 L121 402 Q121 436 111 449.5 Q101 463 73 468 L37 473 L42 508 L175 523 L190 516 L190 176 Q190 119 211.5 84.5 Q233 50 288 50 Q330 50 369 68 Q408 86 446 116 L446 402 Q446 436 435.5 449.5 Q425 463 397 468 L361 473 L366 508 L499 523 L515 516 L515 111 Z M215 728 Q228 728 254.5 722 Q281 716 308.5 709 Q336 702 358.5 696 Q381 690 387 690 Q396 690 405 696.5 Q414 703 432 727 L463 710 Q453 683 442.5 666 Q432 649 422 639.5 Q412 630 403 626.5 Q394 623 386 623 Q376 623 351.5 629 Q327 635 300 642 Q273 649 249 655 Q225 661 214 661 Q204 661 194.5 654 Q185 647 167 626 L138 641 Q159 688 177 708 Q195 728 215 728 Z " />
<glyph glyph-name="Umacron" unicode="&#x16a;" horiz-adv-x="747" d="M564 620 Q564 639 562 650.5 Q560 662 555.5 668 Q551 674 542.5 676.5 Q534 679 521 681 L484 685 L484 724 L701 724 L701 685 L655 680 Q629 677 623.5 664.5 Q618 652 618 617 L618 244 Q618 177 599.5 129 Q581 81 548.5 50 Q516 19 471.5 4 Q427 -11 374 -11 Q294 -11 245.5 13 Q197 37 170.5 75.5 Q144 114 135.5 161.5 Q127 209 127 257 L127 607 Q127 630 125.5 643.5 Q124 657 118.5 664.5 Q113 672 103.5 675.5 Q94 679 78 681 L44 685 L44 724 L278 724 L278 685 L232 679 Q211 677 205.5 664 Q200 651 200 617 L200 260 Q200 152 240 97.5 Q280 43 377 43 Q464 43 514 92 Q564 141 564 256 L564 620 Z M233 876 L526 876 L526 815 L233 815 L233 876 Z " />
<glyph glyph-name="umacron" unicode="&#x16b;" horiz-adv-x="629" d="M515 111 Q515 75 523.5 62 Q532 49 559 44 L593 38 L592 2 L491 -4 L465 -1 L452 72 Q414 37 369.5 13 Q325 -11 271 -11 Q241 -11 214 -3 Q187 5 166 25 Q145 45 133 79.5 Q121 114 121 167 L121 402 Q121 436 111 449.5 Q101 463 73 468 L37 473 L42 508 L175 523 L190 516 L190 176 Q190 119 211.5 84.5 Q233 50 288 50 Q330 50 369 68 Q408 86 446 116 L446 402 Q446 436 435.5 449.5 Q425 463 397 468 L361 473 L366 508 L499 523 L515 516 L515 111 Z M160 690 L445 690 L445 630 L160 630 L160 690 Z " />
<glyph glyph-name="Ubreve" unicode="&#x16c;" horiz-adv-x="747" d="M564 620 Q564 639 562 650.5 Q560 662 555.5 668 Q551 674 542.5 676.5 Q534 679 521 681 L484 685 L484 724 L701 724 L701 685 L655 680 Q629 677 623.5 664.5 Q618 652 618 617 L618 244 Q618 177 599.5 129 Q581 81 548.5 50 Q516 19 471.5 4 Q427 -11 374 -11 Q294 -11 245.5 13 Q197 37 170.5 75.5 Q144 114 135.5 161.5 Q127 209 127 257 L127 607 Q127 630 125.5 643.5 Q124 657 118.5 664.5 Q113 672 103.5 675.5 Q94 679 78 681 L44 685 L44 724 L278 724 L278 685 L232 679 Q211 677 205.5 664 Q200 651 200 617 L200 260 Q200 152 240 97.5 Q280 43 377 43 Q464 43 514 92 Q564 141 564 256 L564 620 Z M537 911 Q522 851 486 816 Q450 781 383 781 Q316 781 282.5 818 Q249 855 235 911 L271 928 Q287 892 314.5 870 Q342 848 385 848 Q465 848 501 927 L537 911 Z " />
<glyph glyph-name="ubreve" unicode="&#x16d;" horiz-adv-x="629" d="M515 111 Q515 75 523.5 62 Q532 49 559 44 L593 38 L592 2 L491 -4 L465 -1 L452 72 Q414 37 369.5 13 Q325 -11 271 -11 Q241 -11 214 -3 Q187 5 166 25 Q145 45 133 79.5 Q121 114 121 167 L121 402 Q121 436 111 449.5 Q101 463 73 468 L37 473 L42 508 L175 523 L190 516 L190 176 Q190 119 211.5 84.5 Q233 50 288 50 Q330 50 369 68 Q408 86 446 116 L446 402 Q446 436 435.5 449.5 Q425 463 397 468 L361 473 L366 508 L499 523 L515 516 L515 111 Z M307 654 Q345 654 371 678.5 Q397 703 420 756 L457 742 Q441 670 401.5 628.5 Q362 587 307 587 Q244 587 208 627 Q172 667 157 742 L194 757 Q214 703 241.5 678.5 Q269 654 307 654 Z " />
<glyph glyph-name="Uring" unicode="&#x16e;" horiz-adv-x="747" d="M564 620 Q564 639 562 650.5 Q560 662 555.5 668 Q551 674 542.5 676.5 Q534 679 521 681 L484 685 L484 724 L701 724 L701 685 L655 680 Q629 677 623.5 664.5 Q618 652 618 617 L618 244 Q618 177 599.5 129 Q581 81 548.5 50 Q516 19 471.5 4 Q427 -11 374 -11 Q294 -11 245.5 13 Q197 37 170.5 75.5 Q144 114 135.5 161.5 Q127 209 127 257 L127 607 Q127 630 125.5 643.5 Q124 657 118.5 664.5 Q113 672 103.5 675.5 Q94 679 78 681 L44 685 L44 724 L278 724 L278 685 L232 679 Q211 677 205.5 664 Q200 651 200 617 L200 260 Q200 152 240 97.5 Q280 43 377 43 Q464 43 514 92 Q564 141 564 256 L564 620 Z M501 868 Q501 837 490.5 817 Q480 797 464 785.5 Q448 774 429 770 Q410 766 393 766 Q374 766 354.5 771.5 Q335 777 319.5 789 Q304 801 294.5 820.5 Q285 840 285 868 Q285 900 295.5 920.5 Q306 941 322 952.5 Q338 964 357 968.5 Q376 973 393 973 Q442 973 471.5 946.5 Q501 920 501 868 Z M393 807 Q448 807 448 868 Q448 907 431.5 919.5 Q415 932 393 932 Q384 932 374 929.5 Q364 927 356 920 Q348 913 343 900.5 Q338 888 338 868 Q338 839 351.5 823 Q365 807 393 807 Z " />
<glyph glyph-name="uring" unicode="&#x16f;" horiz-adv-x="629" d="M515 111 Q515 75 523.5 62 Q532 49 559 44 L593 38 L592 2 L491 -4 L465 -1 L452 72 Q414 37 369.5 13 Q325 -11 271 -11 Q241 -11 214 -3 Q187 5 166 25 Q145 45 133 79.5 Q121 114 121 167 L121 402 Q121 436 111 449.5 Q101 463 73 468 L37 473 L42 508 L175 523 L190 516 L190 176 Q190 119 211.5 84.5 Q233 50 288 50 Q330 50 369 68 Q408 86 446 116 L446 402 Q446 436 435.5 449.5 Q425 463 397 468 L361 473 L366 508 L499 523 L515 516 L515 111 Z M411 680 Q411 649 400.5 629 Q390 609 373.5 597.5 Q357 586 338.5 582 Q320 578 303 578 Q283 578 263.5 583.5 Q244 589 229 601 Q214 613 204.5 633 Q195 653 195 681 Q195 713 205.5 733 Q216 753 232 764.5 Q248 776 267 780.5 Q286 785 303 785 Q351 785 381 758.5 Q411 732 411 680 Z M303 619 Q329 619 343.5 635 Q358 651 358 681 Q358 720 341 732 Q324 744 303 744 Q294 744 284 742 Q274 740 266 733 Q258 726 253 713.5 Q248 701 248 681 Q248 652 261.5 635.5 Q275 619 303 619 Z " />
<glyph glyph-name="Uhungarumlaut" unicode="&#x170;" horiz-adv-x="747" d="M564 620 Q564 639 562 650.5 Q560 662 555.5 668 Q551 674 542.5 676.5 Q534 679 521 681 L484 685 L484 724 L701 724 L701 685 L655 680 Q629 677 623.5 664.5 Q618 652 618 617 L618 244 Q618 177 599.5 129 Q581 81 548.5 50 Q516 19 471.5 4 Q427 -11 374 -11 Q294 -11 245.5 13 Q197 37 170.5 75.5 Q144 114 135.5 161.5 Q127 209 127 257 L127 607 Q127 630 125.5 643.5 Q124 657 118.5 664.5 Q113 672 103.5 675.5 Q94 679 78 681 L44 685 L44 724 L278 724 L278 685 L232 679 Q211 677 205.5 664 Q200 651 200 617 L200 260 Q200 152 240 97.5 Q280 43 377 43 Q464 43 514 92 Q564 141 564 256 L564 620 Z M294 777 L268 803 L410 969 L468 919 L468 910 L294 777 Z M451 771 L427 799 L578 959 L631 906 L631 897 L451 771 Z " />
<glyph glyph-name="uhungarumlaut" unicode="&#x171;" horiz-adv-x="629" d="M515 111 Q515 75 523.5 62 Q532 49 559 44 L593 38 L592 2 L491 -4 L465 -1 L452 72 Q414 37 369.5 13 Q325 -11 271 -11 Q241 -11 214 -3 Q187 5 166 25 Q145 45 133 79.5 Q121 114 121 167 L121 402 Q121 436 111 449.5 Q101 463 73 468 L37 473 L42 508 L175 523 L190 516 L190 176 Q190 119 211.5 84.5 Q233 50 288 50 Q330 50 369 68 Q408 86 446 116 L446 402 Q446 436 435.5 449.5 Q425 463 397 468 L361 473 L366 508 L499 523 L515 516 L515 111 Z M235 571 L204 589 L326 784 L399 760 L401 749 L235 571 Z M373 568 L345 589 L483 772 L554 740 L555 729 L373 568 Z " />
<glyph glyph-name="Uogonek" unicode="&#x172;" horiz-adv-x="747" d="M535 -197 Q521 -205 498 -215 Q475 -225 443 -225 Q427 -225 409.5 -220.5 Q392 -216 377 -205.5 Q362 -195 352.5 -177.5 Q343 -160 343 -134 Q343 -97 361.5 -66.5 Q380 -36 415 -8 Q394 -11 374 -11 Q294 -11 245.5 13 Q197 37 170.5 75.5 Q144 114 135.5 161.5 Q127 209 127 257 L127 607 Q127 630 125.5 643.5 Q124 657 118.5 664.5 Q113 672 103.5 675.5 Q94 679 78 681 L44 685 L44 724 L278 724 L278 685 L232 679 Q211 677 205.5 664 Q200 651 200 617 L200 258 Q200 150 240 95 Q280 40 377 40 Q421 40 455.5 51.5 Q490 63 514 88.5 Q538 114 551 155 Q564 196 564 254 L564 620 Q564 639 562 650.5 Q560 662 555.5 668 Q551 674 542.5 676.5 Q534 679 521 681 L484 685 L484 724 L703 724 L703 685 L657 680 Q631 677 625.5 664.5 Q620 652 620 617 L620 244 Q620 163 593.5 109.5 Q567 56 521 27 Q466 -9 439 -43.5 Q412 -78 412 -119 Q412 -141 425.5 -154.5 Q439 -168 467 -170 Q493 -171 524 -161 L535 -197 Z " />
<glyph glyph-name="uogonek" unicode="&#x173;" horiz-adv-x="629" d="M594 -197 Q580 -205 557 -215 Q534 -225 502 -225 Q486 -225 469 -220.5 Q452 -216 438 -206 Q424 -196 415 -179.5 Q406 -163 406 -138 Q406 -94 434.5 -59 Q463 -24 506 0 L470 0 L458 10 L452 72 Q414 37 369.5 13 Q325 -11 271 -11 Q241 -11 214 -3 Q187 5 166 25 Q145 45 133 79.5 Q121 114 121 167 L121 402 Q121 436 111 449.5 Q101 463 73 468 L37 473 L42 508 L175 523 L190 516 L190 176 Q190 119 211.5 84.5 Q233 50 288 50 Q330 50 369 68 Q408 86 446 116 L446 402 Q446 436 435.5 449.5 Q425 463 397 468 L361 473 L366 508 L499 523 L515 516 L515 111 Q515 75 523.5 62 Q532 49 559 44 L593 38 L592 0 Q571 -10 550 -22.5 Q529 -35 512.5 -50 Q496 -65 485.5 -83 Q475 -101 475 -122 Q475 -142 486.5 -155 Q498 -168 526 -170 Q552 -171 583 -161 L594 -197 Z " />
<glyph glyph-name="Wcircumflex" unicode="&#x174;" horiz-adv-x="958" d="M625 0 L479 649 L475 649 L325 0 L239 0 L92 603 Q87 626 82 640 Q77 654 71 662.5 Q65 671 57 674.5 Q49 678 38 680 L11 685 L11 724 L235 724 L235 685 L153 674 L289 95 L293 95 L436 724 L533 724 L677 95 L682 95 L823 677 L746 685 L746 724 L949 724 L949 685 L917 680 Q892 677 883 664 Q874 651 865 616 L712 0 L625 0 Z M482 856 L349 775 L325 807 L450 924 L515 924 L640 806 L617 775 L482 856 Z " />
<glyph glyph-name="wcircumflex" unicode="&#x175;" horiz-adv-x="793" d="M191 0 L71 410 Q65 428 60.5 439.5 Q56 451 50.5 458 Q45 465 38 468.5 Q31 472 20 474 L4 477 L12 516 L194 516 L194 477 L126 469 L235 79 L237 79 L358 511 L442 511 L570 79 L572 79 L675 468 L606 477 L612 516 L787 516 L787 477 L771 475 Q759 473 751 470.5 Q743 468 737 462.5 Q731 457 726 447 Q721 437 716 420 L597 0 L524 0 L393 445 L391 445 L263 0 L191 0 Z M433 765 L551 596 L519 572 L399 692 L280 572 L248 596 L367 765 L433 765 Z " />
<glyph glyph-name="Ycircumflex" unicode="&#x176;" horiz-adv-x="615" d="M277 289 L99 604 Q87 627 78 640.5 Q69 654 61.5 662.5 Q54 671 46 674.5 Q38 678 27 681 L5 685 L5 724 L223 724 L223 685 L141 673 L321 352 L323 352 L495 674 L416 685 L416 724 L609 724 L609 685 L592 681 Q579 678 570 673.5 Q561 669 552.5 660 Q544 651 535 636.5 Q526 622 514 599 L350 294 L350 99 Q350 65 358.5 56.5 Q367 48 389 46 L451 39 L451 0 L176 0 L176 39 L238 46 Q260 48 268.5 56.5 Q277 65 277 99 L277 289 Z M318 856 L185 775 L161 807 L286 924 L351 924 L476 806 L453 775 L318 856 Z " />
<glyph glyph-name="ycircumflex" unicode="&#x177;" horiz-adv-x="529" d="M286 26 Q262 -32 242.5 -73.5 Q223 -115 203 -141.5 Q183 -168 159.5 -180.5 Q136 -193 104 -193 Q76 -193 50.5 -184 Q25 -175 13 -164 L31 -124 Q46 -130 64 -135.5 Q82 -141 99 -141 Q121 -141 138 -131 Q155 -121 170.5 -100 Q186 -79 201.5 -46 Q217 -13 236 34 L77 420 Q65 449 55.5 458.5 Q46 468 32 472 L6 478 L14 516 L206 516 L206 477 L133 468 L272 117 L273 117 L415 468 L339 477 L345 516 L523 516 L523 478 L504 476 Q492 474 484.5 471 Q477 468 471 460.5 Q465 453 459 440 Q453 427 444 406 L286 26 Z M309 765 L427 596 L395 572 L275 692 L156 572 L124 596 L243 765 L309 765 Z " />
<glyph glyph-name="Ydieresis" unicode="&#x178;" horiz-adv-x="615" d="M277 289 L99 604 Q87 627 78 640.5 Q69 654 61.5 662.5 Q54 671 46 674.5 Q38 678 27 681 L5 685 L5 724 L223 724 L223 685 L141 673 L321 352 L323 352 L495 674 L416 685 L416 724 L609 724 L609 685 L592 681 Q579 678 570 673.5 Q561 669 552.5 660 Q544 651 535 636.5 Q526 622 514 599 L350 294 L350 99 Q350 65 358.5 56.5 Q367 48 389 46 L451 39 L451 0 L176 0 L176 39 L238 46 Q260 48 268.5 56.5 Q277 65 277 99 L277 289 Z M168 848 Q168 898 221 898 Q247 898 261 886 Q275 874 275 848 Q275 795 221 795 Q168 795 168 848 Z M369 848 Q369 898 422 898 Q448 898 462 886 Q476 874 476 848 Q476 795 422 795 Q369 795 369 848 Z " />
<glyph glyph-name="Zacute" unicode="&#x179;" horiz-adv-x="610" d="M50 0 L50 46 L470 672 L206 672 Q187 672 175 668.5 Q163 665 155.5 658.5 Q148 652 143.5 642 Q139 632 135 618 L119 556 L71 552 L86 724 L558 724 L558 679 L139 52 L417 52 Q447 52 461 62.5 Q475 73 485 99 L514 190 L563 190 L540 0 L50 0 Z M244 778 L227 809 L405 928 L460 873 L460 859 L244 778 Z " />
<glyph glyph-name="zacute" unicode="&#x17a;" horiz-adv-x="486" d="M52 0 L52 50 L345 465 L157 465 Q128 465 120 456 Q112 447 107 422 L98 381 L47 378 L61 516 L429 516 L429 467 L133 51 L329 51 Q358 51 369 58 Q380 65 388 91 L403 139 L447 139 L433 0 L52 0 Z M212 568 L182 591 L316 770 L388 734 L388 721 L212 568 Z " />
<glyph glyph-name="Zdotaccent" unicode="&#x17b;" horiz-adv-x="610" d="M50 0 L50 46 L470 672 L206 672 Q187 672 175 668.5 Q163 665 155.5 658.5 Q148 652 143.5 642 Q139 632 135 618 L119 556 L71 552 L86 724 L558 724 L558 679 L139 52 L417 52 Q447 52 461 62.5 Q475 73 485 99 L514 190 L563 190 L540 0 L50 0 Z M369 851 Q369 796 312 796 Q286 796 271 810 Q256 824 256 851 Q256 878 271 891.5 Q286 905 312 905 Q339 905 354 891.5 Q369 878 369 851 Z " />
<glyph glyph-name="zdotaccent" unicode="&#x17c;" horiz-adv-x="486" d="M52 0 L52 50 L345 465 L157 465 Q128 465 120 456 Q112 447 107 422 L98 381 L47 378 L61 516 L429 516 L429 467 L133 51 L329 51 Q358 51 369 58 Q380 65 388 91 L403 139 L447 139 L433 0 L52 0 Z M301 696 Q301 640 244 640 Q218 640 203 654 Q188 668 188 696 Q188 722 203 735.5 Q218 749 244 749 Q271 749 286 735.5 Q301 722 301 696 Z " />
<glyph glyph-name="Zcaron" unicode="&#x17d;" horiz-adv-x="610" d="M50 0 L50 46 L470 672 L206 672 Q187 672 175 668.5 Q163 665 155.5 658.5 Q148 652 143.5 642 Q139 632 135 618 L119 556 L71 552 L86 724 L558 724 L558 679 L139 52 L417 52 Q447 52 461 62.5 Q475 73 485 99 L514 190 L563 190 L540 0 L50 0 Z M448 929 L470 900 L345 781 L282 781 L159 900 L183 930 L314 850 L448 929 Z " />
<glyph glyph-name="zcaron" unicode="&#x17e;" horiz-adv-x="486" d="M52 0 L52 50 L345 465 L157 465 Q128 465 120 456 Q112 447 107 422 L98 381 L47 378 L61 516 L429 516 L429 467 L133 51 L329 51 Q358 51 369 58 Q380 65 388 91 L403 139 L447 139 L433 0 L52 0 Z M208 586 L92 753 L123 778 L242 656 L361 776 L391 752 L274 586 L208 586 Z " />
<glyph glyph-name="longs" unicode="&#x17f;" horiz-adv-x="353" d="M76 41 Q91 43 99 46.5 Q107 50 111 58.5 Q115 67 116 81 Q117 95 117 119 L117 465 L49 465 L53 504 L117 516 L117 573 Q117 605 122 636.5 Q127 668 142.5 693 Q158 718 186.5 733.5 Q215 749 262 749 Q299 749 327.5 740 Q356 731 379 718 L375 609 L330 614 L319 668 Q315 686 301 693 Q287 700 263 700 Q223 700 204.5 677 Q186 654 186 596 L186 119 Q186 93 188 78 Q190 63 197.5 55.5 Q205 48 218.5 45.5 Q232 43 256 40 L294 36 L294 0 L45 0 L45 36 L76 41 Z " />
<glyph glyph-name="florin" unicode="&#x192;" horiz-adv-x="545" d="M195 530 Q214 639 261.5 688 Q309 737 396 737 Q438 737 469 728.5 Q500 720 522 706 L517 574 L474 579 L464 640 Q459 664 443.5 674.5 Q428 685 396 685 Q369 685 349 677.5 Q329 670 315 653.5 Q301 637 291.5 610 Q282 583 274 544 L246 399 L403 399 L395 349 L239 349 L171 -26 Q165 -61 154 -91 Q143 -121 124 -143 Q105 -165 77 -177 Q49 -189 9 -189 Q-26 -189 -56 -178.5 Q-86 -168 -100 -157 L-83 -117 Q-69 -123 -49.5 -128.5 Q-30 -134 -1 -134 Q36 -134 61.5 -109 Q87 -84 99 -17 L165 349 L65 349 L73 399 L172 399 L195 530 Z " />
<glyph glyph-name="Aringacute" unicode="&#x1fa;" horiz-adv-x="684" d="M261 910 L244 941 L422 1060 L477 1005 L477 991 L261 910 Z M446 787 Q446 747 430 725.5 Q414 704 391 695 L577 127 Q585 102 591.5 87 Q598 72 604.5 63 Q611 54 619 49.5 Q627 45 639 43 L667 39 L667 0 L441 0 L441 39 L522 50 L461 247 L196 247 L133 50 L215 39 L215 0 L9 0 L9 39 L39 44 Q64 49 74 65 Q84 81 96 117 L287 694 Q263 705 246.5 727 Q230 749 230 787 Q230 819 240.5 839.5 Q251 860 267 871.5 Q283 883 302 887.5 Q321 892 338 892 Q387 892 416.5 865.5 Q446 839 446 787 Z M329 657 L328 657 L212 297 L444 297 L329 657 Z M338 726 Q393 726 393 787 Q393 826 376.5 838.5 Q360 851 338 851 Q329 851 319 848.5 Q309 846 301 839 Q293 832 288 819.5 Q283 807 283 787 Q283 758 296.5 742 Q310 726 338 726 Z " />
<glyph glyph-name="aringacute" unicode="&#x1fb;" horiz-adv-x="515" d="M487 3 Q470 -5 455 -7.5 Q440 -10 425 -10 Q393 -10 371 7 Q349 24 345 67 Q327 33 287.5 11 Q248 -11 197 -11 Q119 -11 83 27 Q47 65 47 128 Q47 170 63 200.5 Q79 231 114.5 251 Q150 271 205 281.5 Q260 292 338 294 L338 348 Q338 417 314 444 Q290 471 233 471 Q194 471 162 463 Q130 455 90 439 L75 480 Q103 497 149.5 512.5 Q196 528 250 528 Q285 528 314 519.5 Q343 511 363.5 491 Q384 471 395.5 438.5 Q407 406 407 358 L407 89 Q407 59 414 48.5 Q421 38 448 36 L484 32 L487 3 Z M338 246 Q279 245 237.5 239 Q196 233 170 220 Q144 207 132.5 186 Q121 165 121 135 Q121 88 146.5 65.5 Q172 43 215 43 Q274 43 306 77 Q338 111 338 159 L338 246 Z M344 677 Q344 646 333.5 626 Q323 606 306.5 594.5 Q290 583 271.5 579 Q253 575 236 575 Q216 575 196.5 580.5 Q177 586 162 598 Q147 610 137.5 630 Q128 650 128 678 Q128 710 138.5 730 Q149 750 165 761.5 Q181 773 200 777.5 Q219 782 236 782 Q284 782 314 755.5 Q344 729 344 677 Z M236 616 Q262 616 276.5 632 Q291 648 291 678 Q291 717 274 729 Q257 741 236 741 Q227 741 217 739 Q207 737 199 730 Q191 723 186 710.5 Q181 698 181 678 Q181 649 194.5 632.5 Q208 616 236 616 Z M167 820 L150 851 L328 970 L383 915 L383 901 L167 820 Z " />
<glyph glyph-name="AEacute" unicode="&#x1fc;" horiz-adv-x="891" d="M9 0 L9 39 L44 45 Q66 50 78.5 64 Q91 78 109 114 L392 677 L308 689 L308 724 L803 724 L813 546 L768 547 L747 620 Q739 647 726.5 660 Q714 673 682 673 L512 673 L512 394 L744 394 L744 343 L512 343 L512 51 L699 51 Q730 51 743.5 64 Q757 77 765 107 L786 184 L830 184 L820 0 L354 0 L354 39 L399 45 Q414 47 421.5 50.5 Q429 54 433 63 Q437 72 437.5 87.5 Q438 103 438 130 L438 343 L282 343 L142 52 L222 39 L222 0 L9 0 Z M438 650 L434 650 L309 394 L438 394 L438 650 Z M510 784 L493 815 L671 934 L726 879 L726 865 L510 784 Z " />
<glyph glyph-name="aeacute" unicode="&#x1fd;" horiz-adv-x="794" d="M743 46 Q705 19 662 4 Q619 -11 566 -11 Q504 -11 456 12 Q408 35 375 89 Q365 71 349.5 53 Q334 35 313 21 Q292 7 264.5 -2 Q237 -11 202 -11 Q121 -11 85.5 27 Q50 65 50 128 Q50 170 66 200.5 Q82 231 117 251 Q152 271 207.5 281.5 Q263 292 341 294 L341 348 Q341 417 317 444 Q293 471 236 471 Q197 471 164.5 463 Q132 455 93 439 L78 480 Q106 497 152.5 512.5 Q199 528 253 528 Q303 528 339.5 509.5 Q376 491 394 444 Q424 490 468 509 Q512 528 561 528 Q603 528 638 515 Q673 502 698.5 474 Q724 446 738 402 Q752 358 752 297 Q752 281 752 268.5 Q752 256 750 246 L409 246 Q411 157 453 102.5 Q495 48 578 48 Q623 48 654 56.5 Q685 65 722 85 L743 46 Z M680 294 Q684 384 650.5 431.5 Q617 479 554 479 Q495 479 454.5 435.5 Q414 392 409 294 L680 294 Z M341 246 Q223 245 173 220 Q123 195 123 135 Q123 88 148.5 65.5 Q174 43 217 43 Q276 43 308.5 77 Q341 111 341 159 L341 246 Z M373 568 L343 591 L477 770 L549 734 L549 721 L373 568 Z " />
<glyph glyph-name="Oslashacute" unicode="&#x1fe;" horiz-adv-x="686" d="M273 784 L256 815 L434 934 L489 879 L489 865 L273 784 Z M338 -11 Q280 -11 236 4 Q192 19 159 45 L99 -42 L36 -42 L123 83 Q84 134 67 203 Q50 272 50 351 Q50 431 67.5 501.5 Q85 572 122 624.5 Q159 677 217 707 Q275 737 357 737 Q414 737 457.5 721 Q501 705 533 676 L596 767 L659 767 L569 637 Q604 586 620 517.5 Q636 449 636 371 Q636 289 619.5 219 Q603 149 567 98 Q531 47 474.5 18 Q418 -11 338 -11 Z M126 358 Q126 286 136.5 233.5 Q147 181 165 145 L494 620 Q466 654 429.5 668.5 Q393 683 350 683 Q305 683 264.5 667 Q224 651 193.5 613 Q163 575 144.5 513 Q126 451 126 358 Z M342 42 Q386 42 425.5 58 Q465 74 495 111.5 Q525 149 542.5 210.5 Q560 272 560 364 Q560 433 550.5 484 Q541 535 524 572 L196 99 Q225 67 262.5 54.5 Q300 42 342 42 Z " />
<glyph glyph-name="oslashacute" unicode="&#x1ff;" horiz-adv-x="546" d="M236 568 L206 591 L340 770 L412 734 L412 721 L236 568 Z M270 -11 Q192 -11 142 24 L84 -56 L22 -56 L104 58 Q75 93 60.5 144 Q46 195 46 258 Q46 385 107.5 456.5 Q169 528 278 528 Q321 528 355 517.5 Q389 507 415 487 L478 574 L540 574 L450 450 Q476 415 488 366.5 Q500 318 500 258 Q500 197 485 147 Q470 97 441 62 Q412 27 369 8 Q326 -11 270 -11 Z M120 259 Q120 169 147 116 L377 435 Q339 478 276 478 Q198 478 159 421.5 Q120 365 120 259 Z M273 39 Q343 39 384.5 92 Q426 145 426 260 Q426 337 405 388 L178 73 Q215 39 273 39 Z " />
<glyph glyph-name="Scommaaccent" unicode="&#x218;" horiz-adv-x="532" d="M410 559 L397 627 Q394 642 388 653 Q382 664 369.5 670.5 Q357 677 337 680.5 Q317 684 287 684 Q209 684 170.5 648 Q132 612 132 558 Q132 508 158 480.5 Q184 453 223.5 436 Q263 419 309 405 Q355 391 394.5 368.5 Q434 346 460 308 Q486 270 486 204 Q486 138 461 96.5 Q436 55 398 31 Q360 7 315.5 -2 Q271 -11 232 -11 Q160 -11 113.5 2 Q67 15 41 29 L52 176 L96 176 L105 108 Q108 92 114 79 Q120 66 134.5 58 Q149 50 174 45.5 Q199 41 239 41 Q272 41 303.5 49 Q335 57 359.5 75 Q384 93 399 122 Q414 151 414 193 Q414 245 388 273.5 Q362 302 322.5 320 Q283 338 237 351.5 Q191 365 151.5 386.5 Q112 408 86 444 Q60 480 60 542 Q60 585 75 621 Q90 657 119.5 682.5 Q149 708 191.5 722.5 Q234 737 288 737 Q334 737 380 728 Q426 719 461 701 L455 555 L410 559 Z M317 -133 Q317 -171 296.5 -213.5 Q276 -256 224 -288 L205 -265 Q228 -245 239 -224.5 Q250 -204 253 -178 Q223 -177 208.5 -161.5 Q194 -146 194 -123 Q194 -94 211 -81 Q228 -68 255 -68 Q282 -68 299.5 -83.5 Q317 -99 317 -133 Z " />
<glyph glyph-name="scommaaccent" unicode="&#x219;" horiz-adv-x="466" d="M361 374 L347 434 Q342 454 325.5 466 Q309 478 262 478 Q238 478 216.5 473.5 Q195 469 179 459.5 Q163 450 153.5 434 Q144 418 144 395 Q144 361 165 343 Q186 325 217.5 313 Q249 301 285.5 292 Q322 283 353.5 267 Q385 251 406 224 Q427 197 427 149 Q427 77 375.5 33 Q324 -11 228 -11 Q174 -11 133 -0.5 Q92 10 66 24 L76 159 L119 159 L132 87 Q137 62 158.5 51 Q180 40 231 40 Q291 40 325 64 Q359 88 359 135 Q359 171 338 190 Q317 209 286 221 Q255 233 218.5 241.5 Q182 250 151 265.5 Q120 281 99 307.5 Q78 334 78 381 Q78 451 130 489.5 Q182 528 265 528 Q307 528 347.5 518.5 Q388 509 411 495 L406 367 L361 374 Z M294 -133 Q294 -169 274 -212.5 Q254 -256 203 -288 L184 -265 Q207 -245 218.5 -224.5 Q230 -204 233 -178 Q203 -177 189 -161.5 Q175 -146 175 -123 Q175 -94 191.5 -81 Q208 -68 234 -68 Q260 -68 277 -83.5 Q294 -99 294 -133 Z " />
</font>
</svg>
