<?xml version="1.0" encoding="UTF-8"?>
<svg xmlns="http://www.w3.org/2000/svg" xmlns:xlink="http://www.w3.org/1999/xlink" version="1.2" >
<font id="Portada">
<font-face  font-family="Portada" units-per-em="1000" ascent="755" descent="-245" font-style="normal" font-weight="400" font-stretch="normal" cap-height="724" x-height="525" underline-position="-75" underline-thickness="50" />
<missing-glyph  horiz-adv-x="500" d="" />
<glyph glyph-name="null" d="" />
<glyph glyph-name="nonmarkingreturn" unicode="&#xd;" horiz-adv-x="500" d="" />
<glyph glyph-name="space" unicode="&#x20;" horiz-adv-x="190" d="" />
<glyph glyph-name="exclam" unicode="&#x21;" horiz-adv-x="269" d="M111 182 L82 501 L82 724 L183 724 L183 501 L153 182 L111 182 Z M199 46 Q199 16 182 1 Q165 -14 133 -14 Q104 -14 87 1 Q70 16 70 46 Q70 75 87 89.5 Q104 104 133 104 Q164 104 181.5 89.5 Q199 75 199 46 Z " />
<glyph glyph-name="quotedbl" unicode="&#x22;" horiz-adv-x="329" d="M60 445 L60 724 L126 724 L126 445 L60 445 Z M203 445 L203 724 L269 724 L269 445 L203 445 Z " />
<glyph glyph-name="numbersign" unicode="&#x23;" horiz-adv-x="657" d="M348 0 L380 201 L221 201 L189 0 L125 0 L157 201 L49 201 L59 264 L168 264 L204 487 L95 487 L106 550 L215 550 L243 724 L307 724 L278 550 L438 550 L466 724 L530 724 L502 550 L608 550 L598 487 L491 487 L455 264 L565 264 L556 201 L445 201 L412 0 L348 0 Z M427 487 L268 487 L232 264 L391 264 L427 487 Z " />
<glyph glyph-name="dollar" unicode="&#x24;" horiz-adv-x="512" d="M199 0 Q142 2 101.5 14 Q61 26 39 40 L50 187 L106 187 L117 118 Q120 105 124 95 Q128 85 137.5 77.5 Q147 70 162.5 66 Q178 62 203 60 L223 337 Q190 349 158 362.5 Q126 376 100.5 397 Q75 418 59.5 449.5 Q44 481 44 527 Q44 561 56 593 Q68 625 93.5 650.5 Q119 676 157.5 692.5 Q196 709 249 713 L254 789 L302 789 L296 713 Q332 711 371.5 702 Q411 693 439 678 L432 527 L377 532 L366 603 Q362 625 347 637.5 Q332 650 292 653 L276 419 Q311 407 345.5 394 Q380 381 407.5 359.5 Q435 338 452.5 305 Q470 272 470 221 Q470 162 449.5 121.5 Q429 81 396.5 55 Q364 29 324.5 16.5 Q285 4 247 1 L242 -80 L194 -80 L199 0 Z M136 551 Q136 503 163 478 Q190 453 230 436 L245 653 Q213 650 192 639.5 Q171 629 158.5 614 Q146 599 141 582.5 Q136 566 136 551 Z M380 199 Q380 225 371 244 Q362 263 347 277 Q332 291 312 301.5 Q292 312 269 321 L251 61 Q277 64 300.5 73 Q324 82 341.5 99 Q359 116 369.5 141 Q380 166 380 199 Z " />
<glyph glyph-name="percent" unicode="&#x25;" horiz-adv-x="777" d="M206 374 Q126 374 88 423 Q50 472 50 555 Q50 638 91.5 687.5 Q133 737 210 737 Q287 737 325.5 689.5 Q364 642 364 560 Q364 472 324 423 Q284 374 206 374 Z M119 -12 L557 724 L641 724 L205 -12 L119 -12 Z M207 425 Q245 425 261 459.5 Q277 494 277 558 Q277 621 261.5 653.5 Q246 686 208 686 Q187 686 173.5 676 Q160 666 152 648.5 Q144 631 140.5 607.5 Q137 584 137 557 Q137 492 153 458.5 Q169 425 207 425 Z M569 -12 Q489 -12 451 37 Q413 86 413 169 Q413 252 454.5 301.5 Q496 351 573 351 Q650 351 688.5 303.5 Q727 256 727 174 Q727 86 687 37 Q647 -12 569 -12 Z M570 39 Q608 39 624 73.5 Q640 108 640 172 Q640 235 624.5 267 Q609 299 571 299 Q550 299 536.5 289 Q523 279 515 261.5 Q507 244 503.5 221 Q500 198 500 171 Q500 106 516 72.5 Q532 39 570 39 Z " />
<glyph glyph-name="ampersand" unicode="&#x26;" horiz-adv-x="749" d="M714 4 Q700 -3 683.5 -7.5 Q667 -12 644 -12 Q619 -12 600 -8 Q581 -4 564 6 Q547 16 530.5 31.5 Q514 47 495 71 L490 76 Q454 37 402.5 12.5 Q351 -12 279 -12 Q215 -12 171.5 7 Q128 26 102.5 55 Q77 84 66 119 Q55 154 55 185 Q55 232 70.5 266.5 Q86 301 110.5 326.5 Q135 352 166.5 368.5 Q198 385 229 394 Q197 438 181.5 472.5 Q166 507 166 552 Q166 600 183.5 635 Q201 670 229 692.5 Q257 715 293 726 Q329 737 366 737 Q423 737 468 724.5 Q513 712 537 695 L529 544 L468 550 L451 629 Q449 637 444.5 645.5 Q440 654 430.5 660.5 Q421 667 405 671 Q389 675 364 675 Q333 675 313.5 666 Q294 657 282.5 642.5 Q271 628 266.5 610.5 Q262 593 262 575 Q262 540 275.5 512 Q289 484 307 461 L498 228 Q512 271 517 315 Q522 359 524 397 L598 386 Q598 367 596 341.5 Q594 316 588.5 287 Q583 258 573.5 226.5 Q564 195 549 165 L569 142 Q593 112 608 94.5 Q623 77 634.5 67 Q646 57 657 53 Q668 49 685 47 L711 44 L714 4 Z M260 355 Q154 311 154 200 Q154 161 166 134.5 Q178 108 197.5 91 Q217 74 242 66.5 Q267 59 293 59 Q346 59 383.5 78 Q421 97 447 129 L260 355 Z " />
<glyph glyph-name="quotesingle" unicode="&#x27;" horiz-adv-x="186" d="M60 445 L60 724 L126 724 L126 445 L60 445 Z " />
<glyph glyph-name="parenleft" unicode="&#x28;" horiz-adv-x="336" d="M220 -161 Q176 -114 141.5 -59 Q107 -4 83.5 54.5 Q60 113 47.5 172 Q35 231 35 285 Q35 368 53 437.5 Q71 507 101 566 Q131 625 171 674 Q211 723 255 763 L286 742 Q255 698 228.5 650 Q202 602 182.5 548.5 Q163 495 152 433.5 Q141 372 141 301 Q141 170 172.5 62.5 Q204 -45 253 -142 L220 -161 Z " />
<glyph glyph-name="parenright" unicode="&#x29;" horiz-adv-x="339" d="M107 763 Q151 716 185.5 661 Q220 606 243.5 547.5 Q267 489 279.5 430 Q292 371 292 317 Q292 235 274 165 Q256 95 226 36 Q196 -23 156 -72 Q116 -121 72 -161 L41 -140 Q72 -96 98.5 -48 Q125 0 144.5 53.5 Q164 107 175 168.5 Q186 230 186 301 Q186 432 154.5 539.5 Q123 647 74 744 L107 763 Z " />
<glyph glyph-name="asterisk" unicode="&#x2a;" horiz-adv-x="475" d="M248 583 L380 653 L419 572 L408 562 L251 555 L372 455 L310 390 L297 398 L234 539 L170 398 L157 390 L95 455 L216 555 L59 562 L48 572 L87 653 L219 583 L191 728 L280 740 L286 726 L248 583 Z " />
<glyph glyph-name="plus" unicode="&#x2b;" horiz-adv-x="600" d="M265 256 L103 256 L103 326 L265 326 L265 488 L335 488 L335 326 L497 326 L497 256 L335 256 L335 94 L265 94 L265 256 Z " />
<glyph glyph-name="comma" unicode="&#x2c;" horiz-adv-x="230" d="M181 33 Q181 12 175 -12 Q169 -36 156 -61 Q143 -86 122.5 -109 Q102 -132 72 -150 L46 -116 Q75 -92 90.5 -67 Q106 -42 110 -10 Q79 -8 63 8 Q47 24 47 47 Q47 78 64.5 94.5 Q82 111 110 111 Q142 111 161.5 93.5 Q181 76 181 33 Z " />
<glyph glyph-name="hyphen" unicode="&#x2d;" horiz-adv-x="331" d="M30 244 L30 319 L301 319 L301 244 L30 244 Z " />
<glyph glyph-name="period" unicode="&#x2e;" horiz-adv-x="239" d="M186 50 Q186 19 167.5 3.5 Q149 -12 117 -12 Q88 -12 70 3.5 Q52 19 52 50 Q52 79 70 94.5 Q88 110 117 110 Q149 110 167.5 94.5 Q186 79 186 50 Z " />
<glyph glyph-name="slash" unicode="&#x2f;" horiz-adv-x="430" d="M35 -92 L324 781 L393 781 L105 -92 L35 -92 Z " />
<glyph glyph-name="zero" unicode="0" horiz-adv-x="560" d="M277 -12 Q213 -12 168 14 Q123 40 94.5 88.5 Q66 137 53 205.5 Q40 274 40 359 Q40 446 55 516 Q70 586 100.5 635.5 Q131 685 177 711.5 Q223 738 286 738 Q349 738 393.5 712.5 Q438 687 466 639.5 Q494 592 507 524 Q520 456 520 372 Q520 281 506 210 Q492 139 462.5 89.5 Q433 40 387 14 Q341 -12 277 -12 Z M280 44 Q317 44 343.5 60 Q370 76 386.5 113.5 Q403 151 411 213 Q419 275 419 368 Q419 460 411.5 520 Q404 580 387.5 615.5 Q371 651 345.5 665.5 Q320 680 283 680 Q243 680 216 661.5 Q189 643 172.5 604.5 Q156 566 149.5 507 Q143 448 143 367 Q143 273 150.5 210.5 Q158 148 174.5 111 Q191 74 217 59 Q243 44 280 44 Z " />
<glyph glyph-name="one" unicode="1" horiz-adv-x="412" d="M262 110 Q262 76 279 66 Q296 56 319 53 L367 47 L367 0 L52 0 L52 47 L96 52 Q128 56 147 65.5 Q166 75 166 110 L166 560 Q166 594 158 608 Q150 622 126 627 L59 639 L63 680 L242 728 L262 721 L262 110 Z " />
<glyph glyph-name="two" unicode="2" horiz-adv-x="481" d="M25 0 L25 53 L233 347 Q272 404 300.5 454 Q329 504 329 558 Q329 594 317.5 617 Q306 640 287.5 653 Q269 666 246.5 671 Q224 676 201 676 Q161 676 141.5 666.5 Q122 657 115 629 L94 546 L43 542 L33 692 Q64 709 113 723 Q162 737 225 737 Q322 737 372.5 690.5 Q423 644 423 566 Q423 499 396 444 Q369 389 334 342 L131 60 L285 60 Q304 60 316.5 62 Q329 64 337.5 69 Q346 74 351.5 82.5 Q357 91 362 105 L390 181 L447 181 L430 0 L25 0 Z " />
<glyph glyph-name="three" unicode="3" horiz-adv-x="514" d="M217 50 Q258 50 286 62.5 Q314 75 331 96 Q348 117 355 145 Q362 173 362 203 Q362 248 349 275 Q336 302 314.5 316.5 Q293 331 266 335.5 Q239 340 212 340 L143 340 L143 403 L220 411 Q356 424 356 559 Q356 581 350.5 602 Q345 623 331.5 639.5 Q318 656 295 666 Q272 676 237 676 Q209 676 190.5 672 Q172 668 161 659 Q150 650 144.5 636.5 Q139 623 136 603 L126 548 L68 542 L58 691 Q69 698 87 706 Q105 714 129.5 721 Q154 728 183 732.5 Q212 737 245 737 Q313 737 353 719 Q393 701 414 675 Q435 649 441 619 Q447 589 447 566 Q447 530 437 501 Q427 472 410.5 449.5 Q394 427 373 411 Q352 395 329 386 L329 384 Q353 378 377 366.5 Q401 355 420.5 335 Q440 315 452.5 285 Q465 255 465 211 Q465 155 446.5 113 Q428 71 395.5 43.5 Q363 16 317.5 2 Q272 -12 218 -12 Q156 -12 107 -1.5 Q58 9 32 25 L41 177 L102 177 L115 108 Q120 79 140 64.5 Q160 50 217 50 Z " />
<glyph glyph-name="four" unicode="4" horiz-adv-x="572" d="M341 186 L42 186 L42 236 L346 724 L437 724 L437 253 L516 253 L516 186 L437 186 L437 114 Q437 83 448.5 70.5 Q460 58 488 54 L542 47 L542 0 L227 0 L227 49 L278 54 Q300 57 312.5 62 Q325 67 331.5 75 Q338 83 339.5 93.5 Q341 104 341 117 L341 186 Z M341 253 L341 601 L338 601 L123 253 L341 253 Z " />
<glyph glyph-name="five" unicode="5" horiz-adv-x="520" d="M223 49 Q268 49 297.5 66 Q327 83 343.5 110 Q360 137 366.5 171 Q373 205 373 239 Q373 304 348.5 344 Q324 384 262 384 Q217 384 185 364.5 Q153 345 124 319 L81 334 L94 715 L104 724 L432 724 L432 636 L158 636 L142 398 L145 396 Q165 416 201.5 434 Q238 452 292 452 Q332 452 365.5 440.5 Q399 429 423.5 405 Q448 381 461.5 343 Q475 305 475 252 Q475 207 463.5 160 Q452 113 422.5 74.5 Q393 36 343.5 12 Q294 -12 218 -12 Q175 -12 125 -3.5 Q75 5 40 23 L48 177 L109 177 L120 118 Q124 99 130 85.5 Q136 72 147 64 Q158 56 176.5 52.5 Q195 49 223 49 Z " />
<glyph glyph-name="six" unicode="6" horiz-adv-x="542" d="M450 629 Q411 652 380 660.5 Q349 669 314 669 Q265 669 232 644 Q199 619 179 580 Q159 541 150 493 Q141 445 141 398 Q150 405 166 416 Q182 427 204 437.5 Q226 448 253.5 455.5 Q281 463 312 463 Q359 463 395 447.5 Q431 432 455 404.5 Q479 377 491 340 Q503 303 503 259 Q503 196 487 145.5 Q471 95 442 60 Q413 25 372 6.5 Q331 -12 281 -12 Q210 -12 164 18 Q118 48 91 96.5 Q64 145 53.5 207.5 Q43 270 43 335 Q43 409 56 481 Q69 553 100 610.5 Q131 668 183 703.5 Q235 739 313 739 Q361 739 404.5 723 Q448 707 483 675 L450 629 Z M141 345 Q143 188 178 117 Q213 46 281 46 Q337 46 371 92.5 Q405 139 405 233 Q405 317 373.5 356.5 Q342 396 283 396 Q263 396 242.5 391 Q222 386 203.5 378.5 Q185 371 168.5 362 Q152 353 141 345 Z " />
<glyph glyph-name="seven" unicode="7" horiz-adv-x="507" d="M127 0 L392 640 L180 640 Q162 640 150 639 Q138 638 130.5 634 Q123 630 118.5 622 Q114 614 110 601 L95 546 L33 542 L51 724 L487 724 L487 671 L231 0 L127 0 Z " />
<glyph glyph-name="eight" unicode="8" horiz-adv-x="547" d="M370 383 Q399 368 425.5 351 Q452 334 472.5 312 Q493 290 505 262.5 Q517 235 517 199 Q517 148 497 109 Q477 70 442.5 43 Q408 16 362 2.5 Q316 -11 265 -11 Q203 -11 158.5 3 Q114 17 85.5 42 Q57 67 43.5 100 Q30 133 30 172 Q30 213 44 245 Q58 277 80 301.5 Q102 326 127.5 344.5 Q153 363 175 376 Q151 391 130 407.5 Q109 424 93 444.5 Q77 465 68 490.5 Q59 516 59 548 Q59 587 73.5 621 Q88 655 116.5 681 Q145 707 186.5 722 Q228 737 283 737 Q326 737 364 727 Q402 717 430.5 696.5 Q459 676 475.5 646 Q492 616 492 576 Q492 543 482.5 515.5 Q473 488 456.5 464.5 Q440 441 418 421 Q396 401 370 383 Z M415 179 Q415 211 399 234.5 Q383 258 357.5 277 Q332 296 299.5 312 Q267 328 233 345 Q212 332 192.5 315.5 Q173 299 158 279 Q143 259 134 235 Q125 211 125 182 Q125 113 166.5 81.5 Q208 50 271 50 Q318 50 346.5 65 Q375 80 390 100.5 Q405 121 410 143 Q415 165 415 179 Z M309 413 Q321 422 332 431 Q343 440 352 450 Q379 479 391.5 511.5 Q404 544 404 579 Q404 599 397.5 616.5 Q391 634 377 648 Q363 662 339.5 670 Q316 678 283 678 Q249 678 224.5 669 Q200 660 184.5 646 Q169 632 161.5 613.5 Q154 595 154 575 Q154 544 167 520 Q180 496 201.5 477.5 Q223 459 251 443.5 Q279 428 309 413 Z " />
<glyph glyph-name="nine" unicode="9" horiz-adv-x="542" d="M84 110 Q121 84 154.5 72.5 Q188 61 226 61 Q271 61 303 84 Q335 107 355.5 144 Q376 181 386 228 Q396 275 399 323 Q390 315 375 305 Q360 295 339 286 Q318 277 291 271 Q264 265 232 265 Q137 265 86.5 325.5 Q36 386 36 489 Q36 545 52 591 Q68 637 98 669.5 Q128 702 170 720 Q212 738 264 738 Q333 738 377.5 708.5 Q422 679 448.5 631.5 Q475 584 485.5 524 Q496 464 496 402 Q496 325 484 250.5 Q472 176 442 117.5 Q412 59 361 23.5 Q310 -12 232 -12 Q182 -12 133.5 5 Q85 22 48 57 L84 110 Z M399 376 Q398 462 388.5 520 Q379 578 361.5 612.5 Q344 647 318.5 661.5 Q293 676 259 676 Q203 676 170.5 633 Q138 590 138 501 Q138 413 170 372.5 Q202 332 262 332 Q279 332 298 336 Q317 340 336 346 Q355 352 371.5 360 Q388 368 399 376 Z " />
<glyph glyph-name="colon" unicode="&#x3a;" horiz-adv-x="239" d="M186 50 Q186 19 167.5 3.5 Q149 -12 117 -12 Q88 -12 70 3.5 Q52 19 52 50 Q52 79 70 94.5 Q88 110 117 110 Q149 110 167.5 94.5 Q186 79 186 50 Z M186 424 Q186 393 167.5 377.5 Q149 362 117 362 Q88 362 70 377.5 Q52 393 52 424 Q52 453 70 468.5 Q88 484 117 484 Q149 484 167.5 468.5 Q186 453 186 424 Z " />
<glyph glyph-name="semicolon" unicode="&#x3b;" horiz-adv-x="244" d="M185 33 Q185 12 179 -12 Q173 -36 160 -61 Q147 -86 126.5 -109 Q106 -132 76 -150 L50 -116 Q79 -92 94.5 -67 Q110 -42 114 -10 Q83 -8 67 8 Q51 24 51 47 Q51 78 68.5 94.5 Q86 111 114 111 Q146 111 165.5 93.5 Q185 76 185 33 Z M193 424 Q193 393 174.5 377.5 Q156 362 124 362 Q95 362 77 377.5 Q59 393 59 424 Q59 453 77 468.5 Q95 484 124 484 Q156 484 174.5 468.5 Q193 453 193 424 Z " />
<glyph glyph-name="less" unicode="&#x3c;" horiz-adv-x="600" d="M90 252 L90 328 L489 477 L509 411 L178 293 L178 290 L509 173 L488 106 L90 252 Z " />
<glyph glyph-name="equal" unicode="&#x3d;" horiz-adv-x="600" d="M103 161 L103 231 L497 231 L497 161 L103 161 Z M103 332 L103 402 L497 402 L497 332 L103 332 Z " />
<glyph glyph-name="greater" unicode="&#x3e;" horiz-adv-x="600" d="M509 328 L509 252 L111 106 L90 173 L421 290 L421 293 L90 411 L110 477 L509 328 Z " />
<glyph glyph-name="question" unicode="&#x3f;" horiz-adv-x="477" d="M134 279 Q129 315 140.5 340.5 Q152 366 173.5 386 Q195 406 221 423.5 Q247 441 270 461.5 Q293 482 308.5 508 Q324 534 324 571 Q324 600 314 619 Q304 638 287.5 649 Q271 660 250 665 Q229 670 206 670 Q173 670 138 660 Q103 650 75 631 L47 683 Q92 714 137.5 725.5 Q183 737 227 737 Q330 737 377.5 692 Q425 647 425 576 Q425 528 409.5 494.5 Q394 461 371 436.5 Q348 412 321.5 393 Q295 374 272 355 Q249 336 233.5 313.5 Q218 291 218 260 L218 162 L151 162 L134 279 Z M247 46 Q247 16 230 1 Q213 -14 181 -14 Q152 -14 135 1 Q118 16 118 46 Q118 75 135 89.5 Q152 104 181 104 Q212 104 229.5 89.5 Q247 75 247 46 Z " />
<glyph glyph-name="at" unicode="&#x40;" horiz-adv-x="838" d="M606 -70 Q578 -88 524 -105 Q470 -122 392 -122 Q320 -122 259 -100.5 Q198 -79 154 -36.5 Q110 6 85 70 Q60 134 60 218 Q60 298 86.5 367.5 Q113 437 162.5 488 Q212 539 282 568.5 Q352 598 439 598 Q517 598 579.5 578 Q642 558 686 519.5 Q730 481 754 424 Q778 367 778 293 Q778 224 762 175.5 Q746 127 718.5 96.5 Q691 66 654.5 52 Q618 38 577 38 Q530 38 504 55.5 Q478 73 467 105 Q444 76 413 57 Q382 38 347 38 Q301 38 271.5 73.5 Q242 109 242 178 Q242 238 256.5 287 Q271 336 298.5 371.5 Q326 407 366 426.5 Q406 446 458 446 Q500 446 531 437.5 Q562 429 591 417 L558 217 Q554 193 552 172.5 Q550 152 550 139 Q550 118 561.5 105 Q573 92 599 92 Q621 92 640 103 Q659 114 673 138 Q687 162 695 199.5 Q703 237 703 290 Q703 341 689.5 386 Q676 431 645 465 Q614 499 562.5 518.5 Q511 538 434 538 Q356 538 300 511.5 Q244 485 208 441 Q172 397 154.5 340.5 Q137 284 137 223 Q137 78 207.5 8 Q278 -62 409 -62 Q461 -62 508.5 -50 Q556 -38 589 -24 L606 -70 Z M503 379 Q489 386 476.5 388 Q464 390 451 390 Q418 390 395 374 Q372 358 357.5 331 Q343 304 336.5 268 Q330 232 330 193 Q330 147 343 127.5 Q356 108 388 108 Q409 108 432.5 123 Q456 138 467 155 L503 379 Z " />
<glyph glyph-name="A" unicode="A" horiz-adv-x="692" d="M405 724 L592 133 Q600 108 606.5 93 Q613 78 619.5 69.5 Q626 61 633.5 57.5 Q641 54 653 51 L678 48 L678 0 L432 0 L432 48 L511 58 L460 230 L199 230 L147 57 L224 48 L224 0 L10 0 L10 48 L38 52 Q64 57 74.5 73 Q85 89 96 123 L294 724 L405 724 Z M330 647 L329 647 L215 289 L441 289 L330 647 Z " />
<glyph glyph-name="B" unicode="B" horiz-adv-x="638" d="M333 60 Q419 60 456 94 Q493 128 493 203 Q493 242 482 268.5 Q471 295 451.5 311.5 Q432 328 405 335 Q378 342 346 342 L230 342 L230 60 L333 60 Z M300 401 Q386 401 420.5 436 Q455 471 455 536 Q455 603 419.5 633.5 Q384 664 312 664 L230 664 L230 401 L300 401 Z M349 724 Q403 724 441.5 711 Q480 698 504.5 674.5 Q529 651 540 619.5 Q551 588 551 550 Q551 512 541.5 484 Q532 456 516.5 436 Q501 416 480.5 402.5 Q460 389 438 380 L438 377 Q524 363 561 315 Q598 267 598 197 Q598 143 579.5 105.5 Q561 68 526.5 44.5 Q492 21 443.5 10.5 Q395 0 336 0 L55 0 L55 47 L95 51 Q109 53 116.5 56 Q124 59 127.5 67 Q131 75 132 90 Q133 105 133 130 L133 599 Q133 643 126 657 Q119 671 93 674 L56 677 L56 724 L349 724 Z " />
<glyph glyph-name="C" unicode="C" horiz-adv-x="629" d="M578 32 Q558 21 505 5 Q452 -11 372 -11 Q303 -11 243.5 9 Q184 29 140 73.5 Q96 118 70.5 188.5 Q45 259 45 359 Q45 433 65 501.5 Q85 570 127.5 622.5 Q170 675 237.5 706 Q305 737 399 737 Q429 737 458 733 Q487 729 511.5 723.5 Q536 718 554 711.5 Q572 705 581 699 L573 545 L515 550 L501 620 Q495 651 468 663.5 Q441 676 388 676 Q336 676 292.5 657.5 Q249 639 217.5 600.5 Q186 562 168.5 502 Q151 442 151 359 Q151 268 170.5 209 Q190 150 222.5 115.5 Q255 81 296.5 67 Q338 53 381 53 Q415 53 437 57 Q459 61 473 68 Q487 75 494.5 85 Q502 95 505 107 L526 178 L586 178 L578 32 Z " />
<glyph glyph-name="D" unicode="D" horiz-adv-x="727" d="M307 60 Q383 60 435 85.5 Q487 111 518.5 154.5 Q550 198 564 255.5 Q578 313 578 377 Q578 520 521 592 Q464 664 352 664 L230 664 L230 60 L307 60 Z M337 724 Q431 724 496.5 700 Q562 676 603.5 631 Q645 586 663.5 521.5 Q682 457 682 376 Q682 293 659.5 223.5 Q637 154 588 104.5 Q539 55 463 27.5 Q387 0 279 0 L55 0 L55 47 L95 51 Q107 52 114 54.5 Q121 57 125.5 63.5 Q130 70 131.5 82 Q133 94 133 115 L133 598 Q133 642 126.5 656.5 Q120 671 94 674 L56 677 L56 724 L337 724 Z " />
<glyph glyph-name="E" unicode="E" horiz-adv-x="601" d="M533 539 L474 541 L452 613 Q445 639 431 651.5 Q417 664 387 664 L230 664 L230 398 L464 398 L464 339 L230 339 L230 60 L407 60 Q437 60 451 71.5 Q465 83 472 109 L494 190 L551 190 L540 0 L55 0 L55 47 L96 51 Q110 53 117 56 Q124 59 128 67.5 Q132 76 132.5 91 Q133 106 133 131 L133 599 Q133 643 126 656.5 Q119 670 93 673 L56 677 L56 724 L523 724 L533 539 Z " />
<glyph glyph-name="F" unicode="F" horiz-adv-x="572" d="M230 133 Q230 109 230.5 94.5 Q231 80 234.5 72.5 Q238 65 245 62.5 Q252 60 265 59 L369 48 L369 0 L55 0 L55 47 L95 51 Q108 52 115.5 55 Q123 58 127 65.5 Q131 73 132 86.5 Q133 100 133 121 L133 599 Q133 643 126 656.5 Q119 670 93 673 L56 677 L56 724 L523 724 L532 535 L472 537 L451 613 Q444 639 431 651.5 Q418 664 388 664 L230 664 L230 391 L464 391 L464 332 L230 332 L230 133 Z " />
<glyph glyph-name="G" unicode="G" horiz-adv-x="676" d="M492 209 Q492 231 491 244.5 Q490 258 486 266 Q482 274 474.5 277.5 Q467 281 454 283 L385 289 L385 336 L651 336 L651 289 L620 285 Q609 284 602.5 280 Q596 276 593 268 Q590 260 589 246.5 Q588 233 588 211 L588 36 Q537 10 481.5 -0.5 Q426 -11 373 -11 Q289 -11 227.5 15 Q166 41 125.5 89 Q85 137 65 204 Q45 271 45 353 Q45 444 68.5 515.5 Q92 587 136 636 Q180 685 243 711 Q306 737 385 737 Q426 737 460 732 Q494 727 519 720.5 Q544 714 560 708 Q576 702 581 699 L573 545 L515 550 L503 617 Q497 650 470 662 Q443 674 387 674 Q334 674 290.5 655.5 Q247 637 216 598 Q185 559 168 499.5 Q151 440 151 357 Q151 261 171 201.5 Q191 142 224 108 Q257 74 298.5 62 Q340 50 382 50 Q408 50 427.5 53 Q447 56 460 59 Q483 64 487.5 73.5 Q492 83 492 103 L492 209 Z " />
<glyph glyph-name="H" unicode="H" horiz-adv-x="780" d="M229 398 L551 398 L551 594 Q551 618 550 633 Q549 648 545.5 656.5 Q542 665 535 668.5 Q528 672 516 673 L476 677 L476 724 L725 724 L725 677 L685 673 Q672 672 664.5 669 Q657 666 653 658.5 Q649 651 648 637.5 Q647 624 647 601 L647 131 Q647 107 648.5 92 Q650 77 654 69 Q658 61 666 57.5 Q674 54 687 52 L724 47 L724 0 L478 0 L478 47 L519 52 Q540 54 545.5 68 Q551 82 551 125 L551 339 L229 339 L229 131 Q229 107 229.5 92 Q230 77 233.5 68.5 Q237 60 244 57 Q251 54 264 52 L304 47 L304 0 L55 0 L55 47 L95 52 Q108 54 115.5 56.5 Q123 59 127 67 Q131 75 132 90 Q133 105 133 130 L133 600 Q133 644 125.5 657 Q118 670 93 673 L56 677 L56 724 L302 724 L302 677 L261 673 Q239 671 234 657.5 Q229 644 229 600 L229 398 Z " />
<glyph glyph-name="I" unicode="I" horiz-adv-x="362" d="M229 131 Q229 107 229.5 92 Q230 77 233.5 68.5 Q237 60 244 56.5 Q251 53 264 52 L304 47 L304 0 L55 0 L55 47 L95 52 Q108 53 115.5 56 Q123 59 127 67 Q131 75 132 90 Q133 105 133 130 L133 600 Q133 622 131.5 635.5 Q130 649 126 657 Q122 665 114 668.5 Q106 672 93 673 L56 677 L56 724 L302 724 L302 677 L261 673 Q239 671 234 657.5 Q229 644 229 600 L229 131 Z " />
<glyph glyph-name="J" unicode="J" horiz-adv-x="486" d="M40 162 L110 162 L118 117 Q124 83 138 66.5 Q152 50 195 50 Q238 50 260.5 71 Q283 92 283 156 L283 597 Q283 619 281.5 632.5 Q280 646 275.5 654 Q271 662 263.5 665.5 Q256 669 243 671 L184 676 L184 724 L456 724 L456 677 L417 674 Q394 672 386.5 658 Q379 644 379 600 L379 168 Q379 114 365.5 79.5 Q352 45 328 24.5 Q304 4 270.5 -4 Q237 -12 198 -12 Q151 -12 111 -1.5 Q71 9 53 21 L40 162 Z " />
<glyph glyph-name="K" unicode="K" horiz-adv-x="721" d="M230 363 L506 666 L506 669 L444 677 L444 724 L653 724 L653 677 L619 674 Q591 670 577 654 Q563 638 545 620 L373 431 L574 134 Q592 107 604 91 Q616 75 626 67 Q636 59 645.5 56 Q655 53 667 51 L694 48 L694 0 L442 0 L442 48 L510 55 L510 59 L306 361 L230 277 L230 129 Q230 105 230.5 90 Q231 75 234 66.5 Q237 58 244.5 54.5 Q252 51 265 50 L305 47 L305 0 L55 0 L55 48 L95 51 Q109 52 116.5 55.5 Q124 59 127.5 67 Q131 75 132 90.5 Q133 106 133 131 L133 601 Q133 623 131.5 636.5 Q130 650 125.5 658 Q121 666 113.5 669.5 Q106 673 93 674 L56 677 L56 724 L303 724 L303 677 L262 674 Q240 672 235 658 Q230 644 230 600 L230 363 Z " />
<glyph glyph-name="L" unicode="L" horiz-adv-x="585" d="M229 60 L404 60 Q434 60 449.5 69.5 Q465 79 473 107 L496 202 L555 202 L541 0 L55 0 L55 48 L95 52 Q108 54 115.5 56.5 Q123 59 127 67 Q131 75 132 90 Q133 105 133 130 L133 600 Q133 622 131.5 635.5 Q130 649 126 657 Q122 665 114 668.5 Q106 672 93 673 L56 677 L56 724 L322 724 L322 677 L267 672 Q242 670 235.5 656 Q229 642 229 598 L229 60 Z " />
<glyph glyph-name="M" unicode="M" horiz-adv-x="926" d="M870 677 L832 674 Q809 672 801 659.5 Q793 647 793 612 L793 124 Q793 99 795 84.5 Q797 70 801.5 63 Q806 56 813.5 54 Q821 52 831 51 L871 48 L871 0 L626 0 L626 48 L661 52 Q684 55 691 65.5 Q698 76 698 113 L698 581 L692 581 L495 0 L405 0 L202 578 L196 578 L196 127 Q196 87 200 70.5 Q204 54 231 51 L271 48 L271 0 L55 0 L55 48 L95 52 Q106 53 113.5 55 Q121 57 125.5 64.5 Q130 72 131.5 86.5 Q133 101 133 126 L133 601 Q133 623 131.5 636.5 Q130 650 125.5 658 Q121 666 113.5 669.5 Q106 673 93 674 L56 677 L56 724 L255 724 L465 109 L469 109 L673 724 L870 724 L870 677 Z " />
<glyph glyph-name="N" unicode="N" horiz-adv-x="768" d="M578 119 L582 119 L582 604 Q582 645 576.5 658.5 Q571 672 546 674 L507 677 L507 724 L725 724 L725 678 L686 674 Q661 672 654.5 656.5 Q648 641 648 608 L648 0 L546 0 L203 603 L199 603 L199 123 Q199 102 200 88.5 Q201 75 204.5 67 Q208 59 215 55.5 Q222 52 234 50 L271 47 L271 0 L55 0 L55 48 L95 51 Q108 52 115.5 55.5 Q123 59 127 67 Q131 75 132 90 Q133 105 133 129 L133 599 Q133 643 126.5 657.5 Q120 672 94 674 L56 678 L56 724 L242 724 L578 119 Z " />
<glyph glyph-name="O" unicode="O" horiz-adv-x="700" d="M344 -12 Q263 -12 206 17 Q149 46 113.5 95.5 Q78 145 61.5 211.5 Q45 278 45 352 Q45 432 64.5 502 Q84 572 123.5 624.5 Q163 677 224 707 Q285 737 368 737 Q445 737 499 708 Q553 679 588 629.5 Q623 580 639 513 Q655 446 655 371 Q655 289 636.5 218.5 Q618 148 580 97 Q542 46 483 17 Q424 -12 344 -12 Z M351 50 Q391 50 427 66.5 Q463 83 490.5 119.5 Q518 156 534 215.5 Q550 275 550 362 Q550 449 535.5 509 Q521 569 495.5 605.5 Q470 642 434.5 658.5 Q399 675 357 675 Q315 675 278 658.5 Q241 642 212.5 605 Q184 568 167.5 508 Q151 448 151 361 Q151 270 166.5 210 Q182 150 209 114.5 Q236 79 272.5 64.5 Q309 50 351 50 Z " />
<glyph glyph-name="P" unicode="P" horiz-adv-x="624" d="M230 122 Q230 87 234 74.5 Q238 62 258 60 L369 48 L369 0 L55 0 L55 48 L95 51 Q109 52 116.5 55.5 Q124 59 127.5 67 Q131 75 132 90.5 Q133 106 133 131 L133 606 Q133 644 126 658 Q119 672 93 674 L56 677 L56 724 L350 724 Q392 724 434.5 715.5 Q477 707 511.5 683.5 Q546 660 567.5 619.5 Q589 579 589 516 Q589 451 568.5 406 Q548 361 510.5 332.5 Q473 304 422 291.5 Q371 279 309 279 L230 279 L230 122 Z M316 341 Q369 341 401.5 356 Q434 371 452.5 395.5 Q471 420 477.5 451 Q484 482 484 514 Q484 592 444.5 627 Q405 662 327 662 L230 662 L230 341 L316 341 Z " />
<glyph glyph-name="Q" unicode="Q" horiz-adv-x="701" d="M324 -11 Q250 -5 197 25 Q144 55 110.5 103 Q77 151 61 215 Q45 279 45 352 Q45 432 64.5 502 Q84 572 123.5 624.5 Q163 677 224 707 Q285 737 368 737 Q445 737 499 708 Q553 679 588 629.5 Q623 580 639 513 Q655 446 655 371 Q655 298 640.5 235.5 Q626 173 597 125 Q568 77 523 44.5 Q478 12 416 0 L416 -5 Q469 -7 500.5 -22 Q532 -37 564 -68 Q589 -92 618 -107.5 Q647 -123 696 -121 L722 -120 L729 -155 Q708 -166 678 -176.5 Q648 -187 610 -187 Q559 -187 526 -163 Q493 -139 467 -98 Q441 -58 410.5 -37 Q380 -16 324 -11 Z M351 50 Q391 50 427 66.5 Q463 83 490.5 119.5 Q518 156 534 215.5 Q550 275 550 362 Q550 449 535.5 509 Q521 569 495.5 605.5 Q470 642 434.5 658.5 Q399 675 357 675 Q315 675 278 658.5 Q241 642 212.5 605 Q184 568 167.5 508 Q151 448 151 361 Q151 270 166.5 210 Q182 150 209 114.5 Q236 79 272.5 64.5 Q309 50 351 50 Z " />
<glyph glyph-name="R" unicode="R" horiz-adv-x="676" d="M666 10 Q647 -1 622.5 -6 Q598 -11 582 -11 Q526 -11 498 13.5 Q470 38 453 92 Q442 126 432 160.5 Q422 195 411 230 Q404 252 397 267 Q390 282 379 291.5 Q368 301 352 305 Q336 309 310 309 L229 309 L229 131 Q229 106 229.5 91 Q230 76 234 68 Q238 60 245.5 57 Q253 54 267 52 L298 48 L298 0 L55 0 L55 48 L95 51 Q109 52 116.5 55.5 Q124 59 127.5 67 Q131 75 132 90.5 Q133 106 133 131 L133 599 Q133 642 126 657 Q119 672 93 674 L56 677 L56 724 L346 724 Q392 724 434 715 Q476 706 508.5 683.5 Q541 661 560 623.5 Q579 586 579 530 Q579 491 565 459.5 Q551 428 529 404 Q507 380 479.5 364.5 Q452 349 425 342 Q457 333 477 309.5 Q497 286 509 251 L552 122 Q560 98 569 83.5 Q578 69 591 62 Q604 55 621 53 Q638 51 663 51 L666 10 Z M229 371 L320 371 Q396 371 435.5 409.5 Q475 448 475 530 Q475 566 463 591 Q451 616 431 632 Q411 648 385 655 Q359 662 330 662 L229 662 L229 371 Z " />
<glyph glyph-name="S" unicode="S" horiz-adv-x="547" d="M416 550 L403 622 Q401 635 395 645 Q389 655 377 661.5 Q365 668 344.5 671.5 Q324 675 293 675 Q250 675 223 663 Q196 651 181 633.5 Q166 616 160.5 595 Q155 574 155 556 Q155 508 181 482 Q207 456 246 439.5 Q285 423 330 410 Q375 397 414 374.5 Q453 352 479 314 Q505 276 505 210 Q505 146 480 103 Q455 60 417 35 Q379 10 332.5 -0.5 Q286 -11 242 -11 Q170 -11 119.5 2.5 Q69 16 42 31 L54 180 L110 180 L120 113 Q123 100 128.5 88.5 Q134 77 147.5 69 Q161 61 185.5 56.5 Q210 52 250 52 Q283 52 313 59.5 Q343 67 365 83.5 Q387 100 400 126 Q413 152 413 189 Q413 238 387 265.5 Q361 293 321.5 310 Q282 327 236 340.5 Q190 354 150.5 375.5 Q111 397 85 433 Q59 469 59 531 Q59 569 72.5 605.5 Q86 642 115 671.5 Q144 701 190.5 719 Q237 737 304 737 Q346 737 395.5 727 Q445 717 480 699 L472 545 L416 550 Z " />
<glyph glyph-name="T" unicode="T" horiz-adv-x="649" d="M373 107 Q373 73 380.5 65.5 Q388 58 403 56 L487 48 L487 0 L162 0 L162 48 L246 56 Q261 58 268.5 65.5 Q276 73 276 107 L276 664 L182 664 Q152 664 138 655.5 Q124 647 116 621 L95 541 L35 539 L45 724 L604 724 L614 539 L554 541 L533 620 Q525 646 512 655 Q499 664 469 664 L373 664 L373 107 Z " />
<glyph glyph-name="U" unicode="U" horiz-adv-x="749" d="M563 614 Q563 652 555.5 662 Q548 672 527 674 L488 677 L488 724 L706 724 L706 678 L667 674 Q643 672 636 657.5 Q629 643 629 612 L629 245 Q629 180 610.5 131.5 Q592 83 559 51.5 Q526 20 480.5 4.5 Q435 -11 381 -11 Q295 -11 243.5 13 Q192 37 164.5 76 Q137 115 128.5 164.5 Q120 214 120 265 L120 602 Q120 642 112.5 656.5 Q105 671 73 674 L43 677 L43 724 L289 724 L289 677 L247 673 Q227 671 221.5 658.5 Q216 646 216 613 L216 255 Q216 154 252.5 100.5 Q289 47 382 47 Q424 47 458 58 Q492 69 515 94 Q538 119 550.5 158.5 Q563 198 563 255 L563 614 Z " />
<glyph glyph-name="V" unicode="V" horiz-adv-x="674" d="M348 70 L352 70 L531 669 L459 677 L459 724 L664 724 L664 677 L635 674 Q622 673 614 670.5 Q606 668 601 662.5 Q596 657 592.5 647 Q589 637 584 620 L396 0 L279 0 L93 591 Q85 615 79.5 630.5 Q74 646 68 655 Q62 664 55 668 Q48 672 36 674 L10 677 L10 724 L248 724 L248 677 L170 666 L348 70 Z " />
<glyph glyph-name="W" unicode="W" horiz-adv-x="977" d="M631 0 L492 623 L487 623 L345 0 L235 0 L91 596 Q87 619 82 633.5 Q77 648 70.5 656 Q64 664 55.5 668 Q47 672 36 674 L10 677 L10 724 L253 724 L253 677 L175 666 L302 115 L307 115 L445 724 L557 724 L697 115 L702 115 L833 669 L761 677 L761 724 L967 724 L967 677 L936 674 Q910 672 901.5 660 Q893 648 885 613 L740 0 L631 0 Z " />
<glyph glyph-name="X" unicode="X" horiz-adv-x="706" d="M299 353 L131 606 Q117 627 107 639.5 Q97 652 88.5 659 Q80 666 72 669 Q64 672 54 674 L29 677 L29 724 L281 724 L281 677 L208 667 L208 665 L366 423 L536 665 L536 667 L468 677 L468 724 L678 724 L678 677 L650 674 Q624 669 610 657.5 Q596 646 576 618 L406 379 L580 119 Q604 84 620 69 Q636 54 662 51 L691 48 L691 0 L420 0 L420 48 L502 57 L502 62 L341 305 L163 60 L163 55 L236 48 L236 0 L14 0 L14 48 L42 51 Q67 56 83 68 Q99 80 119 108 L299 353 Z " />
<glyph glyph-name="Y" unicode="Y" horiz-adv-x="632" d="M275 287 L99 598 Q87 621 78 635 Q69 649 61.5 657 Q54 665 46 669 Q38 673 27 675 L5 677 L5 724 L245 724 L245 677 L167 666 L334 362 L338 362 L498 666 L420 677 L420 724 L627 724 L627 677 L609 675 Q596 674 587 669.5 Q578 665 569.5 656 Q561 647 552.5 632.5 Q544 618 532 596 L371 296 L371 106 Q371 72 378.5 63.5 Q386 55 401 54 L475 48 L475 0 L171 0 L171 48 L245 54 Q260 55 267.5 63.5 Q275 72 275 106 L275 287 Z " />
<glyph glyph-name="Z" unicode="Z" horiz-adv-x="623" d="M45 0 L45 53 L457 664 L207 664 Q174 664 163 652 Q152 640 144 613 L129 560 L67 556 L82 724 L563 724 L563 656 L167 60 L417 60 Q449 60 460.5 70 Q472 80 482 106 L509 192 L573 192 L552 0 L45 0 Z " />
<glyph glyph-name="bracketleft" unicode="&#x5b;" horiz-adv-x="293" d="M80 -183 L80 774 L248 774 L248 727 L223 725 Q207 723 196.5 720 Q186 717 180 709.5 Q174 702 171.5 687.5 Q169 673 169 649 L169 -52 Q169 -75 170 -89.5 Q171 -104 176 -113 Q181 -122 192 -126.5 Q203 -131 222 -133 L248 -136 L248 -183 L80 -183 Z " />
<glyph glyph-name="backslash" unicode="&#x5c;" horiz-adv-x="425" d="M317 -92 L29 781 L101 781 L390 -92 L317 -92 Z " />
<glyph glyph-name="bracketright" unicode="&#x5d;" horiz-adv-x="293" d="M213 774 L213 -183 L45 -183 L45 -136 L70 -134 Q87 -132 97.5 -129 Q108 -126 114 -118.5 Q120 -111 122 -96.5 Q124 -82 124 -58 L124 643 Q124 666 123 680.5 Q122 695 117 704 Q112 713 101.5 717.5 Q91 722 71 724 L45 727 L45 774 L213 774 Z " />
<glyph glyph-name="asciicircum" unicode="&#x5e;" horiz-adv-x="561" d="M441 311 L278 601 L118 311 L50 311 L250 662 L310 662 L511 311 L441 311 Z " />
<glyph glyph-name="underscore" unicode="&#x5f;" horiz-adv-x="520" d="M10 -111 L10 -51 L510 -51 L510 -111 L10 -111 Z " />
<glyph glyph-name="grave" unicode="&#x60;" horiz-adv-x="500" d="M129 719 L129 734 L216 775 L347 594 L312 567 L129 719 Z " />
<glyph glyph-name="a" unicode="a" horiz-adv-x="524" d="M497 4 Q478 -5 462 -8 Q446 -11 429 -11 Q354 -11 342 63 Q324 33 286.5 11 Q249 -11 196 -11 Q153 -11 124 0 Q95 11 77 30 Q59 49 51.5 74.5 Q44 100 44 129 Q44 178 64.5 209.5 Q85 241 122.5 259 Q160 277 214 285 Q268 293 334 296 L334 351 Q334 411 312 435.5 Q290 460 239 460 Q197 460 164.5 452.5 Q132 445 90 428 L72 477 Q98 494 147 512 Q196 530 257 530 Q295 530 325.5 521.5 Q356 513 377.5 492.5 Q399 472 410.5 438.5 Q422 405 422 354 L422 96 Q422 65 429 55.5 Q436 46 462 43 L494 39 L497 4 Z M334 240 Q229 239 184.5 217 Q140 195 140 137 Q140 95 163 75 Q186 55 226 55 Q277 55 305.5 84.5 Q334 114 334 158 L334 240 Z " />
<glyph glyph-name="b" unicode="b" horiz-adv-x="582" d="M103 614 Q103 649 92 662.5 Q81 676 54 681 L25 686 L31 727 L170 745 L192 733 L192 463 Q223 494 262 512 Q301 530 344 530 Q386 530 421 514.5 Q456 499 481.5 467 Q507 435 521.5 386 Q536 337 536 271 Q536 198 520.5 144.5 Q505 91 477 56.5 Q449 22 410.5 5.5 Q372 -11 327 -11 Q307 -11 286 -6 Q265 -1 245.5 8 Q226 17 209.5 28 Q193 39 182 51 L171 0 L85 0 Q96 40 99.5 74.5 Q103 109 103 159 L103 614 Z M192 99 Q216 81 245.5 69.5 Q275 58 304 58 Q369 58 404.5 107 Q440 156 440 267 Q440 367 407 411.5 Q374 456 319 456 Q292 456 262 447.5 Q232 439 192 411 L192 99 Z " />
<glyph glyph-name="c" unicode="c" horiz-adv-x="500" d="M462 54 Q451 44 433.5 32.5 Q416 21 393 11.5 Q370 2 342 -4.5 Q314 -11 281 -11 Q221 -11 177 10.5 Q133 32 103.5 68 Q74 104 59.5 151.5 Q45 199 45 252 Q45 325 65 377.5 Q85 430 120 464 Q155 498 201.5 514 Q248 530 302 530 Q322 530 344 526.5 Q366 523 388 517 Q410 511 428.5 503 Q447 495 459 486 L451 346 L387 352 L373 417 Q369 441 352 453.5 Q335 466 294 466 Q227 466 184.5 418 Q142 370 142 268 Q142 210 156 170 Q170 130 193 106 Q216 82 246.5 71.5 Q277 61 310 61 Q346 61 378 70 Q410 79 435 94 L462 54 Z " />
<glyph glyph-name="d" unicode="d" horiz-adv-x="579" d="M416 0 L400 63 Q345 -11 245 -11 Q155 -11 100 54.5 Q45 120 45 250 Q45 324 61.5 376.5 Q78 429 107 463.5 Q136 498 175 514 Q214 530 260 530 Q296 530 330 518 Q364 506 390 479 L390 614 Q390 649 379 662.5 Q368 676 341 681 L312 686 L318 727 L462 745 L479 734 L479 113 Q479 79 485.5 65.5 Q492 52 521 47 L549 42 L549 0 L416 0 Z M390 420 Q368 438 338 449 Q308 460 272 460 Q212 460 176.5 413 Q141 366 141 259 Q141 152 174 105.5 Q207 59 270 59 Q340 59 390 112 L390 420 Z " />
<glyph glyph-name="e" unicode="e" horiz-adv-x="513" d="M468 56 Q425 23 379.5 6 Q334 -11 281 -11 Q223 -11 178.5 10 Q134 31 104.5 67 Q75 103 60 152 Q45 201 45 256 Q45 328 64.5 379.5 Q84 431 116 464.5 Q148 498 190 514 Q232 530 277 530 Q319 530 355 517 Q391 504 417 475.5 Q443 447 458 402.5 Q473 358 473 295 Q473 266 470 243 L143 243 Q145 157 187.5 110 Q230 63 302 63 Q344 63 375 71.5 Q406 80 443 99 L468 56 Z M379 303 Q384 388 354 430 Q324 472 270 472 Q214 472 180.5 431.5 Q147 391 142 303 L379 303 Z " />
<glyph glyph-name="f" unicode="f" horiz-adv-x="361" d="M65 45 Q80 47 89 50.5 Q98 54 102.5 62 Q107 70 108 85 Q109 100 109 125 L109 460 L45 460 L50 507 L109 519 L109 580 Q109 613 116 644 Q123 675 141 698 Q159 721 189.5 735 Q220 749 266 749 Q305 749 336 740 Q367 731 391 718 L386 611 L325 616 L315 662 Q311 679 299.5 685 Q288 691 266 691 Q231 691 214.5 670 Q198 649 198 598 L198 519 L350 519 L344 460 L198 460 L198 125 Q198 101 200 87 Q202 73 209 65 Q216 57 229 53.5 Q242 50 263 47 L303 43 L303 0 L48 0 L48 43 L65 45 Z " />
<glyph glyph-name="g" unicode="g" horiz-adv-x="503" d="M408 451 Q431 428 439.5 398 Q448 368 448 345 Q448 302 432 270 Q416 238 388.5 216 Q361 194 325 183 Q289 172 249 172 Q226 172 206 174.5 Q186 177 175 180 L139 97 L331 88 Q365 87 394 80 Q423 73 444 58.5 Q465 44 477 22 Q489 0 489 -33 Q489 -75 468 -105.5 Q447 -136 411.5 -155.5 Q376 -175 328 -184 Q280 -193 226 -193 Q201 -193 166 -189 Q131 -185 99.5 -173 Q68 -161 46 -138 Q24 -115 24 -77 Q24 -51 39.5 -24.5 Q55 2 94 27 Q73 34 64 45.5 Q55 57 55 74 Q55 91 62 103.5 Q69 116 82 136 L127 199 Q91 218 67.5 253.5 Q44 289 44 340 Q44 389 62 425 Q80 461 108.5 484 Q137 507 172 518.5 Q207 530 242 530 Q277 530 304.5 523 Q332 516 346 508 L469 517 L476 467 L408 451 Z M358 348 Q358 414 328.5 442 Q299 470 248 470 Q196 470 165 440 Q134 410 134 351 Q134 315 143 292 Q152 269 167 255.5 Q182 242 202 237 Q222 232 244 232 Q295 232 326.5 258.5 Q358 285 358 348 Z M402 -51 Q402 -20 380 -7 Q358 6 305 9 L150 16 Q136 2 123 -17.5 Q110 -37 110 -61 Q110 -92 142 -109.5 Q174 -127 246 -127 Q268 -127 295 -124.5 Q322 -122 346 -113.5 Q370 -105 386 -90 Q402 -75 402 -51 Z " />
<glyph glyph-name="h" unicode="h" horiz-adv-x="627" d="M200 127 Q200 103 200.5 88 Q201 73 204.5 64 Q208 55 215 51.5 Q222 48 235 46 L263 42 L263 0 L39 0 L39 43 L71 47 Q84 49 92 52 Q100 55 104 63.5 Q108 72 109.5 87 Q111 102 111 127 L111 614 Q111 649 100 662.5 Q89 676 62 681 L33 686 L39 727 L178 745 L200 733 L200 455 Q233 485 274 507.5 Q315 530 372 530 Q405 530 433 521 Q461 512 481.5 491 Q502 470 513.5 435 Q525 400 525 349 L525 127 Q525 103 526.5 88 Q528 73 532 64.5 Q536 56 544 52.5 Q552 49 565 47 L600 42 L600 0 L374 0 L374 42 L403 46 Q426 49 431 63.5 Q436 78 436 121 L436 341 Q436 395 412.5 424 Q389 453 338 453 Q303 453 267.5 440 Q232 427 200 407 L200 127 Z " />
<glyph glyph-name="i" unicode="i" horiz-adv-x="316" d="M216 692 Q216 660 199 644 Q182 628 150 628 Q120 628 102.5 644 Q85 660 85 692 Q85 723 102.5 738.5 Q120 754 150 754 Q181 754 198.5 738.5 Q216 723 216 692 Z M208 127 Q208 103 209 87.5 Q210 72 214 63.5 Q218 55 224.5 51.5 Q231 48 243 47 L279 43 L279 0 L47 0 L47 43 L79 47 Q92 49 100 52 Q108 55 112 63.5 Q116 72 117.5 87 Q119 102 119 127 L119 395 Q119 430 107.5 442.5 Q96 455 70 460 L41 465 L47 506 L193 524 L208 517 L208 127 Z " />
<glyph glyph-name="j" unicode="j" horiz-adv-x="285" d="M200 129 Q200 66 193 19.5 Q186 -27 168 -63 Q150 -99 118.5 -129 Q87 -159 38 -189 L10 -149 Q32 -133 50 -111.5 Q68 -90 81.5 -61 Q95 -32 102.5 6 Q110 44 110 93 L110 395 Q110 430 99 442.5 Q88 455 62 460 L33 465 L39 506 L185 524 L200 517 L200 129 Z M216 692 Q216 660 199 644 Q182 628 150 628 Q120 628 102.5 644 Q85 660 85 692 Q85 723 102.5 738.5 Q120 754 150 754 Q181 754 198.5 738.5 Q216 723 216 692 Z " />
<glyph glyph-name="k" unicode="k" horiz-adv-x="585" d="M200 292 L396 462 L396 466 L330 472 L338 519 L541 519 L541 474 L521 472 Q501 470 485 460.5 Q469 451 444 431 L329 330 L463 117 Q486 78 503.5 65 Q521 52 542 47 L560 43 L560 0 L426 0 L342 134 L258 268 L200 218 L200 127 Q200 103 201 87.5 Q202 72 206 63.5 Q210 55 216.5 51.5 Q223 48 235 47 L271 43 L271 0 L39 0 L39 43 L71 47 Q84 49 92 52 Q100 55 104 63.5 Q108 72 109.5 87 Q111 102 111 127 L111 614 Q111 648 99.5 662 Q88 676 62 681 L33 686 L39 727 L178 745 L200 733 L200 292 Z " />
<glyph glyph-name="l" unicode="l" horiz-adv-x="313" d="M205 127 Q205 103 206 87.5 Q207 72 211 63.5 Q215 55 221.5 51.5 Q228 48 240 47 L276 43 L276 0 L44 0 L44 43 L76 47 Q89 49 97 52 Q105 55 109 63.5 Q113 72 114.5 87 Q116 102 116 127 L116 614 Q116 649 105 662.5 Q94 676 67 681 L38 686 L44 727 L183 745 L205 733 L205 127 Z " />
<glyph glyph-name="m" unicode="m" horiz-adv-x="929" d="M205 127 Q205 103 206 88 Q207 73 210.5 64.5 Q214 56 221 52 Q228 48 240 46 L270 42 L270 0 L44 0 L44 43 L76 47 Q89 49 97 52 Q105 55 109 63.5 Q113 72 114.5 87 Q116 102 116 127 L116 394 Q116 429 104.5 442.5 Q93 456 67 461 L38 466 L44 507 L174 524 L188 518 L197 449 Q235 484 275.5 507 Q316 530 369 530 Q413 530 447.5 511.5 Q482 493 500 447 Q538 483 580.5 506.5 Q623 530 680 530 Q712 530 739 521 Q766 512 785.5 491 Q805 470 816 435 Q827 400 827 349 L827 127 Q827 103 828.5 88 Q830 73 834 64.5 Q838 56 846 52.5 Q854 49 867 47 L902 42 L902 0 L677 0 L677 42 L706 46 Q717 48 723.5 51.5 Q730 55 733 63.5 Q736 72 737 85.5 Q738 99 738 121 L738 339 Q738 397 716 424 Q694 451 649 451 Q615 451 579.5 438 Q544 425 512 405 Q514 392 515 378.5 Q516 365 516 349 L516 127 Q516 102 517 87 Q518 72 521 63.5 Q524 55 530.5 51.5 Q537 48 549 46 L576 42 L576 0 L369 0 L369 42 L395 46 Q406 48 412.5 51.5 Q419 55 422 63.5 Q425 72 426 85.5 Q427 99 427 121 L427 339 Q427 397 405 424 Q383 451 341 451 Q306 451 271.5 438 Q237 425 205 405 L205 127 Z " />
<glyph glyph-name="n" unicode="n" horiz-adv-x="633" d="M206 127 Q206 103 206.5 88 Q207 73 210.5 64 Q214 55 221 51.5 Q228 48 241 46 L269 42 L269 0 L44 0 L44 43 L76 47 Q89 49 97 52 Q105 55 109 63.5 Q113 72 114.5 87 Q116 102 116 127 L116 394 Q116 429 104.5 442.5 Q93 456 67 461 L38 466 L44 507 L175 524 L189 518 L198 449 Q236 484 278.5 507 Q321 530 378 530 Q411 530 439.5 521 Q468 512 488 491 Q508 470 519.5 435 Q531 400 531 349 L531 127 Q531 103 532.5 88 Q534 73 538 64.5 Q542 56 550 52.5 Q558 49 571 47 L606 42 L606 0 L381 0 L381 42 L410 46 Q422 48 428.5 51.5 Q435 55 438 63.5 Q441 72 441.5 85.5 Q442 99 442 121 L442 341 Q442 395 419 424 Q396 453 344 453 Q309 453 273.5 440 Q238 427 206 407 L206 127 Z " />
<glyph glyph-name="o" unicode="o" horiz-adv-x="558" d="M275 -11 Q215 -11 172 8.5 Q129 28 100.5 63.5 Q72 99 58.5 149 Q45 199 45 260 Q45 321 61.5 371 Q78 421 109 456 Q140 491 185 510.5 Q230 530 287 530 Q346 530 389 510.5 Q432 491 459.5 455.5 Q487 420 500 370.5 Q513 321 513 261 Q513 199 498 148.5 Q483 98 453 62.5 Q423 27 378.5 8 Q334 -11 275 -11 Z M280 45 Q342 45 379 96.5 Q416 148 416 261 Q416 370 381 421 Q346 472 282 472 Q218 472 180 421.5 Q142 371 142 260 Q142 148 179 96.5 Q216 45 280 45 Z " />
<glyph glyph-name="p" unicode="p" horiz-adv-x="584" d="M106 393 Q106 426 95.5 440.5 Q85 455 59 460 L30 465 L36 506 L163 524 L178 517 L187 455 Q219 489 260.5 509.5 Q302 530 347 530 Q389 530 424.5 514.5 Q460 499 485.5 467 Q511 435 525 386 Q539 337 539 271 Q539 198 523.5 144.5 Q508 91 480.5 56.5 Q453 22 414.5 5.5 Q376 -11 330 -11 Q288 -11 252.5 4 Q217 19 195 43 L195 -56 Q195 -80 196 -95.5 Q197 -111 201 -119.5 Q205 -128 211.5 -131.5 Q218 -135 230 -136 L288 -142 L288 -183 L39 -183 L39 -140 L66 -137 Q79 -136 87 -132.5 Q95 -129 99 -120.5 Q103 -112 104.5 -96.5 Q106 -81 106 -56 L106 393 Z M195 99 Q220 79 249.5 68 Q279 57 314 57 Q373 57 408 106.5 Q443 156 443 267 Q443 367 410 412 Q377 457 322 457 Q295 457 264.5 447.5 Q234 438 195 411 L195 99 Z " />
<glyph glyph-name="q" unicode="q" horiz-adv-x="568" d="M301 -183 L301 -142 L355 -136 Q367 -135 374 -131.5 Q381 -128 384.5 -119.5 Q388 -111 389.5 -96 Q391 -81 391 -57 L391 57 Q367 27 330 8 Q293 -11 244 -11 Q200 -11 163.5 5 Q127 21 100.5 53.5 Q74 86 59.5 135 Q45 184 45 250 Q45 329 63.5 382.5 Q82 436 112 469 Q142 502 181 516 Q220 530 262 530 Q306 530 339.5 514 Q373 498 397 472 L411 519 L486 519 Q482 475 480.5 434.5 Q479 394 479 350 L479 -57 Q479 -82 480.5 -97 Q482 -112 486 -120.5 Q490 -129 498 -132.5 Q506 -136 519 -137 L546 -140 L546 -183 L301 -183 Z M390 421 Q368 439 338 450 Q308 461 272 461 Q212 461 176.5 413.5 Q141 366 141 258 Q141 152 174 105 Q207 58 270 58 Q299 58 329.5 70.5 Q360 83 390 111 L390 421 Z " />
<glyph glyph-name="r" unicode="r" horiz-adv-x="429" d="M206 127 Q206 103 207 88 Q208 73 212 64.5 Q216 56 222.5 52.5 Q229 49 240 48 L298 41 L298 0 L49 0 L49 43 L76 46 Q89 48 97 51 Q105 54 109 62.5 Q113 71 114.5 86.5 Q116 102 116 127 L116 394 Q116 429 104.5 442.5 Q93 456 67 461 L38 466 L44 507 L174 524 L188 518 L200 446 Q226 480 259.5 505 Q293 530 338 530 Q352 530 368 527 Q384 524 398 517 L391 412 L379 412 Q349 426 326.5 431.5 Q304 437 287 437 Q259 437 239 422.5 Q219 408 206 397 L206 127 Z " />
<glyph glyph-name="s" unicode="s" horiz-adv-x="474" d="M352 374 L337 432 Q332 449 317 459.5 Q302 470 258 470 Q215 470 183.5 453 Q152 436 152 394 Q152 362 172.5 345.5 Q193 329 224.5 318.5 Q256 308 292 299 Q328 290 359.5 274.5 Q391 259 411.5 231.5 Q432 204 432 157 Q432 126 421.5 96 Q411 66 387 42 Q363 18 324.5 3.5 Q286 -11 230 -11 Q167 -11 125 2 Q83 15 60 28 L71 160 L126 160 L139 93 Q144 71 163.5 60 Q183 49 235 49 Q284 49 315.5 69 Q347 89 347 136 Q347 171 326.5 189 Q306 207 275 217.5 Q244 228 208.5 236 Q173 244 142 259 Q111 274 90.5 300.5 Q70 327 70 375 Q70 445 122 487.5 Q174 530 264 530 Q315 530 354.5 519.5 Q394 509 417 495 L412 366 L352 374 Z " />
<glyph glyph-name="t" unicode="t" horiz-adv-x="382" d="M357 32 Q332 15 296.5 2 Q261 -11 219 -11 Q158 -11 130.5 24.5 Q103 60 103 129 L103 460 L22 460 L28 509 L108 520 L141 644 L192 644 L192 519 L326 519 L318 460 L192 460 L192 143 Q192 97 206.5 77 Q221 57 253 57 Q279 57 300 63.5 Q321 70 336 78 L357 32 Z " />
<glyph glyph-name="u" unicode="u" horiz-adv-x="631" d="M520 117 Q520 82 531 68.5 Q542 55 569 50 L594 46 L592 4 L466 -7 L452 -1 L439 70 Q401 35 358 12 Q315 -11 261 -11 Q230 -11 202.5 -2 Q175 7 155 28 Q135 49 123.5 84 Q112 119 112 170 L112 394 Q112 429 100.5 442.5 Q89 456 63 461 L34 466 L40 507 L187 524 L201 518 L201 180 Q201 126 223 96 Q245 66 295 66 Q327 66 363 79 Q399 92 431 112 L431 394 Q431 429 419.5 442.5 Q408 456 382 461 L353 466 L359 507 L506 524 L520 518 L520 117 Z " />
<glyph glyph-name="v" unicode="v" horiz-adv-x="558" d="M237 0 L78 407 Q71 425 65.5 436.5 Q60 448 54.5 455 Q49 462 42.5 465.5 Q36 469 25 471 L10 474 L19 519 L215 519 L215 474 L156 466 L294 78 L298 78 L430 466 L366 474 L373 519 L548 519 L548 475 L534 473 Q522 471 514 468 Q506 465 500.5 459 Q495 453 490 443 Q485 433 479 416 L337 0 L237 0 Z " />
<glyph glyph-name="w" unicode="w" horiz-adv-x="817" d="M198 0 L80 407 Q69 444 58.5 455.5 Q48 467 27 471 L12 474 L21 519 L222 519 L222 474 L156 466 L252 102 L256 102 L365 513 L471 513 L586 97 L590 97 L687 465 L618 474 L625 519 L807 519 L807 475 L793 473 Q781 471 772.5 468.5 Q764 466 758 460 Q752 454 747.5 443.5 Q743 433 738 416 L621 0 L528 0 L409 423 L405 423 L291 0 L198 0 Z " />
<glyph glyph-name="x" unicode="x" horiz-adv-x="545" d="M324 0 L324 44 L376 53 L376 57 L262 207 L163 75 L147 53 L211 45 L211 0 L15 0 L15 44 L34 47 Q57 52 69 60.5 Q81 69 99 92 L225 255 L96 427 Q85 442 72.5 452.5 Q60 463 38 469 L15 475 L24 519 L238 519 L238 474 L176 465 L176 460 L283 317 L401 466 L337 474 L344 519 L526 519 L526 475 L507 472 Q484 467 472 457.5 Q460 448 443 424 L319 269 L457 84 Q470 67 481 59.5 Q492 52 508 48 L532 43 L532 0 L324 0 Z " />
<glyph glyph-name="y" unicode="y" horiz-adv-x="547" d="M303 17 Q280 -39 263 -76 Q246 -113 230 -137 Q214 -161 196 -173 Q178 -185 153 -190 Q137 -193 118 -193 Q87 -193 58 -183 Q29 -173 15 -161 L38 -108 Q52 -113 71.5 -117 Q91 -121 109 -121 Q132 -121 149 -115 Q166 -109 181 -93 Q196 -77 210 -50 Q224 -23 241 18 L79 414 Q66 444 56.5 454.5 Q47 465 30 469 L6 474 L15 519 L227 519 L227 474 L158 466 L286 130 L288 130 L420 466 L346 474 L353 519 L537 519 L537 475 L522 473 Q510 472 502 468 Q494 464 487.5 456.5 Q481 449 475 436 Q469 423 461 403 L303 17 Z " />
<glyph glyph-name="z" unicode="z" horiz-adv-x="498" d="M49 0 L49 57 L337 460 L168 460 Q143 460 135.5 451.5 Q128 443 122 418 L114 378 L45 374 L60 519 L444 519 L444 462 L156 59 L334 59 Q361 59 371 69 Q381 79 390 100 L407 147 L463 147 L449 0 L49 0 Z " />
<glyph glyph-name="braceleft" unicode="&#x7b;" horiz-adv-x="317" d="M265 724 Q223 724 203.5 710 Q184 696 184 658 Q184 639 187.5 604.5 Q191 570 195.5 532.5 Q200 495 203.5 460 Q207 425 207 403 Q207 371 197 341.5 Q187 312 152 297 Q153 297 153 296.5 Q153 296 154 296 Q186 282 196.5 255.5 Q207 229 207 187 Q207 165 203.5 131.5 Q200 98 196.5 62.5 Q193 27 189.5 -6 Q186 -39 186 -58 Q186 -94 205.5 -108 Q225 -122 267 -122 L272 -167 Q255 -171 242 -171.5 Q229 -172 221 -172 Q207 -172 196 -170.5 Q185 -169 174 -167 Q94 -148 94 -58 Q94 -50 94 -42 Q94 -34 95 -25 Q97 2 101 34 Q105 66 108.5 98 Q112 130 115 160.5 Q118 191 118 216 Q118 251 101 262 Q84 273 50 276 L50 317 Q84 320 101 331 Q118 342 118 377 Q118 402 115 433.5 Q112 465 107.5 498.5 Q103 532 99 565.5 Q95 599 93 627 Q92 635 92 642.5 Q92 650 92 658 Q92 700 109.5 730 Q127 760 176 770 Q193 774 221 774 Q235 774 247 772.5 Q259 771 270 769 L265 724 Z " />
<glyph glyph-name="bar" unicode="&#x7c;" horiz-adv-x="269" d="M95 -143 L95 755 L174 755 L174 -143 L95 -143 Z " />
<glyph glyph-name="braceright" unicode="&#x7d;" horiz-adv-x="317" d="M52 -122 Q94 -122 113.5 -108 Q133 -94 133 -56 Q133 -37 129.5 -2.5 Q126 32 121.5 69.5 Q117 107 113.5 142 Q110 177 110 199 Q110 231 120 260.5 Q130 290 165 305 Q164 305 164 305.5 Q164 306 163 306 Q131 320 120.5 346.5 Q110 373 110 415 Q110 437 113.5 470.5 Q117 504 120.5 539.5 Q124 575 127.5 608 Q131 641 131 660 Q131 696 111.5 710 Q92 724 50 724 L45 769 Q62 773 75 773.5 Q88 774 96 774 Q110 774 121 772.5 Q132 771 143 769 Q223 750 223 660 Q223 652 223 644 Q223 636 222 627 Q220 600 216 568.5 Q212 537 208.5 504.5 Q205 472 202 441.5 Q199 411 199 386 Q199 351 216 340 Q233 329 267 326 L267 285 Q233 282 216 271 Q199 260 199 225 Q199 200 202 168.5 Q205 137 209.5 103.5 Q214 70 218 37 Q222 4 224 -25 Q225 -33 225 -40.5 Q225 -48 225 -56 Q225 -98 207.5 -128 Q190 -158 141 -168 Q124 -172 96 -172 Q82 -172 70 -170.5 Q58 -169 47 -167 L52 -122 Z " />
<glyph glyph-name="asciitilde" unicode="&#x7e;" horiz-adv-x="563" d="M494 407 Q484 369 456.5 343 Q429 317 381 317 Q351 317 324.5 324 Q298 331 273 339.5 Q248 348 224 355 Q200 362 174 362 Q152 362 138.5 350 Q125 338 111 316 L70 349 Q83 394 112 416.5 Q141 439 182 439 Q210 439 235.5 432 Q261 425 286 416.5 Q311 408 335.5 401 Q360 394 387 394 Q411 394 425.5 406 Q440 418 453 440 L494 407 Z " />
<glyph glyph-name="uni00A0" unicode="&#xa0;" horiz-adv-x="190" d="" />
<glyph glyph-name="exclamdown" unicode="&#xa1;" horiz-adv-x="269" d="M158 359 L187 40 L187 -183 L86 -183 L86 40 L116 359 L158 359 Z M70 495 Q70 525 87 540 Q104 555 136 555 Q165 555 182 540 Q199 525 199 495 Q199 466 182 451.5 Q165 437 136 437 Q105 437 87.5 451.5 Q70 466 70 495 Z " />
<glyph glyph-name="cent" unicode="&#xa2;" horiz-adv-x="520" d="M241 83 Q150 99 105 165.5 Q60 232 60 331 Q60 400 78.5 451 Q97 502 129.5 536.5 Q162 571 205.5 589 Q249 607 299 609 L311 712 L359 712 L347 606 Q382 601 417.5 590 Q453 579 472 565 L464 428 L405 431 L394 492 Q385 536 340 543 L295 141 L306 141 Q354 141 372 156.5 Q390 172 395 197 L410 259 L473 259 L464 125 Q441 107 396.5 92.5 Q352 78 295 78 L288 78 L277 -26 L229 -26 L241 83 Z M158 344 Q158 257 183.5 212.5 Q209 168 248 151 L292 545 Q232 540 195 492 Q158 444 158 344 Z " />
<glyph glyph-name="sterling" unicode="&#xa3;" horiz-adv-x="533" d="M43 0 L35 48 Q64 52 80.5 64 Q97 76 105 98 Q113 120 114.5 151.5 Q116 183 116 226 L116 346 L51 346 L51 400 L116 400 L116 487 Q116 540 125 585.5 Q134 631 159 664.5 Q184 698 227.5 717.5 Q271 737 340 737 Q356 737 376.5 734.5 Q397 732 417.5 727 Q438 722 457.5 715 Q477 708 492 698 L486 564 L433 567 L418 630 Q412 656 391 668 Q370 680 328 680 Q293 680 270.5 669.5 Q248 659 235 639.5 Q222 620 217 592.5 Q212 565 212 532 L212 400 L385 400 L385 346 L212 346 L212 233 Q212 167 199.5 127.5 Q187 88 153 58 L325 58 Q352 58 369 62 Q386 66 397.5 75 Q409 84 415.5 97 Q422 110 426 128 L440 182 L498 182 L486 0 L43 0 Z " />
<glyph glyph-name="currency" unicode="&#xa4;" horiz-adv-x="585" d="M510 7 L418 100 Q389 79 356 71 Q323 63 288 63 Q254 63 220.5 73.5 Q187 84 162 101 L66 10 L16 61 L108 153 Q85 185 77.5 217.5 Q70 250 70 275 Q70 309 79 340 Q88 371 108 398 L20 485 L73 538 L162 449 Q193 472 226 481 Q259 490 297 490 Q327 490 360 479 Q393 468 424 447 L515 537 L564 486 L474 396 Q496 366 503.5 335.5 Q511 305 511 279 Q511 255 505 221.5 Q499 188 473 152 L565 61 L510 7 Z M294 121 Q326 121 351 133 Q376 145 393 166 Q410 187 419.5 215 Q429 243 429 275 Q429 344 393 386 Q357 428 291 428 Q260 428 235 416.5 Q210 405 192.5 384.5 Q175 364 165.5 336 Q156 308 156 275 Q156 243 165 215 Q174 187 192 166 Q210 145 235.5 133 Q261 121 294 121 Z " />
<glyph glyph-name="yen" unicode="&#xa5;" horiz-adv-x="624" d="M99 457 L188 457 L109 598 Q97 621 88 635 Q79 649 70.5 657.5 Q62 666 54 670 Q46 674 35 675 L15 677 L15 724 L254 724 L254 677 L176 666 L330 375 L335 375 L483 666 L405 677 L405 724 L609 724 L609 677 L592 675 Q580 674 571 670.5 Q562 667 553.5 658.5 Q545 650 536 635 Q527 620 515 596 L442 457 L548 457 L548 403 L413 403 L369 318 L548 318 L548 264 L368 264 L368 106 Q368 72 375 63.5 Q382 55 396 54 L472 48 L472 0 L168 0 L168 48 L245 54 Q259 55 265.5 63.5 Q272 72 272 106 L272 264 L99 264 L99 318 L266 318 L218 403 L99 403 L99 457 Z " />
<glyph glyph-name="brokenbar" unicode="&#xa6;" horiz-adv-x="269" d="M95 -143 L95 245 L174 245 L174 -143 L95 -143 Z M95 420 L95 755 L174 755 L174 420 L95 420 Z " />
<glyph glyph-name="section" unicode="&#xa7;" horiz-adv-x="543" d="M471 310 Q471 272 449 236 Q427 200 390 168 Q402 159 415 148 Q428 137 438.5 122 Q449 107 455.5 87 Q462 67 462 40 Q462 -5 445 -40 Q428 -75 398.5 -98 Q369 -121 329.5 -133 Q290 -145 245 -145 Q177 -145 133.5 -134 Q90 -123 67 -113 L74 25 L138 25 L148 -36 Q153 -65 178.5 -75 Q204 -85 246 -85 Q370 -85 370 13 Q370 47 347.5 68 Q325 89 291.5 104.5 Q258 120 219 133.5 Q180 147 146.5 165.5 Q113 184 90.5 211.5 Q68 239 68 283 Q68 326 90.5 362 Q113 398 152 426 Q122 446 102.5 478 Q83 510 83 558 Q83 606 101 640.5 Q119 675 149 696.5 Q179 718 217 728.5 Q255 739 295 739 Q345 739 390.5 728.5 Q436 718 462 705 L455 566 L397 574 L388 621 Q385 637 380.5 648.5 Q376 660 366 667.5 Q356 675 338.5 678.5 Q321 682 291 682 Q227 682 201 654 Q175 626 175 588 Q175 550 197 526.5 Q219 503 252 487 Q285 471 323 457.5 Q361 444 394 426 Q427 408 449 381 Q471 354 471 310 Z M382 280 Q382 295 377.5 305.5 Q373 316 362 325 Q351 334 332.5 343 Q314 352 286 364 L203 400 Q157 358 157 314 Q157 301 161 291 Q165 281 176.5 271 Q188 261 209 250.5 Q230 240 264 225 L337 193 Q358 212 370 233 Q382 254 382 280 Z " />
<glyph glyph-name="dieresis" unicode="&#xa8;" horiz-adv-x="500" d="M79 678 Q79 709 96 724 Q113 739 143 739 Q174 739 191 724 Q208 709 208 678 Q208 615 143 615 Q113 615 96 630.5 Q79 646 79 678 Z M285 678 Q285 709 302 724 Q319 739 349 739 Q380 739 397 724 Q414 709 414 678 Q414 615 349 615 Q319 615 302 630.5 Q285 646 285 678 Z " />
<glyph glyph-name="copyright" unicode="&#xa9;" horiz-adv-x="818" d="M753 328 Q753 252 728.5 189.5 Q704 127 659 82 Q614 37 550.5 12.5 Q487 -12 409 -12 Q321 -12 256.5 12.5 Q192 37 150 79.5 Q108 122 87.5 180.5 Q67 239 67 308 Q67 387 93 449.5 Q119 512 165 555 Q211 598 274 621 Q337 644 411 644 Q492 644 556 622 Q620 600 663.5 559.5 Q707 519 730 460.5 Q753 402 753 328 Z M680 319 Q680 387 659.5 437.5 Q639 488 603 521 Q567 554 517.5 570.5 Q468 587 411 587 Q354 587 304.5 569.5 Q255 552 218 516.5 Q181 481 160 429 Q139 377 139 308 Q139 183 211 114 Q283 45 411 45 Q472 45 521.5 63.5 Q571 82 606.5 117 Q642 152 661 203 Q680 254 680 319 Z M529 390 L487 395 L482 429 Q481 442 471.5 451 Q462 460 425 460 Q371 460 344.5 428.5 Q318 397 318 313 Q318 285 323 259.5 Q328 234 341 215 Q354 196 375 184.5 Q396 173 428 173 Q460 173 486.5 179.5 Q513 186 528 192 L543 158 Q526 147 494 133.5 Q462 120 414 120 Q366 120 331.5 134.5 Q297 149 275.5 174.5 Q254 200 244 235 Q234 270 234 312 Q234 404 280.5 457 Q327 510 424 510 Q452 510 485 502 Q518 494 535 483 L529 390 Z " />
<glyph glyph-name="ordfeminine" unicode="&#xaa;" horiz-adv-x="388" d="M373 287 Q358 279 345 277 Q332 275 318 275 Q291 275 273.5 287 Q256 299 251 324 Q238 306 212 290.5 Q186 275 149 275 Q88 275 64 303 Q40 331 40 371 Q40 404 54 425 Q68 446 94.5 458.5 Q121 471 159 476.5 Q197 482 244 483 L244 519 Q244 557 230 572 Q216 587 184 587 Q158 587 134 581.5 Q110 576 74 562 L58 602 Q78 614 116.5 626.5 Q155 639 197 639 Q225 639 248 633.5 Q271 628 287 614.5 Q303 601 312 578.5 Q321 556 321 521 L321 349 Q321 331 325.5 324.5 Q330 318 347 317 L371 316 L373 287 Z M244 440 Q177 439 150.5 425.5 Q124 412 124 378 Q124 326 176 326 Q208 326 226 344.5 Q244 363 244 390 L244 440 Z " />
<glyph glyph-name="guillemotleft" unicode="&#xab;" horiz-adv-x="434" d="M190 69 L45 251 L45 261 L190 441 L230 427 L160 291 Q148 268 149.5 253 Q151 238 163 215 L231 83 L190 69 Z M350 69 L205 251 L205 261 L350 441 L390 427 L320 291 Q308 268 309.5 253 Q311 238 323 215 L391 83 L350 69 Z " />
<glyph glyph-name="logicalnot" unicode="&#xac;" horiz-adv-x="600" d="M439 179 L439 308 L92 308 L92 379 L508 379 L508 179 L439 179 Z " />
<glyph glyph-name="uni00AD" unicode="&#xad;" horiz-adv-x="331" d="M30 244 L30 319 L301 319 L301 244 L30 244 Z " />
<glyph glyph-name="registered" unicode="&#xae;" horiz-adv-x="492" d="M432 483 Q432 441 419 406.5 Q406 372 382 347 Q358 322 323 308 Q288 294 244 294 Q196 294 161.5 308 Q127 322 104.5 346 Q82 370 71 403 Q60 436 60 474 Q60 562 112.5 611.5 Q165 661 252 661 Q339 661 385.5 613.5 Q432 566 432 483 Z M387 480 Q387 553 351.5 589 Q316 625 253 625 Q182 625 143 586 Q104 547 104 474 Q104 406 139 368.5 Q174 331 246 331 Q318 331 352.5 371.5 Q387 412 387 480 Z M158 403 L166 404 Q172 406 174 408.5 Q176 411 176 422 L176 539 Q176 548 174 551 Q172 554 165 555 L158 556 L158 575 L248 575 Q262 575 274.5 573.5 Q287 572 297 567 Q307 562 313 552 Q319 542 319 525 Q319 504 307 492.5 Q295 481 278 476 L278 475 Q296 473 303 450 L313 419 Q315 410 318 407 Q321 404 331 404 L334 404 L335 386 Q332 385 328 384 Q324 382 319 381.5 Q314 381 307 381 Q294 381 285 387 Q276 393 271 413 L263 441 Q260 453 250 455 Q240 457 232 457 L219 457 L219 421 Q219 411 222.5 408 Q226 405 234 404 L241 403 L241 384 L158 384 L158 403 Z M219 483 L238 483 Q253 483 263.5 490.5 Q274 498 274 520 Q274 540 264 545 Q254 550 240 550 L219 550 L219 483 Z " />
<glyph glyph-name="macron" unicode="&#xaf;" horiz-adv-x="500" d="M98 706 L401 706 L401 630 L98 630 L98 706 Z " />
<glyph glyph-name="degree" unicode="&#xb0;" horiz-adv-x="359" d="M204 611 Q231 611 247.5 626.5 Q264 642 264 673 Q264 711 246 726 Q228 741 204 741 Q181 741 162 726.5 Q143 712 143 674 Q143 644 159 627.5 Q175 611 204 611 Z M321 678 Q321 621 288 591.5 Q255 562 204 562 Q181 562 159.5 569.5 Q138 577 121.5 591 Q105 605 95.5 626 Q86 647 86 675 Q86 707 97 729 Q108 751 125 764.5 Q142 778 163 784 Q184 790 204 790 Q256 790 288.5 759 Q321 728 321 678 Z " />
<glyph glyph-name="plusminus" unicode="&#xb1;" horiz-adv-x="600" d="M335 326 L497 326 L497 256 L335 256 L335 94 L265 94 L265 256 L103 256 L103 326 L265 326 L265 488 L335 488 L335 326 Z M103 0 L103 70 L497 70 L497 0 L103 0 Z " />
<glyph glyph-name="twosuperior" unicode="&#xb2;" horiz-adv-x="386" d="M35 364 L35 406 L185 577 Q214 610 230.5 634 Q247 658 247 694 Q247 731 226.5 745 Q206 759 171 759 Q130 759 117.5 749.5 Q105 740 100 726 L87 682 L47 678 L40 773 Q65 788 100 799.5 Q135 811 177 811 Q252 811 286.5 779.5 Q321 748 321 693 Q321 678 317 662.5 Q313 647 303 629 Q293 611 276.5 589 Q260 567 234 539 L123 415 L221 415 Q247 415 260.5 422 Q274 429 280 446 L294 487 L341 487 L333 364 L35 364 Z " />
<glyph glyph-name="threesuperior" unicode="&#xb3;" horiz-adv-x="381" d="M176 407 Q224 407 245.5 433.5 Q267 460 267 494 Q267 534 241.5 548 Q216 562 183 562 L131 562 L131 612 L185 617 Q228 619 247.5 641 Q267 663 267 690 Q267 730 243.5 744.5 Q220 759 188 759 Q166 759 152 756 Q138 753 130 748.5 Q122 744 119 738 Q116 732 114 726 L104 682 L59 678 L53 773 Q70 784 108.5 797.5 Q147 811 198 811 Q224 811 248.5 805.5 Q273 800 293 787.5 Q313 775 325 755 Q337 735 337 705 Q337 663 315 635.5 Q293 608 261 594 Q299 583 320 556 Q341 529 341 491 Q341 432 297.5 393.5 Q254 355 175 355 Q121 355 88 367.5 Q55 380 35 393 L43 486 L87 486 L97 443 Q102 423 118.5 415 Q135 407 176 407 Z " />
<glyph glyph-name="acute" unicode="&#xb4;" horiz-adv-x="500" d="M188 567 L153 594 L284 775 L371 734 L371 719 L188 567 Z " />
<glyph glyph-name="mu" unicode="&#xb5;" horiz-adv-x="603" d="M399 525 L488 525 L488 104 Q488 82 490 69.5 Q492 57 499.5 51 Q507 45 521 43 Q535 41 560 39 L563 4 Q533 -11 497 -11 Q411 -11 402 67 Q381 39 350.5 14 Q320 -11 274 -11 Q233 -11 209 2.5 Q185 16 169 33 L169 -183 L80 -183 L80 525 L169 525 L169 161 Q169 133 177 114.5 Q185 96 199.5 85 Q214 74 233.5 70 Q253 66 275 66 Q311 66 342.5 81 Q374 96 399 112 L399 525 Z " />
<glyph glyph-name="paragraph" unicode="&#xb6;" horiz-adv-x="657" d="M514 -136 L443 -136 L443 667 L347 667 L347 -136 L276 -136 L276 276 Q168 281 111.5 340.5 Q55 400 55 497 Q55 562 77.5 605.5 Q100 649 137 675 Q174 701 222 712.5 Q270 724 322 724 L576 724 L576 677 L552 674 Q528 671 521 661 Q514 651 514 624 L514 -136 Z " />
<glyph glyph-name="periodcentered" unicode="&#xb7;" horiz-adv-x="239" d="M186 354 Q186 323 167.5 307.5 Q149 292 117 292 Q88 292 70 307.5 Q52 323 52 354 Q52 383 70 398.5 Q88 414 117 414 Q149 414 167.5 398.5 Q186 383 186 354 Z " />
<glyph glyph-name="cedilla" unicode="&#xb8;" horiz-adv-x="500" d="M151 -162 Q164 -166 177 -167.5 Q190 -169 202 -169 Q227 -169 243 -159 Q259 -149 259 -124 Q259 -103 239.5 -91.5 Q220 -80 185 -75 L214 29 L264 23 L249 -36 Q264 -39 279.5 -45.5 Q295 -52 308 -62 Q321 -72 329 -87 Q337 -102 337 -123 Q337 -148 327 -167 Q317 -186 300 -198.5 Q283 -211 260.5 -217.5 Q238 -224 212 -224 Q187 -224 167 -219.5 Q147 -215 136 -209 L151 -162 Z " />
<glyph glyph-name="onesuperior" unicode="&#xb9;" horiz-adv-x="310" d="M191 453 Q191 432 199.5 421 Q208 410 232 408 L265 404 L265 364 L36 364 L36 404 L76 409 Q102 411 110 423 Q118 435 118 453 L118 683 Q118 708 112.5 718 Q107 728 90 732 L35 743 L38 769 L173 806 L191 800 L191 453 Z " />
<glyph glyph-name="ordmasculine" unicode="&#xba;" horiz-adv-x="412" d="M208 274 Q119 274 77.5 324 Q36 374 36 456 Q36 540 82 589 Q128 638 216 638 Q305 638 345.5 588.5 Q386 539 386 457 Q386 373 341 323.5 Q296 274 208 274 Z M212 324 Q254 324 277 354 Q300 384 300 457 Q300 529 277.5 559 Q255 589 213 589 Q169 589 144.5 559 Q120 529 120 456 Q120 384 144 354 Q168 324 212 324 Z " />
<glyph glyph-name="guillemotright" unicode="&#xbb;" horiz-adv-x="434" d="M43 83 L111 215 Q123 238 124.5 253 Q126 268 114 291 L44 427 L84 441 L229 261 L229 251 L84 69 L43 83 Z M203 83 L271 215 Q283 238 284.5 253 Q286 268 274 291 L204 427 L244 441 L389 261 L389 251 L244 69 L203 83 Z " />
<glyph glyph-name="onequarter" unicode="&#xbc;" horiz-adv-x="902" d="M213 -18 L571 724 L641 724 L283 -18 L213 -18 Z M211 384 Q211 363 219.5 352 Q228 341 252 339 L285 335 L285 295 L56 295 L56 335 L96 340 Q122 342 130 354 Q138 366 138 384 L138 614 Q138 639 132.5 649 Q127 659 110 663 L55 674 L58 700 L193 737 L211 731 L211 384 Z M709 115 L500 115 L500 153 L704 449 L778 449 L778 167 L839 167 L839 115 L778 115 L778 93 Q778 70 786.5 64.5 Q795 59 815 57 L840 54 L840 14 L642 14 L642 54 L664 57 Q693 61 701 68 Q709 75 709 95 L709 115 Z M709 167 L709 375 L575 167 L709 167 Z " />
<glyph glyph-name="onehalf" unicode="&#xbd;" horiz-adv-x="922" d="M201 -18 L559 724 L629 724 L271 -18 L201 -18 Z M211 384 Q211 363 219.5 352 Q228 341 252 339 L285 335 L285 295 L56 295 L56 335 L96 340 Q122 342 130 354 Q138 366 138 384 L138 614 Q138 639 132.5 649 Q127 659 110 663 L55 674 L58 700 L193 737 L211 731 L211 384 Z M571 14 L571 56 L721 227 Q750 260 766.5 284 Q783 308 783 344 Q783 381 762.5 395 Q742 409 707 409 Q666 409 653.5 399.5 Q641 390 636 376 L623 332 L583 328 L576 423 Q601 438 636 449.5 Q671 461 713 461 Q788 461 822.5 429.5 Q857 398 857 343 Q857 328 853 312.5 Q849 297 839 279 Q829 261 812.5 239 Q796 217 770 189 L659 65 L757 65 Q783 65 796.5 72 Q810 79 816 96 L830 137 L877 137 L869 14 L571 14 Z " />
<glyph glyph-name="threequarters" unicode="&#xbe;" horiz-adv-x="916" d="M243 -18 L601 724 L671 724 L313 -18 L243 -18 Z M723 115 L514 115 L514 153 L718 449 L792 449 L792 167 L853 167 L853 115 L792 115 L792 93 Q792 70 800.5 64.5 Q809 59 829 57 L854 54 L854 14 L656 14 L656 54 L678 57 Q707 61 715 68 Q723 75 723 95 L723 115 Z M723 167 L723 375 L589 167 L723 167 Z M196 338 Q244 338 265.5 364.5 Q287 391 287 425 Q287 465 261.5 479 Q236 493 203 493 L151 493 L151 543 L205 548 Q248 550 267.5 572 Q287 594 287 621 Q287 661 263.5 675.5 Q240 690 208 690 Q186 690 172 687 Q158 684 150 679.5 Q142 675 139 669 Q136 663 134 657 L124 613 L79 609 L73 704 Q90 715 128.5 728.5 Q167 742 218 742 Q244 742 268.5 736.5 Q293 731 313 718.5 Q333 706 345 686 Q357 666 357 636 Q357 594 335 566.5 Q313 539 281 525 Q319 514 340 487 Q361 460 361 422 Q361 363 317.5 324.5 Q274 286 195 286 Q141 286 108 298.5 Q75 311 55 324 L63 417 L107 417 L117 374 Q122 354 138.5 346 Q155 338 196 338 Z " />
<glyph glyph-name="questiondown" unicode="&#xbf;" horiz-adv-x="477" d="M343 269 Q349 233 337 207.5 Q325 182 303.5 162 Q282 142 256 124.5 Q230 107 207 86.5 Q184 66 168.5 40 Q153 14 153 -23 Q153 -52 163 -71 Q173 -90 189.5 -101 Q206 -112 227.5 -117 Q249 -122 271 -122 Q304 -122 339 -112 Q374 -102 402 -83 L430 -135 Q385 -166 339.5 -177.5 Q294 -189 250 -189 Q147 -189 99.5 -144 Q52 -99 52 -28 Q52 20 67.5 53.5 Q83 87 106 111.5 Q129 136 155.5 155 Q182 174 205 193 Q228 212 243.5 234.5 Q259 257 259 288 L259 386 L326 386 L343 269 Z M230 502 Q230 532 247 547 Q264 562 296 562 Q325 562 342 547 Q359 532 359 502 Q359 473 342 458.5 Q325 444 296 444 Q265 444 247.5 458.5 Q230 473 230 502 Z " />
<glyph glyph-name="Agrave" unicode="&#xc0;" horiz-adv-x="692" d="M405 724 L592 133 Q600 108 606.5 93 Q613 78 619.5 69.5 Q626 61 633.5 57.5 Q641 54 653 51 L678 48 L678 0 L432 0 L432 48 L511 58 L460 230 L199 230 L147 57 L224 48 L224 0 L10 0 L10 48 L38 52 Q64 57 74.5 73 Q85 89 96 123 L294 724 L405 724 Z M330 647 L329 647 L215 289 L441 289 L330 647 Z M209 863 L209 882 L277 948 L452 810 L433 776 L209 863 Z " />
<glyph glyph-name="Aacute" unicode="&#xc1;" horiz-adv-x="692" d="M405 724 L592 133 Q600 108 606.5 93 Q613 78 619.5 69.5 Q626 61 633.5 57.5 Q641 54 653 51 L678 48 L678 0 L432 0 L432 48 L511 58 L460 230 L199 230 L147 57 L224 48 L224 0 L10 0 L10 48 L38 52 Q64 57 74.5 73 Q85 89 96 123 L294 724 L405 724 Z M330 647 L329 647 L215 289 L441 289 L330 647 Z M266 776 L247 811 L422 948 L490 882 L490 863 L266 776 Z " />
<glyph glyph-name="Acircumflex" unicode="&#xc2;" horiz-adv-x="692" d="M405 724 L592 133 Q600 108 606.5 93 Q613 78 619.5 69.5 Q626 61 633.5 57.5 Q641 54 653 51 L678 48 L678 0 L432 0 L432 48 L511 58 L460 230 L199 230 L147 57 L224 48 L224 0 L10 0 L10 48 L38 52 Q64 57 74.5 73 Q85 89 96 123 L294 724 L405 724 Z M330 647 L329 647 L215 289 L441 289 L330 647 Z M349 851 L204 776 L178 815 L311 940 L387 940 L521 814 L494 776 L349 851 Z " />
<glyph glyph-name="Atilde" unicode="&#xc3;" horiz-adv-x="692" d="M405 724 L592 133 Q600 108 606.5 93 Q613 78 619.5 69.5 Q626 61 633.5 57.5 Q641 54 653 51 L678 48 L678 0 L432 0 L432 48 L511 58 L460 230 L199 230 L147 57 L224 48 L224 0 L10 0 L10 48 L38 52 Q64 57 74.5 73 Q85 89 96 123 L294 724 L405 724 Z M330 647 L329 647 L215 289 L441 289 L330 647 Z M267 903 Q275 903 301.5 897 Q328 891 357.5 883.5 Q387 876 412 869.5 Q437 863 441 863 Q451 863 459.5 869 Q468 875 486 901 L523 881 Q512 849 501 829 Q490 809 479.5 797.5 Q469 786 459.5 781.5 Q450 777 441 777 Q435 777 410 783.5 Q385 790 355.5 797.5 Q326 805 300.5 811.5 Q275 818 267 818 Q259 818 249.5 812 Q240 806 221 783 L186 801 Q209 855 227.5 879 Q246 903 267 903 Z " />
<glyph glyph-name="Adieresis" unicode="&#xc4;" horiz-adv-x="692" d="M405 724 L592 133 Q600 108 606.5 93 Q613 78 619.5 69.5 Q626 61 633.5 57.5 Q641 54 653 51 L678 48 L678 0 L432 0 L432 48 L511 58 L460 230 L199 230 L147 57 L224 48 L224 0 L10 0 L10 48 L38 52 Q64 57 74.5 73 Q85 89 96 123 L294 724 L405 724 Z M330 647 L329 647 L215 289 L441 289 L330 647 Z M181 857 Q181 888 198 903 Q215 918 245 918 Q276 918 293 903 Q310 888 310 857 Q310 794 245 794 Q215 794 198 809.5 Q181 825 181 857 Z M387 857 Q387 888 404 903 Q421 918 451 918 Q482 918 499 903 Q516 888 516 857 Q516 794 451 794 Q421 794 404 809.5 Q387 825 387 857 Z " />
<glyph glyph-name="Aring" unicode="&#xc5;" horiz-adv-x="692" d="M462 785 Q462 748 448 726 Q434 704 414 693 L592 133 Q600 108 606.5 93 Q613 78 619.5 69.5 Q626 61 633.5 57.5 Q641 54 653 51 L678 48 L678 0 L432 0 L432 48 L511 58 L460 230 L199 230 L147 57 L224 48 L224 0 L10 0 L10 48 L38 52 Q64 57 74.5 73 Q85 89 96 123 L284 693 Q262 705 248.5 727.5 Q235 750 235 785 Q235 816 245.5 836.5 Q256 857 272.5 869.5 Q289 882 309.5 887 Q330 892 349 892 Q399 892 430.5 865.5 Q462 839 462 785 Z M330 647 L329 647 L215 289 L441 289 L330 647 Z M299 785 Q299 758 310 742 Q321 726 344 724 L353 724 Q373 726 386 741.5 Q399 757 399 785 Q399 820 384 833 Q369 846 349 846 Q330 846 314.5 833.5 Q299 821 299 785 Z " />
<glyph glyph-name="AE" unicode="&#xc6;" horiz-adv-x="914" d="M12 0 L12 48 L41 52 Q67 57 80 73 Q93 89 110 123 L393 674 L307 685 L307 724 L836 724 L846 539 L787 541 L765 613 Q758 639 744 651.5 Q730 664 700 664 L543 664 L543 398 L777 398 L777 339 L543 339 L543 60 L720 60 Q750 60 764 71.5 Q778 83 785 109 L807 190 L864 190 L853 0 L368 0 L368 47 L409 51 Q423 53 430 56 Q437 59 441 67.5 Q445 76 445.5 91 Q446 106 446 131 L446 339 L285 339 L150 57 L225 48 L225 0 L12 0 Z M446 651 L441 651 L314 398 L446 398 L446 651 Z " />
<glyph glyph-name="Ccedilla" unicode="&#xc7;" horiz-adv-x="629" d="M270 -162 Q283 -166 296 -167.5 Q309 -169 321 -169 Q346 -169 362 -159 Q378 -149 378 -124 Q378 -103 358.5 -91.5 Q339 -80 304 -75 L322 -8 Q262 -2 211.5 22 Q161 46 124 90.5 Q87 135 66 201.5 Q45 268 45 359 Q45 433 65 501.5 Q85 570 127.5 622.5 Q170 675 237.5 706 Q305 737 399 737 Q429 737 458 733 Q487 729 511.5 723.5 Q536 718 554 711.5 Q572 705 581 699 L573 545 L515 550 L501 620 Q495 651 468 663.5 Q441 676 388 676 Q336 676 292.5 657.5 Q249 639 217.5 600.5 Q186 562 168.5 502 Q151 442 151 359 Q151 268 170.5 209 Q190 150 222.5 115.5 Q255 81 296.5 67 Q338 53 381 53 Q415 53 437 57 Q459 61 473 68 Q487 75 494.5 85 Q502 95 505 107 L526 178 L586 178 L578 32 Q558 21 505.5 5.5 Q453 -10 374 -11 L368 -36 Q383 -39 398.5 -45.5 Q414 -52 427 -62 Q440 -72 448 -87 Q456 -102 456 -123 Q456 -148 446 -167 Q436 -186 419 -198.5 Q402 -211 379.5 -217.5 Q357 -224 331 -224 Q306 -224 286 -219.5 Q266 -215 255 -209 L270 -162 Z " />
<glyph glyph-name="Egrave" unicode="&#xc8;" horiz-adv-x="601" d="M533 539 L474 541 L452 613 Q445 639 431 651.5 Q417 664 387 664 L230 664 L230 398 L464 398 L464 339 L230 339 L230 60 L407 60 Q437 60 451 71.5 Q465 83 472 109 L494 190 L551 190 L540 0 L55 0 L55 47 L96 51 Q110 53 117 56 Q124 59 128 67.5 Q132 76 132.5 91 Q133 106 133 131 L133 599 Q133 643 126 656.5 Q119 670 93 673 L56 677 L56 724 L523 724 L533 539 Z M177 863 L177 882 L245 948 L420 810 L401 776 L177 863 Z " />
<glyph glyph-name="Eacute" unicode="&#xc9;" horiz-adv-x="601" d="M533 539 L474 541 L452 613 Q445 639 431 651.5 Q417 664 387 664 L230 664 L230 398 L464 398 L464 339 L230 339 L230 60 L407 60 Q437 60 451 71.5 Q465 83 472 109 L494 190 L551 190 L540 0 L55 0 L55 47 L96 51 Q110 53 117 56 Q124 59 128 67.5 Q132 76 132.5 91 Q133 106 133 131 L133 599 Q133 643 126 656.5 Q119 670 93 673 L56 677 L56 724 L523 724 L533 539 Z M235 776 L216 811 L391 948 L459 882 L459 863 L235 776 Z " />
<glyph glyph-name="Ecircumflex" unicode="&#xca;" horiz-adv-x="601" d="M533 539 L474 541 L452 613 Q445 639 431 651.5 Q417 664 387 664 L230 664 L230 398 L464 398 L464 339 L230 339 L230 60 L407 60 Q437 60 451 71.5 Q465 83 472 109 L494 190 L551 190 L540 0 L55 0 L55 47 L96 51 Q110 53 117 56 Q124 59 128 67.5 Q132 76 132.5 91 Q133 106 133 131 L133 599 Q133 643 126 656.5 Q119 670 93 673 L56 677 L56 724 L523 724 L533 539 Z M312 851 L167 776 L141 815 L274 940 L350 940 L484 814 L457 776 L312 851 Z " />
<glyph glyph-name="Edieresis" unicode="&#xcb;" horiz-adv-x="601" d="M533 539 L474 541 L452 613 Q445 639 431 651.5 Q417 664 387 664 L230 664 L230 398 L464 398 L464 339 L230 339 L230 60 L407 60 Q437 60 451 71.5 Q465 83 472 109 L494 190 L551 190 L540 0 L55 0 L55 47 L96 51 Q110 53 117 56 Q124 59 128 67.5 Q132 76 132.5 91 Q133 106 133 131 L133 599 Q133 643 126 656.5 Q119 670 93 673 L56 677 L56 724 L523 724 L533 539 Z M141 857 Q141 888 158 903 Q175 918 205 918 Q236 918 253 903 Q270 888 270 857 Q270 794 205 794 Q175 794 158 809.5 Q141 825 141 857 Z M347 857 Q347 888 364 903 Q381 918 411 918 Q442 918 459 903 Q476 888 476 857 Q476 794 411 794 Q381 794 364 809.5 Q347 825 347 857 Z " />
<glyph glyph-name="Igrave" unicode="&#xcc;" horiz-adv-x="362" d="M229 131 Q229 107 229.5 92 Q230 77 233.5 68.5 Q237 60 244 56.5 Q251 53 264 52 L304 47 L304 0 L55 0 L55 47 L95 52 Q108 53 115.5 56 Q123 59 127 67 Q131 75 132 90 Q133 105 133 130 L133 600 Q133 622 131.5 635.5 Q130 649 126 657 Q122 665 114 668.5 Q106 672 93 673 L56 677 L56 724 L302 724 L302 677 L261 673 Q239 671 234 657.5 Q229 644 229 600 L229 131 Z M38 863 L38 882 L106 948 L281 810 L262 776 L38 863 Z " />
<glyph glyph-name="Iacute" unicode="&#xcd;" horiz-adv-x="362" d="M229 131 Q229 107 229.5 92 Q230 77 233.5 68.5 Q237 60 244 56.5 Q251 53 264 52 L304 47 L304 0 L55 0 L55 47 L95 52 Q108 53 115.5 56 Q123 59 127 67 Q131 75 132 90 Q133 105 133 130 L133 600 Q133 622 131.5 635.5 Q130 649 126 657 Q122 665 114 668.5 Q106 672 93 673 L56 677 L56 724 L302 724 L302 677 L261 673 Q239 671 234 657.5 Q229 644 229 600 L229 131 Z M98 776 L79 811 L254 948 L322 882 L322 863 L98 776 Z " />
<glyph glyph-name="Icircumflex" unicode="&#xce;" horiz-adv-x="362" d="M229 131 Q229 107 229.5 92 Q230 77 233.5 68.5 Q237 60 244 56.5 Q251 53 264 52 L304 47 L304 0 L55 0 L55 47 L95 52 Q108 53 115.5 56 Q123 59 127 67 Q131 75 132 90 Q133 105 133 130 L133 600 Q133 622 131.5 635.5 Q130 649 126 657 Q122 665 114 668.5 Q106 672 93 673 L56 677 L56 724 L302 724 L302 677 L261 673 Q239 671 234 657.5 Q229 644 229 600 L229 131 Z M180 851 L35 776 L9 815 L142 940 L218 940 L352 814 L325 776 L180 851 Z " />
<glyph glyph-name="Idieresis" unicode="&#xcf;" horiz-adv-x="362" d="M229 131 Q229 107 229.5 92 Q230 77 233.5 68.5 Q237 60 244 56.5 Q251 53 264 52 L304 47 L304 0 L55 0 L55 47 L95 52 Q108 53 115.5 56 Q123 59 127 67 Q131 75 132 90 Q133 105 133 130 L133 600 Q133 622 131.5 635.5 Q130 649 126 657 Q122 665 114 668.5 Q106 672 93 673 L56 677 L56 724 L302 724 L302 677 L261 673 Q239 671 234 657.5 Q229 644 229 600 L229 131 Z M12 857 Q12 888 29 903 Q46 918 76 918 Q107 918 124 903 Q141 888 141 857 Q141 794 76 794 Q46 794 29 809.5 Q12 825 12 857 Z M218 857 Q218 888 235 903 Q252 918 282 918 Q313 918 330 903 Q347 888 347 857 Q347 794 282 794 Q252 794 235 809.5 Q218 825 218 857 Z " />
<glyph glyph-name="Eth" unicode="&#xd0;" horiz-adv-x="727" d="M337 724 Q431 724 496.5 700 Q562 676 603.5 631 Q645 586 663.5 521.5 Q682 457 682 376 Q682 293 659.5 223.5 Q637 154 588 104.5 Q539 55 463 27.5 Q387 0 279 0 L55 0 L55 47 L95 51 Q107 52 114 54.5 Q121 57 125.5 63.5 Q130 70 131.5 82 Q133 94 133 115 L133 324 L53 324 L53 384 L133 384 L133 598 Q133 642 126.5 656.5 Q120 671 94 674 L56 677 L56 724 L337 724 Z M307 60 Q383 60 435 85.5 Q487 111 518.5 154.5 Q550 198 564 255.5 Q578 313 578 377 Q578 520 521 592 Q464 664 352 664 L230 664 L230 384 L378 384 L378 324 L230 324 L230 60 L307 60 Z " />
<glyph glyph-name="Ntilde" unicode="&#xd1;" horiz-adv-x="768" d="M578 119 L582 119 L582 604 Q582 645 576.5 658.5 Q571 672 546 674 L507 677 L507 724 L725 724 L725 678 L686 674 Q661 672 654.5 656.5 Q648 641 648 608 L648 0 L546 0 L203 603 L199 603 L199 123 Q199 102 200 88.5 Q201 75 204.5 67 Q208 59 215 55.5 Q222 52 234 50 L271 47 L271 0 L55 0 L55 48 L95 51 Q108 52 115.5 55.5 Q123 59 127 67 Q131 75 132 90 Q133 105 133 129 L133 599 Q133 643 126.5 657.5 Q120 672 94 674 L56 678 L56 724 L242 724 L578 119 Z M302 903 Q310 903 336.5 897 Q363 891 392.5 883.5 Q422 876 447 869.5 Q472 863 476 863 Q486 863 494.5 869 Q503 875 521 901 L558 881 Q547 849 536 829 Q525 809 514.5 797.5 Q504 786 494.5 781.5 Q485 777 476 777 Q470 777 445 783.5 Q420 790 390.5 797.5 Q361 805 335.5 811.5 Q310 818 302 818 Q294 818 284.5 812 Q275 806 256 783 L221 801 Q244 855 262.5 879 Q281 903 302 903 Z " />
<glyph glyph-name="Ograve" unicode="&#xd2;" horiz-adv-x="700" d="M344 -12 Q263 -12 206 17 Q149 46 113.5 95.5 Q78 145 61.5 211.5 Q45 278 45 352 Q45 432 64.5 502 Q84 572 123.5 624.5 Q163 677 224 707 Q285 737 368 737 Q445 737 499 708 Q553 679 588 629.5 Q623 580 639 513 Q655 446 655 371 Q655 289 636.5 218.5 Q618 148 580 97 Q542 46 483 17 Q424 -12 344 -12 Z M351 50 Q391 50 427 66.5 Q463 83 490.5 119.5 Q518 156 534 215.5 Q550 275 550 362 Q550 449 535.5 509 Q521 569 495.5 605.5 Q470 642 434.5 658.5 Q399 675 357 675 Q315 675 278 658.5 Q241 642 212.5 605 Q184 568 167.5 508 Q151 448 151 361 Q151 270 166.5 210 Q182 150 209 114.5 Q236 79 272.5 64.5 Q309 50 351 50 Z M214 869 L214 888 L282 954 L457 816 L438 782 L214 869 Z " />
<glyph glyph-name="Oacute" unicode="&#xd3;" horiz-adv-x="700" d="M344 -12 Q263 -12 206 17 Q149 46 113.5 95.5 Q78 145 61.5 211.5 Q45 278 45 352 Q45 432 64.5 502 Q84 572 123.5 624.5 Q163 677 224 707 Q285 737 368 737 Q445 737 499 708 Q553 679 588 629.5 Q623 580 639 513 Q655 446 655 371 Q655 289 636.5 218.5 Q618 148 580 97 Q542 46 483 17 Q424 -12 344 -12 Z M351 50 Q391 50 427 66.5 Q463 83 490.5 119.5 Q518 156 534 215.5 Q550 275 550 362 Q550 449 535.5 509 Q521 569 495.5 605.5 Q470 642 434.5 658.5 Q399 675 357 675 Q315 675 278 658.5 Q241 642 212.5 605 Q184 568 167.5 508 Q151 448 151 361 Q151 270 166.5 210 Q182 150 209 114.5 Q236 79 272.5 64.5 Q309 50 351 50 Z M279 782 L260 817 L435 954 L503 888 L503 869 L279 782 Z " />
<glyph glyph-name="Ocircumflex" unicode="&#xd4;" horiz-adv-x="700" d="M344 -12 Q263 -12 206 17 Q149 46 113.5 95.5 Q78 145 61.5 211.5 Q45 278 45 352 Q45 432 64.5 502 Q84 572 123.5 624.5 Q163 677 224 707 Q285 737 368 737 Q445 737 499 708 Q553 679 588 629.5 Q623 580 639 513 Q655 446 655 371 Q655 289 636.5 218.5 Q618 148 580 97 Q542 46 483 17 Q424 -12 344 -12 Z M351 50 Q391 50 427 66.5 Q463 83 490.5 119.5 Q518 156 534 215.5 Q550 275 550 362 Q550 449 535.5 509 Q521 569 495.5 605.5 Q470 642 434.5 658.5 Q399 675 357 675 Q315 675 278 658.5 Q241 642 212.5 605 Q184 568 167.5 508 Q151 448 151 361 Q151 270 166.5 210 Q182 150 209 114.5 Q236 79 272.5 64.5 Q309 50 351 50 Z M360 857 L215 782 L189 821 L322 946 L398 946 L532 820 L505 782 L360 857 Z " />
<glyph glyph-name="Otilde" unicode="&#xd5;" horiz-adv-x="700" d="M344 -12 Q263 -12 206 17 Q149 46 113.5 95.5 Q78 145 61.5 211.5 Q45 278 45 352 Q45 432 64.5 502 Q84 572 123.5 624.5 Q163 677 224 707 Q285 737 368 737 Q445 737 499 708 Q553 679 588 629.5 Q623 580 639 513 Q655 446 655 371 Q655 289 636.5 218.5 Q618 148 580 97 Q542 46 483 17 Q424 -12 344 -12 Z M351 50 Q391 50 427 66.5 Q463 83 490.5 119.5 Q518 156 534 215.5 Q550 275 550 362 Q550 449 535.5 509 Q521 569 495.5 605.5 Q470 642 434.5 658.5 Q399 675 357 675 Q315 675 278 658.5 Q241 642 212.5 605 Q184 568 167.5 508 Q151 448 151 361 Q151 270 166.5 210 Q182 150 209 114.5 Q236 79 272.5 64.5 Q309 50 351 50 Z M276 903 Q284 903 310.5 897 Q337 891 366.5 883.5 Q396 876 421 869.5 Q446 863 450 863 Q460 863 468.5 869 Q477 875 495 901 L532 881 Q521 849 510 829 Q499 809 488.5 797.5 Q478 786 468.5 781.5 Q459 777 450 777 Q444 777 419 783.5 Q394 790 364.5 797.5 Q335 805 309.5 811.5 Q284 818 276 818 Q268 818 258.5 812 Q249 806 230 783 L195 801 Q218 855 236.5 879 Q255 903 276 903 Z " />
<glyph glyph-name="Odieresis" unicode="&#xd6;" horiz-adv-x="700" d="M344 -12 Q263 -12 206 17 Q149 46 113.5 95.5 Q78 145 61.5 211.5 Q45 278 45 352 Q45 432 64.5 502 Q84 572 123.5 624.5 Q163 677 224 707 Q285 737 368 737 Q445 737 499 708 Q553 679 588 629.5 Q623 580 639 513 Q655 446 655 371 Q655 289 636.5 218.5 Q618 148 580 97 Q542 46 483 17 Q424 -12 344 -12 Z M351 50 Q391 50 427 66.5 Q463 83 490.5 119.5 Q518 156 534 215.5 Q550 275 550 362 Q550 449 535.5 509 Q521 569 495.5 605.5 Q470 642 434.5 658.5 Q399 675 357 675 Q315 675 278 658.5 Q241 642 212.5 605 Q184 568 167.5 508 Q151 448 151 361 Q151 270 166.5 210 Q182 150 209 114.5 Q236 79 272.5 64.5 Q309 50 351 50 Z M197 863 Q197 894 214 909 Q231 924 261 924 Q292 924 309 909 Q326 894 326 863 Q326 800 261 800 Q231 800 214 815.5 Q197 831 197 863 Z M403 863 Q403 894 420 909 Q437 924 467 924 Q498 924 515 909 Q532 894 532 863 Q532 800 467 800 Q437 800 420 815.5 Q403 831 403 863 Z " />
<glyph glyph-name="multiply" unicode="&#xd7;" horiz-adv-x="600" d="M301 235 L169 104 L121 152 L253 284 L123 414 L171 463 L301 334 L430 463 L478 414 L349 283 L478 154 L430 106 L301 235 Z " />
<glyph glyph-name="Oslash" unicode="&#xd8;" horiz-adv-x="700" d="M28 -42 L118 90 Q80 140 62.5 207.5 Q45 275 45 352 Q45 432 64.5 502 Q84 572 123.5 624.5 Q163 677 224 707 Q285 737 368 737 Q419 737 459 724 Q499 711 531 688 L587 767 L663 767 L576 644 Q618 593 636.5 522.5 Q655 452 655 371 Q655 289 636.5 218.5 Q618 148 580 97 Q542 46 483 17 Q424 -12 344 -12 Q286 -12 241.5 3 Q197 18 162 45 L103 -42 L28 -42 Z M351 50 Q391 50 427 66.5 Q463 83 490.5 119.5 Q518 156 534 215.5 Q550 275 550 362 Q550 428 541.5 477.5 Q533 527 518 564 L213 109 Q240 77 275 63.5 Q310 50 351 50 Z M151 361 Q151 298 158 251.5 Q165 205 179 170 L483 621 Q458 650 426.5 662.5 Q395 675 357 675 Q315 675 278 658.5 Q241 642 212.5 605 Q184 568 167.5 508 Q151 448 151 361 Z " />
<glyph glyph-name="Ugrave" unicode="&#xd9;" horiz-adv-x="749" d="M563 614 Q563 652 555.5 662 Q548 672 527 674 L488 677 L488 724 L706 724 L706 678 L667 674 Q643 672 636 657.5 Q629 643 629 612 L629 245 Q629 180 610.5 131.5 Q592 83 559 51.5 Q526 20 480.5 4.5 Q435 -11 381 -11 Q295 -11 243.5 13 Q192 37 164.5 76 Q137 115 128.5 164.5 Q120 214 120 265 L120 602 Q120 642 112.5 656.5 Q105 671 73 674 L43 677 L43 724 L289 724 L289 677 L247 673 Q227 671 221.5 658.5 Q216 646 216 613 L216 255 Q216 154 252.5 100.5 Q289 47 382 47 Q424 47 458 58 Q492 69 515 94 Q538 119 550.5 158.5 Q563 198 563 255 L563 614 Z M220 863 L220 882 L288 948 L463 810 L444 776 L220 863 Z " />
<glyph glyph-name="Uacute" unicode="&#xda;" horiz-adv-x="749" d="M563 614 Q563 652 555.5 662 Q548 672 527 674 L488 677 L488 724 L706 724 L706 678 L667 674 Q643 672 636 657.5 Q629 643 629 612 L629 245 Q629 180 610.5 131.5 Q592 83 559 51.5 Q526 20 480.5 4.5 Q435 -11 381 -11 Q295 -11 243.5 13 Q192 37 164.5 76 Q137 115 128.5 164.5 Q120 214 120 265 L120 602 Q120 642 112.5 656.5 Q105 671 73 674 L43 677 L43 724 L289 724 L289 677 L247 673 Q227 671 221.5 658.5 Q216 646 216 613 L216 255 Q216 154 252.5 100.5 Q289 47 382 47 Q424 47 458 58 Q492 69 515 94 Q538 119 550.5 158.5 Q563 198 563 255 L563 614 Z M306 776 L287 811 L462 948 L530 882 L530 863 L306 776 Z " />
<glyph glyph-name="Ucircumflex" unicode="&#xdb;" horiz-adv-x="749" d="M563 614 Q563 652 555.5 662 Q548 672 527 674 L488 677 L488 724 L706 724 L706 678 L667 674 Q643 672 636 657.5 Q629 643 629 612 L629 245 Q629 180 610.5 131.5 Q592 83 559 51.5 Q526 20 480.5 4.5 Q435 -11 381 -11 Q295 -11 243.5 13 Q192 37 164.5 76 Q137 115 128.5 164.5 Q120 214 120 265 L120 602 Q120 642 112.5 656.5 Q105 671 73 674 L43 677 L43 724 L289 724 L289 677 L247 673 Q227 671 221.5 658.5 Q216 646 216 613 L216 255 Q216 154 252.5 100.5 Q289 47 382 47 Q424 47 458 58 Q492 69 515 94 Q538 119 550.5 158.5 Q563 198 563 255 L563 614 Z M386 851 L241 776 L215 815 L348 940 L424 940 L558 814 L531 776 L386 851 Z " />
<glyph glyph-name="Udieresis" unicode="&#xdc;" horiz-adv-x="749" d="M563 614 Q563 652 555.5 662 Q548 672 527 674 L488 677 L488 724 L706 724 L706 678 L667 674 Q643 672 636 657.5 Q629 643 629 612 L629 245 Q629 180 610.5 131.5 Q592 83 559 51.5 Q526 20 480.5 4.5 Q435 -11 381 -11 Q295 -11 243.5 13 Q192 37 164.5 76 Q137 115 128.5 164.5 Q120 214 120 265 L120 602 Q120 642 112.5 656.5 Q105 671 73 674 L43 677 L43 724 L289 724 L289 677 L247 673 Q227 671 221.5 658.5 Q216 646 216 613 L216 255 Q216 154 252.5 100.5 Q289 47 382 47 Q424 47 458 58 Q492 69 515 94 Q538 119 550.5 158.5 Q563 198 563 255 L563 614 Z M214 857 Q214 888 231 903 Q248 918 278 918 Q309 918 326 903 Q343 888 343 857 Q343 794 278 794 Q248 794 231 809.5 Q214 825 214 857 Z M420 857 Q420 888 437 903 Q454 918 484 918 Q515 918 532 903 Q549 888 549 857 Q549 794 484 794 Q454 794 437 809.5 Q420 825 420 857 Z " />
<glyph glyph-name="Yacute" unicode="&#xdd;" horiz-adv-x="632" d="M275 287 L99 598 Q87 621 78 635 Q69 649 61.5 657 Q54 665 46 669 Q38 673 27 675 L5 677 L5 724 L245 724 L245 677 L167 666 L334 362 L338 362 L498 666 L420 677 L420 724 L627 724 L627 677 L609 675 Q596 674 587 669.5 Q578 665 569.5 656 Q561 647 552.5 632.5 Q544 618 532 596 L371 296 L371 106 Q371 72 378.5 63.5 Q386 55 401 54 L475 48 L475 0 L171 0 L171 48 L245 54 Q260 55 267.5 63.5 Q275 72 275 106 L275 287 Z M254 776 L235 811 L410 948 L478 882 L478 863 L254 776 Z " />
<glyph glyph-name="Thorn" unicode="&#xde;" horiz-adv-x="623" d="M229 169 L229 131 Q229 107 229.5 92 Q230 77 233.5 68.5 Q237 60 244 56.5 Q251 53 264 52 L304 47 L304 0 L55 0 L55 47 L95 52 Q108 53 115.5 56 Q123 59 127 67 Q131 75 132 90 Q133 105 133 130 L133 600 Q133 622 131.5 635.5 Q130 649 126 657 Q122 665 114 668.5 Q106 672 93 673 L56 677 L56 724 L302 724 L302 677 Q276 675 261 674 Q246 673 239 665 Q232 657 230.5 638.5 Q229 620 229 584 L349 584 Q461 584 524.5 535 Q588 486 588 391 Q588 280 512.5 224.5 Q437 169 308 169 L229 169 Z M315 231 Q397 231 440 271 Q483 311 483 389 Q483 458 441 490 Q399 522 326 522 L229 522 L229 231 L315 231 Z " />
<glyph glyph-name="germandbls" unicode="&#xdf;" horiz-adv-x="601" d="M113 460 L49 460 L54 507 L113 519 L113 549 Q113 602 129.5 639.5 Q146 677 174.5 701.5 Q203 726 240 737.5 Q277 749 319 749 Q360 749 394.5 738.5 Q429 728 455 705.5 Q481 683 495.5 649.5 Q510 616 510 569 Q510 529 498 500 Q486 471 468 451.5 Q450 432 430 420.5 Q410 409 394 403 L394 401 Q420 396 448.5 384.5 Q477 373 501 351 Q525 329 540.5 294 Q556 259 556 205 Q556 106 500 47.5 Q444 -11 341 -11 Q312 -11 283 -4.5 Q254 2 242 11 L255 62 Q269 55 286 50 Q303 45 332 45 Q392 45 425.5 90 Q459 135 459 210 Q459 289 419.5 323.5 Q380 358 314 358 L280 358 L280 421 Q321 421 348.5 433 Q376 445 392.5 465 Q409 485 416 512 Q423 539 423 569 Q423 605 414 628.5 Q405 652 390 666 Q375 680 356 685.5 Q337 691 318 691 Q285 691 262.5 680.5 Q240 670 226.5 652.5 Q213 635 207.5 611.5 Q202 588 202 562 L202 0 L41 0 L41 43 L67 46 Q82 48 91.5 51 Q101 54 105.5 62 Q110 70 111.5 84.5 Q113 99 113 124 L113 460 Z " />
<glyph glyph-name="agrave" unicode="&#xe0;" horiz-adv-x="524" d="M497 4 Q478 -5 462 -8 Q446 -11 429 -11 Q354 -11 342 63 Q324 33 286.5 11 Q249 -11 196 -11 Q153 -11 124 0 Q95 11 77 30 Q59 49 51.5 74.5 Q44 100 44 129 Q44 178 64.5 209.5 Q85 241 122.5 259 Q160 277 214 285 Q268 293 334 296 L334 351 Q334 411 312 435.5 Q290 460 239 460 Q197 460 164.5 452.5 Q132 445 90 428 L72 477 Q98 494 147 512 Q196 530 257 530 Q295 530 325.5 521.5 Q356 513 377.5 492.5 Q399 472 410.5 438.5 Q422 405 422 354 L422 96 Q422 65 429 55.5 Q436 46 462 43 L494 39 L497 4 Z M334 240 Q229 239 184.5 217 Q140 195 140 137 Q140 95 163 75 Q186 55 226 55 Q277 55 305.5 84.5 Q334 114 334 158 L334 240 Z M109 719 L109 734 L196 775 L327 594 L292 567 L109 719 Z " />
<glyph glyph-name="aacute" unicode="&#xe1;" horiz-adv-x="524" d="M497 4 Q478 -5 462 -8 Q446 -11 429 -11 Q354 -11 342 63 Q324 33 286.5 11 Q249 -11 196 -11 Q153 -11 124 0 Q95 11 77 30 Q59 49 51.5 74.5 Q44 100 44 129 Q44 178 64.5 209.5 Q85 241 122.5 259 Q160 277 214 285 Q268 293 334 296 L334 351 Q334 411 312 435.5 Q290 460 239 460 Q197 460 164.5 452.5 Q132 445 90 428 L72 477 Q98 494 147 512 Q196 530 257 530 Q295 530 325.5 521.5 Q356 513 377.5 492.5 Q399 472 410.5 438.5 Q422 405 422 354 L422 96 Q422 65 429 55.5 Q436 46 462 43 L494 39 L497 4 Z M334 240 Q229 239 184.5 217 Q140 195 140 137 Q140 95 163 75 Q186 55 226 55 Q277 55 305.5 84.5 Q334 114 334 158 L334 240 Z M204 567 L169 594 L300 775 L387 734 L387 719 L204 567 Z " />
<glyph glyph-name="acircumflex" unicode="&#xe2;" horiz-adv-x="524" d="M497 4 Q478 -5 462 -8 Q446 -11 429 -11 Q354 -11 342 63 Q324 33 286.5 11 Q249 -11 196 -11 Q153 -11 124 0 Q95 11 77 30 Q59 49 51.5 74.5 Q44 100 44 129 Q44 178 64.5 209.5 Q85 241 122.5 259 Q160 277 214 285 Q268 293 334 296 L334 351 Q334 411 312 435.5 Q290 460 239 460 Q197 460 164.5 452.5 Q132 445 90 428 L72 477 Q98 494 147 512 Q196 530 257 530 Q295 530 325.5 521.5 Q356 513 377.5 492.5 Q399 472 410.5 438.5 Q422 405 422 354 L422 96 Q422 65 429 55.5 Q436 46 462 43 L494 39 L497 4 Z M334 240 Q229 239 184.5 217 Q140 195 140 137 Q140 95 163 75 Q186 55 226 55 Q277 55 305.5 84.5 Q334 114 334 158 L334 240 Z M284 768 L406 601 L369 571 L243 681 L117 568 L80 598 L204 768 L284 768 Z " />
<glyph glyph-name="atilde" unicode="&#xe3;" horiz-adv-x="524" d="M497 4 Q478 -5 462 -8 Q446 -11 429 -11 Q354 -11 342 63 Q324 33 286.5 11 Q249 -11 196 -11 Q153 -11 124 0 Q95 11 77 30 Q59 49 51.5 74.5 Q44 100 44 129 Q44 178 64.5 209.5 Q85 241 122.5 259 Q160 277 214 285 Q268 293 334 296 L334 351 Q334 411 312 435.5 Q290 460 239 460 Q197 460 164.5 452.5 Q132 445 90 428 L72 477 Q98 494 147 512 Q196 530 257 530 Q295 530 325.5 521.5 Q356 513 377.5 492.5 Q399 472 410.5 438.5 Q422 405 422 354 L422 96 Q422 65 429 55.5 Q436 46 462 43 L494 39 L497 4 Z M334 240 Q229 239 184.5 217 Q140 195 140 137 Q140 95 163 75 Q186 55 226 55 Q277 55 305.5 84.5 Q334 114 334 158 L334 240 Z M160 742 Q168 742 194.5 736 Q221 730 250.5 722.5 Q280 715 305 708.5 Q330 702 334 702 Q344 702 352.5 708 Q361 714 379 740 L416 720 Q405 688 394 668 Q383 648 372.5 636.5 Q362 625 352.5 620.5 Q343 616 334 616 Q328 616 303 622.5 Q278 629 248.5 636.5 Q219 644 193.5 650.5 Q168 657 160 657 Q152 657 142.5 651 Q133 645 114 622 L79 640 Q102 694 120.5 718 Q139 742 160 742 Z " />
<glyph glyph-name="adieresis" unicode="&#xe4;" horiz-adv-x="524" d="M497 4 Q478 -5 462 -8 Q446 -11 429 -11 Q354 -11 342 63 Q324 33 286.5 11 Q249 -11 196 -11 Q153 -11 124 0 Q95 11 77 30 Q59 49 51.5 74.5 Q44 100 44 129 Q44 178 64.5 209.5 Q85 241 122.5 259 Q160 277 214 285 Q268 293 334 296 L334 351 Q334 411 312 435.5 Q290 460 239 460 Q197 460 164.5 452.5 Q132 445 90 428 L72 477 Q98 494 147 512 Q196 530 257 530 Q295 530 325.5 521.5 Q356 513 377.5 492.5 Q399 472 410.5 438.5 Q422 405 422 354 L422 96 Q422 65 429 55.5 Q436 46 462 43 L494 39 L497 4 Z M334 240 Q229 239 184.5 217 Q140 195 140 137 Q140 95 163 75 Q186 55 226 55 Q277 55 305.5 84.5 Q334 114 334 158 L334 240 Z M79 678 Q79 709 96 724 Q113 739 143 739 Q174 739 191 724 Q208 709 208 678 Q208 615 143 615 Q113 615 96 630.5 Q79 646 79 678 Z M285 678 Q285 709 302 724 Q319 739 349 739 Q380 739 397 724 Q414 709 414 678 Q414 615 349 615 Q319 615 302 630.5 Q285 646 285 678 Z " />
<glyph glyph-name="aring" unicode="&#xe5;" horiz-adv-x="524" d="M497 4 Q478 -5 462 -8 Q446 -11 429 -11 Q354 -11 342 63 Q324 33 286.5 11 Q249 -11 196 -11 Q153 -11 124 0 Q95 11 77 30 Q59 49 51.5 74.5 Q44 100 44 129 Q44 178 64.5 209.5 Q85 241 122.5 259 Q160 277 214 285 Q268 293 334 296 L334 351 Q334 411 312 435.5 Q290 460 239 460 Q197 460 164.5 452.5 Q132 445 90 428 L72 477 Q98 494 147 512 Q196 530 257 530 Q295 530 325.5 521.5 Q356 513 377.5 492.5 Q399 472 410.5 438.5 Q422 405 422 354 L422 96 Q422 65 429 55.5 Q436 46 462 43 L494 39 L497 4 Z M334 240 Q229 239 184.5 217 Q140 195 140 137 Q140 95 163 75 Q186 55 226 55 Q277 55 305.5 84.5 Q334 114 334 158 L334 240 Z M360 680 Q360 649 349.5 628 Q339 607 322.5 595 Q306 583 286 578 Q266 573 247 573 Q225 573 204.5 579 Q184 585 168 597.5 Q152 610 142.5 630.5 Q133 651 133 680 Q133 711 143.5 731.5 Q154 752 170.5 764.5 Q187 777 207.5 782 Q228 787 247 787 Q297 787 328.5 760.5 Q360 734 360 680 Z M247 619 Q269 619 283 635 Q297 651 297 680 Q297 715 282 728 Q267 741 247 741 Q228 741 212.5 728.5 Q197 716 197 680 Q197 651 209.5 635 Q222 619 247 619 Z " />
<glyph glyph-name="ae" unicode="&#xe6;" horiz-adv-x="798" d="M753 56 Q710 23 664.5 6 Q619 -11 566 -11 Q513 -11 464.5 8 Q416 27 376 83 Q366 65 349 48.5 Q332 32 310.5 18.5 Q289 5 262.5 -3 Q236 -11 206 -11 Q161 -11 131 0 Q101 11 82.5 30 Q64 49 56.5 74.5 Q49 100 49 129 Q49 178 69.5 209.5 Q90 241 127.5 259 Q165 277 219 285 Q273 293 339 296 L339 351 Q339 411 317 435.5 Q295 460 244 460 Q202 460 169.5 452.5 Q137 445 95 428 L77 477 Q103 494 152 512 Q201 530 262 530 Q312 530 348.5 514 Q385 498 405 456 Q437 499 478.5 514.5 Q520 530 562 530 Q604 530 640 517 Q676 504 702 475.5 Q728 447 743 402.5 Q758 358 758 295 Q758 266 755 243 L427 243 Q429 157 472 110 Q515 63 587 63 Q629 63 660 71.5 Q691 80 728 99 L753 56 Z M664 303 Q669 388 639 430 Q609 472 555 472 Q531 472 509 463.5 Q487 455 469.5 435.5 Q452 416 440.5 383.5 Q429 351 426 303 L664 303 Z M339 240 Q234 239 189.5 217 Q145 195 145 137 Q145 95 168 75 Q191 55 231 55 Q282 55 310.5 84.5 Q339 114 339 158 L339 240 Z " />
<glyph glyph-name="ccedilla" unicode="&#xe7;" horiz-adv-x="500" d="M187 -162 Q200 -166 213 -167.5 Q226 -169 238 -169 Q263 -169 279 -159 Q295 -149 295 -124 Q295 -103 275.5 -91.5 Q256 -80 221 -75 L239 -8 Q190 -1 153.5 22.5 Q117 46 93 81 Q69 116 57 160 Q45 204 45 252 Q45 325 65 377.5 Q85 430 120 464 Q155 498 201.5 514 Q248 530 302 530 Q322 530 344 526.5 Q366 523 388 517 Q410 511 428.5 503 Q447 495 459 486 L451 346 L387 352 L373 417 Q369 441 352 453.5 Q335 466 294 466 Q227 466 184.5 418 Q142 370 142 268 Q142 210 156 170 Q170 130 193 106 Q216 82 246.5 71.5 Q277 61 310 61 Q346 61 378 70 Q410 79 435 94 L462 54 Q440 34 396.5 12.5 Q353 -9 291 -11 L285 -36 Q300 -39 315.5 -45.5 Q331 -52 344 -62 Q357 -72 365 -87 Q373 -102 373 -123 Q373 -148 363 -167 Q353 -186 336 -198.5 Q319 -211 296.5 -217.5 Q274 -224 248 -224 Q223 -224 203 -219.5 Q183 -215 172 -209 L187 -162 Z " />
<glyph glyph-name="egrave" unicode="&#xe8;" horiz-adv-x="513" d="M468 56 Q425 23 379.5 6 Q334 -11 281 -11 Q223 -11 178.5 10 Q134 31 104.5 67 Q75 103 60 152 Q45 201 45 256 Q45 328 64.5 379.5 Q84 431 116 464.5 Q148 498 190 514 Q232 530 277 530 Q319 530 355 517 Q391 504 417 475.5 Q443 447 458 402.5 Q473 358 473 295 Q473 266 470 243 L143 243 Q145 157 187.5 110 Q230 63 302 63 Q344 63 375 71.5 Q406 80 443 99 L468 56 Z M379 303 Q384 388 354 430 Q324 472 270 472 Q214 472 180.5 431.5 Q147 391 142 303 L379 303 Z M135 719 L135 734 L222 775 L353 594 L318 567 L135 719 Z " />
<glyph glyph-name="eacute" unicode="&#xe9;" horiz-adv-x="513" d="M468 56 Q425 23 379.5 6 Q334 -11 281 -11 Q223 -11 178.5 10 Q134 31 104.5 67 Q75 103 60 152 Q45 201 45 256 Q45 328 64.5 379.5 Q84 431 116 464.5 Q148 498 190 514 Q232 530 277 530 Q319 530 355 517 Q391 504 417 475.5 Q443 447 458 402.5 Q473 358 473 295 Q473 266 470 243 L143 243 Q145 157 187.5 110 Q230 63 302 63 Q344 63 375 71.5 Q406 80 443 99 L468 56 Z M379 303 Q384 388 354 430 Q324 472 270 472 Q214 472 180.5 431.5 Q147 391 142 303 L379 303 Z M227 567 L192 594 L323 775 L410 734 L410 719 L227 567 Z " />
<glyph glyph-name="ecircumflex" unicode="&#xea;" horiz-adv-x="513" d="M468 56 Q425 23 379.5 6 Q334 -11 281 -11 Q223 -11 178.5 10 Q134 31 104.5 67 Q75 103 60 152 Q45 201 45 256 Q45 328 64.5 379.5 Q84 431 116 464.5 Q148 498 190 514 Q232 530 277 530 Q319 530 355 517 Q391 504 417 475.5 Q443 447 458 402.5 Q473 358 473 295 Q473 266 470 243 L143 243 Q145 157 187.5 110 Q230 63 302 63 Q344 63 375 71.5 Q406 80 443 99 L468 56 Z M379 303 Q384 388 354 430 Q324 472 270 472 Q214 472 180.5 431.5 Q147 391 142 303 L379 303 Z M316 768 L438 601 L401 571 L275 681 L149 568 L112 598 L236 768 L316 768 Z " />
<glyph glyph-name="edieresis" unicode="&#xeb;" horiz-adv-x="513" d="M468 56 Q425 23 379.5 6 Q334 -11 281 -11 Q223 -11 178.5 10 Q134 31 104.5 67 Q75 103 60 152 Q45 201 45 256 Q45 328 64.5 379.5 Q84 431 116 464.5 Q148 498 190 514 Q232 530 277 530 Q319 530 355 517 Q391 504 417 475.5 Q443 447 458 402.5 Q473 358 473 295 Q473 266 470 243 L143 243 Q145 157 187.5 110 Q230 63 302 63 Q344 63 375 71.5 Q406 80 443 99 L468 56 Z M379 303 Q384 388 354 430 Q324 472 270 472 Q214 472 180.5 431.5 Q147 391 142 303 L379 303 Z M103 678 Q103 709 120 724 Q137 739 167 739 Q198 739 215 724 Q232 709 232 678 Q232 615 167 615 Q137 615 120 630.5 Q103 646 103 678 Z M309 678 Q309 709 326 724 Q343 739 373 739 Q404 739 421 724 Q438 709 438 678 Q438 615 373 615 Q343 615 326 630.5 Q309 646 309 678 Z " />
<glyph glyph-name="igrave" unicode="&#xec;" horiz-adv-x="316" d="M4 719 L4 734 L91 775 L222 594 L187 567 L4 719 Z M208 127 Q208 103 209 87.5 Q210 72 214 63.5 Q218 55 224.5 51.5 Q231 48 243 47 L279 43 L279 0 L47 0 L47 43 L79 47 Q92 49 100 52 Q108 55 112 63.5 Q116 72 117.5 87 Q119 102 119 127 L119 395 Q119 430 107.5 442.5 Q96 455 70 460 L41 465 L47 506 L193 524 L208 517 L208 127 Z " />
<glyph glyph-name="iacute" unicode="&#xed;" horiz-adv-x="316" d="M82 567 L47 594 L178 775 L265 734 L265 719 L82 567 Z M208 127 Q208 103 209 87.5 Q210 72 214 63.5 Q218 55 224.5 51.5 Q231 48 243 47 L279 43 L279 0 L47 0 L47 43 L79 47 Q92 49 100 52 Q108 55 112 63.5 Q116 72 117.5 87 Q119 102 119 127 L119 395 Q119 430 107.5 442.5 Q96 455 70 460 L41 465 L47 506 L193 524 L208 517 L208 127 Z " />
<glyph glyph-name="icircumflex" unicode="&#xee;" horiz-adv-x="316" d="M208 127 Q208 103 209 87.5 Q210 72 214 63.5 Q218 55 224.5 51.5 Q231 48 243 47 L279 43 L279 0 L47 0 L47 43 L79 47 Q92 49 100 52 Q108 55 112 63.5 Q116 72 117.5 87 Q119 102 119 127 L119 395 Q119 430 107.5 442.5 Q96 455 70 460 L41 465 L47 506 L193 524 L208 517 L208 127 Z M181 768 L303 601 L266 571 L140 681 L14 568 L-23 598 L101 768 L181 768 Z " />
<glyph glyph-name="idieresis" unicode="&#xef;" horiz-adv-x="316" d="M-22 678 Q-22 709 -5 724 Q12 739 42 739 Q73 739 90 724 Q107 709 107 678 Q107 615 42 615 Q12 615 -5 630.5 Q-22 646 -22 678 Z M174 678 Q174 709 191 724 Q208 739 238 739 Q269 739 286 724 Q303 709 303 678 Q303 615 238 615 Q208 615 191 630.5 Q174 646 174 678 Z M208 127 Q208 103 209 87.5 Q210 72 214 63.5 Q218 55 224.5 51.5 Q231 48 243 47 L279 43 L279 0 L47 0 L47 43 L79 47 Q92 49 100 52 Q108 55 112 63.5 Q116 72 117.5 87 Q119 102 119 127 L119 395 Q119 430 107.5 442.5 Q96 455 70 460 L41 465 L47 506 L193 524 L208 517 L208 127 Z " />
<glyph glyph-name="eth" unicode="&#xf0;" horiz-adv-x="538" d="M403 748 L430 703 L342 655 Q423 589 458 498 Q493 407 493 305 Q493 243 481 186 Q469 129 441.5 85 Q414 41 369.5 15 Q325 -11 261 -11 Q210 -11 169.5 7 Q129 25 101.5 57.5 Q74 90 59.5 136 Q45 182 45 239 Q45 313 65 361.5 Q85 410 116 439.5 Q147 469 184 481 Q221 493 254 493 Q289 493 320.5 482.5 Q352 472 380 452 Q361 493 337.5 536 Q314 579 273 617 L175 563 L148 608 L228 652 Q193 676 142 694 L162 745 Q238 723 295 688 L403 748 Z M142 249 Q142 152 175.5 99 Q209 46 266 46 Q304 46 330 64 Q356 82 372 112 Q388 142 394.5 182 Q401 222 401 265 Q401 305 397 335.5 Q393 366 388 391 Q371 406 339.5 419.5 Q308 433 271 433 Q239 433 214.5 419 Q190 405 174 380.5 Q158 356 150 322.5 Q142 289 142 249 Z " />
<glyph glyph-name="ntilde" unicode="&#xf1;" horiz-adv-x="633" d="M206 127 Q206 103 206.5 88 Q207 73 210.5 64 Q214 55 221 51.5 Q228 48 241 46 L269 42 L269 0 L44 0 L44 43 L76 47 Q89 49 97 52 Q105 55 109 63.5 Q113 72 114.5 87 Q116 102 116 127 L116 394 Q116 429 104.5 442.5 Q93 456 67 461 L38 466 L44 507 L175 524 L189 518 L198 449 Q236 484 278.5 507 Q321 530 378 530 Q411 530 439.5 521 Q468 512 488 491 Q508 470 519.5 435 Q531 400 531 349 L531 127 Q531 103 532.5 88 Q534 73 538 64.5 Q542 56 550 52.5 Q558 49 571 47 L606 42 L606 0 L381 0 L381 42 L410 46 Q422 48 428.5 51.5 Q435 55 438 63.5 Q441 72 441.5 85.5 Q442 99 442 121 L442 341 Q442 395 419 424 Q396 453 344 453 Q309 453 273.5 440 Q238 427 206 407 L206 127 Z M222 742 Q230 742 256.5 736 Q283 730 312.5 722.5 Q342 715 367 708.5 Q392 702 396 702 Q406 702 414.5 708 Q423 714 441 740 L478 720 Q467 688 456 668 Q445 648 434.5 636.5 Q424 625 414.5 620.5 Q405 616 396 616 Q390 616 365 622.5 Q340 629 310.5 636.5 Q281 644 255.5 650.5 Q230 657 222 657 Q214 657 204.5 651 Q195 645 176 622 L141 640 Q164 694 182.5 718 Q201 742 222 742 Z " />
<glyph glyph-name="ograve" unicode="&#xf2;" horiz-adv-x="558" d="M275 -11 Q215 -11 172 8.5 Q129 28 100.5 63.5 Q72 99 58.5 149 Q45 199 45 260 Q45 321 61.5 371 Q78 421 109 456 Q140 491 185 510.5 Q230 530 287 530 Q346 530 389 510.5 Q432 491 459.5 455.5 Q487 420 500 370.5 Q513 321 513 261 Q513 199 498 148.5 Q483 98 453 62.5 Q423 27 378.5 8 Q334 -11 275 -11 Z M280 45 Q342 45 379 96.5 Q416 148 416 261 Q416 370 381 421 Q346 472 282 472 Q218 472 180 421.5 Q142 371 142 260 Q142 148 179 96.5 Q216 45 280 45 Z M146 719 L146 734 L233 775 L364 594 L329 567 L146 719 Z " />
<glyph glyph-name="oacute" unicode="&#xf3;" horiz-adv-x="558" d="M275 -11 Q215 -11 172 8.5 Q129 28 100.5 63.5 Q72 99 58.5 149 Q45 199 45 260 Q45 321 61.5 371 Q78 421 109 456 Q140 491 185 510.5 Q230 530 287 530 Q346 530 389 510.5 Q432 491 459.5 455.5 Q487 420 500 370.5 Q513 321 513 261 Q513 199 498 148.5 Q483 98 453 62.5 Q423 27 378.5 8 Q334 -11 275 -11 Z M280 45 Q342 45 379 96.5 Q416 148 416 261 Q416 370 381 421 Q346 472 282 472 Q218 472 180 421.5 Q142 371 142 260 Q142 148 179 96.5 Q216 45 280 45 Z M239 567 L204 594 L335 775 L422 734 L422 719 L239 567 Z " />
<glyph glyph-name="ocircumflex" unicode="&#xf4;" horiz-adv-x="558" d="M275 -11 Q215 -11 172 8.5 Q129 28 100.5 63.5 Q72 99 58.5 149 Q45 199 45 260 Q45 321 61.5 371 Q78 421 109 456 Q140 491 185 510.5 Q230 530 287 530 Q346 530 389 510.5 Q432 491 459.5 455.5 Q487 420 500 370.5 Q513 321 513 261 Q513 199 498 148.5 Q483 98 453 62.5 Q423 27 378.5 8 Q334 -11 275 -11 Z M280 45 Q342 45 379 96.5 Q416 148 416 261 Q416 370 381 421 Q346 472 282 472 Q218 472 180 421.5 Q142 371 142 260 Q142 148 179 96.5 Q216 45 280 45 Z M321 768 L443 601 L406 571 L280 681 L154 568 L117 598 L241 768 L321 768 Z " />
<glyph glyph-name="otilde" unicode="&#xf5;" horiz-adv-x="558" d="M275 -11 Q215 -11 172 8.5 Q129 28 100.5 63.5 Q72 99 58.5 149 Q45 199 45 260 Q45 321 61.5 371 Q78 421 109 456 Q140 491 185 510.5 Q230 530 287 530 Q346 530 389 510.5 Q432 491 459.5 455.5 Q487 420 500 370.5 Q513 321 513 261 Q513 199 498 148.5 Q483 98 453 62.5 Q423 27 378.5 8 Q334 -11 275 -11 Z M280 45 Q342 45 379 96.5 Q416 148 416 261 Q416 370 381 421 Q346 472 282 472 Q218 472 180 421.5 Q142 371 142 260 Q142 148 179 96.5 Q216 45 280 45 Z M197 742 Q205 742 231.5 736 Q258 730 287.5 722.5 Q317 715 342 708.5 Q367 702 371 702 Q381 702 389.5 708 Q398 714 416 740 L453 720 Q442 688 431 668 Q420 648 409.5 636.5 Q399 625 389.5 620.5 Q380 616 371 616 Q365 616 340 622.5 Q315 629 285.5 636.5 Q256 644 230.5 650.5 Q205 657 197 657 Q189 657 179.5 651 Q170 645 151 622 L116 640 Q139 694 157.5 718 Q176 742 197 742 Z " />
<glyph glyph-name="odieresis" unicode="&#xf6;" horiz-adv-x="558" d="M275 -11 Q215 -11 172 8.5 Q129 28 100.5 63.5 Q72 99 58.5 149 Q45 199 45 260 Q45 321 61.5 371 Q78 421 109 456 Q140 491 185 510.5 Q230 530 287 530 Q346 530 389 510.5 Q432 491 459.5 455.5 Q487 420 500 370.5 Q513 321 513 261 Q513 199 498 148.5 Q483 98 453 62.5 Q423 27 378.5 8 Q334 -11 275 -11 Z M280 45 Q342 45 379 96.5 Q416 148 416 261 Q416 370 381 421 Q346 472 282 472 Q218 472 180 421.5 Q142 371 142 260 Q142 148 179 96.5 Q216 45 280 45 Z M116 678 Q116 709 133 724 Q150 739 180 739 Q211 739 228 724 Q245 709 245 678 Q245 615 180 615 Q150 615 133 630.5 Q116 646 116 678 Z M322 678 Q322 709 339 724 Q356 739 386 739 Q417 739 434 724 Q451 709 451 678 Q451 615 386 615 Q356 615 339 630.5 Q322 646 322 678 Z " />
<glyph glyph-name="divide" unicode="&#xf7;" horiz-adv-x="600" d="M103 256 L103 326 L497 326 L497 256 L103 256 Z M242 463 Q242 488 258.5 503 Q275 518 301 518 Q326 518 341.5 503 Q357 488 357 463 Q357 438 341.5 422 Q326 406 301 406 Q275 406 258.5 422 Q242 438 242 463 Z M242 121 Q242 146 258.5 161 Q275 176 301 176 Q326 176 341.5 161 Q357 146 357 121 Q357 95 341.5 79.5 Q326 64 301 64 Q275 64 258.5 79.5 Q242 95 242 121 Z " />
<glyph glyph-name="oslash" unicode="&#xf8;" horiz-adv-x="558" d="M275 -11 Q194 -11 141 25 L83 -52 L11 -52 L98 66 Q71 101 58 150.5 Q45 200 45 260 Q45 321 61.5 371 Q78 421 109 456 Q140 491 185 510.5 Q230 530 287 530 Q363 530 416 496 L476 577 L548 577 L458 456 Q487 421 500 371 Q513 321 513 261 Q513 199 498 148.5 Q483 98 453 62.5 Q423 27 378.5 8 Q334 -11 275 -11 Z M280 45 Q342 45 379 96.5 Q416 148 416 261 Q416 296 412 326 Q408 356 400 379 L189 84 Q224 45 280 45 Z M142 260 Q142 186 158 141 L369 435 Q336 472 282 472 Q218 472 180 421.5 Q142 371 142 260 Z " />
<glyph glyph-name="ugrave" unicode="&#xf9;" horiz-adv-x="631" d="M520 117 Q520 82 531 68.5 Q542 55 569 50 L594 46 L592 4 L466 -7 L452 -1 L439 70 Q401 35 358 12 Q315 -11 261 -11 Q230 -11 202.5 -2 Q175 7 155 28 Q135 49 123.5 84 Q112 119 112 170 L112 394 Q112 429 100.5 442.5 Q89 456 63 461 L34 466 L40 507 L187 524 L201 518 L201 180 Q201 126 223 96 Q245 66 295 66 Q327 66 363 79 Q399 92 431 112 L431 394 Q431 429 419.5 442.5 Q408 456 382 461 L353 466 L359 507 L506 524 L520 518 L520 117 Z M159 719 L159 734 L246 775 L377 594 L342 567 L159 719 Z " />
<glyph glyph-name="uacute" unicode="&#xfa;" horiz-adv-x="631" d="M520 117 Q520 82 531 68.5 Q542 55 569 50 L594 46 L592 4 L466 -7 L452 -1 L439 70 Q401 35 358 12 Q315 -11 261 -11 Q230 -11 202.5 -2 Q175 7 155 28 Q135 49 123.5 84 Q112 119 112 170 L112 394 Q112 429 100.5 442.5 Q89 456 63 461 L34 466 L40 507 L187 524 L201 518 L201 180 Q201 126 223 96 Q245 66 295 66 Q327 66 363 79 Q399 92 431 112 L431 394 Q431 429 419.5 442.5 Q408 456 382 461 L353 466 L359 507 L506 524 L520 518 L520 117 Z M266 567 L231 594 L362 775 L449 734 L449 719 L266 567 Z " />
<glyph glyph-name="ucircumflex" unicode="&#xfb;" horiz-adv-x="631" d="M520 117 Q520 82 531 68.5 Q542 55 569 50 L594 46 L592 4 L466 -7 L452 -1 L439 70 Q401 35 358 12 Q315 -11 261 -11 Q230 -11 202.5 -2 Q175 7 155 28 Q135 49 123.5 84 Q112 119 112 170 L112 394 Q112 429 100.5 442.5 Q89 456 63 461 L34 466 L40 507 L187 524 L201 518 L201 180 Q201 126 223 96 Q245 66 295 66 Q327 66 363 79 Q399 92 431 112 L431 394 Q431 429 419.5 442.5 Q408 456 382 461 L353 466 L359 507 L506 524 L520 518 L520 117 Z M336 768 L458 601 L421 571 L295 681 L169 568 L132 598 L256 768 L336 768 Z " />
<glyph glyph-name="udieresis" unicode="&#xfc;" horiz-adv-x="631" d="M520 117 Q520 82 531 68.5 Q542 55 569 50 L594 46 L592 4 L466 -7 L452 -1 L439 70 Q401 35 358 12 Q315 -11 261 -11 Q230 -11 202.5 -2 Q175 7 155 28 Q135 49 123.5 84 Q112 119 112 170 L112 394 Q112 429 100.5 442.5 Q89 456 63 461 L34 466 L40 507 L187 524 L201 518 L201 180 Q201 126 223 96 Q245 66 295 66 Q327 66 363 79 Q399 92 431 112 L431 394 Q431 429 419.5 442.5 Q408 456 382 461 L353 466 L359 507 L506 524 L520 518 L520 117 Z M138 678 Q138 709 155 724 Q172 739 202 739 Q233 739 250 724 Q267 709 267 678 Q267 615 202 615 Q172 615 155 630.5 Q138 646 138 678 Z M344 678 Q344 709 361 724 Q378 739 408 739 Q439 739 456 724 Q473 709 473 678 Q473 615 408 615 Q378 615 361 630.5 Q344 646 344 678 Z " />
<glyph glyph-name="yacute" unicode="&#xfd;" horiz-adv-x="547" d="M303 17 Q280 -39 263 -76 Q246 -113 230 -137 Q214 -161 196 -173 Q178 -185 153 -190 Q137 -193 118 -193 Q87 -193 58 -183 Q29 -173 15 -161 L38 -108 Q52 -113 71.5 -117 Q91 -121 109 -121 Q132 -121 149 -115 Q166 -109 181 -93 Q196 -77 210 -50 Q224 -23 241 18 L79 414 Q66 444 56.5 454.5 Q47 465 30 469 L6 474 L15 519 L227 519 L227 474 L158 466 L286 130 L288 130 L420 466 L346 474 L353 519 L537 519 L537 475 L522 473 Q510 472 502 468 Q494 464 487.5 456.5 Q481 449 475 436 Q469 423 461 403 L303 17 Z M250 567 L215 594 L346 775 L433 734 L433 719 L250 567 Z " />
<glyph glyph-name="thorn" unicode="&#xfe;" horiz-adv-x="586" d="M108 614 Q108 649 97 662.5 Q86 676 59 681 L30 686 L36 727 L175 745 L197 733 L197 463 Q223 489 263 509.5 Q303 530 349 530 Q372 530 389 526 Q457 512 499 450 Q541 388 541 271 Q541 198 525.5 144.5 Q510 91 482.5 56.5 Q455 22 416.5 5.5 Q378 -11 332 -11 Q290 -11 254.5 4 Q219 19 197 43 L197 -56 Q197 -80 198 -95.5 Q199 -111 203 -119.5 Q207 -128 213.5 -131.5 Q220 -135 232 -136 L290 -142 L290 -183 L41 -183 L41 -140 L68 -137 Q81 -136 89 -132.5 Q97 -129 101 -120.5 Q105 -112 106.5 -96.5 Q108 -81 108 -56 L108 614 Z M197 99 Q222 79 251.5 68 Q281 57 316 57 Q375 57 410 106.5 Q445 156 445 267 Q445 367 412 412 Q379 457 324 457 Q297 457 266.5 447.5 Q236 438 197 411 L197 99 Z " />
<glyph glyph-name="ydieresis" unicode="&#xff;" horiz-adv-x="547" d="M303 17 Q280 -39 263 -76 Q246 -113 230 -137 Q214 -161 196 -173 Q178 -185 153 -190 Q137 -193 118 -193 Q87 -193 58 -183 Q29 -173 15 -161 L38 -108 Q52 -113 71.5 -117 Q91 -121 109 -121 Q132 -121 149 -115 Q166 -109 181 -93 Q196 -77 210 -50 Q224 -23 241 18 L79 414 Q66 444 56.5 454.5 Q47 465 30 469 L6 474 L15 519 L227 519 L227 474 L158 466 L286 130 L288 130 L420 466 L346 474 L353 519 L537 519 L537 475 L522 473 Q510 472 502 468 Q494 464 487.5 456.5 Q481 449 475 436 Q469 423 461 403 L303 17 Z M116 678 Q116 709 133 724 Q150 739 180 739 Q211 739 228 724 Q245 709 245 678 Q245 615 180 615 Q150 615 133 630.5 Q116 646 116 678 Z M322 678 Q322 709 339 724 Q356 739 386 739 Q417 739 434 724 Q451 709 451 678 Q451 615 386 615 Q356 615 339 630.5 Q322 646 322 678 Z " />
<glyph glyph-name="Amacron" unicode="&#x100;" horiz-adv-x="692" d="M405 724 L592 133 Q600 108 606.5 93 Q613 78 619.5 69.5 Q626 61 633.5 57.5 Q641 54 653 51 L678 48 L678 0 L432 0 L432 48 L511 58 L460 230 L199 230 L147 57 L224 48 L224 0 L10 0 L10 48 L38 52 Q64 57 74.5 73 Q85 89 96 123 L294 724 L405 724 Z M330 647 L329 647 L215 289 L441 289 L330 647 Z M195 892 L504 892 L504 815 L195 815 L195 892 Z " />
<glyph glyph-name="amacron" unicode="&#x101;" horiz-adv-x="524" d="M497 4 Q478 -5 462 -8 Q446 -11 429 -11 Q354 -11 342 63 Q324 33 286.5 11 Q249 -11 196 -11 Q153 -11 124 0 Q95 11 77 30 Q59 49 51.5 74.5 Q44 100 44 129 Q44 178 64.5 209.5 Q85 241 122.5 259 Q160 277 214 285 Q268 293 334 296 L334 351 Q334 411 312 435.5 Q290 460 239 460 Q197 460 164.5 452.5 Q132 445 90 428 L72 477 Q98 494 147 512 Q196 530 257 530 Q295 530 325.5 521.5 Q356 513 377.5 492.5 Q399 472 410.5 438.5 Q422 405 422 354 L422 96 Q422 65 429 55.5 Q436 46 462 43 L494 39 L497 4 Z M334 240 Q229 239 184.5 217 Q140 195 140 137 Q140 95 163 75 Q186 55 226 55 Q277 55 305.5 84.5 Q334 114 334 158 L334 240 Z M87 706 L390 706 L390 630 L87 630 L87 706 Z " />
<glyph glyph-name="Abreve" unicode="&#x102;" horiz-adv-x="692" d="M405 724 L592 133 Q600 108 606.5 93 Q613 78 619.5 69.5 Q626 61 633.5 57.5 Q641 54 653 51 L678 48 L678 0 L432 0 L432 48 L511 58 L460 230 L199 230 L147 57 L224 48 L224 0 L10 0 L10 48 L38 52 Q64 57 74.5 73 Q85 89 96 123 L294 724 L405 724 Z M330 647 L329 647 L215 289 L441 289 L330 647 Z M511 931 Q497 860 458.5 819.5 Q420 779 348 779 Q276 779 237.5 820 Q199 861 185 931 L226 951 Q241 908 276 887.5 Q311 867 348 867 Q383 867 418 886.5 Q453 906 470 951 L511 931 Z " />
<glyph glyph-name="abreve" unicode="&#x103;" horiz-adv-x="524" d="M497 4 Q478 -5 462 -8 Q446 -11 429 -11 Q354 -11 342 63 Q324 33 286.5 11 Q249 -11 196 -11 Q153 -11 124 0 Q95 11 77 30 Q59 49 51.5 74.5 Q44 100 44 129 Q44 178 64.5 209.5 Q85 241 122.5 259 Q160 277 214 285 Q268 293 334 296 L334 351 Q334 411 312 435.5 Q290 460 239 460 Q197 460 164.5 452.5 Q132 445 90 428 L72 477 Q98 494 147 512 Q196 530 257 530 Q295 530 325.5 521.5 Q356 513 377.5 492.5 Q399 472 410.5 438.5 Q422 405 422 354 L422 96 Q422 65 429 55.5 Q436 46 462 43 L494 39 L497 4 Z M334 240 Q229 239 184.5 217 Q140 195 140 137 Q140 95 163 75 Q186 55 226 55 Q277 55 305.5 84.5 Q334 114 334 158 L334 240 Z M247 666 Q285 666 312 689 Q339 712 362 769 L404 752 Q389 671 349.5 627 Q310 583 246 583 Q176 583 140 625 Q104 667 90 752 L130 769 Q154 709 181 687.5 Q208 666 247 666 Z " />
<glyph glyph-name="Aogonek" unicode="&#x104;" horiz-adv-x="692" d="M664 -195 Q648 -205 623 -214.5 Q598 -224 564 -224 Q547 -224 529 -219.5 Q511 -215 496.5 -204.5 Q482 -194 472.5 -176.5 Q463 -159 463 -132 Q463 -91 488.5 -58.5 Q514 -26 553 0 L432 0 L432 48 L511 58 L460 230 L199 230 L147 57 L224 48 L224 0 L10 0 L10 48 L38 52 Q64 57 74.5 73 Q85 89 96 123 L294 724 L405 724 L592 133 Q600 109 606 94 Q612 79 618.5 70.5 Q625 62 633 58 Q641 54 653 51 L678 48 L678 0 L627 0 Q614 -11 600 -22 Q586 -33 575.5 -46.5 Q565 -60 558 -75.5 Q551 -91 551 -109 Q551 -132 566 -146 Q581 -160 614 -160 Q622 -160 631 -159 Q640 -158 653 -155 L664 -195 Z M330 647 L329 647 L215 289 L441 289 L330 647 Z " />
<glyph glyph-name="aogonek" unicode="&#x105;" horiz-adv-x="524" d="M511 -195 Q495 -205 469.5 -214.5 Q444 -224 409 -224 Q398 -224 381 -220.5 Q364 -217 348.5 -207.5 Q333 -198 321.5 -180 Q310 -162 310 -132 Q310 -94 333.5 -62.5 Q357 -31 392 -5 Q351 9 342 63 Q324 33 286.5 11 Q249 -11 196 -11 Q153 -11 124 0 Q95 11 77 30 Q59 49 51.5 74.5 Q44 100 44 129 Q44 178 64.5 209.5 Q85 241 122.5 259 Q160 277 214 285 Q268 293 334 296 L334 351 Q334 411 312 435.5 Q290 460 239 460 Q197 460 164.5 452.5 Q132 445 90 428 L72 477 Q98 494 147 512 Q196 530 257 530 Q348 530 385 485 Q422 440 422 354 L422 96 Q422 77 424.5 66.5 Q427 56 434.5 50.5 Q442 45 456 43 Q470 41 494 39 L497 4 Q479 -1 461 -12 Q443 -23 429 -38 Q415 -53 406.5 -71 Q398 -89 398 -109 Q398 -132 411 -144.5 Q424 -157 447 -159 Q458 -161 471.5 -159.5 Q485 -158 500 -155 L511 -195 Z M334 240 Q229 239 184.5 217 Q140 195 140 137 Q140 95 163 75 Q186 55 226 55 Q277 55 305.5 84.5 Q334 114 334 158 L334 240 Z " />
<glyph glyph-name="Cacute" unicode="&#x106;" horiz-adv-x="629" d="M578 32 Q558 21 505 5 Q452 -11 372 -11 Q303 -11 243.5 9 Q184 29 140 73.5 Q96 118 70.5 188.5 Q45 259 45 359 Q45 433 65 501.5 Q85 570 127.5 622.5 Q170 675 237.5 706 Q305 737 399 737 Q429 737 458 733 Q487 729 511.5 723.5 Q536 718 554 711.5 Q572 705 581 699 L573 545 L515 550 L501 620 Q495 651 468 663.5 Q441 676 388 676 Q336 676 292.5 657.5 Q249 639 217.5 600.5 Q186 562 168.5 502 Q151 442 151 359 Q151 268 170.5 209 Q190 150 222.5 115.5 Q255 81 296.5 67 Q338 53 381 53 Q415 53 437 57 Q459 61 473 68 Q487 75 494.5 85 Q502 95 505 107 L526 178 L586 178 L578 32 Z M273 776 L254 811 L429 948 L497 882 L497 863 L273 776 Z " />
<glyph glyph-name="cacute" unicode="&#x107;" horiz-adv-x="500" d="M462 54 Q451 44 433.5 32.5 Q416 21 393 11.5 Q370 2 342 -4.5 Q314 -11 281 -11 Q221 -11 177 10.5 Q133 32 103.5 68 Q74 104 59.5 151.5 Q45 199 45 252 Q45 325 65 377.5 Q85 430 120 464 Q155 498 201.5 514 Q248 530 302 530 Q322 530 344 526.5 Q366 523 388 517 Q410 511 428.5 503 Q447 495 459 486 L451 346 L387 352 L373 417 Q369 441 352 453.5 Q335 466 294 466 Q227 466 184.5 418 Q142 370 142 268 Q142 210 156 170 Q170 130 193 106 Q216 82 246.5 71.5 Q277 61 310 61 Q346 61 378 70 Q410 79 435 94 L462 54 Z M225 567 L190 594 L321 775 L408 734 L408 719 L225 567 Z " />
<glyph glyph-name="Ccircumflex" unicode="&#x108;" horiz-adv-x="629" d="M578 32 Q558 21 505 5 Q452 -11 372 -11 Q303 -11 243.5 9 Q184 29 140 73.5 Q96 118 70.5 188.5 Q45 259 45 359 Q45 433 65 501.5 Q85 570 127.5 622.5 Q170 675 237.5 706 Q305 737 399 737 Q429 737 458 733 Q487 729 511.5 723.5 Q536 718 554 711.5 Q572 705 581 699 L573 545 L515 550 L501 620 Q495 651 468 663.5 Q441 676 388 676 Q336 676 292.5 657.5 Q249 639 217.5 600.5 Q186 562 168.5 502 Q151 442 151 359 Q151 268 170.5 209 Q190 150 222.5 115.5 Q255 81 296.5 67 Q338 53 381 53 Q415 53 437 57 Q459 61 473 68 Q487 75 494.5 85 Q502 95 505 107 L526 178 L586 178 L578 32 Z M376 851 L231 776 L205 815 L338 940 L414 940 L548 814 L521 776 L376 851 Z " />
<glyph glyph-name="ccircumflex" unicode="&#x109;" horiz-adv-x="500" d="M462 54 Q451 44 433.5 32.5 Q416 21 393 11.5 Q370 2 342 -4.5 Q314 -11 281 -11 Q221 -11 177 10.5 Q133 32 103.5 68 Q74 104 59.5 151.5 Q45 199 45 252 Q45 325 65 377.5 Q85 430 120 464 Q155 498 201.5 514 Q248 530 302 530 Q322 530 344 526.5 Q366 523 388 517 Q410 511 428.5 503 Q447 495 459 486 L451 346 L387 352 L373 417 Q369 441 352 453.5 Q335 466 294 466 Q227 466 184.5 418 Q142 370 142 268 Q142 210 156 170 Q170 130 193 106 Q216 82 246.5 71.5 Q277 61 310 61 Q346 61 378 70 Q410 79 435 94 L462 54 Z M320 768 L442 601 L405 571 L279 681 L153 568 L116 598 L240 768 L320 768 Z " />
<glyph glyph-name="Cdotaccent" unicode="&#x10a;" horiz-adv-x="629" d="M578 32 Q558 21 505 5 Q452 -11 372 -11 Q303 -11 243.5 9 Q184 29 140 73.5 Q96 118 70.5 188.5 Q45 259 45 359 Q45 433 65 501.5 Q85 570 127.5 622.5 Q170 675 237.5 706 Q305 737 399 737 Q429 737 458 733 Q487 729 511.5 723.5 Q536 718 554 711.5 Q572 705 581 699 L573 545 L515 550 L501 620 Q495 651 468 663.5 Q441 676 388 676 Q336 676 292.5 657.5 Q249 639 217.5 600.5 Q186 562 168.5 502 Q151 442 151 359 Q151 268 170.5 209 Q190 150 222.5 115.5 Q255 81 296.5 67 Q338 53 381 53 Q415 53 437 57 Q459 61 473 68 Q487 75 494.5 85 Q502 95 505 107 L526 178 L586 178 L578 32 Z M438 857 Q438 825 421 809 Q404 793 372 793 Q342 793 324.5 809 Q307 825 307 857 Q307 888 324.5 903.5 Q342 919 372 919 Q403 919 420.5 903.5 Q438 888 438 857 Z " />
<glyph glyph-name="cdotaccent" unicode="&#x10b;" horiz-adv-x="500" d="M462 54 Q451 44 433.5 32.5 Q416 21 393 11.5 Q370 2 342 -4.5 Q314 -11 281 -11 Q221 -11 177 10.5 Q133 32 103.5 68 Q74 104 59.5 151.5 Q45 199 45 252 Q45 325 65 377.5 Q85 430 120 464 Q155 498 201.5 514 Q248 530 302 530 Q322 530 344 526.5 Q366 523 388 517 Q410 511 428.5 503 Q447 495 459 486 L451 346 L387 352 L373 417 Q369 441 352 453.5 Q335 466 294 466 Q227 466 184.5 418 Q142 370 142 268 Q142 210 156 170 Q170 130 193 106 Q216 82 246.5 71.5 Q277 61 310 61 Q346 61 378 70 Q410 79 435 94 L462 54 Z M344 692 Q344 660 327 644 Q310 628 278 628 Q248 628 230.5 644 Q213 660 213 692 Q213 723 230.5 738.5 Q248 754 278 754 Q309 754 326.5 738.5 Q344 723 344 692 Z " />
<glyph glyph-name="Ccaron" unicode="&#x10c;" horiz-adv-x="629" d="M578 32 Q558 21 505 5 Q452 -11 372 -11 Q303 -11 243.5 9 Q184 29 140 73.5 Q96 118 70.5 188.5 Q45 259 45 359 Q45 433 65 501.5 Q85 570 127.5 622.5 Q170 675 237.5 706 Q305 737 399 737 Q429 737 458 733 Q487 729 511.5 723.5 Q536 718 554 711.5 Q572 705 581 699 L573 545 L515 550 L501 620 Q495 651 468 663.5 Q441 676 388 676 Q336 676 292.5 657.5 Q249 639 217.5 600.5 Q186 562 168.5 502 Q151 442 151 359 Q151 268 170.5 209 Q190 150 222.5 115.5 Q255 81 296.5 67 Q338 53 381 53 Q415 53 437 57 Q459 61 473 68 Q487 75 494.5 85 Q502 95 505 107 L526 178 L586 178 L578 32 Z M523 945 L549 906 L416 781 L340 781 L206 907 L233 945 L378 870 L523 945 Z " />
<glyph glyph-name="ccaron" unicode="&#x10d;" horiz-adv-x="500" d="M462 54 Q451 44 433.5 32.5 Q416 21 393 11.5 Q370 2 342 -4.5 Q314 -11 281 -11 Q221 -11 177 10.5 Q133 32 103.5 68 Q74 104 59.5 151.5 Q45 199 45 252 Q45 325 65 377.5 Q85 430 120 464 Q155 498 201.5 514 Q248 530 302 530 Q322 530 344 526.5 Q366 523 388 517 Q410 511 428.5 503 Q447 495 459 486 L451 346 L387 352 L373 417 Q369 441 352 453.5 Q335 466 294 466 Q227 466 184.5 418 Q142 370 142 268 Q142 210 156 170 Q170 130 193 106 Q216 82 246.5 71.5 Q277 61 310 61 Q346 61 378 70 Q410 79 435 94 L462 54 Z M246 586 L127 752 L162 782 L288 670 L413 781 L447 752 L327 586 L246 586 Z " />
<glyph glyph-name="Dcaron" unicode="&#x10e;" horiz-adv-x="727" d="M307 60 Q383 60 435 85.5 Q487 111 518.5 154.5 Q550 198 564 255.5 Q578 313 578 377 Q578 520 521 592 Q464 664 352 664 L230 664 L230 60 L307 60 Z M337 724 Q431 724 496.5 700 Q562 676 603.5 631 Q645 586 663.5 521.5 Q682 457 682 376 Q682 293 659.5 223.5 Q637 154 588 104.5 Q539 55 463 27.5 Q387 0 279 0 L55 0 L55 47 L95 51 Q107 52 114 54.5 Q121 57 125.5 63.5 Q130 70 131.5 82 Q133 94 133 115 L133 598 Q133 642 126.5 656.5 Q120 671 94 674 L56 677 L56 724 L337 724 Z M471 945 L497 906 L364 781 L288 781 L154 907 L181 945 L326 870 L471 945 Z " />
<glyph glyph-name="dcaron" unicode="&#x10f;" horiz-adv-x="609" d="M416 0 L400 63 Q345 -11 245 -11 Q155 -11 100 54.5 Q45 120 45 250 Q45 324 61.5 376.5 Q78 429 107 463.5 Q136 498 175 514 Q214 530 260 530 Q296 530 330 518 Q364 506 390 479 L390 614 Q390 649 379 662.5 Q368 676 341 681 L312 686 L318 727 L462 745 L479 734 L479 113 Q479 79 485.5 65.5 Q492 52 521 47 L549 42 L549 0 L416 0 Z M390 420 Q368 438 338 449 Q308 460 272 460 Q212 460 176.5 413 Q141 366 141 259 Q141 152 174 105.5 Q207 59 270 59 Q340 59 390 112 L390 420 Z M544 529 Q552 561 556 593 Q560 625 560 651 Q560 674 558 699 Q556 724 549 746 L630 765 L646 762 Q648 755 649 744 Q650 733 650 724 Q650 672 629.5 618 Q609 564 583 516 L544 529 Z " />
<glyph glyph-name="Dcroat" unicode="&#x110;" horiz-adv-x="727" d="M337 724 Q431 724 496.5 700 Q562 676 603.5 631 Q645 586 663.5 521.5 Q682 457 682 376 Q682 293 659.5 223.5 Q637 154 588 104.5 Q539 55 463 27.5 Q387 0 279 0 L55 0 L55 47 L95 51 Q107 52 114 54.5 Q121 57 125.5 63.5 Q130 70 131.5 82 Q133 94 133 115 L133 324 L53 324 L53 384 L133 384 L133 598 Q133 642 126.5 656.5 Q120 671 94 674 L56 677 L56 724 L337 724 Z M307 60 Q383 60 435 85.5 Q487 111 518.5 154.5 Q550 198 564 255.5 Q578 313 578 377 Q578 520 521 592 Q464 664 352 664 L230 664 L230 384 L378 384 L378 324 L230 324 L230 60 L307 60 Z " />
<glyph glyph-name="dcroat" unicode="&#x111;" horiz-adv-x="579" d="M416 0 L400 63 Q345 -11 245 -11 Q155 -11 100 54.5 Q45 120 45 250 Q45 324 61.5 376.5 Q78 429 107 463.5 Q136 498 175 514 Q214 530 260 530 Q296 530 330 518 Q364 506 390 479 L390 581 L251 581 L251 632 L389 632 Q387 656 375.5 666.5 Q364 677 341 681 L312 686 L318 727 L462 745 L479 734 L479 632 L560 632 L560 581 L479 581 L479 113 Q479 79 485.5 65.5 Q492 52 521 47 L549 42 L549 0 L416 0 Z M390 420 Q368 438 338 449 Q308 460 272 460 Q212 460 176.5 413 Q141 366 141 259 Q141 152 174 105.5 Q207 59 270 59 Q340 59 390 112 L390 420 Z " />
<glyph glyph-name="Emacron" unicode="&#x112;" horiz-adv-x="601" d="M533 539 L474 541 L452 613 Q445 639 431 651.5 Q417 664 387 664 L230 664 L230 398 L464 398 L464 339 L230 339 L230 60 L407 60 Q437 60 451 71.5 Q465 83 472 109 L494 190 L551 190 L540 0 L55 0 L55 47 L96 51 Q110 53 117 56 Q124 59 128 67.5 Q132 76 132.5 91 Q133 106 133 131 L133 599 Q133 643 126 656.5 Q119 670 93 673 L56 677 L56 724 L523 724 L533 539 Z M142 892 L451 892 L451 815 L142 815 L142 892 Z " />
<glyph glyph-name="emacron" unicode="&#x113;" horiz-adv-x="513" d="M468 56 Q425 23 379.5 6 Q334 -11 281 -11 Q223 -11 178.5 10 Q134 31 104.5 67 Q75 103 60 152 Q45 201 45 256 Q45 328 64.5 379.5 Q84 431 116 464.5 Q148 498 190 514 Q232 530 277 530 Q319 530 355 517 Q391 504 417 475.5 Q443 447 458 402.5 Q473 358 473 295 Q473 266 470 243 L143 243 Q145 157 187.5 110 Q230 63 302 63 Q344 63 375 71.5 Q406 80 443 99 L468 56 Z M379 303 Q384 388 354 430 Q324 472 270 472 Q214 472 180.5 431.5 Q147 391 142 303 L379 303 Z M116 706 L419 706 L419 630 L116 630 L116 706 Z " />
<glyph glyph-name="Ebreve" unicode="&#x114;" horiz-adv-x="601" d="M533 539 L474 541 L452 613 Q445 639 431 651.5 Q417 664 387 664 L230 664 L230 398 L464 398 L464 339 L230 339 L230 60 L407 60 Q437 60 451 71.5 Q465 83 472 109 L494 190 L551 190 L540 0 L55 0 L55 47 L96 51 Q110 53 117 56 Q124 59 128 67.5 Q132 76 132.5 91 Q133 106 133 131 L133 599 Q133 643 126 656.5 Q119 670 93 673 L56 677 L56 724 L523 724 L533 539 Z M471 931 Q457 860 418.5 819.5 Q380 779 308 779 Q236 779 197.5 820 Q159 861 145 931 L186 951 Q201 908 236 887.5 Q271 867 308 867 Q343 867 378 886.5 Q413 906 430 951 L471 931 Z " />
<glyph glyph-name="ebreve" unicode="&#x115;" horiz-adv-x="513" d="M468 56 Q425 23 379.5 6 Q334 -11 281 -11 Q223 -11 178.5 10 Q134 31 104.5 67 Q75 103 60 152 Q45 201 45 256 Q45 328 64.5 379.5 Q84 431 116 464.5 Q148 498 190 514 Q232 530 277 530 Q319 530 355 517 Q391 504 417 475.5 Q443 447 458 402.5 Q473 358 473 295 Q473 266 470 243 L143 243 Q145 157 187.5 110 Q230 63 302 63 Q344 63 375 71.5 Q406 80 443 99 L468 56 Z M379 303 Q384 388 354 430 Q324 472 270 472 Q214 472 180.5 431.5 Q147 391 142 303 L379 303 Z M264 666 Q302 666 329 689 Q356 712 379 769 L421 752 Q406 671 366.5 627 Q327 583 263 583 Q193 583 157 625 Q121 667 107 752 L147 769 Q171 709 198 687.5 Q225 666 264 666 Z " />
<glyph glyph-name="Edotaccent" unicode="&#x116;" horiz-adv-x="601" d="M533 539 L474 541 L452 613 Q445 639 431 651.5 Q417 664 387 664 L230 664 L230 398 L464 398 L464 339 L230 339 L230 60 L407 60 Q437 60 451 71.5 Q465 83 472 109 L494 190 L551 190 L540 0 L55 0 L55 47 L96 51 Q110 53 117 56 Q124 59 128 67.5 Q132 76 132.5 91 Q133 106 133 131 L133 599 Q133 643 126 656.5 Q119 670 93 673 L56 677 L56 724 L523 724 L533 539 Z M373 857 Q373 825 356 809 Q339 793 307 793 Q277 793 259.5 809 Q242 825 242 857 Q242 888 259.5 903.5 Q277 919 307 919 Q338 919 355.5 903.5 Q373 888 373 857 Z " />
<glyph glyph-name="edotaccent" unicode="&#x117;" horiz-adv-x="513" d="M468 56 Q425 23 379.5 6 Q334 -11 281 -11 Q223 -11 178.5 10 Q134 31 104.5 67 Q75 103 60 152 Q45 201 45 256 Q45 328 64.5 379.5 Q84 431 116 464.5 Q148 498 190 514 Q232 530 277 530 Q319 530 355 517 Q391 504 417 475.5 Q443 447 458 402.5 Q473 358 473 295 Q473 266 470 243 L143 243 Q145 157 187.5 110 Q230 63 302 63 Q344 63 375 71.5 Q406 80 443 99 L468 56 Z M379 303 Q384 388 354 430 Q324 472 270 472 Q214 472 180.5 431.5 Q147 391 142 303 L379 303 Z M335 692 Q335 660 318 644 Q301 628 269 628 Q239 628 221.5 644 Q204 660 204 692 Q204 723 221.5 738.5 Q239 754 269 754 Q300 754 317.5 738.5 Q335 723 335 692 Z " />
<glyph glyph-name="Eogonek" unicode="&#x118;" horiz-adv-x="601" d="M546 -195 Q526 -208 500.5 -216 Q475 -224 444 -224 Q397 -224 371 -198 Q345 -172 345 -132 Q345 -91 372 -59.5 Q399 -28 445 0 L55 0 L55 47 L96 51 Q110 53 117 56 Q124 59 128 67.5 Q132 76 132.5 91 Q133 106 133 131 L133 599 Q133 643 126 656.5 Q119 670 93 673 L56 677 L56 724 L523 724 L533 539 L474 541 L452 613 Q446 631 439 641 Q432 651 420.5 656.5 Q409 662 391.5 663 Q374 664 348 664 L230 664 L230 398 L464 398 L464 339 L230 339 L230 60 L407 60 Q437 60 451 71.5 Q465 83 472 109 L494 190 L551 190 L540 0 Q492 -19 462.5 -47.5 Q433 -76 433 -109 Q433 -132 448 -146 Q463 -160 494 -160 Q503 -160 511.5 -159 Q520 -158 535 -155 L546 -195 Z " />
<glyph glyph-name="eogonek" unicode="&#x119;" horiz-adv-x="513" d="M420 -195 Q404 -205 378.5 -214.5 Q353 -224 318 -224 Q308 -224 291.5 -221 Q275 -218 259 -208.5 Q243 -199 231 -180.5 Q219 -162 219 -132 Q219 -96 240 -65.5 Q261 -35 293 -11 Q232 -11 185.5 9 Q139 29 107.5 64 Q76 99 60.5 148.5 Q45 198 45 256 Q45 328 64.5 379.5 Q84 431 116 464.5 Q148 498 190 514 Q232 530 277 530 Q319 530 355 517 Q391 504 417 475.5 Q443 447 458 402.5 Q473 358 473 295 Q473 266 470 243 L143 243 Q145 157 187.5 110 Q230 63 302 63 Q344 63 375 71.5 Q406 80 443 99 L468 56 Q448 41 420 25.5 Q392 10 367 -9 Q342 -28 324.5 -52.5 Q307 -77 307 -109 Q307 -132 320 -144.5 Q333 -157 356 -159 Q367 -161 380.5 -159.5 Q394 -158 409 -155 L420 -195 Z M379 303 Q384 388 354 430 Q324 472 270 472 Q214 472 180.5 431.5 Q147 391 142 303 L379 303 Z " />
<glyph glyph-name="Ecaron" unicode="&#x11a;" horiz-adv-x="601" d="M533 539 L474 541 L452 613 Q445 639 431 651.5 Q417 664 387 664 L230 664 L230 398 L464 398 L464 339 L230 339 L230 60 L407 60 Q437 60 451 71.5 Q465 83 472 109 L494 190 L551 190 L540 0 L55 0 L55 47 L96 51 Q110 53 117 56 Q124 59 128 67.5 Q132 76 132.5 91 Q133 106 133 131 L133 599 Q133 643 126 656.5 Q119 670 93 673 L56 677 L56 724 L523 724 L533 539 Z M456 945 L482 906 L349 781 L273 781 L139 907 L166 945 L311 870 L456 945 Z " />
<glyph glyph-name="ecaron" unicode="&#x11b;" horiz-adv-x="513" d="M468 56 Q425 23 379.5 6 Q334 -11 281 -11 Q223 -11 178.5 10 Q134 31 104.5 67 Q75 103 60 152 Q45 201 45 256 Q45 328 64.5 379.5 Q84 431 116 464.5 Q148 498 190 514 Q232 530 277 530 Q319 530 355 517 Q391 504 417 475.5 Q443 447 458 402.5 Q473 358 473 295 Q473 266 470 243 L143 243 Q145 157 187.5 110 Q230 63 302 63 Q344 63 375 71.5 Q406 80 443 99 L468 56 Z M379 303 Q384 388 354 430 Q324 472 270 472 Q214 472 180.5 431.5 Q147 391 142 303 L379 303 Z M228 586 L109 752 L144 782 L270 670 L395 781 L429 752 L309 586 L228 586 Z " />
<glyph glyph-name="Gcircumflex" unicode="&#x11c;" horiz-adv-x="676" d="M492 209 Q492 231 491 244.5 Q490 258 486 266 Q482 274 474.5 277.5 Q467 281 454 283 L385 289 L385 336 L651 336 L651 289 L620 285 Q609 284 602.5 280 Q596 276 593 268 Q590 260 589 246.5 Q588 233 588 211 L588 36 Q537 10 481.5 -0.5 Q426 -11 373 -11 Q289 -11 227.5 15 Q166 41 125.5 89 Q85 137 65 204 Q45 271 45 353 Q45 444 68.5 515.5 Q92 587 136 636 Q180 685 243 711 Q306 737 385 737 Q426 737 460 732 Q494 727 519 720.5 Q544 714 560 708 Q576 702 581 699 L573 545 L515 550 L503 617 Q497 650 470 662 Q443 674 387 674 Q334 674 290.5 655.5 Q247 637 216 598 Q185 559 168 499.5 Q151 440 151 357 Q151 261 171 201.5 Q191 142 224 108 Q257 74 298.5 62 Q340 50 382 50 Q408 50 427.5 53 Q447 56 460 59 Q483 64 487.5 73.5 Q492 83 492 103 L492 209 Z M368 851 L223 776 L197 815 L330 940 L406 940 L540 814 L513 776 L368 851 Z " />
<glyph glyph-name="gcircumflex" unicode="&#x11d;" horiz-adv-x="503" d="M408 451 Q431 428 439.5 398 Q448 368 448 345 Q448 302 432 270 Q416 238 388.5 216 Q361 194 325 183 Q289 172 249 172 Q226 172 206 174.5 Q186 177 175 180 L139 97 L331 88 Q365 87 394 80 Q423 73 444 58.5 Q465 44 477 22 Q489 0 489 -33 Q489 -75 468 -105.5 Q447 -136 411.5 -155.5 Q376 -175 328 -184 Q280 -193 226 -193 Q201 -193 166 -189 Q131 -185 99.5 -173 Q68 -161 46 -138 Q24 -115 24 -77 Q24 -51 39.5 -24.5 Q55 2 94 27 Q73 34 64 45.5 Q55 57 55 74 Q55 91 62 103.5 Q69 116 82 136 L127 199 Q91 218 67.5 253.5 Q44 289 44 340 Q44 389 62 425 Q80 461 108.5 484 Q137 507 172 518.5 Q207 530 242 530 Q277 530 304.5 523 Q332 516 346 508 L469 517 L476 467 L408 451 Z M358 348 Q358 414 328.5 442 Q299 470 248 470 Q196 470 165 440 Q134 410 134 351 Q134 315 143 292 Q152 269 167 255.5 Q182 242 202 237 Q222 232 244 232 Q295 232 326.5 258.5 Q358 285 358 348 Z M402 -51 Q402 -20 380 -7 Q358 6 305 9 L150 16 Q136 2 123 -17.5 Q110 -37 110 -61 Q110 -92 142 -109.5 Q174 -127 246 -127 Q268 -127 295 -124.5 Q322 -122 346 -113.5 Q370 -105 386 -90 Q402 -75 402 -51 Z M284 768 L406 601 L369 571 L243 681 L117 568 L80 598 L204 768 L284 768 Z " />
<glyph glyph-name="Gbreve" unicode="&#x11e;" horiz-adv-x="676" d="M492 209 Q492 231 491 244.5 Q490 258 486 266 Q482 274 474.5 277.5 Q467 281 454 283 L385 289 L385 336 L651 336 L651 289 L620 285 Q609 284 602.5 280 Q596 276 593 268 Q590 260 589 246.5 Q588 233 588 211 L588 36 Q537 10 481.5 -0.5 Q426 -11 373 -11 Q289 -11 227.5 15 Q166 41 125.5 89 Q85 137 65 204 Q45 271 45 353 Q45 444 68.5 515.5 Q92 587 136 636 Q180 685 243 711 Q306 737 385 737 Q426 737 460 732 Q494 727 519 720.5 Q544 714 560 708 Q576 702 581 699 L573 545 L515 550 L503 617 Q497 650 470 662 Q443 674 387 674 Q334 674 290.5 655.5 Q247 637 216 598 Q185 559 168 499.5 Q151 440 151 357 Q151 261 171 201.5 Q191 142 224 108 Q257 74 298.5 62 Q340 50 382 50 Q408 50 427.5 53 Q447 56 460 59 Q483 64 487.5 73.5 Q492 83 492 103 L492 209 Z M536 931 Q522 860 483.5 819.5 Q445 779 373 779 Q301 779 262.5 820 Q224 861 210 931 L251 951 Q266 908 301 887.5 Q336 867 373 867 Q408 867 443 886.5 Q478 906 495 951 L536 931 Z " />
<glyph glyph-name="gbreve" unicode="&#x11f;" horiz-adv-x="503" d="M408 451 Q431 428 439.5 398 Q448 368 448 345 Q448 302 432 270 Q416 238 388.5 216 Q361 194 325 183 Q289 172 249 172 Q226 172 206 174.5 Q186 177 175 180 L139 97 L331 88 Q365 87 394 80 Q423 73 444 58.5 Q465 44 477 22 Q489 0 489 -33 Q489 -75 468 -105.5 Q447 -136 411.5 -155.5 Q376 -175 328 -184 Q280 -193 226 -193 Q201 -193 166 -189 Q131 -185 99.5 -173 Q68 -161 46 -138 Q24 -115 24 -77 Q24 -51 39.5 -24.5 Q55 2 94 27 Q73 34 64 45.5 Q55 57 55 74 Q55 91 62 103.5 Q69 116 82 136 L127 199 Q91 218 67.5 253.5 Q44 289 44 340 Q44 389 62 425 Q80 461 108.5 484 Q137 507 172 518.5 Q207 530 242 530 Q277 530 304.5 523 Q332 516 346 508 L469 517 L476 467 L408 451 Z M358 348 Q358 414 328.5 442 Q299 470 248 470 Q196 470 165 440 Q134 410 134 351 Q134 315 143 292 Q152 269 167 255.5 Q182 242 202 237 Q222 232 244 232 Q295 232 326.5 258.5 Q358 285 358 348 Z M402 -51 Q402 -20 380 -7 Q358 6 305 9 L150 16 Q136 2 123 -17.5 Q110 -37 110 -61 Q110 -92 142 -109.5 Q174 -127 246 -127 Q268 -127 295 -124.5 Q322 -122 346 -113.5 Q370 -105 386 -90 Q402 -75 402 -51 Z M243 666 Q281 666 308 689 Q335 712 358 769 L400 752 Q385 671 345.5 627 Q306 583 242 583 Q172 583 136 625 Q100 667 86 752 L126 769 Q150 709 177 687.5 Q204 666 243 666 Z " />
<glyph glyph-name="Gdotaccent" unicode="&#x120;" horiz-adv-x="676" d="M492 209 Q492 231 491 244.5 Q490 258 486 266 Q482 274 474.5 277.5 Q467 281 454 283 L385 289 L385 336 L651 336 L651 289 L620 285 Q609 284 602.5 280 Q596 276 593 268 Q590 260 589 246.5 Q588 233 588 211 L588 36 Q537 10 481.5 -0.5 Q426 -11 373 -11 Q289 -11 227.5 15 Q166 41 125.5 89 Q85 137 65 204 Q45 271 45 353 Q45 444 68.5 515.5 Q92 587 136 636 Q180 685 243 711 Q306 737 385 737 Q426 737 460 732 Q494 727 519 720.5 Q544 714 560 708 Q576 702 581 699 L573 545 L515 550 L503 617 Q497 650 470 662 Q443 674 387 674 Q334 674 290.5 655.5 Q247 637 216 598 Q185 559 168 499.5 Q151 440 151 357 Q151 261 171 201.5 Q191 142 224 108 Q257 74 298.5 62 Q340 50 382 50 Q408 50 427.5 53 Q447 56 460 59 Q483 64 487.5 73.5 Q492 83 492 103 L492 209 Z M432 857 Q432 825 415 809 Q398 793 366 793 Q336 793 318.5 809 Q301 825 301 857 Q301 888 318.5 903.5 Q336 919 366 919 Q397 919 414.5 903.5 Q432 888 432 857 Z " />
<glyph glyph-name="gdotaccent" unicode="&#x121;" horiz-adv-x="503" d="M408 451 Q431 428 439.5 398 Q448 368 448 345 Q448 302 432 270 Q416 238 388.5 216 Q361 194 325 183 Q289 172 249 172 Q226 172 206 174.5 Q186 177 175 180 L139 97 L331 88 Q365 87 394 80 Q423 73 444 58.5 Q465 44 477 22 Q489 0 489 -33 Q489 -75 468 -105.5 Q447 -136 411.5 -155.5 Q376 -175 328 -184 Q280 -193 226 -193 Q201 -193 166 -189 Q131 -185 99.5 -173 Q68 -161 46 -138 Q24 -115 24 -77 Q24 -51 39.5 -24.5 Q55 2 94 27 Q73 34 64 45.5 Q55 57 55 74 Q55 91 62 103.5 Q69 116 82 136 L127 199 Q91 218 67.5 253.5 Q44 289 44 340 Q44 389 62 425 Q80 461 108.5 484 Q137 507 172 518.5 Q207 530 242 530 Q277 530 304.5 523 Q332 516 346 508 L469 517 L476 467 L408 451 Z M358 348 Q358 414 328.5 442 Q299 470 248 470 Q196 470 165 440 Q134 410 134 351 Q134 315 143 292 Q152 269 167 255.5 Q182 242 202 237 Q222 232 244 232 Q295 232 326.5 258.5 Q358 285 358 348 Z M402 -51 Q402 -20 380 -7 Q358 6 305 9 L150 16 Q136 2 123 -17.5 Q110 -37 110 -61 Q110 -92 142 -109.5 Q174 -127 246 -127 Q268 -127 295 -124.5 Q322 -122 346 -113.5 Q370 -105 386 -90 Q402 -75 402 -51 Z M313 692 Q313 660 296 644 Q279 628 247 628 Q217 628 199.5 644 Q182 660 182 692 Q182 723 199.5 738.5 Q217 754 247 754 Q278 754 295.5 738.5 Q313 723 313 692 Z " />
<glyph glyph-name="Gcommaaccent" unicode="&#x122;" horiz-adv-x="676" d="M492 209 Q492 231 491 244.5 Q490 258 486 266 Q482 274 474.5 277.5 Q467 281 454 283 L385 289 L385 336 L651 336 L651 289 L620 285 Q609 284 602.5 280 Q596 276 593 268 Q590 260 589 246.5 Q588 233 588 211 L588 36 Q537 10 481.5 -0.5 Q426 -11 373 -11 Q289 -11 227.5 15 Q166 41 125.5 89 Q85 137 65 204 Q45 271 45 353 Q45 444 68.5 515.5 Q92 587 136 636 Q180 685 243 711 Q306 737 385 737 Q426 737 460 732 Q494 727 519 720.5 Q544 714 560 708 Q576 702 581 699 L573 545 L515 550 L503 617 Q497 650 470 662 Q443 674 387 674 Q334 674 290.5 655.5 Q247 637 216 598 Q185 559 168 499.5 Q151 440 151 357 Q151 261 171 201.5 Q191 142 224 108 Q257 74 298.5 62 Q340 50 382 50 Q408 50 427.5 53 Q447 56 460 59 Q483 64 487.5 73.5 Q492 83 492 103 L492 209 Z M422 -128 Q422 -147 416.5 -169 Q411 -191 399 -213.5 Q387 -236 368 -257 Q349 -278 322 -294 L299 -266 Q322 -247 333.5 -227 Q345 -207 349 -180 Q318 -178 303 -162 Q288 -146 288 -120 Q288 -59 355 -59 Q384 -59 403 -74.5 Q422 -90 422 -128 Z " />
<glyph glyph-name="gcommaaccent" unicode="&#x123;" horiz-adv-x="503" d="M408 451 Q431 428 439.5 398 Q448 368 448 345 Q448 302 432 270 Q416 238 388.5 216 Q361 194 325 183 Q289 172 249 172 Q226 172 206 174.5 Q186 177 175 180 L139 97 L331 88 Q365 87 394 80 Q423 73 444 58.5 Q465 44 477 22 Q489 0 489 -33 Q489 -75 468 -105.5 Q447 -136 411.5 -155.5 Q376 -175 328 -184 Q280 -193 226 -193 Q201 -193 166 -189 Q131 -185 99.5 -173 Q68 -161 46 -138 Q24 -115 24 -77 Q24 -51 39.5 -24.5 Q55 2 94 27 Q73 34 64 45.5 Q55 57 55 74 Q55 91 62 103.5 Q69 116 82 136 L127 199 Q91 218 67.5 253.5 Q44 289 44 340 Q44 389 62 425 Q80 461 108.5 484 Q137 507 172 518.5 Q207 530 242 530 Q277 530 304.5 523 Q332 516 346 508 L469 517 L476 467 L408 451 Z M358 348 Q358 414 328.5 442 Q299 470 248 470 Q196 470 165 440 Q134 410 134 351 Q134 315 143 292 Q152 269 167 255.5 Q182 242 202 237 Q222 232 244 232 Q295 232 326.5 258.5 Q358 285 358 348 Z M402 -51 Q402 -20 380 -7 Q358 6 305 9 L150 16 Q136 2 123 -17.5 Q110 -37 110 -61 Q110 -92 142 -109.5 Q174 -127 246 -127 Q268 -127 295 -124.5 Q322 -122 346 -113.5 Q370 -105 386 -90 Q402 -75 402 -51 Z M179 647 Q179 666 184.5 688 Q190 710 202 732.5 Q214 755 233 776 Q252 797 279 813 L302 785 Q279 766 267.5 746 Q256 726 252 699 Q283 697 298 681 Q313 665 313 639 Q313 578 246 578 Q217 578 198 593.5 Q179 609 179 647 Z " />
<glyph glyph-name="Hcircumflex" unicode="&#x124;" horiz-adv-x="780" d="M229 398 L551 398 L551 594 Q551 618 550 633 Q549 648 545.5 656.5 Q542 665 535 668.5 Q528 672 516 673 L476 677 L476 724 L725 724 L725 677 L685 673 Q672 672 664.5 669 Q657 666 653 658.5 Q649 651 648 637.5 Q647 624 647 601 L647 131 Q647 107 648.5 92 Q650 77 654 69 Q658 61 666 57.5 Q674 54 687 52 L724 47 L724 0 L478 0 L478 47 L519 52 Q540 54 545.5 68 Q551 82 551 125 L551 339 L229 339 L229 131 Q229 107 229.5 92 Q230 77 233.5 68.5 Q237 60 244 57 Q251 54 264 52 L304 47 L304 0 L55 0 L55 47 L95 52 Q108 54 115.5 56.5 Q123 59 127 67 Q131 75 132 90 Q133 105 133 130 L133 600 Q133 644 125.5 657 Q118 670 93 673 L56 677 L56 724 L302 724 L302 677 L261 673 Q239 671 234 657.5 Q229 644 229 600 L229 398 Z M390 851 L245 776 L219 815 L352 940 L428 940 L562 814 L535 776 L390 851 Z " />
<glyph glyph-name="hcircumflex" unicode="&#x125;" horiz-adv-x="627" d="M200 127 Q200 103 200.5 88 Q201 73 204.5 64 Q208 55 215 51.5 Q222 48 235 46 L263 42 L263 0 L39 0 L39 43 L71 47 Q84 49 92 52 Q100 55 104 63.5 Q108 72 109.5 87 Q111 102 111 127 L111 614 Q111 649 100 662.5 Q89 676 62 681 L33 686 L39 727 L178 745 L200 733 L200 455 Q233 485 274 507.5 Q315 530 372 530 Q405 530 433 521 Q461 512 481.5 491 Q502 470 513.5 435 Q525 400 525 349 L525 127 Q525 103 526.5 88 Q528 73 532 64.5 Q536 56 544 52.5 Q552 49 565 47 L600 42 L600 0 L374 0 L374 42 L403 46 Q426 49 431 63.5 Q436 78 436 121 L436 341 Q436 395 412.5 424 Q389 453 338 453 Q303 453 267.5 440 Q232 427 200 407 L200 127 Z M130 851 L-15 776 L-41 815 L92 940 L168 940 L302 814 L275 776 L130 851 Z " />
<glyph glyph-name="Hbar" unicode="&#x126;" horiz-adv-x="780" d="M229 566 L551 566 L551 594 Q551 618 550 633 Q549 648 545.5 656.5 Q542 665 535 668.5 Q528 672 516 673 L476 677 L476 724 L725 724 L725 677 L685 673 Q672 672 664.5 669 Q657 666 653 658.5 Q649 651 648 637.5 Q647 624 647 601 L647 566 L726 566 L726 506 L647 506 L647 131 Q647 107 648.5 92 Q650 77 654 69 Q658 61 666 57.5 Q674 54 687 52 L724 47 L724 0 L478 0 L478 47 L519 52 Q540 54 545.5 68 Q551 82 551 125 L551 339 L229 339 L229 131 Q229 107 229.5 92 Q230 77 233.5 68.5 Q237 60 244 57 Q251 54 264 52 L304 47 L304 0 L55 0 L55 47 L95 52 Q108 54 115.5 56.5 Q123 59 127 67 Q131 75 132 90 Q133 105 133 130 L133 506 L55 506 L55 566 L133 566 L133 600 Q133 644 125.5 657 Q118 670 93 673 L56 677 L56 724 L302 724 L302 677 L261 673 Q239 671 234 657.5 Q229 644 229 600 L229 566 Z M551 398 L551 506 L229 506 L229 398 L551 398 Z " />
<glyph glyph-name="hbar" unicode="&#x127;" horiz-adv-x="627" d="M200 127 Q200 103 200.5 88 Q201 73 204.5 64 Q208 55 215 51.5 Q222 48 235 46 L263 42 L263 0 L39 0 L39 43 L71 47 Q84 49 92 52 Q100 55 104 63.5 Q108 72 109.5 87 Q111 102 111 127 L111 581 L27 581 L27 632 L110 632 Q108 656 96.5 666.5 Q85 677 62 681 L33 686 L39 727 L178 745 L200 733 L200 632 L336 632 L336 581 L200 581 L200 455 Q233 485 274 507.5 Q315 530 372 530 Q405 530 433 521 Q461 512 481.5 491 Q502 470 513.5 435 Q525 400 525 349 L525 127 Q525 103 526.5 88 Q528 73 532 64.5 Q536 56 544 52.5 Q552 49 565 47 L600 42 L600 0 L374 0 L374 42 L403 46 Q426 49 431 63.5 Q436 78 436 121 L436 341 Q436 395 412.5 424 Q389 453 338 453 Q303 453 267.5 440 Q232 427 200 407 L200 127 Z " />
<glyph glyph-name="Itilde" unicode="&#x128;" horiz-adv-x="362" d="M229 131 Q229 107 229.5 92 Q230 77 233.5 68.5 Q237 60 244 56.5 Q251 53 264 52 L304 47 L304 0 L55 0 L55 47 L95 52 Q108 53 115.5 56 Q123 59 127 67 Q131 75 132 90 Q133 105 133 130 L133 600 Q133 622 131.5 635.5 Q130 649 126 657 Q122 665 114 668.5 Q106 672 93 673 L56 677 L56 724 L302 724 L302 677 L261 673 Q239 671 234 657.5 Q229 644 229 600 L229 131 Z M92 903 Q100 903 126.5 897 Q153 891 182.5 883.5 Q212 876 237 869.5 Q262 863 266 863 Q276 863 284.5 869 Q293 875 311 901 L348 881 Q337 849 326 829 Q315 809 304.5 797.5 Q294 786 284.5 781.5 Q275 777 266 777 Q260 777 235 783.5 Q210 790 180.5 797.5 Q151 805 125.5 811.5 Q100 818 92 818 Q84 818 74.5 812 Q65 806 46 783 L11 801 Q34 855 52.5 879 Q71 903 92 903 Z " />
<glyph glyph-name="itilde" unicode="&#x129;" horiz-adv-x="316" d="M208 127 Q208 103 209 87.5 Q210 72 214 63.5 Q218 55 224.5 51.5 Q231 48 243 47 L279 43 L279 0 L47 0 L47 43 L79 47 Q92 49 100 52 Q108 55 112 63.5 Q116 72 117.5 87 Q119 102 119 127 L119 395 Q119 430 107.5 442.5 Q96 455 70 460 L41 465 L47 506 L193 524 L208 517 L208 127 Z M56 742 Q64 742 90.5 736 Q117 730 146.5 722.5 Q176 715 201 708.5 Q226 702 230 702 Q240 702 248.5 708 Q257 714 275 740 L312 720 Q301 688 290 668 Q279 648 268.5 636.5 Q258 625 248.5 620.5 Q239 616 230 616 Q224 616 199 622.5 Q174 629 144.5 636.5 Q115 644 89.5 650.5 Q64 657 56 657 Q48 657 38.5 651 Q29 645 10 622 L-25 640 Q-2 694 16.5 718 Q35 742 56 742 Z " />
<glyph glyph-name="Imacron" unicode="&#x12a;" horiz-adv-x="362" d="M229 131 Q229 107 229.5 92 Q230 77 233.5 68.5 Q237 60 244 56.5 Q251 53 264 52 L304 47 L304 0 L55 0 L55 47 L95 52 Q108 53 115.5 56 Q123 59 127 67 Q131 75 132 90 Q133 105 133 130 L133 600 Q133 622 131.5 635.5 Q130 649 126 657 Q122 665 114 668.5 Q106 672 93 673 L56 677 L56 724 L302 724 L302 677 L261 673 Q239 671 234 657.5 Q229 644 229 600 L229 131 Z M26 892 L335 892 L335 815 L26 815 L26 892 Z " />
<glyph glyph-name="imacron" unicode="&#x12b;" horiz-adv-x="316" d="M10 706 L279 706 L279 628 L10 628 L10 706 Z M208 127 Q208 103 209 87.5 Q210 72 214 63.5 Q218 55 224.5 51.5 Q231 48 243 47 L279 43 L279 0 L47 0 L47 43 L79 47 Q92 49 100 52 Q108 55 112 63.5 Q116 72 117.5 87 Q119 102 119 127 L119 395 Q119 430 107.5 442.5 Q96 455 70 460 L41 465 L47 506 L193 524 L208 517 L208 127 Z " />
<glyph glyph-name="Ibreve" unicode="&#x12c;" horiz-adv-x="362" d="M229 131 Q229 107 229.5 92 Q230 77 233.5 68.5 Q237 60 244 56.5 Q251 53 264 52 L304 47 L304 0 L55 0 L55 47 L95 52 Q108 53 115.5 56 Q123 59 127 67 Q131 75 132 90 Q133 105 133 130 L133 600 Q133 622 131.5 635.5 Q130 649 126 657 Q122 665 114 668.5 Q106 672 93 673 L56 677 L56 724 L302 724 L302 677 L261 673 Q239 671 234 657.5 Q229 644 229 600 L229 131 Z M343 931 Q329 860 290.5 819.5 Q252 779 180 779 Q108 779 69.5 820 Q31 861 17 931 L58 951 Q73 908 108 887.5 Q143 867 180 867 Q215 867 250 886.5 Q285 906 302 951 L343 931 Z " />
<glyph glyph-name="ibreve" unicode="&#x12d;" horiz-adv-x="316" d="M145 666 Q183 666 210 689 Q237 712 260 769 L302 752 Q287 671 247.5 627 Q208 583 144 583 Q74 583 38 625 Q2 667 -12 752 L28 769 Q52 709 79 687.5 Q106 666 145 666 Z M208 127 Q208 103 209 87.5 Q210 72 214 63.5 Q218 55 224.5 51.5 Q231 48 243 47 L279 43 L279 0 L47 0 L47 43 L79 47 Q92 49 100 52 Q108 55 112 63.5 Q116 72 117.5 87 Q119 102 119 127 L119 395 Q119 430 107.5 442.5 Q96 455 70 460 L41 465 L47 506 L193 524 L208 517 L208 127 Z " />
<glyph glyph-name="Iogonek" unicode="&#x12e;" horiz-adv-x="362" d="M274 -195 Q258 -205 232.5 -214.5 Q207 -224 172 -224 Q162 -224 145 -221 Q128 -218 112 -208.5 Q96 -199 84.5 -180.5 Q73 -162 73 -132 Q73 -91 98.5 -58.5 Q124 -26 163 0 L55 0 L55 47 L95 52 Q108 53 115.5 56 Q123 59 127 67 Q131 75 132 90 Q133 105 133 130 L133 600 Q133 622 131.5 635.5 Q130 649 126 657 Q122 665 114 668.5 Q106 672 93 673 L56 677 L56 724 L302 724 L302 677 L261 673 Q239 671 234 657.5 Q229 644 229 600 L229 131 Q229 107 229.5 92 Q230 77 233.5 68.5 Q237 60 244 56.5 Q251 53 264 52 L304 47 L304 0 L237 0 Q224 -11 210 -22 Q196 -33 185.5 -46.5 Q175 -60 168 -75.5 Q161 -91 161 -109 Q161 -144 190 -155 Q217 -166 263 -155 L274 -195 Z " />
<glyph glyph-name="iogonek" unicode="&#x12f;" horiz-adv-x="316" d="M264 -195 Q248 -205 222.5 -214.5 Q197 -224 162 -224 Q152 -224 135 -221 Q118 -218 102 -208.5 Q86 -199 74.5 -180.5 Q63 -162 63 -132 Q63 -91 88.5 -58.5 Q114 -26 153 0 L47 0 L47 43 L79 47 Q92 49 100 52 Q108 55 112 63.5 Q116 72 117.5 87 Q119 102 119 127 L119 395 Q119 430 107.5 442.5 Q96 455 70 460 L41 465 L47 506 L193 524 L208 517 L208 127 Q208 103 209 87.5 Q210 72 214 63.5 Q218 55 224.5 51.5 Q231 48 243 47 L279 43 L279 0 L227 0 Q214 -11 200 -22 Q186 -33 175.5 -46.5 Q165 -60 158 -75.5 Q151 -91 151 -109 Q151 -144 180 -155 Q207 -166 253 -155 L264 -195 Z M216 692 Q216 660 199 644 Q182 628 150 628 Q120 628 102.5 644 Q85 660 85 692 Q85 723 102.5 738.5 Q120 754 150 754 Q181 754 198.5 738.5 Q216 723 216 692 Z " />
<glyph glyph-name="Idotaccent" unicode="&#x130;" horiz-adv-x="362" d="M229 131 Q229 107 229.5 92 Q230 77 233.5 68.5 Q237 60 244 56.5 Q251 53 264 52 L304 47 L304 0 L55 0 L55 47 L95 52 Q108 53 115.5 56 Q123 59 127 67 Q131 75 132 90 Q133 105 133 130 L133 600 Q133 622 131.5 635.5 Q130 649 126 657 Q122 665 114 668.5 Q106 672 93 673 L56 677 L56 724 L302 724 L302 677 L261 673 Q239 671 234 657.5 Q229 644 229 600 L229 131 Z M247 857 Q247 825 230 809 Q213 793 181 793 Q151 793 133.5 809 Q116 825 116 857 Q116 888 133.5 903.5 Q151 919 181 919 Q212 919 229.5 903.5 Q247 888 247 857 Z " />
<glyph glyph-name="dotlessi" unicode="&#x131;" horiz-adv-x="316" d="M208 127 Q208 103 209 87.5 Q210 72 214 63.5 Q218 55 224.5 51.5 Q231 48 243 47 L279 43 L279 0 L47 0 L47 43 L79 47 Q92 49 100 52 Q108 55 112 63.5 Q116 72 117.5 87 Q119 102 119 127 L119 395 Q119 430 107.5 442.5 Q96 455 70 460 L41 465 L47 506 L193 524 L208 517 L208 127 Z " />
<glyph glyph-name="IJ" unicode="&#x132;" horiz-adv-x="811" d="M229 131 Q229 107 229.5 92 Q230 77 233.5 68.5 Q237 60 244 56.5 Q251 53 264 52 L304 47 L304 0 L55 0 L55 47 L95 52 Q108 53 115.5 56 Q123 59 127 67 Q131 75 132 90 Q133 105 133 130 L133 600 Q133 622 131.5 635.5 Q130 649 126 657 Q122 665 114 668.5 Q106 672 93 673 L56 677 L56 724 L302 724 L302 677 L261 673 Q239 671 234 657.5 Q229 644 229 600 L229 131 Z M365 162 L435 162 L443 117 Q449 83 463 66.5 Q477 50 520 50 Q563 50 585.5 71 Q608 92 608 156 L608 597 Q608 619 606.5 632.5 Q605 646 600.5 654 Q596 662 588.5 665.5 Q581 669 568 671 L509 676 L509 724 L781 724 L781 677 L742 674 Q719 672 711.5 658 Q704 644 704 600 L704 168 Q704 114 690.5 79.5 Q677 45 653 24.5 Q629 4 595.5 -4 Q562 -12 523 -12 Q476 -12 436 -1.5 Q396 9 378 21 L365 162 Z " />
<glyph glyph-name="ij" unicode="&#x133;" horiz-adv-x="600" d="M216 692 Q216 660 199 644 Q182 628 150 628 Q120 628 102.5 644 Q85 660 85 692 Q85 723 102.5 738.5 Q120 754 150 754 Q181 754 198.5 738.5 Q216 723 216 692 Z M208 127 Q208 103 209 87.5 Q210 72 214 63.5 Q218 55 224.5 51.5 Q231 48 243 47 L279 43 L279 0 L47 0 L47 43 L79 47 Q92 49 100 52 Q108 55 112 63.5 Q116 72 117.5 87 Q119 102 119 127 L119 395 Q119 430 107.5 442.5 Q96 455 70 460 L41 465 L47 506 L193 524 L208 517 L208 127 Z M505 129 Q505 66 498 19.5 Q491 -27 473 -63 Q455 -99 423.5 -129 Q392 -159 343 -189 L315 -149 Q337 -133 355 -111.5 Q373 -90 386.5 -61 Q400 -32 407.5 6 Q415 44 415 93 L415 395 Q415 430 404 442.5 Q393 455 367 460 L338 465 L344 506 L490 524 L505 517 L505 129 Z M521 692 Q521 660 504 644 Q487 628 455 628 Q425 628 407.5 644 Q390 660 390 692 Q390 723 407.5 738.5 Q425 754 455 754 Q486 754 503.5 738.5 Q521 723 521 692 Z " />
<glyph glyph-name="Jcircumflex" unicode="&#x134;" horiz-adv-x="486" d="M40 162 L110 162 L118 117 Q124 83 138 66.5 Q152 50 195 50 Q238 50 260.5 71 Q283 92 283 156 L283 597 Q283 619 281.5 632.5 Q280 646 275.5 654 Q271 662 263.5 665.5 Q256 669 243 671 L184 676 L184 724 L456 724 L456 677 L417 674 Q394 672 386.5 658 Q379 644 379 600 L379 168 Q379 114 365.5 79.5 Q352 45 328 24.5 Q304 4 270.5 -4 Q237 -12 198 -12 Q151 -12 111 -1.5 Q71 9 53 21 L40 162 Z M319 851 L174 776 L148 815 L281 940 L357 940 L491 814 L464 776 L319 851 Z " />
<glyph glyph-name="jcircumflex" unicode="&#x135;" horiz-adv-x="285" d="M200 129 Q200 66 193 19.5 Q186 -27 168 -63 Q150 -99 118.5 -129 Q87 -159 38 -189 L10 -149 Q32 -133 50 -111.5 Q68 -90 81.5 -61 Q95 -32 102.5 6 Q110 44 110 93 L110 395 Q110 430 99 442.5 Q88 455 62 460 L33 465 L39 506 L185 524 L200 517 L200 129 Z M174 768 L296 601 L259 571 L133 681 L7 568 L-30 598 L94 768 L174 768 Z " />
<glyph glyph-name="Kcommaaccent" unicode="&#x136;" horiz-adv-x="721" d="M230 363 L506 666 L506 669 L444 677 L444 724 L653 724 L653 677 L619 674 Q591 670 577 654 Q563 638 545 620 L373 431 L574 134 Q592 107 604 91 Q616 75 626 67 Q636 59 645.5 56 Q655 53 667 51 L694 48 L694 0 L442 0 L442 48 L510 55 L510 59 L306 361 L230 277 L230 129 Q230 105 230.5 90 Q231 75 234 66.5 Q237 58 244.5 54.5 Q252 51 265 50 L305 47 L305 0 L55 0 L55 48 L95 51 Q109 52 116.5 55.5 Q124 59 127.5 67 Q131 75 132 90.5 Q133 106 133 131 L133 601 Q133 623 131.5 636.5 Q130 650 125.5 658 Q121 666 113.5 669.5 Q106 673 93 674 L56 677 L56 724 L303 724 L303 677 L262 674 Q240 672 235 658 Q230 644 230 600 L230 363 Z M419 -128 Q419 -147 413.5 -169 Q408 -191 396 -213.5 Q384 -236 365 -257 Q346 -278 319 -294 L296 -266 Q319 -247 330.5 -227 Q342 -207 346 -180 Q315 -178 300 -162 Q285 -146 285 -120 Q285 -59 352 -59 Q381 -59 400 -74.5 Q419 -90 419 -128 Z " />
<glyph glyph-name="kcommaaccent" unicode="&#x137;" horiz-adv-x="585" d="M200 292 L396 462 L396 466 L330 472 L338 519 L541 519 L541 474 L521 472 Q501 470 485 460.5 Q469 451 444 431 L329 330 L463 117 Q486 78 503.5 65 Q521 52 542 47 L560 43 L560 0 L426 0 L342 134 L258 268 L200 218 L200 127 Q200 103 201 87.5 Q202 72 206 63.5 Q210 55 216.5 51.5 Q223 48 235 47 L271 43 L271 0 L39 0 L39 43 L71 47 Q84 49 92 52 Q100 55 104 63.5 Q108 72 109.5 87 Q111 102 111 127 L111 614 Q111 648 99.5 662 Q88 676 62 681 L33 686 L39 727 L178 745 L200 733 L200 292 Z M357 -128 Q357 -147 351.5 -169 Q346 -191 334 -213.5 Q322 -236 303 -257 Q284 -278 257 -294 L234 -266 Q257 -247 268.5 -227 Q280 -207 284 -180 Q253 -178 238 -162 Q223 -146 223 -120 Q223 -59 290 -59 Q319 -59 338 -74.5 Q357 -90 357 -128 Z " />
<glyph glyph-name="kgreenlandic" unicode="&#x138;" horiz-adv-x="585" d="M200 269 L396 462 L396 466 L330 472 L338 519 L541 519 L541 474 L521 472 Q501 470 485 460.5 Q469 451 444 431 L333 319 L463 117 Q486 78 503.5 65 Q521 52 542 47 L560 43 L560 0 L426 0 L335 142 L263 256 L200 195 L200 127 Q200 103 201 87.5 Q202 72 206 63.5 Q210 55 216.5 51.5 Q223 48 235 47 L271 43 L271 0 L39 0 L39 43 L71 47 Q84 49 92 52 Q100 55 104 63.5 Q108 72 109.5 87 Q111 102 111 127 L111 393 Q111 428 100 441.5 Q89 455 62 460 L33 465 L39 506 L178 524 L200 512 L200 269 Z " />
<glyph glyph-name="Lacute" unicode="&#x139;" horiz-adv-x="585" d="M229 60 L404 60 Q434 60 449.5 69.5 Q465 79 473 107 L496 202 L555 202 L541 0 L55 0 L55 48 L95 52 Q108 54 115.5 56.5 Q123 59 127 67 Q131 75 132 90 Q133 105 133 130 L133 600 Q133 622 131.5 635.5 Q130 649 126 657 Q122 665 114 668.5 Q106 672 93 673 L56 677 L56 724 L322 724 L322 677 L267 672 Q242 670 235.5 656 Q229 642 229 598 L229 60 Z M104 776 L85 811 L260 948 L328 882 L328 863 L104 776 Z " />
<glyph glyph-name="lacute" unicode="&#x13a;" horiz-adv-x="313" d="M205 127 Q205 103 206 87.5 Q207 72 211 63.5 Q215 55 221.5 51.5 Q228 48 240 47 L276 43 L276 0 L44 0 L44 43 L76 47 Q89 49 97 52 Q105 55 109 63.5 Q113 72 114.5 87 Q116 102 116 127 L116 614 Q116 649 105 662.5 Q94 676 67 681 L38 686 L44 727 L183 745 L205 733 L205 127 Z M68 796 L49 831 L224 968 L292 902 L292 883 L68 796 Z " />
<glyph glyph-name="Lcommaaccent" unicode="&#x13b;" horiz-adv-x="585" d="M229 60 L404 60 Q434 60 449.5 69.5 Q465 79 473 107 L496 202 L555 202 L541 0 L55 0 L55 48 L95 52 Q108 54 115.5 56.5 Q123 59 127 67 Q131 75 132 90 Q133 105 133 130 L133 600 Q133 622 131.5 635.5 Q130 649 126 657 Q122 665 114 668.5 Q106 672 93 673 L56 677 L56 724 L322 724 L322 677 L267 672 Q242 670 235.5 656 Q229 642 229 598 L229 60 Z M380 -128 Q380 -147 374.5 -169 Q369 -191 357 -213.5 Q345 -236 326 -257 Q307 -278 280 -294 L257 -266 Q280 -247 291.5 -227 Q303 -207 307 -180 Q276 -178 261 -162 Q246 -146 246 -120 Q246 -59 313 -59 Q342 -59 361 -74.5 Q380 -90 380 -128 Z " />
<glyph glyph-name="lcommaaccent" unicode="&#x13c;" horiz-adv-x="313" d="M205 127 Q205 103 206 87.5 Q207 72 211 63.5 Q215 55 221.5 51.5 Q228 48 240 47 L276 43 L276 0 L44 0 L44 43 L76 47 Q89 49 97 52 Q105 55 109 63.5 Q113 72 114.5 87 Q116 102 116 127 L116 614 Q116 649 105 662.5 Q94 676 67 681 L38 686 L44 727 L183 745 L205 733 L205 127 Z M223 -128 Q223 -147 217.5 -169 Q212 -191 200 -213.5 Q188 -236 169 -257 Q150 -278 123 -294 L100 -266 Q123 -247 134.5 -227 Q146 -207 150 -180 Q119 -178 104 -162 Q89 -146 89 -120 Q89 -59 156 -59 Q185 -59 204 -74.5 Q223 -90 223 -128 Z " />
<glyph glyph-name="Lcaron" unicode="&#x13d;" horiz-adv-x="585" d="M229 60 L404 60 Q434 60 449.5 69.5 Q465 79 473 107 L496 202 L555 202 L541 0 L55 0 L55 48 L95 52 Q108 54 115.5 56.5 Q123 59 127 67 Q131 75 132 90 Q133 105 133 130 L133 600 Q133 622 131.5 635.5 Q130 649 126 657 Q122 665 114 668.5 Q106 672 93 673 L56 677 L56 724 L322 724 L322 677 L267 672 Q242 670 235.5 656 Q229 642 229 598 L229 60 Z M375 531 Q383 563 387 595 Q391 627 391 653 Q391 676 389 701 Q387 726 380 748 L461 767 L477 764 Q479 757 480 746 Q481 735 481 726 Q481 674 460.5 620 Q440 566 414 518 L375 531 Z " />
<glyph glyph-name="lcaron" unicode="&#x13e;" horiz-adv-x="363" d="M205 127 Q205 103 206 87.5 Q207 72 211 63.5 Q215 55 221.5 51.5 Q228 48 240 47 L276 43 L276 0 L44 0 L44 43 L76 47 Q89 49 97 52 Q105 55 109 63.5 Q113 72 114.5 87 Q116 102 116 127 L116 614 Q116 649 105 662.5 Q94 676 67 681 L38 686 L44 727 L183 745 L205 733 L205 127 Z M267 529 Q275 561 279 593 Q283 625 283 651 Q283 674 281 699 Q279 724 272 746 L353 765 L369 762 Q371 755 372 744 Q373 733 373 724 Q373 672 352.5 618 Q332 564 306 516 L267 529 Z " />
<glyph glyph-name="Ldot" unicode="&#x13f;" horiz-adv-x="585" d="M229 60 L404 60 Q434 60 449.5 69.5 Q465 79 473 107 L496 202 L555 202 L541 0 L55 0 L55 48 L95 52 Q108 54 115.5 56.5 Q123 59 127 67 Q131 75 132 90 Q133 105 133 130 L133 600 Q133 622 131.5 635.5 Q130 649 126 657 Q122 665 114 668.5 Q106 672 93 673 L56 677 L56 724 L322 724 L322 677 L267 672 Q242 670 235.5 656 Q229 642 229 598 L229 60 Z M520 406 Q520 377 503.5 361.5 Q487 346 458 346 Q429 346 413 361.5 Q397 377 397 406 Q397 435 413 449.5 Q429 464 458 464 Q487 464 503.5 449.5 Q520 435 520 406 Z " />
<glyph glyph-name="ldot" unicode="&#x140;" horiz-adv-x="329" d="M205 127 Q205 103 206 87.5 Q207 72 211 63.5 Q215 55 221.5 51.5 Q228 48 240 47 L276 43 L276 0 L44 0 L44 43 L76 47 Q89 49 97 52 Q105 55 109 63.5 Q113 72 114.5 87 Q116 102 116 127 L116 614 Q116 649 105 662.5 Q94 676 67 681 L38 686 L44 727 L183 745 L205 733 L205 127 Z M387 377 Q387 348 370.5 332.5 Q354 317 325 317 Q296 317 280 332.5 Q264 348 264 377 Q264 406 280 420.5 Q296 435 325 435 Q354 435 370.5 420.5 Q387 406 387 377 Z " />
<glyph glyph-name="Lslash" unicode="&#x141;" horiz-adv-x="585" d="M229 398 L420 478 L420 416 L229 337 L229 60 L404 60 Q434 60 449.5 69.5 Q465 79 473 107 L496 202 L555 202 L541 0 L55 0 L55 48 L95 52 Q108 54 115.5 56.5 Q123 59 127 67 Q131 75 132 90 Q133 105 133 130 L133 297 L55 265 L55 325 L133 357 L133 600 Q133 622 131.5 635.5 Q130 649 126 657 Q122 665 114 668.5 Q106 672 93 673 L56 677 L56 724 L322 724 L322 677 L267 672 Q242 670 235.5 656 Q229 642 229 598 L229 398 Z " />
<glyph glyph-name="lslash" unicode="&#x142;" horiz-adv-x="313" d="M205 442 L284 477 L284 415 L205 380 L205 127 Q205 103 206 87.5 Q207 72 211 63.5 Q215 55 221.5 51.5 Q228 48 240 47 L276 43 L276 0 L44 0 L44 43 L76 47 Q89 49 97 52 Q105 55 109 63.5 Q113 72 114.5 87 Q116 102 116 127 L116 352 L36 318 L36 378 L116 413 L116 614 Q116 649 105 662.5 Q94 676 67 681 L38 686 L44 727 L183 745 L205 733 L205 442 Z " />
<glyph glyph-name="Nacute" unicode="&#x143;" horiz-adv-x="768" d="M578 119 L582 119 L582 604 Q582 645 576.5 658.5 Q571 672 546 674 L507 677 L507 724 L725 724 L725 678 L686 674 Q661 672 654.5 656.5 Q648 641 648 608 L648 0 L546 0 L203 603 L199 603 L199 123 Q199 102 200 88.5 Q201 75 204.5 67 Q208 59 215 55.5 Q222 52 234 50 L271 47 L271 0 L55 0 L55 48 L95 51 Q108 52 115.5 55.5 Q123 59 127 67 Q131 75 132 90 Q133 105 133 129 L133 599 Q133 643 126.5 657.5 Q120 672 94 674 L56 678 L56 724 L242 724 L578 119 Z M309 776 L290 811 L465 948 L533 882 L533 863 L309 776 Z " />
<glyph glyph-name="nacute" unicode="&#x144;" horiz-adv-x="633" d="M206 127 Q206 103 206.5 88 Q207 73 210.5 64 Q214 55 221 51.5 Q228 48 241 46 L269 42 L269 0 L44 0 L44 43 L76 47 Q89 49 97 52 Q105 55 109 63.5 Q113 72 114.5 87 Q116 102 116 127 L116 394 Q116 429 104.5 442.5 Q93 456 67 461 L38 466 L44 507 L175 524 L189 518 L198 449 Q236 484 278.5 507 Q321 530 378 530 Q411 530 439.5 521 Q468 512 488 491 Q508 470 519.5 435 Q531 400 531 349 L531 127 Q531 103 532.5 88 Q534 73 538 64.5 Q542 56 550 52.5 Q558 49 571 47 L606 42 L606 0 L381 0 L381 42 L410 46 Q422 48 428.5 51.5 Q435 55 438 63.5 Q441 72 441.5 85.5 Q442 99 442 121 L442 341 Q442 395 419 424 Q396 453 344 453 Q309 453 273.5 440 Q238 427 206 407 L206 127 Z M251 567 L216 594 L347 775 L434 734 L434 719 L251 567 Z " />
<glyph glyph-name="Ncommaaccent" unicode="&#x145;" horiz-adv-x="768" d="M578 119 L582 119 L582 604 Q582 645 576.5 658.5 Q571 672 546 674 L507 677 L507 724 L725 724 L725 678 L686 674 Q661 672 654.5 656.5 Q648 641 648 608 L648 0 L546 0 L203 603 L199 603 L199 123 Q199 102 200 88.5 Q201 75 204.5 67 Q208 59 215 55.5 Q222 52 234 50 L271 47 L271 0 L55 0 L55 48 L95 51 Q108 52 115.5 55.5 Q123 59 127 67 Q131 75 132 90 Q133 105 133 129 L133 599 Q133 643 126.5 657.5 Q120 672 94 674 L56 678 L56 724 L242 724 L578 119 Z M458 -128 Q458 -147 452.5 -169 Q447 -191 435 -213.5 Q423 -236 404 -257 Q385 -278 358 -294 L335 -266 Q358 -247 369.5 -227 Q381 -207 385 -180 Q354 -178 339 -162 Q324 -146 324 -120 Q324 -59 391 -59 Q420 -59 439 -74.5 Q458 -90 458 -128 Z " />
<glyph glyph-name="ncommaaccent" unicode="&#x146;" horiz-adv-x="633" d="M206 127 Q206 103 206.5 88 Q207 73 210.5 64 Q214 55 221 51.5 Q228 48 241 46 L269 42 L269 0 L44 0 L44 43 L76 47 Q89 49 97 52 Q105 55 109 63.5 Q113 72 114.5 87 Q116 102 116 127 L116 394 Q116 429 104.5 442.5 Q93 456 67 461 L38 466 L44 507 L175 524 L189 518 L198 449 Q236 484 278.5 507 Q321 530 378 530 Q411 530 439.5 521 Q468 512 488 491 Q508 470 519.5 435 Q531 400 531 349 L531 127 Q531 103 532.5 88 Q534 73 538 64.5 Q542 56 550 52.5 Q558 49 571 47 L606 42 L606 0 L381 0 L381 42 L410 46 Q422 48 428.5 51.5 Q435 55 438 63.5 Q441 72 441.5 85.5 Q442 99 442 121 L442 341 Q442 395 419 424 Q396 453 344 453 Q309 453 273.5 440 Q238 427 206 407 L206 127 Z M390 -128 Q390 -147 384.5 -169 Q379 -191 367 -213.5 Q355 -236 336 -257 Q317 -278 290 -294 L267 -266 Q290 -247 301.5 -227 Q313 -207 317 -180 Q286 -178 271 -162 Q256 -146 256 -120 Q256 -59 323 -59 Q352 -59 371 -74.5 Q390 -90 390 -128 Z " />
<glyph glyph-name="Ncaron" unicode="&#x147;" horiz-adv-x="768" d="M578 119 L582 119 L582 604 Q582 645 576.5 658.5 Q571 672 546 674 L507 677 L507 724 L725 724 L725 678 L686 674 Q661 672 654.5 656.5 Q648 641 648 608 L648 0 L546 0 L203 603 L199 603 L199 123 Q199 102 200 88.5 Q201 75 204.5 67 Q208 59 215 55.5 Q222 52 234 50 L271 47 L271 0 L55 0 L55 48 L95 51 Q108 52 115.5 55.5 Q123 59 127 67 Q131 75 132 90 Q133 105 133 129 L133 599 Q133 643 126.5 657.5 Q120 672 94 674 L56 678 L56 724 L242 724 L578 119 Z M528 945 L554 906 L421 781 L345 781 L211 907 L238 945 L383 870 L528 945 Z " />
<glyph glyph-name="ncaron" unicode="&#x148;" horiz-adv-x="633" d="M206 127 Q206 103 206.5 88 Q207 73 210.5 64 Q214 55 221 51.5 Q228 48 241 46 L269 42 L269 0 L44 0 L44 43 L76 47 Q89 49 97 52 Q105 55 109 63.5 Q113 72 114.5 87 Q116 102 116 127 L116 394 Q116 429 104.5 442.5 Q93 456 67 461 L38 466 L44 507 L175 524 L189 518 L198 449 Q236 484 278.5 507 Q321 530 378 530 Q411 530 439.5 521 Q468 512 488 491 Q508 470 519.5 435 Q531 400 531 349 L531 127 Q531 103 532.5 88 Q534 73 538 64.5 Q542 56 550 52.5 Q558 49 571 47 L606 42 L606 0 L381 0 L381 42 L410 46 Q422 48 428.5 51.5 Q435 55 438 63.5 Q441 72 441.5 85.5 Q442 99 442 121 L442 341 Q442 395 419 424 Q396 453 344 453 Q309 453 273.5 440 Q238 427 206 407 L206 127 Z M274 586 L155 752 L190 782 L316 670 L441 781 L475 752 L355 586 L274 586 Z " />
<glyph glyph-name="Eng" unicode="&#x14a;" horiz-adv-x="768" d="M578 119 L582 119 L582 604 Q582 645 576.5 658.5 Q571 672 546 674 L507 677 L507 724 L725 724 L725 678 L686 674 Q661 672 654.5 656.5 Q648 641 648 608 L648 64 Q648 0 641 -45.5 Q634 -91 616 -126 Q598 -161 566.5 -190 Q535 -219 486 -249 L458 -209 Q501 -176 523.5 -129 Q546 -82 546 0 L203 603 L199 603 L199 123 Q199 102 200 88.5 Q201 75 204.5 67 Q208 59 215 55.5 Q222 52 234 50 L271 47 L271 0 L55 0 L55 48 L95 51 Q111 53 119 57.5 Q127 62 130 76.5 Q133 91 133 117 Q133 143 133 188 L133 599 Q133 643 126.5 657.5 Q120 672 94 674 L56 678 L56 724 L242 724 L578 119 Z " />
<glyph glyph-name="eng" unicode="&#x14b;" horiz-adv-x="626" d="M531 127 Q531 64 524 18 Q517 -28 499 -64 Q481 -100 450 -129.5 Q419 -159 370 -189 L342 -149 Q364 -133 382 -111.5 Q400 -90 413.5 -61 Q427 -32 434.5 6 Q442 44 442 93 L442 341 Q442 395 419 424 Q396 453 344 453 Q309 453 273.5 440 Q238 427 206 407 L206 127 Q206 103 206.5 88 Q207 73 210.5 64 Q214 55 221 51.5 Q228 48 241 46 L269 42 L269 0 L44 0 L44 43 L76 47 Q89 49 97 52 Q105 55 109 63.5 Q113 72 114.5 87 Q116 102 116 127 L116 394 Q116 429 104.5 442.5 Q93 456 67 461 L38 466 L44 507 L175 524 L189 518 L198 449 Q236 484 278.5 507 Q321 530 378 530 Q411 530 439.5 521 Q468 512 488 491 Q508 470 519.5 435 Q531 400 531 349 L531 127 Z " />
<glyph glyph-name="Omacron" unicode="&#x14c;" horiz-adv-x="700" d="M344 -12 Q263 -12 206 17 Q149 46 113.5 95.5 Q78 145 61.5 211.5 Q45 278 45 352 Q45 432 64.5 502 Q84 572 123.5 624.5 Q163 677 224 707 Q285 737 368 737 Q445 737 499 708 Q553 679 588 629.5 Q623 580 639 513 Q655 446 655 371 Q655 289 636.5 218.5 Q618 148 580 97 Q542 46 483 17 Q424 -12 344 -12 Z M351 50 Q391 50 427 66.5 Q463 83 490.5 119.5 Q518 156 534 215.5 Q550 275 550 362 Q550 449 535.5 509 Q521 569 495.5 605.5 Q470 642 434.5 658.5 Q399 675 357 675 Q315 675 278 658.5 Q241 642 212.5 605 Q184 568 167.5 508 Q151 448 151 361 Q151 270 166.5 210 Q182 150 209 114.5 Q236 79 272.5 64.5 Q309 50 351 50 Z M205 892 L514 892 L514 815 L205 815 L205 892 Z " />
<glyph glyph-name="omacron" unicode="&#x14d;" horiz-adv-x="558" d="M275 -11 Q215 -11 172 8.5 Q129 28 100.5 63.5 Q72 99 58.5 149 Q45 199 45 260 Q45 321 61.5 371 Q78 421 109 456 Q140 491 185 510.5 Q230 530 287 530 Q346 530 389 510.5 Q432 491 459.5 455.5 Q487 420 500 370.5 Q513 321 513 261 Q513 199 498 148.5 Q483 98 453 62.5 Q423 27 378.5 8 Q334 -11 275 -11 Z M280 45 Q342 45 379 96.5 Q416 148 416 261 Q416 370 381 421 Q346 472 282 472 Q218 472 180 421.5 Q142 371 142 260 Q142 148 179 96.5 Q216 45 280 45 Z M130 706 L433 706 L433 630 L130 630 L130 706 Z " />
<glyph glyph-name="Obreve" unicode="&#x14e;" horiz-adv-x="700" d="M344 -12 Q263 -12 206 17 Q149 46 113.5 95.5 Q78 145 61.5 211.5 Q45 278 45 352 Q45 432 64.5 502 Q84 572 123.5 624.5 Q163 677 224 707 Q285 737 368 737 Q445 737 499 708 Q553 679 588 629.5 Q623 580 639 513 Q655 446 655 371 Q655 289 636.5 218.5 Q618 148 580 97 Q542 46 483 17 Q424 -12 344 -12 Z M351 50 Q391 50 427 66.5 Q463 83 490.5 119.5 Q518 156 534 215.5 Q550 275 550 362 Q550 449 535.5 509 Q521 569 495.5 605.5 Q470 642 434.5 658.5 Q399 675 357 675 Q315 675 278 658.5 Q241 642 212.5 605 Q184 568 167.5 508 Q151 448 151 361 Q151 270 166.5 210 Q182 150 209 114.5 Q236 79 272.5 64.5 Q309 50 351 50 Z M520 937 Q506 866 467.5 825.5 Q429 785 357 785 Q285 785 246.5 826 Q208 867 194 937 L235 957 Q250 914 285 893.5 Q320 873 357 873 Q392 873 427 892.5 Q462 912 479 957 L520 937 Z " />
<glyph glyph-name="obreve" unicode="&#x14f;" horiz-adv-x="558" d="M275 -11 Q215 -11 172 8.5 Q129 28 100.5 63.5 Q72 99 58.5 149 Q45 199 45 260 Q45 321 61.5 371 Q78 421 109 456 Q140 491 185 510.5 Q230 530 287 530 Q346 530 389 510.5 Q432 491 459.5 455.5 Q487 420 500 370.5 Q513 321 513 261 Q513 199 498 148.5 Q483 98 453 62.5 Q423 27 378.5 8 Q334 -11 275 -11 Z M280 45 Q342 45 379 96.5 Q416 148 416 261 Q416 370 381 421 Q346 472 282 472 Q218 472 180 421.5 Q142 371 142 260 Q142 148 179 96.5 Q216 45 280 45 Z M290 666 Q328 666 355 689 Q382 712 405 769 L447 752 Q432 671 392.5 627 Q353 583 289 583 Q219 583 183 625 Q147 667 133 752 L173 769 Q197 709 224 687.5 Q251 666 290 666 Z " />
<glyph glyph-name="Ohungarumlaut" unicode="&#x150;" horiz-adv-x="700" d="M344 -12 Q263 -12 206 17 Q149 46 113.5 95.5 Q78 145 61.5 211.5 Q45 278 45 352 Q45 432 64.5 502 Q84 572 123.5 624.5 Q163 677 224 707 Q285 737 368 737 Q445 737 499 708 Q553 679 588 629.5 Q623 580 639 513 Q655 446 655 371 Q655 289 636.5 218.5 Q618 148 580 97 Q542 46 483 17 Q424 -12 344 -12 Z M351 50 Q391 50 427 66.5 Q463 83 490.5 119.5 Q518 156 534 215.5 Q550 275 550 362 Q550 449 535.5 509 Q521 569 495.5 605.5 Q470 642 434.5 658.5 Q399 675 357 675 Q315 675 278 658.5 Q241 642 212.5 605 Q184 568 167.5 508 Q151 448 151 361 Q151 270 166.5 210 Q182 150 209 114.5 Q236 79 272.5 64.5 Q309 50 351 50 Z M274 783 L244 813 L389 987 L457 928 L457 916 L274 783 Z M441 778 L413 810 L568 976 L632 913 L632 902 L441 778 Z " />
<glyph glyph-name="ohungarumlaut" unicode="&#x151;" horiz-adv-x="558" d="M275 -11 Q215 -11 172 8.5 Q129 28 100.5 63.5 Q72 99 58.5 149 Q45 199 45 260 Q45 321 61.5 371 Q78 421 109 456 Q140 491 185 510.5 Q230 530 287 530 Q346 530 389 510.5 Q432 491 459.5 455.5 Q487 420 500 370.5 Q513 321 513 261 Q513 199 498 148.5 Q483 98 453 62.5 Q423 27 378.5 8 Q334 -11 275 -11 Z M280 45 Q342 45 379 96.5 Q416 148 416 261 Q416 370 381 421 Q346 472 282 472 Q218 472 180 421.5 Q142 371 142 260 Q142 148 179 96.5 Q216 45 280 45 Z M212 570 L175 590 L290 787 L381 760 L383 749 L212 570 Z M356 568 L321 591 L452 778 L542 740 L543 729 L356 568 Z " />
<glyph glyph-name="OE" unicode="&#x152;" horiz-adv-x="1018" d="M950 539 L891 541 L869 613 Q862 639 848 651.5 Q834 664 804 664 L556 664 Q601 617 622 548 Q643 479 646 398 L881 398 L881 339 L646 339 Q642 251 617.5 179 Q593 107 543 60 L824 60 Q854 60 868 71.5 Q882 83 889 109 L911 190 L968 190 L957 0 L472 0 Q417 -12 344 -12 Q263 -12 206 17 Q149 46 113.5 95.5 Q78 145 61.5 211.5 Q45 278 45 352 Q45 432 64.5 502 Q84 572 123.5 624.5 Q163 677 224 707 Q285 737 368 737 Q397 737 423.5 733 Q450 729 473 724 L940 724 L950 539 Z M351 50 Q391 50 427 66.5 Q463 83 490.5 119.5 Q518 156 534 215.5 Q550 275 550 362 Q550 449 535.5 509 Q521 569 495.5 605.5 Q470 642 434.5 658.5 Q399 675 357 675 Q315 675 278 658.5 Q241 642 212.5 605 Q184 568 167.5 508 Q151 448 151 361 Q151 270 166.5 210 Q182 150 209 114.5 Q236 79 272.5 64.5 Q309 50 351 50 Z " />
<glyph glyph-name="oe" unicode="&#x153;" horiz-adv-x="884" d="M839 56 Q796 23 750.5 6 Q705 -11 652 -11 Q522 -11 465 90 Q439 39 390 14 Q341 -11 275 -11 Q215 -11 172 8.5 Q129 28 100.5 63.5 Q72 99 58.5 149 Q45 199 45 260 Q45 321 61.5 371 Q78 421 109 456 Q140 491 185 510.5 Q230 530 287 530 Q416 530 468 432 Q498 486 547 508 Q596 530 648 530 Q690 530 726 517 Q762 504 788 475.5 Q814 447 829 402.5 Q844 358 844 295 Q844 266 841 243 L514 243 Q516 157 558.5 110 Q601 63 673 63 Q715 63 746 71.5 Q777 80 814 99 L839 56 Z M280 45 Q342 45 379 96.5 Q416 148 416 261 Q416 370 381 421 Q346 472 282 472 Q218 472 180 421.5 Q142 371 142 260 Q142 148 179 96.5 Q216 45 280 45 Z M750 303 Q755 388 725 430 Q695 472 641 472 Q585 472 551.5 431.5 Q518 391 513 303 L750 303 Z " />
<glyph glyph-name="Racute" unicode="&#x154;" horiz-adv-x="676" d="M666 10 Q647 -1 622.5 -6 Q598 -11 582 -11 Q526 -11 498 13.5 Q470 38 453 92 Q442 126 432 160.5 Q422 195 411 230 Q404 252 397 267 Q390 282 379 291.5 Q368 301 352 305 Q336 309 310 309 L229 309 L229 131 Q229 106 229.5 91 Q230 76 234 68 Q238 60 245.5 57 Q253 54 267 52 L298 48 L298 0 L55 0 L55 48 L95 51 Q109 52 116.5 55.5 Q124 59 127.5 67 Q131 75 132 90.5 Q133 106 133 131 L133 599 Q133 642 126 657 Q119 672 93 674 L56 677 L56 724 L346 724 Q392 724 434 715 Q476 706 508.5 683.5 Q541 661 560 623.5 Q579 586 579 530 Q579 491 565 459.5 Q551 428 529 404 Q507 380 479.5 364.5 Q452 349 425 342 Q457 333 477 309.5 Q497 286 509 251 L552 122 Q560 98 569 83.5 Q578 69 591 62 Q604 55 621 53 Q638 51 663 51 L666 10 Z M229 371 L320 371 Q396 371 435.5 409.5 Q475 448 475 530 Q475 566 463 591 Q451 616 431 632 Q411 648 385 655 Q359 662 330 662 L229 662 L229 371 Z M234 776 L215 811 L390 948 L458 882 L458 863 L234 776 Z " />
<glyph glyph-name="racute" unicode="&#x155;" horiz-adv-x="429" d="M206 127 Q206 103 207 88 Q208 73 212 64.5 Q216 56 222.5 52.5 Q229 49 240 48 L298 41 L298 0 L49 0 L49 43 L76 46 Q89 48 97 51 Q105 54 109 62.5 Q113 71 114.5 86.5 Q116 102 116 127 L116 394 Q116 429 104.5 442.5 Q93 456 67 461 L38 466 L44 507 L174 524 L188 518 L200 446 Q226 480 259.5 505 Q293 530 338 530 Q352 530 368 527 Q384 524 398 517 L391 412 L379 412 Q349 426 326.5 431.5 Q304 437 287 437 Q259 437 239 422.5 Q219 408 206 397 L206 127 Z M201 567 L166 594 L297 775 L384 734 L384 719 L201 567 Z " />
<glyph glyph-name="Rcommaaccent" unicode="&#x156;" horiz-adv-x="676" d="M666 10 Q647 -1 622.5 -6 Q598 -11 582 -11 Q526 -11 498 13.5 Q470 38 453 92 Q442 126 432 160.5 Q422 195 411 230 Q404 252 397 267 Q390 282 379 291.5 Q368 301 352 305 Q336 309 310 309 L229 309 L229 131 Q229 106 229.5 91 Q230 76 234 68 Q238 60 245.5 57 Q253 54 267 52 L298 48 L298 0 L55 0 L55 48 L95 51 Q109 52 116.5 55.5 Q124 59 127.5 67 Q131 75 132 90.5 Q133 106 133 131 L133 599 Q133 642 126 657 Q119 672 93 674 L56 677 L56 724 L346 724 Q392 724 434 715 Q476 706 508.5 683.5 Q541 661 560 623.5 Q579 586 579 530 Q579 491 565 459.5 Q551 428 529 404 Q507 380 479.5 364.5 Q452 349 425 342 Q457 333 477 309.5 Q497 286 509 251 L552 122 Q560 98 569 83.5 Q578 69 591 62 Q604 55 621 53 Q638 51 663 51 L666 10 Z M229 371 L320 371 Q396 371 435.5 409.5 Q475 448 475 530 Q475 566 463 591 Q451 616 431 632 Q411 648 385 655 Q359 662 330 662 L229 662 L229 371 Z M415 -128 Q415 -147 409.5 -169 Q404 -191 392 -213.5 Q380 -236 361 -257 Q342 -278 315 -294 L292 -266 Q315 -247 326.5 -227 Q338 -207 342 -180 Q311 -178 296 -162 Q281 -146 281 -120 Q281 -59 348 -59 Q377 -59 396 -74.5 Q415 -90 415 -128 Z " />
<glyph glyph-name="rcommaaccent" unicode="&#x157;" horiz-adv-x="429" d="M206 127 Q206 103 207 88 Q208 73 212 64.5 Q216 56 222.5 52.5 Q229 49 240 48 L298 41 L298 0 L49 0 L49 43 L76 46 Q89 48 97 51 Q105 54 109 62.5 Q113 71 114.5 86.5 Q116 102 116 127 L116 394 Q116 429 104.5 442.5 Q93 456 67 461 L38 466 L44 507 L174 524 L188 518 L200 446 Q226 480 259.5 505 Q293 530 338 530 Q352 530 368 527 Q384 524 398 517 L391 412 L379 412 Q349 426 326.5 431.5 Q304 437 287 437 Q259 437 239 422.5 Q219 408 206 397 L206 127 Z M222 -128 Q222 -147 216.5 -169 Q211 -191 199 -213.5 Q187 -236 168 -257 Q149 -278 122 -294 L99 -266 Q122 -247 133.5 -227 Q145 -207 149 -180 Q118 -178 103 -162 Q88 -146 88 -120 Q88 -59 155 -59 Q184 -59 203 -74.5 Q222 -90 222 -128 Z " />
<glyph glyph-name="Rcaron" unicode="&#x158;" horiz-adv-x="676" d="M666 10 Q647 -1 622.5 -6 Q598 -11 582 -11 Q526 -11 498 13.5 Q470 38 453 92 Q442 126 432 160.5 Q422 195 411 230 Q404 252 397 267 Q390 282 379 291.5 Q368 301 352 305 Q336 309 310 309 L229 309 L229 131 Q229 106 229.5 91 Q230 76 234 68 Q238 60 245.5 57 Q253 54 267 52 L298 48 L298 0 L55 0 L55 48 L95 51 Q109 52 116.5 55.5 Q124 59 127.5 67 Q131 75 132 90.5 Q133 106 133 131 L133 599 Q133 642 126 657 Q119 672 93 674 L56 677 L56 724 L346 724 Q392 724 434 715 Q476 706 508.5 683.5 Q541 661 560 623.5 Q579 586 579 530 Q579 491 565 459.5 Q551 428 529 404 Q507 380 479.5 364.5 Q452 349 425 342 Q457 333 477 309.5 Q497 286 509 251 L552 122 Q560 98 569 83.5 Q578 69 591 62 Q604 55 621 53 Q638 51 663 51 L666 10 Z M229 371 L320 371 Q396 371 435.5 409.5 Q475 448 475 530 Q475 566 463 591 Q451 616 431 632 Q411 648 385 655 Q359 662 330 662 L229 662 L229 371 Z M454 945 L480 906 L347 781 L271 781 L137 907 L164 945 L309 870 L454 945 Z " />
<glyph glyph-name="rcaron" unicode="&#x159;" horiz-adv-x="429" d="M206 127 Q206 103 207 88 Q208 73 212 64.5 Q216 56 222.5 52.5 Q229 49 240 48 L298 41 L298 0 L49 0 L49 43 L76 46 Q89 48 97 51 Q105 54 109 62.5 Q113 71 114.5 86.5 Q116 102 116 127 L116 394 Q116 429 104.5 442.5 Q93 456 67 461 L38 466 L44 507 L174 524 L188 518 L200 446 Q226 480 259.5 505 Q293 530 338 530 Q352 530 368 527 Q384 524 398 517 L391 412 L379 412 Q349 426 326.5 431.5 Q304 437 287 437 Q259 437 239 422.5 Q219 408 206 397 L206 127 Z M182 586 L63 752 L98 782 L224 670 L349 781 L383 752 L263 586 L182 586 Z " />
<glyph glyph-name="Sacute" unicode="&#x15a;" horiz-adv-x="547" d="M416 550 L403 622 Q401 635 395 645 Q389 655 377 661.5 Q365 668 344.5 671.5 Q324 675 293 675 Q250 675 223 663 Q196 651 181 633.5 Q166 616 160.5 595 Q155 574 155 556 Q155 508 181 482 Q207 456 246 439.5 Q285 423 330 410 Q375 397 414 374.5 Q453 352 479 314 Q505 276 505 210 Q505 146 480 103 Q455 60 417 35 Q379 10 332.5 -0.5 Q286 -11 242 -11 Q170 -11 119.5 2.5 Q69 16 42 31 L54 180 L110 180 L120 113 Q123 100 128.5 88.5 Q134 77 147.5 69 Q161 61 185.5 56.5 Q210 52 250 52 Q283 52 313 59.5 Q343 67 365 83.5 Q387 100 400 126 Q413 152 413 189 Q413 238 387 265.5 Q361 293 321.5 310 Q282 327 236 340.5 Q190 354 150.5 375.5 Q111 397 85 433 Q59 469 59 531 Q59 569 72.5 605.5 Q86 642 115 671.5 Q144 701 190.5 719 Q237 737 304 737 Q346 737 395.5 727 Q445 717 480 699 L472 545 L416 550 Z M213 776 L194 811 L369 948 L437 882 L437 863 L213 776 Z " />
<glyph glyph-name="sacute" unicode="&#x15b;" horiz-adv-x="474" d="M352 374 L337 432 Q332 449 317 459.5 Q302 470 258 470 Q215 470 183.5 453 Q152 436 152 394 Q152 362 172.5 345.5 Q193 329 224.5 318.5 Q256 308 292 299 Q328 290 359.5 274.5 Q391 259 411.5 231.5 Q432 204 432 157 Q432 126 421.5 96 Q411 66 387 42 Q363 18 324.5 3.5 Q286 -11 230 -11 Q167 -11 125 2 Q83 15 60 28 L71 160 L126 160 L139 93 Q144 71 163.5 60 Q183 49 235 49 Q284 49 315.5 69 Q347 89 347 136 Q347 171 326.5 189 Q306 207 275 217.5 Q244 228 208.5 236 Q173 244 142 259 Q111 274 90.5 300.5 Q70 327 70 375 Q70 445 122 487.5 Q174 530 264 530 Q315 530 354.5 519.5 Q394 509 417 495 L412 366 L352 374 Z M196 567 L161 594 L292 775 L379 734 L379 719 L196 567 Z " />
<glyph glyph-name="Scircumflex" unicode="&#x15c;" horiz-adv-x="547" d="M416 550 L403 622 Q401 635 395 645 Q389 655 377 661.5 Q365 668 344.5 671.5 Q324 675 293 675 Q250 675 223 663 Q196 651 181 633.5 Q166 616 160.5 595 Q155 574 155 556 Q155 508 181 482 Q207 456 246 439.5 Q285 423 330 410 Q375 397 414 374.5 Q453 352 479 314 Q505 276 505 210 Q505 146 480 103 Q455 60 417 35 Q379 10 332.5 -0.5 Q286 -11 242 -11 Q170 -11 119.5 2.5 Q69 16 42 31 L54 180 L110 180 L120 113 Q123 100 128.5 88.5 Q134 77 147.5 69 Q161 61 185.5 56.5 Q210 52 250 52 Q283 52 313 59.5 Q343 67 365 83.5 Q387 100 400 126 Q413 152 413 189 Q413 238 387 265.5 Q361 293 321.5 310 Q282 327 236 340.5 Q190 354 150.5 375.5 Q111 397 85 433 Q59 469 59 531 Q59 569 72.5 605.5 Q86 642 115 671.5 Q144 701 190.5 719 Q237 737 304 737 Q346 737 395.5 727 Q445 717 480 699 L472 545 L416 550 Z M286 851 L141 776 L115 815 L248 940 L324 940 L458 814 L431 776 L286 851 Z " />
<glyph glyph-name="scircumflex" unicode="&#x15d;" horiz-adv-x="474" d="M352 374 L337 432 Q332 449 317 459.5 Q302 470 258 470 Q215 470 183.5 453 Q152 436 152 394 Q152 362 172.5 345.5 Q193 329 224.5 318.5 Q256 308 292 299 Q328 290 359.5 274.5 Q391 259 411.5 231.5 Q432 204 432 157 Q432 126 421.5 96 Q411 66 387 42 Q363 18 324.5 3.5 Q286 -11 230 -11 Q167 -11 125 2 Q83 15 60 28 L71 160 L126 160 L139 93 Q144 71 163.5 60 Q183 49 235 49 Q284 49 315.5 69 Q347 89 347 136 Q347 171 326.5 189 Q306 207 275 217.5 Q244 228 208.5 236 Q173 244 142 259 Q111 274 90.5 300.5 Q70 327 70 375 Q70 445 122 487.5 Q174 530 264 530 Q315 530 354.5 519.5 Q394 509 417 495 L412 366 L352 374 Z M291 768 L413 601 L376 571 L250 681 L124 568 L87 598 L211 768 L291 768 Z " />
<glyph glyph-name="Scedilla" unicode="&#x15e;" horiz-adv-x="547" d="M178 -162 Q191 -166 204 -167.5 Q217 -169 229 -169 Q254 -169 270 -159 Q286 -149 286 -124 Q286 -103 266.5 -91.5 Q247 -80 212 -75 L230 -11 Q162 -9 115 4 Q68 17 42 31 L54 180 L110 180 L120 113 Q123 100 128.5 88.5 Q134 77 147.5 69 Q161 61 185.5 56.5 Q210 52 250 52 Q283 52 313 59.5 Q343 67 365 83.5 Q387 100 400 126 Q413 152 413 189 Q413 238 387 265.5 Q361 293 321.5 310 Q282 327 236 340.5 Q190 354 150.5 375.5 Q111 397 85 433 Q59 469 59 531 Q59 569 72.5 605.5 Q86 642 115 671.5 Q144 701 190.5 719 Q237 737 304 737 Q346 737 395.5 727 Q445 717 480 699 L472 545 L416 550 L403 622 Q401 635 395 645 Q389 655 377 661.5 Q365 668 344.5 671.5 Q324 675 293 675 Q250 675 223 663 Q196 651 181 633.5 Q166 616 160.5 595 Q155 574 155 556 Q155 508 181 482 Q207 456 246 439.5 Q285 423 330 410 Q375 397 414 374.5 Q453 352 479 314 Q505 276 505 210 Q505 153 485.5 113 Q466 73 434.5 47.5 Q403 22 363 8.5 Q323 -5 283 -9 L276 -36 Q291 -39 306.5 -45.5 Q322 -52 335 -62 Q348 -72 356 -87 Q364 -102 364 -123 Q364 -148 354 -167 Q344 -186 327 -198.5 Q310 -211 287.5 -217.5 Q265 -224 239 -224 Q214 -224 194 -219.5 Q174 -215 163 -209 L178 -162 Z " />
<glyph glyph-name="scedilla" unicode="&#x15f;" horiz-adv-x="474" d="M157 -162 Q170 -166 183 -167.5 Q196 -169 208 -169 Q233 -169 249 -159 Q265 -149 265 -124 Q265 -103 245.5 -91.5 Q226 -80 191 -75 L209 -10 Q155 -8 118 4 Q81 16 60 28 L71 160 L126 160 L139 93 Q144 71 163.5 60 Q183 49 235 49 Q284 49 315.5 69 Q347 89 347 136 Q347 171 326.5 189 Q306 207 275 217.5 Q244 228 208.5 236 Q173 244 142 259 Q111 274 90.5 300.5 Q70 327 70 375 Q70 445 122 487.5 Q174 530 264 530 Q315 530 354.5 519.5 Q394 509 417 495 L412 366 L352 374 L337 432 Q332 449 317 459.5 Q302 470 258 470 Q215 470 183.5 453 Q152 436 152 394 Q152 362 172.5 345.5 Q193 329 224.5 318.5 Q256 308 292 299 Q328 290 359.5 274.5 Q391 259 411.5 231.5 Q432 204 432 157 Q432 128 423 100 Q414 72 394 49 Q374 26 341 10.5 Q308 -5 261 -9 L255 -36 Q270 -39 285.5 -45.5 Q301 -52 314 -62 Q327 -72 335 -87 Q343 -102 343 -123 Q343 -148 333 -167 Q323 -186 306 -198.5 Q289 -211 266.5 -217.5 Q244 -224 218 -224 Q193 -224 173 -219.5 Q153 -215 142 -209 L157 -162 Z " />
<glyph glyph-name="Scaron" unicode="&#x160;" horiz-adv-x="547" d="M416 550 L403 622 Q401 635 395 645 Q389 655 377 661.5 Q365 668 344.5 671.5 Q324 675 293 675 Q250 675 223 663 Q196 651 181 633.5 Q166 616 160.5 595 Q155 574 155 556 Q155 508 181 482 Q207 456 246 439.5 Q285 423 330 410 Q375 397 414 374.5 Q453 352 479 314 Q505 276 505 210 Q505 146 480 103 Q455 60 417 35 Q379 10 332.5 -0.5 Q286 -11 242 -11 Q170 -11 119.5 2.5 Q69 16 42 31 L54 180 L110 180 L120 113 Q123 100 128.5 88.5 Q134 77 147.5 69 Q161 61 185.5 56.5 Q210 52 250 52 Q283 52 313 59.5 Q343 67 365 83.5 Q387 100 400 126 Q413 152 413 189 Q413 238 387 265.5 Q361 293 321.5 310 Q282 327 236 340.5 Q190 354 150.5 375.5 Q111 397 85 433 Q59 469 59 531 Q59 569 72.5 605.5 Q86 642 115 671.5 Q144 701 190.5 719 Q237 737 304 737 Q346 737 395.5 727 Q445 717 480 699 L472 545 L416 550 Z M432 945 L458 906 L325 781 L249 781 L115 907 L142 945 L287 870 L432 945 Z " />
<glyph glyph-name="scaron" unicode="&#x161;" horiz-adv-x="474" d="M352 374 L337 432 Q332 449 317 459.5 Q302 470 258 470 Q215 470 183.5 453 Q152 436 152 394 Q152 362 172.5 345.5 Q193 329 224.5 318.5 Q256 308 292 299 Q328 290 359.5 274.5 Q391 259 411.5 231.5 Q432 204 432 157 Q432 126 421.5 96 Q411 66 387 42 Q363 18 324.5 3.5 Q286 -11 230 -11 Q167 -11 125 2 Q83 15 60 28 L71 160 L126 160 L139 93 Q144 71 163.5 60 Q183 49 235 49 Q284 49 315.5 69 Q347 89 347 136 Q347 171 326.5 189 Q306 207 275 217.5 Q244 228 208.5 236 Q173 244 142 259 Q111 274 90.5 300.5 Q70 327 70 375 Q70 445 122 487.5 Q174 530 264 530 Q315 530 354.5 519.5 Q394 509 417 495 L412 366 L352 374 Z M211 586 L92 752 L127 782 L253 670 L378 781 L412 752 L292 586 L211 586 Z " />
<glyph glyph-name="uni0162" unicode="&#x162;" horiz-adv-x="649" d="M241 -162 Q254 -166 267 -167.5 Q280 -169 292 -169 Q317 -169 333 -159 Q349 -149 349 -124 Q349 -103 329.5 -91.5 Q310 -80 275 -75 L296 0 L162 0 L162 48 L246 56 Q261 58 268.5 65.5 Q276 73 276 107 L276 664 L182 664 Q152 664 138 655.5 Q124 647 116 621 L95 541 L35 539 L45 724 L604 724 L614 539 L554 541 L533 620 Q525 646 512 655 Q499 664 469 664 L373 664 L373 107 Q373 73 380.5 65.5 Q388 58 403 56 L487 48 L487 0 L348 0 L339 -36 Q354 -39 369.5 -45.5 Q385 -52 398 -62 Q411 -72 419 -87 Q427 -102 427 -123 Q427 -148 417 -167 Q407 -186 390 -198.5 Q373 -211 350.5 -217.5 Q328 -224 302 -224 Q277 -224 257 -219.5 Q237 -215 226 -209 L241 -162 Z " />
<glyph glyph-name="uni0163" unicode="&#x163;" horiz-adv-x="382" d="M131 -162 Q144 -166 157 -167.5 Q170 -169 182 -169 Q207 -169 223 -159 Q239 -149 239 -124 Q239 -103 219.5 -91.5 Q200 -80 165 -75 L184 -7 Q142 2 122.5 36 Q103 70 103 129 L103 460 L22 460 L28 509 L108 520 L141 644 L192 644 L192 519 L326 519 L318 460 L192 460 L192 143 Q192 97 206.5 77 Q221 57 253 57 Q279 57 300 63.5 Q321 70 336 78 L357 32 Q334 17 303 4.5 Q272 -8 235 -10 L229 -36 Q244 -39 259.5 -45.5 Q275 -52 288 -62 Q301 -72 309 -87 Q317 -102 317 -123 Q317 -148 307 -167 Q297 -186 280 -198.5 Q263 -211 240.5 -217.5 Q218 -224 192 -224 Q167 -224 147 -219.5 Q127 -215 116 -209 L131 -162 Z " />
<glyph glyph-name="Tcaron" unicode="&#x164;" horiz-adv-x="649" d="M373 107 Q373 73 380.5 65.5 Q388 58 403 56 L487 48 L487 0 L162 0 L162 48 L246 56 Q261 58 268.5 65.5 Q276 73 276 107 L276 664 L182 664 Q152 664 138 655.5 Q124 647 116 621 L95 541 L35 539 L45 724 L604 724 L614 539 L554 541 L533 620 Q525 646 512 655 Q499 664 469 664 L373 664 L373 107 Z M471 945 L497 906 L364 781 L288 781 L154 907 L181 945 L326 870 L471 945 Z " />
<glyph glyph-name="tcaron" unicode="&#x165;" horiz-adv-x="382" d="M357 32 Q332 15 296.5 2 Q261 -11 219 -11 Q158 -11 130.5 24.5 Q103 60 103 129 L103 460 L22 460 L28 509 L108 520 L141 644 L192 644 L192 519 L326 519 L318 460 L192 460 L192 143 Q192 97 206.5 77 Q221 57 253 57 Q279 57 300 63.5 Q321 70 336 78 L357 32 Z M293 575 Q301 607 305 639 Q309 671 309 697 Q309 720 307 745 Q305 770 298 792 L379 811 L395 808 Q397 801 398 790 Q399 779 399 770 Q399 718 378.5 664 Q358 610 332 562 L293 575 Z " />
<glyph glyph-name="Tbar" unicode="&#x166;" horiz-adv-x="649" d="M373 390 L493 390 L493 333 L373 333 L373 107 Q373 73 380.5 65.5 Q388 58 403 56 L487 48 L487 0 L162 0 L162 48 L246 56 Q261 58 268.5 65.5 Q276 73 276 107 L276 333 L145 333 L145 390 L276 390 L276 664 L182 664 Q152 664 138 655.5 Q124 647 116 621 L95 541 L35 539 L45 724 L604 724 L614 539 L554 541 L533 620 Q525 646 512 655 Q499 664 469 664 L373 664 L373 390 Z " />
<glyph glyph-name="tbar" unicode="&#x167;" horiz-adv-x="382" d="M29 309 L103 309 L103 460 L22 460 L28 509 L108 520 L141 644 L192 644 L192 519 L326 519 L318 460 L192 460 L192 309 L318 309 L318 252 L192 252 L192 143 Q192 97 206.5 77 Q221 57 253 57 Q277 57 299 63.5 Q321 70 336 78 L357 32 Q332 15 296.5 2 Q261 -11 219 -11 Q183 -11 160.5 0 Q138 11 125.5 32.5 Q113 54 108 86 Q103 118 103 160 L103 252 L29 252 L29 309 Z " />
<glyph glyph-name="Utilde" unicode="&#x168;" horiz-adv-x="749" d="M563 614 Q563 652 555.5 662 Q548 672 527 674 L488 677 L488 724 L706 724 L706 678 L667 674 Q643 672 636 657.5 Q629 643 629 612 L629 245 Q629 180 610.5 131.5 Q592 83 559 51.5 Q526 20 480.5 4.5 Q435 -11 381 -11 Q295 -11 243.5 13 Q192 37 164.5 76 Q137 115 128.5 164.5 Q120 214 120 265 L120 602 Q120 642 112.5 656.5 Q105 671 73 674 L43 677 L43 724 L289 724 L289 677 L247 673 Q227 671 221.5 658.5 Q216 646 216 613 L216 255 Q216 154 252.5 100.5 Q289 47 382 47 Q424 47 458 58 Q492 69 515 94 Q538 119 550.5 158.5 Q563 198 563 255 L563 614 Z M308 903 Q316 903 342.5 897 Q369 891 398.5 883.5 Q428 876 453 869.5 Q478 863 482 863 Q492 863 500.5 869 Q509 875 527 901 L564 881 Q553 849 542 829 Q531 809 520.5 797.5 Q510 786 500.5 781.5 Q491 777 482 777 Q476 777 451 783.5 Q426 790 396.5 797.5 Q367 805 341.5 811.5 Q316 818 308 818 Q300 818 290.5 812 Q281 806 262 783 L227 801 Q250 855 268.5 879 Q287 903 308 903 Z " />
<glyph glyph-name="utilde" unicode="&#x169;" horiz-adv-x="631" d="M520 117 Q520 82 531 68.5 Q542 55 569 50 L594 46 L592 4 L466 -7 L452 -1 L439 70 Q401 35 358 12 Q315 -11 261 -11 Q230 -11 202.5 -2 Q175 7 155 28 Q135 49 123.5 84 Q112 119 112 170 L112 394 Q112 429 100.5 442.5 Q89 456 63 461 L34 466 L40 507 L187 524 L201 518 L201 180 Q201 126 223 96 Q245 66 295 66 Q327 66 363 79 Q399 92 431 112 L431 394 Q431 429 419.5 442.5 Q408 456 382 461 L353 466 L359 507 L506 524 L520 518 L520 117 Z M215 742 Q223 742 249.5 736 Q276 730 305.5 722.5 Q335 715 360 708.5 Q385 702 389 702 Q399 702 407.5 708 Q416 714 434 740 L471 720 Q460 688 449 668 Q438 648 427.5 636.5 Q417 625 407.5 620.5 Q398 616 389 616 Q383 616 358 622.5 Q333 629 303.5 636.5 Q274 644 248.5 650.5 Q223 657 215 657 Q207 657 197.5 651 Q188 645 169 622 L134 640 Q157 694 175.5 718 Q194 742 215 742 Z " />
<glyph glyph-name="Umacron" unicode="&#x16a;" horiz-adv-x="749" d="M563 614 Q563 652 555.5 662 Q548 672 527 674 L488 677 L488 724 L706 724 L706 678 L667 674 Q643 672 636 657.5 Q629 643 629 612 L629 245 Q629 180 610.5 131.5 Q592 83 559 51.5 Q526 20 480.5 4.5 Q435 -11 381 -11 Q295 -11 243.5 13 Q192 37 164.5 76 Q137 115 128.5 164.5 Q120 214 120 265 L120 602 Q120 642 112.5 656.5 Q105 671 73 674 L43 677 L43 724 L289 724 L289 677 L247 673 Q227 671 221.5 658.5 Q216 646 216 613 L216 255 Q216 154 252.5 100.5 Q289 47 382 47 Q424 47 458 58 Q492 69 515 94 Q538 119 550.5 158.5 Q563 198 563 255 L563 614 Z M223 892 L532 892 L532 815 L223 815 L223 892 Z " />
<glyph glyph-name="umacron" unicode="&#x16b;" horiz-adv-x="631" d="M520 117 Q520 82 531 68.5 Q542 55 569 50 L594 46 L592 4 L466 -7 L452 -1 L439 70 Q401 35 358 12 Q315 -11 261 -11 Q230 -11 202.5 -2 Q175 7 155 28 Q135 49 123.5 84 Q112 119 112 170 L112 394 Q112 429 100.5 442.5 Q89 456 63 461 L34 466 L40 507 L187 524 L201 518 L201 180 Q201 126 223 96 Q245 66 295 66 Q327 66 363 79 Q399 92 431 112 L431 394 Q431 429 419.5 442.5 Q408 456 382 461 L353 466 L359 507 L506 524 L520 518 L520 117 Z M144 706 L447 706 L447 630 L144 630 L144 706 Z " />
<glyph glyph-name="Ubreve" unicode="&#x16c;" horiz-adv-x="749" d="M563 614 Q563 652 555.5 662 Q548 672 527 674 L488 677 L488 724 L706 724 L706 678 L667 674 Q643 672 636 657.5 Q629 643 629 612 L629 245 Q629 180 610.5 131.5 Q592 83 559 51.5 Q526 20 480.5 4.5 Q435 -11 381 -11 Q295 -11 243.5 13 Q192 37 164.5 76 Q137 115 128.5 164.5 Q120 214 120 265 L120 602 Q120 642 112.5 656.5 Q105 671 73 674 L43 677 L43 724 L289 724 L289 677 L247 673 Q227 671 221.5 658.5 Q216 646 216 613 L216 255 Q216 154 252.5 100.5 Q289 47 382 47 Q424 47 458 58 Q492 69 515 94 Q538 119 550.5 158.5 Q563 198 563 255 L563 614 Z M545 931 Q531 860 492.5 819.5 Q454 779 382 779 Q310 779 271.5 820 Q233 861 219 931 L260 951 Q275 908 310 887.5 Q345 867 382 867 Q417 867 452 886.5 Q487 906 504 951 L545 931 Z " />
<glyph glyph-name="ubreve" unicode="&#x16d;" horiz-adv-x="631" d="M520 117 Q520 82 531 68.5 Q542 55 569 50 L594 46 L592 4 L466 -7 L452 -1 L439 70 Q401 35 358 12 Q315 -11 261 -11 Q230 -11 202.5 -2 Q175 7 155 28 Q135 49 123.5 84 Q112 119 112 170 L112 394 Q112 429 100.5 442.5 Q89 456 63 461 L34 466 L40 507 L187 524 L201 518 L201 180 Q201 126 223 96 Q245 66 295 66 Q327 66 363 79 Q399 92 431 112 L431 394 Q431 429 419.5 442.5 Q408 456 382 461 L353 466 L359 507 L506 524 L520 518 L520 117 Z M305 666 Q343 666 370 689 Q397 712 420 769 L462 752 Q447 671 407.5 627 Q368 583 304 583 Q234 583 198 625 Q162 667 148 752 L188 769 Q212 709 239 687.5 Q266 666 305 666 Z " />
<glyph glyph-name="Uring" unicode="&#x16e;" horiz-adv-x="749" d="M563 614 Q563 652 555.5 662 Q548 672 527 674 L488 677 L488 724 L706 724 L706 678 L667 674 Q643 672 636 657.5 Q629 643 629 612 L629 245 Q629 180 610.5 131.5 Q592 83 559 51.5 Q526 20 480.5 4.5 Q435 -11 381 -11 Q295 -11 243.5 13 Q192 37 164.5 76 Q137 115 128.5 164.5 Q120 214 120 265 L120 602 Q120 642 112.5 656.5 Q105 671 73 674 L43 677 L43 724 L289 724 L289 677 L247 673 Q227 671 221.5 658.5 Q216 646 216 613 L216 255 Q216 154 252.5 100.5 Q289 47 382 47 Q424 47 458 58 Q492 69 515 94 Q538 119 550.5 158.5 Q563 198 563 255 L563 614 Z M518 871 Q518 840 507.5 819 Q497 798 480.5 786 Q464 774 444 769 Q424 764 405 764 Q383 764 362.5 770 Q342 776 326 788.5 Q310 801 300.5 821.5 Q291 842 291 871 Q291 902 301.5 922.5 Q312 943 328.5 955.5 Q345 968 365.5 973 Q386 978 405 978 Q455 978 486.5 951.5 Q518 925 518 871 Z M405 810 Q427 810 441 826 Q455 842 455 871 Q455 906 440 919 Q425 932 405 932 Q386 932 370.5 919.5 Q355 907 355 871 Q355 842 367.5 826 Q380 810 405 810 Z " />
<glyph glyph-name="uring" unicode="&#x16f;" horiz-adv-x="631" d="M520 117 Q520 82 531 68.5 Q542 55 569 50 L594 46 L592 4 L466 -7 L452 -1 L439 70 Q401 35 358 12 Q315 -11 261 -11 Q230 -11 202.5 -2 Q175 7 155 28 Q135 49 123.5 84 Q112 119 112 170 L112 394 Q112 429 100.5 442.5 Q89 456 63 461 L34 466 L40 507 L187 524 L201 518 L201 180 Q201 126 223 96 Q245 66 295 66 Q327 66 363 79 Q399 92 431 112 L431 394 Q431 429 419.5 442.5 Q408 456 382 461 L353 466 L359 507 L506 524 L520 518 L520 117 Z M420 683 Q420 652 409.5 631 Q399 610 382.5 598 Q366 586 346 581 Q326 576 307 576 Q285 576 264.5 582 Q244 588 228 600.5 Q212 613 202.5 633.5 Q193 654 193 683 Q193 714 203.5 734.5 Q214 755 230.5 767.5 Q247 780 267.5 785 Q288 790 307 790 Q357 790 388.5 763.5 Q420 737 420 683 Z M307 622 Q329 622 343 638 Q357 654 357 683 Q357 718 342 731 Q327 744 307 744 Q288 744 272.5 731.5 Q257 719 257 683 Q257 654 269.5 638 Q282 622 307 622 Z " />
<glyph glyph-name="Uhungarumlaut" unicode="&#x170;" horiz-adv-x="749" d="M563 614 Q563 652 555.5 662 Q548 672 527 674 L488 677 L488 724 L706 724 L706 678 L667 674 Q643 672 636 657.5 Q629 643 629 612 L629 245 Q629 180 610.5 131.5 Q592 83 559 51.5 Q526 20 480.5 4.5 Q435 -11 381 -11 Q295 -11 243.5 13 Q192 37 164.5 76 Q137 115 128.5 164.5 Q120 214 120 265 L120 602 Q120 642 112.5 656.5 Q105 671 73 674 L43 677 L43 724 L289 724 L289 677 L247 673 Q227 671 221.5 658.5 Q216 646 216 613 L216 255 Q216 154 252.5 100.5 Q289 47 382 47 Q424 47 458 58 Q492 69 515 94 Q538 119 550.5 158.5 Q563 198 563 255 L563 614 Z M290 777 L260 807 L405 981 L473 922 L473 910 L290 777 Z M457 772 L429 804 L584 970 L648 907 L648 896 L457 772 Z " />
<glyph glyph-name="uhungarumlaut" unicode="&#x171;" horiz-adv-x="631" d="M520 117 Q520 82 531 68.5 Q542 55 569 50 L594 46 L592 4 L466 -7 L452 -1 L439 70 Q401 35 358 12 Q315 -11 261 -11 Q230 -11 202.5 -2 Q175 7 155 28 Q135 49 123.5 84 Q112 119 112 170 L112 394 Q112 429 100.5 442.5 Q89 456 63 461 L34 466 L40 507 L187 524 L201 518 L201 180 Q201 126 223 96 Q245 66 295 66 Q327 66 363 79 Q399 92 431 112 L431 394 Q431 429 419.5 442.5 Q408 456 382 461 L353 466 L359 507 L506 524 L520 518 L520 117 Z M230 570 L193 590 L308 787 L399 760 L401 749 L230 570 Z M374 568 L339 591 L470 778 L560 740 L561 729 L374 568 Z " />
<glyph glyph-name="Uogonek" unicode="&#x172;" horiz-adv-x="749" d="M530 -189 Q510 -200 487 -209.5 Q464 -219 431 -219 Q382 -219 355.5 -194.5 Q329 -170 329 -132 Q329 -110 336 -92 Q343 -74 353.5 -59.5 Q364 -45 376.5 -33 Q389 -21 401 -10 Q396 -11 391 -11 Q386 -11 381 -11 Q295 -11 243.5 13 Q192 37 164.5 76 Q137 115 128.5 164.5 Q120 214 120 265 L120 602 Q120 642 112.5 656.5 Q105 671 73 674 L43 677 L43 724 L289 724 L289 677 L247 673 Q227 671 221.5 658.5 Q216 646 216 613 L216 255 Q216 154 252.5 100.5 Q289 47 382 47 Q424 47 458 58 Q492 69 515 94 Q538 119 550.5 158.5 Q563 198 563 255 L563 614 Q563 652 555.5 662 Q548 672 527 674 L488 677 L488 724 L706 724 L706 678 L667 674 Q643 672 636 657.5 Q629 643 629 612 L629 245 Q629 197 618.5 159 Q608 121 589 92 Q570 63 543.5 41.5 Q517 20 486 3 Q460 -11 438.5 -40 Q417 -69 417 -107 Q417 -156 473 -156 Q484 -156 494.5 -154.5 Q505 -153 519 -150 L530 -189 Z " />
<glyph glyph-name="uogonek" unicode="&#x173;" horiz-adv-x="631" d="M589 -195 Q573 -205 547.5 -214.5 Q522 -224 487 -224 Q476 -224 459 -220.5 Q442 -217 426.5 -207.5 Q411 -198 399.5 -180 Q388 -162 388 -132 Q388 -94 419.5 -61 Q451 -28 495 0 L461 -4 L447 2 L439 70 Q401 35 358 12 Q315 -11 261 -11 Q229 -11 202 -2 Q175 7 155 28.5 Q135 50 123.5 84.5 Q112 119 112 170 L112 394 Q112 429 100.5 442.5 Q89 456 63 461 L34 466 L40 507 L187 524 L201 518 L201 180 Q201 127 222.5 96.5 Q244 66 295 66 Q328 66 363.5 79 Q399 92 431 112 L431 394 Q431 429 419.5 442.5 Q408 456 382 461 L353 466 L359 507 L506 524 L520 518 L520 117 Q520 83 531.5 69 Q543 55 569 50 L594 46 L592 4 Q544 -15 510 -43.5 Q476 -72 476 -109 Q476 -144 505 -155 Q532 -166 578 -155 L589 -195 Z " />
<glyph glyph-name="Wcircumflex" unicode="&#x174;" horiz-adv-x="977" d="M631 0 L492 623 L487 623 L345 0 L235 0 L91 596 Q87 619 82 633.5 Q77 648 70.5 656 Q64 664 55.5 668 Q47 672 36 674 L10 677 L10 724 L253 724 L253 677 L175 666 L302 115 L307 115 L445 724 L557 724 L697 115 L702 115 L833 669 L761 677 L761 724 L967 724 L967 677 L936 674 Q910 672 901.5 660 Q893 648 885 613 L740 0 L631 0 Z M501 851 L356 776 L330 815 L463 940 L539 940 L673 814 L646 776 L501 851 Z " />
<glyph glyph-name="wcircumflex" unicode="&#x175;" horiz-adv-x="817" d="M198 0 L80 407 Q69 444 58.5 455.5 Q48 467 27 471 L12 474 L21 519 L222 519 L222 474 L156 466 L252 102 L256 102 L365 513 L471 513 L586 97 L590 97 L687 465 L618 474 L625 519 L807 519 L807 475 L793 473 Q781 471 772.5 468.5 Q764 466 758 460 Q752 454 747.5 443.5 Q743 433 738 416 L621 0 L528 0 L409 423 L405 423 L291 0 L198 0 Z M458 768 L580 601 L543 571 L417 681 L291 568 L254 598 L378 768 L458 768 Z " />
<glyph glyph-name="Ycircumflex" unicode="&#x176;" horiz-adv-x="632" d="M275 287 L99 598 Q87 621 78 635 Q69 649 61.5 657 Q54 665 46 669 Q38 673 27 675 L5 677 L5 724 L245 724 L245 677 L167 666 L334 362 L338 362 L498 666 L420 677 L420 724 L627 724 L627 677 L609 675 Q596 674 587 669.5 Q578 665 569.5 656 Q561 647 552.5 632.5 Q544 618 532 596 L371 296 L371 106 Q371 72 378.5 63.5 Q386 55 401 54 L475 48 L475 0 L171 0 L171 48 L245 54 Q260 55 267.5 63.5 Q275 72 275 106 L275 287 Z M333 851 L188 776 L162 815 L295 940 L371 940 L505 814 L478 776 L333 851 Z " />
<glyph glyph-name="ycircumflex" unicode="&#x177;" horiz-adv-x="547" d="M303 17 Q280 -39 263 -76 Q246 -113 230 -137 Q214 -161 196 -173 Q178 -185 153 -190 Q137 -193 118 -193 Q87 -193 58 -183 Q29 -173 15 -161 L38 -108 Q52 -113 71.5 -117 Q91 -121 109 -121 Q132 -121 149 -115 Q166 -109 181 -93 Q196 -77 210 -50 Q224 -23 241 18 L79 414 Q66 444 56.5 454.5 Q47 465 30 469 L6 474 L15 519 L227 519 L227 474 L158 466 L286 130 L288 130 L420 466 L346 474 L353 519 L537 519 L537 475 L522 473 Q510 472 502 468 Q494 464 487.5 456.5 Q481 449 475 436 Q469 423 461 403 L303 17 Z M325 768 L447 601 L410 571 L284 681 L158 568 L121 598 L245 768 L325 768 Z " />
<glyph glyph-name="Ydieresis" unicode="&#x178;" horiz-adv-x="632" d="M275 287 L99 598 Q87 621 78 635 Q69 649 61.5 657 Q54 665 46 669 Q38 673 27 675 L5 677 L5 724 L245 724 L245 677 L167 666 L334 362 L338 362 L498 666 L420 677 L420 724 L627 724 L627 677 L609 675 Q596 674 587 669.5 Q578 665 569.5 656 Q561 647 552.5 632.5 Q544 618 532 596 L371 296 L371 106 Q371 72 378.5 63.5 Q386 55 401 54 L475 48 L475 0 L171 0 L171 48 L245 54 Q260 55 267.5 63.5 Q275 72 275 106 L275 287 Z M163 857 Q163 888 180 903 Q197 918 227 918 Q258 918 275 903 Q292 888 292 857 Q292 794 227 794 Q197 794 180 809.5 Q163 825 163 857 Z M369 857 Q369 888 386 903 Q403 918 433 918 Q464 918 481 903 Q498 888 498 857 Q498 794 433 794 Q403 794 386 809.5 Q369 825 369 857 Z " />
<glyph glyph-name="Zacute" unicode="&#x179;" horiz-adv-x="623" d="M45 0 L45 53 L457 664 L207 664 Q174 664 163 652 Q152 640 144 613 L129 560 L67 556 L82 724 L563 724 L563 656 L167 60 L417 60 Q449 60 460.5 70 Q472 80 482 106 L509 192 L573 192 L552 0 L45 0 Z M242 776 L223 811 L398 948 L466 882 L466 863 L242 776 Z " />
<glyph glyph-name="zacute" unicode="&#x17a;" horiz-adv-x="498" d="M49 0 L49 57 L337 460 L168 460 Q143 460 135.5 451.5 Q128 443 122 418 L114 378 L45 374 L60 519 L444 519 L444 462 L156 59 L334 59 Q361 59 371 69 Q381 79 390 100 L407 147 L463 147 L449 0 L49 0 Z M213 567 L178 594 L309 775 L396 734 L396 719 L213 567 Z " />
<glyph glyph-name="Zdotaccent" unicode="&#x17b;" horiz-adv-x="623" d="M45 0 L45 53 L457 664 L207 664 Q174 664 163 652 Q152 640 144 613 L129 560 L67 556 L82 724 L563 724 L563 656 L167 60 L417 60 Q449 60 460.5 70 Q472 80 482 106 L509 192 L573 192 L552 0 L45 0 Z M380 857 Q380 825 363 809 Q346 793 314 793 Q284 793 266.5 809 Q249 825 249 857 Q249 888 266.5 903.5 Q284 919 314 919 Q345 919 362.5 903.5 Q380 888 380 857 Z " />
<glyph glyph-name="zdotaccent" unicode="&#x17c;" horiz-adv-x="498" d="M49 0 L49 57 L337 460 L168 460 Q143 460 135.5 451.5 Q128 443 122 418 L114 378 L45 374 L60 519 L444 519 L444 462 L156 59 L334 59 Q361 59 371 69 Q381 79 390 100 L407 147 L463 147 L449 0 L49 0 Z M314 692 Q314 660 297 644 Q280 628 248 628 Q218 628 200.5 644 Q183 660 183 692 Q183 723 200.5 738.5 Q218 754 248 754 Q279 754 296.5 738.5 Q314 723 314 692 Z " />
<glyph glyph-name="Zcaron" unicode="&#x17d;" horiz-adv-x="623" d="M45 0 L45 53 L457 664 L207 664 Q174 664 163 652 Q152 640 144 613 L129 560 L67 556 L82 724 L563 724 L563 656 L167 60 L417 60 Q449 60 460.5 70 Q472 80 482 106 L509 192 L573 192 L552 0 L45 0 Z M463 945 L489 906 L356 781 L280 781 L146 907 L173 945 L318 870 L463 945 Z " />
<glyph glyph-name="zcaron" unicode="&#x17e;" horiz-adv-x="498" d="M49 0 L49 57 L337 460 L168 460 Q143 460 135.5 451.5 Q128 443 122 418 L114 378 L45 374 L60 519 L444 519 L444 462 L156 59 L334 59 Q361 59 371 69 Q381 79 390 100 L407 147 L463 147 L449 0 L49 0 Z M207 586 L88 752 L123 782 L249 670 L374 781 L408 752 L288 586 L207 586 Z " />
<glyph glyph-name="longs" unicode="&#x17f;" horiz-adv-x="361" d="M65 45 Q80 47 89 50.5 Q98 54 102.5 62 Q107 70 108 85 Q109 100 109 125 L109 460 L45 460 L50 507 L109 519 L109 549 Q109 587 113.5 622.5 Q118 658 134 686.5 Q150 715 181.5 732 Q213 749 266 749 Q305 749 336 740 Q367 731 391 718 L386 611 L325 616 L315 662 Q311 679 299.5 685 Q288 691 266 691 Q231 691 214.5 670 Q198 649 198 598 L198 125 Q198 101 200 87 Q202 73 209 65 Q216 57 229 53.5 Q242 50 263 47 L303 43 L303 0 L48 0 L48 43 L65 45 Z " />
<glyph glyph-name="florin" unicode="&#x192;" horiz-adv-x="560" d="M193 526 Q213 637 262 687 Q311 737 402 737 Q444 737 478.5 727.5 Q513 718 537 704 L530 567 L477 573 L468 635 Q462 677 404 677 Q355 677 331 646.5 Q307 616 293 541 L267 402 L423 402 L414 346 L258 346 L193 -17 Q186 -55 174 -87 Q162 -119 142 -141.5 Q122 -164 93 -176.5 Q64 -189 25 -189 Q-17 -189 -50 -177.5 Q-83 -166 -98 -155 L-76 -106 Q-62 -112 -42 -117.5 Q-22 -123 4 -123 Q39 -123 63 -97.5 Q87 -72 98 -13 L163 346 L63 346 L72 402 L171 402 L193 526 Z " />
<glyph glyph-name="Aringacute" unicode="&#x1fa;" horiz-adv-x="692" d="M264 910 L245 945 L420 1082 L488 1016 L488 997 L264 910 Z M462 785 Q462 748 448 726 Q434 704 414 693 L592 133 Q600 108 606.5 93 Q613 78 619.5 69.5 Q626 61 633.5 57.5 Q641 54 653 51 L678 48 L678 0 L432 0 L432 48 L511 58 L460 230 L199 230 L147 57 L224 48 L224 0 L10 0 L10 48 L38 52 Q64 57 74.5 73 Q85 89 96 123 L284 693 Q262 705 248.5 727.5 Q235 750 235 785 Q235 816 245.5 836.5 Q256 857 272.5 869.5 Q289 882 309.5 887 Q330 892 349 892 Q399 892 430.5 865.5 Q462 839 462 785 Z M330 647 L329 647 L215 289 L441 289 L330 647 Z M299 785 Q299 758 310 742 Q321 726 344 724 L353 724 Q373 726 386 741.5 Q399 757 399 785 Q399 820 384 833 Q369 846 349 846 Q330 846 314.5 833.5 Q299 821 299 785 Z " />
<glyph glyph-name="aringacute" unicode="&#x1fb;" horiz-adv-x="524" d="M497 4 Q478 -5 462 -8 Q446 -11 429 -11 Q354 -11 342 63 Q324 33 286.5 11 Q249 -11 196 -11 Q153 -11 124 0 Q95 11 77 30 Q59 49 51.5 74.5 Q44 100 44 129 Q44 178 64.5 209.5 Q85 241 122.5 259 Q160 277 214 285 Q268 293 334 296 L334 351 Q334 411 312 435.5 Q290 460 239 460 Q197 460 164.5 452.5 Q132 445 90 428 L72 477 Q98 494 147 512 Q196 530 257 530 Q295 530 325.5 521.5 Q356 513 377.5 492.5 Q399 472 410.5 438.5 Q422 405 422 354 L422 96 Q422 65 429 55.5 Q436 46 462 43 L494 39 L497 4 Z M334 240 Q229 239 184.5 217 Q140 195 140 137 Q140 95 163 75 Q186 55 226 55 Q277 55 305.5 84.5 Q334 114 334 158 L334 240 Z M360 680 Q360 649 349.5 628 Q339 607 322.5 595 Q306 583 286 578 Q266 573 247 573 Q225 573 204.5 579 Q184 585 168 597.5 Q152 610 142.5 630.5 Q133 651 133 680 Q133 711 143.5 731.5 Q154 752 170.5 764.5 Q187 777 207.5 782 Q228 787 247 787 Q297 787 328.5 760.5 Q360 734 360 680 Z M247 619 Q269 619 283 635 Q297 651 297 680 Q297 715 282 728 Q267 741 247 741 Q228 741 212.5 728.5 Q197 716 197 680 Q197 651 209.5 635 Q222 619 247 619 Z M167 820 L148 855 L323 992 L391 926 L391 907 L167 820 Z " />
<glyph glyph-name="AEacute" unicode="&#x1fc;" horiz-adv-x="914" d="M12 0 L12 48 L41 52 Q67 57 80 73 Q93 89 110 123 L393 674 L307 685 L307 724 L836 724 L846 539 L787 541 L765 613 Q758 639 744 651.5 Q730 664 700 664 L543 664 L543 398 L777 398 L777 339 L543 339 L543 60 L720 60 Q750 60 764 71.5 Q778 83 785 109 L807 190 L864 190 L853 0 L368 0 L368 47 L409 51 Q423 53 430 56 Q437 59 441 67.5 Q445 76 445.5 91 Q446 106 446 131 L446 339 L285 339 L150 57 L225 48 L225 0 L12 0 Z M446 651 L441 651 L314 398 L446 398 L446 651 Z M516 782 L497 817 L672 954 L740 888 L740 869 L516 782 Z " />
<glyph glyph-name="aeacute" unicode="&#x1fd;" horiz-adv-x="798" d="M753 56 Q710 23 664.5 6 Q619 -11 566 -11 Q513 -11 464.5 8 Q416 27 376 83 Q366 65 349 48.5 Q332 32 310.5 18.5 Q289 5 262.5 -3 Q236 -11 206 -11 Q161 -11 131 0 Q101 11 82.5 30 Q64 49 56.5 74.5 Q49 100 49 129 Q49 178 69.5 209.5 Q90 241 127.5 259 Q165 277 219 285 Q273 293 339 296 L339 351 Q339 411 317 435.5 Q295 460 244 460 Q202 460 169.5 452.5 Q137 445 95 428 L77 477 Q103 494 152 512 Q201 530 262 530 Q312 530 348.5 514 Q385 498 405 456 Q437 499 478.5 514.5 Q520 530 562 530 Q604 530 640 517 Q676 504 702 475.5 Q728 447 743 402.5 Q758 358 758 295 Q758 266 755 243 L427 243 Q429 157 472 110 Q515 63 587 63 Q629 63 660 71.5 Q691 80 728 99 L753 56 Z M664 303 Q669 388 639 430 Q609 472 555 472 Q531 472 509 463.5 Q487 455 469.5 435.5 Q452 416 440.5 383.5 Q429 351 426 303 L664 303 Z M339 240 Q234 239 189.5 217 Q145 195 145 137 Q145 95 168 75 Q191 55 231 55 Q282 55 310.5 84.5 Q339 114 339 158 L339 240 Z M372 567 L337 594 L468 775 L555 734 L555 719 L372 567 Z " />
<glyph glyph-name="Oslashacute" unicode="&#x1fe;" horiz-adv-x="700" d="M291 782 L272 817 L447 954 L515 888 L515 869 L291 782 Z M28 -42 L118 90 Q80 140 62.5 207.5 Q45 275 45 352 Q45 432 64.5 502 Q84 572 123.5 624.5 Q163 677 224 707 Q285 737 368 737 Q419 737 459 724 Q499 711 531 688 L587 767 L663 767 L576 644 Q618 593 636.5 522.5 Q655 452 655 371 Q655 289 636.5 218.5 Q618 148 580 97 Q542 46 483 17 Q424 -12 344 -12 Q286 -12 241.5 3 Q197 18 162 45 L103 -42 L28 -42 Z M351 50 Q391 50 427 66.5 Q463 83 490.5 119.5 Q518 156 534 215.5 Q550 275 550 362 Q550 428 541.5 477.5 Q533 527 518 564 L213 109 Q240 77 275 63.5 Q310 50 351 50 Z M151 361 Q151 298 158 251.5 Q165 205 179 170 L483 621 Q458 650 426.5 662.5 Q395 675 357 675 Q315 675 278 658.5 Q241 642 212.5 605 Q184 568 167.5 508 Q151 448 151 361 Z " />
<glyph glyph-name="oslashacute" unicode="&#x1ff;" horiz-adv-x="558" d="M223 567 L188 594 L319 775 L406 734 L406 719 L223 567 Z M275 -11 Q194 -11 141 25 L83 -52 L11 -52 L98 66 Q71 101 58 150.5 Q45 200 45 260 Q45 321 61.5 371 Q78 421 109 456 Q140 491 185 510.5 Q230 530 287 530 Q363 530 416 496 L476 577 L548 577 L458 456 Q487 421 500 371 Q513 321 513 261 Q513 199 498 148.5 Q483 98 453 62.5 Q423 27 378.5 8 Q334 -11 275 -11 Z M280 45 Q342 45 379 96.5 Q416 148 416 261 Q416 296 412 326 Q408 356 400 379 L189 84 Q224 45 280 45 Z M142 260 Q142 186 158 141 L369 435 Q336 472 282 472 Q218 472 180 421.5 Q142 371 142 260 Z " />
</font>
</svg>
