<?xml version="1.0" encoding="utf-8"?>
<!-- Generator: Adobe Illustrator 16.0.3, SVG Export Plug-In . SVG Version: 6.00 Build 0)  -->
<!DOCTYPE svg PUBLIC "-//W3C//DTD SVG 1.1//EN" "http://www.w3.org/Graphics/SVG/1.1/DTD/svg11.dtd">
<svg version="1.1" id="Capa_1" xmlns="http://www.w3.org/2000/svg" xmlns:xlink="http://www.w3.org/1999/xlink" x="0px" y="0px"
	 width="463.375px" height="414px" viewBox="0 0 463.375 414" enable-background="new 0 0 463.375 414" xml:space="preserve">
<rect id="backgroundrect" fill="none" width="736" height="414"/>
<g>
	<title>Layer 1</title>
	<rect id="svg_1" y="2.117" opacity="0.6" fill="#EFEFEF" enable-background="new    " width="463.375" height="411.766"/>
	<g id="svg_2" opacity="0.3" enable-background="new    ">
		<path id="svg_3" fill="#AFAFAF" d="M222.19,137.917c-39.3,0-71.2,31.9-71.2,71.2s31.9,71.2,71.2,71.2s71.2-31.9,71.2-71.2
			S261.49,137.917,222.19,137.917z M159.09,187.517c3.4-10.3,8.4-17.7,15.1-24.6c5.3-5.5,11.4-10,18.2-13.3c9.2-4.6,19.3-7,29.6-6.9
			c5.601,0,11.101,0.7,16.5,2.1c14.2,3.6,26.7,11.8,35.7,23.3c-19.6,26.2-52,35.8-64.9,39.3c-2.899-7.5-10.199-12.4-18.199-12.3
			c-10.7,0.1-19.301,8.8-19.2,19.5c0.1,10.7,8.8,19.3,19.5,19.2c10.7-0.101,19.3-8.8,19.2-19.5c0-0.101,0-0.2,0-0.3
			c23-7.8,0.1-0.101,22.899-7.7c-2.8,12.6-8.899,19.8-15,24.899c-10.6,8.801-22.899,9.601-27.1,9.601
			C177.59,240.817,146.09,227.217,159.09,187.517z M221.89,275.617c-2.7,0-5.4-0.3-8.101-0.7c-16.199-2.399,32.7-28.2,41-72.1
			c11.2-0.9,22.5-0.2,33.601,2l0,0l0,0l0,0c0.1,1.4,0.1,2.899,0.1,4.3C288.29,245.917,258.49,275.617,221.89,275.617z"/>
	</g>
</g>
</svg>
