<?xml version="1.0" encoding="UTF-8" standalone="no"?>
<!-- Generator: Adobe Illustrator 19.2.1, SVG Export Plug-In  -->
<svg style="enable-background:new 0 0 160.39 39.141" xmlns="http://www.w3.org/2000/svg" xml:space="preserve" height="39.141px" width="160.39px" version="1.1" y="0px" x="0px" xmlns:xlink="http://www.w3.org/1999/xlink" viewBox="0 0 160.39 39.141">
<style type="text/css">
	.st0{fill:#D80026;}
</style>
	<path class="st0" d="m28.324 36.656c-2.908 1.686-6.912 2.485-10.79 2.485-12.729 0-17.534-8.302-17.534-17.913 0-10.958 6.069-19.388 18.504-19.388 3.204 0 7.376 1.054 10.243 2.866l-0.507 9.314-3.583-0.379-0.716-3.92c-0.38-2.444-2.108-3.919-5.395-3.919-6.112 0-9.863 5.479-9.863 14.626 0 9.863 3.372 14.753 9.653 14.753 3.667 0 5.016-0.885 5.732-3.666l0.927-3.247h3.794l-0.465 8.388zm12.73-4.553c0 3.245 0.169 3.666 1.938 3.962l0.97 0.168v2.318h-13.572v-2.318l1.054-0.168c1.77-0.296 1.939-0.591 1.939-3.92v-25.205c0-2.193-0.548-2.656-2.276-3.077l-0.928-0.253 0.295-2.193h10.58v30.686zm28.155 6.322c-1.56 0.463-3.035 0.716-4.51 0.716-4.047 0-5.1-1.769-5.48-3.497-1.264 1.728-3.287 3.497-7.334 3.497-6.07 0-7.165-4.256-7.165-7.207 0-7.754 8.051-7.84 14.12-8.049v-3.205c0-2.487-1.012-4.13-3.92-4.13-2.571 0-5.057 0.885-7.503 2.023l-1.559-3.203c1.644-1.096 5.648-3.541 11.085-3.541 6.618 0 9.568 2.107 9.568 9.905v11.76c0 2.065 0.295 2.402 1.981 2.614l0.717 0.084v2.233zm-10.368-11.506c-4.215-0.127-6.534 0.8-6.534 3.793 0 2.318 1.224 3.499 3.205 3.499 1.897 0 3.33-0.885 3.33-2.781v-4.511zm22.38 5.184c0 3.245 0.253 3.666 2.067 3.878l1.769 0.211v2.36h-14.33v-2.36l0.927-0.169c1.769-0.337 1.897-0.589 1.897-3.919v-13.658c0-1.981-0.337-2.951-2.066-3.287l-1.054-0.212 0.169-2.403h9.23l0.505 0.295 0.632 3.71c1.602-2.782 3.583-4.72 6.323-4.72 1.012 0 1.939 0.168 2.825 0.421l-0.59 8.809h-0.632c-3.667-2.192-6.07-2.739-7.673-2.023v13.067zm20.859 0c0 3.245 0.253 3.666 2.024 3.962l0.969 0.168v2.318h-13.985v-2.318l1.053-0.168c1.813-0.296 2.234-0.591 2.234-3.92v-13.657c0-2.318-0.506-2.95-2.234-3.372l-0.716-0.169 0.168-2.403h9.99l0.505 0.295v19.264zm14.93 0c0 3.245-0.042 3.666 1.77 4.045l0.591 0.085v2.318h-12.814v-2.318l0.757-0.168c1.813-0.296 2.025-0.632 2.025-3.962v-13.615c0-2.191-0.337-2.95-2.108-3.329l-1.012-0.212 0.17-2.403h9.44l0.508 0.295 0.379 2.992c2.234-2.275 5.016-4.003 8.556-4.003 4.257 0 6.87 2.486 6.87 8.303v11.972c0 3.204 0.168 3.75 1.981 3.962l0.926 0.168v2.318h-12.812v-2.318l0.632-0.085c1.517-0.252 1.601-0.841 1.601-3.749v-11.466c0-2.867-1.138-3.71-3.33-3.71-1.98 0-3.541 0.548-4.131 0.927v13.953zm-12.19-28.156l0.044-0.548-5.48-3.373-6.617 7.84 2.36 2.108 9.697-6.027z"/>
		<path class="st0" d="m150 12.058c-4.319 1.455 0.026-0.009-4.339 1.469 0 0.018-0.001 0.029-0.001 0.048 0 2.01-1.628 3.64-3.638 3.64-2.011 0-3.641-1.63-3.641-3.64 0-2.011 1.63-3.639 3.641-3.639 1.549 0 2.864 0.974 3.39 2.339 2.454-0.668 8.586-2.486 12.304-7.456-1.695-2.169-4.094-3.746-6.774-4.422-1.091-0.275-2.069-0.389-3.137-0.397-1.998-0.015-3.905 0.461-5.611 1.315-1.307 0.653-2.453 1.494-3.451 2.527-1.259 1.307-2.225 2.717-2.861 4.662-2.459 7.52 3.508 10.092 6.13 10.092 0.803 0 3.12-0.153 5.134-1.819 1.17-0.97 2.33-2.331 2.86-4.719zm10.37-0.257c-3.255-0.668-5.778-0.432-6.361-0.388-1.574 8.307-10.832 13.21-7.765 13.655 0.568 0.083 1.209 0.121 1.535 0.119 1.549-0.011 2.958-0.246 4.479-0.818 3.369-1.27 6.625-4.239 7.745-8.705 0.259-1.031 0.361-1.883 0.385-3.049 0.01-0.269 0.01-0.541-0.01-0.814z"/>
</svg>
