<?xml version="1.0" standalone="no"?>
<!DOCTYPE svg PUBLIC "-//W3C//DTD SVG 1.1//EN" "http://www.w3.org/Graphics/SVG/1.1/DTD/svg11.dtd" >
<svg xmlns="http://www.w3.org/2000/svg" xmlns:xlink="http://www.w3.org/1999/xlink" version="1.1">
<metadata>
Created by FontForge 20170910 at Fri Jul 22 19:11:43 2016
 By Jimmy Wärting
Copyright (c) 2016 by TypeTogether. All rights reserved.
</metadata>
<defs>
<font id="PortadaLt" horiz-adv-x="500" >
  <font-face 
    font-family="Portada Lt"
    font-weight="300"
    font-stretch="normal"
    units-per-em="1000"
    panose-1="2 0 5 3 6 0 0 2 0 4"
    ascent="755"
    descent="-245"
    x-height="516"
    cap-height="724"
    bbox="-154 -288 1001 1060"
    underline-thickness="50"
    underline-position="-100"
    stemh="51"
    stemv="69"
    unicode-range="U+000D-FB04"
  />
<missing-glyph 
 />
    <glyph glyph-name="ff" unicode="ff" horiz-adv-x="661" 
d="M359 36l20 4c38 8 46 12 46 80v345h-239v-346c0 -64 4 -72 47 -78l41 -5v-36h-229v36l31 5c39 6 41 15 41 78v346h-63l4 39l59 12c0 102 18 207 179 207c46 0 110 -12 146 -51c22 56 70 77 126 77c49 0 86 -13 118 -31l-4 -107l-46 5l-10 50c-6 26 -24 33 -58 33
c-49 0 -74 -25 -74 -101v-82h152l-5 -51h-147v-345c0 -70 6 -71 58 -78l49 -6v-36h-242v36zM186 560v-44h239v61c0 62 -52 96 -129 96c-66 0 -110 -26 -110 -113z" />
    <glyph glyph-name="fi" unicode="fi" horiz-adv-x="607" 
d="M492 505v-384c0 -65 3 -75 34 -79l42 -6v-36h-223v36l39 6c36 5 39 15 39 79v294c0 54 -29 50 -95 50h-142v-346c0 -64 4 -72 47 -78l35 -5v-36h-223v36l31 5c39 6 41 15 41 78v346h-63l4 39l59 12v65c0 98 54 168 186 168c42 0 102 -11 132 -31l-5 -112l-46 5l-11 54
c-5 27 -32 34 -72 34c-67 0 -115 -25 -115 -122v-61h290z" />
    <glyph glyph-name="fl" unicode="fl" horiz-adv-x="610" 
d="M494 733v-612c0 -64 2 -75 34 -79l41 -6v-36h-222v36l39 6c36 5 39 15 39 79v504c0 45 -32 74 -120 74c-70 0 -119 -24 -119 -129v-54h157l-5 -51h-152v-346c0 -63 4 -71 47 -78l36 -5v-36h-224v36l31 5c39 6 41 15 41 78v346h-63l4 39l59 12v59c0 90 47 174 179 174
c59 0 98 -13 115 -19l65 15z" />
    <glyph glyph-name="ffi" unicode="ffi" horiz-adv-x="916" 
d="M45 36l31 5c39 6 41 15 41 78v346h-63l4 39l59 12c0 117 28 207 179 207c50 0 116 -13 152 -51c18 33 62 77 156 77c39 0 104 -9 139 -31l-5 -111l-46 4l-10 53c-5 26 -38 35 -75 35c-65 0 -113 -25 -113 -130v-53h291l15 -9v-387c0 -64 3 -74 34 -78l41 -6v-36h-222v36
l39 6c36 5 39 15 39 78v286c0 68 -32 59 -114 59h-123v-346c0 -64 4 -72 47 -78l46 -5v-36h-235v36l32 5c39 6 41 15 41 78v346h-239v-346c0 -64 4 -72 47 -78l46 -5v-36h-234v36zM425 516v62c0 61 -50 95 -122 95c-81 0 -117 -29 -117 -127v-30h239z" />
    <glyph glyph-name="ffl" unicode="ffl" horiz-adv-x="918" 
d="M425 516v62c0 61 -50 95 -122 95c-81 0 -117 -29 -117 -127v-30h239zM352 0v36l32 5c39 6 41 15 41 78v346h-239v-346c0 -64 4 -72 47 -78l46 -5v-36h-234v36l31 5c39 6 41 15 41 78v346h-63l4 39l59 12c0 117 28 207 179 207c50 0 116 -13 152 -51c18 33 62 77 156 77
c59 0 98 -13 115 -19l65 15l18 -12v-612c0 -64 2 -75 34 -79l41 -6v-36h-222v36l39 6c36 5 39 15 39 79v504c0 45 -32 74 -120 74c-70 0 -119 -24 -119 -129v-54h157l-5 -51h-152v-346c0 -63 4 -71 47 -78l36 -5v-36h-225z" />
    <glyph glyph-name="t_t" unicode="tt" horiz-adv-x="689" 
d="M646 66l18 -40c-33 -21 -76 -37 -124 -37c-70 0 -110 37 -110 135v341h-252v-323c0 -67 11 -97 62 -97c33 0 64 10 85 21l18 -40c-33 -21 -76 -37 -124 -37c-70 0 -110 37 -110 135v341h-85l5 39l83 12l24 120h42v-120h255l24 120h42v-120h137l-7 -51h-130v-323
c0 -67 11 -97 62 -97c33 0 64 10 85 21z" />
    <glyph glyph-name="f_iacute" unicode="f&#xed;" horiz-adv-x="617" 
d="M45 36l31 5c39 6 41 15 41 78v346h-68l4 39l64 12v57c0 86 19 176 145 176c49 0 84 -10 114 -27l-4 -109l-45 5l-11 54c-5 24 -21 28 -53 28c-53 0 -77 -27 -77 -104v-80h300l16 -8v-388c0 -64 3 -74 34 -78l42 -6v-36h-223v36l39 6c36 5 39 15 39 78v283
c0 46 -14 62 -50 62h-197v-346c0 -70 7 -72 70 -79l38 -4v-36h-249v36zM603 721l-176 -153l-30 23l134 179l72 -36v-13z" />
    <glyph glyph-name=".notdef" 
 />
    <glyph glyph-name=".null" horiz-adv-x="0" 
 />
    <glyph glyph-name=".null" horiz-adv-x="0" 
 />
    <glyph glyph-name="CR" unicode="&#xd;" 
 />
    <glyph glyph-name="space" unicode=" " horiz-adv-x="185" 
 />
    <glyph glyph-name="uni00A0" unicode="&#xa0;" horiz-adv-x="190" 
 />
    <glyph glyph-name="quotesingle" unicode="'" horiz-adv-x="180" 
d="M117 445h-55v279h55v-279z" />
    <glyph glyph-name="quotedbl" unicode="&#x22;" horiz-adv-x="311" 
d="M189 445h-67v279h67v-279z" />
    <glyph glyph-name="numbersign" unicode="#" horiz-adv-x="666" 
d="M399 0h-53l34 207h-166l-33 -207h-53l34 207h-109l8 52h110l38 235h-108l9 52h108l29 178h53l-30 -178h166l29 178h53l-29 -178h106l-8 -52h-107l-39 -235h110l-6 -52h-112zM389 259l38 235h-165l-39 -235h166z" />
    <glyph glyph-name="ampersand" unicode="&#x26;" horiz-adv-x="749" 
d="M706 35l3 -33c-16 -7 -35 -13 -62 -13c-55 0 -82 16 -126 67l-24 28c-49 -58 -119 -95 -214 -95c-181 0 -223 123 -223 194c0 128 97 190 180 212c-46 61 -66 104 -66 163c0 124 93 179 194 179c70 0 132 -18 164 -40l-7 -141l-46 5l-15 75c-6 29 -25 49 -98 49
c-80 0 -119 -47 -119 -113c0 -44 18 -89 52 -130l200 -243c19 54 30 127 29 194l60 -8c2 -45 -7 -145 -48 -236l18 -19c63 -72 78 -89 115 -92zM462 127l-193 232c-89 -28 -134 -86 -134 -165c0 -114 91 -148 156 -148c78 0 134 34 171 81z" />
    <glyph glyph-name="asterisk" unicode="*" horiz-adv-x="473" 
d="M282 724l-36 -144l133 66l36 -77l-9 -8l-156 -8l116 -102l-60 -60l-10 7l-62 139l-63 -139l-10 -7l-60 60l114 101l-156 10l-9 8l36 77l133 -67l-26 143l84 12z" />
    <glyph glyph-name="comma" unicode="," horiz-adv-x="221" 
d="M171 31c0 -51 -28 -125 -98 -167l-21 26c34 29 52 59 57 100c-40 2 -61 24 -61 53c0 40 26 58 59 58c38 0 64 -19 64 -70z" />
    <glyph glyph-name="hyphen" unicode="-" horiz-adv-x="336" 
d="M296 250h-261v60h261v-60z" />
    <glyph glyph-name="period" unicode="." horiz-adv-x="233" 
d="M177 46c0 -38 -22 -57 -63 -57c-37 0 -60 18 -60 56c0 36 23 55 60 55c38 0 63 -19 63 -54z" />
    <glyph glyph-name="colon" unicode=":" horiz-adv-x="233" 
d="M177 46c0 -38 -22 -57 -63 -57c-37 0 -60 18 -60 56c0 36 23 55 60 55c38 0 63 -19 63 -54zM177 420c0 -38 -22 -57 -63 -57c-37 0 -60 18 -60 56c0 36 23 55 60 55c38 0 63 -19 63 -54z" />
    <glyph glyph-name="semicolon" unicode=";" horiz-adv-x="239" 
d="M176 31c0 -51 -28 -125 -98 -167l-21 26c34 29 52 59 57 100c-40 2 -61 24 -61 53c0 40 26 58 59 58c38 0 64 -19 64 -70zM184 420c0 -38 -22 -57 -63 -57c-37 0 -60 18 -60 56c0 36 23 55 60 55c38 0 63 -19 63 -54z" />
    <glyph glyph-name="question" unicode="?" horiz-adv-x="461" 
d="M147 151l-14 118c-18 136 197 154 197 307c0 82 -63 105 -127 105c-47 0 -93 -13 -130 -36l-23 45c41 29 100 47 166 47c124 0 191 -58 191 -158c0 -187 -206 -208 -206 -315v-113h-54zM230 39c0 -36 -20 -54 -58 -54c-35 0 -57 18 -57 52s22 52 57 52s58 -18 58 -50z
" />
    <glyph glyph-name="exclam" unicode="!" horiz-adv-x="258" 
d="M143 176h-34l-20 314v234h75v-234zM187 39c0 -36 -20 -54 -59 -54c-35 0 -57 18 -57 52s22 52 57 52c36 0 59 -18 59 -50z" />
    <glyph glyph-name="exclamdown" unicode="&#xa1;" horiz-adv-x="258" 
d="M116 365h34l20 -314v-234h-75v234zM72 502c0 36 20 54 59 54c35 0 57 -18 57 -52s-22 -52 -57 -52c-36 0 -59 18 -59 50z" />
    <glyph glyph-name="questiondown" unicode="&#xbf;" horiz-adv-x="461" 
d="M308 397l14 -118c18 -136 -197 -154 -197 -307c0 -82 63 -105 127 -105c47 0 93 13 130 36l23 -45c-41 -29 -100 -47 -166 -47c-124 0 -191 58 -191 158c0 187 206 208 206 315v113h54zM225 509c0 36 20 54 58 54c35 0 57 -18 57 -52s-22 -52 -57 -52s-58 18 -58 50z" />
    <glyph glyph-name="at" unicode="@" horiz-adv-x="843" 
d="M592 -31l16 -40c-37 -23 -111 -51 -216 -51c-190 0 -330 116 -330 341c0 211 147 379 380 379c207 0 337 -108 337 -306c0 -156 -79 -254 -194 -254c-65 0 -95 29 -106 67c-32 -34 -75 -67 -127 -67c-64 0 -106 49 -106 139c0 159 77 268 214 268c54 0 89 -12 124 -28
l-36 -218c-3 -16 -4 -30 -4 -39c-3 -34 0 -75 55 -75c57 0 119 53 119 208c0 134 -75 255 -282 255c-209 0 -311 -162 -311 -326c0 -195 105 -294 283 -294c72 0 139 21 184 41zM478 153l37 232c-19 10 -42 12 -60 12c-92 0 -140 -84 -140 -213c0 -62 16 -91 64 -91
c35 0 83 36 99 60z" />
    <glyph glyph-name="A" unicode="A" horiz-adv-x="681" 
d="M297 724h85l195 -597c22 -66 30 -78 62 -84l28 -4v-39h-226v39l81 11l-61 197h-265l-63 -197l82 -11v-39h-206v39l30 5c33 6 41 25 57 73zM444 297l-115 360h-1l-116 -360h232z" />
    <glyph glyph-name="B" unicode="B" horiz-adv-x="631" 
d="M214 52h124c121 0 171 49 171 146c0 106 -67 148 -160 148h-135v-294zM214 397h83c113 0 166 50 166 141c0 87 -45 134 -146 134h-103v-275zM58 724h277c143 0 204 -74 204 -176c0 -96 -55 -141 -113 -168v-2c114 -19 159 -92 159 -183c0 -140 -96 -195 -252 -195h-276
v39l46 6c35 5 38 11 38 78v483c0 58 -6 69 -40 74l-43 5v39z" />
    <glyph glyph-name="C" unicode="C" horiz-adv-x="620" 
d="M574 167l-8 -137c-20 -12 -87 -41 -198 -41c-163 0 -319 87 -319 373c0 217 110 375 341 375c88 0 163 -24 178 -33l-6 -151l-45 3l-15 75c-8 41 -43 54 -115 54c-137 0 -262 -77 -262 -323c0 -261 137 -319 250 -319c99 0 124 23 133 54l20 70h46z" />
    <glyph glyph-name="D" unicode="D" horiz-adv-x="711" 
d="M214 51h92c218 0 280 146 280 325c0 201 -86 296 -242 296h-130v-621zM58 724h275c240 0 331 -133 331 -349c0 -213 -94 -375 -374 -375h-233v39l46 6c33 5 38 9 38 71v489c0 58 -5 71 -40 75l-43 5v39z" />
    <glyph glyph-name="E" unicode="E" horiz-adv-x="591" 
d="M506 724l10 -178c-15 0 -30 1 -45 1l-21 72c-12 40 -25 54 -68 54h-167v-279h232v-51h-232v-292h187c40 0 54 14 65 52l22 81h44l-10 -184h-466v39l46 6c36 5 38 12 38 79v482c0 58 -6 69 -40 73l-43 6v39h448z" />
    <glyph glyph-name="F" unicode="F" horiz-adv-x="562" 
d="M214 337v-214c0 -62 6 -68 41 -72l98 -11v-40h-296v39l46 6c34 5 38 14 38 68v492c0 58 -5 70 -39 74l-44 6v39h454l9 -183l-45 1l-22 78c-9 34 -20 53 -61 53h-179v-285h239v-51h-239z" />
    <glyph glyph-name="G" unicode="G" horiz-adv-x="663" 
d="M500 100v115c0 58 -5 70 -39 74l-72 7v40h250v-39l-34 -4c-30 -4 -32 -16 -32 -74v-186c-67 -35 -142 -44 -203 -44c-216 0 -321 140 -321 365c0 255 131 383 333 383c100 0 165 -24 186 -33l-6 -151l-45 4l-13 71c-9 42 -40 56 -121 56c-169 0 -258 -115 -258 -323
c0 -246 119 -320 251 -320c39 0 68 6 85 10c35 8 39 22 39 49z" />
    <glyph glyph-name="H" unicode="H" horiz-adv-x="771" 
d="M214 606v-212h343v206c0 65 -3 76 -35 79l-46 6v39h238v-39l-46 -6c-33 -4 -38 -11 -38 -71v-484c0 -64 6 -73 40 -78l43 -7v-39h-235v39l47 7c28 4 32 14 32 72v226h-343v-220c0 -65 1 -73 35 -78l46 -7v-39h-238v39l46 7c35 5 38 10 38 77v483c0 58 -6 69 -40 73l-43 6
v39h235v-39l-47 -6c-29 -3 -32 -15 -32 -73z" />
    <glyph glyph-name="I" unicode="I" horiz-adv-x="355" 
d="M214 606v-482c0 -65 2 -74 37 -78l45 -7v-39h-239v39l46 7c34 4 38 10 38 77v483c0 58 -5 69 -40 73l-43 6v39h236v-39l-46 -6c-30 -3 -34 -15 -34 -73z" />
    <glyph glyph-name="J" unicode="J" horiz-adv-x="476" 
d="M54 22l-10 134h52l9 -48c10 -48 23 -67 88 -67s100 23 100 116v446c0 58 -6 70 -40 75l-67 6v40h262v-39l-44 -5c-30 -3 -38 -16 -38 -74v-439c0 -149 -80 -178 -172 -178c-57 0 -117 17 -140 33z" />
    <glyph glyph-name="K" unicode="K" horiz-adv-x="712" 
d="M214 601v-240l292 313v3l-68 8v39h198v-39l-31 -3c-28 -4 -40 -18 -65 -43l-193 -210l230 -323c37 -52 49 -59 78 -63l30 -4v-39h-238v40l76 8v3l-228 327l-81 -87v-168c0 -65 1 -73 37 -78l51 -6v-39h-245v39l46 6c36 5 38 13 38 80v477c0 58 -4 73 -38 77l-45 6v39h233
v-39l-46 -6c-30 -4 -31 -20 -31 -78z" />
    <glyph glyph-name="L" unicode="L" horiz-adv-x="576" 
d="M214 604v-553h183c40 0 59 10 68 47l25 98h48l-15 -196h-466v39l46 7c35 5 38 11 38 78v482c0 58 -6 69 -41 74l-42 5v39h249v-39l-55 -6c-34 -4 -38 -17 -38 -75z" />
    <glyph glyph-name="M" unicode="M" horiz-adv-x="919" 
d="M859 724v-39l-41 -5c-30 -3 -40 -13 -40 -61v-503c0 -65 6 -67 38 -71l44 -6v-39h-231v39l38 6c30 4 38 12 38 57v520h-3l-215 -622h-71l-219 622h-4v-501c0 -56 2 -73 36 -77l43 -5v-39h-213v39l44 6c29 4 38 6 38 74v489c0 58 -7 68 -41 72l-40 5v39h180l224 -640h1
l220 640h174z" />
    <glyph glyph-name="N" unicode="N" horiz-adv-x="764" 
d="M231 724l348 -623h3v509c0 55 -5 67 -38 70l-42 5v39h219v-39l-45 -5c-32 -4 -38 -15 -38 -65v-615h-86l-351 627h-4v-512c0 -56 3 -67 35 -71l42 -5v-39h-217v39l46 5c35 4 38 13 38 78v483c0 58 -6 72 -40 75l-43 5v39h173z" />
    <glyph glyph-name="O" unicode="O" horiz-adv-x="686" 
d="M338 -11c-215 0 -288 165 -288 362c0 214 89 386 307 386c206 0 279 -164 279 -366c0 -219 -85 -382 -298 -382zM342 42c118 0 218 77 218 322c0 239 -89 319 -210 319c-119 0 -224 -78 -224 -325c0 -249 99 -316 216 -316z" />
    <glyph glyph-name="P" unicode="P" horiz-adv-x="619" 
d="M214 284v-167c0 -51 2 -62 39 -66l106 -11v-40h-302v39l46 5c36 4 38 14 38 81v489c0 49 -7 63 -41 66l-42 5v39h276c122 0 244 -33 244 -206c0 -155 -98 -234 -275 -234h-89zM214 336h92c148 0 196 79 196 182c0 112 -63 154 -181 154h-107v-336z" />
    <glyph glyph-name="Q" unicode="Q" horiz-adv-x="683" 
d="M318 -11c-194 12 -268 167 -268 364c0 231 101 384 303 384c205 0 280 -160 280 -366c0 -197 -72 -339 -231 -373v-4c70 -3 106 -26 150 -66c35 -33 72 -56 145 -55h25l6 -28c-28 -15 -69 -32 -119 -32c-66 0 -105 36 -140 90s-75 82 -151 86zM339 42
c110 0 218 79 218 319c0 239 -84 322 -209 322s-222 -87 -222 -325c0 -241 94 -316 213 -316z" />
    <glyph glyph-name="R" unicode="R" horiz-adv-x="666" 
d="M657 44l3 -32c-21 -14 -52 -23 -77 -23c-65 0 -94 30 -121 112c-54 162 -50 211 -156 211h-92v-187c0 -64 4 -76 43 -80l48 -5v-40h-248v39l46 5c36 4 38 14 38 81v480c0 56 -6 71 -41 75l-42 5v39h277c147 0 229 -62 229 -198c0 -98 -72 -166 -158 -187
c51 -16 76 -46 92 -93l42 -126c19 -58 36 -74 77 -77c11 -1 27 1 40 1zM214 671v-307h92c117 0 182 55 182 164c0 105 -71 143 -162 143h-112z" />
    <glyph glyph-name="S" unicode="S" horiz-adv-x="532" 
d="M455 555l-45 4l-13 68c-8 40 -29 57 -110 57c-104 0 -155 -54 -155 -126c0 -201 354 -89 354 -354c0 -175 -150 -215 -254 -215c-95 0 -156 22 -191 40l11 147h44l9 -68c7 -44 28 -67 134 -67c89 0 175 40 175 152c0 207 -354 100 -354 349c0 115 83 195 228 195
c61 0 127 -12 173 -36z" />
    <glyph glyph-name="T" unicode="T" horiz-adv-x="637" 
d="M355 672v-574c0 -45 10 -49 30 -51l84 -8v-39h-301v39l84 8c20 2 30 6 30 51v574h-107c-42 0 -58 -10 -67 -44l-22 -82l-46 -1l10 179h537l9 -179l-45 1l-22 80c-10 33 -24 46 -62 46h-112z" />
    <glyph glyph-name="U" unicode="U" horiz-adv-x="747" 
d="M564 256v364c0 51 -8 56 -43 61l-37 4v39h217v-39l-46 -5c-34 -4 -37 -17 -37 -63v-373c0 -178 -103 -255 -244 -255c-214 0 -247 141 -247 268v350c0 60 -6 69 -49 74l-34 4v39h234v-39l-46 -6c-28 -3 -32 -17 -32 -62v-357c0 -144 48 -217 177 -217
c116 0 187 59 187 213z" />
    <glyph glyph-name="V" unicode="V" horiz-adv-x="659" 
d="M148 674l184 -597h2l181 599l-74 9v39h199v-39l-31 -5c-35 -5 -37 -9 -50 -54l-193 -626h-85l-187 598c-21 65 -26 77 -57 83l-28 4v39h218v-39z" />
    <glyph glyph-name="W" unicode="W" horiz-adv-x="958" 
d="M712 0h-87l-146 649h-4l-150 -649h-86l-147 603c-13 62 -24 71 -54 77l-27 5v39h224v-39l-82 -11l136 -579h4l143 629h97l144 -629h5l141 582l-77 8v39h203v-39l-32 -5c-33 -4 -40 -18 -52 -64z" />
    <glyph glyph-name="X" unicode="X" horiz-adv-x="699" 
d="M119 99l187 261l-169 254c-38 57 -52 62 -79 68l-25 3v39h231v-39l-79 -10v-2l172 -262l189 262v1l-74 11v39h205v-39l-25 -3c-34 -6 -49 -20 -76 -56l-184 -256l174 -259c31 -47 47 -63 82 -68l30 -4v-39h-250v39l88 9v5l-175 264l-190 -266v-5l84 -7v-39h-219v39l24 3
c33 6 52 21 79 57z" />
    <glyph glyph-name="Y" unicode="Y" horiz-adv-x="615" 
d="M277 99v190l-178 315c-33 60 -43 70 -72 77l-22 4v39h218v-39l-82 -12l180 -321h2l172 322l-79 11v39h193v-39l-17 -4c-34 -7 -45 -22 -78 -82l-164 -305v-195c0 -45 10 -50 39 -53l62 -7v-39h-275v39l62 7c29 3 39 8 39 53z" />
    <glyph glyph-name="Z" unicode="Z" horiz-adv-x="610" 
d="M540 0h-490v46l420 626h-264c-52 0 -60 -18 -71 -54l-16 -62l-48 -4l15 172h472v-45l-419 -627h278c40 0 55 12 68 47l29 91h49z" />
    <glyph glyph-name="AE" unicode="&#xc6;" horiz-adv-x="888" 
d="M222 0h-213v39l35 6c29 6 41 21 65 69l283 563l-84 12v35h495l10 -178l-45 1l-21 73c-11 36 -23 53 -65 53h-170v-279h232v-51h-232v-292h187c41 0 56 16 66 56l21 77h44l-10 -184h-466v39l45 6c39 5 39 14 39 85v213h-156l-140 -291l80 -13v-39zM438 394v256h-4
l-125 -256h129z" />
    <glyph glyph-name="IJ" unicode="&#x132;" horiz-adv-x="831" 
d="M214 606v-482c0 -65 2 -74 37 -78l45 -7v-39h-239v39l46 7c34 4 38 10 38 77v483c0 58 -5 69 -40 73l-43 6v39h236v-39l-46 -6c-30 -3 -34 -15 -34 -73zM409 22l-10 134h52l9 -48c10 -48 23 -67 88 -67s100 23 100 116v446c0 58 -6 70 -40 75l-67 6v40h262v-39l-44 -5
c-30 -3 -38 -16 -38 -74v-439c0 -149 -80 -178 -172 -178c-57 0 -117 17 -140 33z" />
    <glyph glyph-name="Eng" unicode="&#x14a;" horiz-adv-x="764" 
d="M231 724l348 -623h3v509c0 55 -5 67 -38 70l-42 5v39h219v-39l-45 -5c-31 -4 -38 -15 -38 -65v-578c0 -134 -53 -202 -150 -261l-24 38c64 51 87 105 88 186l-351 627h-4v-512c0 -56 3 -67 35 -71l42 -5v-39h-217v39l46 5c39 5 38 16 38 108v453c0 58 -6 72 -40 75l-43 5
v39h173z" />
    <glyph glyph-name="Eth" unicode="&#xd0;" horiz-adv-x="711" 
d="M58 724h275c240 0 331 -133 331 -349c0 -213 -94 -375 -374 -375h-233v39l46 6c33 5 38 9 38 71v212h-78v50h78v227c0 58 -5 71 -40 75l-43 5v39zM214 51h92c218 0 280 146 280 325c0 201 -86 296 -242 296h-130v-294h162v-50h-162v-277z" />
    <glyph glyph-name="OE" unicode="&#x152;" horiz-adv-x="1004" 
d="M919 724l9 -178l-44 1l-21 71c-11 40 -25 55 -68 55h-259c70 -63 96 -176 99 -279h225v-51h-225c-5 -124 -40 -230 -112 -292h292c40 0 54 14 64 52l22 81h45l-11 -184h-455c-45 -4 -79 -11 -142 -11c-215 0 -288 165 -288 362c0 214 89 386 307 386c43 0 74 -8 99 -13
h463zM342 42c115 0 216 75 218 313c0 246 -86 328 -210 328c-118 0 -224 -78 -224 -325c0 -249 100 -316 216 -316z" />
    <glyph glyph-name="Thorn" unicode="&#xde;" horiz-adv-x="618" 
d="M304 170h-90v-46c0 -65 2 -73 37 -78l45 -7v-39h-239v39l46 7c34 5 38 10 38 77v483c0 58 -6 69 -40 73l-43 6v39h236v-39l-46 -5c-33 -5 -34 -19 -34 -99h120c140 0 245 -48 245 -192c0 -137 -94 -219 -275 -219zM214 222h100c130 0 188 61 188 161
c0 104 -61 146 -181 146h-107v-307z" />
    <glyph glyph-name="a" unicode="a" horiz-adv-x="515" 
d="M484 32l3 -29c-23 -10 -42 -13 -62 -13c-42 0 -75 20 -80 77c-24 -45 -81 -78 -148 -78c-104 0 -150 56 -150 139c0 112 83 160 291 166v54c0 91 -29 123 -105 123c-52 0 -90 -11 -143 -32l-15 41c37 23 104 48 175 48c94 0 157 -43 157 -170v-269c0 -40 5 -50 41 -53z
M338 159v87c-158 -2 -217 -31 -217 -111c0 -62 37 -92 94 -92c78 0 123 52 123 116z" />
    <glyph glyph-name="b" unicode="b" horiz-adv-x="574" 
d="M106 154v473c0 41 -7 54 -46 60l-37 5l6 36l129 17l17 -12v-272c39 37 91 67 159 67c121 0 194 -89 194 -260c0 -196 -88 -279 -212 -279c-63 0 -118 28 -148 59l-10 -48h-64c10 55 12 92 12 154zM175 411v-318c34 -26 79 -48 131 -48c90 0 148 65 148 216
c0 140 -45 209 -137 209c-45 0 -94 -19 -142 -59z" />
    <glyph glyph-name="c" unicode="c" horiz-adv-x="485" 
d="M422 81l23 -37c-31 -24 -90 -55 -167 -55c-151 0 -232 102 -232 264c0 186 102 275 248 275c48 0 113 -14 150 -37l-7 -142l-47 4l-13 66c-7 39 -25 57 -87 57c-93 0 -170 -57 -170 -213c0 -164 80 -216 176 -216c53 0 94 15 126 34z" />
    <glyph glyph-name="d" unicode="d" horiz-adv-x="574" 
d="M544 0h-124l-13 62c-39 -46 -98 -73 -162 -73c-131 0 -199 94 -199 263c0 190 89 276 214 276c50 0 102 -16 139 -51v149c0 41 -7 56 -46 61l-39 6l5 35l134 17l15 -11v-625c0 -47 4 -60 40 -67l36 -6v-36zM399 109v315c-32 27 -78 48 -132 48c-90 0 -147 -64 -147 -212
c0 -143 44 -215 140 -215c51 0 101 22 139 64z" />
    <glyph glyph-name="e" unicode="e" horiz-adv-x="503" 
d="M431 85l21 -39c-50 -36 -107 -57 -174 -57c-159 0 -233 114 -233 267c0 190 103 272 227 272c109 0 191 -68 191 -231c0 -20 0 -38 -2 -51h-342c3 -117 58 -198 170 -198c58 0 93 11 142 37zM120 294h269c5 119 -41 185 -121 185c-88 0 -142 -61 -148 -185z" />
    <glyph glyph-name="f" unicode="f" horiz-adv-x="353" 
d="M45 36l31 5c39 6 41 15 41 78v346h-68l4 39l64 12v57c0 86 19 176 145 176c49 0 87 -14 117 -31l-4 -109l-45 5l-11 54c-5 24 -24 32 -56 32c-53 0 -77 -27 -77 -104v-80h151l-5 -51h-146v-346c0 -70 7 -72 70 -79l38 -4v-36h-249v36z" />
    <glyph glyph-name="g" unicode="g" horiz-adv-x="502" 
d="M473 472l-72 -16c30 -36 38 -81 38 -111c0 -100 -74 -174 -193 -174c-31 0 -58 5 -76 10l-43 -91l197 -9c87 -4 155 -32 155 -117c0 -96 -91 -157 -249 -157c-100 0 -202 31 -202 117c0 41 22 76 72 110c-31 6 -40 22 -40 41c0 18 8 32 22 54l46 69
c-46 27 -80 78 -80 143c0 116 84 187 193 187c51 0 91 -14 109 -25l117 11zM369 348c0 89 -49 130 -124 130c-77 0 -126 -45 -126 -131c0 -95 60 -125 125 -125c73 0 125 38 125 126zM410 -48c0 44 -31 66 -98 68l-164 7c-23 -21 -52 -51 -52 -92c0 -45 45 -74 146 -74
c88 0 168 27 168 91z" />
    <glyph glyph-name="h" unicode="h" horiz-adv-x="634" 
d="M195 406v-285c0 -65 1 -74 35 -79l36 -6v-36h-218v36l38 6c36 6 40 12 40 79v483c0 57 -2 78 -46 84l-37 5l6 35l129 17l17 -12v-281c56 50 111 76 179 76c85 0 154 -39 154 -182v-225c0 -64 3 -74 37 -79l42 -6v-36h-218v36l37 6c31 4 33 14 33 76v221
c0 88 -35 128 -106 128c-53 0 -108 -22 -158 -61z" />
    <glyph glyph-name="i" unicode="i" horiz-adv-x="310" 
d="M199 693c0 -37 -20 -56 -54 -56c-32 0 -54 19 -54 56c0 35 22 53 54 53c33 0 54 -18 54 -53zM195 515v-395c0 -64 3 -74 34 -78l42 -6v-36h-223v36l39 6c36 5 39 15 39 78v283c0 46 -12 59 -48 64l-36 6l5 34l132 16z" />
    <glyph glyph-name="j" unicode="j" horiz-adv-x="284" 
d="M189 515v-393c0 -165 -25 -222 -149 -311l-25 35c73 63 105 119 105 239v318c0 46 -12 59 -48 64l-36 6l5 34l132 16zM197 693c0 -37 -20 -56 -54 -56c-32 0 -54 19 -54 56c0 35 22 53 54 53c33 0 54 -18 54 -53z" />
    <glyph glyph-name="k" unicode="k" horiz-adv-x="571" 
d="M192 733v-444l204 176v3l-68 8l7 40h197v-39l-25 -3c-29 -5 -40 -11 -74 -39l-125 -109l144 -216c31 -48 51 -64 78 -69l25 -5v-36h-119c-21 38 -40 68 -69 110l-114 170l-61 -53v-107c0 -64 3 -74 34 -78l42 -6v-36h-223v36l39 6c36 5 39 15 39 78v506
c0 39 -7 56 -46 62l-37 5l6 35l129 17z" />
    <glyph glyph-name="l" unicode="l" horiz-adv-x="311" 
d="M195 733v-613c0 -62 2 -74 34 -78l41 -6v-36h-222v36l39 6c36 5 39 15 39 78v506c0 42 -8 56 -46 62l-37 5l6 35l128 17z" />
    <glyph glyph-name="m" unicode="m" horiz-adv-x="932" 
d="M195 406v-285c0 -65 1 -73 34 -79l37 -6v-36h-218v36l38 6c36 6 40 12 40 79v277c0 46 -11 64 -44 69l-41 6l5 35l119 15l15 -6l9 -70c62 55 115 81 176 81c57 0 108 -20 132 -84c61 56 116 84 182 84c81 0 147 -39 147 -182v-225c0 -64 4 -74 38 -79l42 -6v-36h-218v36
l37 6c30 5 32 14 32 76v220c0 91 -34 128 -97 128c-49 0 -103 -23 -153 -60c4 -18 5 -37 5 -60v-225c0 -65 2 -74 34 -79l35 -6v-36h-206v36l36 6c30 5 32 14 32 76v220c0 91 -34 128 -95 128c-50 0 -103 -23 -153 -60z" />
    <glyph glyph-name="n" unicode="n" horiz-adv-x="634" 
d="M195 407v-286c0 -65 1 -74 35 -79l36 -6v-36h-218v36l38 6c36 6 40 12 40 79v277c0 46 -11 64 -44 69l-41 6l5 35l119 15l15 -6l9 -70c62 55 117 81 185 81c85 0 154 -39 154 -182v-225c0 -64 3 -74 37 -79l42 -6v-36h-218v36l37 6c31 4 33 14 33 76v221
c0 88 -35 128 -106 128c-53 0 -107 -23 -158 -60z" />
    <glyph glyph-name="o" unicode="o" horiz-adv-x="546" 
d="M270 -11c-153 0 -224 106 -224 269c0 168 87 270 232 270c156 0 222 -108 222 -270c0 -164 -80 -269 -230 -269zM273 39c93 0 153 69 153 221c0 145 -55 218 -150 218c-103 0 -156 -79 -156 -219c0 -149 58 -220 153 -220z" />
    <glyph glyph-name="p" unicode="p" horiz-adv-x="588" 
d="M121 -62v460c0 49 -11 64 -47 70l-37 5l5 34l115 15l16 -7l9 -61c45 44 100 74 166 74c111 0 194 -75 194 -260c0 -195 -88 -279 -212 -279c-54 0 -107 20 -140 55v-106c0 -66 4 -75 35 -78l63 -8v-35h-238v36l31 5c35 6 40 13 40 80zM190 415v-322
c37 -30 82 -49 132 -49c82 0 146 53 146 223c0 143 -53 204 -134 204c-43 0 -89 -14 -144 -56z" />
    <glyph glyph-name="q" unicode="q" horiz-adv-x="565" 
d="M539 -183h-237v35l62 8c31 3 35 11 35 77v120c-34 -37 -84 -68 -156 -68c-124 0 -197 91 -197 263c0 202 98 276 216 276c64 0 111 -25 143 -57l11 46h58c-5 -58 -6 -101 -6 -159v-421c0 -67 5 -73 39 -79l32 -5v-36zM399 108v317c-32 27 -78 48 -134 48
c-88 0 -145 -65 -145 -214c0 -144 43 -215 140 -215c47 0 97 21 139 64z" />
    <glyph glyph-name="r" unicode="r" horiz-adv-x="412" 
d="M195 398v-277c0 -65 4 -74 36 -78l60 -8v-35h-241v36l36 6c36 6 40 10 40 79v277c0 47 -11 64 -44 69l-41 6l5 35l119 15l15 -6l10 -73c35 45 79 84 142 84c17 0 41 -3 59 -13l-5 -78h-11c-31 15 -56 21 -76 21c-41 0 -75 -27 -104 -60z" />
    <glyph glyph-name="s" unicode="s" horiz-adv-x="466" 
d="M406 367l-45 7l-14 60c-6 26 -23 44 -85 44c-64 0 -118 -22 -118 -83c0 -136 283 -56 283 -246c0 -95 -72 -160 -199 -160c-72 0 -127 17 -162 35l10 135h43l13 -72c6 -33 31 -47 99 -47c79 0 128 33 128 95c0 143 -281 59 -281 246c0 93 76 147 187 147
c55 0 116 -14 146 -33z" />
    <glyph glyph-name="t" unicode="t" horiz-adv-x="368" 
d="M325 66l18 -40c-33 -21 -76 -37 -124 -37c-72 0 -110 37 -110 131v345h-85l5 39l82 12l25 120h42v-120h137l-7 -51h-130v-323c0 -67 13 -97 63 -97c33 0 63 10 84 21z" />
    <glyph glyph-name="u" unicode="u" horiz-adv-x="629" 
d="M515 516v-405c0 -48 8 -61 44 -67l34 -6l-1 -36l-101 -6l-26 3l-13 73c-51 -47 -110 -83 -181 -83c-80 0 -150 36 -150 178v235c0 45 -11 60 -48 66l-36 5l5 35l133 15l15 -7v-340c0 -75 25 -126 98 -126c55 0 108 26 158 66v286c0 45 -12 60 -49 66l-36 5l5 35l133 15z
" />
    <glyph glyph-name="v" unicode="v" horiz-adv-x="529" 
d="M307 0h-75l-161 409c-20 51 -26 59 -54 65l-14 3l8 39h177v-39l-64 -9l153 -403h2l142 403l-63 9l6 39h164v-39l-17 -2c-33 -7 -38 -13 -54 -57z" />
    <glyph glyph-name="w" unicode="w" horiz-adv-x="793" 
d="M263 0h-72l-120 410c-15 49 -23 58 -51 64l-16 3l8 39h182v-39l-68 -8l109 -390h2l121 432h84l128 -432h2l103 389l-69 9l6 39h175v-39l-16 -2c-32 -5 -41 -9 -55 -55l-119 -420h-73l-131 445h-2z" />
    <glyph glyph-name="x" unicode="x" horiz-adv-x="519" 
d="M512 0h-190v38l56 9v3l-131 172l-128 -174l73 -9v-39h-187v38l21 4c28 5 38 14 64 48l128 169l-128 171c-15 20 -30 33 -59 41l-22 6l8 39h192v-39l-65 -9v-3l121 -158l126 160v1l-68 9l7 39h171v-39l-19 -3c-28 -5 -37 -15 -63 -48l-126 -159l143 -187
c19 -25 31 -32 52 -37l24 -5v-38z" />
    <glyph glyph-name="y" unicode="y" horiz-adv-x="529" 
d="M444 406l-158 -380c-64 -155 -96 -219 -182 -219c-37 0 -75 14 -91 29l18 40c20 -8 46 -17 68 -17c59 0 86 51 137 175l-159 386c-16 38 -26 47 -45 52l-26 6l8 38h192v-39l-73 -9l139 -351h1l142 351l-76 9l6 39h178v-38l-19 -2c-31 -5 -36 -14 -60 -70z" />
    <glyph glyph-name="z" unicode="z" horiz-adv-x="486" 
d="M433 0h-381v50l293 415h-188c-38 0 -43 -10 -50 -43l-9 -41l-51 -3l14 138h368v-49l-296 -416h196c38 0 48 6 59 40l15 48h44z" />
    <glyph glyph-name="ae" unicode="&#xe6;" horiz-adv-x="794" 
d="M722 85l21 -39c-50 -36 -107 -57 -177 -57c-82 0 -147 29 -191 100c-27 -48 -81 -100 -173 -100c-107 0 -152 56 -152 139c0 112 82 160 291 166v54c0 91 -29 123 -105 123c-52 0 -91 -11 -143 -32l-15 41c37 23 104 48 175 48c66 0 117 -22 141 -84c40 61 102 84 167 84
c111 0 191 -68 191 -231c0 -21 0 -38 -2 -51h-341c3 -119 58 -198 169 -198c59 0 95 11 144 37zM409 294h271c5 119 -42 185 -126 185c-79 0 -139 -55 -145 -185zM341 159v87c-158 -2 -218 -31 -218 -111c0 -62 37 -92 94 -92c78 0 124 52 124 116z" />
    <glyph glyph-name="ij" unicode="&#x133;" horiz-adv-x="594" 
d="M199 693c0 -37 -20 -56 -54 -56c-32 0 -54 19 -54 56c0 35 22 53 54 53c33 0 54 -18 54 -53zM195 515v-395c0 -64 3 -74 34 -78l42 -6v-36h-223v36l39 6c36 5 39 15 39 78v283c0 46 -12 59 -48 64l-36 6l5 34l132 16zM499 515v-393c0 -165 -25 -222 -149 -311l-25 35
c73 63 105 119 105 239v318c0 46 -12 59 -48 64l-36 6l5 34l132 16zM507 693c0 -37 -20 -56 -54 -56c-32 0 -54 19 -54 56c0 35 22 53 54 53c33 0 54 -18 54 -53z" />
    <glyph glyph-name="eng" unicode="&#x14b;" horiz-adv-x="628" 
d="M528 346v-225c0 -165 -25 -221 -149 -310l-25 35c73 63 105 119 105 239v254c0 88 -35 128 -106 128c-53 0 -107 -23 -158 -60v-286c0 -65 1 -74 35 -79l36 -6v-36h-218v36l38 6c36 6 40 12 40 79v277c0 46 -11 64 -44 69l-41 6l5 35l119 15l15 -6l9 -70
c62 55 117 81 185 81c85 0 154 -39 154 -182z" />
    <glyph glyph-name="eth" unicode="&#xf0;" horiz-adv-x="524" 
d="M282 678l103 62l23 -38l-86 -52c104 -83 155 -207 155 -362c0 -168 -67 -299 -224 -299c-127 0 -207 100 -207 249c0 210 138 251 203 251c55 0 99 -17 133 -42c-21 52 -50 116 -114 172l-100 -61l-24 39l85 51c-28 17 -58 33 -95 46l16 42c48 -15 96 -37 132 -58z
M120 248c0 -133 56 -209 139 -209c111 0 147 111 147 223c0 61 -7 99 -14 132c-23 20 -74 45 -130 45c-97 0 -142 -88 -142 -191z" />
    <glyph glyph-name="oe" unicode="&#x153;" horiz-adv-x="885" 
d="M812 85l21 -39c-50 -36 -107 -57 -177 -57c-94 0 -158 40 -193 112c-34 -73 -102 -112 -193 -112c-153 0 -224 106 -224 269c0 168 87 270 232 270c93 0 154 -39 187 -110c38 78 109 110 186 110c111 0 193 -68 193 -231c0 -21 -1 -38 -3 -51h-340
c1 -110 53 -198 167 -198c59 0 95 11 144 37zM273 39c93 0 153 69 153 221c0 145 -55 218 -150 218c-103 0 -156 -79 -156 -219c0 -149 58 -220 153 -220zM501 294h270c5 119 -41 185 -125 185c-85 0 -139 -61 -145 -185z" />
    <glyph glyph-name="thorn" unicode="&#xfe;" horiz-adv-x="574" 
d="M117 -62v689c0 41 -8 56 -46 61l-37 5l6 35l125 17l17 -12v-275c36 37 96 70 162 70c111 0 194 -75 194 -260c0 -195 -88 -279 -212 -279c-54 0 -107 20 -140 55v-106c0 -66 4 -75 35 -78l63 -8v-35h-238v36l31 5c35 6 40 13 40 80zM186 415v-322c37 -30 82 -49 132 -49
c82 0 146 53 146 223c0 143 -53 204 -134 204c-43 0 -85 -11 -144 -56z" />
    <glyph glyph-name="germandbls" unicode="&#xdf;" horiz-adv-x="585" 
d="M119 120v346h-67l4 38l63 12v35c0 126 74 198 194 198c100 0 179 -52 179 -174c0 -108 -69 -156 -113 -172v-2c68 -14 157 -53 157 -195c0 -138 -85 -217 -206 -217c-44 0 -87 12 -105 24l12 46c19 -10 42 -21 87 -21c83 0 138 65 138 172c0 105 -61 158 -157 158h-34v50
c117 0 152 72 152 157c0 101 -61 124 -113 124c-115 0 -122 -93 -122 -182v-517h-146v37l31 4c43 6 46 10 46 79z" />
    <glyph glyph-name="dotlessi" unicode="&#x131;" horiz-adv-x="310" 
d="M195 515v-395c0 -64 3 -74 34 -78l42 -6v-36h-223v36l39 6c36 5 39 15 39 78v283c0 46 -12 59 -48 64l-36 6l5 34l132 16z" />
    <glyph glyph-name="kgreenlandic" unicode="&#x138;" horiz-adv-x="571" 
d="M192 511v-232l204 186v3l-68 8l7 40h197v-39l-25 -3c-29 -5 -40 -11 -74 -39l-125 -119l144 -206c31 -48 51 -64 78 -69l25 -5v-36h-119c-21 38 -40 68 -69 110l-112 161l-63 -54v-97c0 -64 3 -74 34 -78l42 -6v-36h-223v36l39 6c36 5 39 15 39 78v284c0 39 -7 56 -46 62
l-37 5l6 35l129 17z" />
    <glyph glyph-name="longs" unicode="&#x17f;" horiz-adv-x="353" 
d="M45 36l31 5c39 6 41 15 41 78v346h-68l4 39l64 12v57c0 86 19 176 145 176c49 0 87 -14 117 -31l-4 -109l-45 5l-11 54c-5 24 -24 32 -56 32c-53 0 -77 -27 -77 -104v-477c0 -70 7 -72 70 -79l38 -4v-36h-249v36z" />
    <glyph glyph-name="dotlessj" unicode="&#x237;" horiz-adv-x="284" 
d="M189 515v-393c0 -165 -25 -222 -149 -311l-25 35c73 63 105 119 105 239v318c0 46 -12 59 -48 64l-36 6l5 34l132 16z" />
    <glyph glyph-name="bracketleft" unicode="[" horiz-adv-x="278" 
d="M230 -183h-148v957h148v-39l-25 -2c-44 -5 -54 -9 -54 -74v-721c0 -60 1 -75 53 -80l26 -3v-38z" />
    <glyph glyph-name="bracketright" unicode="]" horiz-adv-x="278" 
d="M48 774h148v-957h-148v39l25 2c44 5 54 9 54 74v721c0 60 -1 75 -53 80l-26 3v38z" />
    <glyph glyph-name="parenleft" unicode="(" horiz-adv-x="321" 
d="M238 -141l-27 -15c-119 126 -175 308 -175 448c0 206 93 359 209 466l25 -18c-70 -94 -153 -236 -153 -439c0 -175 57 -317 121 -442z" />
    <glyph glyph-name="parenright" unicode=")" horiz-adv-x="325" 
d="M74 742l27 15c119 -126 175 -308 175 -448c0 -206 -93 -359 -209 -466l-25 18c70 94 153 236 153 439c0 175 -57 317 -121 442z" />
    <glyph glyph-name="braceleft" unicode="{" horiz-adv-x="301" 
d="M250 771l-4 -40c-59 2 -83 -12 -83 -63c0 -67 23 -200 26 -267c0 -10 0 -20 -1 -29c-2 -31 -12 -61 -48 -76c1 0 1 -1 1 -1c35 -14 45 -41 47 -74c1 -9 1 -20 1 -32c-3 -66 -25 -191 -25 -257c0 -50 24 -63 83 -61l4 -40c-21 -3 -39 -4 -51 -3c-80 2 -108 41 -108 103
c0 60 28 211 28 287c0 47 -20 55 -65 59v38c45 4 65 12 65 59c0 72 -25 214 -29 285c0 9 0 18 1 26c4 49 34 86 110 88c17 1 32 0 48 -2z" />
    <glyph glyph-name="braceright" unicode="}" horiz-adv-x="301" 
d="M50 -170l4 40c59 -2 83 12 83 63c0 67 -23 200 -26 267c0 10 0 20 1 29c2 31 12 61 48 76c-1 0 -1 1 -1 1c-35 14 -45 41 -47 74c-1 9 -1 20 -1 32c3 66 25 191 25 257c0 50 -24 63 -83 61l-4 40c21 3 39 4 51 3c80 -2 108 -41 108 -103c0 -60 -28 -211 -28 -287
c0 -47 20 -55 65 -59v-38c-45 -4 -65 -12 -65 -59c0 -72 25 -214 29 -285c0 -9 0 -18 -1 -26c-4 -49 -34 -86 -110 -88c-17 -1 -32 0 -48 2z" />
    <glyph glyph-name="backslash" unicode="\" horiz-adv-x="421" 
d="M378 -92h-60l-287 873h59z" />
    <glyph glyph-name="slash" unicode="/" horiz-adv-x="423" 
d="M97 -92h-59l288 873h57z" />
    <glyph glyph-name="brokenbar" unicode="&#xa6;" horiz-adv-x="276" 
d="M169 -143h-62v388h62v-388zM169 420h-62v335h62v-335z" />
    <glyph glyph-name="bar" unicode="|" horiz-adv-x="276" 
d="M169 -143h-62v898h62v-898z" />
    <glyph glyph-name="section" unicode="&#xa7;" horiz-adv-x="532" 
d="M454 304c0 -51 -35 -101 -83 -145c30 -20 81 -51 81 -130c0 -112 -90 -176 -212 -176c-95 0 -143 23 -170 35l7 135h48l10 -65c6 -40 38 -52 106 -52c85 0 140 35 140 109c0 140 -311 108 -311 275c0 53 32 103 84 143c-36 26 -69 64 -69 131c0 120 97 175 208 175
c62 0 122 -16 157 -34l-7 -135l-45 7l-9 49c-9 48 -18 63 -103 63c-91 0 -130 -48 -130 -107c0 -165 298 -110 298 -278zM383 288c0 34 -14 53 -95 87l-87 37c-42 -35 -61 -68 -61 -103c0 -38 17 -57 112 -98l71 -30c31 29 60 64 60 107z" />
    <glyph glyph-name="copyright" unicode="&#xa9;" horiz-adv-x="824" 
d="M753 329c0 -204 -133 -341 -342 -341c-237 0 -340 136 -340 319c0 211 145 336 342 336c217 0 340 -118 340 -314zM691 319c0 184 -122 274 -277 274s-281 -98 -281 -286c0 -169 107 -269 280 -269c165 0 278 103 278 281zM536 484l-6 -95l-36 5l-6 37
c-2 19 -10 34 -61 34c-91 0 -123 -58 -123 -153c0 -76 30 -144 122 -144c45 0 82 10 104 18l14 -33c-24 -13 -68 -33 -127 -33c-121 0 -180 80 -180 190c0 116 55 200 190 200c36 0 86 -12 109 -26z" />
    <glyph glyph-name="registered" unicode="&#xae;" horiz-adv-x="496" 
d="M431 484c0 -111 -68 -190 -185 -190c-128 0 -182 78 -182 180c0 117 75 186 192 186c113 0 175 -66 175 -176zM391 481c0 98 -51 146 -134 146c-97 0 -153 -55 -153 -153c0 -91 47 -145 144 -145s143 61 143 152zM159 384v16c12 1 19 4 19 22v116c0 14 -4 18 -19 19v18
h91c37 0 69 -7 69 -49c0 -28 -20 -45 -43 -51c13 -3 21 -11 26 -26l11 -30c5 -15 12 -14 22 -17v-16s-9 -5 -25 -5c-18 0 -32 6 -39 30l-7 26c-5 16 -16 20 -31 20h-14v-36c0 -16 6 -20 22 -21v-16h-82zM219 550v-68h15c24 0 41 9 41 37c0 26 -16 31 -36 31h-20z" />
    <glyph glyph-name="trademark" unicode="&#x2122;" horiz-adv-x="897" 
d="M818 659v-231c0 -30 10 -32 27 -35l11 -2v-31h-142v31l19 2c16 2 21 11 21 39v220h-3l-74 -222h-71l-77 221h-4v-219c0 -30 5 -37 20 -39l16 -2v-31h-124v31l17 2c17 2 23 4 23 39v219c0 23 -3 35 -24 39l-15 3v31h129l79 -248l81 248h127v-31l-19 -4
c-14 -3 -17 -10 -17 -30zM40 608l11 116h303l11 -116h-34l-7 30c-4 19 -12 38 -39 38h-50v-232c0 -35 11 -46 35 -49l18 -2v-33h-171v33l20 2c21 2 34 15 34 49v232h-49c-25 0 -35 -17 -39 -36l-9 -32h-34z" />
    <glyph glyph-name="ordfeminine" unicode="&#xaa;" horiz-adv-x="379" 
d="M359 313l3 -25c-15 -9 -31 -12 -49 -12c-30 0 -55 13 -62 49c-17 -25 -52 -49 -103 -49c-78 0 -104 45 -104 94c0 82 69 109 200 113v36c0 54 -15 74 -64 74c-31 0 -63 -6 -105 -24l-14 36c27 16 77 34 127 34c73 0 118 -24 118 -113v-179c0 -23 4 -32 30 -33zM244 391
v52c-100 -2 -134 -20 -134 -68c0 -38 23 -55 56 -55c50 0 78 33 78 71z" />
    <glyph glyph-name="ordmasculine" unicode="&#xba;" horiz-adv-x="410" 
d="M204 274c-114 0 -166 73 -166 181c0 112 62 183 174 183c114 0 164 -72 164 -182s-60 -182 -172 -182zM209 320c62 0 101 40 101 137c0 96 -40 137 -101 137c-64 0 -105 -40 -105 -138c0 -96 40 -136 105 -136z" />
    <glyph glyph-name="guillemotleft" unicode="&#xab;" horiz-adv-x="415" 
d="M223 81l-36 -13l-147 184v8l146 182l35 -13l-70 -125l-9 -14c-17 -29 -14 -48 5 -79zM371 81l-36 -13l-147 184v8l146 182l35 -13l-70 -125l-9 -14c-17 -29 -14 -48 5 -79z" />
    <glyph glyph-name="guillemotright" unicode="&#xbb;" horiz-adv-x="415" 
d="M79 68l-36 13l77 129c18 31 22 50 5 79l-79 140l34 13l147 -182v-8zM227 68l-36 13l77 129c18 31 22 50 5 79l-79 140l34 13l147 -182v-8z" />
    <glyph glyph-name="guilsinglleft" unicode="&#x2039;" horiz-adv-x="267" 
d="M223 81l-36 -13l-147 184v8l146 182l35 -13l-70 -125l-9 -14c-17 -29 -14 -48 5 -79z" />
    <glyph glyph-name="guilsinglright" unicode="&#x203a;" horiz-adv-x="267" 
d="M79 68l-36 13l77 129c18 31 22 50 5 79l-79 140l34 13l147 -182v-8z" />
    <glyph glyph-name="quoteleft" unicode="&#x2018;" horiz-adv-x="210" 
d="M53 610c0 66 62 133 100 153l17 -20c-33 -26 -52 -77 -55 -104c41 -1 54 -24 54 -52c0 -33 -25 -51 -53 -51c-30 0 -63 20 -63 74z" />
    <glyph glyph-name="quoteright" unicode="&#x2019;" horiz-adv-x="210" 
d="M166 691c0 -66 -55 -127 -99 -154l-17 21c40 38 52 77 55 104c-41 1 -55 23 -55 52c0 33 26 51 54 51c30 0 62 -21 62 -74z" />
    <glyph glyph-name="quotesinglbase" unicode="&#x201a;" horiz-adv-x="210" 
d="M169 35c0 -66 -57 -129 -100 -154l-17 21c38 35 52 77 55 103c-41 1 -54 24 -54 53c0 33 25 51 53 51c30 0 63 -21 63 -74z" />
    <glyph glyph-name="quotedblleft" unicode="&#x201c;" horiz-adv-x="365" 
d="M39 610c0 66 62 133 100 153l17 -20c-33 -26 -52 -77 -55 -104c41 -1 54 -24 54 -52c0 -33 -25 -51 -53 -51c-30 0 -63 20 -63 74zM193 610c0 66 62 133 100 153l17 -20c-33 -26 -52 -77 -55 -104c41 -1 54 -24 54 -52c0 -33 -25 -51 -53 -51c-30 0 -63 20 -63 74z" />
    <glyph glyph-name="quotedblright" unicode="&#x201d;" horiz-adv-x="365" 
d="M168 691c0 -66 -55 -127 -99 -154l-17 21c40 38 52 77 55 104c-41 1 -55 23 -55 52c0 33 26 51 54 51c30 0 62 -21 62 -74zM323 691c0 -66 -55 -127 -99 -154l-17 21c40 38 52 77 55 104c-41 1 -55 23 -55 52c0 33 26 51 54 51c30 0 62 -21 62 -74z" />
    <glyph glyph-name="quotedblbase" unicode="&#x201e;" horiz-adv-x="365" 
d="M156 35c0 -66 -57 -129 -100 -154l-17 21c38 35 52 77 55 103c-41 1 -54 24 -54 53c0 33 25 51 53 51c30 0 63 -21 63 -74zM311 35c0 -66 -57 -129 -100 -154l-17 21c38 35 52 77 55 103c-41 1 -54 24 -54 53c0 33 25 51 53 51c30 0 63 -21 63 -74z" />
    <glyph glyph-name="dagger" unicode="&#x2020;" horiz-adv-x="328" 
d="M53 670l89 -15l-7 98l7 6h44l7 -6l-7 -98l89 15l5 -6v-46l-5 -7l-88 15l-7 -252h-34l-7 252l-86 -15l-6 7v46z" />
    <glyph glyph-name="daggerdbl" unicode="&#x2021;" horiz-adv-x="348" 
d="M152 397l-89 -15l-5 6v46l5 7l90 -15l4 107l-4 93l-90 -15l-5 7v46l5 6l89 -15l-7 98l7 6h43l7 -6l-7 -98l89 15l6 -6v-46l-6 -7l-89 15l-4 -93l4 -107l89 15l6 -7v-46l-6 -6l-89 15l7 -98l-7 -6h-43l-7 6z" />
    <glyph glyph-name="bullet" unicode="&#x2022;" horiz-adv-x="369" 
d="M303 289c0 -74 -42 -115 -119 -115c-75 0 -118 41 -118 115s43 116 118 116c77 0 119 -42 119 -116z" />
    <glyph glyph-name="periodcentered" unicode="&#xb7;" horiz-adv-x="230" 
d="M175 352c0 -38 -22 -57 -63 -57c-37 0 -60 18 -60 56c0 36 23 55 60 55c38 0 63 -19 63 -54z" />
    <glyph glyph-name="ellipsis" unicode="&#x2026;" horiz-adv-x="733" 
d="M177 46c0 -38 -22 -57 -63 -57c-37 0 -60 18 -60 56c0 36 23 55 60 55c38 0 63 -19 63 -54zM427 46c0 -38 -22 -57 -63 -57c-37 0 -60 18 -60 56c0 36 23 55 60 55c38 0 63 -19 63 -54zM677 46c0 -38 -22 -57 -63 -57c-37 0 -60 18 -60 56c0 36 23 55 60 55
c38 0 63 -19 63 -54z" />
    <glyph glyph-name="paragraph" unicode="&#xb6;" horiz-adv-x="646" 
d="M498 632v-768h-61v810h-96v-810h-61v423c-143 7 -223 90 -223 219c0 165 129 218 260 218h245v-39l-26 -3c-32 -4 -38 -14 -38 -50z" />
    <glyph glyph-name="uni00AD" unicode="&#xad;" horiz-adv-x="336" 
d="M296 250h-261v60h261v-60z" />
    <glyph glyph-name="endash" unicode="&#x2013;" 
d="M453 259h-408v51h408v-51z" />
    <glyph glyph-name="emdash" unicode="&#x2014;" horiz-adv-x="1000" 
d="M929 259h-858v51h858v-51z" />
    <glyph glyph-name="hyphen.case" horiz-adv-x="336" 
d="M296 297h-261v60h261v-60z" />
    <glyph glyph-name="zero" unicode="0" horiz-adv-x="546" 
d="M270 -11c-165 0 -228 143 -228 370c0 246 77 378 237 378c164 0 225 -147 225 -365c0 -248 -70 -383 -234 -383zM274 38c104 0 156 77 156 330c0 225 -42 318 -154 318c-120 0 -158 -106 -158 -319c0 -247 49 -329 156 -329z" />
    <glyph glyph-name="one" unicode="1" horiz-adv-x="406" 
d="M247 723v-616c0 -51 26 -56 60 -61l51 -7v-39h-303v39l43 6c44 6 76 14 76 63v465c0 45 -8 60 -43 65l-69 10l4 35l167 45z" />
    <glyph glyph-name="two" unicode="2" horiz-adv-x="467" 
d="M414 0h-387v44l208 295c53 75 97 148 97 224c0 106 -78 123 -136 123c-63 0 -88 -16 -95 -50l-19 -90l-40 -3l-10 149c40 23 101 45 180 45c129 0 196 -65 196 -167c0 -90 -45 -165 -91 -228l-206 -290h168c51 0 63 8 79 47l29 79h45z" />
    <glyph glyph-name="three" unicode="3" horiz-adv-x="503" 
d="M217 40c117 0 159 78 159 163c0 130 -92 145 -162 145h-77v48l86 9c99 9 141 65 141 155c0 72 -32 126 -130 126c-90 0 -101 -26 -109 -80l-10 -56l-44 -4l-10 145c24 16 92 46 178 46c158 0 197 -89 197 -170c0 -97 -60 -159 -120 -183v-2c60 -16 138 -56 138 -175
c0 -132 -83 -218 -242 -218c-76 0 -142 15 -178 38l9 150h46l13 -76c7 -39 31 -61 115 -61z" />
    <glyph glyph-name="four" unicode="4" horiz-adv-x="559" 
d="M346 112v81h-302v39l306 492h69v-476h92v-55h-92v-84c0 -41 15 -57 52 -62l58 -8v-39h-298v41l52 6c61 7 63 32 63 65zM112 248h234v369h-3z" />
    <glyph glyph-name="five" unicode="5" horiz-adv-x="510" 
d="M220 40c132 0 166 106 166 195c0 84 -31 152 -120 152c-68 0 -110 -32 -152 -67l-32 11l15 386l9 7h314v-68h-268l-16 -265l2 -2c29 27 79 55 145 55c110 0 179 -68 179 -202c0 -125 -60 -253 -246 -253c-54 0 -130 10 -175 37l8 149h46l12 -68c9 -45 26 -67 113 -67z
" />
    <glyph glyph-name="six" unicode="6" horiz-adv-x="533" 
d="M470 677l-26 -38c-53 35 -94 42 -136 42c-153 0 -185 -186 -187 -288c23 20 90 70 176 70c131 0 193 -92 193 -209c0 -162 -78 -265 -211 -265c-187 0 -234 175 -234 349c0 195 60 399 264 399c55 0 114 -16 161 -60zM120 345c1 -209 59 -305 160 -305
c81 0 134 64 134 199c0 118 -53 167 -132 167c-62 0 -127 -35 -162 -61z" />
    <glyph glyph-name="seven" unicode="7" horiz-adv-x="495" 
d="M217 0h-76l271 659h-239c-49 0 -60 -4 -70 -39l-17 -66l-51 -4l18 174h434v-45z" />
    <glyph glyph-name="eight" unicode="8" horiz-adv-x="540" 
d="M357 375c83 -40 150 -87 150 -181c0 -135 -112 -205 -243 -205c-163 0 -232 80 -232 181c0 114 92 175 154 210c-65 37 -123 83 -123 173c0 99 73 184 219 184c106 0 203 -52 203 -160c0 -86 -52 -144 -128 -202zM429 181c0 91 -75 120 -193 174
c-66 -40 -129 -91 -129 -176c0 -105 81 -138 159 -138c143 0 163 101 163 140zM309 399c71 63 106 113 106 175c0 64 -42 111 -138 111c-90 0 -141 -48 -141 -118c0 -88 82 -126 173 -168z" />
    <glyph glyph-name="nine" unicode="9" horiz-adv-x="533" 
d="M51 56l28 42c52 -38 101 -50 147 -50c145 0 180 177 186 281c-24 -21 -89 -65 -176 -65c-130 0 -198 98 -198 225c0 152 87 248 221 248c182 0 228 -174 228 -344c0 -198 -57 -404 -259 -404c-59 0 -125 18 -177 67zM411 376c-3 225 -55 308 -156 308
c-78 0 -139 -57 -139 -189c0 -121 57 -176 139 -176c55 0 123 32 156 57z" />
    <glyph glyph-name="dollar" unicode="$" horiz-adv-x="506" 
d="M187 -80l5 80c-73 3 -123 22 -151 39l10 139h42l11 -71c6 -33 20 -52 91 -56l22 302c-87 31 -171 63 -171 181c0 78 51 167 196 178l5 77h45l-6 -76c44 -2 101 -13 139 -34l-6 -145l-44 5l-10 69c-6 35 -26 49 -83 53l-16 -249c93 -30 192 -59 192 -193
c0 -162 -126 -211 -221 -218l-5 -81h-45zM118 549c0 -73 48 -99 105 -122l16 234c-95 -8 -121 -68 -121 -112zM387 203c0 81 -60 112 -127 137l-20 -289c74 7 147 50 147 152z" />
    <glyph glyph-name="Euro" unicode="&#x20ac;" horiz-adv-x="587" 
d="M32 411l8 47h58c26 166 125 280 296 280c73 0 144 -19 158 -28l-7 -147l-42 4l-14 66c-10 42 -43 53 -103 53c-102 0 -188 -61 -211 -228h302l-7 -47h-300c-1 -15 -1 -32 -1 -84h290l-7 -46h-280c20 -176 104 -240 211 -240c80 0 101 12 111 53l16 66h45l-8 -133
c-17 -11 -79 -38 -169 -38c-157 0 -261 93 -283 292h-77l7 46h66c-1 28 -1 57 1 84h-60z" />
    <glyph glyph-name="cent" unicode="&#xa2;" horiz-adv-x="517" 
d="M225 -26l12 105c-108 22 -175 111 -175 256c0 162 87 265 233 272l12 105h45l-12 -106c43 -5 97 -20 127 -39l-9 -137l-45 3l-12 64c-6 30 -21 47 -67 54l-47 -424c85 0 105 21 115 61l16 66h50l-9 -134c-30 -23 -95 -46 -167 -46h-11l-11 -100h-45zM136 341
c0 -125 50 -185 107 -205l46 417c-91 -6 -153 -76 -153 -212z" />
    <glyph glyph-name="sterling" unicode="&#xa3;" horiz-adv-x="515" 
d="M465 0h-421l-7 42c85 9 83 71 83 198v108h-65v49h65v100c0 131 37 240 208 240c42 0 108 -12 145 -37l-4 -126l-42 3l-15 59c-8 36 -33 52 -94 52c-94 0 -125 -62 -125 -168v-123h174v-49h-174v-134c0 -82 -13 -132 -49 -164h176c66 0 85 19 98 72l14 54h46z" />
    <glyph glyph-name="yen" unicode="&#xa5;" horiz-adv-x="615" 
d="M101 410v48h94l-83 147c-34 59 -45 73 -73 77l-23 3v39h222v-39l-83 -12l166 -304h3l158 304l-82 12v39h202v-39l-20 -3c-32 -5 -44 -15 -83 -90l-71 -134h112v-48h-139l-48 -91h187v-47h-188v-175c0 -40 10 -47 28 -49l73 -9v-39h-275v39l74 9c18 2 27 9 27 50v174h-178
v47h174l-53 91h-121z" />
    <glyph glyph-name="florin" unicode="&#x192;" horiz-adv-x="545" 
d="M172 399l23 131c25 144 86 207 201 207c55 0 97 -13 126 -31l-5 -132l-43 5l-10 61c-6 32 -26 45 -68 45c-73 0 -102 -36 -122 -141l-28 -145h157l-8 -50h-156l-68 -375c-16 -94 -56 -163 -162 -163c-46 0 -90 17 -109 32l17 40c18 -8 44 -17 82 -17c49 0 84 28 100 117
l66 366h-100l8 50h99z" />
    <glyph glyph-name="percent" unicode="%" horiz-adv-x="767" 
d="M204 374c-102 0 -152 69 -152 180s57 183 157 183c102 0 152 -69 152 -175c0 -113 -50 -188 -157 -188zM192 -11h-70l438 735h68zM206 420c64 0 86 53 86 137c0 85 -21 134 -85 134c-68 0 -86 -65 -86 -137c0 -84 23 -134 85 -134zM560 -11c-105 0 -154 69 -154 180
s56 183 157 183s152 -69 152 -178c0 -116 -52 -185 -155 -185zM562 36c62 0 84 51 84 136s-21 132 -85 132c-68 0 -86 -63 -86 -135c0 -80 22 -133 87 -133z" />
    <glyph glyph-name="perthousand" unicode="&#x2030;" horiz-adv-x="1053" 
d="M202 405c-101 0 -150 64 -150 164c0 102 56 168 156 168c99 0 150 -63 150 -162c0 -100 -50 -170 -156 -170zM164 -11h-70l438 735h67zM204 452c65 0 87 45 87 121s-21 118 -85 118c-69 0 -87 -57 -87 -119c0 -77 23 -120 85 -120zM501 -11c-101 0 -150 63 -150 164
c0 102 56 167 156 167c99 0 150 -62 150 -162s-50 -169 -156 -169zM503 35c65 0 87 45 87 122c0 75 -21 117 -85 117c-69 0 -87 -57 -87 -118c0 -77 23 -121 85 -121zM845 -11c-101 0 -150 63 -150 164c0 102 56 167 156 167c99 0 150 -62 150 -162s-50 -169 -156 -169z
M847 35c65 0 87 45 87 122c0 75 -21 117 -85 117c-69 0 -87 -57 -87 -118c0 -77 23 -121 85 -121z" />
    <glyph glyph-name="Aacute" unicode="&#xc1;" horiz-adv-x="684" 
d="M297 724h85l195 -597c22 -66 30 -78 62 -84l28 -4v-39h-226v39l81 11l-61 197h-265l-63 -197l82 -11v-39h-206v39l30 5c33 6 41 25 57 73zM444 297l-115 360h-1l-116 -360h232zM480 859l-216 -81l-17 31l178 119l55 -55v-14z" />
    <glyph glyph-name="Abreve" unicode="&#x102;" horiz-adv-x="684" 
d="M297 724h85l195 -597c22 -66 30 -78 62 -84l28 -4v-39h-226v39l81 11l-61 197h-265l-63 -197l82 -11v-39h-206v39l30 5c33 6 41 25 57 73zM444 297l-115 360h-1l-116 -360h232zM460 927l36 -16c-20 -80 -65 -130 -154 -130s-130 55 -148 130l36 17c21 -48 57 -80 114 -80
c55 0 93 28 116 79z" />
    <glyph glyph-name="Acircumflex" unicode="&#xc2;" horiz-adv-x="684" 
d="M297 724h85l195 -597c22 -66 30 -78 62 -84l28 -4v-39h-226v39l81 11l-61 197h-265l-63 -197l82 -11v-39h-206v39l30 5c33 6 41 25 57 73zM444 297l-115 360h-1l-116 -360h232zM474 775l-135 81l-133 -81l-24 32l125 117h65l125 -118z" />
    <glyph glyph-name="Adieresis" unicode="&#xc4;" horiz-adv-x="684" 
d="M297 724h85l195 -597c22 -66 30 -78 62 -84l28 -4v-39h-226v39l81 11l-61 197h-265l-63 -197l82 -11v-39h-206v39l30 5c33 6 41 25 57 73zM444 297l-115 360h-1l-116 -360h232zM183 848c0 34 19 50 53 50s54 -16 54 -50c0 -36 -18 -53 -54 -53c-34 0 -53 17 -53 53z
M384 848c0 34 19 50 53 50s54 -16 54 -50c0 -36 -18 -53 -54 -53c-34 0 -53 17 -53 53z" />
    <glyph glyph-name="AEacute" unicode="&#x1fc;" horiz-adv-x="891" 
d="M222 0h-213v39l35 6c29 6 41 21 65 69l283 563l-84 12v35h495l10 -178l-45 1l-21 73c-11 36 -23 53 -65 53h-170v-279h232v-51h-232v-292h187c41 0 56 16 66 56l21 77h44l-10 -184h-466v39l45 6c39 5 39 14 39 85v213h-156l-140 -291l80 -13v-39zM438 394v256h-4
l-125 -256h129zM726 865l-216 -81l-17 31l178 119l55 -55v-14z" />
    <glyph glyph-name="Agrave" unicode="&#xc0;" horiz-adv-x="684" 
d="M297 724h85l195 -597c22 -66 30 -78 62 -84l28 -4v-39h-226v39l81 11l-61 197h-265l-63 -197l82 -11v-39h-206v39l30 5c33 6 41 25 57 73zM444 297l-115 360h-1l-116 -360h232zM427 777l-215 83v13l56 55l176 -121z" />
    <glyph glyph-name="Amacron" unicode="&#x100;" horiz-adv-x="684" 
d="M297 724h85l195 -597c22 -66 30 -78 62 -84l28 -4v-39h-226v39l81 11l-61 197h-265l-63 -197l82 -11v-39h-206v39l30 5c33 6 41 25 57 73zM444 297l-115 360h-1l-116 -360h232zM190 815v61h293v-61h-293z" />
    <glyph glyph-name="Aogonek" unicode="&#x104;" horiz-adv-x="684" 
d="M628 -161l11 -36c-18 -11 -49 -28 -92 -28s-100 21 -100 91c0 52 36 97 94 134h-102v39l83 11l-59 190h-269l-59 -190l82 -11v-39h-208v39l30 5c36 6 43 28 57 73l200 607h86l195 -597c22 -66 30 -78 62 -84l28 -4v-39h-53c-45 -29 -98 -65 -98 -119c0 -29 18 -49 55 -51
c18 -1 36 2 57 9zM446 290l-118 371h-1l-119 -371h238z" />
    <glyph glyph-name="Aring" unicode="&#xc5;" horiz-adv-x="684" 
d="M446 787c0 -53 -25 -80 -55 -92l186 -568c22 -66 30 -78 62 -84l28 -4v-39h-226v39l81 11l-61 197h-265l-63 -197l82 -11v-39h-206v39l30 5c33 6 41 25 57 73l191 577c-32 14 -57 42 -57 93c0 85 63 105 108 105c65 0 108 -36 108 -105zM444 297l-115 360h-1l-116 -360
h232zM338 726c35 0 55 22 55 61c0 52 -26 64 -55 64c-25 0 -55 -10 -55 -64c0 -38 18 -61 55 -61z" />
    <glyph glyph-name="Aringacute" unicode="&#x1fa;" horiz-adv-x="684" 
d="M477 991l-216 -81l-17 31l178 119l55 -55v-14zM446 787c0 -53 -25 -80 -55 -92l186 -568c22 -66 30 -78 62 -84l28 -4v-39h-226v39l81 11l-61 197h-265l-63 -197l82 -11v-39h-206v39l30 5c33 6 41 25 57 73l191 577c-32 14 -57 42 -57 93c0 85 63 105 108 105
c65 0 108 -36 108 -105zM444 297l-115 360h-1l-116 -360h232zM338 726c35 0 55 22 55 61c0 52 -26 64 -55 64c-25 0 -55 -10 -55 -64c0 -38 18 -61 55 -61z" />
    <glyph glyph-name="Atilde" unicode="&#xc3;" horiz-adv-x="684" 
d="M297 724h85l195 -597c22 -66 30 -78 62 -84l28 -4v-39h-226v39l81 11l-61 197h-265l-63 -197l82 -11v-39h-206v39l30 5c33 6 41 25 57 73zM444 297l-115 360h-1l-116 -360h232zM259 886c35 0 157 -38 173 -38c11 0 21 5 45 37l30 -17c-27 -73 -56 -87 -76 -87
c-29 0 -144 39 -172 39c-13 0 -23 -7 -48 -36l-28 16c28 62 49 86 76 86z" />
    <glyph glyph-name="Cacute" unicode="&#x106;" horiz-adv-x="620" 
d="M574 167l-8 -137c-20 -12 -87 -41 -198 -41c-163 0 -319 87 -319 373c0 217 110 375 341 375c88 0 163 -24 178 -33l-6 -151l-45 3l-15 75c-8 41 -43 54 -115 54c-137 0 -262 -77 -262 -323c0 -261 137 -319 250 -319c99 0 124 23 133 54l20 70h46zM490 859l-216 -81
l-17 31l178 119l55 -55v-14z" />
    <glyph glyph-name="Ccaron" unicode="&#x10c;" horiz-adv-x="620" 
d="M574 167l-8 -137c-20 -12 -87 -41 -198 -41c-163 0 -319 87 -319 373c0 217 110 375 341 375c88 0 163 -24 178 -33l-6 -151l-45 3l-15 75c-8 41 -43 54 -115 54c-137 0 -262 -77 -262 -323c0 -261 137 -319 250 -319c99 0 124 23 133 54l20 70h46zM375 850l134 79
l22 -29l-125 -119h-63l-123 119l24 30z" />
    <glyph glyph-name="Ccedilla" unicode="&#xc7;" horiz-adv-x="620" 
d="M260 -210l13 42c15 -5 37 -8 53 -8c40 0 60 18 60 51c0 31 -28 49 -75 54l17 62c-148 13 -279 108 -279 371c0 217 110 375 341 375c88 0 163 -24 178 -33l-6 -151l-45 3l-15 75c-8 41 -43 54 -115 54c-137 0 -262 -77 -262 -323c0 -261 137 -319 250 -319
c99 0 124 23 133 54l20 70h46l-8 -137c-20 -12 -85 -40 -192 -41l-7 -26c39 -10 85 -32 85 -89c0 -60 -49 -98 -121 -98c-31 0 -58 7 -71 14z" />
    <glyph glyph-name="Ccircumflex" unicode="&#x108;" horiz-adv-x="620" 
d="M574 167l-8 -137c-20 -12 -87 -41 -198 -41c-163 0 -319 87 -319 373c0 217 110 375 341 375c88 0 163 -24 178 -33l-6 -151l-45 3l-15 75c-8 41 -43 54 -115 54c-137 0 -262 -77 -262 -323c0 -261 137 -319 250 -319c99 0 124 23 133 54l20 70h46zM505 775l-135 81
l-133 -81l-24 32l125 117h65l125 -118z" />
    <glyph glyph-name="Cdotaccent" unicode="&#x10a;" horiz-adv-x="620" 
d="M574 167l-8 -137c-20 -12 -87 -41 -198 -41c-163 0 -319 87 -319 373c0 217 110 375 341 375c88 0 163 -24 178 -33l-6 -151l-45 3l-15 75c-8 41 -43 54 -115 54c-137 0 -262 -77 -262 -323c0 -261 137 -319 250 -319c99 0 124 23 133 54l20 70h46zM425 851
c0 -36 -20 -55 -57 -55c-35 0 -56 19 -56 55s21 54 56 54c36 0 57 -18 57 -54z" />
    <glyph glyph-name="Dcaron" unicode="&#x10e;" horiz-adv-x="722" 
d="M219 51h92c218 0 280 146 280 325c0 201 -86 296 -242 296h-130v-621zM63 724h275c240 0 331 -133 331 -349c0 -213 -94 -375 -374 -375h-233v39l46 6c33 5 38 9 38 71v489c0 58 -5 71 -40 75l-43 5v39zM330 850l134 79l22 -29l-125 -119h-63l-123 119l24 30z" />
    <glyph glyph-name="Dcroat" unicode="&#x110;" horiz-adv-x="711" 
d="M58 724h275c240 0 331 -133 331 -349c0 -213 -94 -375 -374 -375h-233v39l46 6c33 5 38 9 38 71v212h-78v50h78v227c0 58 -5 71 -40 75l-43 5v39zM214 51h92c218 0 280 146 280 325c0 201 -86 296 -242 296h-130v-294h162v-50h-162v-277z" />
    <glyph glyph-name="Eacute" unicode="&#xc9;" horiz-adv-x="591" 
d="M506 724l10 -178c-15 0 -30 1 -45 1l-21 72c-12 40 -25 54 -68 54h-167v-279h232v-51h-232v-292h187c40 0 54 14 65 52l22 81h44l-10 -184h-466v39l46 6c36 5 38 12 38 79v482c0 58 -6 69 -40 73l-43 6v39h448zM448 859l-216 -81l-17 31l178 119l55 -55v-14z" />
    <glyph glyph-name="Ebreve" unicode="&#x114;" horiz-adv-x="591" 
d="M506 724l10 -178c-15 0 -30 1 -45 1l-21 72c-12 40 -25 54 -68 54h-167v-279h232v-51h-232v-292h187c40 0 54 14 65 52l22 81h44l-10 -184h-466v39l46 6c36 5 38 12 38 79v482c0 58 -6 69 -40 73l-43 6v39h448zM419 927l36 -16c-20 -80 -65 -130 -154 -130
s-130 55 -148 130l36 17c21 -48 57 -80 114 -80c55 0 93 28 116 79z" />
    <glyph glyph-name="Ecaron" unicode="&#x11a;" horiz-adv-x="591" 
d="M506 724l10 -178c-15 0 -30 1 -45 1l-21 72c-12 40 -25 54 -68 54h-167v-279h232v-51h-232v-292h187c40 0 54 14 65 52l22 81h44l-10 -184h-466v39l46 6c36 5 38 12 38 79v482c0 58 -6 69 -40 73l-43 6v39h448zM304 850l134 79l22 -29l-125 -119h-63l-123 119l24 30z" />
    <glyph glyph-name="Ecircumflex" unicode="&#xca;" horiz-adv-x="591" 
d="M506 724l10 -178c-15 0 -30 1 -45 1l-21 72c-12 40 -25 54 -68 54h-167v-279h232v-51h-232v-292h187c40 0 54 14 65 52l22 81h44l-10 -184h-466v39l46 6c36 5 38 12 38 79v482c0 58 -6 69 -40 73l-43 6v39h448zM436 775l-135 81l-133 -81l-24 32l125 117h65l125 -118z
" />
    <glyph glyph-name="Edieresis" unicode="&#xcb;" horiz-adv-x="591" 
d="M506 724l10 -178c-15 0 -30 1 -45 1l-21 72c-12 40 -25 54 -68 54h-167v-279h232v-51h-232v-292h187c40 0 54 14 65 52l22 81h44l-10 -184h-466v39l46 6c36 5 38 12 38 79v482c0 58 -6 69 -40 73l-43 6v39h448zM144 848c0 34 19 50 53 50s54 -16 54 -50
c0 -36 -18 -53 -54 -53c-34 0 -53 17 -53 53zM345 848c0 34 19 50 53 50s54 -16 54 -50c0 -36 -18 -53 -54 -53c-34 0 -53 17 -53 53z" />
    <glyph glyph-name="Edotaccent" unicode="&#x116;" horiz-adv-x="591" 
d="M506 724l10 -178c-15 0 -30 1 -45 1l-21 72c-12 40 -25 54 -68 54h-167v-279h232v-51h-232v-292h187c40 0 54 14 65 52l22 81h44l-10 -184h-466v39l46 6c36 5 38 12 38 79v482c0 58 -6 69 -40 73l-43 6v39h448zM358 851c0 -36 -20 -55 -57 -55c-35 0 -56 19 -56 55
s21 54 56 54c36 0 57 -18 57 -54z" />
    <glyph glyph-name="Egrave" unicode="&#xc8;" horiz-adv-x="591" 
d="M506 724l10 -178c-15 0 -30 1 -45 1l-21 72c-12 40 -25 54 -68 54h-167v-279h232v-51h-232v-292h187c40 0 54 14 65 52l22 81h44l-10 -184h-466v39l46 6c36 5 38 12 38 79v482c0 58 -6 69 -40 73l-43 6v39h448zM393 777l-215 83v13l56 55l176 -121z" />
    <glyph glyph-name="Emacron" unicode="&#x112;" horiz-adv-x="591" 
d="M506 724l10 -178c-15 0 -30 1 -45 1l-21 72c-12 40 -25 54 -68 54h-167v-279h232v-51h-232v-292h187c40 0 54 14 65 52l22 81h44l-10 -184h-466v39l46 6c36 5 38 12 38 79v482c0 58 -6 69 -40 73l-43 6v39h448zM148 815v61h293v-61h-293z" />
    <glyph glyph-name="Eogonek" unicode="&#x118;" horiz-adv-x="591" 
d="M525 -161l11 -36c-18 -11 -49 -28 -92 -28s-100 21 -100 91c0 52 37 97 100 134h-387v39l46 6c36 5 38 12 38 79v482c0 58 -6 69 -40 73l-43 6v39h448l10 -178l-45 1l-21 72c-12 40 -25 54 -68 54h-167v-279h232v-51h-232v-292h187c40 0 54 14 65 52l22 81h44l-10 -184
c-52 -29 -107 -65 -107 -119c0 -29 15 -49 52 -51c18 -1 36 2 57 9z" />
    <glyph glyph-name="Gbreve" unicode="&#x11e;" horiz-adv-x="663" 
d="M500 100v115c0 58 -5 70 -39 74l-72 7v40h250v-39l-34 -4c-30 -4 -32 -16 -32 -74v-186c-67 -35 -142 -44 -203 -44c-216 0 -321 140 -321 365c0 255 131 383 333 383c100 0 165 -24 186 -33l-6 -151l-45 4l-13 71c-9 42 -40 56 -121 56c-169 0 -258 -115 -258 -323
c0 -246 119 -320 251 -320c39 0 68 6 85 10c35 8 39 22 39 49zM486 927l36 -16c-20 -80 -65 -130 -154 -130s-130 55 -148 130l36 17c21 -48 57 -80 114 -80c55 0 93 28 116 79z" />
    <glyph glyph-name="Gcircumflex" unicode="&#x11c;" horiz-adv-x="663" 
d="M500 100v115c0 58 -5 70 -39 74l-72 7v40h250v-39l-34 -4c-30 -4 -32 -16 -32 -74v-186c-67 -35 -142 -44 -203 -44c-216 0 -321 140 -321 365c0 255 131 383 333 383c100 0 165 -24 186 -33l-6 -151l-45 4l-13 71c-9 42 -40 56 -121 56c-169 0 -258 -115 -258 -323
c0 -246 119 -320 251 -320c39 0 68 6 85 10c35 8 39 22 39 49zM501 775l-135 81l-133 -81l-24 32l125 117h65l125 -118z" />
    <glyph glyph-name="Gcommaaccent" unicode="&#x122;" horiz-adv-x="663" 
d="M500 100v115c0 58 -5 70 -39 74l-72 7v40h250v-39l-34 -4c-30 -4 -32 -16 -32 -74v-186c-67 -35 -142 -44 -203 -44c-216 0 -321 140 -321 365c0 255 131 383 333 383c100 0 165 -24 186 -33l-6 -151l-45 4l-13 71c-9 42 -40 56 -121 56c-169 0 -258 -115 -258 -323
c0 -246 119 -320 251 -320c39 0 68 6 85 10c35 8 39 22 39 49zM407 -133c0 -48 -23 -112 -91 -155l-19 23c30 26 45 52 49 87c-40 1 -58 24 -58 55c0 38 25 55 59 55s60 -20 60 -65z" />
    <glyph glyph-name="Gdotaccent" unicode="&#x120;" horiz-adv-x="663" 
d="M500 100v115c0 58 -5 70 -39 74l-72 7v40h250v-39l-34 -4c-30 -4 -32 -16 -32 -74v-186c-67 -35 -142 -44 -203 -44c-216 0 -321 140 -321 365c0 255 131 383 333 383c100 0 165 -24 186 -33l-6 -151l-45 4l-13 71c-9 42 -40 56 -121 56c-169 0 -258 -115 -258 -323
c0 -246 119 -320 251 -320c39 0 68 6 85 10c35 8 39 22 39 49zM419 851c0 -36 -20 -55 -57 -55c-35 0 -56 19 -56 55s21 54 56 54c36 0 57 -18 57 -54z" />
    <glyph glyph-name="Hbar" unicode="&#x126;" horiz-adv-x="771" 
d="M214 606v-39h343v33c0 65 -3 76 -35 79l-46 6v39h238v-39l-46 -6c-33 -4 -38 -11 -38 -71v-41h83v-50h-83v-393c0 -64 6 -73 40 -78l43 -7v-39h-235v39l47 7c28 4 32 14 32 72v226h-343v-220c0 -65 1 -73 35 -78l46 -7v-39h-238v39l46 7c35 5 38 10 38 77v394h-82v50h82
v39c0 58 -6 69 -40 73l-43 6v39h235v-39l-47 -6c-29 -3 -32 -15 -32 -73zM214 394h343v123h-343v-123z" />
    <glyph glyph-name="Hcircumflex" unicode="&#x124;" horiz-adv-x="771" 
d="M214 606v-212h343v206c0 65 -3 76 -35 79l-46 6v39h238v-39l-46 -6c-33 -4 -38 -11 -38 -71v-484c0 -64 6 -73 40 -78l43 -7v-39h-235v39l47 7c28 4 32 14 32 72v226h-343v-220c0 -65 1 -73 35 -78l46 -7v-39h-238v39l46 7c35 5 38 10 38 77v483c0 58 -6 69 -40 73l-43 6
v39h235v-39l-47 -6c-29 -3 -32 -15 -32 -73zM527 775l-135 81l-133 -81l-24 32l125 117h65l125 -118z" />
    <glyph glyph-name="Iacute" unicode="&#xcd;" horiz-adv-x="355" 
d="M214 606v-482c0 -65 2 -74 37 -78l45 -7v-39h-239v39l46 7c34 4 38 10 38 77v483c0 58 -5 69 -40 73l-43 6v39h236v-39l-46 -6c-30 -3 -34 -15 -34 -73zM311 859l-216 -81l-17 31l178 119l55 -55v-14z" />
    <glyph glyph-name="Ibreve" unicode="&#x12c;" horiz-adv-x="355" 
d="M214 606v-482c0 -65 2 -74 37 -78l45 -7v-39h-239v39l46 7c34 4 38 10 38 77v483c0 58 -5 69 -40 73l-43 6v39h236v-39l-46 -6c-30 -3 -34 -15 -34 -73zM294 927l36 -16c-20 -80 -65 -130 -154 -130s-130 55 -148 130l36 17c21 -48 57 -80 114 -80c55 0 93 28 116 79z
" />
    <glyph glyph-name="Icircumflex" unicode="&#xce;" horiz-adv-x="355" 
d="M214 606v-482c0 -65 2 -74 37 -78l45 -7v-39h-239v39l46 7c34 4 38 10 38 77v483c0 58 -5 69 -40 73l-43 6v39h236v-39l-46 -6c-30 -3 -34 -15 -34 -73zM312 775l-135 81l-133 -81l-24 32l125 117h65l125 -118z" />
    <glyph glyph-name="Idieresis" unicode="&#xcf;" horiz-adv-x="355" 
d="M214 606v-482c0 -65 2 -74 37 -78l45 -7v-39h-239v39l46 7c34 4 38 10 38 77v483c0 58 -5 69 -40 73l-43 6v39h236v-39l-46 -6c-30 -3 -34 -15 -34 -73zM24 848c0 34 19 50 53 50s54 -16 54 -50c0 -36 -18 -53 -54 -53c-34 0 -53 17 -53 53zM225 848c0 34 19 50 53 50
s54 -16 54 -50c0 -36 -18 -53 -54 -53c-34 0 -53 17 -53 53z" />
    <glyph glyph-name="Idotaccent" unicode="&#x130;" horiz-adv-x="355" 
d="M214 606v-482c0 -65 2 -74 37 -78l45 -7v-39h-239v39l46 7c34 4 38 10 38 77v483c0 58 -5 69 -40 73l-43 6v39h236v-39l-46 -6c-30 -3 -34 -15 -34 -73zM234 851c0 -36 -20 -55 -57 -55c-35 0 -56 19 -56 55s21 54 56 54c36 0 57 -18 57 -54z" />
    <glyph glyph-name="Igrave" unicode="&#xcc;" horiz-adv-x="355" 
d="M214 606v-482c0 -65 2 -74 37 -78l45 -7v-39h-239v39l46 7c34 4 38 10 38 77v483c0 58 -5 69 -40 73l-43 6v39h236v-39l-46 -6c-30 -3 -34 -15 -34 -73zM251 777l-215 83v13l56 55l176 -121z" />
    <glyph glyph-name="Imacron" unicode="&#x12a;" horiz-adv-x="355" 
d="M214 606v-482c0 -65 2 -74 37 -78l45 -7v-39h-239v39l46 7c34 4 38 10 38 77v483c0 58 -5 69 -40 73l-43 6v39h236v-39l-46 -6c-30 -3 -34 -15 -34 -73zM29 815v61h293v-61h-293z" />
    <glyph glyph-name="Iogonek" unicode="&#x12e;" horiz-adv-x="355" 
d="M257 -161l11 -36c-18 -11 -49 -28 -92 -28s-100 21 -100 91c0 52 35 97 92 134h-111v39l46 7c34 5 38 10 38 77v483c0 58 -5 69 -40 73l-43 6v39h236v-39l-46 -6c-30 -3 -34 -15 -34 -73v-482c0 -65 2 -73 37 -78l45 -7v-39h-62c-26 -28 -89 -64 -89 -119
c0 -29 18 -49 55 -51c18 -1 36 2 57 9z" />
    <glyph glyph-name="Itilde" unicode="&#x128;" horiz-adv-x="355" 
d="M214 606v-482c0 -65 2 -74 37 -78l45 -7v-39h-239v39l46 7c34 4 38 10 38 77v483c0 58 -5 69 -40 73l-43 6v39h236v-39l-46 -6c-30 -3 -34 -15 -34 -73zM86 886c35 0 157 -38 173 -38c11 0 21 5 45 37l30 -17c-27 -73 -56 -87 -76 -87c-29 0 -144 39 -172 39
c-13 0 -23 -7 -48 -36l-28 16c28 62 49 86 76 86z" />
    <glyph glyph-name="Jcircumflex" unicode="&#x134;" horiz-adv-x="476" 
d="M54 22l-10 134h52l9 -48c10 -48 23 -67 88 -67s100 23 100 116v446c0 58 -6 70 -40 75l-67 6v40h262v-39l-44 -5c-30 -3 -38 -16 -38 -74v-439c0 -149 -80 -178 -172 -178c-57 0 -117 17 -140 33zM454 775l-135 81l-133 -81l-24 32l125 117h65l125 -118z" />
    <glyph glyph-name="Kcommaaccent" unicode="&#x136;" horiz-adv-x="713" 
d="M215 601v-240l292 313v3l-68 8v39h198v-39l-31 -3c-28 -4 -40 -18 -65 -43l-193 -210l230 -323c37 -52 49 -59 78 -63l30 -4v-39h-238v40l76 8v3l-228 327l-81 -87v-168c0 -65 1 -73 37 -78l51 -6v-39h-245v39l46 6c36 5 38 13 38 80v477c0 58 -4 73 -38 77l-45 6v39h233
v-39l-46 -6c-30 -4 -31 -20 -31 -78zM420 -133c0 -48 -23 -112 -91 -155l-19 23c30 26 45 52 49 87c-40 1 -58 24 -58 55c0 38 25 55 59 55s60 -20 60 -65z" />
    <glyph glyph-name="Lacute" unicode="&#x139;" horiz-adv-x="576" 
d="M214 604v-553h183c40 0 59 10 68 47l25 98h48l-15 -196h-466v39l46 7c35 5 38 11 38 78v482c0 58 -6 69 -41 74l-42 5v39h249v-39l-55 -6c-34 -4 -38 -17 -38 -75zM318 859l-216 -81l-17 31l178 119l55 -55v-14z" />
    <glyph glyph-name="Lcaron" unicode="&#x13d;" horiz-adv-x="576" 
d="M214 604v-553h183c40 0 59 10 68 47l25 98h48l-15 -196h-466v39l46 7c35 5 38 11 38 78v482c0 58 -6 69 -41 74l-42 5v39h249v-39l-55 -6c-34 -4 -38 -17 -38 -75zM388 529l-32 11c9 40 15 82 16 118c1 31 -1 64 -9 94l71 17l12 -4c2 -7 4 -23 4 -36
c0 -64 -26 -135 -62 -200z" />
    <glyph glyph-name="Lcommaaccent" unicode="&#x13b;" horiz-adv-x="576" 
d="M214 604v-553h183c40 0 59 10 68 47l25 98h48l-15 -196h-466v39l46 7c35 5 38 11 38 78v482c0 58 -6 69 -41 74l-42 5v39h249v-39l-55 -6c-34 -4 -38 -17 -38 -75zM371 -133c0 -48 -23 -112 -91 -155l-19 23c30 26 45 52 49 87c-40 1 -58 24 -58 55c0 38 25 55 59 55
s60 -20 60 -65z" />
    <glyph glyph-name="Ldot" unicode="&#x13f;" horiz-adv-x="576" 
d="M214 604v-553h183c40 0 59 10 68 47l25 98h48l-15 -196h-466v39l46 7c35 5 38 11 38 78v482c0 58 -6 69 -41 74l-42 5v39h249v-39l-55 -6c-34 -4 -38 -17 -38 -75zM499 405c0 -33 -19 -51 -53 -51c-33 0 -53 18 -53 51c0 34 20 51 53 51c34 0 53 -17 53 -51z" />
    <glyph glyph-name="Lslash" unicode="&#x141;" horiz-adv-x="576" 
d="M214 604v-220l196 83v-52l-196 -82v-282h183c40 0 59 10 68 47l25 98h46l-13 -196h-466v39l46 7c35 5 38 11 38 78v182l-78 -33v51l78 33v249c0 58 -6 69 -41 74l-42 5v39h249v-39l-55 -6c-34 -4 -38 -17 -38 -75z" />
    <glyph glyph-name="Nacute" unicode="&#x143;" horiz-adv-x="766" 
d="M233 724l348 -623h3v509c0 55 -5 67 -38 70l-42 5v39h219v-39l-45 -5c-32 -4 -38 -15 -38 -65v-615h-86l-351 627h-4v-512c0 -56 3 -67 35 -71l42 -5v-39h-217v39l46 5c35 4 38 13 38 78v483c0 58 -6 72 -40 75l-43 5v39h173zM531 859l-216 -81l-17 31l178 119l55 -55
v-14z" />
    <glyph glyph-name="Ncaron" unicode="&#x147;" horiz-adv-x="766" 
d="M233 724l348 -623h3v509c0 55 -5 67 -38 70l-42 5v39h219v-39l-45 -5c-32 -4 -38 -15 -38 -65v-615h-86l-351 627h-4v-512c0 -56 3 -67 35 -71l42 -5v-39h-217v39l46 5c35 4 38 13 38 78v483c0 58 -6 72 -40 75l-43 5v39h173zM392 850l134 79l22 -29l-125 -119h-63
l-123 119l24 30z" />
    <glyph glyph-name="Ncommaaccent" unicode="&#x145;" horiz-adv-x="766" 
d="M233 724l348 -623h3v509c0 55 -5 67 -38 70l-42 5v39h219v-39l-45 -5c-32 -4 -38 -15 -38 -65v-615h-86l-351 627h-4v-512c0 -56 3 -67 35 -71l42 -5v-39h-217v39l46 5c35 4 38 13 38 78v483c0 58 -6 72 -40 75l-43 5v39h173zM455 -133c0 -50 -24 -112 -93 -155l-19 23
c30 26 44 52 48 87c-40 1 -59 24 -59 55c0 38 25 55 61 55s62 -20 62 -65z" />
    <glyph glyph-name="Ntilde" unicode="&#xd1;" horiz-adv-x="766" 
d="M233 724l348 -623h3v509c0 55 -5 67 -38 70l-42 5v39h219v-39l-45 -5c-32 -4 -38 -15 -38 -65v-615h-86l-351 627h-4v-512c0 -56 3 -67 35 -71l42 -5v-39h-217v39l46 5c35 4 38 13 38 78v483c0 58 -6 72 -40 75l-43 5v39h173zM301 886c35 0 157 -38 173 -38
c11 0 21 5 45 37l30 -17c-27 -73 -56 -87 -76 -87c-29 0 -144 39 -172 39c-13 0 -23 -7 -48 -36l-28 16c28 62 49 86 76 86z" />
    <glyph glyph-name="Oacute" unicode="&#xd3;" horiz-adv-x="687" 
d="M338 -11c-215 0 -288 165 -288 362c0 214 89 386 307 386c206 0 279 -164 279 -366c0 -219 -85 -382 -298 -382zM342 42c118 0 218 77 218 322c0 239 -89 319 -210 319c-119 0 -224 -78 -224 -325c0 -249 99 -316 216 -316zM489 865l-216 -81l-17 31l178 119l55 -55v-14z
" />
    <glyph glyph-name="Obreve" unicode="&#x14e;" horiz-adv-x="687" 
d="M338 -11c-215 0 -288 165 -288 362c0 214 89 386 307 386c206 0 279 -164 279 -366c0 -219 -85 -382 -298 -382zM342 42c118 0 218 77 218 322c0 239 -89 319 -210 319c-119 0 -224 -78 -224 -325c0 -249 99 -316 216 -316zM470 933l36 -16c-20 -80 -65 -130 -154 -130
s-130 55 -148 130l36 17c21 -48 57 -80 114 -80c55 0 93 28 116 79z" />
    <glyph glyph-name="Ocircumflex" unicode="&#xd4;" horiz-adv-x="687" 
d="M338 -11c-215 0 -288 165 -288 362c0 214 89 386 307 386c206 0 279 -164 279 -366c0 -219 -85 -382 -298 -382zM342 42c118 0 218 77 218 322c0 239 -89 319 -210 319c-119 0 -224 -78 -224 -325c0 -249 99 -316 216 -316zM486 781l-135 81l-133 -81l-24 32l125 117h65
l125 -118z" />
    <glyph glyph-name="Odieresis" unicode="&#xd6;" horiz-adv-x="687" 
d="M338 -11c-215 0 -288 165 -288 362c0 214 89 386 307 386c206 0 279 -164 279 -366c0 -219 -85 -382 -298 -382zM342 42c118 0 218 77 218 322c0 239 -89 319 -210 319c-119 0 -224 -78 -224 -325c0 -249 99 -316 216 -316zM200 854c0 34 19 50 53 50s54 -16 54 -50
c0 -36 -18 -53 -54 -53c-34 0 -53 17 -53 53zM401 854c0 34 19 50 53 50s54 -16 54 -50c0 -36 -18 -53 -54 -53c-34 0 -53 17 -53 53z" />
    <glyph glyph-name="Ograve" unicode="&#xd2;" horiz-adv-x="687" 
d="M338 -11c-215 0 -288 165 -288 362c0 214 89 386 307 386c206 0 279 -164 279 -366c0 -219 -85 -382 -298 -382zM342 42c118 0 218 77 218 322c0 239 -89 319 -210 319c-119 0 -224 -78 -224 -325c0 -249 99 -316 216 -316zM426 783l-215 83v13l56 55l176 -121z" />
    <glyph glyph-name="Ohungarumlaut" unicode="&#x150;" horiz-adv-x="687" 
d="M338 -11c-215 0 -288 165 -288 362c0 214 89 386 307 386c206 0 279 -164 279 -366c0 -219 -85 -382 -298 -382zM342 42c118 0 218 77 218 322c0 239 -89 319 -210 319c-119 0 -224 -78 -224 -325c0 -249 99 -316 216 -316zM438 916l-174 -133l-26 26l142 166l58 -50v-9z
M601 903l-180 -126l-24 28l151 160l53 -53v-9z" />
    <glyph glyph-name="Omacron" unicode="&#x14c;" horiz-adv-x="687" 
d="M338 -11c-215 0 -288 165 -288 362c0 214 89 386 307 386c206 0 279 -164 279 -366c0 -219 -85 -382 -298 -382zM342 42c118 0 218 77 218 322c0 239 -89 319 -210 319c-119 0 -224 -78 -224 -325c0 -249 99 -316 216 -316zM205 813v61h293v-61h-293z" />
    <glyph glyph-name="Oslash" unicode="&#xd8;" horiz-adv-x="686" 
d="M338 -11c-77 0 -135 21 -179 56l-60 -87h-63l87 125c-52 67 -73 163 -73 268c0 214 89 386 307 386c76 0 133 -23 176 -61l63 91h63l-90 -130c47 -67 67 -162 67 -266c0 -219 -85 -382 -298 -382zM126 358c0 -96 15 -165 39 -213l329 475c-37 45 -87 63 -144 63
c-119 0 -224 -78 -224 -325zM342 42c118 0 218 77 218 322c0 91 -13 159 -36 208l-328 -473c39 -42 90 -57 146 -57z" />
    <glyph glyph-name="Oslashacute" unicode="&#x1fe;" horiz-adv-x="686" 
d="M489 865l-216 -81l-17 31l178 119l55 -55v-14zM338 -11c-77 0 -135 21 -179 56l-60 -87h-63l87 125c-52 67 -73 163 -73 268c0 214 89 386 307 386c76 0 133 -23 176 -61l63 91h63l-90 -130c47 -67 67 -162 67 -266c0 -219 -85 -382 -298 -382zM126 358
c0 -96 15 -165 39 -213l329 475c-37 45 -87 63 -144 63c-119 0 -224 -78 -224 -325zM342 42c118 0 218 77 218 322c0 91 -13 159 -36 208l-328 -473c39 -42 90 -57 146 -57z" />
    <glyph glyph-name="Otilde" unicode="&#xd5;" horiz-adv-x="687" 
d="M338 -11c-215 0 -288 165 -288 362c0 214 89 386 307 386c206 0 279 -164 279 -366c0 -219 -85 -382 -298 -382zM342 42c118 0 218 77 218 322c0 239 -89 319 -210 319c-119 0 -224 -78 -224 -325c0 -249 99 -316 216 -316zM274 886c35 0 157 -38 173 -38
c11 0 21 5 45 37l30 -17c-27 -73 -56 -87 -76 -87c-29 0 -144 39 -172 39c-13 0 -23 -7 -48 -36l-28 16c28 62 49 86 76 86z" />
    <glyph glyph-name="Racute" unicode="&#x154;" horiz-adv-x="666" 
d="M657 44l3 -32c-21 -14 -52 -23 -77 -23c-65 0 -94 30 -121 112c-54 162 -50 211 -156 211h-92v-187c0 -64 4 -76 43 -80l48 -5v-40h-248v39l46 5c36 4 38 14 38 81v480c0 56 -6 71 -41 75l-42 5v39h277c147 0 229 -62 229 -198c0 -98 -72 -166 -158 -187
c51 -16 76 -46 92 -93l42 -126c19 -58 36 -74 77 -77c11 -1 27 1 40 1zM214 671v-307h92c117 0 182 55 182 164c0 105 -71 143 -162 143h-112zM445 859l-216 -81l-17 31l178 119l55 -55v-14z" />
    <glyph glyph-name="Rcaron" unicode="&#x158;" horiz-adv-x="666" 
d="M657 44l3 -32c-21 -14 -52 -23 -77 -23c-65 0 -94 30 -121 112c-54 162 -50 211 -156 211h-92v-187c0 -64 4 -76 43 -80l48 -5v-40h-248v39l46 5c36 4 38 14 38 81v480c0 56 -6 71 -41 75l-42 5v39h277c147 0 229 -62 229 -198c0 -98 -72 -166 -158 -187
c51 -16 76 -46 92 -93l42 -126c19 -58 36 -74 77 -77c11 -1 27 1 40 1zM214 671v-307h92c117 0 182 55 182 164c0 105 -71 143 -162 143h-112zM306 850l134 79l22 -29l-125 -119h-63l-123 119l24 30z" />
    <glyph glyph-name="Rcommaaccent" unicode="&#x156;" horiz-adv-x="666" 
d="M657 44l3 -32c-21 -14 -52 -23 -77 -23c-65 0 -94 30 -121 112c-54 162 -50 211 -156 211h-92v-187c0 -64 4 -76 43 -80l48 -5v-40h-248v39l46 5c36 4 38 14 38 81v480c0 56 -6 71 -41 75l-42 5v39h277c147 0 229 -62 229 -198c0 -98 -72 -166 -158 -187
c51 -16 76 -46 92 -93l42 -126c19 -58 36 -74 77 -77c11 -1 27 1 40 1zM214 671v-307h92c117 0 182 55 182 164c0 105 -71 143 -162 143h-112zM414 -133c0 -50 -24 -112 -93 -155l-19 23c30 26 44 52 48 87c-40 1 -59 24 -59 55c0 38 25 55 61 55s62 -20 62 -65z" />
    <glyph glyph-name="Sacute" unicode="&#x15a;" horiz-adv-x="532" 
d="M455 555l-45 4l-13 68c-8 40 -29 57 -110 57c-104 0 -155 -54 -155 -126c0 -201 354 -89 354 -354c0 -175 -150 -215 -254 -215c-95 0 -156 22 -191 40l11 147h44l9 -68c7 -44 28 -67 134 -67c89 0 175 40 175 152c0 207 -354 100 -354 349c0 115 83 195 228 195
c61 0 127 -12 173 -36zM423 859l-216 -81l-17 31l178 119l55 -55v-14z" />
    <glyph glyph-name="Scaron" unicode="&#x160;" horiz-adv-x="532" 
d="M455 555l-45 4l-13 68c-8 40 -29 57 -110 57c-104 0 -155 -54 -155 -126c0 -201 354 -89 354 -354c0 -175 -150 -215 -254 -215c-95 0 -156 22 -191 40l11 147h44l9 -68c7 -44 28 -67 134 -67c89 0 175 40 175 152c0 207 -354 100 -354 349c0 115 83 195 228 195
c61 0 127 -12 173 -36zM278 850l134 79l22 -29l-125 -119h-63l-123 119l24 30z" />
    <glyph glyph-name="Scedilla" unicode="&#x15e;" horiz-adv-x="532" 
d="M155 -210l13 42c15 -5 37 -8 53 -8c40 0 59 18 59 51c0 31 -27 49 -74 54l16 60c-89 2 -147 22 -181 40l11 147h44l9 -68c7 -44 28 -67 134 -67c89 0 175 40 175 152c0 208 -354 101 -354 349c0 115 83 195 228 195c61 0 127 -12 173 -36l-6 -146l-45 4l-13 68
c-8 40 -29 57 -110 57c-104 0 -155 -54 -155 -126c0 -202 354 -88 354 -354c0 -155 -118 -204 -217 -213l-7 -28c39 -10 85 -32 85 -89c0 -60 -51 -98 -121 -98c-31 0 -58 7 -71 14z" />
    <glyph glyph-name="Scircumflex" unicode="&#x15c;" horiz-adv-x="532" 
d="M455 555l-45 4l-13 68c-8 40 -29 57 -110 57c-104 0 -155 -54 -155 -126c0 -201 354 -89 354 -354c0 -175 -150 -215 -254 -215c-95 0 -156 22 -191 40l11 147h44l9 -68c7 -44 28 -67 134 -67c89 0 175 40 175 152c0 207 -354 100 -354 349c0 115 83 195 228 195
c61 0 127 -12 173 -36zM415 775l-135 81l-133 -81l-24 32l125 117h65l125 -118z" />
    <glyph glyph-name="Scommaaccent" unicode="&#x218;" horiz-adv-x="532" 
d="M455 555l-45 4l-13 68c-8 40 -29 57 -110 57c-104 0 -155 -54 -155 -126c0 -201 354 -89 354 -354c0 -175 -150 -215 -254 -215c-95 0 -156 22 -191 40l11 147h44l9 -68c7 -44 28 -67 134 -67c89 0 175 40 175 152c0 207 -354 100 -354 349c0 115 83 195 228 195
c61 0 127 -12 173 -36zM317 -133c0 -50 -24 -112 -93 -155l-19 23c30 26 44 52 48 87c-40 1 -59 24 -59 55c0 38 25 55 61 55s62 -20 62 -65z" />
    <glyph glyph-name="Tbar" unicode="&#x166;" horiz-adv-x="638" 
d="M356 672v-281h120v-51h-120v-242c0 -45 10 -49 30 -51l84 -8v-39h-302v39l84 8c20 2 30 6 30 51v242h-126v51h126v281h-107c-40 0 -58 -10 -67 -44l-22 -82l-46 -1l10 179h538l9 -179l-45 1l-22 80c-9 33 -24 46 -62 46h-112z" />
    <glyph glyph-name="Tcaron" unicode="&#x164;" horiz-adv-x="638" 
d="M355 672v-574c0 -45 10 -49 30 -51l84 -8v-39h-301v39l84 8c20 2 30 6 30 51v574h-107c-42 0 -58 -10 -67 -44l-22 -82l-46 -1l10 179h537l9 -179l-45 1l-22 80c-10 33 -24 46 -62 46h-112zM319 850l134 79l22 -29l-125 -119h-63l-123 119l24 30z" />
    <glyph glyph-name="uni0162" unicode="&#x162;" horiz-adv-x="638" 
d="M221 -210l13 42c15 -5 37 -8 53 -8c40 0 59 18 59 51c0 31 -27 49 -74 54l19 71h-123v39l84 8c20 2 30 6 30 51v574h-107c-42 0 -58 -10 -67 -44l-22 -82l-46 -1l10 179h538l9 -179l-45 1l-22 80c-10 33 -24 46 -62 46h-112v-574c0 -45 10 -49 30 -51l84 -8v-39h-133
l-9 -37c39 -10 85 -32 85 -89c0 -60 -51 -98 -121 -98c-31 0 -58 7 -71 14z" />
    <glyph glyph-name="uni021A" unicode="&#x21a;" horiz-adv-x="638" 
d="M355 672v-574c0 -45 10 -49 30 -51l84 -8v-39h-301v39l84 8c20 2 30 6 30 51v574h-107c-42 0 -58 -10 -67 -44l-22 -82l-46 -1l10 179h537l9 -179l-45 1l-22 80c-10 33 -24 46 -62 46h-112zM375 -133c0 -50 -24 -112 -93 -155l-19 23c30 26 44 52 48 87
c-40 1 -59 24 -59 55c0 38 25 55 61 55s62 -20 62 -65z" />
    <glyph glyph-name="Uacute" unicode="&#xda;" horiz-adv-x="747" 
d="M564 256v364c0 51 -8 56 -43 61l-37 4v39h217v-39l-46 -5c-34 -4 -37 -17 -37 -63v-373c0 -178 -103 -255 -244 -255c-214 0 -247 141 -247 268v350c0 60 -6 69 -49 74l-34 4v39h234v-39l-46 -6c-28 -3 -32 -17 -32 -62v-357c0 -144 48 -217 177 -217
c116 0 187 59 187 213zM523 859l-216 -81l-17 31l178 119l55 -55v-14z" />
    <glyph glyph-name="Ubreve" unicode="&#x16c;" horiz-adv-x="747" 
d="M564 256v364c0 51 -8 56 -43 61l-37 4v39h217v-39l-46 -5c-34 -4 -37 -17 -37 -63v-373c0 -178 -103 -255 -244 -255c-214 0 -247 141 -247 268v350c0 60 -6 69 -49 74l-34 4v39h234v-39l-46 -6c-28 -3 -32 -17 -32 -62v-357c0 -144 48 -217 177 -217
c116 0 187 59 187 213zM501 927l36 -16c-20 -80 -65 -130 -154 -130s-130 55 -148 130l36 17c21 -48 57 -80 114 -80c55 0 93 28 116 79z" />
    <glyph glyph-name="Ucircumflex" unicode="&#xdb;" horiz-adv-x="747" 
d="M564 256v364c0 51 -8 56 -43 61l-37 4v39h217v-39l-46 -5c-34 -4 -37 -17 -37 -63v-373c0 -178 -103 -255 -244 -255c-214 0 -247 141 -247 268v350c0 60 -6 69 -49 74l-34 4v39h234v-39l-46 -6c-28 -3 -32 -17 -32 -62v-357c0 -144 48 -217 177 -217
c116 0 187 59 187 213zM515 775l-135 81l-133 -81l-24 32l125 117h65l125 -118z" />
    <glyph glyph-name="Udieresis" unicode="&#xdc;" horiz-adv-x="747" 
d="M564 256v364c0 51 -8 56 -43 61l-37 4v39h217v-39l-46 -5c-34 -4 -37 -17 -37 -63v-373c0 -178 -103 -255 -244 -255c-214 0 -247 141 -247 268v350c0 60 -6 69 -49 74l-34 4v39h234v-39l-46 -6c-28 -3 -32 -17 -32 -62v-357c0 -144 48 -217 177 -217
c116 0 187 59 187 213zM226 848c0 34 19 50 53 50s54 -16 54 -50c0 -36 -18 -53 -54 -53c-34 0 -53 17 -53 53zM427 848c0 34 19 50 53 50s54 -16 54 -50c0 -36 -18 -53 -54 -53c-34 0 -53 17 -53 53z" />
    <glyph glyph-name="Ugrave" unicode="&#xd9;" horiz-adv-x="747" 
d="M564 256v364c0 51 -8 56 -43 61l-37 4v39h217v-39l-46 -5c-34 -4 -37 -17 -37 -63v-373c0 -178 -103 -255 -244 -255c-214 0 -247 141 -247 268v350c0 60 -6 69 -49 74l-34 4v39h234v-39l-46 -6c-28 -3 -32 -17 -32 -62v-357c0 -144 48 -217 177 -217
c116 0 187 59 187 213zM437 777l-215 83v13l56 55l176 -121z" />
    <glyph glyph-name="Uhungarumlaut" unicode="&#x170;" horiz-adv-x="747" 
d="M564 256v364c0 51 -8 56 -43 61l-37 4v39h217v-39l-46 -5c-34 -4 -37 -17 -37 -63v-373c0 -178 -103 -255 -244 -255c-214 0 -247 141 -247 268v350c0 60 -6 69 -49 74l-34 4v39h234v-39l-46 -6c-28 -3 -32 -17 -32 -62v-357c0 -144 48 -217 177 -217
c116 0 187 59 187 213zM468 910l-174 -133l-26 26l142 166l58 -50v-9zM631 897l-180 -126l-24 28l151 160l53 -53v-9z" />
    <glyph glyph-name="Umacron" unicode="&#x16a;" horiz-adv-x="747" 
d="M564 256v364c0 51 -8 56 -43 61l-37 4v39h217v-39l-46 -5c-34 -4 -37 -17 -37 -63v-373c0 -178 -103 -255 -244 -255c-214 0 -247 141 -247 268v350c0 60 -6 69 -49 74l-34 4v39h234v-39l-46 -6c-28 -3 -32 -17 -32 -62v-357c0 -144 48 -217 177 -217
c116 0 187 59 187 213zM233 815v61h293v-61h-293z" />
    <glyph glyph-name="Uogonek" unicode="&#x172;" horiz-adv-x="747" 
d="M524 -161l11 -36c-18 -11 -49 -28 -92 -28s-100 21 -100 91c0 49 25 89 72 126c-14 -2 -27 -3 -41 -3c-214 0 -247 141 -247 268v350c0 60 -6 69 -49 74l-34 4v39h234v-39l-46 -6c-28 -3 -32 -17 -32 -62v-359c0 -144 48 -218 177 -218c116 0 187 58 187 214v366
c0 51 -8 56 -43 61l-37 4v39h219v-39l-46 -5c-34 -4 -37 -17 -37 -63v-373c0 -108 -38 -178 -99 -217c-73 -48 -109 -92 -109 -146c0 -29 18 -49 55 -51c18 -1 36 2 57 9z" />
    <glyph glyph-name="Uring" unicode="&#x16e;" horiz-adv-x="747" 
d="M564 256v364c0 51 -8 56 -43 61l-37 4v39h217v-39l-46 -5c-34 -4 -37 -17 -37 -63v-373c0 -178 -103 -255 -244 -255c-214 0 -247 141 -247 268v350c0 60 -6 69 -49 74l-34 4v39h234v-39l-46 -6c-28 -3 -32 -17 -32 -62v-357c0 -144 48 -217 177 -217
c116 0 187 59 187 213zM501 868c0 -84 -63 -102 -108 -102c-52 0 -108 26 -108 102c0 85 63 105 108 105c65 0 108 -36 108 -105zM393 807c35 0 55 22 55 61c0 52 -26 64 -55 64c-25 0 -55 -10 -55 -64c0 -38 18 -61 55 -61z" />
    <glyph glyph-name="Utilde" unicode="&#x168;" horiz-adv-x="747" 
d="M564 256v364c0 51 -8 56 -43 61l-37 4v39h217v-39l-46 -5c-34 -4 -37 -17 -37 -63v-373c0 -178 -103 -255 -244 -255c-214 0 -247 141 -247 268v350c0 60 -6 69 -49 74l-34 4v39h234v-39l-46 -6c-28 -3 -32 -17 -32 -62v-357c0 -144 48 -217 177 -217
c116 0 187 59 187 213zM303 886c35 0 157 -38 173 -38c11 0 21 5 45 37l30 -17c-27 -73 -56 -87 -76 -87c-29 0 -144 39 -172 39c-13 0 -23 -7 -48 -36l-28 16c28 62 49 86 76 86z" />
    <glyph glyph-name="Wacute" unicode="&#x1e82;" horiz-adv-x="958" 
d="M712 0h-87l-146 649h-4l-150 -649h-86l-147 603c-13 62 -24 71 -54 77l-27 5v39h224v-39l-82 -11l136 -579h4l143 629h97l144 -629h5l141 582l-77 8v39h203v-39l-32 -5c-33 -4 -40 -18 -52 -64zM628 859l-216 -81l-17 31l178 119l55 -55v-14z" />
    <glyph glyph-name="Wcircumflex" unicode="&#x174;" horiz-adv-x="958" 
d="M712 0h-87l-146 649h-4l-150 -649h-86l-147 603c-13 62 -24 71 -54 77l-27 5v39h224v-39l-82 -11l136 -579h4l143 629h97l144 -629h5l141 582l-77 8v39h203v-39l-32 -5c-33 -4 -40 -18 -52 -64zM617 775l-135 81l-133 -81l-24 32l125 117h65l125 -118z" />
    <glyph glyph-name="Wdieresis" unicode="&#x1e84;" horiz-adv-x="958" 
d="M712 0h-87l-146 649h-4l-150 -649h-86l-147 603c-13 62 -24 71 -54 77l-27 5v39h224v-39l-82 -11l136 -579h4l143 629h97l144 -629h5l141 582l-77 8v39h203v-39l-32 -5c-33 -4 -40 -18 -52 -64zM326 848c0 34 19 50 53 50s54 -16 54 -50c0 -36 -18 -53 -54 -53
c-34 0 -53 17 -53 53zM527 848c0 34 19 50 53 50s54 -16 54 -50c0 -36 -18 -53 -54 -53c-34 0 -53 17 -53 53z" />
    <glyph glyph-name="Wgrave" unicode="&#x1e80;" horiz-adv-x="958" 
d="M712 0h-87l-146 649h-4l-150 -649h-86l-147 603c-13 62 -24 71 -54 77l-27 5v39h224v-39l-82 -11l136 -579h4l143 629h97l144 -629h5l141 582l-77 8v39h203v-39l-32 -5c-33 -4 -40 -18 -52 -64zM550 777l-215 83v13l56 55l176 -121z" />
    <glyph glyph-name="Yacute" unicode="&#xdd;" horiz-adv-x="615" 
d="M277 99v190l-178 315c-33 60 -43 70 -72 77l-22 4v39h218v-39l-82 -12l180 -321h2l172 322l-79 11v39h193v-39l-17 -4c-34 -7 -45 -22 -78 -82l-164 -305v-195c0 -45 10 -50 39 -53l62 -7v-39h-275v39l62 7c29 3 39 8 39 53zM461 859l-216 -81l-17 31l178 119l55 -55v-14
z" />
    <glyph glyph-name="Ycircumflex" unicode="&#x176;" horiz-adv-x="615" 
d="M277 99v190l-178 315c-33 60 -43 70 -72 77l-22 4v39h218v-39l-82 -12l180 -321h2l172 322l-79 11v39h193v-39l-17 -4c-34 -7 -45 -22 -78 -82l-164 -305v-195c0 -45 10 -50 39 -53l62 -7v-39h-275v39l62 7c29 3 39 8 39 53zM453 775l-135 81l-133 -81l-24 32l125 117h65
l125 -118z" />
    <glyph glyph-name="Ydieresis" unicode="&#x178;" horiz-adv-x="615" 
d="M277 99v190l-178 315c-33 60 -43 70 -72 77l-22 4v39h218v-39l-82 -12l180 -321h2l172 322l-79 11v39h193v-39l-17 -4c-34 -7 -45 -22 -78 -82l-164 -305v-195c0 -45 10 -50 39 -53l62 -7v-39h-275v39l62 7c29 3 39 8 39 53zM168 848c0 34 19 50 53 50s54 -16 54 -50
c0 -36 -18 -53 -54 -53c-34 0 -53 17 -53 53zM369 848c0 34 19 50 53 50s54 -16 54 -50c0 -36 -18 -53 -54 -53c-34 0 -53 17 -53 53z" />
    <glyph glyph-name="Ygrave" unicode="&#x1ef2;" horiz-adv-x="615" 
d="M277 99v190l-178 315c-33 60 -43 70 -72 77l-22 4v39h218v-39l-82 -12l180 -321h2l172 322l-79 11v39h193v-39l-17 -4c-34 -7 -45 -22 -78 -82l-164 -305v-195c0 -45 10 -50 39 -53l62 -7v-39h-275v39l62 7c29 3 39 8 39 53zM381 777l-215 83v13l56 55l176 -121z" />
    <glyph glyph-name="Zacute" unicode="&#x179;" horiz-adv-x="610" 
d="M540 0h-490v46l420 626h-264c-52 0 -60 -18 -71 -54l-16 -62l-48 -4l15 172h472v-45l-419 -627h278c40 0 55 12 68 47l29 91h49zM460 859l-216 -81l-17 31l178 119l55 -55v-14z" />
    <glyph glyph-name="Zcaron" unicode="&#x17d;" horiz-adv-x="610" 
d="M540 0h-490v46l420 626h-264c-52 0 -60 -18 -71 -54l-16 -62l-48 -4l15 172h472v-45l-419 -627h278c40 0 55 12 68 47l29 91h49zM314 850l134 79l22 -29l-125 -119h-63l-123 119l24 30z" />
    <glyph glyph-name="Zdotaccent" unicode="&#x17b;" horiz-adv-x="610" 
d="M540 0h-490v46l420 626h-264c-52 0 -60 -18 -71 -54l-16 -62l-48 -4l15 172h472v-45l-419 -627h278c40 0 55 12 68 47l29 91h49zM369 851c0 -36 -20 -55 -57 -55c-35 0 -56 19 -56 55s21 54 56 54c36 0 57 -18 57 -54z" />
    <glyph glyph-name="aacute" unicode="&#xe1;" horiz-adv-x="515" 
d="M484 32l3 -29c-23 -10 -42 -13 -62 -13c-42 0 -75 20 -80 77c-24 -45 -81 -78 -148 -78c-104 0 -150 56 -150 139c0 112 83 160 291 166v54c0 91 -29 123 -105 123c-52 0 -90 -11 -143 -32l-15 41c37 23 104 48 175 48c94 0 157 -43 157 -170v-269c0 -40 5 -50 41 -53z
M338 159v87c-158 -2 -217 -31 -217 -111c0 -62 37 -92 94 -92c78 0 123 52 123 116zM379 721l-176 -153l-30 23l134 179l72 -36v-13z" />
    <glyph glyph-name="abreve" unicode="&#x103;" horiz-adv-x="515" 
d="M484 32l3 -29c-23 -10 -42 -13 -62 -13c-42 0 -75 20 -80 77c-24 -45 -81 -78 -148 -78c-104 0 -150 56 -150 139c0 112 83 160 291 166v54c0 91 -29 123 -105 123c-52 0 -90 -11 -143 -32l-15 41c37 23 104 48 175 48c94 0 157 -43 157 -170v-269c0 -40 5 -50 41 -53z
M338 159v87c-158 -2 -217 -31 -217 -111c0 -62 37 -92 94 -92c78 0 123 52 123 116zM239 654c50 0 82 32 113 102l37 -14c-21 -96 -77 -155 -150 -155c-83 0 -130 56 -150 155l37 15c27 -71 62 -103 113 -103z" />
    <glyph glyph-name="acircumflex" unicode="&#xe2;" horiz-adv-x="515" 
d="M484 32l3 -29c-23 -10 -42 -13 -62 -13c-42 0 -75 20 -80 77c-24 -45 -81 -78 -148 -78c-104 0 -150 56 -150 139c0 112 83 160 291 166v54c0 91 -29 123 -105 123c-52 0 -90 -11 -143 -32l-15 41c37 23 104 48 175 48c94 0 157 -43 157 -170v-269c0 -40 5 -50 41 -53z
M338 159v87c-158 -2 -217 -31 -217 -111c0 -62 37 -92 94 -92c78 0 123 52 123 116zM204 765h66l118 -169l-32 -24l-120 120l-119 -120l-32 24z" />
    <glyph glyph-name="adieresis" unicode="&#xe4;" horiz-adv-x="515" 
d="M484 32l3 -29c-23 -10 -42 -13 -62 -13c-42 0 -75 20 -80 77c-24 -45 -81 -78 -148 -78c-104 0 -150 56 -150 139c0 112 83 160 291 166v54c0 91 -29 123 -105 123c-52 0 -90 -11 -143 -32l-15 41c37 23 104 48 175 48c94 0 157 -43 157 -170v-269c0 -40 5 -50 41 -53z
M338 159v87c-158 -2 -217 -31 -217 -111c0 -62 37 -92 94 -92c78 0 123 52 123 116zM81 679c0 34 20 50 53 50c35 0 55 -16 55 -50c0 -36 -19 -53 -55 -53c-33 0 -53 17 -53 53zM282 679c0 34 20 50 53 50c35 0 55 -16 55 -50c0 -36 -19 -53 -55 -53c-33 0 -53 17 -53 53z
" />
    <glyph glyph-name="aeacute" unicode="&#x1fd;" horiz-adv-x="794" 
d="M722 85l21 -39c-50 -36 -107 -57 -177 -57c-82 0 -147 29 -191 100c-27 -48 -81 -100 -173 -100c-107 0 -152 56 -152 139c0 112 82 160 291 166v54c0 91 -29 123 -105 123c-52 0 -91 -11 -143 -32l-15 41c37 23 104 48 175 48c66 0 117 -22 141 -84c40 61 102 84 167 84
c111 0 191 -68 191 -231c0 -21 0 -38 -2 -51h-341c3 -119 58 -198 169 -198c59 0 95 11 144 37zM409 294h271c5 119 -42 185 -126 185c-79 0 -139 -55 -145 -185zM341 159v87c-158 -2 -218 -31 -218 -111c0 -62 37 -92 94 -92c78 0 124 52 124 116zM549 721l-176 -153
l-30 23l134 179l72 -36v-13z" />
    <glyph glyph-name="agrave" unicode="&#xe0;" horiz-adv-x="515" 
d="M484 32l3 -29c-23 -10 -42 -13 -62 -13c-42 0 -75 20 -80 77c-24 -45 -81 -78 -148 -78c-104 0 -150 56 -150 139c0 112 83 160 291 166v54c0 91 -29 123 -105 123c-52 0 -90 -11 -143 -32l-15 41c37 23 104 48 175 48c94 0 157 -43 157 -170v-269c0 -40 5 -50 41 -53z
M338 159v87c-158 -2 -217 -31 -217 -111c0 -62 37 -92 94 -92c78 0 123 52 123 116zM282 569l-174 150v13l72 37l132 -177z" />
    <glyph glyph-name="amacron" unicode="&#x101;" horiz-adv-x="515" 
d="M484 32l3 -29c-23 -10 -42 -13 -62 -13c-42 0 -75 20 -80 77c-24 -45 -81 -78 -148 -78c-104 0 -150 56 -150 139c0 112 83 160 291 166v54c0 91 -29 123 -105 123c-52 0 -90 -11 -143 -32l-15 41c37 23 104 48 175 48c94 0 157 -43 157 -170v-269c0 -40 5 -50 41 -53z
M338 159v87c-158 -2 -217 -31 -217 -111c0 -62 37 -92 94 -92c78 0 123 52 123 116zM93 630v60h285v-60h-285z" />
    <glyph glyph-name="aogonek" unicode="&#x105;" horiz-adv-x="515" 
d="M473 -161l11 -36c-18 -11 -49 -28 -92 -28s-100 21 -100 91c0 53 39 94 98 130c-25 9 -42 31 -45 71c-24 -45 -81 -78 -148 -78c-104 0 -150 56 -150 139c0 112 83 160 291 166v54c0 91 -29 123 -105 123c-52 0 -90 -11 -143 -32l-15 41c37 23 104 48 175 48
c94 0 157 -43 157 -170v-269c0 -40 5 -50 41 -53l36 -4l3 -29c-74 -31 -126 -68 -126 -122c0 -29 18 -49 55 -51c18 -1 36 2 57 9zM338 159v87c-158 -2 -217 -31 -217 -111c0 -62 37 -92 94 -92c78 0 123 52 123 116z" />
    <glyph glyph-name="aring" unicode="&#xe5;" horiz-adv-x="515" 
d="M484 32l3 -29c-23 -10 -42 -13 -62 -13c-42 0 -75 20 -80 77c-24 -45 -81 -78 -148 -78c-104 0 -150 56 -150 139c0 112 83 160 291 166v54c0 91 -29 123 -105 123c-52 0 -90 -11 -143 -32l-15 41c37 23 104 48 175 48c94 0 157 -43 157 -170v-269c0 -40 5 -50 41 -53z
M338 159v87c-158 -2 -217 -31 -217 -111c0 -62 37 -92 94 -92c78 0 123 52 123 116zM344 677c0 -84 -64 -102 -108 -102c-53 0 -108 27 -108 103c0 84 63 104 108 104c64 0 108 -36 108 -105zM236 616c34 0 55 22 55 62c0 52 -27 63 -55 63c-25 0 -55 -9 -55 -63
c0 -38 18 -62 55 -62z" />
    <glyph glyph-name="aringacute" unicode="&#x1fb;" horiz-adv-x="515" 
d="M484 32l3 -29c-23 -10 -42 -13 -62 -13c-42 0 -75 20 -80 77c-24 -45 -81 -78 -148 -78c-104 0 -150 56 -150 139c0 112 83 160 291 166v54c0 91 -29 123 -105 123c-52 0 -90 -11 -143 -32l-15 41c37 23 104 48 175 48c94 0 157 -43 157 -170v-269c0 -40 5 -50 41 -53z
M338 159v87c-158 -2 -217 -31 -217 -111c0 -62 37 -92 94 -92c78 0 123 52 123 116zM344 677c0 -84 -64 -102 -108 -102c-53 0 -108 27 -108 103c0 84 63 104 108 104c64 0 108 -36 108 -105zM236 616c34 0 55 22 55 62c0 52 -27 63 -55 63c-25 0 -55 -9 -55 -63
c0 -38 18 -62 55 -62zM383 901l-216 -81l-17 31l178 119l55 -55v-14z" />
    <glyph glyph-name="atilde" unicode="&#xe3;" horiz-adv-x="515" 
d="M484 32l3 -29c-23 -10 -42 -13 -62 -13c-42 0 -75 20 -80 77c-24 -45 -81 -78 -148 -78c-104 0 -150 56 -150 139c0 112 83 160 291 166v54c0 91 -29 123 -105 123c-52 0 -90 -11 -143 -32l-15 41c37 23 104 48 175 48c94 0 157 -43 157 -170v-269c0 -40 5 -50 41 -53z
M338 159v87c-158 -2 -217 -31 -217 -111c0 -62 37 -92 94 -92c78 0 123 52 123 116zM154 728c35 0 156 -38 172 -38c12 0 21 5 45 37l31 -17c-28 -73 -56 -87 -77 -87c-28 0 -144 38 -172 38c-13 0 -23 -7 -47 -35l-29 15c28 62 50 87 77 87z" />
    <glyph glyph-name="cacute" unicode="&#x107;" horiz-adv-x="488" 
d="M422 81l23 -37c-31 -24 -90 -55 -167 -55c-151 0 -232 102 -232 264c0 186 102 275 248 275c48 0 113 -14 150 -37l-7 -142l-47 4l-13 66c-7 39 -25 57 -87 57c-93 0 -170 -57 -170 -213c0 -164 80 -216 176 -216c53 0 94 15 126 34zM399 721l-176 -153l-30 23l134 179
l72 -36v-13z" />
    <glyph glyph-name="ccaron" unicode="&#x10d;" horiz-adv-x="488" 
d="M422 81l23 -37c-31 -24 -90 -55 -167 -55c-151 0 -232 102 -232 264c0 186 102 275 248 275c48 0 113 -14 150 -37l-7 -142l-47 4l-13 66c-7 39 -25 57 -87 57c-93 0 -170 -57 -170 -213c0 -164 80 -216 176 -216c53 0 94 15 126 34zM307 586h-66l-116 167l31 25
l119 -122l119 120l30 -24z" />
    <glyph glyph-name="ccedilla" unicode="&#xe7;" horiz-adv-x="488" 
d="M171 -210l13 42c15 -5 37 -8 53 -8c40 0 60 18 60 51c0 31 -28 49 -75 54l17 63c-126 15 -193 113 -193 261c0 186 102 275 248 275c48 0 113 -14 150 -37l-7 -142l-47 4l-13 66c-7 39 -25 57 -87 57c-93 0 -170 -57 -170 -213c0 -164 80 -216 176 -216
c53 0 94 15 126 34l23 -37c-30 -24 -87 -53 -160 -55l-7 -26c39 -10 85 -32 85 -89c0 -60 -49 -98 -121 -98c-31 0 -58 7 -71 14z" />
    <glyph glyph-name="ccircumflex" unicode="&#x109;" horiz-adv-x="488" 
d="M422 81l23 -37c-31 -24 -90 -55 -167 -55c-151 0 -232 102 -232 264c0 186 102 275 248 275c48 0 113 -14 150 -37l-7 -142l-47 4l-13 66c-7 39 -25 57 -87 57c-93 0 -170 -57 -170 -213c0 -164 80 -216 176 -216c53 0 94 15 126 34zM242 765h66l118 -169l-32 -24
l-120 120l-119 -120l-32 24z" />
    <glyph glyph-name="cdotaccent" unicode="&#x10b;" horiz-adv-x="488" 
d="M422 81l23 -37c-31 -24 -90 -55 -167 -55c-151 0 -232 102 -232 264c0 186 102 275 248 275c48 0 113 -14 150 -37l-7 -142l-47 4l-13 66c-7 39 -25 57 -87 57c-93 0 -170 -57 -170 -213c0 -164 80 -216 176 -216c53 0 94 15 126 34zM327 696c0 -37 -20 -56 -57 -56
c-35 0 -56 19 -56 56c0 35 21 53 56 53c36 0 57 -18 57 -53z" />
    <glyph glyph-name="dcaron" unicode="&#x10f;" horiz-adv-x="608" 
d="M544 0h-124l-13 62c-39 -46 -98 -73 -162 -73c-131 0 -199 94 -199 263c0 190 89 276 214 276c50 0 102 -16 139 -51v149c0 41 -7 56 -46 61l-39 6l5 35l134 17l15 -11v-625c0 -47 4 -60 40 -67l36 -6v-36zM399 109v315c-32 27 -78 48 -132 48c-90 0 -147 -64 -147 -212
c0 -143 44 -215 140 -215c51 0 101 22 139 64zM558 519l-32 11c9 40 15 82 16 118c1 31 -1 64 -9 94l71 17l12 -4c2 -7 4 -23 4 -36c0 -64 -26 -135 -62 -200z" />
    <glyph glyph-name="dcroat" unicode="&#x111;" horiz-adv-x="574" 
d="M544 0h-124l-13 62c-39 -46 -98 -73 -162 -73c-131 0 -199 94 -199 263c0 190 89 276 214 276c50 0 102 -16 139 -51v110h-135v47h135c-1 35 -10 48 -46 53l-39 6l5 35l134 17l15 -11v-100h80v-47h-80v-478c0 -47 4 -60 40 -67l36 -6v-36zM399 109v315
c-32 27 -78 48 -132 48c-90 0 -147 -64 -147 -212c0 -143 44 -215 140 -215c51 0 101 22 139 64z" />
    <glyph glyph-name="eacute" unicode="&#xe9;" horiz-adv-x="505" 
d="M432 85l21 -39c-50 -36 -107 -57 -174 -57c-159 0 -233 114 -233 267c0 190 103 272 227 272c109 0 191 -68 191 -231c0 -20 0 -38 -2 -51h-342c3 -117 58 -198 170 -198c58 0 93 11 142 37zM121 294h269c5 119 -41 185 -121 185c-88 0 -142 -61 -148 -185zM400 721
l-176 -153l-30 23l134 179l72 -36v-13z" />
    <glyph glyph-name="ebreve" unicode="&#x115;" horiz-adv-x="505" 
d="M432 85l21 -39c-50 -36 -107 -57 -174 -57c-159 0 -233 114 -233 267c0 190 103 272 227 272c109 0 191 -68 191 -231c0 -20 0 -38 -2 -51h-342c3 -117 58 -198 170 -198c58 0 93 11 142 37zM121 294h269c5 119 -41 185 -121 185c-88 0 -142 -61 -148 -185zM262 654
c50 0 82 32 113 102l37 -14c-21 -96 -77 -155 -150 -155c-83 0 -130 56 -150 155l37 15c27 -71 62 -103 113 -103z" />
    <glyph glyph-name="ecaron" unicode="&#x11b;" horiz-adv-x="505" 
d="M432 85l21 -39c-50 -36 -107 -57 -174 -57c-159 0 -233 114 -233 267c0 190 103 272 227 272c109 0 191 -68 191 -231c0 -20 0 -38 -2 -51h-342c3 -117 58 -198 170 -198c58 0 93 11 142 37zM121 294h269c5 119 -41 185 -121 185c-88 0 -142 -61 -148 -185zM300 586h-66
l-116 167l31 25l119 -122l119 120l30 -24z" />
    <glyph glyph-name="ecircumflex" unicode="&#xea;" horiz-adv-x="505" 
d="M432 85l21 -39c-50 -36 -107 -57 -174 -57c-159 0 -233 114 -233 267c0 190 103 272 227 272c109 0 191 -68 191 -231c0 -20 0 -38 -2 -51h-342c3 -117 58 -198 170 -198c58 0 93 11 142 37zM121 294h269c5 119 -41 185 -121 185c-88 0 -142 -61 -148 -185zM235 765h66
l118 -169l-32 -24l-120 120l-119 -120l-32 24z" />
    <glyph glyph-name="edieresis" unicode="&#xeb;" horiz-adv-x="505" 
d="M432 85l21 -39c-50 -36 -107 -57 -174 -57c-159 0 -233 114 -233 267c0 190 103 272 227 272c109 0 191 -68 191 -231c0 -20 0 -38 -2 -51h-342c3 -117 58 -198 170 -198c58 0 93 11 142 37zM121 294h269c5 119 -41 185 -121 185c-88 0 -142 -61 -148 -185zM106 679
c0 34 20 50 53 50c35 0 55 -16 55 -50c0 -36 -19 -53 -55 -53c-33 0 -53 17 -53 53zM307 679c0 34 20 50 53 50c35 0 55 -16 55 -50c0 -36 -19 -53 -55 -53c-33 0 -53 17 -53 53z" />
    <glyph glyph-name="edotaccent" unicode="&#x117;" horiz-adv-x="505" 
d="M432 85l21 -39c-50 -36 -107 -57 -174 -57c-159 0 -233 114 -233 267c0 190 103 272 227 272c109 0 191 -68 191 -231c0 -20 0 -38 -2 -51h-342c3 -117 58 -198 170 -198c58 0 93 11 142 37zM121 294h269c5 119 -41 185 -121 185c-88 0 -142 -61 -148 -185zM319 696
c0 -37 -20 -56 -57 -56c-35 0 -56 19 -56 56c0 35 21 53 56 53c36 0 57 -18 57 -53z" />
    <glyph glyph-name="egrave" unicode="&#xe8;" horiz-adv-x="505" 
d="M432 85l21 -39c-50 -36 -107 -57 -174 -57c-159 0 -233 114 -233 267c0 190 103 272 227 272c109 0 191 -68 191 -231c0 -20 0 -38 -2 -51h-342c3 -117 58 -198 170 -198c58 0 93 11 142 37zM121 294h269c5 119 -41 185 -121 185c-88 0 -142 -61 -148 -185zM306 569
l-174 150v13l72 37l132 -177z" />
    <glyph glyph-name="emacron" unicode="&#x113;" horiz-adv-x="505" 
d="M432 85l21 -39c-50 -36 -107 -57 -174 -57c-159 0 -233 114 -233 267c0 190 103 272 227 272c109 0 191 -68 191 -231c0 -20 0 -38 -2 -51h-342c3 -117 58 -198 170 -198c58 0 93 11 142 37zM121 294h269c5 119 -41 185 -121 185c-88 0 -142 -61 -148 -185zM120 630v60
h285v-60h-285z" />
    <glyph glyph-name="eogonek" unicode="&#x119;" horiz-adv-x="503" 
d="M397 -161l11 -36c-18 -11 -49 -28 -92 -28s-100 21 -100 91c0 47 29 89 76 123h-14c-159 0 -233 114 -233 267c0 190 103 272 227 272c109 0 191 -68 191 -231c0 -20 0 -38 -2 -51h-342c3 -117 58 -198 170 -198c58 0 93 11 142 37l21 -39c-18 -13 -38 -23 -57 -33
c-46 -24 -110 -78 -110 -132c0 -29 18 -49 55 -51c18 -1 36 2 57 9zM120 294h269c5 119 -40 185 -121 185c-88 0 -142 -61 -148 -185z" />
    <glyph glyph-name="gbreve" unicode="&#x11f;" horiz-adv-x="502" 
d="M473 472l-72 -16c30 -36 38 -81 38 -111c0 -100 -74 -174 -193 -174c-31 0 -58 5 -76 10l-43 -91l197 -9c87 -4 155 -32 155 -117c0 -96 -91 -157 -249 -157c-100 0 -202 31 -202 117c0 41 22 76 72 110c-31 6 -40 22 -40 41c0 18 8 32 22 54l46 69
c-46 27 -80 78 -80 143c0 116 84 187 193 187c51 0 91 -14 109 -25l117 11zM369 348c0 89 -49 130 -124 130c-77 0 -126 -45 -126 -131c0 -95 60 -125 125 -125c73 0 125 38 125 126zM410 -48c0 44 -31 66 -98 68l-164 7c-23 -21 -52 -51 -52 -92c0 -45 45 -74 146 -74
c88 0 168 27 168 91zM246 654c50 0 82 32 113 102l37 -14c-21 -96 -77 -155 -150 -155c-83 0 -130 56 -150 155l37 15c27 -71 62 -103 113 -103z" />
    <glyph glyph-name="gcircumflex" unicode="&#x11d;" horiz-adv-x="502" 
d="M473 472l-72 -16c30 -36 38 -81 38 -111c0 -100 -74 -174 -193 -174c-31 0 -58 5 -76 10l-43 -91l197 -9c87 -4 155 -32 155 -117c0 -96 -91 -157 -249 -157c-100 0 -202 31 -202 117c0 41 22 76 72 110c-31 6 -40 22 -40 41c0 18 8 32 22 54l46 69
c-46 27 -80 78 -80 143c0 116 84 187 193 187c51 0 91 -14 109 -25l117 11zM369 348c0 89 -49 130 -124 130c-77 0 -126 -45 -126 -131c0 -95 60 -125 125 -125c73 0 125 38 125 126zM410 -48c0 44 -31 66 -98 68l-164 7c-23 -21 -52 -51 -52 -92c0 -45 45 -74 146 -74
c88 0 168 27 168 91zM214 765h66l118 -169l-32 -24l-120 120l-119 -120l-32 24z" />
    <glyph glyph-name="gcommaaccent" unicode="&#x123;" horiz-adv-x="502" 
d="M473 472l-72 -16c30 -36 38 -81 38 -111c0 -100 -74 -174 -193 -174c-31 0 -58 5 -76 10l-43 -91l197 -9c87 -4 155 -32 155 -117c0 -96 -91 -157 -249 -157c-100 0 -202 31 -202 117c0 41 22 76 72 110c-31 6 -40 22 -40 41c0 18 8 32 22 54l46 69
c-46 27 -80 78 -80 143c0 116 84 187 193 187c51 0 91 -14 109 -25l117 11zM369 348c0 89 -49 130 -124 130c-77 0 -126 -45 -126 -131c0 -95 60 -125 125 -125c73 0 125 38 125 126zM410 -48c0 44 -31 66 -98 68l-164 7c-23 -21 -52 -51 -52 -92c0 -45 45 -74 146 -74
c88 0 168 27 168 91zM182 648c0 50 24 112 93 155l19 -23c-30 -26 -44 -52 -48 -87c40 -1 59 -24 59 -55c0 -38 -25 -55 -61 -55s-62 20 -62 65z" />
    <glyph glyph-name="gdotaccent" unicode="&#x121;" horiz-adv-x="502" 
d="M473 472l-72 -16c30 -36 38 -81 38 -111c0 -100 -74 -174 -193 -174c-31 0 -58 5 -76 10l-43 -91l197 -9c87 -4 155 -32 155 -117c0 -96 -91 -157 -249 -157c-100 0 -202 31 -202 117c0 41 22 76 72 110c-31 6 -40 22 -40 41c0 18 8 32 22 54l46 69
c-46 27 -80 78 -80 143c0 116 84 187 193 187c51 0 91 -14 109 -25l117 11zM369 348c0 89 -49 130 -124 130c-77 0 -126 -45 -126 -131c0 -95 60 -125 125 -125c73 0 125 38 125 126zM410 -48c0 44 -31 66 -98 68l-164 7c-23 -21 -52 -51 -52 -92c0 -45 45 -74 146 -74
c88 0 168 27 168 91zM300 696c0 -37 -20 -56 -57 -56c-35 0 -56 19 -56 56c0 35 21 53 56 53c36 0 57 -18 57 -53z" />
    <glyph glyph-name="hbar" unicode="&#x127;" horiz-adv-x="634" 
d="M195 406v-285c0 -65 1 -74 35 -79l36 -6v-36h-218v36l38 6c36 6 40 12 40 79v469h-86v46h85c-2 33 -11 47 -45 52l-37 5l6 35l129 17l17 -12v-97h136v-46h-136v-138c56 50 111 76 179 76c85 0 154 -39 154 -182v-225c0 -64 3 -74 37 -79l42 -6v-36h-218v36l37 6
c31 4 33 14 33 76v221c0 88 -35 128 -106 128c-53 0 -108 -22 -158 -61z" />
    <glyph glyph-name="hcircumflex" unicode="&#x125;" horiz-adv-x="631" 
d="M192 406v-285c0 -65 1 -74 35 -79l36 -6v-36h-218v36l38 6c36 6 40 12 40 79v483c0 57 -2 78 -46 84l-37 5l6 35l129 17l17 -12v-281c56 50 111 76 179 76c85 0 154 -39 154 -182v-225c0 -64 3 -74 37 -79l42 -6v-36h-218v36l37 6c31 4 33 14 33 76v221
c0 88 -35 128 -106 128c-53 0 -108 -22 -158 -61zM266 775l-135 81l-133 -81l-24 32l125 117h65l125 -118z" />
    <glyph glyph-name="iacute" unicode="&#xed;" horiz-adv-x="311" 
d="M257 721l-176 -153l-30 23l134 179l72 -36v-13zM195 515v-395c0 -64 3 -74 34 -78l42 -6v-36h-223v36l39 6c36 5 39 15 39 78v283c0 46 -12 59 -48 64l-36 6l5 34l132 16z" />
    <glyph glyph-name="ibreve" unicode="&#x12d;" horiz-adv-x="314" 
d="M145 654c50 0 82 32 113 102l37 -14c-21 -96 -77 -155 -150 -155c-83 0 -130 56 -150 155l37 15c27 -71 62 -103 113 -103zM195 515v-395c0 -64 3 -74 34 -78l42 -6v-36h-223v36l39 6c36 5 39 15 39 78v283c0 46 -12 59 -48 64l-36 6l5 34l132 16z" />
    <glyph glyph-name="icircumflex" unicode="&#xee;" horiz-adv-x="311" 
d="M195 515v-395c0 -64 3 -74 34 -78l42 -6v-36h-223v36l39 6c36 5 39 15 39 78v283c0 46 -12 59 -48 64l-36 6l5 34l132 16zM103 765h66l118 -169l-32 -24l-120 120l-119 -120l-32 24z" />
    <glyph glyph-name="idieresis" unicode="&#xef;" horiz-adv-x="311" 
d="M-13 679c0 34 19 50 53 50s54 -16 54 -50c0 -36 -18 -53 -54 -53c-34 0 -53 17 -53 53zM173 679c0 34 19 50 53 50s54 -16 54 -50c0 -36 -18 -53 -54 -53c-34 0 -53 17 -53 53zM196 515v-395c0 -64 3 -74 34 -78l42 -6v-36h-223v36l39 6c36 5 39 15 39 78v283
c0 46 -12 59 -48 64l-36 6l5 34l132 16z" />
    <glyph glyph-name="idotaccent" horiz-adv-x="311" 
d="M198 693c0 -37 -20 -56 -54 -56c-32 0 -54 19 -54 56c0 35 22 53 54 53c33 0 54 -18 54 -53zM194 515v-395c0 -64 3 -74 34 -78l42 -6v-36h-223v36l39 6c36 5 39 15 39 78v283c0 46 -12 59 -48 64l-36 6l5 34l132 16z" />
    <glyph glyph-name="igrave" unicode="&#xec;" horiz-adv-x="311" 
d="M188 569l-174 150v13l72 37l132 -177zM195 515v-395c0 -64 3 -74 34 -78l42 -6v-36h-223v36l39 6c36 5 39 15 39 78v283c0 46 -12 59 -48 64l-36 6l5 34l132 16z" />
    <glyph glyph-name="imacron" unicode="&#x12b;" horiz-adv-x="311" 
d="M11 629v63h253v-63h-253zM196 515v-395c0 -64 3 -74 34 -78l42 -6v-36h-223v36l39 6c36 5 39 15 39 78v283c0 46 -12 59 -48 64l-36 6l5 34l132 16z" />
    <glyph glyph-name="iogonek" unicode="&#x12f;" horiz-adv-x="311" 
d="M245 -161l11 -36c-18 -11 -49 -28 -92 -28s-100 21 -100 91c0 52 35 97 92 134h-107v36l39 6c36 5 39 15 39 78v283c0 46 -12 59 -48 64l-36 6l5 34l132 16l16 -8v-395c0 -64 3 -74 34 -78l42 -6v-36h-47c-42 -27 -92 -70 -92 -119c0 -29 18 -49 55 -51c18 -1 36 2 57 9z
M200 693c0 -37 -20 -56 -54 -56c-32 0 -54 19 -54 56c0 35 22 53 54 53c33 0 54 -18 54 -53z" />
    <glyph glyph-name="itilde" unicode="&#x129;" horiz-adv-x="311" 
d="M196 515v-395c0 -62 3 -74 34 -78l42 -6v-36h-223v36l39 6c36 5 39 15 39 78v283c0 46 -12 59 -48 64l-36 6l5 34l132 16zM59 728c30 0 137 -38 153 -38c12 0 21 5 45 37l30 -17c-27 -73 -56 -87 -76 -87c-27 0 -127 38 -152 38c-13 0 -23 -7 -48 -35l-28 15
c28 62 49 87 76 87z" />
    <glyph glyph-name="jcircumflex" unicode="&#x135;" horiz-adv-x="284" 
d="M189 515v-393c0 -165 -25 -222 -149 -311l-25 35c73 63 105 119 105 239v318c0 46 -12 59 -48 64l-36 6l5 34l132 16zM93 765h66l118 -169l-32 -24l-120 120l-119 -120l-32 24z" />
    <glyph glyph-name="kcommaaccent" unicode="&#x137;" horiz-adv-x="571" 
d="M192 733v-444l204 176v3l-68 8l7 40h197v-39l-25 -3c-29 -5 -40 -11 -74 -39l-125 -109l144 -216c31 -48 51 -64 78 -69l25 -5v-36h-119c-21 38 -40 68 -69 110l-114 170l-61 -53v-107c0 -64 3 -74 34 -78l42 -6v-36h-223v36l39 6c36 5 39 15 39 78v506
c0 39 -7 56 -46 62l-37 5l6 35l129 17zM368 -133c0 -48 -23 -112 -91 -155l-19 23c30 26 45 52 49 87c-40 1 -58 24 -58 55c0 38 25 55 59 55s60 -20 60 -65z" />
    <glyph glyph-name="lacute" unicode="&#x13a;" horiz-adv-x="311" 
d="M195 733v-613c0 -62 2 -74 34 -78l41 -6v-36h-222v36l39 6c36 5 39 15 39 78v506c0 42 -8 56 -46 62l-37 5l6 35l128 17zM279 879l-216 -81l-17 31l178 119l55 -55v-14z" />
    <glyph glyph-name="lcaron" unicode="&#x13e;" horiz-adv-x="349" 
d="M195 733v-613c0 -62 2 -74 34 -78l41 -6v-36h-222v36l39 6c36 5 39 15 39 78v506c0 42 -8 56 -46 62l-37 5l6 35l128 17zM288 519l-32 11c9 40 15 82 16 118c1 31 -1 64 -9 94l71 17l12 -4c2 -7 4 -23 4 -36c0 -64 -26 -135 -62 -200z" />
    <glyph glyph-name="lcommaaccent" unicode="&#x13c;" horiz-adv-x="311" 
d="M195 733v-613c0 -62 2 -74 34 -78l41 -6v-36h-222v36l39 6c36 5 39 15 39 78v506c0 42 -8 56 -46 62l-37 5l6 35l128 17zM215 -133c0 -48 -23 -112 -91 -155l-19 23c30 26 45 52 49 87c-40 1 -58 24 -58 55c0 38 25 55 59 55s60 -20 60 -65z" />
    <glyph glyph-name="ldot" unicode="&#x140;" horiz-adv-x="319" 
d="M195 733v-613c0 -62 2 -74 34 -78l41 -6v-36h-222v36l39 6c36 5 39 15 39 78v506c0 42 -8 56 -46 62l-37 5l6 35l128 17zM371 371c0 -33 -19 -51 -53 -51c-33 0 -53 18 -53 51c0 34 20 51 53 51c34 0 53 -17 53 -51z" />
    <glyph glyph-name="lslash" unicode="&#x142;" horiz-adv-x="311" 
d="M195 733v-298l87 41v-53l-87 -41v-262c0 -64 3 -74 34 -78l41 -6v-36h-222v36l39 6c39 6 39 16 39 96v220l-86 -39v51l86 40v217c0 39 -7 56 -46 61l-37 5l6 35l128 17z" />
    <glyph glyph-name="nacute" unicode="&#x144;" horiz-adv-x="634" 
d="M195 407v-286c0 -65 1 -74 35 -79l36 -6v-36h-218v36l38 6c36 6 40 12 40 79v277c0 46 -11 64 -44 69l-41 6l5 35l119 15l15 -6l9 -70c62 55 117 81 185 81c85 0 154 -39 154 -182v-225c0 -64 3 -74 37 -79l42 -6v-36h-218v36l37 6c31 4 33 14 33 76v221
c0 88 -35 128 -106 128c-53 0 -107 -23 -158 -60zM438 721l-176 -153l-30 23l134 179l72 -36v-13z" />
    <glyph glyph-name="ncaron" unicode="&#x148;" horiz-adv-x="634" 
d="M195 407v-286c0 -65 1 -74 35 -79l36 -6v-36h-218v36l38 6c36 6 40 12 40 79v277c0 46 -11 64 -44 69l-41 6l5 35l119 15l15 -6l9 -70c62 55 117 81 185 81c85 0 154 -39 154 -182v-225c0 -64 3 -74 37 -79l42 -6v-36h-218v36l37 6c31 4 33 14 33 76v221
c0 88 -35 128 -106 128c-53 0 -107 -23 -158 -60zM345 586h-66l-116 167l31 25l119 -122l119 120l30 -24z" />
    <glyph glyph-name="ncommaaccent" unicode="&#x146;" horiz-adv-x="634" 
d="M195 407v-286c0 -65 1 -74 35 -79l36 -6v-36h-218v36l38 6c36 6 40 12 40 79v277c0 46 -11 64 -44 69l-41 6l5 35l119 15l15 -6l9 -70c62 55 117 81 185 81c85 0 154 -39 154 -182v-225c0 -64 3 -74 37 -79l42 -6v-36h-218v36l37 6c31 4 33 14 33 76v221
c0 88 -35 128 -106 128c-53 0 -107 -23 -158 -60zM385 -133c0 -48 -23 -112 -91 -155l-19 23c30 26 45 52 49 87c-40 1 -58 24 -58 55c0 38 25 55 59 55s60 -20 60 -65z" />
    <glyph glyph-name="ntilde" unicode="&#xf1;" horiz-adv-x="634" 
d="M195 407v-286c0 -65 1 -74 35 -79l36 -6v-36h-218v36l38 6c36 6 40 12 40 79v277c0 46 -11 64 -44 69l-41 6l5 35l119 15l15 -6l9 -70c62 55 117 81 185 81c85 0 154 -39 154 -182v-225c0 -64 3 -74 37 -79l42 -6v-36h-218v36l37 6c31 4 33 14 33 76v221
c0 88 -35 128 -106 128c-53 0 -107 -23 -158 -60zM229 728c35 0 156 -38 172 -38c12 0 21 5 45 37l31 -17c-28 -73 -56 -87 -77 -87c-28 0 -144 38 -172 38c-13 0 -23 -7 -47 -35l-29 15c28 62 50 87 77 87z" />
    <glyph glyph-name="oacute" unicode="&#xf3;" horiz-adv-x="547" 
d="M270 -11c-153 0 -224 106 -224 269c0 168 87 270 232 270c156 0 222 -108 222 -270c0 -164 -80 -269 -230 -269zM273 39c93 0 153 69 153 221c0 145 -55 218 -150 218c-103 0 -156 -79 -156 -219c0 -149 58 -220 153 -220zM412 721l-176 -153l-30 23l134 179l72 -36v-13z
" />
    <glyph glyph-name="obreve" unicode="&#x14f;" horiz-adv-x="547" 
d="M270 -11c-153 0 -224 106 -224 269c0 168 87 270 232 270c156 0 222 -108 222 -270c0 -164 -80 -269 -230 -269zM273 39c93 0 153 69 153 221c0 145 -55 218 -150 218c-103 0 -156 -79 -156 -219c0 -149 58 -220 153 -220zM279 654c50 0 82 32 113 102l37 -14
c-21 -96 -77 -155 -150 -155c-83 0 -130 56 -150 155l37 15c27 -71 62 -103 113 -103z" />
    <glyph glyph-name="ocircumflex" unicode="&#xf4;" horiz-adv-x="547" 
d="M270 -11c-153 0 -224 106 -224 269c0 168 87 270 232 270c156 0 222 -108 222 -270c0 -164 -80 -269 -230 -269zM273 39c93 0 153 69 153 221c0 145 -55 218 -150 218c-103 0 -156 -79 -156 -219c0 -149 58 -220 153 -220zM243 765h66l118 -169l-32 -24l-120 120
l-119 -120l-32 24z" />
    <glyph glyph-name="odieresis" unicode="&#xf6;" horiz-adv-x="547" 
d="M270 -11c-153 0 -224 106 -224 269c0 168 87 270 232 270c156 0 222 -108 222 -270c0 -164 -80 -269 -230 -269zM273 39c93 0 153 69 153 221c0 145 -55 218 -150 218c-103 0 -156 -79 -156 -219c0 -149 58 -220 153 -220zM120 679c0 34 20 50 53 50c35 0 55 -16 55 -50
c0 -36 -19 -53 -55 -53c-33 0 -53 17 -53 53zM321 679c0 34 20 50 53 50c35 0 55 -16 55 -50c0 -36 -19 -53 -55 -53c-33 0 -53 17 -53 53z" />
    <glyph glyph-name="ograve" unicode="&#xf2;" horiz-adv-x="547" 
d="M270 -11c-153 0 -224 106 -224 269c0 168 87 270 232 270c156 0 222 -108 222 -270c0 -164 -80 -269 -230 -269zM273 39c93 0 153 69 153 221c0 145 -55 218 -150 218c-103 0 -156 -79 -156 -219c0 -149 58 -220 153 -220zM319 569l-174 150v13l72 37l132 -177z" />
    <glyph glyph-name="ohungarumlaut" unicode="&#x151;" horiz-adv-x="547" 
d="M270 -11c-153 0 -224 106 -224 269c0 168 87 270 232 270c156 0 222 -108 222 -270c0 -164 -80 -269 -230 -269zM273 39c93 0 153 69 153 221c0 145 -55 218 -150 218c-103 0 -156 -79 -156 -219c0 -149 58 -220 153 -220zM372 749l-166 -178l-31 18l122 195l73 -24z
M526 729l-182 -161l-28 21l138 183l71 -32z" />
    <glyph glyph-name="omacron" unicode="&#x14d;" horiz-adv-x="547" 
d="M270 -11c-153 0 -224 106 -224 269c0 168 87 270 232 270c156 0 222 -108 222 -270c0 -164 -80 -269 -230 -269zM273 39c93 0 153 69 153 221c0 145 -55 218 -150 218c-103 0 -156 -79 -156 -219c0 -149 58 -220 153 -220zM133 630v60h285v-60h-285z" />
    <glyph glyph-name="oslash" unicode="&#xf8;" horiz-adv-x="546" 
d="M270 -11c-52 0 -95 12 -128 35l-58 -80h-62l82 114c-39 47 -58 116 -58 200c0 168 87 270 232 270c57 0 103 -15 137 -41l63 87h62l-90 -124c34 -47 50 -113 50 -192c0 -164 -80 -269 -230 -269zM120 259c0 -60 9 -108 27 -143l230 319c-25 28 -59 43 -101 43
c-103 0 -156 -79 -156 -219zM273 39c93 0 153 69 153 221c0 52 -7 94 -21 128l-227 -315c25 -23 57 -34 95 -34z" />
    <glyph glyph-name="oslashacute" unicode="&#x1ff;" horiz-adv-x="546" 
d="M412 721l-176 -153l-30 23l134 179l72 -36v-13zM270 -11c-52 0 -95 12 -128 35l-58 -80h-62l82 114c-39 47 -58 116 -58 200c0 168 87 270 232 270c57 0 103 -15 137 -41l63 87h62l-90 -124c34 -47 50 -113 50 -192c0 -164 -80 -269 -230 -269zM120 259
c0 -60 9 -108 27 -143l230 319c-25 28 -59 43 -101 43c-103 0 -156 -79 -156 -219zM273 39c93 0 153 69 153 221c0 52 -7 94 -21 128l-227 -315c25 -23 57 -34 95 -34z" />
    <glyph glyph-name="otilde" unicode="&#xf5;" horiz-adv-x="547" 
d="M270 -11c-153 0 -224 106 -224 269c0 168 87 270 232 270c156 0 222 -108 222 -270c0 -164 -80 -269 -230 -269zM273 39c93 0 153 69 153 221c0 145 -55 218 -150 218c-103 0 -156 -79 -156 -219c0 -149 58 -220 153 -220zM191 728c35 0 156 -38 172 -38c12 0 21 5 45 37
l31 -17c-28 -73 -56 -87 -77 -87c-28 0 -144 38 -172 38c-13 0 -23 -7 -47 -35l-29 15c28 62 50 87 77 87z" />
    <glyph glyph-name="racute" unicode="&#x155;" horiz-adv-x="422" 
d="M195 398v-277c0 -65 4 -74 36 -78l60 -8v-35h-241v36l36 6c36 6 40 10 40 79v277c0 47 -11 64 -44 69l-41 6l5 35l119 15l15 -6l10 -73c35 45 79 84 142 84c17 0 41 -3 59 -13l-5 -78h-11c-31 15 -56 21 -76 21c-41 0 -75 -27 -104 -60zM372 721l-176 -153l-30 23
l134 179l72 -36v-13z" />
    <glyph glyph-name="rcaron" unicode="&#x159;" horiz-adv-x="422" 
d="M195 398v-277c0 -65 4 -74 36 -78l60 -8v-35h-241v36l36 6c36 6 40 10 40 79v277c0 47 -11 64 -44 69l-41 6l5 35l119 15l15 -6l10 -73c35 45 79 84 142 84c17 0 41 -3 59 -13l-5 -78h-11c-31 15 -56 21 -76 21c-41 0 -75 -27 -104 -60zM262 586h-66l-116 167l31 25
l119 -122l119 120l30 -24z" />
    <glyph glyph-name="rcommaaccent" unicode="&#x157;" horiz-adv-x="422" 
d="M195 398v-277c0 -65 4 -74 36 -78l60 -8v-35h-241v36l36 6c36 6 40 10 40 79v277c0 47 -11 64 -44 69l-41 6l5 35l119 15l15 -6l10 -73c35 45 79 84 142 84c17 0 41 -3 59 -13l-5 -78h-11c-31 15 -56 21 -76 21c-41 0 -75 -27 -104 -60zM216 -133
c0 -48 -23 -112 -91 -155l-19 23c30 26 45 52 49 87c-40 1 -58 24 -58 55c0 38 25 55 59 55s60 -20 60 -65z" />
    <glyph glyph-name="sacute" unicode="&#x15b;" horiz-adv-x="466" 
d="M406 367l-45 7l-14 60c-6 26 -23 44 -85 44c-64 0 -118 -22 -118 -83c0 -136 283 -56 283 -246c0 -95 -72 -160 -199 -160c-72 0 -127 17 -162 35l10 135h43l13 -72c6 -33 31 -47 99 -47c79 0 128 33 128 95c0 143 -281 59 -281 246c0 93 76 147 187 147
c55 0 116 -14 146 -33zM383 721l-176 -153l-30 23l134 179l72 -36v-13z" />
    <glyph glyph-name="scaron" unicode="&#x161;" horiz-adv-x="466" 
d="M406 367l-45 7l-14 60c-6 26 -23 44 -85 44c-64 0 -118 -22 -118 -83c0 -136 283 -56 283 -246c0 -95 -72 -160 -199 -160c-72 0 -127 17 -162 35l10 135h43l13 -72c6 -33 31 -47 99 -47c79 0 128 33 128 95c0 143 -281 59 -281 246c0 93 76 147 187 147
c55 0 116 -14 146 -33zM285 586h-66l-116 167l31 25l119 -122l119 120l30 -24z" />
    <glyph glyph-name="scedilla" unicode="&#x15f;" horiz-adv-x="466" 
d="M143 -210l13 42c15 -5 37 -8 53 -8c40 0 60 18 60 51c0 31 -28 49 -75 54l17 61c-64 2 -113 17 -145 34l10 135h43l13 -72c6 -33 31 -47 99 -47c79 0 128 33 128 95c0 143 -281 59 -281 246c0 93 76 147 187 147c55 0 116 -14 146 -33l-5 -128l-45 7l-14 60
c-6 26 -23 44 -85 44c-64 0 -118 -22 -118 -83c0 -136 283 -56 283 -246c0 -88 -61 -149 -170 -159l-7 -27c39 -10 85 -32 85 -89c0 -60 -49 -98 -121 -98c-31 0 -58 7 -71 14z" />
    <glyph glyph-name="scircumflex" unicode="&#x15d;" horiz-adv-x="466" 
d="M406 367l-45 7l-14 60c-6 26 -23 44 -85 44c-64 0 -118 -22 -118 -83c0 -136 283 -56 283 -246c0 -95 -72 -160 -199 -160c-72 0 -127 17 -162 35l10 135h43l13 -72c6 -33 31 -47 99 -47c79 0 128 33 128 95c0 143 -281 59 -281 246c0 93 76 147 187 147
c55 0 116 -14 146 -33zM223 765h66l118 -169l-32 -24l-120 120l-119 -120l-32 24z" />
    <glyph glyph-name="scommaaccent" unicode="&#x219;" horiz-adv-x="466" 
d="M406 367l-45 7l-14 60c-6 26 -23 44 -85 44c-64 0 -118 -22 -118 -83c0 -136 283 -56 283 -246c0 -95 -72 -160 -199 -160c-72 0 -127 17 -162 35l10 135h43l13 -72c6 -33 31 -47 99 -47c79 0 128 33 128 95c0 143 -281 59 -281 246c0 93 76 147 187 147
c55 0 116 -14 146 -33zM294 -133c0 -48 -23 -112 -91 -155l-19 23c30 26 45 52 49 87c-40 1 -58 24 -58 55c0 38 25 55 59 55s60 -20 60 -65z" />
    <glyph glyph-name="tbar" unicode="&#x167;" horiz-adv-x="368" 
d="M29 261v49h80v155h-85l5 39l83 12l21 115h45v-115h137l-7 -51h-130v-155h127v-49h-127v-119c0 -67 11 -97 62 -97c32 0 64 10 85 21l18 -40c-33 -21 -76 -37 -124 -37c-85 0 -110 46 -110 166v106h-80z" />
    <glyph glyph-name="tcaron" unicode="&#x165;" horiz-adv-x="368" 
d="M325 66l18 -40c-33 -21 -76 -37 -124 -37c-72 0 -110 37 -110 131v345h-85l5 39l82 12l25 120h42v-120h137l-7 -51h-130v-323c0 -67 13 -97 63 -97c33 0 63 10 84 21zM297 562l-32 11c9 40 15 82 16 118c1 31 -1 64 -9 94l71 17l12 -4c2 -7 4 -23 4 -36
c0 -64 -26 -135 -62 -200z" />
    <glyph glyph-name="uni0163" unicode="&#x163;" horiz-adv-x="368" 
d="M116 -210l13 42c15 -5 37 -8 53 -8c40 0 60 18 60 51c0 31 -28 49 -75 54l18 64c-50 10 -76 49 -76 127v345h-85l5 39l82 12l25 120h42v-120h137l-7 -51h-130v-323c0 -67 13 -97 63 -97c33 0 63 10 84 21l18 -40c-31 -20 -70 -35 -113 -37l-7 -26c39 -10 85 -32 85 -89
c0 -60 -49 -98 -121 -98c-31 0 -58 7 -71 14z" />
    <glyph glyph-name="uni021B" unicode="&#x21b;" horiz-adv-x="368" 
d="M325 66l18 -40c-33 -21 -76 -37 -124 -37c-72 0 -110 37 -110 131v345h-85l5 39l82 12l25 120h42v-120h137l-7 -51h-130v-323c0 -67 13 -97 63 -97c33 0 63 10 84 21zM272 -133c0 -48 -23 -112 -91 -155l-19 23c30 26 45 52 49 87c-40 1 -58 24 -58 55c0 38 25 55 59 55
s60 -20 60 -65z" />
    <glyph glyph-name="uacute" unicode="&#xfa;" horiz-adv-x="629" 
d="M515 516v-405c0 -48 8 -61 44 -67l34 -6l-1 -36l-101 -6l-26 3l-13 73c-51 -47 -110 -83 -181 -83c-80 0 -150 36 -150 178v235c0 45 -11 60 -48 66l-36 5l5 35l133 15l15 -7v-340c0 -75 25 -126 98 -126c55 0 108 26 158 66v286c0 45 -12 60 -49 66l-36 5l5 35l133 15z
M439 721l-176 -153l-30 23l134 179l72 -36v-13z" />
    <glyph glyph-name="ubreve" unicode="&#x16d;" horiz-adv-x="629" 
d="M515 516v-405c0 -48 8 -61 44 -67l34 -6l-1 -36l-101 -6l-26 3l-13 73c-51 -47 -110 -83 -181 -83c-80 0 -150 36 -150 178v235c0 45 -11 60 -48 66l-36 5l5 35l133 15l15 -7v-340c0 -75 25 -126 98 -126c55 0 108 26 158 66v286c0 45 -12 60 -49 66l-36 5l5 35l133 15z
M307 654c50 0 82 32 113 102l37 -14c-21 -96 -77 -155 -150 -155c-83 0 -130 56 -150 155l37 15c27 -71 62 -103 113 -103z" />
    <glyph glyph-name="ucircumflex" unicode="&#xfb;" horiz-adv-x="629" 
d="M515 516v-405c0 -48 8 -61 44 -67l34 -6l-1 -36l-101 -6l-26 3l-13 73c-51 -47 -110 -83 -181 -83c-80 0 -150 36 -150 178v235c0 45 -11 60 -48 66l-36 5l5 35l133 15l15 -7v-340c0 -75 25 -126 98 -126c55 0 108 26 158 66v286c0 45 -12 60 -49 66l-36 5l5 35l133 15z
M268 765h66l118 -169l-32 -24l-120 120l-119 -120l-32 24z" />
    <glyph glyph-name="udieresis" unicode="&#xfc;" horiz-adv-x="629" 
d="M515 516v-405c0 -48 8 -61 44 -67l34 -6l-1 -36l-101 -6l-26 3l-13 73c-51 -47 -110 -83 -181 -83c-80 0 -150 36 -150 178v235c0 45 -11 60 -48 66l-36 5l5 35l133 15l15 -7v-340c0 -75 25 -126 98 -126c55 0 108 26 158 66v286c0 45 -12 60 -49 66l-36 5l5 35l133 15z
M148 679c0 34 20 50 53 50c35 0 55 -16 55 -50c0 -36 -19 -53 -55 -53c-33 0 -53 17 -53 53zM349 679c0 34 20 50 53 50c35 0 55 -16 55 -50c0 -36 -19 -53 -55 -53c-33 0 -53 17 -53 53z" />
    <glyph glyph-name="ugrave" unicode="&#xf9;" horiz-adv-x="629" 
d="M515 516v-405c0 -48 8 -61 44 -67l34 -6l-1 -36l-101 -6l-26 3l-13 73c-51 -47 -110 -83 -181 -83c-80 0 -150 36 -150 178v235c0 45 -11 60 -48 66l-36 5l5 35l133 15l15 -7v-340c0 -75 25 -126 98 -126c55 0 108 26 158 66v286c0 45 -12 60 -49 66l-36 5l5 35l133 15z
M336 569l-174 150v13l72 37l132 -177z" />
    <glyph glyph-name="uhungarumlaut" unicode="&#x171;" horiz-adv-x="629" 
d="M515 516v-405c0 -48 8 -61 44 -67l34 -6l-1 -36l-101 -6l-26 3l-13 73c-51 -47 -110 -83 -181 -83c-80 0 -150 36 -150 178v235c0 45 -11 60 -48 66l-36 5l5 35l133 15l15 -7v-340c0 -75 25 -126 98 -126c55 0 108 26 158 66v286c0 45 -12 60 -49 66l-36 5l5 35l133 15z
M401 749l-166 -178l-31 18l122 195l73 -24zM555 729l-182 -161l-28 21l138 183l71 -32z" />
    <glyph glyph-name="umacron" unicode="&#x16b;" horiz-adv-x="629" 
d="M515 516v-405c0 -48 8 -61 44 -67l34 -6l-1 -36l-101 -6l-26 3l-13 73c-51 -47 -110 -83 -181 -83c-80 0 -150 36 -150 178v235c0 45 -11 60 -48 66l-36 5l5 35l133 15l15 -7v-340c0 -75 25 -126 98 -126c55 0 108 26 158 66v286c0 45 -12 60 -49 66l-36 5l5 35l133 15z
M160 630v60h285v-60h-285z" />
    <glyph glyph-name="uogonek" unicode="&#x173;" horiz-adv-x="629" 
d="M583 -161l11 -36c-18 -11 -49 -28 -92 -28s-96 21 -96 87c0 58 43 106 100 138h-36l-12 10l-6 62c-51 -47 -110 -83 -181 -83c-80 0 -150 36 -150 178v235c0 45 -11 60 -48 66l-36 5l5 35l133 15l15 -7v-340c0 -75 25 -126 98 -126c55 0 108 26 158 66v286
c0 45 -12 60 -49 66l-36 5l5 35l133 15l16 -7v-405c0 -48 8 -61 44 -67l34 -6l-1 -38c-56 -27 -117 -65 -117 -122c0 -26 14 -46 51 -48c18 -1 36 2 57 9z" />
    <glyph glyph-name="uring" unicode="&#x16f;" horiz-adv-x="629" 
d="M515 516v-405c0 -48 8 -61 44 -67l34 -6l-1 -36l-101 -6l-26 3l-13 73c-51 -47 -110 -83 -181 -83c-80 0 -150 36 -150 178v235c0 45 -11 60 -48 66l-36 5l5 35l133 15l15 -7v-340c0 -75 25 -126 98 -126c55 0 108 26 158 66v286c0 45 -12 60 -49 66l-36 5l5 35l133 15z
M411 680c0 -84 -64 -102 -108 -102c-53 0 -108 27 -108 103c0 84 63 104 108 104c64 0 108 -36 108 -105zM303 619c34 0 55 22 55 62c0 52 -27 63 -55 63c-25 0 -55 -9 -55 -63c0 -38 18 -62 55 -62z" />
    <glyph glyph-name="utilde" unicode="&#x169;" horiz-adv-x="629" 
d="M515 516v-405c0 -48 8 -61 44 -67l34 -6l-1 -36l-101 -6l-26 3l-13 73c-51 -47 -110 -83 -181 -83c-80 0 -150 36 -150 178v235c0 45 -11 60 -48 66l-36 5l5 35l133 15l15 -7v-340c0 -75 25 -126 98 -126c55 0 108 26 158 66v286c0 45 -12 60 -49 66l-36 5l5 35l133 15z
M215 728c35 0 156 -38 172 -38c12 0 21 5 45 37l31 -17c-28 -73 -56 -87 -77 -87c-28 0 -144 38 -172 38c-13 0 -23 -7 -47 -35l-29 15c28 62 50 87 77 87z" />
    <glyph glyph-name="wacute" unicode="&#x1e83;" horiz-adv-x="793" 
d="M263 0h-72l-120 410c-15 49 -23 58 -51 64l-16 3l8 39h182v-39l-68 -8l109 -390h2l121 432h84l128 -432h2l103 389l-69 9l6 39h175v-39l-16 -2c-32 -5 -41 -9 -55 -55l-119 -420h-73l-131 445h-2zM531 721l-176 -153l-30 23l134 179l72 -36v-13z" />
    <glyph glyph-name="wcircumflex" unicode="&#x175;" horiz-adv-x="793" 
d="M263 0h-72l-120 410c-15 49 -23 58 -51 64l-16 3l8 39h182v-39l-68 -8l109 -390h2l121 432h84l128 -432h2l103 389l-69 9l6 39h175v-39l-16 -2c-32 -5 -41 -9 -55 -55l-119 -420h-73l-131 445h-2zM367 765h66l118 -169l-32 -24l-120 120l-119 -120l-32 24z" />
    <glyph glyph-name="wdieresis" unicode="&#x1e85;" horiz-adv-x="793" 
d="M263 0h-72l-120 410c-15 49 -23 58 -51 64l-16 3l8 39h182v-39l-68 -8l109 -390h2l121 432h84l128 -432h2l103 389l-69 9l6 39h175v-39l-16 -2c-32 -5 -41 -9 -55 -55l-119 -420h-73l-131 445h-2zM242 679c0 34 20 50 53 50c35 0 55 -16 55 -50c0 -36 -19 -53 -55 -53
c-33 0 -53 17 -53 53zM443 679c0 34 20 50 53 50c35 0 55 -16 55 -50c0 -36 -19 -53 -55 -53c-33 0 -53 17 -53 53z" />
    <glyph glyph-name="wgrave" unicode="&#x1e81;" horiz-adv-x="793" 
d="M263 0h-72l-120 410c-15 49 -23 58 -51 64l-16 3l8 39h182v-39l-68 -8l109 -390h2l121 432h84l128 -432h2l103 389l-69 9l6 39h175v-39l-16 -2c-32 -5 -41 -9 -55 -55l-119 -420h-73l-131 445h-2zM443 569l-174 150v13l72 37l132 -177z" />
    <glyph glyph-name="yacute" unicode="&#xfd;" horiz-adv-x="529" 
d="M444 406l-158 -380c-64 -155 -96 -219 -182 -219c-37 0 -75 14 -91 29l18 40c20 -8 46 -17 68 -17c59 0 86 51 137 175l-159 386c-16 38 -26 47 -45 52l-26 6l8 38h192v-39l-73 -9l139 -351h1l142 351l-76 9l6 39h178v-38l-19 -2c-31 -5 -36 -14 -60 -70zM422 721
l-176 -153l-30 23l134 179l72 -36v-13z" />
    <glyph glyph-name="ycircumflex" unicode="&#x177;" horiz-adv-x="529" 
d="M444 406l-158 -380c-64 -155 -96 -219 -182 -219c-37 0 -75 14 -91 29l18 40c20 -8 46 -17 68 -17c59 0 86 51 137 175l-159 386c-16 38 -26 47 -45 52l-26 6l8 38h192v-39l-73 -9l139 -351h1l142 351l-76 9l6 39h178v-38l-19 -2c-31 -5 -36 -14 -60 -70zM243 765h66
l118 -169l-32 -24l-120 120l-119 -120l-32 24z" />
    <glyph glyph-name="ydieresis" unicode="&#xff;" horiz-adv-x="529" 
d="M444 406l-158 -380c-64 -155 -96 -219 -182 -219c-37 0 -75 14 -91 29l18 40c20 -8 46 -17 68 -17c59 0 86 51 137 175l-159 386c-16 38 -26 47 -45 52l-26 6l8 38h192v-39l-73 -9l139 -351h1l142 351l-76 9l6 39h178v-38l-19 -2c-31 -5 -36 -14 -60 -70zM118 679
c0 34 20 50 53 50c35 0 55 -16 55 -50c0 -36 -19 -53 -55 -53c-33 0 -53 17 -53 53zM319 679c0 34 20 50 53 50c35 0 55 -16 55 -50c0 -36 -19 -53 -55 -53c-33 0 -53 17 -53 53z" />
    <glyph glyph-name="ygrave" unicode="&#x1ef3;" horiz-adv-x="529" 
d="M444 406l-158 -380c-64 -155 -96 -219 -182 -219c-37 0 -75 14 -91 29l18 40c20 -8 46 -17 68 -17c59 0 86 51 137 175l-159 386c-16 38 -26 47 -45 52l-26 6l8 38h192v-39l-73 -9l139 -351h1l142 351l-76 9l6 39h178v-38l-19 -2c-31 -5 -36 -14 -60 -70zM303 569
l-174 150v13l72 37l132 -177z" />
    <glyph glyph-name="zacute" unicode="&#x17a;" horiz-adv-x="486" 
d="M433 0h-381v50l293 415h-188c-38 0 -43 -10 -50 -43l-9 -41l-51 -3l14 138h368v-49l-296 -416h196c38 0 48 6 59 40l15 48h44zM388 721l-176 -153l-30 23l134 179l72 -36v-13z" />
    <glyph glyph-name="zcaron" unicode="&#x17e;" horiz-adv-x="486" 
d="M433 0h-381v50l293 415h-188c-38 0 -43 -10 -50 -43l-9 -41l-51 -3l14 138h368v-49l-296 -416h196c38 0 48 6 59 40l15 48h44zM274 586h-66l-116 167l31 25l119 -122l119 120l30 -24z" />
    <glyph glyph-name="zdotaccent" unicode="&#x17c;" horiz-adv-x="486" 
d="M433 0h-381v50l293 415h-188c-38 0 -43 -10 -50 -43l-9 -41l-51 -3l14 138h368v-49l-296 -416h196c38 0 48 6 59 40l15 48h44zM301 696c0 -37 -20 -56 -57 -56c-35 0 -56 19 -56 56c0 35 21 53 56 53c36 0 57 -18 57 -53z" />
    <glyph glyph-name="circumflex" unicode="&#x2c6;" 
d="M218 765h66l118 -169l-32 -24l-120 120l-119 -120l-32 24z" />
    <glyph glyph-name="caron" unicode="&#x2c7;" 
d="M272 586h-66l-116 167l31 25l119 -122l119 120l30 -24z" />
    <glyph glyph-name="uni02C9" unicode="&#x2c9;" 
d="M109 630v60h285v-60h-285z" />
    <glyph glyph-name="breve" unicode="&#x2d8;" 
d="M249 654c50 0 82 32 113 102l37 -14c-21 -96 -77 -155 -150 -155c-83 0 -130 56 -150 155l37 15c27 -71 62 -103 113 -103z" />
    <glyph glyph-name="dieresis" unicode="&#xa8;" 
d="M86 679c0 34 20 50 53 50c35 0 55 -16 55 -50c0 -36 -19 -53 -55 -53c-33 0 -53 17 -53 53zM287 679c0 34 20 50 53 50c35 0 55 -16 55 -50c0 -36 -19 -53 -55 -53c-33 0 -53 17 -53 53z" />
    <glyph glyph-name="macron" unicode="&#xaf;" 
d="M118 630v60h285v-60h-285z" />
    <glyph glyph-name="degree" unicode="&#xb0;" horiz-adv-x="340" 
d="M183 607c36 0 61 21 61 64c0 55 -30 72 -61 72c-30 0 -63 -18 -63 -70c0 -43 25 -66 63 -66zM296 677c0 -76 -50 -116 -114 -116c-58 0 -114 38 -114 113c0 88 67 115 115 115c68 0 113 -47 113 -112z" />
    <glyph glyph-name="acute" unicode="&#xb4;" 
d="M363 721l-176 -153l-30 23l134 179l72 -36v-13z" />
    <glyph glyph-name="grave" unicode="`" 
d="M308 569l-174 150v13l72 37l132 -177z" />
    <glyph glyph-name="cedilla" unicode="&#xb8;" 
d="M141 -210l13 42c15 -5 37 -8 53 -8c40 0 60 18 60 51c0 31 -28 49 -75 54l27 95l44 -6l-15 -55c39 -10 85 -32 85 -89c0 -60 -49 -98 -121 -98c-31 0 -58 7 -71 14z" />
    <glyph glyph-name="dotaccent" unicode="&#x2d9;" 
d="M307 696c0 -37 -20 -56 -57 -56c-35 0 -56 19 -56 56c0 35 21 53 56 53c36 0 57 -18 57 -53z" />
    <glyph glyph-name="ring" unicode="&#x2da;" 
d="M354 677c0 -84 -64 -102 -108 -102c-53 0 -108 27 -108 103c0 84 63 104 108 104c64 0 108 -36 108 -105zM246 616c34 0 55 22 55 62c0 52 -27 63 -55 63c-25 0 -55 -9 -55 -63c0 -38 18 -62 55 -62z" />
    <glyph glyph-name="ogonek" unicode="&#x2db;" 
d="M323 -161l11 -36c-18 -11 -49 -28 -92 -28s-100 21 -100 91c0 62 50 114 127 154l47 -12c-44 -27 -105 -73 -105 -127c0 -29 18 -49 55 -51c18 -1 36 2 57 9z" />
    <glyph glyph-name="tilde" unicode="&#x2dc;" 
d="M162 728c35 0 156 -38 172 -38c12 0 21 5 45 37l31 -17c-28 -73 -56 -87 -77 -87c-28 0 -144 38 -172 38c-13 0 -23 -7 -47 -35l-29 15c28 62 50 87 77 87z" />
    <glyph glyph-name="hungarumlaut" unicode="&#x2dd;" 
d="M294 749l-166 -178l-31 18l122 195l73 -24zM448 729l-182 -161l-28 21l138 183l71 -32z" />
    <glyph glyph-name="commaaccent" unicode="&#xf6c3;" 
d="M309 -133c0 -48 -23 -112 -91 -155l-19 23c30 26 45 52 49 87c-40 1 -58 24 -58 55c0 38 25 55 59 55s60 -20 60 -65z" />
    <glyph glyph-name="revcommaaccent" 
d="M190 648c0 50 24 112 93 155l19 -23c-30 -26 -44 -52 -48 -87c40 -1 59 -24 59 -55c0 -38 -25 -55 -61 -55s-62 20 -62 65z" />
    <glyph glyph-name="caron.alt" 
d="M234 519l-32 11c9 40 15 82 16 118c1 31 -1 64 -9 94l71 17l12 -4c2 -7 4 -23 4 -36c0 -64 -26 -135 -62 -200z" />
    <glyph glyph-name="tilde.cap" 
d="M162 886c35 0 157 -38 173 -38c11 0 21 5 45 37l30 -17c-27 -73 -56 -87 -76 -87c-29 0 -144 39 -172 39c-13 0 -23 -7 -48 -36l-28 16c28 62 49 86 76 86z" />
    <glyph glyph-name="ring.cap" 
d="M358 868c0 -84 -63 -102 -108 -102c-52 0 -108 26 -108 102c0 85 63 105 108 105c65 0 108 -36 108 -105zM250 807c35 0 55 22 55 61c0 52 -26 64 -55 64c-25 0 -55 -10 -55 -64c0 -38 18 -61 55 -61z" />
    <glyph glyph-name="circumflex.cap" 
d="M372 775l-135 81l-133 -81l-24 32l125 117h65l125 -118z" />
    <glyph glyph-name="acute.cap" 
d="M387 859l-216 -81l-17 31l178 119l55 -55v-14z" />
    <glyph glyph-name="grave.cap" 
d="M317 777l-215 83v13l56 55l176 -121z" />
    <glyph glyph-name="dieresis.cap" 
d="M89 848c0 34 19 50 53 50s54 -16 54 -50c0 -36 -18 -53 -54 -53c-34 0 -53 17 -53 53zM290 848c0 34 19 50 53 50s54 -16 54 -50c0 -36 -18 -53 -54 -53c-34 0 -53 17 -53 53z" />
    <glyph glyph-name="caron.cap" 
d="M235 850l134 79l22 -29l-125 -119h-63l-123 119l24 30z" />
    <glyph glyph-name="macron.cap" 
d="M97 815v61h293v-61h-293z" />
    <glyph glyph-name="dotaccent.cap" 
d="M307 851c0 -36 -20 -55 -57 -55c-35 0 -56 19 -56 55s21 54 56 54c36 0 57 -18 57 -54z" />
    <glyph glyph-name="cedilla.cap" 
d="M141 -210l13 42c15 -5 37 -8 53 -8c40 0 61 18 61 51c0 31 -29 49 -76 54l26 94l44 -6l-14 -54c37 -10 83 -32 83 -89c0 -60 -49 -98 -119 -98c-31 0 -58 7 -71 14z" />
    <glyph glyph-name="hungarumlaut.cap" 
d="M327 910l-174 -133l-26 26l142 166l58 -50v-9zM490 897l-180 -126l-24 28l151 160l53 -53v-9z" />
    <glyph glyph-name="apostrophe" unicode="&#x2bc;" 
d="M300 652c0 -47 -29 -114 -97 -157l-21 26c31 26 47 52 52 88c-41 0 -61 25 -61 52c0 38 27 60 62 60c37 0 65 -24 65 -69z" />
    <glyph glyph-name="commaaccent.cap" 
d="M311 -133c0 -50 -24 -112 -93 -155l-19 23c30 26 44 52 48 87c-40 1 -59 24 -59 55c0 38 25 55 61 55s62 -20 62 -65z" />
    <glyph glyph-name="breve.cap" 
d="M355 927l36 -16c-20 -80 -65 -130 -154 -130s-130 55 -148 130l36 17c21 -48 57 -80 114 -80c55 0 93 28 116 79z" />
    <glyph glyph-name="ogonek.cap" 
d="M323 -161l11 -36c-18 -11 -49 -28 -92 -28s-100 21 -100 91c0 62 50 114 127 154l47 -12c-44 -27 -105 -73 -105 -127c0 -29 18 -49 55 -51c18 -1 36 2 57 9z" />
    <glyph glyph-name="onesuperior" unicode="&#xb9;" horiz-adv-x="296" 
d="M172 801v-359c0 -28 13 -37 38 -40l31 -4v-34h-206v34l34 4c29 3 42 14 42 40v251c0 30 -5 41 -26 45l-48 9l3 26l117 33z" />
    <glyph glyph-name="twosuperior" unicode="&#xb2;" horiz-adv-x="374" 
d="M312 364h-277v37l144 171c38 45 63 77 63 123c0 57 -38 71 -81 71s-63 -10 -69 -31l-13 -52l-33 -3l-6 98c29 17 74 33 127 33c94 0 136 -48 136 -114c0 -48 -25 -91 -74 -147l-121 -141h107c33 0 45 7 53 30l16 43h38z" />
    <glyph glyph-name="threesuperior" unicode="&#xb3;" horiz-adv-x="374" 
d="M165 401c67 0 98 40 98 88c0 69 -60 77 -109 77h-37v43l53 5c56 3 89 36 89 81c0 46 -29 71 -82 71s-68 -15 -72 -39l-9 -44l-38 -4l-6 97c20 13 72 34 134 34c87 0 132 -47 132 -105c0 -57 -39 -94 -79 -110c25 -12 86 -43 86 -105c0 -85 -64 -135 -160 -135
c-61 0 -107 18 -131 33l8 95h38l9 -46c5 -26 23 -36 76 -36z" />
    <glyph glyph-name="foursuperior" unicode="&#x2074;" horiz-adv-x="387" 
d="M218 440v30h-201v34l199 295h59v-283h59v-46h-59v-32c0 -28 9 -33 34 -36l29 -4v-34h-189v35l27 3c37 4 42 14 42 38zM79 516h139v210h-1z" />
    <glyph glyph-name="fraction" unicode="&#x2044;" horiz-adv-x="138" 
d="M-94 -18h-60l358 742h60z" />
    <glyph glyph-name="onehalf" unicode="&#xbd;" horiz-adv-x="884" 
d="M253 -18h-60l358 742h60zM195 732v-359c0 -28 13 -37 38 -40l31 -4v-34h-206v34l34 4c29 3 42 14 42 40v251c0 30 -5 41 -26 45l-48 9l3 26l117 33zM833 7h-277v37l144 171c38 45 63 77 63 123c0 57 -38 71 -81 71s-63 -10 -69 -31l-13 -52l-33 -3l-6 98
c29 17 74 33 127 33c94 0 136 -48 136 -114c0 -48 -25 -91 -74 -147l-121 -141h107c33 0 45 7 53 30l16 43h38z" />
    <glyph glyph-name="onequarter" unicode="&#xbc;" horiz-adv-x="866" 
d="M267 -18h-60l358 742h60zM195 732v-359c0 -28 13 -37 38 -40l31 -4v-34h-206v34l34 4c29 3 42 14 42 40v251c0 30 -5 41 -26 45l-48 9l3 26l117 33zM690 83v30h-201v34l199 295h59v-283h59v-46h-59v-32c0 -28 9 -33 34 -36l29 -4v-34h-189v35l27 3c37 4 42 14 42 38z
M551 159h139v210h-1z" />
    <glyph glyph-name="threequarters" unicode="&#xbe;" horiz-adv-x="884" 
d="M301 -18h-60l358 742h60zM708 83v30h-201v34l199 295h59v-283h59v-46h-59v-32c0 -28 9 -33 34 -36l29 -4v-34h-189v35l27 3c37 4 42 14 42 38zM569 159h139v210h-1zM190 332c67 0 98 40 98 88c0 69 -60 77 -109 77h-37v43l53 5c56 3 89 36 89 81c0 46 -29 71 -82 71
s-68 -15 -72 -39l-9 -44l-38 -4l-6 97c20 13 72 34 134 34c87 0 132 -47 132 -105c0 -57 -39 -94 -79 -110c25 -12 86 -43 86 -105c0 -85 -64 -135 -160 -135c-61 0 -107 18 -131 33l8 95h38l9 -46c5 -26 23 -36 76 -36z" />
    <glyph glyph-name="partialdiff" unicode="&#x2202;" horiz-adv-x="497" 
d="M360 354v61c-3 104 -25 209 -134 209c-46 0 -98 -20 -143 -45l-21 36c52 35 114 59 178 59c140 0 195 -116 195 -298c0 -249 -59 -387 -212 -387c-123 0 -170 100 -170 202c0 113 57 208 174 208c62 0 103 -22 132 -46c1 0 1 1 1 1zM358 287c-7 11 -14 20 -22 28
c-34 24 -66 35 -100 35c-84 0 -112 -71 -112 -153c0 -89 26 -159 102 -159c110 0 125 126 132 249z" />
    <glyph glyph-name="Omega" unicode="&#x2126;" horiz-adv-x="751" 
d="M376 683c-101 0 -236 -56 -236 -254c0 -152 68 -236 174 -264v-165h-242l-14 181h48l23 -84c7 -28 22 -46 65 -46h59v78c-114 38 -194 162 -194 290c0 244 176 318 319 318c157 0 316 -81 316 -308c0 -138 -80 -262 -194 -300v-78h56c46 0 62 18 69 46l23 84h47l-14 -181
h-242v165c106 28 175 114 175 266c0 198 -136 252 -238 252z" />
    <glyph glyph-name="Delta" unicode="&#x2206;" horiz-adv-x="664" 
d="M286 724h88l228 -680v-44h-548v44zM517 53l-200 604h-1l-196 -604h397z" />
    <glyph glyph-name="product" unicode="&#x220f;" horiz-adv-x="766" 
d="M224 674v-725c0 -65 1 -75 35 -79l46 -6v-40h-238v39l46 7c35 3 38 11 38 78v657c0 58 -7 70 -44 74l-39 5v40h635v-40l-45 -5c-34 -4 -38 -15 -38 -69v-661c0 -64 5 -76 42 -80l40 -6v-39h-235v40l45 6c29 4 34 15 34 73v731h-322z" />
    <glyph glyph-name="summation" unicode="&#x2211;" horiz-adv-x="621" 
d="M413 264l-276 -387h283c40 0 52 11 64 45l29 87h52l-24 -185h-494v47l277 387l-260 408v58h485l14 -161l-50 4l-15 51c-11 36 -19 52 -63 52h-282z" />
    <glyph glyph-name="uni0394" unicode="&#x394;" horiz-adv-x="664" 
d="M286 724h88l228 -680v-44h-548v44zM517 53l-200 604h-1l-196 -604h397z" />
    <glyph glyph-name="uni03A9" unicode="&#x3a9;" horiz-adv-x="751" 
d="M376 683c-101 0 -236 -56 -236 -254c0 -152 68 -236 174 -264v-165h-242l-14 181h48l23 -84c7 -28 22 -46 65 -46h59v78c-114 38 -194 162 -194 290c0 244 176 318 319 318c157 0 316 -81 316 -308c0 -138 -80 -262 -194 -300v-78h56c46 0 62 18 69 46l23 84h47l-14 -181
h-242v165c106 28 175 114 175 266c0 198 -136 252 -238 252z" />
    <glyph glyph-name="uni03BC" unicode="&#x3bc;" horiz-adv-x="598" 
d="M407 109v410h69v-423c0 -56 10 -60 77 -64l3 -30c-22 -10 -43 -13 -59 -13c-47 0 -82 19 -87 77c-33 -41 -75 -77 -143 -77c-61 0 -96 25 -116 53v-225h-69v702h69v-352c0 -89 52 -115 116 -115c61 0 104 29 140 57z" />
    <glyph glyph-name="pi" unicode="&#x3c0;" horiz-adv-x="668" 
d="M166 447l-115 -3l15 72h553l-8 -57l-124 -4l4 -357c1 -61 13 -61 81 -67l3 -29c-17 -8 -39 -13 -60 -13c-65 0 -92 33 -92 108c1 62 4 289 6 357l-205 -5l-47 -449h-76z" />
    <glyph glyph-name="mu" unicode="&#xb5;" horiz-adv-x="598" 
d="M407 109v410h69v-423c0 -56 10 -60 77 -64l3 -30c-22 -10 -43 -13 -59 -13c-47 0 -82 19 -87 77c-33 -41 -75 -77 -143 -77c-61 0 -96 25 -116 53v-225h-69v702h69v-352c0 -89 52 -115 116 -115c61 0 104 29 140 57z" />
    <glyph glyph-name="uni2215" unicode="&#x2215;" horiz-adv-x="264" 
d="M-15 -18h-56l334 693h57z" />
    <glyph glyph-name="uni2219" unicode="&#x2219;" horiz-adv-x="260" 
d="M194 309c0 -37 -22 -60 -65 -60c-44 0 -67 21 -67 60c0 37 23 59 67 59c42 0 65 -22 65 -59z" />
    <glyph glyph-name="asciicircum" unicode="^" horiz-adv-x="544" 
d="M500 311h-59l-169 302l-168 -302h-57l200 351h53z" />
    <glyph glyph-name="underscore" unicode="_" horiz-adv-x="516" 
d="M503 -103h-491v52h491v-52z" />
    <glyph glyph-name="asciitilde" unicode="~" horiz-adv-x="559" 
d="M453 433l34 -27c-14 -48 -48 -87 -113 -87c-85 0 -130 47 -204 47c-29 0 -45 -17 -63 -45l-34 26c18 58 57 87 110 87c78 0 127 -46 202 -46c34 0 51 16 68 45z" />
    <glyph glyph-name="radical" unicode="&#x221a;" horiz-adv-x="600" 
d="M356 0h-64l-149 261l-72 -16l-14 33l112 52l150 -279l182 678l45 -13z" />
    <glyph glyph-name="infinity" unicode="&#x221e;" horiz-adv-x="684" 
d="M342 282c-43 -53 -89 -105 -169 -105c-64 0 -131 39 -131 139c0 109 70 150 137 150c77 0 126 -55 166 -106c48 63 96 103 164 103c54 0 133 -24 133 -143c0 -92 -61 -145 -138 -145c-66 0 -115 44 -162 107zM315 324v1c-47 59 -81 94 -135 94c-48 0 -85 -34 -85 -103
c0 -67 40 -92 81 -92c43 0 83 28 139 100zM373 319c43 -56 77 -97 132 -97c56 0 84 49 84 100c0 59 -31 95 -82 95c-52 0 -87 -40 -134 -98z" />
    <glyph glyph-name="integral" unicode="&#x222b;" horiz-adv-x="487" 
d="M157 -183l9 38c18 -4 38 -6 52 -6c33 0 37 21 32 67l-70 702c-5 57 9 109 75 109c19 0 40 -3 73 -14l-9 -39c-22 5 -42 6 -51 6c-33 0 -33 -19 -29 -66l70 -699c7 -63 -11 -112 -80 -112c-18 0 -38 3 -72 14z" />
    <glyph glyph-name="approxequal" unicode="&#x2248;" horiz-adv-x="600" 
d="M457 415l35 -28c-14 -44 -43 -80 -102 -80c-80 0 -130 44 -192 44c-24 0 -45 -18 -62 -43l-33 27c17 53 51 80 99 80c75 0 121 -43 192 -43c29 0 48 19 63 43zM457 236l35 -28c-14 -44 -43 -80 -102 -80c-80 0 -130 44 -192 44c-24 0 -45 -18 -62 -43l-33 27
c17 53 51 80 99 80c75 0 121 -43 192 -43c29 0 48 19 63 43z" />
    <glyph glyph-name="notequal" unicode="&#x2260;" horiz-adv-x="600" 
d="M189 44l47 124h-130v61h152l41 107h-193v61h216l45 118h66l-45 -118h106v-61h-130l-40 -107h170v-61h-193l-46 -124h-66z" />
    <glyph glyph-name="lessequal" unicode="&#x2264;" horiz-adv-x="600" 
d="M488 161l-397 147v61l399 150l17 -54l-339 -123v-3l339 -122zM479 0h-388v61h388v-61z" />
    <glyph glyph-name="greaterequal" unicode="&#x2265;" horiz-adv-x="600" 
d="M507 308l-397 -147l-19 56l339 122v3l-339 123l17 54l399 -150v-61zM507 0h-388v61h388v-61z" />
    <glyph glyph-name="less" unicode="&#x3c;" horiz-adv-x="600" 
d="M488 112l-397 147v61l399 151l17 -56l-339 -123v-3l339 -121z" />
    <glyph glyph-name="equal" unicode="=" horiz-adv-x="600" 
d="M494 336h-388v61h388v-61zM494 168h-388v61h388v-61z" />
    <glyph glyph-name="greater" unicode="&#x3e;" horiz-adv-x="600" 
d="M109 471l398 -151v-61l-398 -147l-17 56l338 121v3l-339 123z" />
    <glyph glyph-name="lozenge" unicode="&#x25ca;" horiz-adv-x="600" 
d="M328 -18h-58l-180 323l180 322h58l180 -322zM299 46l138 258l-139 257l-138 -257z" />
    <glyph glyph-name="plus" unicode="+" horiz-adv-x="600" 
d="M269 97v167h-163v61h163v168h61v-168h164v-61h-164v-167h-61z" />
    <glyph glyph-name="minus" unicode="&#x2212;" horiz-adv-x="600" 
d="M494 264h-388v61h388v-61z" />
    <glyph glyph-name="plusminus" unicode="&#xb1;" horiz-adv-x="600" 
d="M329 493v-168h164v-61h-164v-170h-61v170h-163v61h163v168h61zM493 0h-388v61h388v-61z" />
    <glyph glyph-name="divide" unicode="&#xf7;" horiz-adv-x="600" 
d="M494 264h-388v61h388v-61zM247 463c0 30 22 50 54 50c29 0 51 -20 51 -50c0 -29 -22 -52 -51 -52c-32 0 -54 23 -54 52zM247 122c0 30 22 50 54 50c29 0 51 -20 51 -50c0 -32 -22 -52 -51 -52c-32 0 -54 20 -54 52z" />
    <glyph glyph-name="multiply" unicode="&#xd7;" horiz-adv-x="600" 
d="M437 110l-136 136l-140 -139l-39 39l140 140l-137 137l39 40l137 -136l136 136l39 -40l-136 -138l136 -136z" />
    <glyph glyph-name="logicalnot" unicode="&#xac;" horiz-adv-x="600" 
d="M508 179h-60v137h-356v63h416v-200z" />
    <glyph glyph-name="currency" unicode="&#xa4;" horiz-adv-x="589" 
d="M558 63l-46 -46l-91 92c-37 -28 -83 -42 -133 -42c-48 0 -97 17 -130 43l-93 -91l-44 44l91 93c-32 43 -38 89 -38 120c0 45 12 88 38 122l-89 91l45 45l90 -90c42 32 86 44 134 44c47 0 90 -14 132 -45l90 90l43 -44l-90 -92c27 -36 38 -79 38 -119
c0 -31 -5 -77 -38 -123zM292 117c94 0 151 71 151 159c0 93 -61 160 -154 160c-96 0 -151 -73 -151 -160c0 -88 57 -159 154 -159z" />
    <glyph glyph-name="at.case" horiz-adv-x="843" 
d="M592 130l16 -40c-37 -23 -111 -51 -216 -51c-190 0 -330 116 -330 341c0 211 147 379 380 379c207 0 337 -108 337 -306c0 -156 -79 -254 -194 -254c-65 0 -95 29 -106 67c-32 -34 -75 -67 -127 -67c-64 0 -106 49 -106 139c0 159 77 268 214 268c54 0 89 -12 124 -28
l-36 -218c-3 -16 -4 -30 -4 -39c-3 -34 0 -75 55 -75c57 0 119 53 119 208c0 134 -75 255 -282 255c-209 0 -311 -162 -311 -326c0 -195 105 -294 283 -294c72 0 139 21 184 41zM478 314l37 232c-19 10 -42 12 -60 12c-92 0 -140 -84 -140 -213c0 -62 16 -91 64 -91
c35 0 83 36 99 60z" />
    <glyph glyph-name="thinspace" unicode="&#x2009;" horiz-adv-x="48" 
 />
    </font>
</defs>
</svg>
