<?xml version="1.0" encoding="UTF-8" standalone="no"?>
<!-- Generator: Adobe Illustrator 16.0.3, SVG Export Plug-In . SVG Version: 6.00 Build 0)  -->
<!DOCTYPE svg  PUBLIC '-//W3C//DTD SVG 1.1//EN'  'http://www.w3.org/Graphics/SVG/1.1/DTD/svg11.dtd'>
<svg id="Capa_1" xmlns="http://www.w3.org/2000/svg" xml:space="preserve" height="24.94px" viewBox="135.295 0 25.097 24.94" width="25.097px" version="1.1" y="0px" x="0px" xmlns:xlink="http://www.w3.org/1999/xlink" enable-background="new 135.295 0 25.097 24.94">
	<path d="m28.324 36.656c-2.908 1.686-6.912 2.484-10.79 2.484-12.729 0.001-17.534-8.301-17.534-17.912 0-10.958 6.069-19.388 18.504-19.388 3.204 0 7.376 1.054 10.243 2.866l-0.507 9.314-3.583-0.379-0.716-3.92c-0.38-2.444-2.108-3.919-5.396-3.919-6.111 0-9.862 5.479-9.862 14.626 0 9.863 3.372 14.753 9.652 14.753 3.667 0 5.017-0.885 5.732-3.666l0.927-3.247h3.794l-0.464 8.388zm12.73-4.553c0 3.245 0.169 3.666 1.938 3.962l0.97 0.168v2.318h-13.572v-2.318l1.054-0.168c1.77-0.296 1.938-0.591 1.938-3.92v-25.205c0-2.192-0.548-2.655-2.275-3.077l-0.928-0.253 0.295-2.192h10.58v30.685zm28.155 6.322c-1.56 0.463-3.035 0.716-4.51 0.716-4.047 0-5.1-1.769-5.48-3.497-1.264 1.729-3.286 3.497-7.334 3.497-6.069 0-7.164-4.256-7.164-7.207 0-7.754 8.051-7.84 14.119-8.049v-3.205c0-2.487-1.012-4.13-3.92-4.13-2.57 0-5.057 0.885-7.503 2.023l-1.559-3.203c1.644-1.097 5.647-3.541 11.085-3.541 6.618 0 9.568 2.106 9.568 9.904v11.761c0 2.064 0.295 2.401 1.98 2.613l0.717 0.084v2.234h0.001zm-10.368-11.506c-4.215-0.127-6.533 0.8-6.533 3.793 0 2.317 1.224 3.499 3.205 3.499 1.896 0 3.329-0.885 3.329-2.781l-0.001-4.511zm22.38 5.184c0 3.245 0.253 3.666 2.066 3.878l1.77 0.211v2.36h-14.33v-2.36l0.927-0.169c1.769-0.337 1.896-0.589 1.896-3.919v-13.658c0-1.98-0.337-2.95-2.065-3.286l-1.054-0.213 0.169-2.402h9.229l0.505 0.295 0.632 3.71c1.603-2.782 3.583-4.72 6.323-4.72 1.012 0 1.939 0.168 2.825 0.421l-0.59 8.809h-0.632c-3.667-2.191-6.07-2.739-7.673-2.022l0.002 13.065zm20.859 0c0 3.245 0.253 3.666 2.024 3.962l0.969 0.168v2.318h-13.985v-2.318l1.054-0.168c1.813-0.296 2.233-0.591 2.233-3.92v-13.657c0-2.317-0.506-2.949-2.233-3.371l-0.717-0.17 0.168-2.402h9.99l0.505 0.295v19.263zm14.93 0c0 3.245-0.042 3.666 1.771 4.045l0.591 0.085v2.318h-12.813v-2.318l0.757-0.168c1.813-0.296 2.024-0.632 2.024-3.962v-13.615c0-2.19-0.337-2.949-2.107-3.328l-1.013-0.213 0.17-2.402h9.44l0.508 0.295 0.379 2.992c2.234-2.275 5.017-4.003 8.557-4.003 4.257 0 6.87 2.485 6.87 8.303v11.972c0 3.204 0.168 3.75 1.98 3.962l0.926 0.168v2.318h-12.812v-2.318l0.632-0.085c1.517-0.252 1.601-0.841 1.601-3.749v-11.467c0-2.867-1.138-3.71-3.329-3.71-1.98 0-3.541 0.548-4.132 0.927l-0.01 13.953zm-12.19-28.156l0.044-0.548-5.479-3.373-6.617 7.841 2.359 2.107 9.697-6.027z" fill="#D80026"/>
		<path d="m150 12.058c-4.319 1.455 0.026-0.009-4.339 1.469 0 0.019-0.001 0.029-0.001 0.049 0 2.01-1.628 3.64-3.638 3.64-2.012 0-3.642-1.63-3.642-3.64 0-2.012 1.63-3.64 3.642-3.64 1.549 0 2.863 0.975 3.39 2.339 2.454-0.668 8.586-2.485 12.304-7.456-1.694-2.169-4.094-3.745-6.773-4.422-1.09-0.275-2.07-0.389-3.14-0.397-1.998-0.016-3.904 0.461-5.61 1.314-1.308 0.653-2.453 1.494-3.451 2.527-1.259 1.307-2.225 2.717-2.861 4.662-2.459 7.52 3.508 10.092 6.13 10.092 0.804 0 3.12-0.153 5.135-1.819 1.17-0.969 2.33-2.33 2.86-4.718zm10.37-0.257c-3.255-0.668-5.778-0.432-6.361-0.388-1.573 8.307-10.831 13.21-7.765 13.654 0.568 0.083 1.209 0.121 1.535 0.119 1.549-0.011 2.958-0.246 4.479-0.817 3.369-1.271 6.625-4.239 7.745-8.705 0.26-1.031 0.361-1.883 0.386-3.049 0-0.269 0-0.541-0.02-0.814z" fill="#D80026"/>
</svg>
